<svg id="Layer_1" data-name="Layer 1" xmlns="http://www.w3.org/2000/svg" viewBox="0 0 268 84.63"><defs><style>.cls-1{fill:#fff;}</style></defs><polygon points="0 0 0 56.42 36.67 56.42 36.67 84.63 66.3 56.42 268 56.42 268 0 0 0"/><path class="cls-1" d="M25.81,15.52c-4.09,0-5.64,1.69-5.64,5.07V35c0,3.39,1.55,5.08,5.64,5.08s5.64-1.69,5.64-5.08V31.31a.88.88,0,0,0-1-1h-1.7a.88.88,0,0,0-1,1V35c0,1.41-.43,2.26-2.12,2.26s-2.11-.85-2.11-2.26V20.59c0-1.41.56-2.25,2.11-2.25s2.12.84,2.12,2.25v3.67a.89.89,0,0,0,1,1h1.7a.89.89,0,0,0,1-1V20.59C31.31,17.21,29.9,15.52,25.81,15.52Z"/><path class="cls-1" d="M44.71,29.2c2.12-.71,2.82-2.4,2.82-4.94V21c0-3.53-1.55-5.36-5.92-5.36H37.38a.89.89,0,0,0-1,1V38.93a.89.89,0,0,0,1,1h1.69a.89.89,0,0,0,1-1V29.62h1.27l3.52,9.59c.15.43.43.57,1,.57h1.84a.93.93,0,0,0,.84-1.27Zm-.56-4.94c0,1.55-.56,2.54-2.4,2.54H40.06V18.48h1.69c1.84,0,2.4,1,2.4,2.54Z"/><path class="cls-1" d="M61.5,15.66H53.6a.89.89,0,0,0-1,1V38.93a.89.89,0,0,0,1,1h7.9a.89.89,0,0,0,1-1v-1a.89.89,0,0,0-1-1H56.28v-7.9h3.95a.9.9,0,0,0,1-1v-1a.9.9,0,0,0-1-1H56.28V18.2H61.5a.9.9,0,0,0,1-1v-1A1.09,1.09,0,0,0,61.5,15.66Z"/><path class="cls-1" d="M73.77,15.66H70.1a.93.93,0,0,0-1,.84L65.73,38.65a.86.86,0,0,0,.85,1.13h1.55c.56,0,.84-.29,1-.85l.56-4.09h4.37l.57,4.09c0,.56.42.85,1,.85h1.56A.86.86,0,0,0,78,38.65L74.62,16.5A.75.75,0,0,0,73.77,15.66ZM70,32l1-6.49.85-7.33h.28l.84,7.33L73.77,32Z"/><path class="cls-1" d="M91,15.66H80.26a.89.89,0,0,0-1,1v1a.89.89,0,0,0,1,1h3.67V39.07a.89.89,0,0,0,1,1h1.7a.89.89,0,0,0,1-1V18.62h3.67a.89.89,0,0,0,1-1v-1C91.83,16.08,91.54,15.66,91,15.66Z"/><path class="cls-1" d="M98.31,15.66H96.62a.89.89,0,0,0-1,1V38.93a.9.9,0,0,0,1,1h1.69a.89.89,0,0,0,1-1V16.64C99.16,16.08,98.88,15.66,98.31,15.66Z"/><path class="cls-1" d="M115,15.66h-1.55a1,1,0,0,0-1,.84l-2,13.4-.7,7.34h-.28l-.71-7.34-2-13.4c0-.56-.43-.84-1-.84h-1.55a.85.85,0,0,0-.85,1.13l3.39,22.14a.89.89,0,0,0,1,1h3.67c.57,0,.85-.28,1-1l3.38-22.14A.85.85,0,0,0,115,15.66Z"/><path class="cls-1" d="M128.78,15.66h-7.9a.89.89,0,0,0-1,1V38.93a.9.9,0,0,0,1,1h7.9a.89.89,0,0,0,1-1v-1a.89.89,0,0,0-1-1h-5.22v-7.9h4a.89.89,0,0,0,1-1v-1a.89.89,0,0,0-1-1h-4V18.2h5.22a.89.89,0,0,0,1-1v-1A1.31,1.31,0,0,0,128.78,15.66Z"/><path class="cls-1" d="M148,15.66h-2a.51.51,0,0,0-.56.56l-1.84,10.86-.84,5.64h-.15l-.84-5.64-1.84-10.86a.51.51,0,0,0-.56-.56h-2a.52.52,0,0,0-.57.56V39.35a.52.52,0,0,0,.57.57h1.12a.52.52,0,0,0,.57-.57V24.54l-.14-4.79h.14l2.25,14.38a.52.52,0,0,0,.57.57h2c.43,0,.57-.14.57-.57l2.25-14.38h.15l-.15,4.79V39.35a.52.52,0,0,0,.57.57h1.13a.52.52,0,0,0,.56-.57V16.22C148.53,15.8,148.39,15.66,148,15.66Z"/><path class="cls-1" d="M159.11,15.52c-4,0-4.66,1.83-4.66,4.79v15c0,3,.71,4.8,4.66,4.8s4.65-1.69,4.65-4.8V20.31C163.76,17.35,163.06,15.52,159.11,15.52Zm2.68,19.74c0,1.84-.43,3-2.54,3s-2.54-1.13-2.54-3V20.31c0-1.83.42-3,2.54-3s2.54,1.13,2.54,3Z"/><path class="cls-1" d="M175.47,28.49c2.68-.56,3.24-2.4,3.24-5.22V21c0-3.39-.84-5.36-5.22-5.36h-3.24a.51.51,0,0,0-.56.56V39.35a.52.52,0,0,0,.56.57h1.13a.52.52,0,0,0,.56-.57V28.77h1.41l4.09,10.72c.15.29.29.43.57.43h1.27c.28,0,.42-.28.28-.57ZM171.8,26.8V17.49h1.69c2.68,0,3.11,1.27,3.11,3.53v2.25c0,2.26-.43,3.53-3.11,3.53Z"/><path class="cls-1" d="M193.52,15.66H192.4a.52.52,0,0,0-.57.56h0V30.33l.14,4.79h-.14l-1-4.65-3.66-14.25c-.14-.42-.29-.56-.57-.56h-1.55a.51.51,0,0,0-.56.56V39.35a.52.52,0,0,0,.56.57h1.13a.52.52,0,0,0,.56-.57V25.25l-.14-4.8h.14l1,4.66,3.67,14.24c.14.43.28.57.56.57h1.55a.52.52,0,0,0,.57-.57V16.22C194,15.8,193.81,15.66,193.52,15.66Z"/><path class="cls-1" d="M201.56,15.66h-1.12a.52.52,0,0,0-.57.56V39.35a.52.52,0,0,0,.57.57h1.12a.52.52,0,0,0,.57-.57V16.22A.52.52,0,0,0,201.56,15.66Z"/><path class="cls-1" d="M216.8,15.66h-1a.51.51,0,0,0-.56.56V30.33l.14,4.79h-.14l-1-4.65-3.67-14.25c-.14-.42-.28-.56-.56-.56h-1.55a.52.52,0,0,0-.57.56V39.35a.52.52,0,0,0,.57.57h1.12a.52.52,0,0,0,.57-.57V25.25l-.14-4.8h.14l1,4.66,3.66,14.24c.14.43.29.57.57.57h1.55a.52.52,0,0,0,.56-.57V16.22C217.36,15.8,217.22,15.66,216.8,15.66Z"/><path class="cls-1" d="M227.94,15.52c-3.95,0-4.65,1.83-4.65,4.79v15c0,3,.7,4.8,4.65,4.8s4.66-1.69,4.66-4.8v-7a.52.52,0,0,0-.57-.56h-3.81a.51.51,0,0,0-.56.56v.85a.51.51,0,0,0,.56.56h2.26v5.64c0,1.84-.42,3-2.54,3s-2.54-1.13-2.54-3V20.31c0-1.83.43-3,2.54-3s2.54,1.13,2.54,3v2.82a.52.52,0,0,0,.56.57h1.13a.52.52,0,0,0,.57-.57V20.31C232.6,17.35,231.89,15.52,227.94,15.52Z"/><path class="cls-1" d="M246.28,24.26h1.13a.51.51,0,0,0,.56-.56V20.31c0-3-.7-4.79-4.65-4.79s-4.66,1.83-4.66,4.79c0,3.67.85,4.94,2,6.21L244,30.19a6.06,6.06,0,0,1,1.83,4.93c0,1.84-.42,3-2.53,3s-2.54-1.12-2.54-3V31.74a.52.52,0,0,0-.57-.57h-1.13a.52.52,0,0,0-.56.57v3.38c0,3,.71,4.8,4.65,4.8s4.66-1.69,4.66-4.8c0-3.67-.85-4.93-2-6.2l-3.38-3.67a6.08,6.08,0,0,1-1.83-4.94c0-1.83.42-3,2.53-3s2.54,1.13,2.54,3V23.7C245.85,24.12,246,24.26,246.28,24.26Z"/></svg>