<svg id="Layer_1" data-name="Layer 1" xmlns="http://www.w3.org/2000/svg" viewBox="0 0 269.37 98.68"><defs><style>.cls-1{fill:#231f20;}</style></defs><polygon class="cls-1" points="269.34 21.33 0.05 21.33 0.05 0 269.34 0 269.34 21.33 269.34 21.33"/><polygon class="cls-1" points="70.56 56.43 65.16 39.97 69.55 39.97 72.61 51.07 72.72 51.07 75.82 39.97 80.21 39.97 74.78 56.43 74.78 63.92 70.56 63.92 70.56 56.43 70.56 56.43"/><path class="cls-1" d="M90.55,60.68a1.08,1.08,0,0,0,1.18-1.18V44.39a1.08,1.08,0,0,0-1.18-1.18H88.06a1.07,1.07,0,0,0-1.15,1.18V59.5a1.07,1.07,0,0,0,1.15,1.18ZM82.69,60V43.85a3.92,3.92,0,0,1,4-4.05h5.13A3.93,3.93,0,0,1,96,43.85V60a3.93,3.93,0,0,1-4.08,4.05H86.74a3.92,3.92,0,0,1-4-4.05Z"/><path class="cls-1" d="M104.6,43.38v7.25h3.57a1.08,1.08,0,0,0,1.19-1.15v-5a1.07,1.07,0,0,0-1.19-1.14Zm9,12.55v8h-4.22V55.18A1,1,0,0,0,108.24,54H104.6v9.88h-4.22V40h9.08A4,4,0,0,1,113.54,44l0,4.69A3.75,3.75,0,0,1,111,52.42a3.31,3.31,0,0,1,2.57,3.51Z"/><polygon class="cls-1" points="127.45 63.92 122.25 52.65 122.25 63.92 118.04 63.92 118.04 39.97 122.25 39.97 122.25 50.93 127.45 39.97 132 39.97 126.13 51.74 132.07 63.92 127.45 63.92 127.45 63.92"/><polygon class="cls-1" points="142.25 39.97 146.47 39.97 146.47 63.92 142.25 63.92 142.25 39.97 142.25 39.97"/><polygon class="cls-1" points="164.36 39.97 164.36 63.92 160.34 63.92 154.54 48.1 154.44 48.1 154.68 53.46 154.68 63.92 150.9 63.92 150.9 39.97 154.91 39.97 160.71 55.72 160.81 55.72 160.58 49.82 160.58 39.97 164.36 39.97 164.36 39.97"/><path class="cls-1" d="M168.63,60V55.79h4.22V59.5A1,1,0,0,0,174,60.68h2.53a1.06,1.06,0,0,0,1.15-1.18v-4a1.16,1.16,0,0,0-.84-1.25l-5.37-1.49c-1.79-.47-2.8-2.15-2.8-4.31V43.85a3.92,3.92,0,0,1,4.05-4.05h5.13a3.9,3.9,0,0,1,4.05,4.05v4.28h-4.22V44.39a1.06,1.06,0,0,0-1.15-1.18H174a1,1,0,0,0-1.11,1.18V48.1a1.12,1.12,0,0,0,.94,1.25l4.83,1.35c2.36.57,3.24,2,3.24,4.52V60a3.9,3.9,0,0,1-4.05,4.05h-5.13A3.92,3.92,0,0,1,168.63,60Z"/><polygon class="cls-1" points="197.6 43.38 193.24 43.38 193.24 63.92 189.02 63.92 189.02 43.38 184.67 43.38 184.67 39.97 197.6 39.97 197.6 43.38 197.6 43.38"/><polygon class="cls-1" points="201.01 39.97 205.23 39.97 205.23 63.92 201.01 63.92 201.01 39.97 201.01 39.97"/><polygon class="cls-1" points="221.56 43.38 217.19 43.38 217.19 63.92 212.97 63.92 212.97 43.38 208.63 43.38 208.63 39.97 221.56 39.97 221.56 43.38 221.56 43.38"/><path class="cls-1" d="M225,60V40h4.22V59.54a1,1,0,0,0,1.15,1.14h2.49A1,1,0,0,0,234,59.54V40h4.22V60a3.9,3.9,0,0,1-4.05,4.05H229A3.92,3.92,0,0,1,225,60Z"/><polygon class="cls-1" points="254.54 43.38 250.17 43.38 250.17 63.92 245.95 63.92 245.95 43.38 241.61 43.38 241.61 39.97 254.54 39.97 254.54 43.38 254.54 43.38"/><polygon class="cls-1" points="262.24 43.38 262.24 49.95 268.65 49.95 268.65 53.4 262.24 53.4 262.24 60.51 269.37 60.51 269.37 63.92 258.02 63.92 258.02 39.97 269.34 39.97 269.34 43.38 262.24 43.38 262.24 43.38"/><path class="cls-1" d="M6.59,96.59c1.55,0,2.26-.74,2.26-2.29V78.71c0-1.55-.71-2.29-2.26-2.29H4.72c-1.51,0-2.22.74-2.22,2.29V94.3c0,1.55.71,2.29,2.22,2.29ZM0,94.57V78.44a3.76,3.76,0,0,1,4.08-4.08H7.23a3.77,3.77,0,0,1,4.12,4.08V94.57a3.77,3.77,0,0,1-4.12,4.08H4.08A3.76,3.76,0,0,1,0,94.57Z"/><polygon class="cls-1" points="17.88 76.62 17.88 85.36 24.47 85.36 24.47 87.45 17.88 87.45 17.88 98.52 15.38 98.52 15.38 74.56 24.95 74.56 24.95 76.62 17.88 76.62 17.88 76.62"/><polygon class="cls-1" points="47.31 77.97 42.93 77.97 42.93 98.52 38.71 98.52 38.71 77.97 34.36 77.97 34.36 74.56 47.31 74.56 47.31 77.97 47.31 77.97"/><polygon class="cls-1" points="55.1 77.97 55.1 84.55 61.51 84.55 61.51 87.99 55.1 87.99 55.1 95.11 62.15 95.11 62.15 98.52 50.88 98.52 50.88 74.56 62.15 74.56 62.15 77.97 55.1 77.97 55.1 77.97"/><path class="cls-1" d="M66.33,94.64V78.44a3.92,3.92,0,0,1,4-4h5.13a3.93,3.93,0,0,1,4.08,4v4.93H75.37V79a1.08,1.08,0,0,0-1.18-1.18H71.7A1.07,1.07,0,0,0,70.55,79V94.1a1.07,1.07,0,0,0,1.15,1.18h2.49a1.08,1.08,0,0,0,1.18-1.18v-5h4.22v5.57a3.92,3.92,0,0,1-4.08,4H70.38a3.91,3.91,0,0,1-4-4Z"/><polygon class="cls-1" points="97.21 74.56 97.21 98.52 92.99 98.52 92.99 88.56 88.24 88.56 88.24 98.52 84.02 98.52 84.02 74.56 88.24 74.56 88.24 85.12 92.99 85.12 92.99 74.56 97.21 74.56 97.21 74.56"/><polygon class="cls-1" points="115.1 74.56 115.1 98.52 111.09 98.52 105.28 82.69 105.18 82.69 105.42 88.06 105.42 98.52 101.64 98.52 101.64 74.56 105.65 74.56 111.46 90.32 111.56 90.32 111.32 84.41 111.32 74.56 115.1 74.56 115.1 74.56"/><path class="cls-1" d="M127.39,95.28a1.08,1.08,0,0,0,1.18-1.18V79a1.08,1.08,0,0,0-1.18-1.18h-2.5A1.07,1.07,0,0,0,123.75,79V94.1a1.07,1.07,0,0,0,1.14,1.18Zm-7.86-.64V78.44a3.92,3.92,0,0,1,4-4h5.13a3.93,3.93,0,0,1,4.08,4v16.2a3.92,3.92,0,0,1-4.08,4h-5.13a3.91,3.91,0,0,1-4-4Z"/><polygon class="cls-1" points="147.51 95.11 147.51 98.52 137.22 98.52 137.22 74.56 141.44 74.56 141.44 95.11 147.51 95.11 147.51 95.11"/><path class="cls-1" d="M158.09,95.28a1.08,1.08,0,0,0,1.18-1.18V79a1.08,1.08,0,0,0-1.18-1.18H155.6A1.07,1.07,0,0,0,154.45,79V94.1a1.07,1.07,0,0,0,1.15,1.18Zm-7.86-.64V78.44a3.92,3.92,0,0,1,4.05-4h5.13a3.93,3.93,0,0,1,4.08,4v16.2a3.92,3.92,0,0,1-4.08,4h-5.13a3.91,3.91,0,0,1-4.05-4Z"/><path class="cls-1" d="M177,82.52V79a1.09,1.09,0,0,0-1.19-1.18h-2.49A1.07,1.07,0,0,0,172.17,79V94.1a1.07,1.07,0,0,0,1.15,1.18H176a1.07,1.07,0,0,0,1.15-1.18V88.9h-2.9V85.49h7v13H179l-.44-1.76a2.89,2.89,0,0,1-3.1,1.92H172a3.92,3.92,0,0,1-4.05-4V78.44a3.92,3.92,0,0,1,4.05-4h5.13a3.93,3.93,0,0,1,4.08,4v4.08Z"/><polygon class="cls-1" points="189.14 91.03 183.74 74.56 188.13 74.56 191.2 85.66 191.3 85.66 194.4 74.56 198.79 74.56 193.36 91.03 193.36 98.52 189.14 98.52 189.14 91.03 189.14 91.03"/><polygon class="cls-1" points="70.56 56.43 65.16 39.97 69.55 39.97 72.61 51.07 72.72 51.07 75.82 39.97 80.21 39.97 74.78 56.43 74.78 63.92 70.56 63.92 70.56 56.43 70.56 56.43"/><path class="cls-1" d="M90.55,60.68a1.08,1.08,0,0,0,1.18-1.18V44.39a1.08,1.08,0,0,0-1.18-1.18H88.06a1.07,1.07,0,0,0-1.15,1.18V59.5a1.07,1.07,0,0,0,1.15,1.18ZM82.69,60V43.85a3.92,3.92,0,0,1,4-4.05h5.13A3.93,3.93,0,0,1,96,43.85V60a3.93,3.93,0,0,1-4.08,4.05H86.74a3.92,3.92,0,0,1-4-4.05Z"/><path class="cls-1" d="M104.6,43.38v7.25h3.57a1.08,1.08,0,0,0,1.19-1.15v-5a1.07,1.07,0,0,0-1.19-1.14Zm9,12.55v8h-4.22V55.18A1,1,0,0,0,108.24,54H104.6v9.88h-4.22V40h9.08A4,4,0,0,1,113.54,44l0,4.69A3.75,3.75,0,0,1,111,52.42a3.31,3.31,0,0,1,2.57,3.51Z"/><polygon class="cls-1" points="127.45 63.92 122.25 52.65 122.25 63.92 118.04 63.92 118.04 39.97 122.25 39.97 122.25 50.93 127.45 39.97 132 39.97 126.13 51.74 132.07 63.92 127.45 63.92 127.45 63.92"/><polygon class="cls-1" points="142.25 39.97 146.47 39.97 146.47 63.92 142.25 63.92 142.25 39.97 142.25 39.97"/><polygon class="cls-1" points="164.36 39.97 164.36 63.92 160.34 63.92 154.54 48.1 154.44 48.1 154.68 53.46 154.68 63.92 150.9 63.92 150.9 39.97 154.91 39.97 160.71 55.72 160.81 55.72 160.58 49.82 160.58 39.97 164.36 39.97 164.36 39.97"/><path class="cls-1" d="M168.63,60V55.79h4.22V59.5A1,1,0,0,0,174,60.68h2.53a1.06,1.06,0,0,0,1.15-1.18v-4a1.16,1.16,0,0,0-.84-1.25l-5.37-1.49c-1.79-.47-2.8-2.15-2.8-4.31V43.85a3.92,3.92,0,0,1,4.05-4.05h5.13a3.9,3.9,0,0,1,4.05,4.05v4.28h-4.22V44.39a1.06,1.06,0,0,0-1.15-1.18H174a1,1,0,0,0-1.11,1.18V48.1a1.12,1.12,0,0,0,.94,1.25l4.83,1.35c2.36.57,3.24,2,3.24,4.52V60a3.9,3.9,0,0,1-4.05,4.05h-5.13A3.92,3.92,0,0,1,168.63,60Z"/><polygon class="cls-1" points="197.6 43.38 193.24 43.38 193.24 63.92 189.02 63.92 189.02 43.38 184.67 43.38 184.67 39.97 197.6 39.97 197.6 43.38 197.6 43.38"/><polygon class="cls-1" points="201.01 39.97 205.23 39.97 205.23 63.92 201.01 63.92 201.01 39.97 201.01 39.97"/><polygon class="cls-1" points="221.56 43.38 217.19 43.38 217.19 63.92 212.97 63.92 212.97 43.38 208.63 43.38 208.63 39.97 221.56 39.97 221.56 43.38 221.56 43.38"/><path class="cls-1" d="M225,60V40h4.22V59.54a1,1,0,0,0,1.15,1.14h2.49A1,1,0,0,0,234,59.54V40h4.22V60a3.9,3.9,0,0,1-4.05,4.05H229A3.92,3.92,0,0,1,225,60Z"/><polygon class="cls-1" points="254.54 43.38 250.17 43.38 250.17 63.92 245.95 63.92 245.95 43.38 241.61 43.38 241.61 39.97 254.54 39.97 254.54 43.38 254.54 43.38"/><polygon class="cls-1" points="262.24 43.38 262.24 49.95 268.65 49.95 268.65 53.4 262.24 53.4 262.24 60.51 269.37 60.51 269.37 63.92 258.02 63.92 258.02 39.97 269.34 39.97 269.34 43.38 262.24 43.38 262.24 43.38"/><path class="cls-1" d="M6.59,96.59c1.55,0,2.26-.74,2.26-2.29V78.71c0-1.55-.71-2.29-2.26-2.29H4.72c-1.51,0-2.22.74-2.22,2.29V94.3c0,1.55.71,2.29,2.22,2.29ZM0,94.57V78.44a3.76,3.76,0,0,1,4.08-4.08H7.23a3.77,3.77,0,0,1,4.12,4.08V94.57a3.77,3.77,0,0,1-4.12,4.08H4.08A3.76,3.76,0,0,1,0,94.57Z"/><polygon class="cls-1" points="17.88 76.62 17.88 85.36 24.47 85.36 24.47 87.45 17.88 87.45 17.88 98.52 15.38 98.52 15.38 74.56 24.95 74.56 24.95 76.62 17.88 76.62 17.88 76.62"/><polygon class="cls-1" points="47.31 77.97 42.93 77.97 42.93 98.52 38.71 98.52 38.71 77.97 34.36 77.97 34.36 74.56 47.31 74.56 47.31 77.97 47.31 77.97"/><polygon class="cls-1" points="55.1 77.97 55.1 84.55 61.51 84.55 61.51 87.99 55.1 87.99 55.1 95.11 62.15 95.11 62.15 98.52 50.88 98.52 50.88 74.56 62.15 74.56 62.15 77.97 55.1 77.97 55.1 77.97"/><path class="cls-1" d="M66.33,94.64V78.44a3.92,3.92,0,0,1,4-4h5.13a3.93,3.93,0,0,1,4.08,4v4.93H75.37V79a1.08,1.08,0,0,0-1.18-1.18H71.7A1.07,1.07,0,0,0,70.55,79V94.1a1.07,1.07,0,0,0,1.15,1.18h2.49a1.08,1.08,0,0,0,1.18-1.18v-5h4.22v5.57a3.92,3.92,0,0,1-4.08,4H70.38a3.91,3.91,0,0,1-4-4Z"/><polygon class="cls-1" points="97.21 74.56 97.21 98.52 92.99 98.52 92.99 88.56 88.24 88.56 88.24 98.52 84.02 98.52 84.02 74.56 88.24 74.56 88.24 85.12 92.99 85.12 92.99 74.56 97.21 74.56 97.21 74.56"/><polygon class="cls-1" points="115.1 74.56 115.1 98.52 111.09 98.52 105.28 82.69 105.18 82.69 105.42 88.06 105.42 98.52 101.64 98.52 101.64 74.56 105.65 74.56 111.46 90.32 111.56 90.32 111.32 84.41 111.32 74.56 115.1 74.56 115.1 74.56"/><path class="cls-1" d="M127.39,95.28a1.08,1.08,0,0,0,1.18-1.18V79a1.08,1.08,0,0,0-1.18-1.18h-2.5A1.07,1.07,0,0,0,123.75,79V94.1a1.07,1.07,0,0,0,1.14,1.18Zm-7.86-.64V78.44a3.92,3.92,0,0,1,4-4h5.13a3.93,3.93,0,0,1,4.08,4v16.2a3.92,3.92,0,0,1-4.08,4h-5.13a3.91,3.91,0,0,1-4-4Z"/><polygon class="cls-1" points="147.51 95.11 147.51 98.52 137.22 98.52 137.22 74.56 141.44 74.56 141.44 95.11 147.51 95.11 147.51 95.11"/><path class="cls-1" d="M158.09,95.28a1.08,1.08,0,0,0,1.18-1.18V79a1.08,1.08,0,0,0-1.18-1.18H155.6A1.07,1.07,0,0,0,154.45,79V94.1a1.07,1.07,0,0,0,1.15,1.18Zm-7.86-.64V78.44a3.92,3.92,0,0,1,4.05-4h5.13a3.93,3.93,0,0,1,4.08,4v16.2a3.92,3.92,0,0,1-4.08,4h-5.13a3.91,3.91,0,0,1-4.05-4Z"/><path class="cls-1" d="M177,82.52V79a1.09,1.09,0,0,0-1.19-1.18h-2.49A1.07,1.07,0,0,0,172.17,79V94.1a1.07,1.07,0,0,0,1.15,1.18H176a1.07,1.07,0,0,0,1.15-1.18V88.9h-2.9V85.49h7v13H179l-.44-1.76a2.89,2.89,0,0,1-3.1,1.92H172a3.92,3.92,0,0,1-4.05-4V78.44a3.92,3.92,0,0,1,4.05-4h5.13a3.93,3.93,0,0,1,4.08,4v4.08Z"/><polygon class="cls-1" points="189.14 91.03 183.74 74.56 188.13 74.56 191.2 85.66 191.3 85.66 194.4 74.56 198.79 74.56 193.36 91.03 193.36 98.52 189.14 98.52 189.14 91.03 189.14 91.03"/><polygon class="cls-1" points="9.75 39.97 9.75 49.82 9.99 55.76 9.9 55.76 4.09 39.97 0.05 39.97 0.05 63.99 3.85 63.99 3.85 53.49 3.62 48.11 3.71 48.11 9.52 63.99 13.55 63.99 13.55 39.97 9.75 39.97 9.75 39.97"/><polygon class="cls-1" points="22.2 43.36 22.2 43.36 22.2 49.97 28.63 49.97 28.63 53.43 22.2 53.43 22.2 60.57 29.28 60.57 29.28 63.99 17.98 63.99 17.98 39.97 29.28 39.97 29.28 43.36 22.2 43.36 22.2 43.36"/><polygon class="cls-1" points="55.13 39.97 55.13 39.97 51.62 63.99 46.31 63.99 44.48 50.95 44.16 48.85 44.07 48.85 43.78 50.95 41.95 63.99 36.64 63.99 33.1 39.97 37.32 39.97 39.56 57.73 39.62 57.73 42.01 39.97 46.25 39.97 48.67 57.73 48.76 57.73 50.94 39.97 55.13 39.97 55.13 39.97"/></svg>