<svg viewBox="0 0 167.93 72.63" xmlns="http://www.w3.org/2000/svg"><path d="m149.5 30.26c-5.19 0-8.93 4-10.08 10.67l18.14-.29c.29-5.19-3.17-10.38-8.06-10.38zm-.87 42.37c-10.94 0-19.3-8.65-19.3-20.75 0-14.7 8.93-24.79 21.9-24.79 10.37 0 15.84 5.77 15.84 15v1.73l-27.94-.29a24.8 24.8 0 0 0 -.29 5.19c0 10.66 6.62 17.58 15.55 17.58 5.19 0 8.07-1.73 12.1-5.48l1.44 2.31c-5.76 6.05-10.66 9.51-19.3 9.51zm-47.81-.87v-2.3c4.61-.29 6.05-1.44 6.91-3.17v-53.9c0-3.46-.58-4.9-7.78-5.47v-2l19.05-4.92.58 1.73-2.88 3.75v60.81c1.15 2 2.88 2.88 7.2 3.17v2.3zm-31.69-15.85a27.18 27.18 0 0 0 -.86 5.48c0 3.17 1.73 6.34 5.18 6.34 3.17 0 4.9-1.15 7.78-3.17v-14.12c-2.59.86-9.22 4-12.1 5.47zm20.74 16.72c-5.47 0-8.35-3.75-8.64-6.63-3.46 3.75-8.07 6.63-12.39 6.63-5.47 0-10.37-3.46-10.37-9.22a16.51 16.51 0 0 1 2.31-8.36l20.74-7.5v-7.78c0-4.61-2.31-9.22-6.92-9.22-2.88 0-5.47 3.46-5.76 8.65l-9.21 1.44v-.58c3.16-9.22 13.25-13 18.43-13 9.51 0 13 4.9 12.68 12.68l-.29 21.91c0 4.32 2.3 5.18 4.32 5.18 1.73 0 3.45-1.15 5.18-2.88v2.88c-2.3 2.6-6.33 5.77-10.08 5.77zm-34-57.35-17 28.82v19.31c2 4.61 6.91 5.18 11.81 5.47v2.88h-33.68v-2.59c4.9-.29 10.66-.86 12.1-4v-19.92l-17.29-29.4c-3.17-5.19-6.05-6.92-11.81-7.49v-2.6h29.09v2.6c-5.47.57-7.2 1.44-8.64 2.59l16.13 28 15.84-27.71c-1.72-1.44-4-2.31-9.5-2.88v-2.6h24.77v2.6c-5.47.29-8.93 2.3-11.81 6.92z" fill-rule="evenodd"/></svg>