<svg viewBox="0 0 309 87" xmlns="http://www.w3.org/2000/svg" xmlns:xlink="http://www.w3.org/1999/xlink"><mask id="a" height="63.39" maskUnits="userSpaceOnUse" width="200.91" x="0" y="1.24"><path d="m.04 1.24h200.87v63.39h-200.87z" fill="#fff" fill-rule="evenodd"/></mask><mask id="b" height="12.47" maskUnits="userSpaceOnUse" width="146.66" x="1.16" y="74.49"><path d="m1.16 74.49h146.66v12.47h-146.66z" fill="#fff" fill-rule="evenodd"/></mask><mask id="c" height="12.51" maskUnits="userSpaceOnUse" width="146.66" x="1.16" y="74.49"><path d="m1.16 74.49h146.66v12.47h-146.66z" fill="#fff" fill-rule="evenodd"/></mask><mask id="d" height="12.81" maskUnits="userSpaceOnUse" width="51.05" x="216.42" y="74.15"><path d="m216.42 74.15h51.04v12.81h-51.04z" fill="#fff" fill-rule="evenodd"/></mask><mask id="e" height="12.85" maskUnits="userSpaceOnUse" width="51.05" x="216.42" y="74.15"><path d="m216.42 74.15h51.04v12.81h-51.04z" fill="#fff" fill-rule="evenodd"/></mask><g mask="url(#a)"><path d="m143.33 16.25-.4-2.26-.76-2.33-1.07-2.13-1.21-1.67-1.48-1.52-1.4-1-.26-.07-.3-.28-1.36-.68-2.13-.75-2.26-.36-2.29-.05-2.41.37-2.32.73-.33.24-.09.22v.29 1.25l.29 19.73.24 6.28.16.31.14.09.38.1 3.9.18 2.82-.18 2.58-.52 1.78-.61 2.13-1.11 1.16-.88 1.36-1.41 1.23-1.82 1-2 .62-2.12.35-2.74zm-62.21 2.75-9.67 22.29-1.13 2.82.05.25h.06.13 9.14l12.92-.09 5.15-.13.3-.11.07-.14v.11-.16l-.22-.84-11.92-28.34-.18-.14-.1-.53-.72-1.76-.33-.45h-.12-.06-.06l-.11.18zm-71.51-15.29-.46.66-.34.93-.11 1 .14 21.84v.2l.06.14.29.14 3.79.09 32.48-.17.43-.08.12-.05.11-.08.07-.18.06-5.22-.1-13.93-.15-3.17-.31-1.26-.58-1-.68-.66-1.43-.83v-.08l.14-.1h1l2.1.2 5.17-.1 3.43-.22h.16.09v.22l-.2.19-1.23.49-.94.71-.54.71-.4 1-.24 1.24v19.45l.4 33 .27 2 .45 1.21.52.67.68.53.5.22h.41l1.23-.55 1.68-1.25 1.57-1.7 1.46-2.28 6-13.08 9.62-22.2 9.2-20.74.06-.1v-.05-.05h.19l5.89 13.38 11.78 26.2 7.37 16.54 1.42 2.66 1 1.39 1.14 1 1 .51.32.11h.3l.64-.3.61-.5.45-.66.36-1 .28-1.86.07-3.9-.34-47-.24-1.86-.36-1.13-.72-1.07-.87-.82-.88-.51-1-.33h-.06v-.09-.18l.07-.08.9-.08 3.86.11 9.23-.42 3.21-.09 3.4.2 2.74.49 1.81.6 1.85.79 1.99 1.21 1.7 1.5 1.3 1.61 1.23 2 .9 2.14.58 2.27.23 2.22-.13 2.46-.51 2.41-.87 2.47-1.14 2.19-1.56 2.23-1.89 2-1.84 1.42-.81.54-.14.14-.05.1v.19l1 1.61 1.49 2.16.17.44.14.05 7.49 10.42 5.8 7.38 3.54 3.92 2.29 2 2.08 1.46 2 .94.72.17.33-.06 1-.59.77-.79.4-.8.26-1 .14-10.55v-41.26l-.26-1.7-.6-1.42-.76-1.13-1.18-1.1-.67-.51-.1-.1v-.06-.21h.06l.8-.07 2.94.06 12.29-.59 3.65.18 3.46.65 2.18.66 2.19 1 1.68 1.1 1.63 1.52 1.07 1.3 1.33 2.3.8 2 .56 2.38.22 2.36-.09 2.26-.51 2.77-.83 2.42-1.14 2.13-1.25 1.73-1.68 1.7-1.75 1.25-2.1 1.08-2 .71-2.74.55-2.82.26-3.39-.08-2.27-.28-.2-.07-.13-.09-.09-.11v-.12-.11-.1l.15-.12.53-.06 3.45.33 3-.13 2.4-.57 1.78-.7 1.68-1.08 1.36-1.31 1.19-1.62.63-1.13h.06l.95-3 .35-2.39.09-2.75-.24-2.37-.68-2.83-.78-2-1.1-2-1.45-1.91-1.29-1.28-1.5-1-1.89-.81-1.77-.49-2.26-.32h-2.58l-2.55.35-1.83.42-.18.09-.13.11-.06.14-.25 7.79.17 46 .29 1.81.38 1.14.67 1 .69.71.82.53 1.56.6.1.06.08.09.06.07v.16.1l-.21.13h-1.23l-5.29-.44h-5.8-2.71l-2.58-.32-2.16-.64-2-.88-2.26-1.38-2.2-1.74-2.31-2.33-4.07-5.22-7.46-10-4.91-6.77-.24-.25h-.07l-.64-.07-3.71.37h-4.57l-1.12-.07h-.2l-.15.07-.14.23-.07 2.37.07 20.48.25 2.57.36 1.23.52.86.69.67.91.46.87.25.14.07.1.1v.1l-.1.11h-1.86l-1.7-.13-6.9-.18-2.78.18-5.37-.15-3.58.15-2.13.18h-.08-.09-.06v-.1l.17-.36.91-1.24.42-1.06.18-1.08-.18-1.37-.73-2.29-3.63-8.64-.2-.35-.18-.15-.73-.1-30.01.26-.28.08-.23.2-2 4.86-2.06 5.43-.43 1.84v1.33l.26 1.15 1 1.78-.17.15-4.55-.37-3.81.07-1.88.08-6.54-.15-5.48.23h-.06v-.14l.17-.17 1.55-.58.85-.62.6-.7.4-1 .31-2v-12.44l-.15-14.44v-.18-.1l-.06-.07-.44-.25-1.1-.08-33.95.11-1.64.06-.19.06-.12.06-.09.16-.06 5.38.06 21.76.26 1.58.56 1.27.56.79.77.61 1 .42.41.1h.06.06l.05.17-.35.13h-11.87-.08-.07-.06v-.18l.26-.19.93-.43.84-.7.69-.94.43-1 .21-1.26-.08-42.25-.05-9.84-.3-2.22-.27-.77-.63-.91-.87-.84-1.3-.75-.07-.09v-.08l.63-.08 3.77.31 4.35-.15 3-.21h.16.06l.09.14-.59.42-1 .52z" fill="#1a1919" fill-rule="evenodd"/></g><path d="m261.53 16.83-.42-2.3-.85-2.53-1-2-1.26-1.71-1.43-1.44-1.87-1.23-2.11-1-1.93-.62-2.37-.33-2.58.13-2.26.49-1.62.6-.2.22-.06.26.05 1.51.24 19.34.22 6.89.11.24.11.09.1.05.51.1 4 .18 1.92-.11 2.3-.39 2.12-.6 2.26-1.07 1.31-.94 1.63-1.66 1-1.49 1-2 .8-2.42.35-3zm31.2 49.17-3.93-.16-3.48-.26-3.24-.34-2.66-.5-1.91-.69-1.89-.87-2-1.31-2.34-1.94-2.54-2.73-4.45-5.83-5.71-7.74-5.77-8.05-.22-.22-.12-.07h-.47l-4.06.4h-4.53-1-.13l-.11.07-.09.17-.08 3.47v20.08l.25 2.22.37 1.23.49.85.73.69.77.42 1 .29.11.06.07.06v.06.06.13l-.11.1-1 .06-5.68-.15-9.46.17-16.89-.15-10.34.06h-.13-.06l-.05-.06v-.28l.42-.35 1.38-.9.85-.8.61-1 .49-1.51.21-2.51v-16.14-30.7l-.2-4-.35-1.54-.49-1.1-.42-.6-1-.84-.84-.5-.11-.11-.06-.07v-.09-.15-.09l.14-.11 1-.1h14.1l9.74-.06.75.19.48.29.43.57.49 1.57.46 2.41v.16.08.08h-.11l-.41-.38-.72-.9-.91-.67-1.37-.43-1.19-.21h-8.46l-4.83.13-.28.06-.12.13-.09.26-.11 11.31v9.59l.14 4.06.06.26.06.12.17.11 1.47.06 11.09-.29 2.22-.32 1.35-.47.88-.56.69-.72.68-1.18h.06.14l.07.06.09.54-.22 3.34.07 3.48.08 1.62v.19l-.06.11h-.06-.15l-.35-.36-.74-1-.84-.71-1.15-.54-1.45-.34h-9.53l-4.32.17h-.15l-.1.06-.16.25-.14 5.15v15.07l.24 7.5.08.42.07.12.24.14 7.83.12h9.66l3-.35 1.27-.38 1.58-.85.69-.57.29-.4.15-.68v-9.06l-.22-41.92-.24-1.83-.45-1.21-.64-1.06-.83-.78-.88-.49-1.07-.36-.07-.06v-.19l.11-.1h1.16l3.44.09 10.36-.53h3.06l3.19.27 2.45.5 1.74.6 2 .91 1.57 1 1.68 1.54 1.31 1.61 1.16 1.92.92 2.15.6 2.44.21 1.85-.06 2.46-.46 2.5-.89 2.63-1.07 2.16-1.37 2-1.69 1.89-2.08 1.8-1.18.79-.09.11v.26l1.57 2.5 6.7 9.64 5.51 7.47 3.72 4.54 1.12 1.14 1.58 1.35 2.16 1.27 1.42.7 3.29 1.07 3.31.62 2.95.24 2.32-.16 2.31-.43 1.81-.67 1.82-1.05 1.21-.89 1.27-1.47 1.1-1.73.62-1.59.47-2.09.1-1.83-.3-2.22-.65-2-1-2-1.12-1.8-1.5-1.6-3.01-2.59-11.44-9.15-2.84-2.76-1.47-1.78-1.33-2-.9-2-.46-1.78-.29-2.48v-2l.42-2.43.87-2.57 1-2 .76-1.1.36-.28.43-.64 1.62-1.51 2-1.27 2.14-.91 2.09-.58 2.3-.31h3.06l3.22.44 3.64.91 3.65 1.16.22.11.17.19.13 1.06-.16 4-.19 1.27-.07.21-.06.08h-.09-.15l-.45-.64-1.18-1.72-1.23-1.57-1.28-1.16-1.87-1.14-2.11-.77-2.51-.52-2.21-.06-2.3.31-2 .62-1.7.85-1.44 1-1.24 1.31-1 1.51-.67 1.65-.38 1.64-.06 2.2.2 1.64.55 1.87.88 1.71 1.37 1.82 2.63 2.7 4 3.27 10.89 8.51 2.74 2.65 1.34 1.68 1 1.69.74 1.9.51 2.15.22 1.76-.07 2.31-.5 2.75-.88 2.39-1 2-1.2 1.79-1.32 1.45-2.1 1.76-2 1.23-2.07.84-2.78.67z" fill="#1a1919" fill-rule="evenodd"/><path d="m273.45 17h-1.13l-.09-.01-.04-.02-.05-.01-.07-.04-.07-4.07.13-12.52.02-.08.02-.04.01-.05.05-.06.4-.08 1.03-.02.1.01.06.02.06.01.08.09.04 4.87-.13 11.76-.02.07-.02.02-.03.07z" fill="#1a1919" fill-rule="evenodd"/><g mask="url(#b)"><path d="m3.92 84c-.11 2.93 2 1.93 2 2.64 0 .06.08.27-.47.27-.7 0-1.11-.07-2-.07s-1.64.07-1.93.07-.37-.14-.37-.24c0-.62 1.6-.19 1.67-2l.28-6.89c.11-2.82-2-2-2-2.77a.26.26 0 0 1 .23-.24c.26 0 .55.07 1.17.07.45 0 1.17-.07 1.81-.07.22 0 .41 0 .68.5l4.28 8.21c.08.16.14.28.26.28s.29-.31.31-.36l4.51-8.28a.47.47 0 0 1 .49-.35c.47 0 .84.07 1.13.07s.72-.07 1.26-.07.57.07.57.21c0 .61-1.91 0-1.83 1.92l.33 7.58c.1 2.24 1.89 1.49 1.89 2.12 0 .29-.26.29-.94.29s-1.11-.07-1.67-.07c-1.27 0-1.73.07-2.18.07s-.9.05-.9-.26c0-.58 1.52 0 1.41-1.91l-.3-5.19c0-.51 0-.77-.15-.77s-.31.34-.61.91l-3.61 6.75c-.12.22-.2.48-.51.48s-.39-.29-.49-.48l-3.77-7.42c-.06-.1-.14-.29-.22-.29s-.13.31-.13.43z" fill="#1a1919" fill-rule="evenodd"/></g><g mask="url(#b)"><path d="m55.18 82.67c.5 0 .6.17 1.24 1.51a2.59 2.59 0 0 1 .35 1.14c0 1.05-1.38.86-1.38 1.35 0 .24.26.21.61.21.56 0 1.28-.07 2.14-.07 1.28 0 1.81.07 2.51.07.52 0 .7 0 .7-.26 0-.56-1.05.11-1.68-1.11l-5.25-10.51c-.25-.52-.29-.55-.47-.55s-.35.32-.48.6l-5.28 10.39c-.48 1-1.48.86-1.48 1.25 0 .22.32.19.59.19.56 0 1.13-.07 1.71-.07s1.21.07 1.83.07c.41 0 1 .12 1-.24s-2.1-.19-2.1-1.42a4.33 4.33 0 0 1 .41-1.35c.45-1.13.85-1.2 1.19-1.2zm-3.25-.92c-.35 0-.62 0-.62-.16a1.39 1.39 0 0 1 .21-.63l1.5-3c.1-.19.17-.21.21-.21s0 0 .16.14l1.61 3.11a1.4 1.4 0 0 1 .22.63c0 .17-.27.16-.62.16z" fill="#1a1919" fill-rule="evenodd"/></g><g mask="url(#c)"><path d="m103 78.75c0 .22-.12.31-.49.31s-.43-3.73-5.54-3.73c-1.81 0-4.38 1-4.38 5.37 0 2.35 1.36 5.46 4.51 5.46 3.5 0 3.56-1.44 3.56-2.43 0-2.67-2.31-1.51-2.31-2.16 0-.49.62-.35 1-.35.92 0 1.81.06 2.73.06.72 0 1.4-.06 2.1-.06a.21.21 0 0 1 .21.23c0 .74-1.34-.18-1.34 2 0 .7.06 1.18.06 1.42s0 .36-.2.44a14.66 14.66 0 0 1 -6.15 1.69c-5.7 0-6.58-4.38-6.58-5.73a6.58 6.58 0 0 1 6.91-6.66c2.71 0 4.34 1.11 4.87 1.11s.46-.48.78-.48.29.38.29.65v2.86" fill="#1a1919" fill-rule="evenodd"/></g><g mask="url(#b)"><path d="m141.65 82.67c.51 0 .61.17 1.25 1.51a2.73 2.73 0 0 1 .35 1.14c0 1.05-1.38.86-1.38 1.35 0 .24.25.21.6.21.57 0 1.29-.07 2.14-.07 1.29 0 1.81.07 2.51.07.53 0 .7 0 .7-.26 0-.56-1 .11-1.67-1.11l-5.26-10.51c-.25-.52-.29-.55-.46-.55s-.35.32-.49.6l-5.27 10.35c-.49 1-1.48.86-1.48 1.25 0 .22.31.19.58.19.57 0 1.13-.07 1.72-.07s1.2.07 1.82.07c.41 0 1 .12 1-.24s-2.11-.19-2.11-1.42a4.61 4.61 0 0 1 .41-1.35c.45-1.13.86-1.2 1.19-1.2zm-3.25-.92c-.35 0-.62 0-.62-.16a1.4 1.4 0 0 1 .22-.59l1.49-3c.1-.19.18-.21.22-.21s0 0 .15.14l1.6 3.1a1.39 1.39 0 0 1 .21.63c0 .17-.27.16-.62.16z" fill="#1a1919" fill-rule="evenodd"/></g><path d="m177.79 75c.4 0 2.35.07 3.74.07l5.22-.07c.65 0 .81 0 .81.17s-.2.42-.83 1.37l-5.9 8.75a2 2 0 0 0 -.28.54c0 .22.6.31 1.83.31 4.93 0 4.65-2.22 5.4-2.22.08 0 .22 0 .22.37a2.82 2.82 0 0 1 -2.8 2.71c-3 0-4.21-.07-5.2-.07s-2.11.07-2.62.07c-.26 0-.38 0-.38-.12a6.68 6.68 0 0 1 .75-1.2l5.84-8.59a2.23 2.23 0 0 0 .4-.78c0-.51-1.25-.44-2.38-.44-4.27 0-2.94 2-3.91 2-.34 0-.26-.44-.22-.71l.31-2.19" fill="#1a1919" fill-rule="evenodd"/><g mask="url(#d)"><path d="m221 84.65c0 2.21 2.19 1.38 2.19 1.95 0 .2-.17.27-.62.27-.73 0-1.45-.07-3-.07-.84 0-1.68.07-2.19.07a.19.19 0 0 1 -.21-.21c0-.63 1.41-.16 1.41-1.87v-8.63c0-1.63-2.21-1.13-2.21-1.76 0-.3.48-.25.66-.25.76 0 1.53.07 2.21.07s1.41-.07 2.52-.07c.59 0 .69 0 .69.25 0 .61-1.47 0-1.47 1.67v8.58" fill="#1a1919" fill-rule="evenodd"/></g><g mask="url(#e)"><path d="m254.18 77.6c0-3.45-2.19-2.28-2.19-3.14a.3.3 0 0 1 .34-.31c.37 0 .72.07 1.09.07s1-.07 2.05-.07c.63 0 .4.13.75.47l7.86 7.92c.25.26.49.47.61.47s.15-.21.15-.66v-6c0-1.63-2.38-1.31-2.38-1.9a.29.29 0 0 1 .31-.31c.31 0 .88.07 2.23.07s1.92-.07 2.09-.07c.37 0 .37.18.37.23 0 .54-1.66.11-1.66 2v10.09c0 .4 0 .54-.23.54a.61.61 0 0 1 -.51-.25l-9.41-9.35c-.14-.14-.25-.23-.35-.23s-.16.13-.16.29v6.11c0 3.45 2.51 2.23 2.51 3.07 0 .25-.49.23-.75.23-1 0-1.62-.07-2.31-.07s-1.15.07-1.68.07c-.21 0-.6.09-.6-.21 0-.72 1.87-.4 1.87-2.23z" fill="#1a1919" fill-rule="evenodd"/></g><path d="m301.42 79.36c0 .72 0 .84.81.84h1.18c1.61 0 1.67-1.56 2-1.56.13 0 .34 0 .36.43l.13 3c0 .22.13.83-.32.83-.6 0-.08-1.79-2-1.79h-1.39c-.86 0-.79.2-.79 1.18v2.17c0 1.06-.07 1.67 1.28 1.67 4.64 0 4.38-2.22 5.09-2.22.08 0 .21 0 .21.37a2.74 2.74 0 0 1 -2.62 2.72c-2.85 0-4-.07-4.91-.07-.58 0-1.37.07-2.4.07-.24 0-.36-.08-.36-.19 0-.78 1.43.14 1.43-1.93v-7.88c0-1.53-2.12-1-2.12-1.66 0-.15.15-.29.41-.29.77 0 2.12.07 5 .07 1.33 0 2.62-.07 4.27-.07a.34.34 0 0 1 .37.32l.08 1.68c0 .22.11.78-.32.78-.88 0 .58-2-3-2-2.26 0-2.34 0-2.34 1.18v2.38" fill="#1a1919" fill-rule="evenodd"/></svg>