<svg id="Layer_1" data-name="Layer 1" xmlns="http://www.w3.org/2000/svg" viewBox="0 0 275.56 89.09"><defs><style>.cls-1{fill:#231f20;}</style></defs><path class="cls-1" d="M263,22.07h-7.18V51.76c0,5.55-1.43,15.41-12.44,15.41-8.51,0-9.09-10.48-9.09-14.56V32.06C234.33,10.49,251.5,9,256.57,9a17.79,17.79,0,0,1,18.08,17.68c0,7.6-5.65,16.53-15.69,16.53-9.39,0-14-6.57-12.35-13.4a10,10,0,0,1-1.43.47C244.12,35.39,247.24,44,258.82,44c12,0,16.74-11,16.74-17.45,0-9.6-7.94-18.34-19.28-18.29-17.2.07-30.4,15.34-30.4,35.18s9.86,24.66,16.75,24.66c8.07,0,12.24-4.37,13.28-10.17.17,0,.27.1.42.14A16.94,16.94,0,0,0,256,61.9v5.33H269V66.4H263Z"/><path class="cls-1" d="M209.19,10.86a4.63,4.63,0,1,0,4.63-4.63A4.63,4.63,0,0,0,209.19,10.86Z"/><polygon class="cls-1" points="206.92 21.15 218.18 21.15 218.18 66.42 224.03 66.42 224.03 67.23 205.04 67.23 205.04 66.42 210.94 66.42 210.94 21.94 206.91 21.94 206.92 21.15"/><path class="cls-1" d="M173.61,21.94V66.42h7.93c3.2,0,13.76.07,13.76-15.06,0-3.76-.12-10.94-.12-14.44,0-14.9-10.38-15-13.67-15Zm8.29-.82c6,0,21.89,2,21.89,23s-15.37,23.1-21.18,23.1h-21.5v-.81h5.26V21.12Z"/><path class="cls-1" d="M161.27,12.47V26.2h-.81s.45-14.52-8.69-14.52c-4.73,0-7.11,4.1-7.11,8.93v7.16c0,2.29.34,9.56,9.18,9.56,2.13,0,5-.91,5-2.09,0-1.73-2.79-2.09-5.23-2.09s-16.08.42-16.08,19.77V69.23c0,4.27,1.19,19,22.48,19,12.92,0,24.24-11,24.24-22.74,0-10.75-5.73-19.08-16-19.08-11.2,0-16.27,8.91-16.27,14.28,0,3.91,2.19,10,6.45,10.59a6.77,6.77,0,0,0-1.46,1c-3.08-1.21-5.9-5.66-5.9-11.52,0-5.58,5-15.13,17.4-15.13,10.36,0,16.77,8.72,16.77,19.94,0,9.3-9.23,23.52-25.19,23.52S128,81,128,60.54c0-14.78,13.69-28.19,25.45-28.19,3.46,0,6.19.61,6.19,2.74s-3.44,3-6,3c-6.38,0-14.81-5.06-14.81-14.24,0-8.19,6.31-13,13.28-13C158,10.86,159.84,12.29,161.27,12.47Z"/><path class="cls-1" d="M108.86,42.66V66.4h7.42v.83H96.12v-.82h5.5V21.15h7.24V41.7h0A12.8,12.8,0,0,0,114.69,43c1.73,0,10.51-.21,10.51-11.82s-.1-8.89-.1-13.88-1.5-13-13.64-13-15.93,9.61-15.8,10.32a10,10,0,0,0-1.22-1c2-4.39,7.84-10.18,17-10.18C120.31,3.43,133,9,133,22.84c0,13.13-8.46,21-18.11,21A13.9,13.9,0,0,1,108.86,42.66Z"/><path class="cls-1" d="M83.65,45.1V66.42h6.64v.81H69.73v-.81h6.68V47.18C67.29,44.71,62.08,31.56,62.08,22H57.36v-.82H74.19V22H69.47c0,8.66,4.25,19.88,13.14,22.71,7.66-3.71,11-13.54,11-19.34,0-2.59-1.73-3.36-4-3.36v-.78h9.75V22c-2.48,0-4.44.85-4.71,3.25C93.92,31.9,91.34,40.86,83.65,45.1Z"/><path class="cls-1" d="M36.32,82.54C49.54,82.54,64,72.22,64,56.21,64,41.62,53,35,43.88,35c-8.83,0-18.15,4.38-18.15,15.62,0,10.12,6.56,15.19,14.68,15.19,5.38,0,11.5-5.16,11-10.32A10.87,10.87,0,0,0,52.79,57c0,4.36-6.95,9.7-12.27,9.7-7.92,0-15.74-4.95-15.74-16,0-10.36,8-16.65,19.08-16.65C54.64,34,65,42.38,65,56.22,65,73.54,49,83.46,36.32,83.46c-9.08,0-32.93-4.31-32.93-32.62S29,16,33.73,14.36c-.06-.21,0-.22-.1-.43-3.72.81-12.74-.36-20.86.12S2.13,17.43,1.28,21.42A11.59,11.59,0,0,0,0,20.67c.77-2.31,3.77-6.13,7.39-9.7,3.45-3.39,9.19-5.72,17.54-5.54,5.54.13,39.71,1.08,46,1.08S80.41,4.28,80.41,0a8.54,8.54,0,0,1,1,1.12c-.06,2.67-3.9,7.43-8.31,10.62C69,14.69,65.42,14.5,62.18,14.69c-5.77.33-9.18-.35-12.91.15-1.56.21-7.41,3.35-7.41,11.16V56.53c0,5.49-2.39,8.44-5.23,10.91C33.09,70.52,33.14,70,21.56,77.92,25.06,80.94,30.13,82.54,36.32,82.54Zm-6.87-11.1c3.68-2.72,3.87-7.77,3.87-12.06,0-2.67-.15-21.69-.15-27.78a12.53,12.53,0,0,1,4.54-10.31c2.24-2.19,6.78-5.46,10.1-6.61a52.14,52.14,0,0,0-10.38-.2C25.82,16.24,16.16,24.2,16.16,35.91V62.34c0,5.19,1.68,12,4.71,15C20.87,77.29,25.17,74.61,29.45,71.44Z"/></svg>