<svg id="Layer_1" data-name="Layer 1" xmlns="http://www.w3.org/2000/svg" viewBox="0 0 82.65 56.6"><rect x="54.51" y="39.66" width="3.09" height="16.66"/><polygon points="63.68 53.24 63.68 39.66 60.6 39.66 60.6 56.33 69.44 56.33 69.44 53.24 63.68 53.24"/><path d="M51.48,39.66V51.23c0,3.43-2.45,5.37-6,5.37s-6-1.94-6-5.37V39.66h3.1V51a2.59,2.59,0,0,0,2.89,2.91A2.6,2.6,0,0,0,48.4,51V39.66Z"/><path d="M45.53,0H31.82A1.87,1.87,0,0,0,30,1.87V3.05c0,1-.1,4.47-1.13,5.5a4.49,4.49,0,0,1-3,1.13H20.6a1.87,1.87,0,0,0,0,3.74h5.18a4.49,4.49,0,0,1,3,1.13,4.55,4.55,0,0,1,1.13,3v9.54a1.87,1.87,0,1,0,3.74,0V17.18a.41.41,0,0,1,.41-.42.42.42,0,0,1,.42.42V29.46a1.87,1.87,0,0,0,3.74,0l0-12.89a.42.42,0,0,1,.42-.42.42.42,0,0,1,.42.42v12.1a1.87,1.87,0,1,0,3.73,0V16a.42.42,0,1,1,.84,0V24.9a1.87,1.87,0,1,0,3.74,0v-23A1.87,1.87,0,0,0,45.53,0"/><path d="M1.86,38.68h13.7a1.88,1.88,0,0,0,1.88-1.87V35.63c0-1,.09-4.47,1.13-5.5a4.47,4.47,0,0,1,3-1.13h5.21a1.87,1.87,0,0,0,0-3.74H21.61a4.56,4.56,0,0,1-3.05-1.12,4.51,4.51,0,0,1-1.12-3.05V11.55a1.87,1.87,0,0,0-3.74,0v10a.41.41,0,0,1-.42.41.41.41,0,0,1-.41-.41V9.22A1.87,1.87,0,0,0,11,7.35a1.9,1.9,0,0,0-1.33.55,1.85,1.85,0,0,0-.54,1.32V22.11a.42.42,0,0,1-.41.42.42.42,0,0,1-.42-.42V10a1.87,1.87,0,0,0-3.74,0V22.72a.42.42,0,1,1-.84,0V13.77a1.87,1.87,0,0,0-3.73,0v23a1.87,1.87,0,0,0,1.86,1.87"/><polygon points="26.99 15.55 25.31 18.47 28.68 18.47 28.68 20.33 25.31 20.33 26.99 23.25 25.38 24.18 23.7 21.26 22.01 24.18 20.4 23.25 22.08 20.33 18.71 20.33 18.71 18.47 22.08 18.47 20.4 15.55 22.01 14.62 23.7 17.54 25.38 14.62 26.99 15.55"/><path d="M30.17,53.35H26.38V45.73H30c2.33,0,4.29,1.17,4.29,3.73s-1.84,3.89-4.16,3.89M26.38,37.09h3.9c1.77,0,3.24.88,3.24,2.82a2.86,2.86,0,0,1-3.14,2.94h-4Zm8.21,7a5.28,5.28,0,0,0,2-4.18,5.59,5.59,0,0,0-5.79-5.8H23.17V56.33h7.31a6.56,6.56,0,0,0,6.93-6.76,6.39,6.39,0,0,0-2.82-5.47"/><path d="M76.92,53.3H74.34V42.62h2.58c1.71,0,2.41.78,2.41,2.39v5.55c0,1.61-.67,2.7-2.32,2.74Zm.14-13.63H71.32V56.33H77c3.58,0,5.64-2.3,5.64-5.93v-4.8c0-3.58-2-5.86-5.59-5.92"/></svg>