<svg id="Layer_1" data-name="Layer 1" xmlns="http://www.w3.org/2000/svg" viewBox="0 0 280.39 36.5"><path d="M12.62,15.58l-.71,4.1H16l.7-4.1ZM25.5,24.91H20.38L18.44,36H13.15l1.95-11H10.94L9,36H3.77l1.94-11H0l.92-5.23H6.69l.7-4.1H1.73l.91-5.23H8.3L10.14,0h5.22L13.53,10.35h4.1L19.46,0H24.8L23,10.35h5L27,15.58h-5l-.7,4.1h5.07l-.92,5.23Z"/><polygon points="53.21 7.12 44.31 7.12 44.31 35.96 35.8 35.96 35.8 7.12 26.85 7.12 26.85 0 53.21 0 53.21 7.12 53.21 7.12"/><path d="M63.24,23.24a18.65,18.65,0,0,0-4.75.91c-2.31.76-3.5,2.1-3.5,4.05a3.21,3.21,0,0,0,3.34,3.39c2.81,0,4.91-2.59,4.91-5.93V23.24ZM63.94,36a14.21,14.21,0,0,1-.38-3.45,4,4,0,0,1,.06-.7C61,35.31,58.93,36.5,55.1,36.5c-5.07,0-8.36-2.91-8.36-7.44,0-3.78,2.1-6.58,5.93-8,2.1-.76,4.58-1.19,10.57-1.68V17.84c0-2.58-1.3-3.88-3.94-3.88a4.13,4.13,0,0,0-4.53,3.88l-7.22-.7c.54-2.85,1.35-4.31,3-5.6,2.32-1.78,5.61-2.7,9.49-2.7,4.31,0,7.81,1.24,9.54,3.34,1.13,1.46,1.45,2.86,1.45,6.8V31c0,3.18,0,3.18.49,5Z"/><path d="M98.23,26A10.63,10.63,0,0,1,96,32C93.7,35,90.36,36.5,86,36.5c-7.65,0-12.72-5.45-12.72-13.64,0-8.41,5.28-14,13.15-14a11.41,11.41,0,0,1,9,3.72,10.4,10.4,0,0,1,2.75,6.52l-7.34.44c-.37-3.35-1.61-4.8-4.15-4.8-3.18,0-4.63,2.48-4.63,7.87s1.29,7.55,4.42,7.55c2.48,0,3.88-1.46,4.36-4.59l7.34.44Z"/><path d="M126.37,36h-8.68l-5.56-12.08-4.58,5.29V36h-7.38V0h7.38V21.56c.54-.64,1-1.24,1.13-1.45.71-.86,1.14-1.46,1.24-1.56l7.77-9.17h7.65l-7.65,9L126.37,36Z"/><polygon points="127.88 0 135.69 0 135.69 35.96 127.88 35.96 127.88 0 127.88 0"/><path d="M155.1,19.41c-.32-3.83-1.61-5.45-4.47-5.45s-4.53,1.73-4.91,5.45ZM145.72,24a12.18,12.18,0,0,0-.05,1.24c0,3.45,2.05,5.71,5.12,5.71,2.59,0,4.2-1.45,4.74-4.15l7.12.49a13,13,0,0,1-3.07,5.61c-2.32,2.48-5.18,3.61-9.06,3.61-7.87,0-13.1-5.45-13.1-13.59,0-8.3,5.23-14.07,12.83-14.07a11.91,11.91,0,0,1,10.41,5.61c1.56,2.64,2.1,4.85,2.15,9.54Z"/><polygon points="173.49 6.85 173.49 14.23 186.96 14.23 186.96 20.97 173.49 20.97 173.49 28.84 190.63 28.84 190.63 35.96 164.91 35.96 164.91 0 190.63 0 190.63 6.85 173.49 6.85 173.49 6.85"/><path d="M200.6,25.45c0,3.5,1.57,5.6,4.05,5.6a3.94,3.94,0,0,0,3.66-2.75,15.65,15.65,0,0,0,.76-5.66,22.09,22.09,0,0,0-.59-5.82,4,4,0,0,0-3.72-2.75c-2.59,0-4.16,2.43-4.16,6.25v5.13Zm0-12.73c1.73-2.8,3.51-3.88,6.58-3.88,6.09,0,9.92,5.28,9.92,13.69,0,8.79-4,14-10.73,14-3.66,0-5.44-1.08-7.71-4.64a8.25,8.25,0,0,0-1.29,2.8,11.7,11.7,0,0,1-.43,1.3h-4.15V0h7.81V12.72Z"/><path d="M226.75,22c0,6.63,1.3,9.38,4.48,9.38s4.47-2.59,4.47-8.47c0-6.47-1.24-8.95-4.42-8.95s-4.53,2.37-4.53,8Zm17.2.75c0,8.14-5.28,13.75-12.89,13.75a11.37,11.37,0,0,1-9.27-4c-2.26-2.69-3.29-5.76-3.29-10,0-8.14,5.07-13.64,12.56-13.64,7.77,0,12.89,5.5,12.89,13.91Z"/><polygon points="245.62 0 253.44 0 253.44 35.96 245.62 35.96 245.62 0 245.62 0"/><path d="M272.09,23.24a18.55,18.55,0,0,0-4.74.91c-2.32.76-3.51,2.1-3.51,4.05a3.21,3.21,0,0,0,3.34,3.39c2.81,0,4.91-2.59,4.91-5.93V23.24Zm.7,12.72a14.21,14.21,0,0,1-.38-3.45,4,4,0,0,1,.06-.7c-2.59,3.5-4.69,4.69-8.52,4.69-5.07,0-8.36-2.91-8.36-7.44,0-3.78,2.11-6.58,5.93-8,2.11-.76,4.59-1.19,10.57-1.68V17.84c0-2.58-1.29-3.88-3.93-3.88a4.13,4.13,0,0,0-4.53,3.88l-7.23-.7c.54-2.85,1.35-4.31,3-5.6,2.32-1.78,5.61-2.7,9.49-2.7,4.31,0,7.82,1.24,9.54,3.34,1.13,1.46,1.46,2.86,1.46,6.8V31c0,3.18,0,3.18.48,5Z"/></svg>