<svg viewBox="0 0 176.56 76.44" xmlns="http://www.w3.org/2000/svg"><path d="m33.37 37.33a4.15 4.15 0 0 1 .11-.48l-7.82-2.25a10.88 10.88 0 0 1 -.56 1.2z"/><path d="m44 50.53-3.7-7.89-.44.18 3.26 9.18a9.34 9.34 0 0 1 .88-1.47z"/><path d="m41.58 41.78-.37.31 5 6.45a9.3 9.3 0 0 1 1.15-.64z"/><path d="m28.24 47.63 6.43-6.06a3.73 3.73 0 0 1 -.32-.36l-7.79 6a8.9 8.9 0 0 1 1.68.39z"/><path d="m68.05 31.45a10.69 10.69 0 0 1 -.1 1.26l7.69-1.43a.2.2 0 0 0 .12-.08.17.17 0 0 0 0-.14l-.37-1.58c-.14-.57-.28-1.13-.44-1.69a.19.19 0 0 0 -.09-.11.17.17 0 0 0 -.14 0l-6.89 2a9 9 0 0 1 .19 1.79z"/><path d="m35.24 42.09-.37-.31-5.81 6.22a8.74 8.74 0 0 1 1.16.64z"/><path d="m42.1 41.21c-.1.13-.2.25-.31.37l6.37 6a9.56 9.56 0 0 1 1.66-.4z"/><path d="m41 34.11 18.71-27.3a.17.17 0 0 0 0-.14.19.19 0 0 0 -.09-.12l-1.35-.85c-.49-.31-1-.6-1.5-.88a.18.18 0 0 0 -.14 0 .17.17 0 0 0 -.11.09l-15.9 29c.14.03.28.09.38.2z"/><path d="m47.16 16.33a8.89 8.89 0 0 1 -3.71 7.24l-3.55 10a4.32 4.32 0 0 1 .45.19l14.1-29.96a.2.2 0 0 0 0-.15.14.14 0 0 0 -.1-.1l-1.49-.62c-.54-.23-1.09-.44-1.63-.64a.22.22 0 0 0 -.14 0 .18.18 0 0 0 -.1.11l-4.14 11.6a8.7 8.7 0 0 1 .31 2.32z"/><path d="m45.86 11.7 2.9-10a.17.17 0 0 0 0-.14.16.16 0 0 0 -.12-.09l-1.57-.37c-.59-.19-1.16-.31-1.73-.42a.19.19 0 0 0 -.14 0 .19.19 0 0 0 -.07.12l-1.55 8.39a8.94 8.94 0 0 1 2.28 2.51z"/><path d="m67.29 27.85 6.77-2.42a.18.18 0 0 0 .11-.1.17.17 0 0 0 0-.14l-.61-1.5c-.22-.54-.46-1.08-.7-1.6a.22.22 0 0 0 -.11-.1.23.23 0 0 0 -.14 0l-7 3.31a8.91 8.91 0 0 1 1.7 2.54z"/><path d="m64.05 24 7.52-4.13a.18.18 0 0 0 .09-.12.17.17 0 0 0 0-.14l-.85-1.38c-.3-.5-.62-1-.94-1.47a.2.2 0 0 0 -.12-.08.17.17 0 0 0 -.14 0l-8.72 6a8.72 8.72 0 0 1 3.16 1.32z"/><path d="m41.63 34.6 22.67-24.09a.16.16 0 0 0 0-.14.16.16 0 0 0 -.06-.13l-1.18-1.05q-.66-.57-1.35-1.11a.17.17 0 0 0 -.14 0 .15.15 0 0 0 -.12.07l-20.19 26.13c.13.1.25.21.37.32z"/><path d="m42.15 35.19 8.55-6.61a8.92 8.92 0 0 1 7.79-6l9.85-7.58a.19.19 0 0 0 .07-.13.15.15 0 0 0 0-.13l-1-1.24c-.37-.44-.76-.88-1.16-1.3a.16.16 0 0 0 -.13-.06.21.21 0 0 0 -.13.05l-24 22.67c.01.07.06.2.16.33z"/><path d="m36.58 42.81a4.07 4.07 0 0 1 -.44-.18l-3.75 8a9.34 9.34 0 0 1 .91 1.37z"/><path d="m42.7 36.11a4.68 4.68 0 0 1 .19.45l7.66-2.74a8 8 0 0 1 -.26-1.29z"/><path d="m50.8 34.59-7.8 2.26c0 .15.07.31.1.47l8.27-1.53a9.25 9.25 0 0 1 -.57-1.2z"/><path d="m35.47 42.25-4.64 6.75a9.05 9.05 0 0 1 1 .89l4.07-7.42z"/><path d="m24.65 36.51a8.58 8.58 0 0 1 -1.1 1.31l9.75.27a3.64 3.64 0 0 1 0-.48z"/><path d="m33.57 36.56a4.22 4.22 0 0 1 .18-.45l-7.59-3.57a8.16 8.16 0 0 1 -.25 1.29z"/><path d="m65.72 37.45 10.54-.3a.2.2 0 0 0 .14-.06.18.18 0 0 0 0-.14l-.12-1.62c0-.58-.1-1.16-.17-1.73a.19.19 0 0 0 -.07-.12.18.18 0 0 0 -.14 0l-8.43 1.07a9.08 9.08 0 0 1 -1.75 2.9z"/><path d="m51.8 36.5-8.68 1.1a3.87 3.87 0 0 1 0 .48l9.75-.27a8.58 8.58 0 0 1 -1.07-1.31z"/><path d="m41 42.25a4.06 4.06 0 0 1 -.41.25l4 7.35a9.06 9.06 0 0 1 1-.88z"/><path d="m36.84 33.44a3.59 3.59 0 0 1 .47-.12l-1.56-8.43a8.78 8.78 0 0 1 -1.56-.63z"/><path d="m42 8.25 1-7.79a.18.18 0 0 0 0-.14.16.16 0 0 0 -.13-.06l-1.67-.13c-.59-.05-1.2-.08-1.74-.13a.24.24 0 0 0 -.14.05.31.31 0 0 0 -.06.13l-.19 7.25a8.86 8.86 0 0 1 2.93.82z"/><path d="m26.23 31.45v.19l7.65 4.2c.08-.14.16-.28.25-.42l-8-5.49a8.59 8.59 0 0 1 .1 1.52z"/><path d="m37.6 33.28h.48l-.22-8a9.24 9.24 0 0 1 -1.3-.16z"/><path d="m40.68 24.91-1.55 8.41.47.11 2.63-9.12a9.38 9.38 0 0 1 -1.55.6z"/><path d="m50.36 29.91-8 5.51c.09.13.17.27.25.41l7.66-4.21c0-.06 0-.11 0-.17a9.8 9.8 0 0 1 .14-1.54z"/><path d="m38.36 33.24h.48l1-8.19a9.59 9.59 0 0 1 -1.3.15z"/><path d="m36.87 42.91-3 10.47a8.92 8.92 0 0 1 -2.72 9.47l-3.47 11.94a.22.22 0 0 0 0 .14.18.18 0 0 0 .12.09l1.58.38c.56.13 1.13.25 1.7.36a.17.17 0 0 0 .14 0 .2.2 0 0 0 .08-.12l6-32.6z"/><path d="m50.8 64.9a9 9 0 0 1 -3.33-.75l3.53 9.91a.22.22 0 0 0 .1.11.19.19 0 0 0 .15 0l1.5-.61c.54-.22 1.07-.46 1.59-.7a.18.18 0 0 0 .1-.11.17.17 0 0 0 0-.14z"/><path d="m45.33 62.81a8.9 8.9 0 0 1 -2.75-9.52l-3-10.38a3.94 3.94 0 0 1 -.47.1l6 32.63a.19.19 0 0 0 .23.15l1.66-.37c.57-.14 1.13-.28 1.69-.44a.17.17 0 0 0 .11-.09.17.17 0 0 0 0-.14z"/><path d="m37.61 43.06-4.15 32.94a.23.23 0 0 0 0 .14.24.24 0 0 0 .13.07l1.62.12c.58 0 1.16.08 1.74.1a.19.19 0 0 0 .13 0 .16.16 0 0 0 .06-.13l.91-33.14z"/><path d="m38.36 43.09.93 33.17a.25.25 0 0 0 .06.14.18.18 0 0 0 .14 0l1.62-.12c.58 0 1.16-.1 1.73-.17a.21.21 0 0 0 .13-.07.17.17 0 0 0 0-.14l-4.14-32.84a3.59 3.59 0 0 1 -.47.03z"/><path d="m17.49 60.25-5.35 5.68a.19.19 0 0 0 -.05.14.2.2 0 0 0 .06.13l1.23 1.06c.45.38.9.74 1.35 1.1a.23.23 0 0 0 .14 0 .27.27 0 0 0 .13-.07l4.37-5.67a8.81 8.81 0 0 1 -1.88-2.37z"/><path d="m25.61 65-3.61 7.65a.14.14 0 0 0 0 .14.18.18 0 0 0 .1.11l1.5.62q.81.33 1.62.63a.26.26 0 0 0 .15 0 .22.22 0 0 0 .09-.1l3.54-9.84a8.9 8.9 0 0 1 -3.39.79z"/><path d="m20.79 63.71-4.05 5.92a.19.19 0 0 0 .05.27l1.38.85c.5.3 1 .6 1.5.88a.2.2 0 0 0 .15 0 .19.19 0 0 0 .11-.09l3.7-6.74a8.78 8.78 0 0 1 -2.84-1.09z"/><path d="m58.93 60.19a8.77 8.77 0 0 1 -1.88 2.4l4.44 5.75a.21.21 0 0 0 .13.07.19.19 0 0 0 .14 0l1.23-1c.45-.37.88-.76 1.3-1.16a.16.16 0 0 0 .06-.13.17.17 0 0 0 0-.13z"/><path d="m75.61 45.13-32.55-6c0 .15-.07.31-.11.46l31.84 9.18a.2.2 0 0 0 .15 0 .17.17 0 0 0 .08-.12l.38-1.57q.19-.86.36-1.71a.19.19 0 0 0 0-.14.19.19 0 0 0 -.12-.07z"/><path d="m37.08.03h-.02z"/><path d="m76.23 39.26-12.23-.33a8.91 8.91 0 0 1 -10.08-.28l-10.74-.29v.48l32.82 4.16a.18.18 0 0 0 .14 0 .21.21 0 0 0 .07-.13l.13-1.61q.06-.89.09-1.74a.24.24 0 0 0 0-.14.26.26 0 0 0 -.2-.12z"/><path d="m59.92 55a9 9 0 0 1 -.27 3.43l6.28 5.91a.16.16 0 0 0 .14 0 .16.16 0 0 0 .13-.06l1.06-1.23c.38-.44.74-.89 1.1-1.35a.23.23 0 0 0 0-.14.19.19 0 0 0 -.07-.12z"/><path d="m16.44 56.06a7.55 7.55 0 0 1 .07-1.06l-8.4 6.49a.17.17 0 0 0 -.07.13.18.18 0 0 0 0 .14l1.09 1.24c.38.45.76.88 1.16 1.3a.16.16 0 0 0 .13.06.15.15 0 0 0 .13 0l6.22-5.86a8.66 8.66 0 0 1 -.33-2.38z"/><path d="m55.64 63.64a8.87 8.87 0 0 1 -2.84 1.1l3.76 6.83a.17.17 0 0 0 .11.09.2.2 0 0 0 .15 0l1.38-.85c.5-.3 1-.62 1.46-.94a.2.2 0 0 0 .08-.12.17.17 0 0 0 0-.14z"/><path d="m71.55 56.52-29-15.94c-.08.14-.16.28-.25.41l8.91 6.1a8.91 8.91 0 0 1 8.15 5.57l10.3 7.05a.21.21 0 0 0 .15 0 .27.27 0 0 0 .12-.09l.85-1.38c.3-.49.6-1 .88-1.5a.17.17 0 0 0 0-.14.14.14 0 0 0 -.09-.11z"/><path d="m74 51-31.15-11.13a4.32 4.32 0 0 1 -.19.45l30 14.13a.17.17 0 0 0 .14 0 .16.16 0 0 0 .11-.1l.62-1.49c.22-.54.43-1.09.63-1.63a.17.17 0 0 0 0-.14.19.19 0 0 0 -.16-.09z"/><path d="m35.41 34.12c.14-.09.27-.18.42-.26l-15.94-29a.27.27 0 0 0 -.12-.09.22.22 0 0 0 -.14 0l-1.38.85c-.5.31-1 .62-1.47.94a.23.23 0 0 0 -.08.12.17.17 0 0 0 0 .14z"/><path d="m34.82 34.61c.11-.11.24-.22.36-.32l-20.18-26.18a.16.16 0 0 0 -.18-.11.15.15 0 0 0 -.13 0l-1.24 1.13c-.44.38-.88.76-1.3 1.16a.16.16 0 0 0 -.06.13.19.19 0 0 0 .05.13z"/><path d="m17.92 22.56a8.9 8.9 0 0 1 7.85 6.06l8.53 6.57c.1-.13.2-.25.31-.37l-24.1-22.68a.19.19 0 0 0 -.14-.05.16.16 0 0 0 -.13.06l-1.05 1.23q-.57.67-1.11 1.35a.17.17 0 0 0 0 .14.17.17 0 0 0 .07.13z"/><path d="m4.89 19.93 7.49 4.07a8.78 8.78 0 0 1 3.17-1.33l-8.74-6a.18.18 0 0 0 -.26.05l-.85 1.45c-.31.5-.6 1-.88 1.5a.2.2 0 0 0 0 .15.23.23 0 0 0 .07.11z"/><path d="m36.1 33.72.45-.19-3.55-10.02a8.91 8.91 0 0 1 -3.35-9.39l-4.22-11.74a.18.18 0 0 0 -.1-.11.17.17 0 0 0 -.14 0l-1.5.61c-.54.23-1.08.46-1.6.7a.22.22 0 0 0 -.1.11.22.22 0 0 0 0 .14z"/><path d="m37.36 7.47-.21-7.29a.19.19 0 0 0 -.09-.18.2.2 0 0 0 -.06 0l-1.67.12c-.58.05-1.16.1-1.73.17a.19.19 0 0 0 -.12.07.18.18 0 0 0 0 .14l1 7.79a8.77 8.77 0 0 1 2.93-.82z"/><path d="m30.58 11.8a9.08 9.08 0 0 1 2.27-2.55l-1.57-8.45a.2.2 0 0 0 -.08-.12.14.14 0 0 0 -.14 0l-1.58.32c-.57.13-1.13.27-1.69.43a.31.31 0 0 0 -.11.09.17.17 0 0 0 0 .14z"/><path d="m.21 37.18 10.55.29a8.74 8.74 0 0 1 -1.76-2.94l-8.54-1.07a.23.23 0 0 0 -.14 0 .16.16 0 0 0 -.06.13l-.13 1.66c0 .58-.08 1.16-.1 1.74a.21.21 0 0 0 .05.13.18.18 0 0 0 .13.06z"/><path d="m33.3 38.36-10.75.3a8.9 8.9 0 0 1 -10 .29l-12.37.34a.2.2 0 0 0 -.13.06.19.19 0 0 0 0 .14l.12 1.62c.05.58.1 1.16.17 1.73a.21.21 0 0 0 .02.16.17.17 0 0 0 .14 0l32.85-4.16a3.91 3.91 0 0 1 -.05-.48z"/><path d="m2.41 25.45 6.76 2.41a8.67 8.67 0 0 1 1.69-2.54l-7.06-3.32a.2.2 0 0 0 -.15 0 .17.17 0 0 0 -.1.1l-.62 1.5q-.35.81-.63 1.62a.17.17 0 0 0 0 .14.18.18 0 0 0 .11.1z"/><path d="m33.6 39.87-31.22 11.13a.22.22 0 0 0 -.11.1.2.2 0 0 0 0 .15l.62 1.5q.33.81.69 1.59a.21.21 0 0 0 .11.1.17.17 0 0 0 .14 0l30-14.13c-.11-.14-.17-.31-.23-.44z"/><path d="m33.39 39.12-32.59 6.04a.2.2 0 0 0 -.12.08.16.16 0 0 0 0 .15l.32 1.61c.13.57.28 1.13.43 1.69a.2.2 0 0 0 .09.11.18.18 0 0 0 .14 0l31.82-9.2a3.45 3.45 0 0 1 -.09-.48z"/><path d="m25.18 47.16 9-6.17a3.54 3.54 0 0 1 -.26-.41l-28.92 15.88a.38.38 0 0 0 -.18.23.37.37 0 0 0 0 .29l.74 1.22c.31.5.62 1 .94 1.46a.23.23 0 0 0 .12.08.17.17 0 0 0 .14 0l10.26-7a8.9 8.9 0 0 1 8.16-5.58z"/><path d="m.83 31.32 7.68 1.41a8.93 8.93 0 0 1 .08-3l-6.94-2a.22.22 0 0 0 -.14 0 .18.18 0 0 0 -.09.12l-.37 1.55c-.14.6-.26 1.13-.37 1.7a.17.17 0 0 0 0 .14.2.2 0 0 0 .12.08z"/><path d="m94.36 6.66h11.25v2.33h-8.42v6h7.11v2.33h-7.11v8.28h-2.83z"/><path d="m109 6.53h2.7v3.07h-2.7zm0 5.6h2.7v13.47h-2.7z"/><path d="m118.84 6.66v14.17c0 2 .53 2.57 2.31 2.57h.59v2.2h-.69c-3.93 0-4.91-1-4.91-5v-13.94z"/><path d="m124 12.13h2l.22 1.32a3.68 3.68 0 0 1 3.39-1.59 4 4 0 0 1 3.8 2 3.94 3.94 0 0 1 3.84-2c2.28 0 3.72.85 4.33 2.6a11 11 0 0 1 .37 3.42v7.72h-2.71v-7.45c0-2.84-.69-4-2.41-4s-2.52 1.27-2.52 4.43v7h-2.71v-7.41c0-2.89-.66-4-2.41-4s-2.55 1.25-2.55 4.51v6.92h-2.64z"/><path d="m158.38 16.82c0-2-.77-2.78-2.63-2.78a3.74 3.74 0 0 0 -3 1.35l-1.83-1.39a6.09 6.09 0 0 1 5.1-2.15c2.25 0 3.79.72 4.53 2.12a6.7 6.7 0 0 1 .53 3.29v8.34h-2.15l-.18-.87c-.85.85-1.83 1.14-3.8 1.14-3.39 0-4.64-1.09-4.64-4.11s1.27-4.17 5.1-4.17h3zm-2.68 2.68c-2 0-2.82.61-2.82 2.2s.69 2.05 2.74 2.05c1.27 0 2-.24 2.44-.8a2.72 2.72 0 0 0 .32-1.7v-1.75z"/><path d="m163.44 14.3v-2.17h1.56l.14-4.13h2.58v4.12h2.65v2.18h-2.65v6.53c0 2 .53 2.6 2.28 2.54h.42v2.23h-.48c-4 0-4.93-.93-4.93-5v-6.3z"/><path d="m94.33 28.68h2.84v16.61h8.59v2.34h-11.43z"/><path d="m109 28.55h2.71v3.08h-2.71zm0 5.6h2.71v13.48h-2.71z"/><path d="m116.14 34.15h2.07l.21 1.35a4.07 4.07 0 0 1 3.69-1.62c2.36 0 3.87.88 4.51 2.6a11 11 0 0 1 .4 3.43v7.72h-2.71v-7.43c0-2.87-.74-4-2.65-4s-2.82 1.25-2.82 4.54v6.9h-2.7z"/><path d="m140.79 45.56a5.38 5.38 0 0 1 -4.89 2.33c-3.71 0-5.51-2.09-5.51-6.39v-1c0-4.51 1.72-6.64 5.43-6.64 2.26 0 3.77.77 4.7 2.39l-2 1.14a2.67 2.67 0 0 0 -2.52-1.33c-2 0-2.92 1.33-2.92 4.24v1.46c0 2.6 1 4 3 4a3.05 3.05 0 0 0 2.71-1.33z"/><path d="m142.72 39.85c0-4.14 1.75-6 5.71-6s5.67 1.83 5.67 6v2.07c0 4.14-1.75 6-5.67 6s-5.71-1.83-5.71-6zm8.68.19c0-2.76-.9-4-3-4s-3 1.22-3 4v1.7c0 2.76.9 4 3 4s3-1.22 3-4z"/><path d="m160.37 28.68v14.17c0 2 .53 2.57 2.3 2.57h.59v2.21h-.69c-3.93 0-4.91-1-4.91-5v-13.95z"/><path d="m165.67 34.15h2.07l.26 1.35a4.07 4.07 0 0 1 3.69-1.62c2.36 0 3.88.88 4.51 2.6a10.75 10.75 0 0 1 .4 3.43v7.72h-2.71v-7.43c0-2.87-.74-4-2.65-4s-2.81 1.25-2.81 4.54v6.9h-2.71z"/><path d="m106.8 65c-.19 3.27-2.42 5-6.4 5-2.52 0-4.21-.77-5.35-2.37-.85-1.22-1.17-2.7-1.17-5.38v-4c0-2.9.4-4.46 1.46-5.71s2.73-2 5.06-2c3.88 0 6 1.75 6.19 5l-2.63.21a3.11 3.11 0 0 0 -3.48-3c-2.73 0-3.76 1.54-3.76 5.6v3.65c0 4.09 1 5.6 3.76 5.6 2.15 0 3.4-1 3.67-3z"/><path d="m112 64c0 2.44 1.16 3.74 3.34 3.74a3.27 3.27 0 0 0 2.92-1.36l2 1.2c-1.11 1.64-2.62 2.31-5.2 2.31-4 0-5.78-2-5.78-6.4v-1c0-4.62 1.67-6.58 5.62-6.58s5.63 2 5.63 6.58v1.06h-8.53zm6-2.42v-.26c0-2.18-1-3.35-3-3.35a2.53 2.53 0 0 0 -2.46 1.2 4.44 4.44 0 0 0 -.53 2.17v.24z"/><path d="m123.89 56.17h2.11l.22 1.36a4 4 0 0 1 3.68-1.62c2.37 0 3.88.87 4.51 2.6a10.38 10.38 0 0 1 .4 3.42v7.72h-2.7v-7.43c0-2.86-.75-4-2.66-4s-2.81 1.24-2.81 4.53v6.9h-2.7z"/><path d="m137.92 58.35v-2.18h1.57l.13-4.11h2.57v4.11h2.66v2.18h-2.66v6.52c0 2 .53 2.6 2.28 2.55h.43v2.23h-.48c-4 0-4.93-.93-4.93-5v-6.3z"/><path d="m150.31 64c0 2.44 1.17 3.74 3.34 3.74a3.25 3.25 0 0 0 2.92-1.36l2 1.2c-1.12 1.64-2.63 2.31-5.2 2.31-4 0-5.78-2-5.78-6.4v-1c0-4.62 1.67-6.58 5.62-6.58s5.62 2 5.62 6.58v1.06h-8.54zm6-2.42v-.26c0-2.18-1-3.35-3-3.35a2.55 2.55 0 0 0 -2.47 1.2 4.55 4.55 0 0 0 -.53 2.17v.24z"/><path d="m162.2 56.17h2.09l.3 1.14a3.4 3.4 0 0 1 3-1.4 5.08 5.08 0 0 1 2.73.77l-1.16 2.25a3 3 0 0 0 -1.84-.69c-1.72 0-2.44 1.43-2.44 4.86v6.55h-2.7z"/></svg>