<svg id="Layer_1" data-name="Layer 1" xmlns="http://www.w3.org/2000/svg" viewBox="0 0 199.71 99.5"><defs><style>.cls-1{fill:#626366;}.cls-2{fill:#929497;}.cls-3{fill:#3b3a3c;}.cls-4{fill:#231f20;}</style></defs><path class="cls-1" d="M116.47.73a275.42,275.42,0,0,0-46,3.94C55.84,7.22,42.57,10.92,32.87,15.51c-6.47,3.06-11.35,6.52-14,10.22a11.19,11.19,0,0,0-2.31,6.55,11.75,11.75,0,0,0,1.94,6.2,27.52,27.52,0,0,0,6.24,6.75C36.2,54.52,52.19,61.72,70,67.27s37.31,9.47,55.88,12.22a651.77,651.77,0,0,0,72.07,6.36c-17.1-3.25-62.65-13-101-31.17a55.61,55.61,0,0,1-12.21-7.85A34.44,34.44,0,0,1,76.1,36.36a17.62,17.62,0,0,1-2-7.79A14.91,14.91,0,0,1,77,20a28.09,28.09,0,0,1,9.21-8c7.68-4.5,19.5-8.39,36.75-11.15q-3.18-.09-6.44-.09"/><rect class="cls-2" x="138.35" y="16.99" width="15" height="8.53"/><path class="cls-2" d="M.8,40.82a67,67,0,0,0,12.14,1.4c11.36,0,15.86-5.62,16.19-11.12.63-10.63-14.72-13.44-14.36-19.43.13-2.14,3.6-2.93,5.55-2.93a21.2,21.2,0,0,1,8.86,2.08l-.82-9.66A56.1,56.1,0,0,0,17.61,0C6.37,0,2.29,5.8,2,10.57,1.38,21,16.65,25.11,16.34,30.31c-.17,2.87-3.79,3.18-5.87,3.18A24.24,24.24,0,0,1,0,30.74Z"/><polygon class="cls-2" points="48.19 16.62 48.62 9.47 68.91 9.47 69.44 0.73 36.31 0.73 33.87 41.49 66.99 41.49 67.51 32.75 47.23 32.75 47.67 25.36 64.72 25.36 65.24 16.62 48.19 16.62"/><polygon class="cls-2" points="73.16 41.49 85.99 41.49 88.44 0.73 75.6 0.73 73.16 41.49"/><path class="cls-2" d="M94.77.73,93.12,28.35c-.59,9.84,7.48,13.87,19.45,13.87s20.53-4,21.12-13.87L135.35.73H122.52L121.12,24c-.35,5.87-2.21,9.35-8,9.35s-7.25-3.48-6.9-9.35L107.61.73Z"/><path class="cls-3" d="M46.13,44.49l-1.76,29.4c-.39,6.45,5.8,12.77,21,12.77S87.51,80.34,87.9,73.89l1.76-29.4H73.41L72,67.38c-.26,4.46-1.38,7.5-6,7.5s-5.33-3-5.07-7.5l1.38-22.89Z"/><polygon class="cls-3" points="88.35 85.86 104.6 85.86 105.55 69.98 118.57 69.98 117.62 85.86 133.87 85.86 136.35 44.49 120.1 44.49 119.25 58.76 106.23 58.76 107.08 44.49 90.83 44.49 88.35 85.86"/><path class="cls-3" d="M186.38,44.49l-6,25.93h-.12l-4.15-25.93H160l-6,25.93h-.12l-3.28-25.93H137c2.71,13.77,5.1,27.6,7.19,41.37H161l5.49-23.32h.12l3.63,23.32h17.48c3.81-13.77,7.8-27.6,12-41.37Z"/><path class="cls-4" d="M49.79,92.26h1v4.06a4.88,4.88,0,0,1-.12,1.25,2.68,2.68,0,0,1-.3.7,2.53,2.53,0,0,1-.43.5,3.79,3.79,0,0,1-4.47,0,2.19,2.19,0,0,1-.73-1.19,4.9,4.9,0,0,1-.11-1.27v-4h1v4.06a2.94,2.94,0,0,0,.23,1.41,1.6,1.6,0,0,0,.7.63,2.39,2.39,0,0,0,1.11.24,2.26,2.26,0,0,0,1.49-.48,1.48,1.48,0,0,0,.43-.6,3.65,3.65,0,0,0,.14-1.2Z"/><path class="cls-4" d="M53.13,94.7v.6a1.87,1.87,0,0,1,1.42-.69,1.61,1.61,0,0,1,.82.23,1.48,1.48,0,0,1,.57.62,2.89,2.89,0,0,1,.2,1.26v2.7h-.93V96.73a1.9,1.9,0,0,0-.22-1,.85.85,0,0,0-.74-.31,1.34,1.34,0,0,0-1.12.66v3.37h-1V94.7Z"/><path class="cls-4" d="M58,92.72a.53.53,0,0,1,.39.16.51.51,0,0,1,.17.39.54.54,0,0,1-.17.39.53.53,0,0,1-.39.16.5.5,0,0,1-.38-.17.52.52,0,0,1-.16-.38.51.51,0,0,1,.16-.38.5.5,0,0,1,.38-.17m-.46,2h.93v4.72h-.93Z"/><path class="cls-4" d="M59.25,95.45,61,93.73v1h1.5v.84H61v2.31c0,.54.23.81.68.81a2.1,2.1,0,0,0,1.06-.33v.87a2.38,2.38,0,0,1-1.18.3,1.54,1.54,0,0,1-1.06-.37.9.9,0,0,1-.22-.26,1.22,1.22,0,0,1-.15-.36,4.18,4.18,0,0,1-.06-.87v-2.1h-.82Z"/><path class="cls-4" d="M67.51,97.14H64.2a1.51,1.51,0,0,0,.45,1.08,1.49,1.49,0,0,0,1.08.4,2.83,2.83,0,0,0,1.7-.57V99a3.15,3.15,0,0,1-.85.41,3.68,3.68,0,0,1-1,.12,2.32,2.32,0,0,1-1.27-.32,2.5,2.5,0,0,1-.77-.87A2.66,2.66,0,0,1,63.26,97a2.52,2.52,0,0,1,.61-1.75,2.06,2.06,0,0,1,1.59-.68,1.85,1.85,0,0,1,1.49.66A2.57,2.57,0,0,1,67.51,97Zm-3.29-.55h2.37a1.3,1.3,0,0,0-.33-.87,1.09,1.09,0,0,0-.8-.3,1.18,1.18,0,0,0-.83.3,1.51,1.51,0,0,0-.41.87"/><path class="cls-4" d="M71.75,92.26h.94v7.16h-2A2.19,2.19,0,0,1,69,98.76,2.5,2.5,0,0,1,68.41,97a2.34,2.34,0,0,1,.65-1.71,2.22,2.22,0,0,1,1.67-.67,3.07,3.07,0,0,1,1,.2Zm0,6.36v-3a1.88,1.88,0,0,0-.88-.22,1.42,1.42,0,0,0-1.11.46,1.77,1.77,0,0,0-.41,1.23,1.6,1.6,0,0,0,.36,1.12,1.07,1.07,0,0,0,.46.32,3.27,3.27,0,0,0,.86.08Z"/><polygon class="cls-4" points="82.22 92.26 83.25 92.26 83.25 99.42 82.22 99.42 82.22 96.3 78.2 96.3 78.2 99.42 77.17 99.42 77.17 92.26 78.2 92.26 78.2 95.36 82.22 95.36 82.22 92.26"/><path class="cls-4" d="M88.8,97.14H85.49a1.51,1.51,0,0,0,.45,1.08,1.49,1.49,0,0,0,1.08.4,2.81,2.81,0,0,0,1.7-.57V99a3.15,3.15,0,0,1-.85.41,3.68,3.68,0,0,1-1,.12,2.32,2.32,0,0,1-1.27-.32,2.5,2.5,0,0,1-.77-.87A2.66,2.66,0,0,1,84.55,97a2.52,2.52,0,0,1,.61-1.75,2.06,2.06,0,0,1,1.59-.68,1.89,1.89,0,0,1,1.5.66A2.61,2.61,0,0,1,88.8,97Zm-3.29-.55h2.37a1.3,1.3,0,0,0-.33-.87,1.09,1.09,0,0,0-.8-.3,1.18,1.18,0,0,0-.83.3,1.51,1.51,0,0,0-.41.87"/><path class="cls-4" d="M92.86,96.59v2c0,.16,0,.24.16.24a1.08,1.08,0,0,0,.53-.25v.57a2.74,2.74,0,0,1-.51.28,1.09,1.09,0,0,1-.4.07.63.63,0,0,1-.71-.47,2,2,0,0,1-1.26.46,1.14,1.14,0,0,1-.82-.32,1.11,1.11,0,0,1-.33-.82,1.18,1.18,0,0,1,.32-.8,2.13,2.13,0,0,1,.91-.55l1.19-.41v-.26a.75.75,0,0,0-.85-.85,2.06,2.06,0,0,0-1.48.79v-1a1.92,1.92,0,0,1,1.56-.64,1.86,1.86,0,0,1,1.23.4,1.35,1.35,0,0,1,.27.34,1.19,1.19,0,0,1,.16.43,7,7,0,0,1,0,.81m-.92,1.9v-1.4l-.62.24a2,2,0,0,0-.68.38.65.65,0,0,0-.19.48.68.68,0,0,0,.18.48.69.69,0,0,0,.49.18,1.18,1.18,0,0,0,.82-.36"/><rect class="cls-4" x="94.48" y="92.26" width="0.93" height="7.16"/><path class="cls-4" d="M96.19,95.45l1.75-1.72v1h1.49v.84H97.94v2.31c0,.54.23.81.67.81a2.07,2.07,0,0,0,1.06-.33v.87a2.34,2.34,0,0,1-1.17.3,1.57,1.57,0,0,1-1.07-.37,1.09,1.09,0,0,1-.22-.26,1.59,1.59,0,0,1-.14-.36,4.18,4.18,0,0,1-.06-.87v-2.1h-.82Z"/><path class="cls-4" d="M100.41,92.26h.93v3.06a1.83,1.83,0,0,1,1.45-.71,1.53,1.53,0,0,1,.85.24,1.43,1.43,0,0,1,.56.65,3.26,3.26,0,0,1,.18,1.23v2.69h-.94V96.5a1.28,1.28,0,0,0-.25-.83.81.81,0,0,0-.67-.31,1.19,1.19,0,0,0-.58.15,3,3,0,0,0-.6.53v3.38h-.93Z"/><path class="cls-4" d="M109.3,98.32v.92a3.77,3.77,0,0,1-1.37.26,2.43,2.43,0,0,1-1.77-.65,2.38,2.38,0,0,1-.66-1.76,2.57,2.57,0,0,1,.64-1.8,2.23,2.23,0,0,1,1.69-.68,2.59,2.59,0,0,1,.65.07,4.33,4.33,0,0,1,.72.26v1a2.48,2.48,0,0,0-1.31-.45,1.34,1.34,0,0,0-1,.45,1.59,1.59,0,0,0-.4,1.13,1.55,1.55,0,0,0,.43,1.15,1.66,1.66,0,0,0,1.19.42,3,3,0,0,0,1.23-.31"/><path class="cls-4" d="M113.41,96.59v2c0,.16,0,.24.16.24a1.08,1.08,0,0,0,.53-.25v.57a2.74,2.74,0,0,1-.51.28,1.09,1.09,0,0,1-.4.07c-.4,0-.64-.16-.71-.47a2,2,0,0,1-1.26.46,1.12,1.12,0,0,1-.82-.32,1.11,1.11,0,0,1-.33-.82,1.13,1.13,0,0,1,.32-.8,2.13,2.13,0,0,1,.91-.55l1.19-.41v-.26a.75.75,0,0,0-.85-.85,2.06,2.06,0,0,0-1.48.79v-1a1.92,1.92,0,0,1,1.56-.64,1.81,1.81,0,0,1,1.22.4,1.19,1.19,0,0,1,.28.34,1.4,1.4,0,0,1,.16.43,7,7,0,0,1,0,.81m-.92,1.9v-1.4l-.62.24a2,2,0,0,0-.68.38.65.65,0,0,0-.19.48.68.68,0,0,0,.18.48.69.69,0,0,0,.49.18,1.18,1.18,0,0,0,.82-.36"/><path class="cls-4" d="M116,94.7v1.09l0-.09c.45-.73.91-1.09,1.36-1.09a1.68,1.68,0,0,1,1.1.53L118,96a1.44,1.44,0,0,0-.91-.46,1,1,0,0,0-.78.43,1.64,1.64,0,0,0-.33,1v2.47h-.94V94.7Z"/><path class="cls-4" d="M123.06,97.14h-3.31a1.51,1.51,0,0,0,.45,1.08,1.49,1.49,0,0,0,1.08.4,2.83,2.83,0,0,0,1.7-.57V99a3.15,3.15,0,0,1-.85.41,3.73,3.73,0,0,1-1,.12,2.3,2.3,0,0,1-1.27-.32,2.5,2.5,0,0,1-.77-.87,2.66,2.66,0,0,1-.29-1.26,2.52,2.52,0,0,1,.61-1.75,2.06,2.06,0,0,1,1.59-.68,1.85,1.85,0,0,1,1.49.66,2.57,2.57,0,0,1,.56,1.76Zm-3.29-.55h2.37a1.35,1.35,0,0,0-.33-.87,1.09,1.09,0,0,0-.8-.3,1.18,1.18,0,0,0-.83.3,1.51,1.51,0,0,0-.41.87"/><polygon class="cls-4" points="135.1 92.26 136.12 92.26 133.23 99.45 133 99.45 130.66 93.63 128.29 99.45 128.07 99.45 125.19 92.26 126.22 92.26 128.19 97.19 130.18 92.26 131.15 92.26 133.14 97.19 135.1 92.26"/><path class="cls-4" d="M138.18,94.69a2.43,2.43,0,0,1,1.79.7,2.3,2.3,0,0,1,.71,1.74,2.2,2.2,0,0,1-.72,1.7,2.56,2.56,0,0,1-1.82.67,2.46,2.46,0,0,1-1.77-.68,2.27,2.27,0,0,1-.72-1.71,2.31,2.31,0,0,1,.73-1.73,2.5,2.5,0,0,1,1.8-.69m-.05.84A1.48,1.48,0,0,0,137,96a1.55,1.55,0,0,0-.43,1.13,1.47,1.47,0,0,0,.44,1.1,1.7,1.7,0,0,0,2.26,0,1.51,1.51,0,0,0,.44-1.11,1.52,1.52,0,0,0-.46-1.12,1.6,1.6,0,0,0-1.15-.44"/><path class="cls-4" d="M142.81,94.7v1.09l.05-.09c.45-.73.9-1.09,1.35-1.09a1.68,1.68,0,0,1,1.1.53l-.49.82a1.44,1.44,0,0,0-.9-.46,1,1,0,0,0-.78.43,1.58,1.58,0,0,0-.33,1v2.47h-.94V94.7Z"/><path class="cls-4" d="M146.05,92.26H147v7.16h-.93Zm3.07,2.44h1.1l-2,2.31,2.43,2.41h-1.26L147,97Z"/><path class="cls-4" d="M154.87,97.14h-3.32a1.56,1.56,0,0,0,.45,1.08,1.49,1.49,0,0,0,1.08.4,2.81,2.81,0,0,0,1.7-.57V99a3,3,0,0,1-.85.41,3.63,3.63,0,0,1-1,.12,2.26,2.26,0,0,1-1.26-.32,2.4,2.4,0,0,1-.77-.87,2.55,2.55,0,0,1-.29-1.26,2.47,2.47,0,0,1,.61-1.75,2,2,0,0,1,1.58-.68,1.86,1.86,0,0,1,1.5.66,2.62,2.62,0,0,1,.56,1.76Zm-3.3-.55h2.37a1.3,1.3,0,0,0-.33-.87,1.07,1.07,0,0,0-.8-.3,1.15,1.15,0,0,0-.82.3,1.46,1.46,0,0,0-.42.87"/><path class="cls-4" d="M157,94.7v1.09l0-.09c.45-.73.9-1.09,1.36-1.09a1.7,1.7,0,0,1,1.1.53L159,96a1.44,1.44,0,0,0-.91-.46,1,1,0,0,0-.78.43,1.64,1.64,0,0,0-.33,1v2.47H156V94.7Z"/><path class="cls-4" d="M160,99.08v-1a5,5,0,0,0,.81.45,2,2,0,0,0,.69.17.85.85,0,0,0,.51-.15.4.4,0,0,0,.21-.34.46.46,0,0,0-.14-.34,3.22,3.22,0,0,0-.59-.39,4.28,4.28,0,0,1-1.18-.86,1.29,1.29,0,0,1-.28-.78,1.08,1.08,0,0,1,.43-.89,1.7,1.7,0,0,1,1.08-.34,3,3,0,0,1,1.43.39v.92a2.92,2.92,0,0,0-1.36-.5.74.74,0,0,0-.44.12.35.35,0,0,0-.17.3.42.42,0,0,0,.15.31,2.6,2.6,0,0,0,.53.36l.34.19c.78.45,1.18.94,1.18,1.48a1.18,1.18,0,0,1-.46.95,1.75,1.75,0,0,1-1.16.37,2.86,2.86,0,0,1-.75-.09,5,5,0,0,1-.83-.33"/><polygon class="cls-4" points="175.27 92.26 176.29 92.26 173.39 99.45 173.17 99.45 170.83 93.63 168.46 99.45 168.24 99.45 165.35 92.26 166.39 92.26 168.36 97.19 170.35 92.26 171.32 92.26 173.31 97.19 175.27 92.26"/><path class="cls-4" d="M180.12,97.14H176.8a1.56,1.56,0,0,0,.45,1.08,1.49,1.49,0,0,0,1.08.4,2.81,2.81,0,0,0,1.7-.57V99a3,3,0,0,1-.85.41,3.63,3.63,0,0,1-1,.12,2.26,2.26,0,0,1-1.26-.32,2.4,2.4,0,0,1-.77-.87,2.55,2.55,0,0,1-.29-1.26,2.47,2.47,0,0,1,.61-1.75,2,2,0,0,1,1.58-.68,1.87,1.87,0,0,1,1.5.66,2.62,2.62,0,0,1,.56,1.76Zm-3.3-.55h2.37a1.3,1.3,0,0,0-.33-.87,1.07,1.07,0,0,0-.8-.3,1.15,1.15,0,0,0-.82.3,1.46,1.46,0,0,0-.42.87"/><path class="cls-4" d="M181,99.08v-1a4.62,4.62,0,0,0,.81.45,1.91,1.91,0,0,0,.69.17.88.88,0,0,0,.51-.15.42.42,0,0,0,.2-.34.45.45,0,0,0-.13-.34,3.22,3.22,0,0,0-.59-.39,4.28,4.28,0,0,1-1.18-.86,1.23,1.23,0,0,1-.28-.78,1.1,1.1,0,0,1,.42-.89,1.75,1.75,0,0,1,1.09-.34,3,3,0,0,1,1.42.39v.92a2.85,2.85,0,0,0-1.36-.5.71.71,0,0,0-.43.12.35.35,0,0,0-.17.3.42.42,0,0,0,.15.31,2.6,2.6,0,0,0,.53.36l.34.19c.78.45,1.17.94,1.17,1.48a1.17,1.17,0,0,1-.45.95,1.76,1.76,0,0,1-1.17.37,2.73,2.73,0,0,1-.74-.09,5,5,0,0,1-.83-.33"/><path class="cls-4" d="M184.67,95.45l1.76-1.72v1h1.49v.84h-1.49v2.31c0,.54.22.81.67.81a2.1,2.1,0,0,0,1.06-.33v.87a2.37,2.37,0,0,1-1.17.3,1.55,1.55,0,0,1-1.07-.37,1.09,1.09,0,0,1-.22-.26,1.22,1.22,0,0,1-.15-.36,4.18,4.18,0,0,1-.06-.87v-2.1h-.82Z"/></svg>