<svg viewBox="0 0 227.77 69.02" xmlns="http://www.w3.org/2000/svg"><path d="m4 45.35a2.5 2.5 0 0 0 .41-.25c.14-.11.28-.22.41-.34a3.32 3.32 0 0 0 .37-.47c.61-.64 1.24-1.25 1.91-1.83 3.06-2.58 8-6.68 8.32-7a.05.05 0 0 1 0 0 3.7 3.7 0 0 0 1-.43 10.65 10.65 0 0 0 .93-1 24.75 24.75 0 0 1 4.45-2.3c.06 0 1.48-.33 3.35-.9a21.26 21.26 0 0 0 4-2.23s-.12 0-.13 0c-.34.18-4.9 2.62-6.74 2.4-.18 0-.74-.23-.25-.7.15-.14 1-.87 1.88-1.61a.11.11 0 0 0 0-.16.1.1 0 0 0 -.15 0l-7.19 5.07a5.39 5.39 0 0 0 -1 .35 4.36 4.36 0 0 0 -.78.88l-10.3 8.79-.12.08a1.86 1.86 0 0 1 -.75.32l-2 .08a.16.16 0 0 0 -.15.17.21.21 0 0 0 0 .11.16.16 0 0 0 .12 0l1.51-.06a.2.2 0 0 1 .12.18.23.23 0 0 1 -.1.21l-2.54.52a.16.16 0 0 0 0 .31l2.42-.44h.13c.08 0 .11.1 0 .21l-3 1.17a.16.16 0 0 0 -.09.2.15.15 0 0 0 .16.1l1.71-.66a21.34 21.34 0 0 0 2.09-.77z"/><path d="m68 19.72c-1.22-.1-1.89-.1-3.56-.13-3-.05-4.09.2-6.42 0-.22 0-1.06-.35-1.95-.58a4.43 4.43 0 0 0 -1.07-.21 13.36 13.36 0 0 0 -2 .2 16.51 16.51 0 0 0 -2.59.61 8.62 8.62 0 0 0 -2.29 1 4.38 4.38 0 0 0 -.87.85 2.29 2.29 0 0 0 -.35 1.19 29.71 29.71 0 0 0 -3.28-3 4.86 4.86 0 0 0 -3-1c-1-.09-2.06-3.7-1.83-6 .15-1.44 3.46-3.76 4-4.85a2 2 0 0 0 -.4-2.14 2.32 2.32 0 0 0 -.4-.43 3.13 3.13 0 0 0 -.42-.29 6.65 6.65 0 0 0 -.85-.41 14.23 14.23 0 0 0 -1.72-.53c-1.12-.29-2.25-.51-3.37-.71-2.25-.39-4.49-.71-6.73-1s-4.48-.77-6.65-1.29c-.55-.13-1.09-.27-1.61-.44-.26-.09-.53-.18-.78-.28l-.4-.15h-.1s-.05 0-.08 0a.46.46 0 0 0 -.28-.13.39.39 0 0 0 -.23.15.39.39 0 0 0 -.08.2.75.75 0 0 0 0 .21s0 .1 0 .14l.12.22c.08.13.17.25.26.37a6.17 6.17 0 0 0 .59.66 7.55 7.55 0 0 0 .59.54h-.1l-1-.11-2.05-.24a.37.37 0 0 0 -.21.06.32.32 0 0 0 -.1.18 1.39 1.39 0 0 0 .4 1.11 2.73 2.73 0 0 0 .87.59l-2.53-.15a.28.28 0 0 0 -.28.19 1.19 1.19 0 0 0 0 .46 1.12 1.12 0 0 0 .14.4 2.29 2.29 0 0 0 .45.62 3.68 3.68 0 0 0 .37.32h-1.62a.85.85 0 0 0 .08.64 1.2 1.2 0 0 0 .19.27 2.85 2.85 0 0 0 .44.41 5.29 5.29 0 0 0 .5.32l-.8.11a.27.27 0 0 0 -.23.28.64.64 0 0 0 .08.3.72.72 0 0 0 .17.22 1.42 1.42 0 0 0 .38.26l.37.17.23.1a3.45 3.45 0 0 0 -.2.32 8.88 8.88 0 0 0 -.6 1.14 1 1 0 0 0 0 .54 1.6 1.6 0 0 0 .1.23 10.1 10.1 0 0 0 6.14 4.89.12.12 0 0 1 .11.08.11.11 0 0 1 0 .12c-1 1.63-2.36 4.61-.62 7.56.11.14.38.49.5.63a1 1 0 0 1 .25.75 1 1 0 0 1 -.37.7 8.34 8.34 0 0 0 -1 1.09c-.09.11-.18.23-.26.35a7.34 7.34 0 0 1 -1.18 1 4.06 4.06 0 0 1 -.74.4 4.84 4.84 0 0 1 -.82.25.11.11 0 0 0 -.09.11s0 .06 0 .07a.08.08 0 0 0 .08 0 4.55 4.55 0 0 0 .89-.19 4.38 4.38 0 0 0 .86-.37 3.79 3.79 0 0 0 .34-.2h-.06a10.34 10.34 0 0 1 -1.51 1.2 3.92 3.92 0 0 1 -.86.39 7.62 7.62 0 0 1 -.94.24.1.1 0 0 0 -.09.12.12.12 0 0 0 .12.1 8.31 8.31 0 0 0 1-.15 4.81 4.81 0 0 0 1-.35 9.09 9.09 0 0 0 1.08-.65 1 1 0 0 0 0 .43l.1.3a1.37 1.37 0 0 0 .3.45 2.58 2.58 0 0 1 .44-2.22c.27-.32.49-.64.78-1a7.69 7.69 0 0 1 1-1 1.31 1.31 0 0 1 .73-.32 26.5 26.5 0 0 0 4.6-.88 12 12 0 0 0 3.45-2.13 15.93 15.93 0 0 1 -3.37 1.85 6.67 6.67 0 0 1 -4.66-.05c-.23-.22-.46-.46-.67-.7s-.36-.44-.53-.67a6.12 6.12 0 0 1 -.55-3.81 11.23 11.23 0 0 1 1.25-3.1 3.24 3.24 0 0 1 .17-.32.36.36 0 0 0 0-.35.38.38 0 0 0 -.27-.22 8.06 8.06 0 0 1 -3.54-1.63l-.26-.19c-.34-.35-.81-.84-1.2-1.33a9.69 9.69 0 0 1 -.9-1.27 1.33 1.33 0 0 1 0-.9 6.48 6.48 0 0 1 .34-.64l.2-.31s.05-.08.07-.13a.43.43 0 0 0 0-.22.4.4 0 0 0 -.08-.23l-.12-.12a1.94 1.94 0 0 0 -.4-.22l-.34-.15-.16-.1.68-.09.51-.1h.21l.09-.06a.31.31 0 0 0 .05-.1.28.28 0 0 0 0-.13.27.27 0 0 0 -.1-.16h-.05-.13l-.23-.08a3.88 3.88 0 0 1 -.88-.51 2.16 2.16 0 0 1 -.38-.36h1.9c.17 0 .34-.17.24-.44l-.11-.06a6.16 6.16 0 0 1 -.55-.33 3.31 3.31 0 0 1 -.5-.41 1.83 1.83 0 0 1 -.37-.46.73.73 0 0 1 -.08-.25l3.67.22h.34a.17.17 0 0 0 .1 0 .27.27 0 0 0 .08-.39.19.19 0 0 0 -.09-.14h-.05-.07l-.12-.14-.44-.2a7.18 7.18 0 0 1 -.89-.36 2.4 2.4 0 0 1 -.73-.49.86.86 0 0 1 -.23-.39l1.73.18 1 .11.51.05h.26.32a.39.39 0 0 0 .16-.1l.06-.11a.21.21 0 0 0 -.07-.22 10.63 10.63 0 0 1 -1.25-1.12 7.19 7.19 0 0 1 -.51-.55l-.1-.14.12.05.81.32c.55.18 1.09.35 1.65.49 2.21.59 4.45 1 6.68 1.4s4.47.77 6.68 1.21c1.1.23 2.2.47 3.26.77.52.15 1 .33 1.54.53a5.32 5.32 0 0 1 .67.35 2 2 0 0 1 .58.5c.43.58-.07 1.2-.28 1.57-.3.54-2.64 2.94-2.94 4.19-.36 1.45.7 4.78 1 5.92a1.61 1.61 0 0 1 -.62 1.63c-1 .75-2.46 1.88-3.08 2.27 1.76-.55 2.25-1.78 4.85-2.54a3.86 3.86 0 0 1 2.12.31 12.34 12.34 0 0 1 3.6 2.9c1.77 2 2.83 2.22 3.71 2.25a11 11 0 0 0 3.12-.52c-.71.1-1.43.22-2.15.25-1.93.07-3.92-.88-3.19-2.93a2.91 2.91 0 0 1 1.53-1.35 13.33 13.33 0 0 1 2-.77 18.1 18.1 0 0 1 2.44-.46 7.15 7.15 0 0 1 2 0 13 13 0 0 1 1.63.55s-1-.1-1.3-.09a.52.52 0 0 0 -.38.13.53.53 0 0 0 -.17.35c0 .55.5.53.6.53h.82a1 1 0 0 1 1 .47c.09.13.09.44-.15.48l-3.05.38-3.17.46s4.46-.15 5 1.24.3 2-.8 2.92c-.6.47-2.53 1.16-5.5 1.17s-3.67-.26-7-.26c-.78 0-4.88.93-9.3 1.93a9.15 9.15 0 0 0 1.18-1 .11.11 0 0 0 0-.14.1.1 0 0 0 -.14 0 9.39 9.39 0 0 1 -1.13.83c-.39.25-.79.48-1.21.7a21.59 21.59 0 0 1 -2.6 1.15 12.3 12.3 0 0 1 -1.34.43l-.32.1-.32.08a3 3 0 0 1 -.66.07c-.45 0-.92 0-1.41 0h-.38l.25-.2a7.8 7.8 0 0 1 .87-.59c.32-.17.61-.34.94-.49a10.52 10.52 0 0 1 1-.39.1.1 0 0 0 -.05-.19c-.36.09-.7.2-1.05.32s-.68.26-1 .41a9.06 9.06 0 0 0 -1 .54 6.68 6.68 0 0 0 -.8.6c-.54.16-1.49.39-1.87.52a25.85 25.85 0 0 0 -4.78 2.34 4.93 4.93 0 0 0 -1.12.32 7.2 7.2 0 0 0 -.64.71c-2.24 2.14-9.65 8.34-9.64 8.35l-.78.66-.11.08a1.9 1.9 0 0 1 -.71.33l-1.93.08a.14.14 0 0 0 -.13.07.14.14 0 0 0 0 .15.14.14 0 0 0 .13.07l1.43-.05a.19.19 0 0 1 .12.17.2.2 0 0 1 -.09.19l-2.42.49a.15.15 0 0 0 -.12.17.15.15 0 0 0 .16.12l2.24-.46h.12c.07 0 .1.09 0 .2l-2.88 1.07a.13.13 0 0 0 -.09.17.14.14 0 0 0 .16.11l1.6-.62c.64-.21 1.39-.48 2-.73a1.9 1.9 0 0 0 .39-.2 4.46 4.46 0 0 0 .39-.32 2.44 2.44 0 0 0 .35-.43 11 11 0 0 1 1.38-1.35l.51-.49c3.09-2.56 8.08-6.75 8.18-6.84a7.35 7.35 0 0 0 1.29-.57 8.73 8.73 0 0 0 .68-.92 32.5 32.5 0 0 1 4.34-2.08c.75-.23 1.77-.52 2.91-.83h1.55a3.86 3.86 0 0 0 .75-.1l.36-.09.34-.12c.45-.15.9-.31 1.34-.49a19.57 19.57 0 0 0 1.81-.81l3-.73c2-.49 6-1.27 7.53-1.58 3.09-.64 3.89.22 8.25.06.91 0 4-.3 5.45-1.39 1-.72 1.53-1.14 1-3.32-.18-.72-2-1.24-2.33-1.3 0 0 9.79-1.46 13.3-2a.32.32 0 0 0 .23-.31.33.33 0 0 0 -.24-.3zm-8.5 1.53-1.28.2a.51.51 0 0 0 0-.42l8.78-.77c-1.75.24-5.41.68-7.48.99zm-1.43-.44-.07-.08a11.63 11.63 0 0 1 3.34-.81c.78 0 1.66-.06 2.87 0h.24c1.28 0 2.19.1 3.1.17a.21.21 0 0 1 .1.06z"/><path d="m50.72 35.47c-.78-.56-4.31-1.06-4.87-2a6.21 6.21 0 0 1 -.71-2.36 14.69 14.69 0 0 1 0-2 5.57 5.57 0 0 0 -.29 1.94 7.11 7.11 0 0 0 .72 2.86c.64.73 3.37 1.59 3.78 1.86s.91.44.71 1a1.56 1.56 0 0 1 -.32.52 5.11 5.11 0 0 1 -.48.45 12.4 12.4 0 0 1 -1.17.84c-.82.54-1.69 1-2.58 1.55-1.77 1-3.58 2-5.39 2.93s-3.6 2-5.33 3.06c-.43.28-.86.56-1.28.86-.21.15-.41.32-.61.46l-.08.07a.28.28 0 0 1 0-.12 4.29 4.29 0 0 1 .26-.58 8.41 8.41 0 0 1 .75-1.12.14.14 0 0 0 0-.17.19.19 0 0 0 -.09 0 .22.22 0 0 0 -.16 0h-.06-.06l-.1.05-.22.1-.42.2-.85.4-1.44.67a.59.59 0 0 1 .08-.34 2.11 2.11 0 0 1 .49-.6c.21-.19.43-.35.66-.53l.36-.26.09-.07a.2.2 0 0 0 0-.13c0-.11-.17-.17-.22-.16h-.17l-.21.09-3.1 1.31a.61.61 0 0 1 0-.19 1.16 1.16 0 0 1 .18-.43 3.19 3.19 0 0 1 .32-.43 4.61 4.61 0 0 1 .37-.4l.08-.07a.26.26 0 0 0 -.11-.21.29.29 0 0 0 -.24 0l-1.62.61a1.34 1.34 0 0 1 .22-.36 3.25 3.25 0 0 1 .61-.62 1.09 1.09 0 0 1 .17-.13h.05a.19.19 0 0 0 .05-.14.13.13 0 0 0 -.05-.09.18.18 0 0 0 -.07 0h-.31l-.49.12-.62.15.11-.12.25-.21a1.79 1.79 0 0 0 .28-.27.75.75 0 0 0 .07-.12.25.25 0 0 0 -.11-.31.21.21 0 0 0 -.1-.06l-.26-.15a3.74 3.74 0 0 1 -.49-.32.81.81 0 0 1 -.23-.61 8.28 8.28 0 0 1 .42-1.18c.19-.43.41-.86.64-1.27l.17-.21a8.09 8.09 0 0 1 2.54-2.2c.2-.12.23-.36.05-.47l-.24-.16a7.37 7.37 0 0 1 -1.94-1.38 4.4 4.4 0 0 1 -1.09-1.67c-.06-.15-.11-.3-.16-.44.08 1.9 1.72 3.14 2.9 3.79.07 0 .05.12 0 .17a8.16 8.16 0 0 0 -3.84 5.22.61.61 0 0 0 0 .19.54.54 0 0 0 .14.36 6.56 6.56 0 0 0 .83.54l.28.15-.17.16-.27.22a1.42 1.42 0 0 0 -.25.3.5.5 0 0 0 -.08.2.36.36 0 0 0 0 .23.23.23 0 0 0 .28.11l.72-.18c-.11.12-.22.25-.32.38a2.5 2.5 0 0 0 -.25.41.73.73 0 0 0 -.08.25.49.49 0 0 0 .12.45l.2-.07 1.17-.44-.22.32a1.84 1.84 0 0 0 -.02.33.86.86 0 0 0 0 .32.66.66 0 0 0 .17.29.26.26 0 0 0 .29 0l2.17-.88a2.6 2.6 0 0 0 -.58.66 1.17 1.17 0 0 0 -.13.44.82.82 0 0 0 .12.43.27.27 0 0 0 .32.06l1.7-.8.85-.41h.09a5.6 5.6 0 0 0 -.35.55 4.25 4.25 0 0 0 -.32.64 2.19 2.19 0 0 0 -.12.33v.19.11a.42.42 0 0 0 0 .15.32.32 0 0 0 .13.1.4.4 0 0 0 .24 0 .88.88 0 0 0 .22-.1h.06l.07-.06.28-.22c.19-.15.4-.29.6-.43.4-.28.83-.55 1.26-.81 1.72-1 3.54-2 5.36-2.93s3.67-1.86 5.48-2.84c.91-.49 1.81-1 2.69-1.54a13.94 13.94 0 0 0 1.28-.89 6.35 6.35 0 0 0 .61-.54c.1-.1.19-.21.28-.32a1.65 1.65 0 0 0 .23-.5 1.18 1.18 0 0 0 -.27-1.56zm77.13 30.76a1.85 1.85 0 0 1 -.62 0c-.83-.18-1.36-.95-1.36-2.65v-32.5a.55.55 0 0 0 -.23-.45.54.54 0 0 0 -.49-.09l-5.51 1.59a.56.56 0 0 0 -.41.54v.09c0 .35 1.06.52 1.3.57.83.18 1.36 1 1.36 2.65v11.43a.57.57 0 0 1 -.3.49.53.53 0 0 1 -.57 0 10.38 10.38 0 0 0 -5.72-1.52 12.13 12.13 0 0 0 -11.6 11.9 10.51 10.51 0 0 0 10.84 10.72 10.4 10.4 0 0 0 6.73-2.38.59.59 0 0 1 .6-.06.58.58 0 0 1 .32.51v1.2a.57.57 0 0 0 .71.54l5.21-1.42a.55.55 0 0 0 .42-.54v-.09a.55.55 0 0 0 -.21-.43.57.57 0 0 0 -.47-.12zm-5.85-5.74c0 2.2 0 3.27-.22 3.72-.4 1.07-3.4 3.44-6.23 3.44-3.9 0-7.58-3.78-7.58-10.09 0-5.93 2.87-10.1 7.86-10.1 4.48 0 6.17 2.48 6.17 7.9zm-42.68 6.61c-3.31-.4-4.1-1.36-6.79-8.08-2.75-6.87-10.33-26.76-10.66-27.61-.25-.68-.46-1.25-1.27-1.25s-1.17.55-1.51 1.39c-2.37 5.81-8.62 21.54-8.62 21.54-4.57 11.6-5.59 13.42-9.15 14a.62.62 0 0 0 -.54.63.64.64 0 0 0 .64.64h10.47a.64.64 0 0 0 .59-1 .66.66 0 0 0 -.48-.3c-2.17-.2-3.42-1-3.42-2.83 0-1.16.32-2 1.11-4.1l2.55-6.56a.64.64 0 0 1 .61-.41h12.66a.63.63 0 0 1 .61.41l2.73 7.17a12.93 12.93 0 0 1 1 4.16c0 1.15-.76 1.76-3.61 2.14a.64.64 0 0 0 .07 1.27h13a.64.64 0 0 0 .07-1.27zm-14.93-15.58h-10.52a.66.66 0 0 1 -.55-.28.63.63 0 0 1 0-.61c1.11-2.72 4.4-10.92 5.68-14.31a.4.4 0 0 1 .74 0c1.06 3 4.26 11.68 5.26 14.34a.64.64 0 0 1 -.6.86zm37.92 14.3a3.76 3.76 0 0 1 -1.06 0c-.84-.17-1.37-.95-1.37-2.64v-16.31a.49.49 0 0 0 -.16-.37.57.57 0 0 0 -.38-.14l-6.2.39a.5.5 0 0 0 -.06 1c2.69.51 3.19 1.31 3.19 6.47v6.42a6.39 6.39 0 0 1 -5.58 6.36 4.49 4.49 0 0 1 -.64 0c-2.83 0-5-1.81-5-5.75v-14.38a.52.52 0 0 0 -.16-.37.57.57 0 0 0 -.38-.14l-6.22.39a.51.51 0 0 0 -.07 1c2.42.51 2.88 1.41 2.88 8.1v5.58c0 3.95 1 7.56 6.91 7.56a10.82 10.82 0 0 0 7.76-2.9.51.51 0 0 1 .84.38v1.43a.51.51 0 0 0 .64.49l5.26-1.4a.5.5 0 0 0 .37-.49v-.19a.49.49 0 0 0 -.18-.38.56.56 0 0 0 -.41-.11zm51.42 0a1.65 1.65 0 0 1 -.7 0c-.83-.17-1.36-.95-1.36-2.64v-16.31a.52.52 0 0 0 -.16-.37.57.57 0 0 0 -.38-.14l-6.57.39a.5.5 0 0 0 -.06 1c2.7.51 3.2 1.31 3.2 6.47v6.42a6.4 6.4 0 0 1 -5.58 6.4 4.58 4.58 0 0 1 -.64 0c-2.83 0-5-1.81-5-5.75v-14.42a.52.52 0 0 0 -.16-.37.57.57 0 0 0 -.38-.14l-6.23.39a.51.51 0 0 0 -.07 1c2.42.51 2.88 1.41 2.88 8.1v5.58c0 3.95 1 7.56 6.9 7.56a10.85 10.85 0 0 0 7.77-2.9.51.51 0 0 1 .54-.08.52.52 0 0 1 .3.46v1.43a.51.51 0 0 0 .64.49l5.33-1.39a.5.5 0 0 0 .37-.49v-.19a.49.49 0 0 0 -.18-.38.54.54 0 0 0 -.41-.11zm14.68-19.49c-3.64 0-5.56 1.76-7.11 3.2a.11.11 0 0 1 -.12 0 .11.11 0 0 1 -.08-.1v-18.26a.67.67 0 0 0 -.28-.53.69.69 0 0 0 -.59-.1l-5.23 1.46a.68.68 0 0 0 -.49.65c0 .36 1.06.53 1.3.58.83.18 1.36 1 1.36 2.65v32.68a.4.4 0 0 0 .12.33.38.38 0 0 0 .33.12c.34 0 1.81-.9 3.06-.9s3.58.9 6.47.9c7 0 11.58-5 11.58-11.67 0-7.73-5.42-11-10.28-11zm-1.06 21.55c-3.12 0-6.25-1.81-6.25-6.32v-9.62a2 2 0 0 1 .68-1.51 8.46 8.46 0 0 1 5.15-2.18c4.42 0 7.25 3.72 7.25 10.26 0 6.21-2.48 9.37-6.83 9.37zm24.1-21.55c-5.83 0-11 4.17-11 11.34s5.17 11.33 11 11.33 11-4.17 11-11.33-5.17-11.34-11-11.34zm0 21.55c-5.49 0-6.71-4.85-6.71-10.21s1.23-10.21 6.71-10.21 6.71 4.85 6.71 10.21-1.22 10.21-6.71 10.21z"/><path d="m227.44 67.36c-2.38-.07-2.64-1-2.64-5v-8.11c0-6.53-4.38-7.76-7.7-7.76a12 12 0 0 0 -6.89 2.24.51.51 0 0 1 -.48 0 .5.5 0 0 1 -.23-.42v-1.8a.51.51 0 0 0 -.63-.48l-5 1.32a.71.71 0 0 0 -.57.62.6.6 0 0 0 .6.59 4 4 0 0 1 .69 0c.83.18 1.35.95 1.35 2.62v11.32c0 3.92-.41 4.77-3.13 4.83a.34.34 0 0 0 -.23.1.29.29 0 0 0 -.08.23v.26a.31.31 0 0 0 .33.33h10.17a.38.38 0 0 0 .24-.09.35.35 0 0 0 .1-.24v-.23a.32.32 0 0 0 -.09-.23.29.29 0 0 0 -.23-.1c-2.48-.07-3.1-.94-3.1-5v-8.61a5.32 5.32 0 0 1 4.05-5.22 4.71 4.71 0 0 1 1.12-.14c3.88 0 5.84 2.29 5.84 6.81v7.31c0 3.92-.65 4.78-3 4.85a.34.34 0 0 0 -.32.33v.23a.34.34 0 0 0 .34.34h9.54a.34.34 0 0 0 .23-.1.29.29 0 0 0 .08-.23v-.24a.31.31 0 0 0 -.33-.33z"/></svg>