<svg id="Layer_1" data-name="Layer 1" xmlns="http://www.w3.org/2000/svg" viewBox="0 0 195.18 82.43"><path d="M106.64,41.85h-2.13L104,39.09a12.53,12.53,0,0,0-2.92-.32,4.43,4.43,0,0,0-3.6,1.48,7.14,7.14,0,0,0-1.28,4.64,7.68,7.68,0,0,0,1.32,4.85,4.46,4.46,0,0,0,3.72,1.68,7.81,7.81,0,0,0,1.36-.12,8.72,8.72,0,0,0,2.36-.84,3.11,3.11,0,0,0,.76-.52l.56-.48,1.13,2-.36.28a5.68,5.68,0,0,1-1.09.72,10.76,10.76,0,0,1-1.52.76,11.37,11.37,0,0,1-1.76.6,7,7,0,0,1-1.8.24,7.69,7.69,0,0,1-6-2.36,9.32,9.32,0,0,1-2.08-6.45,10.76,10.76,0,0,1,.6-3.68,7.8,7.8,0,0,1,4.4-4.68,8.85,8.85,0,0,1,3.48-.68c.44,0,.88,0,1.32.08l1.32.24a8.67,8.67,0,0,1,1.2.32q.54.18,1,.36l.73.32Z"/><path d="M110.6,37.45A18.21,18.21,0,0,1,117,36.17a7.29,7.29,0,0,1,4.4,1.16A4.62,4.62,0,0,1,123,41.21v9.93l2.6.64v1.8l-5,.16-.68-2.28c-1.72,1.72-3.44,2.6-5.12,2.6a5.19,5.19,0,0,1-3.8-1.28,4.88,4.88,0,0,1-1.28-3.6c0-3.36,2.48-5,7.48-5h2.6v-2.6c0-2-1-2.92-3.08-2.92a9.73,9.73,0,0,0-2.88.36l-.4.12-.44,2.44h-2.16Zm9.08,8.77H117.4a6.6,6.6,0,0,0-3.44.64,2.18,2.18,0,0,0-1,2,2.76,2.76,0,0,0,.6,1.92,2.2,2.2,0,0,0,1.72.68,3.67,3.67,0,0,0,1.12-.2,6.74,6.74,0,0,0,1.12-.48,5.72,5.72,0,0,0,1-.64,5.44,5.44,0,0,0,.68-.64l.56-.64v-2.6Z"/><path d="M131,36.49l.24,1.8a7.05,7.05,0,0,1,4.92-2.16,6.26,6.26,0,0,1,5.21,2.24c1.2,1.52,1.76,3.64,1.76,6.4a12.32,12.32,0,0,1-.52,3.73A8.37,8.37,0,0,1,141,51.42a7.76,7.76,0,0,1-2.76,1.92,10.19,10.19,0,0,1-3.85.68,11.25,11.25,0,0,1-2.92-.44v5.16l3.4.64v1.8H125.6v-1.8l2.6-.64V39.05l-2.76-.64v-1.8Zm.48,4.52v9.77a6.53,6.53,0,0,0,3.4.64c3.25,0,4.89-2.16,4.89-6.49a8.59,8.59,0,0,0-1-4.52,3.47,3.47,0,0,0-3.21-1.64,5.09,5.09,0,0,0-2.32.56A4.09,4.09,0,0,0,131.48,41Z"/><path d="M151.21,36.49V51.1l2.44.8v1.8h-8.44V51.9l2.76-.8v-12l-2.76-.64v-1.8Zm-1.76-7.64c1.4,0,2.12.8,2.12,2.44a1.83,1.83,0,0,1-.72,1.56,2.55,2.55,0,0,1-1.52.56,1.84,1.84,0,0,1-1.44-.6,2.43,2.43,0,0,1-.56-1.68,2.27,2.27,0,0,1,.6-1.68A2.08,2.08,0,0,1,149.45,28.85Z"/><path d="M161.17,31.89v4.76h4.72v2.44h-4.72V49.54c0,1.32.56,2,1.64,2a5.82,5.82,0,0,0,2.52-.8l.88,1.72a7.68,7.68,0,0,1-4.56,1.64A3.5,3.5,0,0,1,159,53a5.21,5.21,0,0,1-1-3.64V39.05h-3.24V36.93l3.24-.32V32.53Z"/><path d="M169.3,37.45a18.21,18.21,0,0,1,6.44-1.28,7.29,7.29,0,0,1,4.4,1.16,4.62,4.62,0,0,1,1.52,3.88v9.93l2.6.64v1.8l-5,.16-.68-2.28c-1.72,1.72-3.44,2.6-5.12,2.6a5.19,5.19,0,0,1-3.8-1.28,4.88,4.88,0,0,1-1.28-3.6c0-3.36,2.48-5,7.48-5h2.6v-2.6c0-2-1-2.92-3.08-2.92a9.73,9.73,0,0,0-2.88.36l-.4.12-.44,2.44H169.5Zm9.12,8.77h-2.28a6.6,6.6,0,0,0-3.44.64,2.18,2.18,0,0,0-1,2,2.76,2.76,0,0,0,.6,1.92,2.2,2.2,0,0,0,1.72.68,3.67,3.67,0,0,0,1.12-.2,6.74,6.74,0,0,0,1.12-.48,5.72,5.72,0,0,0,1-.64,5.44,5.44,0,0,0,.68-.64l.56-.64v-2.6Z"/><path d="M191.94,28.69V51.1l3.24.8v1.8h-9.32V51.9l2.76-.8V31.29l-2.76-.64v-1.8Z"/><path d="M41.21,0A41.22,41.22,0,1,0,82.43,41.21,41.21,41.21,0,0,0,41.21,0Zm-18,47.54c0,4.68-2.72,6.68-6.72,6.68A5.85,5.85,0,0,1,12.4,52.9l1.28-3.84a3,3,0,0,0,2.25,1c1.56,0,2.56-.84,2.56-2.72V28.85h4.72Zm17.92-1c0,5.36-3.4,7.64-7.08,7.64s-7.16-2.32-7.16-7.64V28.81h4.72V46.74c0,2.44.92,3.28,2.4,3.28s2.4-.84,2.4-3.28V28.81h4.72Zm8.13,7.68a8.8,8.8,0,0,1-6.41-2.48l2-3.68A5.31,5.31,0,0,0,49,50,2.51,2.51,0,0,0,51.5,47.3c0-4.41-7.93-4.37-7.93-11.93a6.69,6.69,0,0,1,6.93-7,7.74,7.74,0,0,1,5.4,2l-1.8,3.64a4.57,4.57,0,0,0-3.44-1.44,2.3,2.3,0,0,0-2.32,2.52c0,3.88,7.92,4.4,7.92,11.89C56.26,51.22,53.5,54.22,49.26,54.22ZM69.94,33H66.18V53.74H61.46V33H57.7V28.81H69.94Z"/></svg>