<svg id="Layer_1" data-name="Layer 1" xmlns="http://www.w3.org/2000/svg" viewBox="0 0 321.38 117.16"><defs><style>.cls-1{fill:#231f20;}</style></defs><path class="cls-1" d="M93.35,24.45a34.8,34.8,0,0,1-6,.67l-.73,0v0c-1.56,0-1.48,1.3-1.48,3.19,0,2.08-1.28,4.21-1.77,6.42a18.64,18.64,0,0,0-.66,2.93c-.07.44,0,.6.13.67s.39,0,.51-.29l.15-.29c.88-1.84,1.61-4.29,2.28-5.57a18.13,18.13,0,0,1,1-2c.29-.47.39-.79,1-.48a1.84,1.84,0,0,1,.8,2l0,.34s-.1.58-.22,1.22c-.09.37-.18.73-.24,1.05a9.12,9.12,0,0,0-.16,1.06c-.2,1-.37,2.15.29,2.33.47.12.66-.69.94-1.38a1.3,1.3,0,0,0,.08-.29c.07-.18.11-.31.11-.31a24.25,24.25,0,0,1,1.32-3.36c.66-1.23,2.08-.77,3.13-.64a1.61,1.61,0,0,1,1.19,2,24.06,24.06,0,0,0-.38,2.78c-.07,1.11-.87,5.18-1,6.9s-.27,2.72.18,2.56c.26-.09.26-.21.42-.85s.9-3.19,1.32-4.72.4-2.32.82-3.93c.83-3.11,1.32-2.48,1.32-2.48s.34.11,1,1.07c.43.62,0,3.25-.19,4.35a51,51,0,0,0-.94,5.63c0,.27-.35,3.44-.09,3.61.44.29.71-1.73.71-1.73A81.72,81.72,0,0,1,101,38.1c2.16,2.56.77,12.3.16,16.74-1.46.54-2.68,1-2.68,1-1,.29-3.09.87-4,1.06a3.64,3.64,0,0,0-2,1.34c-.45.5-.78,1-1.46,1.94A12.1,12.1,0,0,1,89.3,61.8c-.38.41-1.11,1.07-1.11,1.07A11.24,11.24,0,0,0,86.75,64h0c-2,2.11-3.26,6.58-3.6,7.93l-.27,1c-.07.3-.27.71-.07.77s.49-.33.59-.5c-.09.15.62-1,.62-1.06.35-.68.08-.17.35-.72a14.88,14.88,0,0,1,5.48-7.11c1.86-1.27,3.46-3.55,5-4.32,3.28-1.61,6.62-1.81,9.14-2.62.39-.13.77-.24,1.14-.34h0c.85-.33,1.88-.57,3-.88a14,14,0,0,1,3-.53,6.76,6.76,0,0,1,1.42,0s-.53.22-1.32.49l-.2.1-2.9,1.57h0l-.38.21c-.22.1-3.05,1-3.46,1.17a6,6,0,0,0-1.53.93,9.25,9.25,0,0,1-1.17,1c-.18.11-.34.2-.37.23-.23.2-.63.42-.51.58s.51-.06.69-.11a7.83,7.83,0,0,1,1.19-.18l1.12,0h0s1.09,0,1.57-.08.75-.07,1.17-.1a4.83,4.83,0,0,1,1.17,0,2.15,2.15,0,0,1,.53.13l-.53.08a5.67,5.67,0,0,0-1.3.28c-.31.15-.83.33-1.18.49a26.87,26.87,0,0,0-3.13,2,7,7,0,0,0-2.62,2.48c-.42.57-.42.41-2.27,2.08a24.76,24.76,0,0,1-1.84,1.73l-1.14,1.43a6.65,6.65,0,0,1-1,1,11.48,11.48,0,0,0-2,2c-1.41,1.66-.81.87-2.36,3.78a13.57,13.57,0,0,0-1.19,3.14l-.06.2s-.26,1-.29,1.14-.21.73,0,.77.46-.36.56-.52a9.55,9.55,0,0,1,.77-.91c1.1-1.08,2.72-2.67,4.09-4.05a35.45,35.45,0,0,1,4.56-3.93,73.37,73.37,0,0,1,9.34-6.34c2.63-1.5,4.18-.81,7.31-2.21a45.44,45.44,0,0,1,5.09-.67,59.58,59.58,0,0,0,.26-14.46,21.22,21.22,0,0,0-6.8.53c-.26-1.14-.58-2.43-.75-3-.35-1.06-.44-1.56,0-1.75s.62.23,1.29,1.18,1.08,1.25,1.57,1.08c.68-.24-.46-2.54-.66-3-.66-1.3-1.23-2.62-2.11-4-4.06-6.45-5.57-7.28-5.57-7.28a46.78,46.78,0,0,0-5-3.69,16.71,16.71,0,0,0-8-2.76c-1.18-.18-4.52-.87-4.59-1.11s5-.29,6.11-.43,6.8-2.2,15.17,2.63c1.42.7,2.64,1.29,3.7,1.78-.78-1.62-1.64-3.19-2.56-4.72-2.9-.83-7.95-2.28-9.34-2.75C99.23,23,94.82,24,93.35,24.45ZM105,47.06c.48-2.24.87-4.36.87-4.36s.21-.61.41,0,.76.78,1,2.08,1.21,2.19.88,3a9,9,0,0,0-.41,3.07c0,.39.12,1.17.19,2l-3,.81c-.37.1-.81.23-1.27.38C104.12,51.52,104.75,48.24,105,47.06Z"/><path class="cls-1" d="M63.84,114.26a1.38,1.38,0,0,1,0-.2c-.12-.54-.39-1-.5-1.55s-.16-1.08-.23-1.62c-.14-1-.33-1.26-.44-2.3,0-.22-.09-.43-.13-.65s-.38-2.15-.43-2.48l-.06-.33h0a1.22,1.22,0,0,0-.06.51c0,.61,0,1.25.08,1.89s.06,1.4.09,2.09c0,1,0,1.91.07,2.87,0,.58,0,1.2,0,1.79,0,.32,0,.65,0,1s0,.4,0,.6l0,.53v.7q1.41-.06,2.82-.18a4.15,4.15,0,0,0-.49-1A5.23,5.23,0,0,1,63.84,114.26Z"/><path class="cls-1" d="M7.65,46.84c2.15-.08,2.6.45,4.52.45a24.07,24.07,0,0,1,4.17.47c.94.3,1.87.6,1.94.64s.57.14.62,0-.52-.43-.74-.59-.95-.53-.95-.53h0C14,45.41,7.92,44.55,5.32,43.66A13.93,13.93,0,0,1,2,41.82C1.58,43.55,1.2,45.3.89,47.09A64.14,64.14,0,0,0,7.65,46.84Z"/><path class="cls-1" d="M57.8,107.16s.09-.91.06-.49l.43-6.64,1-16-.16,33.13.67,0,.68,0,.11-38.43.74,15.69,0,1.14,0,.28v-.06c0,.34.12,3.25.15,3.59,0,.12,0,.24.05.36h0v0a1.29,1.29,0,0,0,.1-.53c0-.33,0-.68,0-1V75c.68,0,.77-.26.72-.56s.17-.14.64-.22h.07c.21,5.56.84,22.11,1.27,32.85.19,1.53.91,6.84,2.26,8.57a5.92,5.92,0,0,1,.64,1,59.84,59.84,0,0,0,51-47.08c-.46,0-1,.1-1.52.17-9.37,1.27-10.73,2.48-11.07,2.93a9.88,9.88,0,0,1-3.05,2.82c-1.56.78-5.91,3.84-7.16,4.46S94.83,82.28,92,84.6a10.28,10.28,0,0,0-2.54,3.25,0,0,0,0,0,0,0,.4.4,0,0,0-.2,0h0s0,0,0,0a.05.05,0,0,0,0,0h0a.16.16,0,0,0,.13-.1s0,0,0,0l0,0s0,0,0,0,0,0,0,0a.12.12,0,0,1-.08,0h0a.07.07,0,0,0,0-.06s0,0,0-.07l0,0s0,0,0,0,0,0,0,0h0l0,0v0a.06.06,0,0,0,0-.09s0,0,0,0l0,0,0,0a.07.07,0,0,0,0,0h0s0-.08,0-.1,0,0,0,0a.07.07,0,0,0,0,0l0,.06s0-.09,0-.1,0,0,0,0,0,0,0,0v0a.05.05,0,0,0,0,0s0,0,0,0,0,0,0,0,0,0,0,0l0,0h0a.09.09,0,0,0,0-.09s0-.06,0-.06l0,0h0l-.12.07a.05.05,0,0,0,0,0,.09.09,0,0,0,0-.07h0s0,0,0,0h0l0,0h0v0s0,0,0,0h0l0,0s0-.07,0-.1l0,0s0,0,0,0,0,0,0,0a.08.08,0,0,1,0,0,.09.09,0,0,1,0,0,.06.06,0,0,0,0-.06s0,0,0,0h0v0a.18.18,0,0,0,0-.1v-.07a.12.12,0,0,0,0-.1h0l0,0v0s0,0,0,0,0,0,0,0l0,0s0-.06,0,0,0,0,0,0v0a.07.07,0,0,0,0-.09.05.05,0,0,1,0,0s0,0,0,0l0,.06s0-.09,0-.1a.05.05,0,0,0,0,0s-.06.08-.06.09,0,.1,0,.12-.07.09-.09.12a.21.21,0,0,0,0,.16v.05h0s0,0-.06,0,0,0,0,0h0s0,0,0,0v0h0a.08.08,0,0,0,0,.06,0,0,0,0,0,0,0h0a.12.12,0,0,0-.11,0,.15.15,0,0,0,0,.12l.05.07c0,.06,0,.07,0,.08a0,0,0,0,1,0,0,.09.09,0,0,1-.07,0,.08.08,0,0,0-.06,0s0,0-.06.05-.09,0-.09,0a.27.27,0,0,1,0,.12h0a0,0,0,0,0,0,0h0a0,0,0,0,0,0,.05s0,0-.07,0-.08.23,0,.27l.08,0a0,0,0,0,0,0,0l0,0,0,0-.08,0a.06.06,0,0,0-.07,0s0,.07,0,.1,0,0-.08,0,0-.05-.07-.06a0,0,0,0,0-.07,0s0,.06,0,.05-.07,0-.09,0,0,.06,0,0,0,0-.06,0,0,0,0,.06,0,0,0,.06,0,0,0,.05.06,0,.07,0h0s0,.06,0,.09.09,0,.11,0l0,0a.08.08,0,0,1,0,.08h0c-.07,0-.14-.06-.14,0s-.08.26-.16.26-.09.25,0,.3h0a.06.06,0,0,0-.08,0s0,.06,0,0-.05,0-.06,0,0,.05,0,.07,0,0,0,0l0,0c-.07,0-.17,0-.17,0a.15.15,0,0,0,.11.17s0,0,0,0-.07,0-.09,0,0,.06,0,0-.05,0-.06,0,0,0,0,.06,0,0,0,.06h0c-.06,0-.11,0-.12.08s-.07,0-.13,0h0a.48.48,0,0,0,.07-.16c0-.18-.22-.2-.2-.28s.26,0,.28-.09,0-.19-.06-.22-.19,0-.17-.15a.43.43,0,0,0,0-.28.25.25,0,0,0,.18-.16.16.16,0,0,0,0-.1.05.05,0,0,0,0,0s0,0,0,.05a.1.1,0,0,1,0,0,.3.3,0,0,1-.11,0h0a0,0,0,0,1,0,0v0a.14.14,0,0,0,0-.1.22.22,0,0,0,0-.13l0,0s0,0,0,.07v0h0s-.06,0-.09,0h0c-.06-.08-.19-.11-.17-.17s.25,0,.27-.09,0-.19-.06-.21-.19,0-.16-.16,0-.29,0-.3a.66.66,0,0,0-.15,0h0s.05,0,.05-.08a.06.06,0,0,0,0,0l0,0h0v0a.17.17,0,0,0,0-.16c0-.06,0-.09-.07-.1s0,0,0,0h0a1.72,1.72,0,0,1-.18.13l0-.07a.19.19,0,0,0,0-.13h0a.05.05,0,0,0,0,0s0,0,0,.06v0l0,0h0a0,0,0,0,0,0,0h0s0-.09-.08-.14a.13.13,0,0,0,0-.12s0,0,0,0,0,0-.05.06,0-.06,0-.1.09-.19.09-.34a.18.18,0,0,0-.11-.16c0-.08,0,0,0,0s0,0,0,0h0a.18.18,0,0,0,0-.16.1.1,0,0,0,0-.06s0,0,0,0l0,0v0h0c0-.1,0,0,0,0s0-.16,0-.19,0-.07-.08-.07,0,.09,0,.1,0-.09,0-.11a.05.05,0,0,0,0,0c-.07,0-.09.07-.1.09,0,.26-.11.07-.14.25,0,0,0,.14,0,.18a.06.06,0,0,1,0,0h0c-.09,0-.13,0-.13.11s-.1.07-.17.07,0,.31,0,.33v0l0,0a.37.37,0,0,0,0,.11v0h0a.17.17,0,0,0-.17.09.24.24,0,0,0,0,.21l.08.12c.06.11.07.12.06.15l0,0a.13.13,0,0,1-.1-.06.11.11,0,0,0-.09-.07s-.09,0-.14.18a1.2,1.2,0,0,0,0,.17v0h0s-.06,0-.08,0,0,0,0,.06h0a.13.13,0,0,0,0,.15h0s0,0-.06,0l0,0s-.07,0-.1.09-.06.08-.08.08l0,0c-.07,0-.13,0-.18,0a.13.13,0,0,0,0,.15.19.19,0,0,1,0,.09c0,.14.06.21.13.21s0,0,.1.1a.08.08,0,0,0,.09.06.14.14,0,0,0,0,.1s0,0,0,0v0h-.08a.09.09,0,0,0-.13,0s0,0,0,0a.07.07,0,0,1,0,0s0,0-.06,0,0,0,0,0a.21.21,0,0,0,.05.12l0,0a.43.43,0,0,1-.1-.09l0,0s0,0,0,0,0,0,0,0a.15.15,0,0,0,0,.07.15.15,0,0,0,0,.1l0,0a.16.16,0,0,0-.09,0h0c-.07,0-.16,0-.17.08a.15.15,0,0,0,0,.16s0,0,0,0v0l0,0h0s0,0,0,0,0,0-.05.05a.28.28,0,0,0,0,.13.08.08,0,0,0,.05.07l.11.06s0,0,0,0h0a.21.21,0,0,0,0,.13s0,.07,0,.08l.08.07,0,0s0,0,0,0l0,0s0,0-.06,0a.06.06,0,0,0,0,.06.17.17,0,0,0,0,.11l0,0h0a.38.38,0,0,1-.09-.09l0,0,0,0s0,0,0,0a.11.11,0,0,0,0,.06.18.18,0,0,0,0,.11l0,0a.16.16,0,0,0-.09,0h0c-.07,0-.15,0-.17.09a.16.16,0,0,0,.06.15l0,0v0l0,0h0s0,0,0,0a.2.2,0,0,0,0,.13.11.11,0,0,0,0,.08l.11,0s0,0,0,0h0a.22.22,0,0,0,0,.14.1.1,0,0,0,0,.08l.07.06a0,0,0,0,1,0,0c-.1,0-.17,0-.17.17s.07.14.14.18,0,.09,0,.09h0a.09.09,0,0,0-.06.06A.2.2,0,0,1,82,91H81.9c-.06,0-.09,0-.11.11a.11.11,0,0,0,0,.08.07.07,0,0,0,.06,0h0a.35.35,0,0,0,0,.18.08.08,0,0,0,.11,0h0v0a.28.28,0,0,1-.13.07s-.06,0-.06.06,0,0,0,.06.12,0,.16,0l0,0h0a.08.08,0,0,1,0,.1l0,0s-.06.06-.06.1a.05.05,0,0,0,0,0s0,0,.09,0l0,0v0h0a.06.06,0,0,0,0,0s0,.07,0,.08h0a.08.08,0,0,1-.08,0A.16.16,0,0,0,82,92h-.09a.06.06,0,0,0-.07,0,.17.17,0,0,0,.05.13s0,0,0,0v0h-.1a.12.12,0,0,0-.13.06s0,0,0,0l0,0a.06.06,0,0,0-.07,0,0,0,0,0,0,0,0v0h0l0,0,0,0s0,0,.05-.06v0s0,0,0,0h0a.17.17,0,0,1-.11,0h0a.07.07,0,0,0,0-.09s0,0,0,0,0,0,0,0h0l0,0-.07,0h0a0,0,0,0,1,0,0,.09.09,0,0,0,0-.08.08.08,0,0,0,0-.07.09.09,0,0,0,0,0l0,0s0,0,0,0h0a.06.06,0,0,1-.07,0c0-.06-.07,0-.1,0h0s0,0,0,0l0,0h0a.09.09,0,0,1,.06,0,.09.09,0,0,0,.07-.1v0H81a.33.33,0,0,0-.15,0,.09.09,0,0,1-.08,0v0a.05.05,0,0,1,0,0h.1a.27.27,0,0,0,.18-.14.11.11,0,0,0,0,0s0,0,0,0h0a.11.11,0,0,1,0,0,.12.12,0,0,1-.1,0h0a.08.08,0,0,1,.06,0,.07.07,0,0,0,.1,0,.12.12,0,0,0,0-.07h0l0,0,.08,0a.12.12,0,0,0,.07-.07.16.16,0,0,0,0-.07,0,0,0,0,0,0,0s0,0,0,0,0,0,0-.08,0,0-.07,0A.15.15,0,0,0,81,91a0,0,0,0,1,0,0v0a.15.15,0,0,0,0-.1,0,0,0,0,0,0,0,0,0,0,0,0,0,0h0a.23.23,0,0,0-.09,0h0a.09.09,0,0,1-.1-.08s0,0,0,0l0,0c0-.06,0-.08.08-.08s.07-.07.1-.19,0-.06,0-.08a.12.12,0,0,0,0-.13c0-.07-.09-.05-.14,0l0,0s0,0-.06-.07,0-.08-.07-.08h0a0,0,0,0,1-.06,0h0a.12.12,0,0,0,.05-.13h0s0,0,0,0l-.06,0h0s0-.09,0-.16-.08-.15-.11-.15,0,0-.07,0,0,.06-.08.06a0,0,0,0,1,0,0s0,0,0-.13a.54.54,0,0,0,.06-.11.31.31,0,0,0,0-.18.12.12,0,0,0-.13-.08h0v0a.28.28,0,0,0,0-.09l0,0h0s0,0,0,0,0-.07,0-.06h0s0,0,0,0,0,0,0,0,0,0,0,0,0,0-.06-.06,0-.06,0-.06.07,0,.07-.08-.09,0-.11,0,0-.06,0-.08a0,0,0,0,0,0,0h0s0-.13,0-.13-.07-.07-.07-.12,0,0,0,0V88s0-.13-.08-.13a.05.05,0,0,0,0,0s0,.11,0,.15,0-.09,0-.09-.06,0-.07.07l0,0a.12.12,0,0,0,0,.13l0,0s0,0,0,0,0,0,0,0a.17.17,0,0,0,0,.14l0,0,0,0s0,0,0,0a.23.23,0,0,0,0,.12c-.06,0-.07,0-.1,0s-.13-.08-.13,0,0,.12-.07.12,0,.12,0,.14.08,0,.08.08-.1,0-.11,0-.12-.06-.12,0,0,.09.07.09,0,0,0,0-.06,0-.06.06,0,.06.11.06a.44.44,0,0,0,.17,0s0,0,0,.07-.16,0-.2,0a0,0,0,0,0,0,.08c.06,0,0,0,0,0h0s0,0,0,.06a.09.09,0,0,0,0,.07.94.94,0,0,1-.14-.12h0s0,0,0,0,0,0,0,.08a.15.15,0,0,0,0,.14l-.32.06s-.1,0-.08.12.16,0,.17.11a.13.13,0,0,1-.12.14c-.08,0-.14,0-.19,0a.11.11,0,0,0-.09.13c0,.07.09.11,0,.12s-.14.06-.13.12.09.1,0,.12,0,.12,0,.16,0,0,.1,0h0a.31.31,0,0,0,0,.1c0,.07-.07.13-.12.13s-.08.24,0,.28.17,0,.17.18-.21.1-.23.08-.25-.14-.25,0,0,.17.14.17.07.07,0,.11-.13.06-.13.13.08.12.23.12h0l0,0h0a.09.09,0,0,0-.12,0h0s0,0,0,0,0,0-.06,0a.07.07,0,0,0,0,0,.18.18,0,0,0,0,.12l0,0-.09-.07s0,0,0,0l0,0s0,0,0,0a.14.14,0,0,0,0,.07s0,0,0,.06-.11,0-.12,0h0c-.07,0-.15,0-.17.09a.14.14,0,0,0,.05.14l0,0h0c-.08,0-.08.23,0,.27h0a0,0,0,0,1,0,0l.11,0s0,0,0,0h0a.19.19,0,0,0,0,.13s0,0,0,0l-.13,0s-.25-.14-.25,0,0,.17.14.17.07.07,0,.11-.13.06-.13.13.07.1.17.11h0s0,0,0,0-.11,0-.11,0-.06.24-.15.24-.07.22,0,.27,0,.15.13.15,0,0,0,0h0c0,.13-.21.1-.24.08s-.24-.14-.24,0,0,.17.14.17.06.07,0,.11-.12.06-.12.13a.1.1,0,0,0,.06.09h0a.18.18,0,0,0,.06.16l0,0v0s0,0,0,0h0s0,0-.06,0a.22.22,0,0,0,0,.08l0,0c-.06,0-.26-.17-.26-.06s-.07.25-.15.25-.08.23,0,.27.18,0,.18.18-.22.1-.24.08-.25-.14-.25,0,0,0,0,0,0,0,0,0-.11,0-.18-.08a0,0,0,0,1,0,0c.06,0,.07-.06.06-.07s0,0,0,0h0a.17.17,0,0,0,0,0,.08.08,0,0,0-.06,0h-.09a.1.1,0,0,1-.09-.07s0,0,0,0h0l0,0s0,0,0,0a0,0,0,0,0,0,0s0,0,0,0h0a.16.16,0,0,1-.1,0h0s0,0,0-.06.07-.08.1-.12a0,0,0,0,1,0,0,0,0,0,0,0,0-.05s0-.06-.12,0a.24.24,0,0,1-.12,0l-.1,0h0s-.1,0-.1,0,.08,0,.12,0h.08s0,0,0,0a.07.07,0,0,0-.06,0,.05.05,0,0,1,0,0,.07.07,0,0,0,.06,0c.06,0,.14-.12.13-.17s0,0,0,0h0l0,0h-.21a.17.17,0,0,0,0-.05s0,0-.08,0l-.07,0,0,0s0,0,0,0,0,0,0-.06,0,0,0,0h.07l.07,0a.32.32,0,0,0,.1-.1c0-.06.09-.11.13-.12a.1.1,0,0,0,.07-.07.13.13,0,0,0,0-.06l0,0h0a.25.25,0,0,0,0-.08v0h0a.14.14,0,0,1,0-.06s0,0,0,0h0s.05,0,.08-.07a.3.3,0,0,1,.08-.08.26.26,0,0,0,.07-.15.16.16,0,0,0,0-.06h0s0,0-.05,0l0,0a.19.19,0,0,1-.13.05h0v0a.1.1,0,0,0,0-.09h0s0,0,.06-.07a.29.29,0,0,0,0-.16s0-.08-.06-.08-.07,0-.14.09a.4.4,0,0,1-.38.07.18.18,0,0,1,0-.08.19.19,0,0,0-.15-.09h0s0,0,.06-.11A.63.63,0,0,1,75.2,93c.15,0,.17-.11.17-.15a.07.07,0,0,0-.09-.07v0a.33.33,0,0,0-.06-.12s-.08,0-.12-.06H75a.33.33,0,0,1-.14,0c-.13,0-.15-.07-.18-.17s0-.09-.08-.1l0,0a0,0,0,0,1,0,0s0,0,0,0l.06,0s.1,0,.12-.07a.13.13,0,0,0,0-.06c0-.06,0-.08-.07-.08h-.09a.53.53,0,0,1-.25,0h0s0,0,0,0h.06c.06,0,.14,0,.14-.13s0-.08-.05-.08h-.08l-.06,0a.21.21,0,0,0-.13-.07s0,0,0,0l0,0c.07,0,.12,0,.14-.12a.2.2,0,0,0,0-.13s0-.07-.08-.07l-.08,0-.07,0a.41.41,0,0,1-.11,0,.16.16,0,0,1-.15-.07l0,0c.6-.2.09-.28.07-.48a1.45,1.45,0,0,0-.19-.45h0c0-.11-.13-.22-.16-.29s0-.11-.1-.08-.06,0-.09,0a.06.06,0,0,0-.1,0s-.1,0-.12.06a2.12,2.12,0,0,1-.12.2s-.1.06-.14.12a.33.33,0,0,0,0,.15s-.07,0-.11,0-.11,0-.08.1a.34.34,0,0,0,0,.13s0,.08,0,0-.11-.07-.13,0,0,.07,0,.1,0,.05,0,.06a.13.13,0,0,0-.12.09s0,.09,0,.1.06.07,0,.09-.1.06-.08.11h0a.1.1,0,0,0,.12,0s0,.12.09.05h0v.25h0a0,0,0,0,0,0,0h0l-.06,0h0l0,0a.09.09,0,0,0-.06,0s0,0,0,0a.12.12,0,0,0,0,.09h0l-.07,0s0,0,0,0a0,0,0,0,0,0,0s0,0,0,0a.07.07,0,0,0,0,0,.09.09,0,0,0,0,.08h0a.1.1,0,0,0-.09,0h0c-.07,0-.15,0-.17.07A.11.11,0,0,0,72,92l0,0h0l0,0h0s0,0,0,0a.18.18,0,0,0,0,.1s0,0,0,.06l.11,0s0,0-.05,0h0a.14.14,0,0,0,0,.11.06.06,0,0,0,.05.06h0v.1h0a.22.22,0,0,0,0,.13.08.08,0,0,0,0,0s0,0-.06,0,0,0-.06,0h0s0,0-.07,0v0a.39.39,0,0,0,0,.14s-.08,0-.12,0h0l0,0s0,0-.06,0,0,0,0,0a.14.14,0,0,0,0,.1l0,0-.09-.07,0,0s0,0,0,0l0,0a.07.07,0,0,0,0,.06.12.12,0,0,0,0,.08l0,0-.09,0h0c-.07,0-.15,0-.17.07a.11.11,0,0,0,0,.12l0,0v0l0,0h0l0,0s0,0,0,0a.22.22,0,0,0,0,.11.08.08,0,0,0,0,.05s.07,0,.1,0l0,0h0a.14.14,0,0,0,0,.11s0,0,0,.06a.31.31,0,0,1,.09.07h0l-.08,0a.25.25,0,0,0,0,.13.07.07,0,0,0,.06.08.13.13,0,0,0,.08,0h0s0,0,0,0a.06.06,0,0,0,0,0,.07.07,0,0,0,0,.06.11.11,0,0,0,.08,0l.11,0,.1,0s0,0,0,0l0,0v0h0s0,0,0,0a.67.67,0,0,0,.28,0h0l0,0h0l0,0h0a.5.5,0,0,0,.08.12v0h0s0,0-.06,0l0,0a.07.07,0,0,0-.08,0,.12.12,0,0,0,0,.09h-.09s-.07,0-.08,0a0,0,0,0,0,0,0l-.08,0h0l-.13,0-.15-.06s0,0-.07-.07,0,0,0,0,0,0-.06,0a.18.18,0,0,0,0,.11.41.41,0,0,0,0,.21s0,0,0,0h0v0s0,.06,0,.07h0s-.06,0,0,.08,0,.06,0,.06h.11a0,0,0,0,0,0,0s0,0,0,0,0,.06.11,0h0s0,0,0,.06-.06.11-.17.11a.25.25,0,0,1-.12,0h0a.1.1,0,0,0-.11,0,.18.18,0,0,0-.06.08v0a.05.05,0,0,0-.08,0s0,.1.11.15a.51.51,0,0,1,.24.25.25.25,0,0,1,0,.09s0,0,0,0a.16.16,0,0,0-.13.06.1.1,0,0,1-.06,0c-.06,0-.22,0-.29-.1s-.07-.09-.1-.09,0,0-.06,0a.22.22,0,0,0,0,.14.14.14,0,0,0,.06.12l.06,0h0a.14.14,0,0,0-.07.11.11.11,0,0,0,0,.09l0,.06a.35.35,0,0,0,.18.14.72.72,0,0,1,.29.19v0a.12.12,0,0,0,0,.1.11.11,0,0,0,.1.05h0a.25.25,0,0,1,0,.08s0,0,0,0l0,.06h0a.05.05,0,0,1,0,0s-.11,0-.14-.1a.1.1,0,0,0,0-.06s0,0,0,0,0,0,0,.06a.14.14,0,0,0,0,.07l0,0s-.05,0-.05,0a.07.07,0,0,0,0,.06l0,0a.18.18,0,0,0,.08.11.41.41,0,0,1,.12.14h0s0,0,0,0a0,0,0,0,0,0,0,0,0,0,0,0,0,.05s0,0,.07.06a.16.16,0,0,0,.09,0h0s0,0,0,0,0,0,0,0h-.08s0,0,0,0h0s0,0,0,0a.14.14,0,0,0,0,.06.13.13,0,0,0,.06.07,0,0,0,0,1,0,0h0l-.07,0h0a.12.12,0,0,0,0-.08.08.08,0,0,0,0-.08s0,0,0,0,0,0-.07.06a.33.33,0,0,1-.2.09l0,0s.06,0,.06,0a0,0,0,0,0,0,0s0,0,0,0h0a.29.29,0,0,1-.16,0h0l0,0s.08,0,.06-.08,0,0,0,0a.27.27,0,0,1,.1-.08c.09,0,.09-.08.08-.1a0,0,0,0,0-.06,0h0l0,0a.1.1,0,0,0-.09,0h0l-.09,0c-.09,0-.1,0-.14-.06a.09.09,0,0,0-.06,0h0v0l0,0s.06,0,.07-.06v0a.05.05,0,0,0,0,0H70.3l-.07,0h0s0,0,0-.07h0v0h0a.1.1,0,0,1,0-.07h.07s0,0,.07-.08a.28.28,0,0,1,.07-.09.34.34,0,0,0,0-.17.06.06,0,0,0,0-.06h0s0,0,0,0l0,0a.17.17,0,0,1-.11.06h0v0a.33.33,0,0,0,0-.1s0,0,0,0a.06.06,0,0,0-.07,0,.5.5,0,0,0-.07.08h0s0,0,0-.06h0a.14.14,0,0,0,0-.07.17.17,0,0,0,0-.07s0,0,0,0l0,0s-.09.08-.12.06l0,0a0,0,0,0,0,0,0h0v0a.24.24,0,0,1,.1-.13.09.09,0,0,0,0-.08s0,0,0,0h0s0,0,0-.05a.06.06,0,0,0,0,0h0a.09.09,0,0,0-.06,0h0l0,0a.07.07,0,0,0,0,0h0l0,0a.08.08,0,0,0,0,0v0s0,0,0,0h0s-.06,0-.08,0h0s0,0,0-.06,0,0,0,0h0v0s0-.05,0-.05h0a.07.07,0,0,0,0,0,.14.14,0,0,0,0-.06s0,0,0,0h0s0,0,0,0h0l0,0a.1.1,0,0,0-.07,0l0,0h0s.05,0,.06-.07,0-.06,0-.08,0,0-.05,0h0s0,0,0,0,0,0,0,0v0h0a.07.07,0,0,1,0,0,.11.11,0,0,1-.08,0h0a.06.06,0,0,0,.08,0,.11.11,0,0,0,0-.05h0s0,0,.06,0,0,0,0-.05,0,0,0,0l0,0,0,0s0,0,0-.06,0,0-.05,0,0,0-.06,0h0v0a.11.11,0,0,0,0-.08s0,0,0,0l0,0h0s0,0,0,0h0l0,0a.07.07,0,0,0,.07,0,.1.1,0,0,0,0-.07h0l0,0a.09.09,0,0,0,.08,0,.09.09,0,0,0,.07,0s0,0,0-.07l0,0a.11.11,0,0,1,0-.06.29.29,0,0,0,0-.09s0-.06,0-.06a.1.1,0,0,0-.08,0s0,0,0,0v0a.24.24,0,0,0,0-.12s0,0,0,0h0s0,0,.06-.13a.15.15,0,0,1,0-.07.09.09,0,0,0,0-.11s-.07,0-.11,0h0s0,0,0,0,0-.07-.06-.07h0s0,0,0,0h0a.09.09,0,0,0,0-.1v0a0,0,0,0,0,0,0l0,0h0a1.05,1.05,0,0,0,0-.13c0-.1-.07-.12-.09-.12s0,0,0,0,0,0-.06,0a0,0,0,0,1,0,0s0,0,0-.1l0-.09a.21.21,0,0,0,0-.15.09.09,0,0,0-.1-.06h0v0a.08.08,0,0,0,0-.07s0,0,0-.08a1.42,1.42,0,0,0-.13-.22s0-.09-.09-.07a.19.19,0,0,0,0-.08,0,0,0,0,0-.07,0,.28.28,0,0,1,0,0,0,0,0,0,0-.07,0s-.09,0-.11,0a1.53,1.53,0,0,1-.11.16s-.08,0-.11.09a.24.24,0,0,0,0,.12s-.06,0-.09,0-.1,0-.08.08,0,.09.05.1,0,.06,0,0-.09,0-.11,0a.06.06,0,0,0,0,.07s0,0,0,0,0,0,0,0h0a.1.1,0,0,0-.1.07.07.07,0,0,0,0,.08s0,0,0,.06-.11,0-.07.1a.09.09,0,0,0,.1,0s0,0,0,0l.09.11s0,0,.06.06,0,0,0,0,0,0,0,0h0l0,0-.07,0h0a.06.06,0,0,0,0,0s0,0,0,0,0,0,0,0,0,0,0,0h0s0,0-.06,0,0,0,0,.07l0,0a.09.09,0,0,0,0,.06v0s-.06.08-.08,0l-.06,0h0v0s0,0,0,0l0,0a.51.51,0,0,0,0,.09.09.09,0,0,0,0,.07,0,0,0,0,1,0,0h0l-.07,0s0,0,0,0,0,0,0,0a0,0,0,0,0,0,0s0,0,0,.06a.17.17,0,0,0,.11.13h0a0,0,0,0,0,0,.05,0,0,0,0,0,0,0h0a.11.11,0,0,0,0,.06,0,0,0,0,0,0,0s0,0,.06,0,0,0,0,0,0,0,.06,0h0s0,0,0,.06,0,0,0,0v0s0,0,0,0h0s-.06,0-.09,0h0l0,0s0,0,0,0a0,0,0,0,0,0,0,.09.09,0,0,0,0,.09v0l-.07-.06a0,0,0,0,1,0,0,.08.08,0,0,1,0,0s0,0,0,0a.08.08,0,0,0,0,.05.2.2,0,0,0,0,.08l0,0s0,0-.07,0h0c-.06,0-.12,0-.13.06s0,.1,0,.12l0,0v0a.05.05,0,0,1,0,0h0a0,0,0,0,0,0,0s0,0,0,0a.38.38,0,0,0,0,.1l0,.06.08,0s0,0,0,0h0a.17.17,0,0,0,0,.1.1.1,0,0,0,0,0,.05.05,0,0,0,0,0,.11.11,0,0,0,0,.08v0l-.06,0s0,0,0,0v0l0,0a.35.35,0,0,0,0,.06.12.12,0,0,0,0,.08l0,0-.08,0h0c-.06,0-.13,0-.14.07a.16.16,0,0,0,0,.13l0,0v0s0,0,0,0h0s0,0,0,0a.15.15,0,0,0,0,.11s0,0,0,0l0,0a.06.06,0,0,0,0,.06.13.13,0,0,0,0,.07H66.4c-.06,0-.13,0-.12.1a.13.13,0,0,0,.07.11s0,0,0,0h0l0,0s0,0,0,0a.09.09,0,0,0,0,.09h0a.22.22,0,0,1-.07-.06s0,0,0,0a0,0,0,0,1,0,0s0,0,0,0a.14.14,0,0,0,0,.06.2.2,0,0,0,0,.08h0l0,0h-.08c-.06,0-.13,0-.14.07a.11.11,0,0,0,0,.12.05.05,0,0,1,0,0h0l0,0h0a0,0,0,0,0,0,0s0,0,0,0a.13.13,0,0,0,0,.06s0,0-.06,0,0,0,0,0a.2.2,0,0,0,0,.07h0a0,0,0,0,0,0,0,.12.12,0,0,0,0,.1s0,0,0,0v0l0,0h0s-.08,0-.1.06h0c-.14-4.17-.3-9.28-.48-15a1.82,1.82,0,0,0,2.1.12c.38-.37-.59-.64-.79-.79s0-.25.11-.43c.79-.86,3.14,1.13,3.55,1.05s.55-.66-.14-1.17-.45-.69-.39-.76h0c.61-.76,4.31.6,4.74.35s.37-1-.61-1.27a2,2,0,0,1-.52-.24,2.41,2.41,0,0,0,1.21-.2c.68-.25.8.05,1,.05s.44,0,.44-.44.16-.4.83-.4.77-.21.77-.51a.7.7,0,0,0-.73-.61c-.41,0-.5,0-.38-.48s-.41-.68-.89-.84.23-.9-.22-1.44-1.21-.06-1.21-.51.78-.82,1.33-1.13,1.37-.17,1.37-.82-.86-.83-1.11-1.29.46-.81.82-1-.17-1.09-.46-1.37.37-.54.24-1.24-1.33-.31-1.78-.39-.66-.75-.37-1.42.17-.81-.12-1a.56.56,0,0,1-.19-.36c-.12-.37.63-.52.63-1s-.33-.85-1.17-.85-1-.5-1-1.22,1.49-.5,1.49-.91c0-.2-.22-.46-.46-.71-.57-.71-1.09-1-1-1.77s.46-1,.88-1.06c1.21.07,1.68.84,2,.78s.45-.53-.1-.94c-.28-.2-.31-.39-.27-.52s.24-.2.63-.23c2.14-.18,3,.33,3.33.16s.32-.89-.48-1c-.62-.1-1.26-.32-1.19-.54a1.41,1.41,0,0,1,.12-.38,2,2,0,0,0,.29-.62c.13-.41.66-.56.7-.93.06-.54-1.57,0-1.57-.36a.68.68,0,0,1,.76-.67c.43,0-.07-.69.07-1,.15-.14.1-.13.21-.2.49-.34.55-.14.69-.6.09-.29-.11-.47.26-.47s.29.1.61,0A1.65,1.65,0,0,1,80,49c1.25-.08,1-.8,1.7-1.61.48-.57,0-1-.33-1.15h0a2.47,2.47,0,0,0-1.16-.36c-.12,0-.86.21-.86-.29S79.68,45,80,45c.5-.14.54-.94,0-1-.3,0-.47-.91-.86-.86s-.44.16-.65.16-.2-.12-.33-.23h0a2.89,2.89,0,0,0-2-.63c-.67,0,0-.37,0-1.18s1.37-.57,1.89-1.08,0-1.07-.38-1.41-1.16,0-1.71,0-.75-.68-.75-1.12-.48-.52-.88-.52-.15-.61-.82-.62-.24-.2-1.07-.24c-.35,0-.63-.28-1-.67-.88-1.1-1.64-1-1.64-1-1-.51.29-.22.73-.73.3-.34-1.22-.51-1.22-1.12s1.9-.18,2.36-.18,1.78.41,1.93-.27c.09-.44-.23-.75-.66-.94s-.76-.26-.76-.93.86-.38,1.14-.29,1.89.45,2.1-.21-.49-.6-.62-.61c-.45,0-.33-.37-.33-.59s-.27-.42-.8-.42-1-.06-1-.31.18-.44.59-.44.53-.51.53-.79-.16-.85-.63-.85-1.37.07-1.73-.33c-.11-.19,0-.45.35-.69s.93-.32,2.32.42c.9.49.81-.33.58-.7s-1.2-1.3-.41-1.11,2.17.92,2.26.52,0-.7,1-.55a.64.64,0,0,0,.29-1.24,19.16,19.16,0,0,1-2.48-.93c.12-.11.36-.14.86-.07A.64.64,0,0,0,76.55,20a15.87,15.87,0,0,1-2-.71c-.38-.18-.64-.37-1.11-.64h0c-.63-.4-1.23-1.08-1-1.6s.9-.36.8-1a1,1,0,0,0-1-.9c-.38,0,0-.46-.06-.93s-.81-.83-1.1-.9-1.64-1.09-1.63-1.69c0,0,0-.06,0-.05v0a1.2,1.2,0,0,0-1.34-1.23,1.22,1.22,0,0,1-.66,0c-.11-.12,0-.28.06-.45s.43-.43.14-1-.81-.15-1.48.14-.64-.19-.53-.46.67-.42.82-.72a2.61,2.61,0,0,0,.3-1.29C66.74,6,66,6,65.25,6s-.86-1.27-1-1.87A3,3,0,0,0,63,2.46c-.47-.23-1.38-1.94-2-2.14C59.47-.18,59,0,58.78.25a.9.9,0,0,0-.31.35c-.14.25-.23.35-.36.38H58l-.55-.1a2,2,0,0,0-.72,0l-.05,0-.09,0h0a1.21,1.21,0,0,0-.47.55c-.3.59-.89,1.77-1.35,2.79a3.38,3.38,0,0,1-1.5,1.25,1.17,1.17,0,0,0-.63.7s0,.08-.05.13v0h0a3.71,3.71,0,0,0-.13,1,.43.43,0,0,1-.11.28.13.13,0,0,1-.09,0,.82.82,0,0,0-.82.33V8l0,0h0a.3.3,0,0,0-.06.14,1.68,1.68,0,0,0,.27,1.4.79.79,0,0,1-.24.34c-.47.45-.3.89,0,.91a1.13,1.13,0,0,0,.48-.26h0s.51-.2.71.09l0,.06a.39.39,0,0,1,0,.09.76.76,0,0,0,0,.11c.07.72-2.29,1.45-3,2.35,0,0-.63.8-1.15,1.33l0,0h0l-.21.2c-.59.52-.8.79-.47,1a7.64,7.64,0,0,0,1.69,0c.15,0,.58,0-.29.66-.54.38-.4.85-.09.91a7.52,7.52,0,0,0,1.41-.64c.55-.25.35.59.39,1s-.07.69.7.77c.32,0,1.91-.06,1.93.28s-.12.41-.64.64A10.74,10.74,0,0,1,50.7,20c-.4.1-.66.48-1.4.41a3.63,3.63,0,0,1-.66-.13l-.21-.06a.58.58,0,0,0-.7.38c-.15.5.67.63.56,1a.74.74,0,0,1-1,.39c-.43-.13-.73-.32-1-.39a.65.65,0,0,0-.75.28c-.34.4-.34.4-.55.54s-.32.21-.59.41l-.52.4c-.3.23-.18.77-.24,1s0,.26-.19.53-1,.41-1.1.73h0a.53.53,0,0,0-.12.25c-.08.74.24,1.12.72,1.12s1.15.3,1,.48-.78,0-.78.53a.93.93,0,0,0,1,1c.67,0,1.3.08,1.3.68s-.58.56-.58,1.1.13,1,1,1,2-.9,2.48-.57a2.06,2.06,0,0,0,1.6.54c.51-.16,2.48-1.47,2.6-.36,0,.11-.15.21-.38.28-.62.18-.67.64-.4.8.11.07.33,0,.63-.09-.24.56-.77.72-1.48.72-1,0-2.43,1.29-3,1a3.83,3.83,0,0,0-1.75-.54,2.46,2.46,0,0,0-1.6.56c-.17.23-.48,1.2-1.3,1.2s-1.54-.44-1.54.38.4.47.51,1.09.39,1.16.93,1.28,1.34,0,1.12.88-1.44,1.69-1,2.16.62.44.78,1.06.2.67.67.67.38-.73,1.18-.73.21,1.22,1.18,1.22,2.28.29,2.67,1.28c.09.25.08.49-.29.49-.75,0-1.19-.26-1.57.18s-.62.2-1.13.57a2.6,2.6,0,0,0-.55.47,1.3,1.3,0,0,1-.62.31c-.47.15-.59.28-.59.59s.36.29.31.54-.23.5.48.5,1-.07,1,.5-1.1.26-1.55.58-2.47.26-2.47,1,.42.94,1.45.94.82.49.82.82-1.37.23-1.75.23-1,.15-1.1.61-.37.75-.78.75-.81,0-.9.43a1.72,1.72,0,0,0,.62,1.95c.51.48,1.12.15,1.56.58s.64.78,1.1,1,1.37.3,1.35.76.52,1.21,1.07,1.21.39.41.39.83-.08.21-.91.48-1.9.15-1.9.66.56.7,1.35.7.68.08.68.42-.75.4-1.29.46a6.61,6.61,0,0,0-1.55.46c-.4.19-.19,1,1.17.86.77-.1.41-.22.41.3s.35.67.88.67a.74.74,0,0,1,.72.73c0,.3-.23.72.57,1.09a9.51,9.51,0,0,0,1.55.21,2.18,2.18,0,0,0,1.45-.44,1.06,1.06,0,0,1,1.65.43c.42.72-1,.77-1.25.9s-.67.26-.93.42a1.64,1.64,0,0,0-.42.35s-.26.24-.53.51c-.46.47-.27.58-.16.76s.35.54.93.2.87-.18.95,0a.27.27,0,0,1-.11.4,3.43,3.43,0,0,0-1,1.23h0c-.06.1-.06.22,0,.4.43.67.19.76-.21,1.21s-.16,1.24-.67,1.4A2,2,0,0,0,47,76.43c0,.46.63.23,1.26,0s1.31-.26,1.31.09-1,1.06-1.82,1.06-1.37.17-1.37.81,1,.33,1.57.33,1.2-.4,1.2.07.25.66,1,.66,1.45-.29,1.74,0a1.61,1.61,0,0,1-.2,1.32h0a.53.53,0,0,0,0,.68,1.64,1.64,0,0,0,2.6.39c.26-.19.52-.4.76-.61-.24,5.35-.46,10.27-.65,14.42h0l0-.08a.07.07,0,0,0-.08,0h-.11c-.08,0-.09,0-.12-.1s0-.06-.06-.06l0,0h0l0,0,0,0s.06,0,.06-.06a0,0,0,0,0,0,0s0,0,0,0h0a.25.25,0,0,1-.14,0h0v0h0l0,0a.09.09,0,0,0,.06-.1s0,0,0,0h0s0,0-.05,0a.12.12,0,0,0-.08,0h0s0,0,0,0,.06,0,.06-.1,0-.06,0-.09h0a.22.22,0,0,0,.08-.13.16.16,0,0,0,0-.12.06.06,0,0,0,0,0s0,0,0,.07,0,0,0,.06a.3.3,0,0,1-.11,0h-.06l0,0a.16.16,0,0,0,0-.11.21.21,0,0,0,0-.15s0,0,0,0,0,0,0,.08v0h0l-.08,0h0l-.06,0a.07.07,0,0,1,0,0,.4.4,0,0,0,.22-.17s0,0,0-.06,0,0,0,0a0,0,0,0,0,0,0l-.06,0a.12.12,0,0,1-.13,0h0l.08,0a.1.1,0,0,0,.13-.07.09.09,0,0,0,0-.08h0l0,0a.14.14,0,0,0,.1,0,.11.11,0,0,0,.09-.08.09.09,0,0,0,0-.09s0,0,0,0a.24.24,0,0,1,0-.07l0-.1a.09.09,0,0,0-.08-.06.2.2,0,0,0-.1.09,0,0,0,0,1,0,0v0a.2.2,0,0,0,0-.14.07.07,0,0,0-.05,0s0,0,0,0h0a.16.16,0,0,0-.12,0h0a.11.11,0,0,1,.06-.06,0,0,0,0,0,0,0,0,0,0,0,0,0,0h0a0,0,0,0,0,0,0s0,0,0,0v0s0,0,0,0h0v0A.21.21,0,0,0,53,93c0-.06,0-.11-.08-.11s0,0,0,0l0,0-.05,0a.05.05,0,0,0,0,0h0a0,0,0,0,1,0,0,.08.08,0,0,0,0,0,.14.14,0,0,0,0-.06h-.1s0,0,0,0h-.06s0,0,0,0h0s0,0,.05,0a.08.08,0,0,0,0,0h0s0,0-.09,0h0v0h.06a.12.12,0,0,0,.12-.06,0,0,0,0,0,0,0s0,0,0,0h0s0,0-.07,0h0a.05.05,0,0,0,.07,0,.08.08,0,0,0,0,0h0s0,0,0,0a.07.07,0,0,0,.05,0,0,0,0,0,0,0,0,0,0,0,0,0,0,0,0,0,0,0,1,0,0s0,0,0,0a0,0,0,0,0,0,0,.05.05,0,0,0,0,0,0,0,0,0,0,0,0v0s0-.06,0-.07l0,0h0l0,0s0,0,0-.06c.14-.28-.09-.28-.13-.12s0,0,0,0l0,0s0,0,0,0a.28.28,0,0,1,0-.13c0-.12,0-.18,0-.21s0,0-.06,0l0,0h0a.28.28,0,0,0,.1-.09c0-.05,0-.13,0-.14s-.06,0-.09,0,0,0,0,0a0,0,0,0,0,0,0s0,0,0,0,.08-.06,0-.1-.08,0-.09-.08-.08,0-.1-.06,0,0-.09,0-.1-.06-.16,0a.74.74,0,0,0-.12.09s-.08.12-.07.15,0,.06.07.06a.2.2,0,0,0,0,.08s0,0,0,0-.08-.06-.1,0-.05.1,0,.14a.09.09,0,0,0,.06.1s0,0,0,.05a.06.06,0,0,1-.05.06h0s0,0-.06,0h0v0h0l0,0v.09h0l0,0a0,0,0,0,0,0,0,.17.17,0,0,0,0,0v0s0,0,0,0,0,0,0,0,0,0,0,0l0,0h0a.1.1,0,0,0,0,0,.05.05,0,0,0,.07,0,0,0,0,0,1,0,0h0s0,0-.06,0h0s0,0,0,0v0a.16.16,0,0,0,.12.06l.06,0h0l0,0h0s0,0,0,0h0l-.06,0h0a0,0,0,0,0,0,0s0,0,0,0l0,0h0a.06.06,0,0,0,0,0v0l0,0h-.06a0,0,0,0,0,0,0,.07.07,0,0,0,0,.06s0,0,0,0a0,0,0,0,1,0,0,0,0,0,0,1,0,0,.05.05,0,0,0,0,0v0h0s0,0,0,0a0,0,0,0,0,0,0s0,0,0,0H51s0,0,0,0v0s0,0,0,0h0s0,0,0,0,0,0-.06.06H50.9a0,0,0,0,0,0,0l0,0v0s0,0,0,0,0,0,0,.06.07.06.09.08a.16.16,0,0,1,0,0h0a.06.06,0,0,0-.05,0,0,0,0,0,1,0,0s-.08,0-.11,0l0,0s0,0,0,0,0,0,0,.06a.05.05,0,0,0,0,0h0s0,0,0,0,0,0,0,0,0,0,0,0l.05,0,0,.12h0s0,0,0,0a.18.18,0,0,0-.08,0s-.05,0-.06.06v0c0,.07,0,.13.06.18h0a0,0,0,0,1-.07,0h0s-.06,0-.1.1-.05.09-.07.09l0,0c-.07,0-.13-.06-.19,0a.16.16,0,0,0,0,.17l0,.11a.5.5,0,0,0,.07.2l0,0s0,0,0,.09a.17.17,0,0,0,.06.12l-.07,0a.28.28,0,0,0-.12,0h-.06c-.1,0-.21,0-.23.11a.18.18,0,0,0,.07.19.21.21,0,0,1,0,.06l0,0,0,.06h0l0,0s0,0-.06,0a.34.34,0,0,0,0,.17.13.13,0,0,0,.07.09l.11,0-.09.08c-.08,0-.14.07-.16.24a.28.28,0,0,1-.09.16l0-.06a.08.08,0,0,0-.08,0h0a.11.11,0,0,1-.08,0l0,0,0,0a.11.11,0,0,0,0-.07.11.11,0,0,0,0-.09h0s0,0,0,0a.09.09,0,0,0,0-.09.14.14,0,0,0,0-.11s0,0,0,0l-.07.06c0,.07-.17.11-.21.07a.05.05,0,0,1,0,0s0,0,0,0h0s0,0,0,0h-.06l0-.06a.39.39,0,0,1,.18-.19c.08,0,.09-.08.09-.1a0,0,0,0,0-.06,0h0l0-.08a.07.07,0,0,0-.07,0h0a.14.14,0,0,1-.09,0c-.07,0-.09,0-.11-.1s0-.07,0-.07l0,0h0s0,0,0,0a.12.12,0,0,0,.06-.06v0s0,0,0,0h0a.24.24,0,0,1-.14,0h0v0h0l0,0s.08,0,.06-.09,0,0,0,0h0a.05.05,0,0,1,0,0,.15.15,0,0,0-.09,0l0,0s0,0,0,0a.14.14,0,0,0,.07-.08.13.13,0,0,0,0-.09s0,0,0,0a.32.32,0,0,1,.17,0,.21.21,0,0,0,.15,0l0,0a.06.06,0,0,0,0,0,.15.15,0,0,0,0-.11h0a.13.13,0,0,0,.07-.06.43.43,0,0,0,0-.11s0-.06,0-.07,0,0-.08,0-.18,0-.2,0,0,0,0-.06a.12.12,0,0,0-.07-.09v0s0,0,0-.06a.25.25,0,0,1,.2-.08c.08,0,.1,0,.1-.06a0,0,0,0,0,0-.06v0a.13.13,0,0,0,0-.08c0-.05,0-.07-.06-.07l0,0a.2.2,0,0,1-.08,0,.19.19,0,0,1-.08-.15h0a.09.09,0,0,0,0-.07h0a0,0,0,0,1,0,0h0a.08.08,0,0,0,.07,0s0,0,0,0a.09.09,0,0,0,0-.07h0a.2.2,0,0,0,0-.09s0,0,0,0h0s0,0,0-.06a.28.28,0,0,0,0-.09s0,0,0,0,0,0-.06,0,0,0,0,0l0-.07s0,0,0,0h0a.1.1,0,0,0,.09,0,.14.14,0,0,0,0-.09s0-.06,0-.07h0s0,0,0,0,0,0,0,0h0a.14.14,0,0,0,0-.06.07.07,0,0,0-.06,0h-.05s0,0,0,0,0,0-.05,0h-.07s0,0,0-.06h0v0l0,0a.08.08,0,0,0,0,0v0a0,0,0,0,0,0,0h0a.22.22,0,0,1-.11,0h0v0h0l0,0,.07,0a.24.24,0,0,0,.13-.1l0,0a.15.15,0,0,0,0-.07s0-.06,0-.09h0l0,0a.2.2,0,0,0,0-.08.16.16,0,0,0,0-.1s0,0,0,0,0,0-.06.06a.17.17,0,0,1-.15.06s0,0,.09-.06,0-.22-.07-.18l-.06,0a.39.39,0,0,1,0-.09s0,0,0,0,.09-.07.08-.1,0-.05-.05,0h0c.13,0,.2-.12.17-.2s-.14-.07-.2-.1-.12-.1,0-.14.15-.1.09-.26-.27.07-.28.11a.3.3,0,0,1-.16.07v0s0,0,0,0l0,0h0l0,0-.06,0s0,0,0-.05,0,0,0-.06,0,0,0,0a.94.94,0,0,0,.1-.1c.07-.08,0-.35-.12-.32s-.23-.1-.27-.22-.06,0-.11,0a0,0,0,0,0,0,0h0s0,0,0-.06,0-.09-.07-.09,0,0,0,0a.46.46,0,0,1,0-.1.63.63,0,0,0,0-.28s0,0-.08,0c0-.21-.14-.31-.35-.31s-.19.19-.19.35h0c0,.12,0,.22,0,.22h0v0h-.1a.09.09,0,0,0,0,0,.14.14,0,0,0,0,.06s0,0,.06,0a0,0,0,0,1,0,0h0a.1.1,0,0,0-.06.05l0,0h0s0,0,0,0,0,.05,0,.05h0a.2.2,0,0,1-.1,0h0s0,0,0,0v0s0,0,0,0h0v0s0,0,0,.06a.13.13,0,0,1-.08.1h-.08l0,0h0v0s0,0,0,.05h0l0,0s0,0,0,0h0s0,0,0,0,0,0,0,0,0,0,0,.07a.09.09,0,0,0,.06,0,0,0,0,0,1,0,0s0,0,0,0l-.06,0,0,0s0,0,0,0h0s0,0,0,0,0,0,0,0v0H46s0,0,0,0v0s0,0,0,0h0a0,0,0,0,1,0,0s0,0,0,.06a.16.16,0,0,1-.08.1l-.06,0h0s0,0-.06,0l0,.06h0s0,0,0,0,0,0,.07.06a.15.15,0,0,1,.12.07s0,0,0,0h0s0,0,0,.07v0h0s0-.06,0-.06,0,0,0,0a.25.25,0,0,0,0,.07.11.11,0,0,1-.08,0l0,0a.11.11,0,0,0,0,.05v0h0a.05.05,0,0,0,0,0,.16.16,0,0,0,0,.1.26.26,0,0,0,.17.18h0a.09.09,0,0,0,0,.07.07.07,0,0,0,0,.07h0l0,0s0,0,0,0v0s0,0,0,0,0,0-.05,0a.19.19,0,0,0,0,.08.22.22,0,0,0,0,.12l-.06,0a.19.19,0,0,0-.12,0h-.06c-.09,0-.2,0-.22.09a.17.17,0,0,0,.06.17l0,.06v0a.33.33,0,0,1,0,.06v0l0,0s0,0-.06,0a.28.28,0,0,0,0,.15.13.13,0,0,0,.07.09l.06,0v0s0,0,0,.06a.15.15,0,0,1-.09.1h-.08a.05.05,0,0,0-.05,0,.11.11,0,0,0,0,.06h0a0,0,0,0,0,0,0s0,.06.06.06a.23.23,0,0,1,.1,0s0,.06,0,.06h0l-.12.05s-.08,0-.11.07,0,.07-.08.08l-.06,0h-.08s0,0,0,.06a.14.14,0,0,0,0,.09.09.09,0,0,0,.09,0h0l0,0a.2.2,0,0,0-.08.08l0,0a0,0,0,0,1,0,0h0s0,0,0,.07.05.06.07.06,0,0,0,0h0a.22.22,0,0,1-.13,0h-.06s0,0,0,.06a.06.06,0,0,0,0,0s0,.05,0,.07,0,0,.08,0,0,0,0,0h0a.17.17,0,0,0-.06.06.07.07,0,0,1,0,0s0,0,0,0h0a.07.07,0,0,0,0,.06s0,0,0,0h0v0c0-.07,0-.09,0-.1h-.08a.49.49,0,0,1-.19-.07h0s0,0,0,0a.1.1,0,0,0,.12-.07h0a.24.24,0,0,0,.11-.08s0,0,0,0a.09.09,0,0,0,0-.06s0-.05,0-.08h0a.11.11,0,0,0,0-.08.14.14,0,0,0,0-.09s0,0,0,0,0,0-.05.05-.14.09-.17.07,0,0,0,0h0a.26.26,0,0,0,0-.15,0,0,0,0,0,0,0,.27.27,0,0,1,.08-.07c.07,0,.08-.07.07-.1s0,0,0,0h0a.09.09,0,0,0,0-.06s0,0-.06,0h-.09a.11.11,0,0,1-.1-.08s0-.05,0-.06h0v0l0,0a.08.08,0,0,0,0-.05v0s0,0,0,0h0a.22.22,0,0,1-.11,0h0v0h0s.06,0,.05-.07,0,0,0,0h-.07a.09.09,0,0,0-.06,0h0v0a.13.13,0,0,0,.06-.07.14.14,0,0,0,0-.07s0,0,0,0l0,0,0,0h0a.08.08,0,0,1-.07,0s-.06,0-.1,0h-.08a.09.09,0,0,0,0-.07h.11a.09.09,0,0,0,.06,0,.13.13,0,0,0,0-.06v0a.44.44,0,0,1,.17-.11.21.21,0,0,0,.11-.09l0,0a.09.09,0,0,0,0-.06.1.1,0,0,0,0-.07h0l0,0a.12.12,0,0,0,0-.08.28.28,0,0,0,0-.09s0,0,0,0l-.05.06-.08.06-.09,0a.06.06,0,0,1,0,0h0a.07.07,0,0,0,.1,0,.18.18,0,0,0,0-.15h0a.07.07,0,0,0,.06,0,.08.08,0,0,0,0-.07c0-.07,0-.1-.1-.1h-.07l0,0a.07.07,0,0,0-.06,0h0s0,0-.06,0l0,0-.08-.07s0,0,0,0a0,0,0,0,0,0,0h0v0l0,0s0,0,0,0v0s0,0,0,0h-.07a.13.13,0,0,0,0-.06h0a.17.17,0,0,0,.06-.06.2.2,0,0,0,0-.11s0,0,0-.06,0,0-.08,0a.15.15,0,0,1-.13,0,.14.14,0,0,0,0-.06s0,0,0,0,0,0,0,0v0A.12.12,0,0,0,43,90h0s0,0,0-.06a.28.28,0,0,1,.19-.08c.08,0,.1,0,.1,0s0-.07,0-.07h0a.34.34,0,0,0,0-.09s0-.06-.06-.06l0,0-.07,0c-.06,0-.07-.07-.08-.15s0-.07,0-.08l0,0h0a.08.08,0,0,0,.07,0s0,0,0,0a.07.07,0,0,0,0-.06h-.05s-.1,0-.12,0h0S43,89,43,89s0-.06,0-.06h0a.08.08,0,0,1,0,0,.16.16,0,0,0-.06-.08l0,0h0s.07,0,.08,0,0-.06,0-.09,0,0,0-.06h-.07l-.06,0a.1.1,0,0,1-.07-.08.07.07,0,0,0,0,0h0a.06.06,0,0,0,0,0s0-.06,0-.06h-.05a.29.29,0,0,1-.13-.05h0s.07,0,.08,0,0-.06,0-.06h0l0,0v0h0c0-.07.05-.09.09-.09s.08-.07.12-.19l.05-.09a.08.08,0,0,0,0-.12c-.05-.07-.11,0-.18,0l0,0s0,0-.07-.07-.06-.08-.1-.08h0a.09.09,0,0,1-.07,0h0s.09-.08.06-.13v0s0-.05-.06-.05l-.07,0,0,0h0a.79.79,0,0,0,0-.17c-.05-.12-.1-.15-.14-.15h0c0-.08,0-.16-.07-.13h0l0,0a.21.21,0,0,0,0-.19c0-.07-.13-.08-.15-.08h0v0a.25.25,0,0,0,0-.09l0,0h0s0,0,0,0,0-.07-.06-.07h0s0,0-.06,0h0s0-.07-.07-.07a.05.05,0,0,0,0,0v0l.07,0c.1,0,.11-.15.06-.26s-.21,0-.23-.06.14-.12.11-.17,0-.11-.12-.08-.12.06-.16,0-.11-.15-.15-.13-.18.08-.14.15-.06,0-.13.07-.06.11,0,.18h0s0,0,0,.06l-.12,0a.13.13,0,0,0-.06.18c0,.06.1.1.14.19a.16.16,0,0,1,0,.22h0a.09.09,0,0,0-.06,0s-.09-.09-.16,0a.12.12,0,0,0-.05.16l0,.07h0s-.09.09-.08.16h0s0,0,0,0,0,0-.07.08a.17.17,0,0,0,0,.15h0s0,0,0,0-.13-.08-.15,0,0,.15.08.17,0,.07,0,.1-.11,0-.13.08.05.11.17.15h.06l-.17,0a.1.1,0,0,0-.07.12s.05,0,.09.06a.05.05,0,0,0,0,.05h0s0,0,0,0,0,0-.06.07v0h0c-.07,0-.13,0-.18,0l0,0h0v0s0-.06,0-.06,0,0-.05,0a.19.19,0,0,0,0,.11.24.24,0,0,0,.06.09,0,0,0,0,1,0,0s0,0,0,0h0a.3.3,0,0,1-.11,0s0,0,0,0,0,0-.05,0,0,0,0,0a.1.1,0,0,0,0,.09.26.26,0,0,0,.2.16h0a.06.06,0,0,0,0,.06.1.1,0,0,0,0,.06l0,0h0c-.06,0,0,.12,0,.16s.07,0,.13,0a0,0,0,0,1,0,0s0,0-.06.07a.2.2,0,0,0-.16.13.1.1,0,0,0,.06.13c.05,0,.09.08,0,.11h0s0,0,0,0h0l0,0s-.07.07,0,.11h0s0,0,0,0h0l-.05,0s0,0-.06,0a.24.24,0,0,0,0,.08s0,0,.06.06h0l.08,0h0v0c-.09,0-.17,0-.22,0a.15.15,0,0,0-.1.17c0,.08.12.13,0,.15s-.17.08-.15.15.11.13,0,.15,0,.15,0,.2.13.05.21,0,.08,0,.1.11.06.06.1,0v.08l0,0s0,0,0,0,0,0,0,0-.29-.18-.34,0,0,.27.06.33,0,0,0,0,0,.07,0,.12-.17,0-.21,0,0,0,0,0a.36.36,0,0,0,0,.1.22.22,0,0,1,0,.08.08.08,0,0,0,0,0,.1.1,0,0,0,0,.09.14.14,0,0,0,.12.06l.07,0h0a.38.38,0,0,0,.16.14h0l-.08,0h0s0,0,0,.05a.13.13,0,0,0,0,.06l0,0-.06,0s0-.06,0-.06,0,0,0,0,0,0,0,.06a.18.18,0,0,0-.12.12.05.05,0,0,1,0,0s0-.05,0,0,0,0,0,0a.08.08,0,0,0,0,.08.23.23,0,0,0,.2.16h0l0,0s0,0,0,0a.08.08,0,0,0,0,.06l0,0h0a.1.1,0,0,0,0,.07h-.09l0,0s0,0-.05,0a.08.08,0,0,0-.07,0,.15.15,0,0,0,0,.1s0,.06.1.08,0,0,0,0l0,0a.22.22,0,0,0-.11,0l0,0h-.06s0,0,0,0,.05.09.09.1h0a.41.41,0,0,1-.19,0h-.06s0,0-.06,0a.06.06,0,0,0,0,0s0,0,.08.06l0,0s0,0,0,0h0l0,0s0,0-.06.08a.16.16,0,0,1-.15.12h-.11a.11.11,0,0,0,0,0h-.07L38,93.09l0,0L38,93A.06.06,0,0,0,38,93s0,0,0,0h0l-.06,0h0s0,0,0,0H38a.12.12,0,0,0,.1-.07v0l.07,0a.12.12,0,0,0,.1,0,.11.11,0,0,0,0-.08l0,0s0,0,0-.06a.29.29,0,0,0,0-.09.11.11,0,0,0-.09-.07s-.07,0-.11.06,0,0,0,0a.1.1,0,0,1,0,0,.23.23,0,0,0,0-.12s0,0-.06,0a.05.05,0,0,0,0,0h0a.21.21,0,0,0-.14-.07h0c-.08,0-.12-.05-.13-.11a.15.15,0,0,0-.12-.14h0s0-.06.06-.08v0s0,0,0,0,0,0,0-.07,0,0,0,0a0,0,0,0,0,0,0s0,0-.1,0,0,0,0,0a.17.17,0,0,0,.06-.14,0,0,0,0,0-.05,0l-.11,0a.07.07,0,0,0,0-.06s0,0-.06,0h0a.06.06,0,0,0,0,0s0,0,0,0h-.08v0h.23a.12.12,0,0,0,.1,0,.08.08,0,0,0,0,0s0-.06-.06,0h0l.07,0c.08-.07.07-.11.07-.12h0s0,0,.06,0h0s.05,0,.06,0a.19.19,0,0,0,0-.07s0,0-.05,0h0l0,0h0a.28.28,0,0,1-.13,0,0,0,0,0,0,0-.06.07.07,0,0,0,0,0l-.06,0h0a.53.53,0,0,1-.16,0h0s0,0,0,0a.32.32,0,0,0,0-.09c0-.06,0-.07-.09-.09h0v0l0,0a.2.2,0,0,0-.06-.11h0c.06,0,.13,0,.23-.05a.17.17,0,0,1,.12,0,.11.11,0,0,0,.08,0c.07,0,.09,0,.09,0a.09.09,0,0,0,0,0,.1.1,0,0,0,.09,0,.07.07,0,0,0,0,0,.07.07,0,0,0,0-.06h0l0,0a.08.08,0,0,0,.05,0,.05.05,0,0,0,0,0h0a.23.23,0,0,0,.17-.13s0-.06,0-.07l0,0s0,0,0,0,0,0,0,0a.19.19,0,0,1-.1,0h0v0s0,0,0-.07a.11.11,0,0,0,0-.1l0,0s0,0,0,0v0s0,0,0,0a.2.2,0,0,0-.08,0s-.09,0-.1-.07l0,0a.07.07,0,0,0-.06-.06s0,0,0,0h0c.16-.09.25-.16.21-.24s-.32,0-.36,0v0a.32.32,0,0,0,.13-.15.06.06,0,0,0,0,0,.05.05,0,0,0,0,0s0,0,0,0l.09-.06c.25-.13.15-.24.11-.32s-.39,0-.48-.15.2-.42.06-.68-.22-.24-.27-.22l-.09.06h0l0,0s0-.09,0-.07,0,0,0,0a.1.1,0,0,0,0-.11l0,0s0-.06-.06-.06h0l0,0s0,0,0,0-.08.1-.08.11,0,.15-.06.16a.21.21,0,0,0-.27,0c-.07,0-.16.13-.05.35s-.1.24-.1.24a.22.22,0,0,0,0,.21,0,0,0,0,0,0,0v.06h0s-.11,0-.14.07a.22.22,0,0,0,0,.15l.06.1c0,.07.06.08,0,.1s0,0,0,0l0,0-.08,0a.1.1,0,0,0-.08-.05s-.07,0-.12.13a.45.45,0,0,0,0,.13,0,0,0,0,1,0,0h0a.08.08,0,0,0-.07,0,0,0,0,0,0,0,0h0a.09.09,0,0,0,.05.11h0a0,0,0,0,1-.06,0h0s-.07,0-.1.06,0,.06-.06.06h0c-.06,0-.11-.05-.15,0a.08.08,0,0,0,0,.11l0,.07c0,.1,0,.16.1.16s0,0,.09.08a.1.1,0,0,0,.1,0h0a.44.44,0,0,0,0,.21v.06a.1.1,0,0,0-.09.06s0,0,0,0h0l0,0s0,0-.06.06l0,0h0s0,0,0,0a.11.11,0,0,0,0,.08v0h0a.16.16,0,0,0-.14.07.17.17,0,0,0,0,.16.35.35,0,0,0,.06.09c.06.09.06.09,0,.12h0a.1.1,0,0,1-.08,0,.14.14,0,0,0-.08,0s-.07,0-.12.13a.63.63,0,0,0,0,.14h0l-.07,0s0,0-.05,0v0s0,.08.05.11h0s0,0-.05,0h0s-.06,0-.09.07,0,0-.07,0h0c-.06,0-.11,0-.15,0a.08.08,0,0,0,0,.11l.05.07c0,.11,0,.17.1.17s0,0,.06,0,0,0,0,0l-.06,0H34s0,0,0,.07a.1.1,0,0,0,0,.09s0,0,.08,0h0a.07.07,0,0,1,0,0,.19.19,0,0,0-.06.07l0,.05h0s0,0,0,.06h0s0,0,0,.06,0,0,0,0h0l-.07,0h-.05s0,0,0,.06a.06.06,0,0,0,0,0h0l0,0c-1.12-6.76-3-17.8-3.52-20.29.31-.3.6-.56.75-.69.64-.55,1-1,1.37-.93a4.34,4.34,0,0,1,1.3.45c.76.37,1.9,1,2.88,1.43a9.92,9.92,0,0,0,1,.35l1.51.49c.15,0,.75.13.9-.2,0-.12-.14-.23-.33-.35h0l-.16-.1-.49-.29c-.41-.25-1-.58-1.53-.89L36.79,71a3.16,3.16,0,0,1,1.44-.76,9.67,9.67,0,0,1,1.52.46c1.29.34,2,.56,2.39.64a5,5,0,0,0,.53.13c.1,0,.52.14.56,0s-.32-.32-.46-.39-2.85-1.29-3.68-1.69a2.87,2.87,0,0,0-.9-.39.93.93,0,0,0-.69.23c-.77.54-1.68,1.09-1.71,1.11l-.07,0-1.36-.83-.79-.5c-.16-.09-.78-.58-1.23-.56s-.92.57-1.3.86c-.22.17-.72.59-1.24,1l-1.32-4.86s-3.77-16.23-3.85-16.85c-.72-5.63-4.89-5.21-6.55-6.08-1-.55-8.36-4.48-13.81-7.46-.37.92-.71,1.84-1,2.78,3.72,1.69,8.06,3.73,9.47,4.83a12.59,12.59,0,0,0,6,2.39c1.82.25,2.95,1.19,3.11,2.46S24,57.05,24.86,62.28s2.48,8.86,3.92,15.58S30,86.43,30.6,88.7s1.1,8.54,1.1,8.54c-.56-2-1.8-4.95-2.43-5.37s-1.95-5.37-2.52-7.58-.78-2.91-1.16-3.11a1.94,1.94,0,0,1-1-1.34s-.36-2.51-1-5.7c-.34-1.64-1.24-4.68-2.14-7.54h0L20.1,61.45l-.4-1.12c-.11-.31-.2-.78-.39-.79s-.08.46,0,.62.11.55.23,1.18c.34,2.06,1,5.78,1.56,9.21C21.83,74.84,23,83.8,23,83.8l-3-11.15c.16.83-.21-1.12-1.32-4.77-.09-.3-.8-2.1-.8-2.1l-2.25-6.53h0l-.55-1.91s-.33-1-.39-1.13-.23-.86-.39-.78-.09.46,0,.62.37,1.91.58,3.08c1,6.31,2.74,15.66,2.08,15.72s-.7,1.25-.7,1.25.05.64.62,4.21,1.14,5.26.55,6.45-.22,4.3-.22,4.3c-2.29-5.37-3.4-17.17-4.3-17.29s-1.14-2-1.14-2l-1.27-5.12S6.45,52.26,5,50.29c-.87-1.17.36,2.14,0,3.48s.56,3.1,1,7.31c.06.46-3.08-4.8-3.25-5.15C1.9,54.14,1.07,52.36.36,50.8A61.43,61.43,0,0,0,0,57.34a59.82,59.82,0,0,0,56.35,59.71.84.84,0,0,1,.07-.26,7,7,0,0,0,.25-.72c.15-.57.29-1.17.29-1.17l.36-1.44h0c0-.29.08-.58.13-.87s.06-.81.1-1.22c.05-.77,0-1,0-1.75,0-.16.07-.92.09-1.09ZM45.67,90.9ZM37,90.55ZM61.61,31.71a.51.51,0,0,0,.37,0,.37.37,0,0,0,.11-.26.19.19,0,0,1,0-.1s.15-.07.11.11l.11,4.88h0a1.62,1.62,0,0,1-.31,0,.57.57,0,0,1-.4-.25.35.35,0,0,0-.31-.19l-.05-4.16Zm1.16,29.92a3.11,3.11,0,0,1-.25-.2.92.92,0,0,0-.36-.22.49.49,0,0,1-.13-.08.4.4,0,0,1,.12,0c.18,0,.34-.07.4-.19a.3.3,0,0,0,0-.3.28.28,0,0,0-.21-.2.45.45,0,0,0-.2,0,.43.43,0,0,1-.2,0l-.31,0a.51.51,0,0,1-.39-.24.38.38,0,0,0-.11-.11V50.85c.2,0,.29-.11.39-.31l0,0,.08,0,.15.05a.56.56,0,0,0,.36-.06,2.3,2.3,0,0,0,.6-.41l.18,10.51,0,1.15S62.87,61.71,62.77,61.63Zm3.88,35.12-.05,0,.05,0Z"/><path class="cls-1" d="M88.48,86.11v0h0Z"/><path class="cls-1" d="M88.5,86.12h0Z"/><path class="cls-1" d="M66.6,96.72l.05,0h0Z"/><path class="cls-1" d="M88.39,86h0Z"/><polygon class="cls-1" points="45.67 90.9 45.67 90.9 45.67 90.9 45.67 90.89 45.67 90.9 45.67 90.9"/><polygon class="cls-1" points="36.95 90.55 36.95 90.55 36.95 90.55 36.95 90.55"/><path class="cls-1" d="M134.12,47.33l4.3-5.55c2.31,2.25,5.42,4.89,9.32,4.89S154,44,154,40.72v-.06c0-2.51-1.19-4.49-7.08-8-7.6-4.42-11-8.06-11-14.07v-.13C136,11.19,141.39,6,149.32,6a16.76,16.76,0,0,1,12,5.09l-4.37,5.48c-2-2-4.76-4-7.93-4-3.43,0-5.81,2.24-5.81,5.22v.06c0,2.78,1.25,4.63,8,8.72,7.27,4.37,10.05,8,10.05,13.75v.13c0,7.47-5.82,12.82-13.42,12.82A18.85,18.85,0,0,1,134.12,47.33Z"/><path class="cls-1" d="M170.05,6.5h7.07V52.75h-7.07Z"/><path class="cls-1" d="M187.35,6.5h23.33v6.61H194.42V26.19h14.47v6.54H194.42V46.14h16.52v6.61H187.35Z"/><path class="cls-1" d="M219.68,6.5H232c4.76,0,8.73,1.39,11.37,4,2.38,2.38,3.77,6,3.77,10.44v.33c0,6.8-3.37,11-7.93,13l9,18.43h-8l-8-16.65a3.82,3.82,0,0,1-.86.07h-4.49V52.75h-7.14ZM231,29.76c6.22,0,9-3.37,9-8.39,0-5.55-3.17-8.33-8.66-8.33h-4.49V29.76Z"/><path class="cls-1" d="M256,6.5h12.29c4.76,0,8.73,1.39,11.37,4,2.38,2.38,3.77,6,3.77,10.44v.33c0,6.8-3.37,11-7.93,13l9,18.43h-8l-8-16.65a3.82,3.82,0,0,1-.86.07h-4.49V52.75H256Zm11.3,23.26c6.22,0,9-3.37,9-8.39,0-5.55-3.17-8.33-8.66-8.33h-4.49V29.76Z"/><path class="cls-1" d="M300.89,6.3h7.2l13.29,46.45H314l-2.91-10.64H297.58l-2.84,10.64h-7.07Zm8.52,29.47-5-18.57L299.3,35.77Z"/><path class="cls-1" d="M134.63,85.25v-.92c0-15,7.4-23.19,17.05-23.19a14.58,14.58,0,0,1,10.51,4.23l-4,5.68c-1.85-1.79-4-3.11-6.54-3.11-5.42,0-9.72,6-9.72,16.65v.33c0,11.24,4.5,16.72,9.59,16.72,2.77,0,4.89-1.32,7-3.44l3.83,5.49a15.62,15.62,0,0,1-11.1,4.76C141.31,108.45,134.63,100.32,134.63,85.25Z"/><path class="cls-1" d="M170,61.67h7.14v39.64H191.9v6.61H170Z"/><path class="cls-1" d="M196.09,92.46V61.67h7.14V92.79c0,6.14,2.78,9.18,7.14,9.18s7.14-3,7.14-9.12V61.67h7.07V92.39c0,10.77-5.75,16.19-14.28,16.19S196.09,103.16,196.09,92.46Z"/><path class="cls-1" d="M233.19,61.67H245c4.82,0,8.92,1.25,11.5,3.89a10.35,10.35,0,0,1,3.1,7.8v.26c0,5.95-3.43,8.92-7,10.51,4.76,1.65,8.33,4.69,8.33,10.84v.33c0,8.12-6.35,12.62-15.8,12.62h-11.9Zm19.3,13c0-4.17-2.77-6.48-7.4-6.48H240.2V81.49h4.49c4.83,0,7.8-2.45,7.8-6.81Zm-7.07,13H240.2v13.81h5.35c5,0,8.26-2.44,8.26-6.8v-.07C253.81,90.28,250.71,87.63,245.42,87.63Z"/></svg>