<svg id="Layer_1" data-name="Layer 1" xmlns="http://www.w3.org/2000/svg" viewBox="0 0 425 56"><defs><style>.cls-1{fill-rule:evenodd;}</style></defs><g id="project-logo-smithsonian"><g id="Group-29"><path id="Fill-1" class="cls-1" d="M145,51V49.16c4.15-.42,4.92-.71,4.92-5.73V31.6c0-5-1.76-8.21-6.18-8.21-2.53,0-5.2,1.42-7.87,3.68a15.85,15.85,0,0,1,.21,3V43.85c0,4.46.64,4.89,4.5,5.31V51h-15V49.16c4.36-.42,5-.78,5-5.45V31.53c0-5.24-1.83-8.14-6.11-8.14-2.81,0-5.55,1.91-7.65,3.68V43.71c0,4.6.56,5,4,5.45V51H106V49.16c4.64-.42,5.27-.85,5.27-5.45V29.05c0-4.53-.21-4.88-4.29-5.52V21.9a42.28,42.28,0,0,0,9.77-2.9v5.74c1.47-1,3-2.27,5.12-3.62a10.41,10.41,0,0,1,5.76-1.91c3.37,0,6.39,2.13,7.79,5.81a68.43,68.43,0,0,1,5.83-4,9.68,9.68,0,0,1,5.27-1.84c5.48,0,8.92,3.9,8.92,10.83V43.71c0,4.74.56,5,4.56,5.45V51Z"/><path id="Fill-3" class="cls-1" d="M168,9.53A3.52,3.52,0,0,1,171.53,6,3.42,3.42,0,0,1,175,9.53,3.51,3.51,0,0,1,171.47,13,3.59,3.59,0,0,1,168,9.53"/><path id="Fill-5" class="cls-1" d="M345,9.53A3.52,3.52,0,0,1,348.53,6,3.42,3.42,0,0,1,352,9.53,3.51,3.51,0,0,1,348.47,13,3.59,3.59,0,0,1,345,9.53"/><path id="Fill-7" class="cls-1" d="M383,52a5.73,5.73,0,0,1-3.34-1.36,7.58,7.58,0,0,1-1.71-3.22c-2.84,1.93-6.25,4.58-8.38,4.58A8.61,8.61,0,0,1,361,43.27c0-3.51,1.85-5.73,5.76-7.09,4.26-1.43,9.45-3.36,11-4.65V30.24c0-5.15-2.41-8.09-6-8.09a4,4,0,0,0-3.2,1.43,10.5,10.5,0,0,0-2.13,4.73A2,2,0,0,1,364.41,30a3.47,3.47,0,0,1-3.12-3.08c0-1.07.92-1.86,2.27-2.86,2-1.43,6.61-4.22,10.66-5a9.24,9.24,0,0,1,5.83,1.93c2.48,2.08,3.19,5,3.19,8.74V43c0,3.22,1.28,4.3,2.49,4.3a5.38,5.38,0,0,0,2.56-.79l.71,1.86Zm-5.19-18c-1.49.79-4.9,2.29-6.39,3-2.78,1.29-4.34,2.65-4.34,5.22a5.22,5.22,0,0,0,5,5.51,10.11,10.11,0,0,0,5.68-2.57Z"/><path id="Fill-9" class="cls-1" d="M47.75,34.63A6.83,6.83,0,0,0,41.87,31v0L56,28,41.87,25.06h0a11.49,11.49,0,0,1,7-2.62c3.11,0,5.8-3.85,4.09-6.77,0,0-.52,4.59-6.32,3.06a6.88,6.88,0,0,0-6.76,1.56h0L47.8,8.2,35.72,16.11h0A11.41,11.41,0,0,1,38.83,9.3c2.16-2.23,1.38-6.83-1.9-7.68,0,0,2.88,3.61-2.3,6.63A6.85,6.85,0,0,0,31,14.13h0L28,0,25.06,14.13h0a11.39,11.39,0,0,1-2.62-7C22.38,4,18.58,1.32,15.66,3c0,0,4.59.51,3.06,6.31a6.88,6.88,0,0,0,1.56,6.77h0L8.2,8.2,14.65,18l1.46,2.24h0a11.48,11.48,0,0,1-6.82-3.11C7.06,15,2.47,15.79,1.62,19.08c0,0,3.61-2.89,6.62,2.29a6.87,6.87,0,0,0,5.89,3.68h0L0,28l14.13,2.94h0a11.42,11.42,0,0,1-7,2.62c-3.1,0-5.8,3.85-4.08,6.78,0,0,.51-4.6,6.31-3.07a6.89,6.89,0,0,0,6.77-1.56h0L8.2,47.8l12.08-7.91a11.48,11.48,0,0,1-3.11,6.82c-2.17,2.23-1.38,6.82,1.9,7.68,0,0-2.89-3.61,2.3-6.63A6.86,6.86,0,0,0,25,41.87h0L28,56l2.94-14.13h0a11.53,11.53,0,0,1,2.62,7c0,3.11,3.85,5.8,6.77,4.08,0,0-4.59-.51-3.06-6.31a6.85,6.85,0,0,0-1.56-6.76h0L47.8,47.8l-4.18-6.38-3.73-5.7a11.48,11.48,0,0,1,6.81,3.11c2.23,2.17,6.83,1.38,7.68-1.9,0,0-3.61,2.89-6.63-2.3"/><path id="Fill-11" class="cls-1" d="M97.9,15.79c-1.27-4.52-3.11-9.39-9.26-9.39-5.45,0-7.85,3.95-7.85,7.76,0,5.16,3.39,7.56,9,10.45S102,30.75,102,38.66C102,46.07,95.71,52,86.3,52a24.45,24.45,0,0,1-6.93-1.06,23.45,23.45,0,0,1-3.46-1.48C75.34,48,74.42,41.91,74,38.52l2-.5c1.13,4.31,4.31,11.44,11.6,11.44,5.3,0,8.48-3.32,8.48-8.47s-3.89-7.7-9.19-10.52c-4.53-2.4-11.67-5.93-11.67-13.9C75.27,9.79,80.72,4,89.84,4a29.64,29.64,0,0,1,8.91,1.62c.28,2.54.63,5.3,1.2,9.74Z"/><path id="Fill-13" class="cls-1" d="M165,51V49.16c4.29-.43,4.77-.86,4.77-5.68V28.86c0-4.39-.2-4.68-4.29-5.39v-1.7A41.76,41.76,0,0,0,175.16,19V43.48c0,4.82.48,5.25,4.84,5.68V51Z"/><path id="Fill-15" class="cls-1" d="M196.16,51.09a7.31,7.31,0,0,1-3,.91c-4.48,0-7-2.79-7-8.3V23.41h-4.91l-.29-.7,1.92-2h3.28V15.6l4.62-4.6,1,.14v9.55h8a2,2,0,0,1-.43,2.72h-7.61V41.33C191.82,47,194.17,48,196,48a10.31,10.31,0,0,0,4.41-1.18l.64,1.81Z"/><path id="Fill-17" class="cls-1" d="M223.08,51V49.17c4.1-.42,4.67-.84,4.67-5.4V32.11c0-5.76-2.19-8.64-6.93-8.64a10,10,0,0,0-7.35,3.58V43.77c0,4.49.35,5,4.52,5.4V51H203V49.17c4.24-.35,4.88-.77,4.88-5.4V10.27c0-4.42-.14-4.77-4.81-5.2V3.46A78.38,78.38,0,0,0,213.47,1V24.6c2.47-2.53,6.29-5.13,10.1-5.13,5.73,0,9.76,3.58,9.76,12V43.77c0,4.63.49,5,4.67,5.4V51Z"/><path id="Fill-19" class="cls-1" d="M260,28.31c-1.35-4.23-3.83-7.09-7.31-7.09A4.66,4.66,0,0,0,248,26.16c0,3.22,2.84,4.87,6,6.23,5.32,2.22,8.94,4.79,8.94,9.73,0,6.51-6,9.88-11.71,9.88a14.19,14.19,0,0,1-8.16-2.43c-.49-1-1.13-5.87-1.13-8.45l1.84-.36c1.28,4.73,4.47,8.88,8.73,8.88a5,5,0,0,0,5-5c0-3.15-2.06-4.87-5.61-6.52-4.25-2-8.87-4.36-8.87-9.88,0-5,4.26-9.23,10.79-9.23a16.21,16.21,0,0,1,6.31,1.22,54.71,54.71,0,0,1,1.57,7.66Z"/><path id="Fill-21" class="cls-1" d="M299,35c0,11.53-8.39,17-15.43,17C273.83,52,268,44.13,268,36.18,268,24.37,277.1,19,283.57,19,292.39,19,299,26.09,299,35m-24.39-1.07c0,9,3.91,15.75,9.74,15.75,4.41,0,8-3.3,8-13.1,0-8.38-3.35-15.18-9.53-15.18-4.41,0-8.25,4.44-8.25,12.53"/><path id="Fill-23" class="cls-1" d="M323.26,51V49.16c4.18-.42,4.68-1,4.68-5.88V31.46c0-4.88-1.7-8.07-6.45-8.07-2.83,0-5.6,1.77-7.72,3.61V43.64c0,4.81.43,5.1,4.6,5.52V51H303V49.16c4.82-.5,5.17-.85,5.17-5.52V29c0-4.53-.42-4.74-4.25-5.45V21.9a42.15,42.15,0,0,0,9.85-2.9v5.66c1.42-1.06,3-2.12,4.75-3.32a10.8,10.8,0,0,1,5.88-2.13c5.59,0,9.14,3.9,9.14,10.76V43.64c0,4.81.35,5.1,4.46,5.52V51Z"/><path id="Fill-25" class="cls-1" d="M342,51V49.16c4.3-.43,4.77-.86,4.77-5.68V28.86c0-4.39-.2-4.68-4.29-5.39v-1.7A41.76,41.76,0,0,0,352.16,19V43.48c0,4.82.48,5.25,4.84,5.68V51Z"/><path id="Fill-27" class="cls-1" d="M410.26,51V49.16c4.18-.42,4.68-1,4.68-5.88V31.46c0-4.88-1.7-8.07-6.45-8.07-2.83,0-5.6,1.77-7.72,3.61V43.64c0,4.81.42,5.1,4.6,5.52V51H390V49.16c4.82-.5,5.17-.85,5.17-5.52V29c0-4.53-.42-4.74-4.25-5.45V21.9a42.15,42.15,0,0,0,9.85-2.9v5.66c1.42-1.06,3-2.12,4.75-3.32a10.8,10.8,0,0,1,5.88-2.13c5.59,0,9.14,3.9,9.14,10.76V43.64c0,4.81.35,5.1,4.46,5.52V51Z"/></g></g></svg>