<svg id="Layer_1" data-name="Layer 1" xmlns="http://www.w3.org/2000/svg" viewBox="0 0 216.68 112.98"><g id="Layer_2" data-name="Layer 2"><g id="Layer_1-2" data-name="Layer 1-2"><g id="ID"><path d="M6.13,0,18.86,27.81H19V0h7.33V48.82H20.68L7.48,19.94H7.34V48.82H0V0Z"/><path d="M56.76,0V7.74H43.22V20.13H53.66V27H43.22V41.21H57.43v7.61H34.88V0Z"/><path d="M87.13,0V7.74H73.6V20.13H84V27H73.6V41.21H87.73v7.61H65.24V0Z"/><path d="M108.94,0c8.69,0,13.68,5.73,13.68,15.36v18.1c0,9.57-5.06,15.36-13.68,15.36H95.54V0Zm0,7.6h-5V41.41h5c3.64,0,5.32-2,5.32-8.21V15.75C114.26,9.57,112.58,7.6,108.94,7.6Z"/><path d="M153.79,18.79H147V40.94c0,3.16,1.37,4.51,3.64,4.51a5.78,5.78,0,0,0,2.73-.68l.62,3.1A8.34,8.34,0,0,1,149,49.35c-4.65,0-6.83-3-6.83-8.48V19l-3.71-.82V14.88l3.91-.26,1.2-9.44H147v9.57h6.83Z"/><path d="M177.29,38.52c0,6.39-3.64,10.83-10.44,10.83S156.54,45,156.54,38.52V25.19c0-6.4,3.57-10.94,10.31-10.94s10.44,4.51,10.44,10.94Zm-15.93-.14c0,4.52,1.82,7,5.47,7s5.64-2.48,5.64-7V25.31c0-4.5-1.81-7.07-5.64-7.07s-5.47,2.57-5.47,7.07Z"/><path d="M9,63.49v48.82H.6V63.49Z"/><path d="M54,63.49v48.82H46.49V83.59h-.13l-8.45,21H34.19l-8.35-21h-.13v28.71H18.12V63.49h7.74L36,92.21h.14L46.26,63.49Z"/><path d="M88.08,79.11c0,9.9-4.26,15.49-11.79,15.49H70.9v17.71H62.55V63.49H75.88C83.7,63.49,88.08,69,88.08,79.11ZM70.9,87.72h4.72c2.88,0,4.1-2.28,4.1-8.55S78.5,71,75.62,71H70.9Z"/><path d="M116.75,63.49v7.74H103.23V83.62h10.43v6.84H103.23v14.23h14.14v7.62H94.87V63.49Z"/><path d="M131.9,112.31h-8.34L134.5,63.49h9.76l10.94,48.82h-8.61l-2-10.94H133.93Zm3.24-17.57h8.21L139.25,72h-.14Z"/><path d="M184,74.13l-6.25,2c-.76-4-2.3-5.79-4.93-5.79-3.36,0-4.91,2.48-4.91,7.48V98.84c0,4.31,1.48,6.93,4.84,6.93,2.74,0,4.11-1.61,4.93-6.26l6.45,1.95C183,109.54,178.9,113,172.1,113c-7.8,0-12.59-5.47-12.59-14.07V77.77c0-9.37,4.92-14.95,12.73-14.95C178.5,62.82,183,67.39,184,74.13Z"/><path d="M198.77,63.49V83.28h9.57V63.49h8.34v48.82h-8.34V91h-9.57v21.28h-8.36V63.49Z"/></g></g></g></svg>