<?xml version="1.0" encoding="utf-8"?>
<!-- Generator: Adobe Illustrator 16.0.0, SVG Export Plug-In . SVG Version: 6.00 Build 0)  -->
<!DOCTYPE svg PUBLIC "-//W3C//DTD SVG 1.1//EN" "http://www.w3.org/Graphics/SVG/1.1/DTD/svg11.dtd">
<svg version="1.1" id="Layer_1" xmlns="http://www.w3.org/2000/svg" xmlns:xlink="http://www.w3.org/1999/xlink" x="0px" y="0px"
	 width="219.5px" height="32.625px" viewBox="0 0 219.5 32.625" enable-background="new 0 0 219.5 32.625" xml:space="preserve">
<g>
	<g>
		<path fill="#FFFFFF" d="M57.154,30.164l-1.015-2.928h-4.626l-0.937,2.791h-3.259l4.84-13.525h3.669l4.684,13.115L57.154,30.164z
			 M53.817,19.938l-1.522,4.684h3.044L53.817,19.938z"/>
		<path fill="#FFFFFF" d="M67.517,30.262c-4.079,0-6.538-2.732-6.538-6.949c0-4.176,2.615-6.986,6.44-6.986
			c1.522,0,2.752,0.332,3.728,0.878l-0.468,3.006c-0.82-0.625-1.835-1.094-3.006-1.094c-2.029,0-3.356,1.543-3.356,4.176
			c0,2.693,1.503,4.178,3.532,4.178c1.093,0,2.049-0.371,3.063-0.938l0.43,2.732C70.249,29.871,69,30.262,67.517,30.262z"/>
		<path fill="#FFFFFF" d="M78.758,30.262c-4.079,0-6.538-2.732-6.538-6.949c0-4.176,2.615-6.986,6.44-6.986
			c1.522,0,2.752,0.332,3.728,0.878l-0.468,3.006c-0.82-0.625-1.835-1.094-3.006-1.094c-2.029,0-3.356,1.543-3.356,4.176
			c0,2.693,1.503,4.178,3.532,4.178c1.093,0,2.049-0.371,3.063-0.938l0.43,2.732C81.49,29.871,80.241,30.262,78.758,30.262z"/>
		<path fill="#FFFFFF" d="M84.517,30.027V16.561h8.392v2.673h-5.113v2.459h3.903l0.43,2.752h-4.333v2.908h5.289v2.674H84.517z"/>
		<path fill="#FFFFFF" d="M99.116,30.184c-1.815,0-3.338-0.391-4.704-1.016l0.488-2.85c1.386,0.742,2.928,1.25,4.274,1.25
			c0.956,0,1.619-0.41,1.619-1.211c0-0.76-0.39-1.111-2.283-1.834c-2.693-1.035-3.864-1.912-3.864-4.137
			c0-2.596,2.03-3.982,4.606-3.982c1.756,0,2.888,0.332,4.059,0.898l-0.507,2.811c-1.21-0.703-2.479-1.094-3.513-1.094
			c-1.016,0-1.503,0.43-1.503,1.055c0,0.682,0.37,1.014,2.049,1.658c2.928,1.074,4.099,2.088,4.099,4.234
			C103.937,28.895,101.79,30.184,99.116,30.184z"/>
		<path fill="#FFFFFF" d="M109.733,30.184c-1.815,0-3.338-0.391-4.704-1.016l0.488-2.85c1.386,0.742,2.928,1.25,4.274,1.25
			c0.956,0,1.619-0.41,1.619-1.211c0-0.76-0.39-1.111-2.283-1.834c-2.693-1.035-3.864-1.912-3.864-4.137
			c0-2.596,2.03-3.982,4.606-3.982c1.756,0,2.888,0.332,4.059,0.898l-0.507,2.811c-1.21-0.703-2.479-1.094-3.513-1.094
			c-1.016,0-1.503,0.43-1.503,1.055c0,0.682,0.37,1.014,2.049,1.658c2.928,1.074,4.099,2.088,4.099,4.234
			C114.554,28.895,112.407,30.184,109.733,30.184z"/>
		<path fill="#FFFFFF" d="M126.792,19.391v10.637h-3.356V19.391h-3.728v-2.83h10.655l0.469,2.83H126.792z"/>
		<path fill="#FFFFFF" d="M137.624,30.281c-3.864,0-6.401-2.811-6.401-6.969c0-4.176,2.537-7.005,6.44-7.005
			c3.904,0,6.422,2.81,6.422,6.966C144.085,27.432,141.548,30.281,137.624,30.281z M137.644,18.922
			c-1.951,0-3.083,1.699-3.083,4.371c0,2.674,1.151,4.373,3.083,4.373c1.953,0,3.084-1.699,3.084-4.373
			C140.728,20.621,139.597,18.922,137.644,18.922z"/>
		<path fill="#FFFFFF" d="M152.204,30.281c-4.273,0-6.635-2.811-6.635-6.969c0-4.176,2.557-7.005,6.713-7.005
			c1.66,0,3.045,0.39,4.119,0.996l-0.449,2.908c-1.016-0.645-2.205-1.152-3.592-1.152c-2.322,0-3.453,1.717-3.453,4.234
			c0,2.537,1.17,4.314,3.492,4.314c0.742,0,1.27-0.137,1.814-0.43v-2.4h-2.342l-0.389-2.479h5.639v6.557
			C155.718,29.773,154.06,30.281,152.204,30.281z"/>
		<path fill="#FFFFFF" d="M159.368,30.027V16.561h8.393v2.673h-5.113v2.459h3.902l0.43,2.752h-4.332v2.908h5.289v2.674H159.368z"/>
		<path fill="#FFFFFF" d="M176.153,19.391v10.637h-3.355V19.391h-3.729v-2.83h10.656l0.469,2.83H176.153z"/>
		<path fill="#FFFFFF" d="M189.698,30.027v-5.504h-4.664v5.504h-3.338V16.561h3.338v5.035h4.664v-5.035h3.338v13.466H189.698z"/>
		<path fill="#FFFFFF" d="M195.497,30.027V16.561h8.391v2.673h-5.113v2.459h3.904l0.43,2.752h-4.334v2.908h5.289v2.674H195.497z"/>
		<path fill="#FFFFFF" d="M216.536,29.598l-3.416,0.566l-2.945-4.762h-0.918v4.625h-3.318V16.561h4.703
			c3.26,0,5.172,1.484,5.172,4.253c0,1.855-0.896,3.123-2.498,3.826L216.536,29.598z M210.312,19.078h-1.074v3.924h1.035
			c1.424,0,2.264-0.703,2.264-1.992C212.536,19.762,211.755,19.078,210.312,19.078z"/>
	</g>
	<g opacity="0.8">
		<g>
			<path fill="#FFFFFF" d="M19.743,19.979v10.344c-0.821,0.143-1.571,0.215-2.246,0.215c-4.01,0-7.352-1.32-10.023-3.957
				c-2.676-2.637-4.01-5.939-4.01-9.916c0-3.866,1.352-7.145,4.049-9.836c2.702-2.688,5.982-4.035,9.851-4.035
				c4.31,0,7.713,1.256,10.199,3.776s3.726,5.971,3.726,10.337v13.068h-9.997V17.629c0-1.411-0.339-2.534-1.028-3.368
				c-0.684-0.84-1.609-1.256-2.766-1.256c-1.049,0-1.961,0.381-2.728,1.148c-0.766,0.766-1.148,1.672-1.148,2.725
				c0,1.102,0.348,2.014,1.04,2.725c0.697,0.713,1.578,1.07,2.651,1.07C18.185,20.674,18.993,20.443,19.743,19.979z"/>
		</g>
	</g>
	<path opacity="0.8" fill="#FFFFFF" d="M26.294,2.669c-4.956,0-8.979-1.957-16.289-1.957v10.036c7.703,0,10.338,3.202,10.934,4.638
		c0.266,0.574,0.37,2.319,0.37,2.319v12.264h0.006h9.957h0.006V17.705c0,0,0.104-1.745,0.369-2.319
		c0.597-1.436,3.23-4.638,10.935-4.638V0.712C35.271,0.712,30.64,2.669,26.294,2.669z"/>
</g>
</svg>
