<?xml version="1.0" encoding="utf-8"?>
<!-- Generator: Adobe Illustrator 16.0.0, SVG Export Plug-In . SVG Version: 6.00 Build 0)  -->
<!DOCTYPE svg PUBLIC "-//W3C//DTD SVG 1.1//EN" "http://www.w3.org/Graphics/SVG/1.1/DTD/svg11.dtd">
<svg version="1.1" id="armbannertest_xA0_Image_1_" xmlns="http://www.w3.org/2000/svg" xmlns:xlink="http://www.w3.org/1999/xlink"
	 x="0px" y="0px" width="862px" height="103.333px" viewBox="0 0 862 103.333" enable-background="new 0 0 862 103.333"
	 xml:space="preserve">
<path fill="#FFFFFF" d="M823.494,3.503c-0.095,0.165-0.215,0.307-0.36,0.12C823.14,3.47,823.334,3.504,823.494,3.503z"/>
<path fill="#FFFFFF" d="M656.454,45.623c-0.235-2.594-0.105-5.332-0.12-7.98c-0.02-3.599-0.104-6.861-0.06-10.32
	c2.566,0.12,4.796-0.146,7.5-0.12c2.535,0.023,4.979,1.028,6.42,2.16c3.017,2.372,4.23,7.978,2.34,12.12
	c-0.198,0.434-0.592,0.944-0.9,1.38c-0.737,1.044-1.653,1.484-2.938,2.04c-0.804,0.347-1.624,0.813-2.58,0.9
	c-1.114,0.101-2.483,0.009-3.84,0C660.362,45.791,658.636,45.707,656.454,45.623z"/>
<path fill="#FFFFFF" d="M248.333,45.983c-0.138-6.606-0.052-12.248-0.06-18.18c1.403-0.332,3.01-0.225,4.62-0.24
	c1.434-0.013,3.278-0.312,4.5-0.06c0.29,0.06,0.553,0.291,0.84,0.36c0.541,0.129,1.118,0.071,1.68,0.3
	c0.383,0.156,0.888,0.533,1.38,0.84c0.684,0.426,1.319,0.706,1.74,1.2c0.193,0.227,0.269,0.578,0.48,0.9
	c0.279,0.425,0.746,0.689,0.9,1.08c0.106,0.27,0.069,0.626,0.18,0.96c0.156,0.468,0.498,0.933,0.6,1.38
	c0.119,0.521,0.227,1.362,0.24,1.98c0.006,0.273-0.133,0.551-0.12,0.84c0.011,0.244,0.128,0.505,0.12,0.72
	c-0.026,0.706-0.404,1.55-0.6,2.34c-0.167,0.677-0.203,1.32-0.48,1.98c-1.525,1.869-3.759,3.457-6.9,3.54
	C254.632,45.998,251.202,45.887,248.333,45.983z"/>
<path fill="#FFFFFF" d="M565.013,45.923c-0.234-2.594-0.104-5.332-0.119-7.98c-0.02-3.6-0.104-6.861-0.061-10.32
	c2.568,0.12,4.797-0.145,7.5-0.12c2.537,0.023,4.979,1.028,6.42,2.16c3.017,2.372,4.232,7.979,2.34,12.12
	c-0.198,0.435-0.591,0.944-0.898,1.38c-0.739,1.044-1.653,1.484-2.94,2.04c-0.806,0.348-1.619,0.813-2.58,0.9
	c-1.104,0.1-2.491,0.009-3.84,0C568.906,46.09,567.204,46.006,565.013,45.923z"/>
<path fill="#FFFFFF" d="M292.074,36.443c0.132,0.129,0.209,0.35,0.12,0.54C292,36.87,292.046,36.649,292.074,36.443z"/>
<path fill="#FFFFFF" d="M851.513,38.483c0.101,0.061,0.065,0.254,0.12,0.36c-0.102-0.022-0.111,0.047-0.12,0.12
	C851.336,38.88,851.381,38.574,851.513,38.483z"/>
<path fill="#FFFFFF" d="M205.793,39.263c0.049,0.011,0.06,0.06,0.12,0.06c0.354,1.326,0.77,2.59,0.96,4.08
	c1.024,3.884,2.109,7.901,3.06,11.881c0.951,3.979,2.266,7.875,3.12,11.579c-0.407,0.289-0.96,0.259-1.44,0.302
	c-3.748,0.322-8.282,0.09-12.3,0.358c0.536-3.114,1.407-6.203,2.1-9.3c0.225-1.006,0.558-2,0.78-3c0.589-2.65,1.036-5.391,1.68-8.04
	c0.463-1.903,0.979-3.77,1.38-5.76C205.407,40.664,205.407,39.857,205.793,39.263z"/>
<path fill="#FFFFFF" d="M547.013,74.723c0.139,0.083,0.022,0.418,0.062,0.6C546.908,75.181,546.971,74.945,547.013,74.723z"/>
<path fill="#FFFFFF" d="M426.474,74.842c0.138,0.084,0.022,0.418,0.061,0.601C426.368,75.301,426.431,75.065,426.474,74.842z"/>
<path fill="#FFFFFF" d="M722.034,75.204c0.137,0.084,0.021,0.418,0.06,0.601C721.927,75.663,721.991,75.424,722.034,75.204z"/>
<path fill="#FFFFFF" d="M549.414,79.643c0.111-0.146,0.041,0.396,0.061,0.54C549.363,80.329,549.433,79.788,549.414,79.643z"/>
<path fill="#FFFFFF" d="M549.414,80.363c0.115-0.13,0.038,0.438,0.061,0.601C549.359,81.092,549.436,80.525,549.414,80.363z"/>
<path fill="#FFFFFF" d="M549.414,81.502c0.134,0.146,0.023,1.056,0.061,1.5C549.339,82.856,549.449,81.95,549.414,81.502z"/>
<path fill="#FFFFFF" d="M303.714,83.124c0.158-0.019,0.155,0.125,0.18,0.239c-0.107-0.007-0.126,0.074-0.24,0.062
	C303.742,83.282,303.78,83.312,303.714,83.124z"/>
<path fill="#FFFFFF" d="M549.414,83.363c0.085-0.012,0.114,0.55,0.061,0.722C549.335,83.959,549.452,83.584,549.414,83.363z"/>
<path fill="#FFFFFF" d="M549.414,84.383c0.189,0.617,0.098,1.199,0.061,1.92C549.333,85.784,549.454,85.002,549.414,84.383z"/>
<path fill="#FFFFFF" d="M549.414,86.422c0.121-0.098,0.034,0.523,0.061,0.721C549.354,87.241,549.44,86.62,549.414,86.422z"/>
<path fill="#FFFFFF" d="M549.414,87.263c0.093,0.087,0.126,0.233,0.12,0.42C549.305,87.731,549.458,87.4,549.414,87.263z"/>
<path fill="#FFFFFF" d="M34.614,3.803c0.075,0.108,0.302,0.298,0.3,0c0.105,0.015,0.137,0.104,0.12,0.24c-0.12,0-0.24,0-0.36,0
	C34.681,3.936,34.6,3.917,34.614,3.803z"/>
<path fill="#FFFFFF" d="M842.274,34.763c0.367,0.669,0.201,2.356,0.238,3.9c0.033,1.381-0.172,2.965,0.12,3.9
	c0.343,1.097,2.784,0.46,3.78,0.84c0,0.04,0,0.08,0,0.12c0.038,0.408-0.372,0.69-0.6,0.96c-1.221,1.442-2.382,3.07-3.66,4.56
	c-0.498,0.579-1.059,1.276-1.021,2.1c1.029,1.24,1.985,2.553,3,3.84c0.988,1.252,2.23,2.385,2.761,3.9
	c-0.718,0.15-1.419,0.104-2.221,0.119c-0.545,0.012-2.002-0.063-2.16,0.479c-0.015,0.052,0,0.401,0,0.479
	c0.018,1.951,0.153,5.596,0.062,7.74c-0.773,0.403-2.013-0.037-2.82,0.121c-0.864-0.111-2.095-0.137-3-0.182
	c-0.688,0.91-1.265,1.955-1.74,3c-3.376,7.432-7.561,14.592-10.8,22.26c-0.717,0.309-2.245,0.182-3.54,0.182
	c-261.306,0.012-523.013-0.01-784.2,0c-3.806-6.879-7.421-14.287-11.1-21.42c-0.509-0.988-0.811-2.092-1.56-2.94
	c-0.104-0.22-0.207-0.175-0.42-0.24c-0.758-0.235-1.819-0.155-2.7-0.181c-0.907-0.022-1.791,0.053-2.64-0.059
	c-0.328-1.941-0.233-5.717-0.54-7.562c-0.186-1.113-2.444-0.198-3.24-0.841c-0.663,0.377-0.751-0.506-0.36-1.08
	c0.562-0.824,1.861-2.137,2.28-2.699c0.069-0.26,0.297-0.297,0.48-0.48c0.211-0.211,0.13-0.869,0.6-0.899
	c0.445-0.911,1.603-1.479,1.44-2.46c-0.031-0.186-0.392-0.623-0.6-0.96c-0.992-1.604-1.903-3.062-3-4.62
	c-0.417-0.592-1.225-1.52-1.08-2.1c1.168-0.37,2.713,0.15,3.66-0.18c0.168-2.017,0.149-4.413,0.3-6.3
	c0.065-0.816-0.011-1.848,0.3-2.4c1.649-0.191,3.503,0.424,4.98,0.18c0.447-0.074,0.908-1.09,1.2-1.68
	c0.843-1.702,1.5-3.34,2.34-5.04c0.274-0.556,0.615-1.065,0.84-1.62c0.484-1.192,1.068-2.223,1.56-3.36
	c0.239-0.553,0.45-1.173,0.9-1.56c0.617-1.683,1.438-3.439,2.34-5.04c0.29-0.515,0.531-1.074,0.84-1.62
	c0.554-0.978,0.967-2.16,1.62-3.3c0.253-0.443,0.576-1.018,0.84-1.62c0.221-0.502,0.517-1.459,0.78-1.68
	c0.335-0.282,0.481,0.055,0.9,0c0.264-0.208,0.072-0.517,0.12-0.72c0.064-0.273-0.029-0.123,0.24-0.24
	c0.369-0.161,3.042,0.06,3.72,0.06c79.236,0,159.157,0.021,238.08-0.06c0-0.088-0.023-0.491,0.06-0.3
	c3.285,0.08,6.834,0.044,10.02,0.06c0.938,0.005,1.857,0.129,2.76,0.12c2.433-0.025,4.004-0.004,6.12-0.06
	c0.348-0.009,0.712-0.02,1.02,0.18c1.066-0.275,2.271-0.092,3.6-0.06c0.365,0.009,0.705-0.105,1.08-0.12
	c1.612-0.064,3.25,0.242,4.56,0.06c17.703,0.198,42.12,0.12,62.58,0.12c150.446,0.003,300.727-0.003,450.78,0c0,0.04,0,0.08,0,0.12
	c-0.219,0.862,0.521,0.467,1.08,0.6c1.045,2.094,2.189,4.243,3.24,6.48c2.24,4.772,4.922,9.729,7.38,14.46
	c0.279,0.537,0.488,1.113,0.78,1.62c0.597,1.039,1.051,2.176,1.68,3.12c0.531,0.796,2.102,0.34,3.3,0.24
	C840.596,34.923,841.512,34.758,842.274,34.763z M467.213,15.803c-0.441,0.024-0.943-0.039-1.438-0.06
	c-2.229-0.096-4.31,0.062-6.24-0.18c-5.509,0.091-10.437-0.067-16.021,0.12c-1.636,0.055-3.366-0.059-4.979,0.12
	c-0.497-0.224-1.333-0.107-1.86-0.3c-1.216,0.57-2.77,0.123-4.38,0.24c-0.075,0.285-0.096,0.624-0.18,0.9
	c0.422,2.045,0.066,4.838,0.18,7.08c0.034,0.684,0.267,1.331-0.12,1.74c0.268,0.379,0.178,1.142,0.36,1.74
	c3.606,0.069,6.867-0.174,10.08-0.06c0.527,0.019,1.054-0.057,1.5,0c0.936,0.121,0.679,1.256,0.66,2.28
	c-0.022,1.212-0.021,3.193,0.06,4.62c0.114,2.049,0.023,4.391,0.12,6.24c0.058,1.098-0.129,2.262-0.12,3.36
	c0.006,0.741,0.062,1.413,0.061,2.22c-0.006,1.561-0.087,2.776-0.061,4.14c0.046,2.382,0.092,4.735,0.061,7.08
	c-0.067,5.06-0.036,10.584-0.119,15.42c0.221,0.808-0.019,1.912,0,2.939c0.014,0.83,0.197,1.645,0.119,2.4
	c-0.103,0.977,0.121,2.152-0.181,3c0.188-0.028,0.27,0.052,0.24,0.24c-0.078,0.936-0.027,1.699-0.06,2.459
	c-0.021,0.461-0.059,0.881,0,1.26c0.452,0.312,1.225,0.277,1.738,0.301c0.839,0.038,1.882-0.166,2.521-0.061
	c0.072,0.013,0.266,0.117,0.3,0.121c0.104,0.006,0.479-0.049,0.6-0.062c0.843-0.078,1.686-0.356,2.521-0.12
	c0.307,0.027,0.417-0.143,0.66-0.18c0.169,0.111,0.284,0.275,0.479,0.359c1.214-0.467,2.298-0.029,3.3-0.42
	c0.243-0.916-0.414-2.138,0.182-2.881c0.047-0.246-0.287-0.111-0.24-0.359c0.039-0.181,0.273-0.166,0.24-0.42
	c-0.151-0.289-0.161-0.72-0.301-1.021c0.247-0.438-0.071-0.906,0.239-1.319c-0.12-0.158-0.135-0.425-0.239-0.601
	c0.302-0.599-0.278-2.05,0.181-3c-0.433-1.325-0.146-2.744-0.181-4.38c-0.01-0.441-0.069-0.879-0.061-1.32
	c0.012-0.52,0.176-1.039,0.18-1.561c0.016-1.51-0.219-3.004-0.119-4.26c0.03-0.389,0.263-0.783,0.239-1.141
	c-0.024-0.41-0.252-0.791-0.3-1.2c-0.053-0.452,0.095-0.966,0.061-1.438c-0.014-0.174-0.127-0.262-0.119-0.42
	c0.016-0.346,0.184-0.741,0.18-1.08c-0.116-10.028-0.153-20.336,0-30.78c0.82-0.56,1.956-0.239,3-0.24
	c3.401-0.004,5.91-0.329,9-0.12c0.009-3.735-0.02-8.028,0.42-11.4C468.73,15.558,468.026,15.758,467.213,15.803z M508.673,15.803
	c-0.441,0.024-0.944-0.039-1.438-0.06c-2.229-0.096-4.31,0.062-6.24-0.18c-5.363,0.165-10.178-0.135-15.6,0.06
	c-1.785,0.064-3.645,0.05-5.4,0.18c-0.496-0.224-1.333-0.107-1.86-0.3c-1.216,0.57-2.77,0.123-4.38,0.24
	c-0.075,0.285-0.096,0.624-0.18,0.9c0.421,2.045,0.066,4.838,0.18,7.08c0.034,0.684,0.266,1.331-0.12,1.74
	c0.268,0.379,0.179,1.142,0.36,1.74c3.606,0.069,6.867-0.174,10.08-0.06c0.527,0.019,1.054-0.057,1.5,0
	c0.936,0.121,0.68,1.255,0.66,2.28c-0.023,1.216-0.02,3.195,0.06,4.62c0.113,2.051,0.024,4.39,0.12,6.24
	c0.058,1.098-0.129,2.262-0.12,3.36c0.006,0.741,0.062,1.413,0.062,2.22c-0.007,1.562-0.088,2.776-0.062,4.14
	c0.046,2.382,0.092,4.735,0.062,7.08c-0.068,5.06-0.037,10.584-0.12,15.42c0.221,0.808-0.019,1.912,0,2.939
	c0.014,0.831,0.197,1.645,0.12,2.4c-0.104,0.977,0.12,2.152-0.182,3c0.188-0.028,0.27,0.052,0.24,0.24
	c-0.078,0.936-0.027,1.699-0.061,2.459c-0.02,0.461-0.058,0.881,0,1.26c0.918,0.461,1.996,0.224,2.939,0.181
	c0.768-0.034,1.616,0.19,2.28,0.12c0.839-0.09,1.64-0.352,2.46-0.12c0.307,0.026,0.417-0.144,0.66-0.181
	c0.169,0.111,0.283,0.277,0.479,0.361c1.214-0.468,2.298-0.031,3.301-0.42c0.242-0.918-0.415-2.139,0.181-2.882
	c0.047-0.247-0.287-0.112-0.24-0.358c0.039-0.182,0.274-0.166,0.24-0.42c-0.151-0.289-0.161-0.721-0.3-1.021
	c0.246-0.439-0.071-0.906,0.238-1.318c-0.12-0.16-0.135-0.426-0.238-0.602c0.301-0.598-0.279-2.051,0.18-3
	c-0.436-1.337-0.145-2.771-0.18-4.439c-0.01-0.402-0.069-0.799-0.062-1.199c0.012-0.551,0.175-1.066,0.181-1.621
	c0.015-1.51-0.221-3.004-0.119-4.26c0.029-0.389,0.262-0.783,0.238-1.141c-0.024-0.41-0.252-0.791-0.3-1.199
	c-0.053-0.453,0.095-0.967,0.062-1.439c-0.014-0.174-0.129-0.262-0.12-0.42c0.016-0.346,0.184-0.741,0.18-1.08
	c-0.112-10.028-0.155-20.336,0-30.78c0.821-0.56,1.955-0.239,3-0.24c3.401-0.004,5.909-0.329,9-0.12c0.185-0.676,0.013-1.335,0-2.04
	c-0.056-3.059,0.131-6.854,0.42-9.36C510.191,15.558,509.486,15.758,508.673,15.803z M79.494,16.163
	c-0.443,0.025-0.944-0.039-1.44-0.06c-2.229-0.096-4.309,0.062-6.24-0.18c-5.363,0.165-10.178-0.135-15.6,0.06
	c-1.785,0.064-3.643,0.05-5.4,0.18c-0.497-0.223-1.333-0.107-1.86-0.3c-1.216,0.57-2.77,0.123-4.38,0.24
	c-0.076,0.285-0.096,0.624-0.18,0.9c0.422,2.044,0.067,4.837,0.18,7.08c0.034,0.684,0.265,1.331-0.12,1.74
	c0.267,0.379,0.178,1.142,0.36,1.74c3.607,0.069,6.867-0.174,10.08-0.06c0.528,0.019,1.054-0.058,1.5,0
	c0.936,0.121,0.679,1.255,0.66,2.28c-0.022,1.212-0.019,3.196,0.06,4.62c0.113,2.051,0.023,4.39,0.12,6.24
	c0.057,1.098-0.129,2.262-0.12,3.36c0.006,0.74,0.062,1.412,0.06,2.22c-0.005,1.562-0.087,2.776-0.06,4.14
	c0.046,2.382,0.091,4.735,0.06,7.08c-0.067,5.058-0.038,10.583-0.12,15.419c0.221,0.809-0.017,1.913,0,2.939
	c0.014,0.83,0.199,1.645,0.12,2.4c-0.102,0.978,0.121,2.151-0.18,3c0.188-0.027,0.268,0.053,0.24,0.239
	c-0.078,0.937-0.028,1.701-0.06,2.46c-0.02,0.461-0.058,0.881,0,1.262c0.917,0.459,1.996,0.223,2.94,0.18
	c0.767-0.035,1.616,0.191,2.28,0.119c0.839-0.09,1.64-0.352,2.46-0.119c0.307,0.027,0.417-0.145,0.66-0.18
	c0.169,0.11,0.284,0.274,0.48,0.358c1.213-0.466,2.298-0.028,3.3-0.42c0.243-0.916-0.414-2.138,0.18-2.88
	c0.047-0.247-0.287-0.112-0.24-0.36c0.039-0.18,0.274-0.165,0.24-0.42c-0.151-0.288-0.161-0.719-0.3-1.021
	c0.248-0.438-0.072-0.906,0.24-1.319c-0.121-0.159-0.135-0.425-0.24-0.601c0.301-0.598-0.279-2.051,0.18-3
	c-0.435-1.338-0.143-2.771-0.18-4.439c-0.009-0.4-0.069-0.798-0.06-1.2c0.012-0.551,0.175-1.065,0.18-1.618
	c0.014-1.512-0.219-3.004-0.12-4.262c0.031-0.389,0.262-0.783,0.24-1.141c-0.026-0.409-0.252-0.791-0.3-1.199
	c-0.053-0.453,0.095-0.967,0.06-1.439c-0.013-0.174-0.127-0.262-0.12-0.42c0.016-0.346,0.184-0.74,0.18-1.08
	c-0.115-10.029-0.154-20.335,0-30.781c0.821-0.561,1.955-0.239,3-0.24c3.401-0.003,5.909-0.329,9-0.12
	c0.184-0.676,0.013-1.335,0-2.04c-0.056-3.06,0.131-6.854,0.42-9.36C81.011,15.918,80.306,16.118,79.494,16.163z M666.053,16.103
	c-7.036,0.127-14.122-0.104-21.659,0.06c-0.345,2.169-0.095,4.403-0.181,6.66c-0.15,3.952-0.072,8.052-0.18,12.06
	c-0.044,1.642,0.048,3.286,0,4.92c-0.092,3.11-0.154,6.257-0.061,9.36c0.192,6.328-0.023,12.655,0.061,19.02
	c0.072,5.524,0.294,11.772-0.36,16.739c4.32-0.107,7.901,0.154,12.181,0.121c0.561-0.688,0.342-1.717,0.301-2.642
	c-0.022-0.511,0.033-1.028,0.06-1.56c0.06-1.157-0.188-2.934,0.181-4.08c-0.293-1.555-0.182-3.426-0.181-5.1
	c0.003-5.481,0.011-10.369,0.12-16.021c3.222-0.037,5.924,0.23,8.4,0.359c0.893,0.047,1.909-0.041,2.88,0.121
	c1.266,0.211,2.421,1.026,3.18,1.68c0.633,0.543,1.056,1.072,1.5,1.8c0.804,1.313,0.983,2.885,1.021,4.92
	c0.01,0.554,0.09,1.088,0.06,1.62c-0.131,2.326,0.034,4.72,0.12,6.9c0.049,1.229-0.062,2.385,0,3.539
	c0.149,2.842-0.047,5.768,0.54,8.34c1.287,0.205,2.632,0.295,3.899,0.181c2.518-0.226,5.032,0.246,6.96-0.24
	c0.165-1.06,0.087-2.122,0.061-3.18c-0.037-1.483,0.008-2.767,0.06-4.2c0.029-0.791-0.106-2-0.06-3
	c0.104-2.199-0.058-4.188,0.12-6.061c-0.19-0.824-0.148-1.92,0.06-2.879c-0.242-1.151-0.236-2.528-0.238-3.961
	c-0.003-0.699,0.26-2.242,0-2.939c-0.096-0.254-0.72-0.696-1.08-1.02c-2.619-2.349-5.194-4.883-7.562-7.201
	c2.071-1.847,4.097-3.765,6.24-5.64c0.487-0.426,1.841-1.346,2.04-1.92c0.338-0.973,0.084-2.334,0.12-3.48
	c0.075-2.413-0.055-4.346,0.06-6.84c0.052-1.127,0.28-2.609,0.12-3.66c-0.11-0.723-1.147-1.616-1.62-2.28
	c-2.542-3.574-5.417-7.147-7.979-10.56C672.072,15.955,668.832,16.053,666.053,16.103z M539.333,50.483
	c0.261,0.145-0.19-0.142-0.18-0.3c0.162-0.731-0.222-1.893,0.239-2.22c-0.008-0.311-0.384-0.512-0.239-0.78
	c0.266-0.085,0.155,0.203,0.358,0.18c-0.038-0.224-0.265-0.294-0.119-0.54c-0.148,0.009-0.249-0.031-0.301-0.12
	c0.125-1.268-1.828-0.812-2.818-0.9c-0.274-0.024-0.612-0.175-0.841-0.18c-0.715-0.016-1.389,0.235-2.04,0.24
	c-0.657,0.005-1.33-0.126-1.92-0.24c-0.275,0.154-0.7,0.147-0.961,0c-0.125,0.035-0.171,0.149-0.358,0.12
	c-0.4-0.226-1.238,0.119-1.74-0.36c-0.054-0.132,0.009-0.258-0.06-0.48c-0.115-0.105-0.37-0.071-0.36-0.3
	c0.086-0.257,0.356,0.042,0.479-0.18c-0.637,0.036-0.382-0.819-0.601-1.2c0.087-0.033,0.311,0.07,0.3-0.06
	c-0.446-0.443-0.451-1.387-0.18-2.16c-0.316-0.791,0.078-2.293-0.24-3.24c0.085-0.116,0.158-0.241,0.181-0.42
	c-0.083-0.097-0.213-0.148-0.181-0.36c0.385-0.728-0.056-1.889-0.06-3c-0.002-0.602,0.224-1.182,0.239-1.68
	c0.039-1.229-0.422-2.66-0.181-3.6c0.064-0.25,0.284-0.315,0.24-0.72c0.785-0.384,1.772-0.453,2.399,0
	c0.356-0.333,0.864-0.103,1.381-0.36c0.087,0.133,0.039,0.4,0.18,0.48c0.377,0.014,0.486-0.176,0.899-0.06
	c0.115-0.024,0.048-0.233,0.239-0.18c0.748,0.084,1.242,0.003,2.04-0.12c0.219,0.256,0.518,0.074,0.721,0.36
	c0.079-0.22,0.318-0.281,0.479-0.42c1.109-0.083,2.724-0.033,3.54-0.06c1.052,0.354,2.472-0.096,3.36,0.18
	c0.909-0.448,2.119,0.06,3.06-0.24c0.187,0.034,0.158,0.282,0.36,0.3c0.598-1.695,0.221-3.524,0.42-5.34c0.06,0,0.119,0,0.18,0
	c-0.527-1.915-0.484-4.118-0.6-5.7c-2.534-0.124-5.412-0.536-7.92-0.3c-0.72,0.067-1.383-0.19-2.102-0.18
	c-1.468,0.02-3.318,0.176-4.859-0.06c-0.205,0.172-0.943,0.284-1.141-0.12c-0.217,0.023-0.286,0.194-0.42,0.3
	c-0.466-0.258-1.476,0.145-2.04-0.24c-1.766,0.209-3.266-0.106-4.8,0.12c-0.096-0.044,0.014-0.294-0.18-0.24
	c-0.086,0.215-0.388,0.213-0.602,0.3c-0.219-0.298-0.897-0.08-1.26,0c-0.018-0.124-0.16-0.12-0.24-0.18
	c-0.969,0.039-2.359,0.098-3.42-0.06c-0.5-0.024-1.419,0.211-2.04,0c-0.188,0.832,0.009,1.382-0.3,1.98
	c0.229,0.991,0.286,2.118,0,3.06c0.176,1.702-0.059,3.115-0.061,4.86c0.055,0.126,0.094,0.267,0.181,0.36
	c-0.145,0.157-0.356,0.244-0.42,0.48c0.62,1.884,0.448,4.083,0.479,6.42c0.023,1.682-0.202,3.377-0.239,4.8
	c-0.007,0.248,0.135,0.444-0.061,0.6c0.293,0.36-0.145,1.264,0.181,1.68c-0.057,0.064-0.222,0.019-0.181,0.18
	c0.276,0.198,0.373,1.746,0.12,2.46c0.426,1.816-0.038,3.637,0.18,5.46c-0.094,0.005-0.208-0.008-0.18,0.12
	c0.469,1.721-0.001,3.377,0.12,4.799c-0.037,0.164-0.251,0.15-0.24,0.361c0.343,0.692,0.153,1.672,0.181,2.399
	c0.017,0.427-0.002,0.968,0,1.14c0.008,0.887,0.124,1.614-0.061,2.221c-0.158,0.521,0.268,1.14-0.18,1.56
	c0.102,0.554,0.685,1.55,0.12,1.86c0.093,0.168,0.314,0.395,0,0.479c0.385,0.333,0.175,0.889,0.18,1.141
	c0.005,0.242,0.183,0.408,0.18,0.601c-0.004,0.312-0.229,0.782-0.239,1.142c0.15,0.049,0.083,0.314,0.181,0.42
	c-0.231,1.971,0.047,3.342,0.06,5.34c-0.451,0.906-0.048,1.838,0,2.818c-0.183,0.137-0.188,0.104-0.42,0.061
	c0,0.261,0,0.521,0,0.781c0.354-0.047-0.042,0.348,0.3,0.358c-0.023,0.177-0.015,0.567-0.18,0.42
	c-0.044,0.245,0.193,0.207,0.12,0.479c0.063,0.225-0.149,0.172-0.12,0.359c0.312,1.04,0.071,2.869,0.061,3.721
	c0.057,0.063,0.222,0.02,0.181,0.181c0.216,1.19-0.198,2.64,0.06,3.36c0.359-0.015,0.559-0.328,0.78,0
	c0.164-0.347,0.662,0.142,0.96,0.119c0.524-0.347,1.489,0.119,2.101-0.181c0.225,0.247,0.372,0.239,0.601,0.42
	c0.056-0.481,0.442,0.052,0.66-0.3c0.121,0.372,0.528,0.102,0.84,0.24c0.195-0.5,0.881,0.229,1.2-0.18
	c0.276,0.364,0.758,0.104,1.08,0c0.144-0.025-0.033,0.271,0.18,0.18c0.202-0.246,0.804-0.215,1.14,0
	c0.954-0.346,1.862,0.188,2.46-0.24c0.558,0.109,0.866,0.078,1.682,0.119c0.095-0.006,0.047-0.152,0.18-0.119
	c1.037,0.203,2.061,0.498,3.12,0.24c0.143,0.254,0.609,0.086,0.72-0.062c0.123,0.019,0.117,0.163,0.24,0.181
	c0.705-0.395,1.474-0.256,2.22,0c0.143-0.019,0.112-0.209,0.3-0.181c-0.018,0.118,0.081,0.119,0.12,0.181
	c0.341-0.115,0.566-0.25,0.84,0c0.215-0.338,0.737,0.002,1.021-0.24c-0.014,0.113,0.066,0.134,0.06,0.24
	c0.763-0.056,2.362,0.066,2.94-0.119c2.083,0.228,3.846-0.041,5.64-0.062c0.061-0.081,0.16-0.118,0.24-0.18
	c0.176-0.896-0.088-2.276,0.3-3c-0.279-0.101-0.128-0.632-0.24-0.899c-0.018-0.139,0.175-0.066,0.182-0.181
	c-0.109-0.308-0.332-0.781-0.062-1.2c-0.183-0.511-0.338-1.173-0.18-1.68c-0.205-0.701-0.198-1.499-0.24-2.221
	c-0.031-0.566,0.17-1.174,0-1.799c-2.081-0.43-3.616,0.057-5.58-0.422c-0.205,0.271-0.873,0.209-1.02-0.061
	c-0.053,0.089-0.09,0.191-0.24,0.181c-0.955,0.003-2.379,0.099-3.36-0.181c-0.774,0.246-1.929,0.051-2.88,0.061
	c-0.521,0.006-0.949,0.133-1.38,0.061c-0.107-0.018-0.234-0.17-0.358-0.18c-0.246-0.018-0.516,0.131-0.78,0.119
	c-0.729-0.029-1.34-0.117-2.16-0.061c-0.264-0.219-0.698-0.206-0.9-0.42c0.008-0.297-0.059-0.295,0-0.539
	c-0.086-0.133-0.146,0.074-0.18-0.061c0.432-2.943-0.265-4.98,0.18-7.5c-0.118-0.295-0.128-0.464-0.238-0.841
	c0.151-0.2,0.002-0.349,0.18-0.479c-0.362-1.104,0.357-2.096-0.18-2.939c0.071-0.367,0.205-0.73,0-1.08
	c0.171-0.299,0.307-0.712,0.06-0.959c0.07-0.129,0.124-0.275,0.18-0.42c-0.023-0.115-0.231-0.047-0.18-0.24
	c0.156-0.75-0.325-1.828,0.72-1.8c0.574-0.362,0.881-0.108,1.5-0.3c0.207,0.227,0.409,0.093,0.66,0.24
	c0.119-0.424,0.553,0.103,0.721-0.18c0.086,0.174,0.233,0.287,0.479,0.299c0.089-0.131,0.117-0.322,0.24-0.42
	c0.739,0.094,1.509-0.092,2.34,0.301c0.163,0.043-0.043-0.283,0.12-0.24c0.189,0.117,0.436-0.087,0.6,0.119
	c0.773-0.535,1.644-0.26,2.58-0.119c0.22-0.514,0.857-0.256,1.26-0.54c-0.102-0.754,0.18-1.229,0.062-1.979
	c0.173-0.06,0.243-0.434,0.479-0.24c0.188-0.555-0.2-0.979-0.479-1.26C539.321,51.375,539.082,50.754,539.333,50.483z
	 M276.714,73.523c0.011-0.858,0.169-1.722,0.18-2.58c0.006-0.444-0.175-0.884-0.18-1.319c-0.008-0.654,0.196-1.332,0.18-2.039
	c-0.014-0.615-0.043-1.217-0.06-1.92c-0.009-0.39-0.159-0.775-0.18-1.32c-0.021-0.539,0.063-1.24,0.06-1.92
	c-0.007-1.28,0.166-3.006-0.06-3.721c-0.08-0.25-0.599-0.709-0.96-1.02c-1.936-1.664-3.468-2.941-5.28-4.62
	c-0.386-0.356-2.104-1.351-2.04-1.98c0.028-0.27,0.619-0.664,1.02-1.02c1.968-1.742,3.371-3.291,5.22-4.98
	c0.265-0.242,0.619-0.645,1.02-1.02c0.408-0.381,0.991-0.662,1.08-0.96c0.289-0.971-0.06-2.038-0.06-2.94
	c0-1.033,0.035-2.015,0.24-3.18c-0.358-0.878,0.016-1.946,0-2.94c-0.005-0.313-0.167-0.638-0.18-0.96
	c-0.057-1.381,0.177-2.836,0.12-4.14c-1.585-2.055-2.959-4.28-4.5-6.36c-1.158-1.563-2.342-3.133-3.36-4.74
	c-0.354-0.559-0.664-1.153-1.14-1.62c-0.378-0.009-1.65-0.027-2.22,0c-2.491,0.117-4.931,0.022-7.26,0.06
	c-7.067,0.114-14.283,0.08-21.96,0c-0.195,0.469-0.116,1.011-0.12,1.5c-0.004,0.605-0.02,1.186-0.06,1.8
	c-0.279,4.265-0.128,9.02-0.18,13.2c-0.075,6.009-0.058,11.965-0.12,18c-0.015,1.454,0.285,3.253-0.18,4.44
	c0.041,0.198,0.304,0.176,0.3,0.42c-0.026,1.978-0.1,3.95,0,5.94c0.103,2.043-0.194,4.076-0.12,5.938
	c0.022,0.55,0.176,1.088,0.18,1.62c0.005,0.613-0.136,1.188-0.12,1.8c0.012,0.462,0.129,0.929,0.12,1.38
	c-0.028,1.424,0.054,3.018,0.06,4.561c0.002,0.66-0.173,1.322-0.18,1.979c-0.004,0.322,0.171,0.65,0.18,0.96
	c0.048,1.686-0.205,3.375,0,4.922c1.204,0.266,2.316,0.055,3.54,0.358c2.933-0.424,5.987-0.021,8.46-0.12
	c0.195-0.428-0.144-1.176,0.18-1.738c-0.654-3.574,0.032-7.951-0.3-11.222c0.722-0.687-0.003-1.485-0.06-2.278
	c-0.016-0.217,0.054-0.471,0.06-0.722c0.108-4.263-0.16-8.94,0-13.38c3.413-0.165,7.49-0.318,10.8,0.359
	c0.92,0.188,2.006,0.66,2.64,1.08c0.467,0.311,0.771,0.484,1.14,0.78c0.696,0.558,1.51,1.316,1.86,2.101
	c1.034,2.315,0.689,4.994,0.84,7.26c0.079,1.188-0.176,2.416-0.12,3.66c0.064,1.434,0.085,2.873,0.12,4.26
	c0.039,1.537,0.148,3.006,0.12,4.38c-0.042,2.127-0.07,3.935,0.24,5.46c3.189,0.354,7.197-0.043,10.86,0.182
	C276.968,81.413,276.662,77.374,276.714,73.523z M86.753,83.363c-0.08,0.076-0.118,0.181-0.24,0.062
	c0.024,0.216,0.265,0.215,0.24,0.479c-0.252,0.455-0.358,1,0,1.439c-0.071,0.13-0.256,0.145-0.18,0.421
	c0.576,0.114,1.434,0.092,1.8-0.06c1.861,0.26,4.75,0.049,6.78,0.119c0.192,0.053,0.082-0.197,0.24-0.181
	c0.143,0.037,0.099,0.262,0.36,0.181c0.318-0.322,0.669-0.256,1.02,0c0.507,0.076,0.893-0.186,1.26-0.061
	c-0.017-0.137,0.015-0.227,0.12-0.24c0.029,0.07,0.064,0.137,0.12,0.182c0.094-0.373,0.254-0.18,0.48-0.24
	c0.046-0.154,0.146-0.256,0.3-0.301c-0.019-1.222-0.284-2.98,0.18-4.08c-0.153-0.906,0.235-2.398-0.18-3.181
	c0.277-0.989-0.302-1.702,0.12-2.76c-0.211-0.353-0.219-1.343,0-1.681c0.009-0.17-0.18-0.139-0.18-0.299
	c0.438-0.97-0.217-2.793,0.24-3.961c-0.194-0.716-0.33-1.681,0-2.279c-0.289-0.576,0.057-1.504,0-2.461
	c-0.007-0.119-0.102-0.256-0.12-0.359c-0.071-0.41,0.101-0.721,0.12-1.2c0.022-0.569-0.116-1.21-0.12-1.8
	c-0.002-0.283,0.157-0.518,0-0.779c0.34-1.216-0.165-2.976,0.24-3.66c1.062-0.777,2.542,0,3.48-0.42
	c0.104,0.319,0.333,0.018,0.48,0.059c0.217,0.062-0.03,0.179,0.18,0.181c0.575,0.005,1.366-0.501,1.68-0.06
	c0.411-0.352,0.91-0.141,1.38-0.18c0.091-0.009,0.106-0.156,0.18-0.181c0,0,0.208,0.063,0.24,0.06c0.842-0.07,1.358,0.205,2.16,0.36
	c0.37-0.493,0.89,0.22,1.5-0.3c0.231,0.033-0.077,0.232,0.24,0.18c0.877-0.402,2.208-0.42,2.82,0c0.428-0.252,0.764-0.05,1.26-0.119
	c0.178,0.334,0.54,0.115,0.78,0.359c0.061,0.781,0.086,1.262,0.24,1.98c-0.375,0.563,0.056,1.946-0.3,2.58
	c0.203,0.098,0.217,0.399,0.24,0.601c0.147,1.305-0.031,2.883-0.06,4.021c-0.015,0.58,0.073,1.271,0,1.739
	c-0.028,0.183-0.111,0.31-0.12,0.479c-0.061,1.248,0.36,2.682,0.36,3.779c0,0.788-0.181,1.592-0.36,2.342
	c-0.001,0.994,0.709,3.545,0.12,4.738c0.257,0.572,0.032,1.16,0.06,1.682c0.041,0.736,0.312,1.307,0.3,1.92
	c-0.018,0.89-0.239,1.785,0.12,2.76c2.179,0.445,3.508,0.306,6.06,0.18c0.323,0.395,1.314-0.186,1.92,0.301
	c1.298-0.287,2.383,0.072,3.72-0.181c0.132-3.04,0.21-5.765,0.18-8.76c-0.032-3.195,0.192-6.808,0.06-10.2
	c-0.085-2.193,0.05-4.479-0.06-6.66c-0.108-2.141,0.158-4.242,0.06-6.24c-0.171-3.476-0.089-7.016-0.24-10.86
	c0.125-0.125,0.152-0.216,0.36-0.36c0-0.34,0-0.68,0-1.02c-0.087-0.193-0.343-0.217-0.36-0.48c0.104-2.719-0.098-6.23,0.18-8.88
	c-0.31-0.458-0.087-0.9-0.06-1.38c0.081-1.432,0.025-2.898,0-4.38c-0.026-1.533,0.031-3.096,0-4.74c0.05-0.15,0.164-0.235,0.18-0.42
	c-0.429-1.313-0.083-3.107-0.18-4.68c-1.129,0.044-2.175-0.237-3.3-0.24c-0.524-0.001-1.077,0.224-1.62,0.24
	c-2.286,0.069-4.543-0.104-6.9,0.18c-0.267,2.298,0.363,5.01-0.3,7.26c-0.045,0.225,0.229,0.131,0.24,0.3
	c-0.186,2.189,0.111,4.547-0.24,6.66c0.298,0.274-0.03,0.667,0,1.02c0.015,0.179,0.178,0.294,0.18,0.48
	c0.002,0.191-0.149,0.344-0.12,0.54c0.025,0.172,0.17,0.308,0.18,0.48c0.021,0.35-0.14,0.663-0.18,1.02
	c-0.173,1.54,0.115,3.227-0.12,4.74c0.186,0.607,0.227,1.94,0.18,2.82c-0.016,0.286-0.186,0.545-0.18,0.84
	c0.013,0.65,0.269,1.225,0.12,1.86c-0.215,0.221-0.183,0.675-0.24,0.9c-2.039,0.304-3.913,0.217-5.82-0.06
	c-0.927,0.359-1.86,0-2.76,0c-1.206,0-2.501,0.141-3.78,0.06c-0.255-0.016-0.513-0.104-0.78-0.12
	c-0.912-0.055-1.844,0.033-2.82-0.06c-0.094-0.166-0.287-0.233-0.42-0.36c-0.127-0.228,0.023-0.375,0-0.66
	c0.018-0.158-0.233-0.047-0.18-0.24c0.065-0.655-0.115-1.26-0.12-1.92c-0.002-0.327,0.147-0.665,0.12-1.02
	c-0.023-0.305-0.195-0.563-0.24-0.84c-0.225-1.406,0.27-2.763,0.18-4.02c0.032-0.188,0.25-0.189,0.24-0.42
	c-0.614-0.66-0.113-1.623-0.12-2.28c-0.002-0.241-0.158-0.442-0.18-0.66c-0.014-0.134,0.12-0.308,0.12-0.48
	c0-0.151-0.183-0.298-0.18-0.42c0.008-0.285,0.221-0.625,0.24-0.96c0.025-0.44-0.053-0.826-0.12-1.32
	c0.041-0.139,0.153-0.207,0.24-0.3c-0.103-0.965-0.102-2.284-0.18-3.24c0.034-0.074,0.232,0.045,0.18-0.24
	c-0.399-1.095,0.315-2.387-0.12-3.84c0.051-0.267,0.13-0.435,0.12-0.66c-0.011-0.25-0.224-0.462-0.24-0.66
	c-0.005-0.062,0.234-0.187,0.24-0.24c-0.001,0.014-0.171-0.246-0.18-0.3c-0.064-0.39,0.167-0.643,0.18-0.9
	c0.026-0.508-0.267-1.335-0.3-1.68c-0.047-0.492,0.122-0.924,0-1.44c-3.9-0.14-8.06-0.02-12.06-0.06
	c0.04,0.259-0.183,0.453-0.24,0.66c-0.127,0.46,0.041,0.719,0.06,1.14c0.005,0.108-0.112,0.199-0.12,0.3
	c-0.02,0.257,0.132,0.515,0.12,0.78c-0.023,0.527-0.301,0.952-0.42,1.44c0.274,0.215,0.02,0.586,0.24,0.84
	c0.02,0.159-0.336-0.056-0.24,0.18c-0.095,0.235,0.156,0.125,0.18,0.24c-0.344,0.117,0.009,0.322,0,0.42
	c-0.016,0.164-0.192,0.009-0.18,0.18c0.042,0.617-0.03,1.399,0.18,2.04c-0.158-0.018-0.197,0.083-0.18,0.24
	c0.076,2.274,0,4.72,0,7.56c-0.001,12.286-0.099,25.267,0.12,37.32c-0.254,1.852-0.123,4.382,0.06,5.58
	c-0.129,0.516-0.267,1.037-0.06,1.439c-0.157-0.11-0.102,0.008-0.12,0.121c-0.092,0.558,0.248,1.17,0.12,1.738
	c0.22,0.418,0.157,0.859,0.18,1.381c-0.035,0.166-0.149,0.25-0.18,0.42c0.082,0.336,0.047,0.562-0.12,0.779
	c0.164,0.038,0.158,0.426,0.06,0.54c0.349-0.174,0.378,0.397,0.12,0.479c-0.209-0.018,0.005-0.162-0.12-0.181
	C86.497,82.334,86.41,83.049,86.753,83.363z M282.054,16.403c-0.026,4.04-0.101,8.078,0,12.3c0.047,1.977,0.036,4.016,0,6
	c-0.119,6.572-0.144,13.267-0.12,19.2c0.03,7.293,0.311,15.43,0.06,22.74c-0.095,2.764-0.007,5.396,0.06,7.98
	c2.828,0.394,6.267,0.11,9.18,0.238c0.538-5.414,0.457-11.097,0.54-16.8c0.092-6.312,0.085-11.58,0.06-17.28
	c-0.014-3.241,0.293-7.368,0.24-10.5c-0.019-1.091-0.154-2.192,0.12-3.12c0.508,0.872,0.558,1.917,0.84,2.88
	c0.144,0.491,0.232,0.995,0.36,1.5c0.58,2.292,1.271,4.933,1.98,7.38c0.072,0.332-0.289,0.231-0.24,0.54
	c0.777,0.876,0.929,2.266,1.26,3.6c0.216,0.872,0.465,1.765,0.72,2.64c1.295,4.446,2.423,8.778,3.48,13.32
	c0.304,1.309,0.889,2.34,0.6,3.54c0.719,0.604,0.805,1.708,1.14,2.94c0.203,0.746,0.603,1.736,0.54,2.22
	c-0.042,0.319-0.396,0.446-0.42,0.72c0.926-0.045,0.812,0.791,1.02,1.561c0.527,1.947,0.925,3.744,1.38,5.521
	c1.284,0.19,3.514-0.369,4.98,0.062c0.432-0.521,0.39-1.15,0.54-1.74c1.152-4.528,2.286-8.95,3.42-13.5
	c0.581-2.33,1.315-4.633,1.86-6.961c0.964-4.121,2.02-8.307,3.12-12.239c0.171-0.609,0.453-1.247,0.54-1.68
	c0.048-0.235-0.042-0.479,0-0.72c0.087-0.502,0.276-1.039,0.42-1.56c0.391-1.412,0.772-2.831,1.14-4.32
	c0.233-0.943,0.536-1.885,0.78-2.82c0.38-1.458,0.622-2.946,1.02-4.38c0.118-0.424,0.2-0.913,0.48-1.26
	c-0.007,0.47,0.214,1.075-0.18,1.26c0.342,0.188,0.184,0.632,0.18,0.9c-0.006,0.411,0.001,0.809,0,1.2
	c-0.036,9.007-0.014,18.238,0.12,26.1c0.104,6.1,0.001,14.729-0.06,21.42c3.757,0.246,7.221,0.176,11.16,0.301
	c0.424-1.787,0.19-3.719,0.24-5.819c0.089-3.782,0.06-7.841,0.06-11.341c0-9.572-0.04-18.884-0.06-27.779
	c-0.016-6.792,0.149-13.847,0.18-20.58c0.005-1.068,0.058-2.174-0.24-3.18c-1.082,0.153-2.492-0.155-3.48-0.12
	c-0.21,0.008-0.418,0.163-0.66,0.18c-1.679,0.121-3.917-0.189-5.76-0.24c-0.342-0.009-0.65,0.104-0.96,0.12
	c-1.225,0.066-1.877-0.075-3.18-0.06c-0.663,0.008-2.9-0.185-3.42,0.12c-0.253,0.148-0.48,1.1-0.66,1.8
	c-1.213,4.729-2.25,9.549-3.6,14.28c-0.364,1.276-0.654,2.71-1.02,4.14c-0.718,2.802-1.377,5.563-2.04,8.22
	c-0.208,0.834-0.566,2.044-0.72,3.18c-0.264,1.947-0.824-0.186-1.08-1.02c-0.243-0.793-0.357-1.443-0.54-2.1
	c-2.728-9.792-5.374-19.144-7.86-28.86c-5.639-0.055-11.223-0.145-17.4-0.3C282.098,16.248,282.051,16.301,282.054,16.403z
	 M418.793,50.603c0.261,0.145-0.189-0.142-0.18-0.3c0.163-0.732-0.222-1.893,0.24-2.22c-0.009-0.31-0.384-0.512-0.24-0.78
	c0.266-0.085,0.156,0.203,0.359,0.18c-0.038-0.224-0.265-0.294-0.119-0.54c-0.149,0.009-0.25-0.031-0.301-0.12
	c0.125-1.268-1.828-0.812-2.819-0.9c-0.274-0.024-0.612-0.175-0.841-0.18c-0.714-0.017-1.389,0.235-2.039,0.24
	c-0.658,0.004-1.33-0.126-1.921-0.24c-0.274,0.154-0.7,0.147-0.96,0c-0.125,0.035-0.171,0.149-0.359,0.12
	c-0.401-0.226-1.238,0.118-1.74-0.36c-0.054-0.132,0.009-0.258-0.06-0.48c-0.115-0.105-0.369-0.071-0.36-0.3
	c0.086-0.257,0.356,0.042,0.479-0.18c-0.636,0.036-0.381-0.819-0.6-1.2c0.087-0.033,0.31,0.07,0.3-0.06
	c-0.447-0.443-0.451-1.387-0.18-2.16c-0.316-0.791,0.078-2.293-0.24-3.24c0.084-0.116,0.158-0.242,0.18-0.42
	c-0.083-0.097-0.212-0.148-0.18-0.36c0.384-0.728-0.056-1.889-0.06-3c-0.002-0.602,0.224-1.182,0.239-1.68
	c0.04-1.229-0.421-2.66-0.18-3.6c0.064-0.25,0.284-0.316,0.24-0.72c0.786-0.384,1.773-0.453,2.4,0
	c0.356-0.333,0.864-0.102,1.38-0.36c0.087,0.133,0.04,0.399,0.18,0.48c0.377,0.014,0.487-0.176,0.899-0.06
	c0.116-0.024,0.048-0.232,0.24-0.18c0.748,0.084,1.241,0.003,2.04-0.12c0.218,0.256,0.518,0.074,0.72,0.36
	c0.08-0.22,0.319-0.281,0.48-0.42c1.11-0.083,2.724-0.033,3.54-0.06c1.052,0.354,2.472-0.096,3.36,0.18
	c0.91-0.448,2.119,0.059,3.06-0.24c0.187,0.034,0.158,0.282,0.36,0.3c0.597-1.695,0.221-3.524,0.42-5.34c0.06,0,0.12,0,0.18,0
	c-0.527-1.914-0.484-4.117-0.6-5.7c-2.535-0.124-5.412-0.536-7.92-0.3c-0.719,0.068-1.383-0.189-2.101-0.18
	c-1.469,0.02-3.317,0.176-4.859-0.06c-0.206,0.172-0.944,0.284-1.141-0.12c-0.217,0.023-0.287,0.193-0.42,0.3
	c-0.467-0.257-1.476,0.145-2.04-0.24c-1.766,0.209-3.266-0.106-4.8,0.12c-0.096-0.044,0.014-0.294-0.18-0.24
	c-0.085,0.215-0.388,0.213-0.601,0.3c-0.219-0.298-0.897-0.081-1.26,0c-0.017-0.124-0.16-0.12-0.24-0.18
	c-0.969,0.038-2.358,0.098-3.42-0.06c-0.5-0.024-1.419,0.211-2.04,0c-0.188,0.832,0.008,1.381-0.3,1.98
	c0.229,0.99,0.287,2.118,0,3.06c0.176,1.702-0.058,3.115-0.06,4.86c0.054,0.126,0.093,0.267,0.18,0.36
	c-0.143,0.156-0.356,0.243-0.42,0.48c0.62,1.884,0.448,4.083,0.48,6.42c0.023,1.681-0.203,3.378-0.24,4.8
	c-0.007,0.248,0.133,0.444-0.06,0.6c0.292,0.36-0.145,1.264,0.18,1.68c-0.056,0.064-0.221,0.019-0.18,0.18
	c0.276,0.198,0.373,1.745,0.12,2.46c0.426,1.816-0.038,3.637,0.18,5.46c-0.094,0.006-0.208-0.008-0.18,0.12
	c0.469,1.721-0.001,3.377,0.12,4.8c-0.037,0.162-0.25,0.148-0.24,0.359c0.342,0.693,0.153,1.674,0.18,2.4
	c0.016,0.429-0.001,0.965,0,1.14c0.007,0.888,0.124,1.614-0.06,2.22c-0.158,0.521,0.268,1.141-0.18,1.561
	c0.102,0.553,0.685,1.55,0.12,1.859c0.093,0.168,0.316,0.396,0,0.479c0.385,0.332,0.174,0.888,0.18,1.142
	c0.005,0.24,0.183,0.406,0.18,0.6c-0.005,0.312-0.229,0.781-0.24,1.14c0.151,0.05,0.083,0.315,0.18,0.42
	c-0.231,1.972,0.047,3.343,0.06,5.341c-0.452,0.907-0.048,1.84,0,2.819c-0.184,0.138-0.188,0.104-0.42,0.062c0,0.26,0,0.52,0,0.778
	c0.354-0.045-0.042,0.349,0.3,0.36c-0.024,0.177-0.015,0.566-0.18,0.42c-0.044,0.245,0.193,0.207,0.12,0.48
	c0.064,0.224-0.149,0.17-0.12,0.358c0.312,1.039,0.071,2.869,0.06,3.722c0.056,0.062,0.222,0.019,0.18,0.18
	c0.216,1.191-0.199,2.64,0.06,3.359c0.359-0.014,0.557-0.326,0.78,0c0.164-0.346,0.663,0.143,0.96,0.119
	c0.524-0.346,1.489,0.12,2.1-0.18c0.226,0.247,0.373,0.238,0.601,0.42c0.056-0.482,0.442,0.052,0.66-0.301
	c0.121,0.373,0.529,0.103,0.84,0.24c0.195-0.498,0.881,0.229,1.2-0.181c0.276,0.366,0.758,0.104,1.079,0
	c0.145-0.022-0.032,0.272,0.181,0.181c0.202-0.244,0.804-0.213,1.14,0c0.954-0.346,1.862,0.188,2.46-0.24
	c0.556,0.111,0.866,0.08,1.681,0.121c0.095-0.006,0.047-0.153,0.18-0.121c1.037,0.203,2.061,0.498,3.12,0.24
	c0.143,0.254,0.61,0.088,0.72-0.061c0.123,0.018,0.118,0.163,0.24,0.182c0.705-0.396,1.474-0.258,2.22,0
	c0.142-0.02,0.112-0.209,0.3-0.182c-0.018,0.118,0.081,0.119,0.12,0.182c0.34-0.117,0.566-0.25,0.84,0
	c0.213-0.34,0.737,0.002,1.021-0.24c-0.015,0.113,0.066,0.132,0.06,0.24c0.761-0.057,2.362,0.065,2.94-0.121
	c2.083,0.228,3.846-0.041,5.64-0.061c0.059-0.081,0.16-0.119,0.24-0.18c0.176-0.896-0.088-2.276,0.3-3
	c-0.279-0.102-0.128-0.633-0.24-0.9c-0.019-0.138,0.173-0.066,0.18-0.18c-0.109-0.309-0.331-0.781-0.06-1.2
	c-0.183-0.513-0.339-1.173-0.18-1.681c-0.205-0.701-0.199-1.498-0.24-2.219c-0.033-0.567,0.169-1.174,0-1.802
	c-2.082-0.428-3.616,0.058-5.58-0.42c-0.206,0.271-0.874,0.209-1.02-0.06c-0.053,0.088-0.091,0.189-0.24,0.18
	c-0.955,0.003-2.379,0.1-3.36-0.18c-0.775,0.244-1.929,0.05-2.88,0.06c-0.522,0.007-0.95,0.132-1.38,0.062
	c-0.109-0.02-0.236-0.172-0.36-0.182c-0.234-0.017-0.512,0.133-0.779,0.12c-0.729-0.028-1.339-0.116-2.16-0.06
	c-0.265-0.221-0.698-0.207-0.9-0.42c0.006-0.299-0.059-0.295,0-0.541c-0.086-0.133-0.146,0.076-0.18-0.061
	c0.432-2.941-0.264-4.98,0.18-7.499c-0.12-0.295-0.129-0.464-0.239-0.841c0.152-0.201,0.002-0.35,0.18-0.479
	c-0.362-1.104,0.356-2.099-0.18-2.94c0.071-0.368,0.205-0.731,0-1.08c0.171-0.299,0.307-0.712,0.06-0.959
	c0.071-0.13,0.125-0.276,0.18-0.42c-0.023-0.115-0.231-0.047-0.18-0.24c0.156-0.751-0.325-1.827,0.72-1.8
	c0.574-0.363,0.879-0.107,1.5-0.301c0.207,0.228,0.409,0.094,0.66,0.24c0.118-0.424,0.552,0.104,0.72-0.18
	c0.086,0.174,0.233,0.287,0.48,0.301c0.089-0.131,0.117-0.324,0.24-0.42c0.739,0.094,1.509-0.093,2.34,0.299
	c0.163,0.043-0.043-0.283,0.12-0.24c0.19,0.117,0.436-0.086,0.6,0.121c0.773-0.537,1.643-0.262,2.58-0.121
	c0.22-0.512,0.857-0.256,1.26-0.539c-0.102-0.754,0.18-1.23,0.061-1.98c0.172-0.059,0.242-0.433,0.479-0.24
	c0.188-0.553-0.202-0.979-0.479-1.259C418.781,51.495,418.542,50.875,418.793,50.603z M574.614,16.403
	c-7.036,0.127-14.123-0.105-21.66,0.06c-0.345,2.169-0.094,4.403-0.18,6.66c-0.151,3.952-0.074,8.051-0.182,12.06
	c-0.043,1.642,0.049,3.287,0,4.92c-0.091,3.109-0.153,6.257-0.06,9.36c0.191,6.327-0.025,12.655,0.06,19.02
	c0.074,5.525,0.293,11.771-0.358,16.74c4.318-0.107,7.899,0.154,12.18,0.119c0.561-0.688,0.341-1.715,0.3-2.639
	c-0.021-0.513,0.033-1.029,0.062-1.562c0.058-1.157-0.19-2.935,0.18-4.08c-0.292-1.556-0.182-3.425-0.18-5.101
	c0.004-5.48,0.01-10.369,0.119-16.02c3.222-0.038,5.924,0.23,8.399,0.359c0.893,0.048,1.91-0.041,2.88,0.121
	c1.268,0.211,2.422,1.027,3.182,1.68c0.633,0.545,1.055,1.072,1.5,1.8c0.804,1.313,0.981,2.886,1.02,4.921
	c0.011,0.553,0.09,1.088,0.061,1.619c-0.131,2.327,0.033,4.721,0.119,6.9c0.049,1.229-0.061,2.387,0,3.539
	c0.151,2.842-0.047,5.768,0.54,8.341c1.288,0.204,2.632,0.294,3.9,0.18c2.518-0.226,5.031,0.247,6.96-0.239
	c0.165-1.061,0.087-2.123,0.06-3.181c-0.036-1.483,0.009-2.767,0.062-4.2c0.008-0.201-0.116-0.385-0.12-0.6
	c-0.005-0.258,0.118-0.521,0.12-0.78c0.003-0.543-0.086-1.073-0.062-1.62c0.105-2.199-0.057-4.188,0.12-6.06
	c-0.188-0.825-0.147-1.921,0.062-2.88c-0.243-1.15-0.238-2.527-0.24-3.961c-0.001-0.699,0.26-2.241,0-2.939
	c-0.095-0.254-0.719-0.695-1.08-1.02c-2.618-2.35-5.193-4.883-7.56-7.2c2.069-1.847,4.096-3.765,6.238-5.64
	c0.488-0.426,1.842-1.346,2.04-1.92c0.338-0.973,0.085-2.334,0.12-3.48c0.075-2.413-0.053-4.346,0.062-6.84
	c0.051-1.126,0.279-2.609,0.119-3.66c-0.109-0.723-1.146-1.616-1.619-2.28c-2.544-3.573-5.417-7.148-7.98-10.56
	C580.632,16.255,577.39,16.353,574.614,16.403z M365.574,16.523c-2.194-0.071-4.222-0.174-6.6,0c0.226,11.424-0.12,22.419,0,32.76
	c0.017,1.484-0.148,2.971-0.12,4.44c0.007,0.374,0.119,0.766,0.12,1.14c0.009,2.642-0.062,5.247-0.06,7.919
	c0,0.407,0.17,0.797,0.18,1.2c0.046,1.845-0.098,3.69-0.12,5.521c-0.009,0.709,0.108,1.435,0.12,2.16
	c0.024,1.442-0.006,2.93,0,4.439c0.003,0.771-0.107,1.543-0.12,2.34c-0.032,1.914,0.306,4.197,0.06,6.061
	c1.168,0.207,2.412,0.357,3.6,0.359c5.661,0.014,11.834,0.057,17.16,0.24c3.313,0.115,6.793-0.036,10.02,0.12
	c0.542-3.468,0.252-7.245,0.3-10.921c-3.325-0.243-6.396-0.43-10.08-0.479c-2.474-0.033-4.015,0.027-6.84,0
	c-0.886-0.01-2.152,0.149-2.46-0.181c-0.178-0.19-0.047-0.949-0.06-1.56c-0.016-0.731-0.016-1.437,0-1.92
	c0.23-6.998,0.108-13.443,0-19.562c-0.007-0.4,0.072-0.843,0.06-1.26c-0.201-6.863,0.091-15.584,0-21.78
	c-0.013-0.834-0.303-1.695,0.18-2.28c-0.553-0.621-0.24-1.809-0.24-2.76c0-1.635-0.359-3.17-0.12-4.98
	c0.037-0.279,0.268-0.504,0.12-0.78C368.984,16.351,367.194,16.576,365.574,16.523z M811.614,30.023
	c-3.297-4.543-6.47-9.211-10.021-13.5c-0.179,0-0.204,0.156-0.358,0.18c-3.098,0.022-5.761-0.031-8.521,0
	c-1.034,0.012-2.171-0.025-3.12,0.06c-1.78,0.159-3.802-0.318-5.22,0.06c-0.141-0.12-0.382-0.138-0.66-0.12
	c-2.012,2.309-3.492,5.148-5.58,7.38c-1.281,2.179-2.914,4.006-4.26,6.12c0.238,2.212-0.014,4.652,0,6.54
	c0.485,2.293-0.01,5.622,0.3,7.92c-0.18,0.45-0.105,0.831-0.06,1.5c0.473,0.128,0.919,0.281,1.14,0.66
	c2.644,1.177,4.803,2.837,7.44,4.02c0.121,0.139,0.198,0.32,0.42,0.36c0.875,0.385,1.43,1.09,2.46,1.32
	c0.026,0.252,0.284,0.276,0.359,0.479c2.236,1.264,4.533,2.467,6.601,3.9c0.639,0.102,0.853,0.463,1.32,0.721
	c0.326,0.181,0.727,0.256,0.96,0.42c0.168,0.117,0.255,0.356,0.42,0.479c0.405,0.302,0.967,0.433,1.38,0.72
	c0.341,0.237,0.667,0.655,1.02,0.961c1.814,0.604,2.658,2.182,3.602,3.658c-0.079,0.723,0.439,1.17,0.6,1.801
	c0.361,1.435-0.255,3.137-0.54,4.68c-0.945,0.834-1.171,2.39-2.64,2.701c-1.368,1.24-3.688,1.611-5.94,1.799
	c-0.21,0.035-0.197-0.282-0.358-0.119c-0.493,0.02-0.641,0.018-1.021,0.119c-1.017-0.188-1.586-0.305-2.398-0.659
	c-1.306-0.567-2.179-1.483-3-2.46c-0.217-0.256-0.496-0.542-0.602-0.721c-0.111-0.189-0.079-0.455-0.18-0.66
	c-0.137-0.277-0.409-0.479-0.54-0.779c-0.188-0.434-0.239-1.059-0.36-1.68c-0.15-0.782-0.461-1.643-0.3-2.16
	c-0.444-0.389-0.214-1.086-0.479-1.62c-3.144,0.058-6.233,0.153-9.061-0.06c0.022,2.582,0.136,5.435-0.3,7.799
	c2.112,2.978,4.689,6.395,7.02,9.541c0.118,0.111,0.02,0.22,0,0.359c0.738,0.319,1.008,1.131,1.44,1.739
	c0.439,0.617,1.085,1.136,1.38,1.86c1.497,0.092,3.085,0.195,4.74,0.18c2.517-0.023,5.084,0.005,7.62,0.182
	c1.436-0.295,3.548-0.146,5.398-0.121c0.665,0.01,2.176,0.209,2.58,0.061c0.271-0.1,0.938-1.047,1.142-1.32
	c0.522-0.701,1.03-1.431,1.38-2.158c0.209-0.111,0.332-0.31,0.54-0.42c-0.069-0.25,0.126-0.234,0.12-0.422
	c1.912-2.347,3.589-4.93,5.278-7.5c0.106-0.113,0.298-0.142,0.42-0.238c-0.232-0.34,0.42-0.762,0.66-1.021
	c0.203-4.736,0.126-9.785,0.12-15.24c-1.537-1.463-3.808-2.191-5.4-3.6c-0.858-0.221-1.459-0.701-1.979-1.26
	c-0.606,0.074-0.701-0.339-1.021-0.541c-0.319-0.203-0.79-0.21-1.079-0.36c-0.446-0.231-0.778-0.73-1.141-1.02
	c-1.776-0.583-2.902-1.817-4.56-2.52c-0.116-0.084-0.18-0.222-0.24-0.36c-0.562-0.079-0.946-0.333-1.2-0.72
	c-3.004-1.298-5.353-3.427-7.8-5.1c-0.283-0.669-0.926-0.907-1.32-1.44c-0.747-1.011-1.562-1.985-1.979-3.3
	c-0.548-1.73-0.109-4.305,0.72-5.7c0.716-1.205,2.125-2.416,3.3-2.88c1.271-0.502,2.938-0.748,4.32-0.66
	c1.229,0.078,2.217,0.64,3.42,1.08c0.583,0.213,0.945,0.91,1.439,1.2c0.112,0.241,0.105,0.28,0.181,0.6
	c0.688,0.37,0.896,1.225,1.438,1.74c0.383,1.109,0.893,2.418,1.08,3.78c0.098,0.7-0.039,1.414,0.24,1.98
	c1.179,0.211,2.866,0.521,3.96,0.18c1.565,0.121,3.483,0.121,4.98,0.06C811.6,36.063,811.464,32.401,811.614,30.023z
	 M714.354,50.963c0.261,0.145-0.19-0.142-0.181-0.3c0.163-0.731-0.22-1.893,0.24-2.22c-0.008-0.311-0.383-0.512-0.24-0.78
	c0.267-0.085,0.157,0.203,0.36,0.18c-0.038-0.224-0.267-0.294-0.12-0.54c-0.148,0.009-0.249-0.031-0.3-0.12
	c0.124-1.268-1.828-0.812-2.82-0.9c-0.273-0.024-0.612-0.175-0.84-0.18c-0.714-0.016-1.389,0.235-2.04,0.24
	c-0.658,0.005-1.33-0.126-1.92-0.24c-0.275,0.154-0.701,0.147-0.96,0c-0.126,0.035-0.171,0.149-0.36,0.12
	c-0.399-0.226-1.237,0.119-1.739-0.36c-0.055-0.132,0.009-0.258-0.061-0.48c-0.115-0.105-0.369-0.071-0.36-0.3
	c0.087-0.257,0.358,0.042,0.48-0.18c-0.638,0.036-0.381-0.819-0.601-1.2c0.088-0.033,0.311,0.07,0.301-0.06
	c-0.447-0.443-0.451-1.387-0.182-2.16c-0.315-0.791,0.078-2.293-0.238-3.24c0.084-0.116,0.157-0.241,0.18-0.42
	c-0.083-0.097-0.212-0.148-0.18-0.36c0.384-0.728-0.058-1.889-0.062-3c-0.002-0.602,0.225-1.182,0.24-1.68
	c0.039-1.228-0.421-2.661-0.181-3.6c0.063-0.25,0.283-0.315,0.239-0.72c0.786-0.384,1.774-0.453,2.4,0
	c0.355-0.333,0.864-0.103,1.38-0.36c0.088,0.133,0.04,0.4,0.181,0.48c0.377,0.014,0.486-0.176,0.899-0.06
	c0.116-0.024,0.048-0.233,0.24-0.18c0.748,0.084,1.24,0.003,2.04-0.12c0.218,0.256,0.517,0.074,0.72,0.36
	c0.079-0.22,0.318-0.281,0.479-0.42c1.109-0.083,2.725-0.033,3.54-0.06c1.053,0.354,2.472-0.096,3.359,0.18
	c0.91-0.448,2.12,0.06,3.061-0.24c0.187,0.034,0.157,0.282,0.359,0.3c0.598-1.695,0.222-3.524,0.42-5.34c0.061,0,0.12,0,0.181,0
	c-0.526-1.915-0.483-4.118-0.601-5.7c-2.534-0.124-5.412-0.536-7.92-0.3c-0.718,0.067-1.381-0.19-2.1-0.18
	c-1.471,0.02-3.317,0.176-4.86-0.06c-0.205,0.172-0.943,0.284-1.14-0.12c-0.218,0.023-0.287,0.194-0.42,0.3
	c-0.468-0.258-1.477,0.145-2.04-0.24c-1.768,0.209-3.268-0.106-4.801,0.12c-0.096-0.044,0.015-0.294-0.181-0.24
	c-0.085,0.215-0.387,0.213-0.6,0.3c-0.22-0.298-0.898-0.08-1.261,0c-0.018-0.124-0.159-0.12-0.239-0.18
	c-0.97,0.039-2.359,0.098-3.42-0.06c-0.5-0.023-1.42,0.211-2.04,0c-0.188,0.832,0.008,1.382-0.301,1.98
	c0.229,0.991,0.286,2.118,0,3.06c0.177,1.702-0.059,3.115-0.061,4.86c0.054,0.126,0.094,0.267,0.181,0.36
	c-0.144,0.157-0.356,0.244-0.421,0.48c0.62,1.884,0.448,4.083,0.48,6.42c0.021,1.681-0.203,3.378-0.24,4.8
	c-0.006,0.248,0.134,0.444-0.06,0.6c0.292,0.36-0.146,1.264,0.18,1.68c-0.057,0.064-0.222,0.019-0.18,0.18
	c0.275,0.198,0.371,1.746,0.119,2.46c0.427,1.816-0.037,3.637,0.181,5.46c-0.095,0.005-0.208-0.008-0.181,0.12
	c0.47,1.722-0.001,3.377,0.12,4.8c-0.038,0.163-0.251,0.148-0.239,0.36c0.343,0.692,0.151,1.673,0.18,2.399
	c0.016,0.43-0.001,0.965,0,1.141c0.008,0.887,0.124,1.613-0.061,2.22c-0.158,0.521,0.268,1.142-0.181,1.562
	c0.103,0.553,0.687,1.549,0.12,1.858c0.093,0.169,0.316,0.396,0,0.479c0.385,0.332,0.175,0.888,0.181,1.141
	c0.004,0.24,0.183,0.428,0.181,0.602c-0.006,0.33-0.229,0.772-0.24,1.14c0.15,0.049,0.084,0.315,0.18,0.42
	c-0.229,1.972,0.048,3.342,0.062,5.34c-0.451,0.907-0.048,1.839,0,2.819c-0.185,0.137-0.188,0.104-0.42,0.061
	c0,0.262,0,0.521,0,0.78c0.354-0.046-0.042,0.349,0.3,0.36c-0.024,0.176-0.017,0.565-0.181,0.42
	c-0.045,0.244,0.193,0.205,0.12,0.479c0.063,0.225-0.148,0.171-0.12,0.359c0.312,1.039,0.07,2.869,0.061,3.721
	c0.056,0.064,0.222,0.02,0.18,0.182c0.217,1.189-0.198,2.639,0.062,3.358c0.358-0.015,0.558-0.326,0.779,0
	c0.163-0.345,0.662,0.144,0.96,0.12c0.524-0.346,1.488,0.119,2.101-0.18c0.225,0.246,0.372,0.238,0.6,0.42
	c0.057-0.482,0.443,0.051,0.66-0.301c0.122,0.373,0.53,0.102,0.84,0.239c0.196-0.499,0.881,0.229,1.2-0.18
	c0.277,0.364,0.759,0.104,1.08,0c0.144-0.022-0.033,0.272,0.18,0.18c0.202-0.245,0.805-0.214,1.142,0
	c0.953-0.346,1.86,0.188,2.46-0.239c0.557,0.11,0.866,0.08,1.68,0.119c0.095-0.005,0.047-0.152,0.18-0.119
	c1.037,0.203,2.062,0.498,3.12,0.239c0.144,0.255,0.611,0.089,0.721-0.06c0.122,0.018,0.117,0.162,0.239,0.18
	c0.705-0.395,1.476-0.257,2.222,0c0.142-0.02,0.11-0.208,0.3-0.18c-0.019,0.117,0.081,0.119,0.12,0.18
	c0.34-0.115,0.565-0.249,0.84,0c0.213-0.338,0.736,0.003,1.02-0.24c-0.013,0.114,0.067,0.133,0.062,0.24
	c0.761-0.055,2.36,0.066,2.938-0.12c2.084,0.228,3.847-0.041,5.642-0.06c0.059-0.082,0.159-0.12,0.239-0.18
	c0.177-0.896-0.088-2.277,0.301-3c-0.279-0.103-0.129-0.633-0.24-0.9c-0.02-0.139,0.173-0.066,0.18-0.18
	c-0.108-0.309-0.331-0.783-0.06-1.201c-0.184-0.512-0.339-1.174-0.181-1.68c-0.205-0.701-0.198-1.5-0.239-2.221
	c-0.032-0.566,0.169-1.173,0-1.8c-2.082-0.429-3.616,0.058-5.58-0.421c-0.205,0.271-0.873,0.209-1.021-0.059
	c-0.052,0.088-0.09,0.188-0.239,0.18c-0.955,0.002-2.38,0.099-3.359-0.18c-0.776,0.243-1.929,0.049-2.88,0.059
	c-0.523,0.007-0.95,0.132-1.38,0.061c-0.109-0.018-0.236-0.171-0.36-0.18c-0.235-0.018-0.512,0.131-0.78,0.119
	c-0.729-0.028-1.339-0.116-2.159-0.059c-0.265-0.221-0.697-0.207-0.899-0.422c0.007-0.297-0.06-0.294,0-0.539
	c-0.087-0.133-0.146,0.075-0.18-0.061c0.432-2.943-0.266-4.98,0.18-7.5c-0.119-0.295-0.129-0.463-0.24-0.84
	c0.152-0.202,0.003-0.35,0.18-0.48c-0.36-1.104,0.357-2.097-0.18-2.939c0.072-0.367,0.205-0.73,0-1.08
	c0.171-0.299,0.307-0.711,0.061-0.959c0.07-0.129,0.125-0.275,0.181-0.42c-0.024-0.117-0.232-0.047-0.181-0.24
	c0.155-0.752-0.324-1.828,0.721-1.801c0.572-0.362,0.88-0.107,1.5-0.299c0.206,0.227,0.409,0.092,0.66,0.239
	c0.117-0.423,0.552,0.103,0.72-0.18c0.086,0.174,0.232,0.286,0.479,0.3c0.088-0.131,0.116-0.322,0.239-0.42
	c0.74,0.094,1.51-0.092,2.34,0.3c0.163,0.043-0.042-0.282,0.12-0.239c0.191,0.116,0.437-0.088,0.602,0.119
	c0.771-0.535,1.643-0.261,2.58-0.119c0.22-0.514,0.855-0.256,1.26-0.541c-0.104-0.754,0.179-1.229,0.06-1.979
	c0.173-0.06,0.244-0.433,0.48-0.24c0.188-0.554-0.201-0.979-0.48-1.26C714.341,51.855,714.102,51.234,714.354,50.963z
	 M162.414,17.003c-1.037-0.059-2.082-0.297-3.12-0.3c-0.215,0-0.439,0.109-0.66,0.12c-1.921,0.097-3.943-0.015-5.88-0.06
	c-2.108-0.049-3.801,0.019-5.76,0c-0.916-0.009-2.236,0.058-3.42,0.06c-2.59,0.004-5.456,0.027-7.74,0.06
	c-0.875,0.013-1.527-0.146-2.16,0c-0.312,0.424-0.086,0.932-0.12,1.38c-0.018,0.239-0.164,0.478-0.18,0.72
	c-0.031,0.455,0.099,1.04,0.06,1.62c-0.039,0.584-0.258,1.253-0.18,1.74c0.029,0.179,0.166,0.302,0.18,0.48
	c0.281,3.448-0.14,7.029,0.06,10.56c0.133,2.354,0.123,4.567,0.18,6.84c0.017,0.66-0.152,1.319-0.12,1.98
	c0.045,0.93,0.281,1.817,0.24,2.7c-0.02,0.443-0.19,0.884-0.18,1.32c0.014,0.609,0.314,1.22-0.06,1.8
	c0.344,0.442,0.13,0.819,0.12,1.38c-0.004,0.236,0.112,0.448,0.12,0.72c0.006,0.214-0.123,0.418-0.12,0.66
	c0.02,1.586,0.568,2.727-0.36,3.18c0.194-0.034,0.302,0.018,0.36,0.119c-0.064,0.742,0.185,1.375,0.18,2.101
	c-0.008,1.129-0.265,2.304-0.18,3.42c0.021,0.274,0.168,0.515,0.18,0.78c0.01,0.22-0.062,0.434-0.06,0.66
	c0.014,2.002,0.213,4.193,0.06,6.299c-0.048,0.662-0.353,1.164-0.3,1.74c0.027,0.293,0.238,0.582,0.24,0.899
	c0.001,0.159-0.081,0.259-0.06,0.42c0.087,0.669,0.165,1.287,0.18,2.101c0.008,0.414,0.086,0.877,0.06,1.261
	c-0.039,0.563-0.267,1.101-0.24,1.68c0.05,1.067,0.439,2.2,0,3.302c0.321,1.776-0.008,3.85,0,5.639
	c0.718,0.287,1.6,0.486,2.52,0.479c0.217-0.001,0.392-0.161,0.6-0.18c0.206-0.019,0.555,0.163,0.84,0.18
	c0.193,0.013,0.555-0.161,0.9-0.18c0.283-0.015,0.646,0.101,0.96,0.12c0.315,0.02,0.729,0.138,1.02,0.119
	c0.106-0.006,0.269-0.17,0.36-0.18c0.452-0.051,1.006-0.002,1.5,0c3.066,0.01,5.904-0.01,8.82,0.239
	c0.124-0.075,0.311-0.09,0.42-0.181c0.454,0.236,0.849-0.018,1.32,0c0.372,0.015,0.409,0.181,0.66,0.24
	c0.236,0.057,0.677,0.082,0.9,0.061c0.308-0.031,0.582-0.254,0.9-0.301c0.857-0.123,1.752,0.173,2.58,0.301
	c0.944-0.184,2.268-0.109,3.54-0.12c1.249-0.009,2.498,0.084,3.48-0.12c0.094-1.474,0.379-3.47,0.18-4.979
	c0.015-0.225,0.139-0.342,0.24-0.48c-0.437-0.564-0.104-1.333-0.12-2.04c-0.027-1.196,0-2.438-0.18-3.72
	c-2.866,0.104-5.668-0.411-8.28-0.301c-3.268,0.141-6.51-0.062-10.2-0.239c0.086-0.306-0.184-0.256-0.24-0.42
	c-0.176-4.597-0.195-9.431-0.36-14.04c-0.03-0.846-0.056-1.742,0.18-2.58c1.146-0.266,2.505-0.309,3.66,0
	c-0.015-0.158-0.124-0.197,0.12-0.18c1.538-0.254,2.698-0.168,4.38-0.061c1.125-0.268,1.802,0.016,2.88-0.3
	c0.233-2.95,0.009-6.539,0-9.36c-1.191-0.063-2.407-0.396-3.78-0.24c-0.366,0.042-0.706,0.215-1.08,0.24
	c-0.449,0.03-0.888-0.092-1.38-0.12c-0.478-0.027-0.997,0.136-1.44,0.12c-0.245-0.009-0.47-0.114-0.72-0.12
	c-0.885-0.021-1.812-0.035-2.58-0.18c-0.166-2.271-0.124-4.254-0.06-6.48c-0.139-0.181-0.135-0.505-0.24-0.72
	c0.038-2.435,0.028-5.087,0-7.62c-0.013-1.201-0.3-2.341,0-3c1.129-0.192,2.316,0.031,3.3-0.06c0.392-0.037,0.768,0.136,1.14,0.12
	c0.444-0.019,0.875-0.238,1.32-0.24c0.414-0.001,0.99,0.069,1.26,0.12c0.354,0.067,0.646-0.096,1.14-0.12
	c0.383-0.019,0.76,0.185,1.14,0.18c0.552-0.007,1.127-0.051,1.74-0.06c1.25-0.02,2.652-0.18,3.9-0.12
	c0.305,0.015,0.543,0.136,0.84,0.12c0.92-0.049,2.021-0.393,3.06,0.06c0.04-3.85,0.378-7.395-0.24-11.04
	C163.908,16.845,163.145,17.044,162.414,17.003z M639.474,42.983c-0.103-4.174-0.073-8.879,0.181-13.32
	c-3.151-4.249-6.307-8.494-9.48-12.72c-0.559-0.086-1.203-0.106-2.04-0.12c-0.941-0.016-1.729,0.081-2.52,0.12
	c-1.609,0.081-3.165,0.046-4.44,0.06c-7.223,0.076-14.418-0.2-22.318,0c-0.39,8.672-0.257,17.352-0.421,26.34
	c-0.083,4.537-0.181,9.128-0.119,13.8c0.061,4.664,0.136,9.432,0.119,14.279c-0.003,0.793-0.134,1.576-0.119,2.221
	c0.092,4.297,0.387,7.771-0.12,11.939c4.4,0.141,8.327-0.233,12.3-0.24c-0.047-8.518,0.256-18.336,0.3-27.479
	c0.003-0.517-0.052-1.367,0.12-1.681c0.364-0.667,2.009-0.453,3.18-0.42c4.96,0.14,11.078-0.183,15.48,0.06
	C633.101,51.771,636.055,47.145,639.474,42.983z M211.554,16.823c-3.736,0.223-7.534-0.081-11.1,0.3
	c-0.135,1.194-0.573,2.293-0.96,3.42c-0.393,1.142-0.515,2.373-0.84,3.54c-0.642,2.303-1.036,4.685-1.62,7.02
	c-0.579,2.313-1.172,4.623-1.68,6.96c-0.248,1.144-0.518,2.282-0.84,3.42c-0.327,1.154-0.456,2.367-0.72,3.54
	c-0.531,2.356-1.108,4.724-1.68,7.08c-0.566,2.334-1.105,4.676-1.62,7.021c-0.928,4.224-2.037,8.332-2.88,12.359
	c-0.128,0.613-0.2,1.289-0.36,1.859c-0.095,0.34-0.408,0.623-0.48,0.961c-0.087,0.41-0.041,0.843-0.12,1.26
	c-0.068,0.355-0.163,0.721-0.24,1.08c-0.287,1.338-0.539,2.466-0.84,3.84c-0.341,1.555-0.716,3.036-1.08,4.561
	c3.8,0.312,6.598-0.162,10.02-0.061c0.657-1.186,0.914-2.745,1.26-4.26c0.352-1.536,0.493-3.176,1.2-4.381
	c5.253,0.078,10.132,0.09,15.18,0.121c0.863,0.004,1.891-0.236,2.76,0.119c0.854,2.707,1.486,5.635,2.16,8.521
	c1.56,0.134,2.937,0.095,4.26,0c0.429-0.03,0.836,0.009,1.26,0c1.582-0.03,3.174-0.08,4.68-0.12c0.828-0.021,1.551,0.003,2.22,0
	c-0.01-1.346-0.947-2.967-0.96-4.5c-0.847-2.646-1.33-5.378-1.92-8.1c-0.171-0.791-0.536-1.533-0.72-2.34
	c-0.192-0.846-0.278-1.739-0.48-2.58c-0.916-3.826-1.897-7.641-2.82-11.461c-1.198-4.961-2.514-10.114-3.6-14.939
	c-0.357-1.585-0.803-3.447-1.14-4.86c-0.46-1.931-0.911-3.649-1.32-5.58c-0.158-0.748-0.444-1.49-0.6-2.22
	c-0.475-2.228-0.964-4.554-1.62-6.66c-0.236-0.758-0.323-1.541-0.54-2.28c-0.208-0.708-0.611-1.535-0.54-2.4
	C212.624,17.018,212.202,16.785,211.554,16.823z M737.034,18.083c-0.276,0.101-0.605-0.13-0.84,0.18
	c0.197,0.366-0.041,0.996-0.24,1.44c-0.3,0.44-0.714,0.767-0.84,1.38c-1.796,1.764-2.925,4.196-4.8,5.88
	c-0.425,1.217-1.301,1.98-1.98,2.94c-0.033,1.994-0.314,4.05,0.12,5.64c-0.545,1.229-0.11,2.545-0.12,3.78
	c-0.003,0.376-0.222,0.719-0.24,1.08c-0.02,0.399,0.149,0.81,0.182,1.2c0.117,1.519-0.206,3.076,0.06,4.5
	c1.51,1.202,3.216,2.125,4.92,3.06c1.693,0.929,3.308,2.081,4.98,3.06c0.822,0.482,1.653,0.99,2.46,1.5
	c2.505,1.586,4.992,3.056,7.5,4.561c0.156,0.062,0.367,0.071,0.6,0.059c0.771,0.75,1.68,1.361,2.7,1.861
	c0.618,0.853,1.641,1.33,2.34,2.1c0.264,0.289,0.362,0.703,0.72,0.9c0.782,1.697,1.503,3.188,1.562,5.1
	c0.058,1.927-0.889,3.242-1.8,4.32c-0.717,0.844-1.616,1.426-2.7,1.92c-1.103,0.5-2.667,0.895-3.72,0.779
	c-0.238-0.025-0.516-0.176-0.78-0.24c-0.314-0.076-0.663-0.041-0.9-0.119c-0.287-0.096-0.58-0.353-0.898-0.48
	c-0.937-0.375-1.414-0.541-2.16-1.08c-0.68-0.488-0.919-0.979-1.38-1.561c-0.426-0.535-0.733-0.979-1.021-1.619
	c-0.479-1.801-0.919-3.641-1.14-5.7c-2.813-0.414-6.168-0.106-8.94-0.3c-0.244,1.888-0.136,4.229-0.3,6.24
	c-0.048,0.586-0.158,1.086-0.12,1.619c0.049,0.687,0.346,0.812,0.66,1.26c0.212,0.304,0.361,0.634,0.66,0.781
	c1.127,1.637,2.219,3.369,3.359,5.039c1.151,1.688,2.438,3.264,3.54,4.92c0.372,0.562,0.764,1.697,1.319,1.979
	c0.393,0.198,0.939,0.028,1.5,0.062c4.542,0.25,9.333-0.166,13.979,0.06c1.116,0.055,2.261,0.054,3.359-0.12
	c1.154-1.926,2.652-3.508,3.66-5.58c1.218-1.425,2.588-3.216,3.601-4.859c0.35-0.566,0.771-1.177,1.141-1.681
	c0.213-0.29,0.568-0.536,0.66-0.899c0.14-0.562,0.069-1.41,0.119-2.16c0.049-0.729-0.065-1.444-0.061-2.1
	c0.004-0.336,0.184-0.668,0.181-1.021c-0.023-2.736-0.156-6.111-0.061-9c0.017-0.479,0.18-1.188,0.061-1.5
	c-0.106-0.278-1.07-0.933-1.5-1.2c-1.753-1.089-3.68-2.091-5.221-3c-2.267-1.337-4.694-2.665-6.779-4.2
	c-1.237-0.344-2.005-1.035-3-1.62c-2.313-1.359-4.732-2.473-6.601-4.2c-0.927-0.273-1.437-0.965-2.22-1.38
	c-0.676-1.295-1.811-2.037-2.221-3.48c-0.483-1.701-0.324-3.138,0.181-4.74c0.389-1.233,1.074-2.095,1.8-2.82
	c0.242-0.242,0.465-0.568,0.66-0.72c0.848-0.657,2.134-0.944,3.359-1.26c0.615-0.158,1.502-0.429,2.04-0.48
	c0.931-0.088,2.148,0.179,2.76,0.24c0.924,0.093,1.891,0.018,2.761,0.42c0.543,0.511,0.954,0.786,1.439,1.32
	c0.563,0.619,1.318,1.449,1.681,2.1c0.928,1.671,1.27,3.672,1.92,5.7c-0.053,0.196-0.158,0.562-0.061,0.72
	c0.295,0.416,0.904,0.248,1.439,0.24c1.371-0.021,2.806-0.083,4.2-0.06c1.003,0.017,2.649,0.353,3.06-0.06
	c0.261-0.262,0.089-0.433,0.12-0.9c0.032-0.475,0.135-1.498,0.24-2.16c-0.153-1.005-0.182-1.979-0.12-2.94
	c0.036-0.574,0.241-1.134,0.12-1.68c-0.25-1.131-1.506-1.849-1.74-2.94c-0.571-0.395-0.94-1.024-1.38-1.56
	c-0.446-0.544-0.86-1.159-1.26-1.74c-0.812-1.18-1.791-2.212-2.641-3.36c-0.942-1.275-1.698-2.677-2.641-3.96
	c-7.159-0.387-13.764,0.03-20.399-0.36C737.554,17.449,737.474,17.922,737.034,18.083z M547.074,75.323
	c-0.038-0.182,0.077-0.517-0.062-0.6C546.971,74.945,546.908,75.181,547.074,75.323z M426.534,75.443
	c-0.038-0.183,0.077-0.517-0.061-0.601C426.431,75.065,426.368,75.301,426.534,75.443z M722.093,75.803
	c-0.037-0.184,0.077-0.518-0.06-0.6C721.991,75.424,721.927,75.663,722.093,75.803z M549.474,80.183
	c-0.02-0.146,0.052-0.687-0.061-0.54C549.433,79.788,549.363,80.329,549.474,80.183z M549.474,80.963
	c-0.021-0.162,0.056-0.73-0.061-0.602C549.436,80.525,549.359,81.092,549.474,80.963z M549.474,83.002
	c-0.036-0.444,0.073-1.354-0.061-1.5C549.449,81.95,549.339,82.856,549.474,83.002z M303.654,83.422
	c0.113,0.015,0.132-0.066,0.24-0.061c-0.025-0.113-0.021-0.258-0.18-0.238C303.78,83.312,303.742,83.282,303.654,83.422z
	 M549.474,84.083c0.055-0.17,0.024-0.731-0.061-0.721C549.452,83.584,549.335,83.959,549.474,84.083z M549.474,86.303
	c0.037-0.721,0.13-1.303-0.061-1.92C549.454,85.002,549.333,85.784,549.474,86.303z M549.474,87.143
	c-0.025-0.195,0.062-0.816-0.061-0.721C549.44,86.62,549.354,87.241,549.474,87.143z M549.534,87.683
	c0.006-0.187-0.027-0.333-0.12-0.42C549.458,87.4,549.305,87.731,549.534,87.683z"/>
<path fill="#FFFFFF" d="M12.414,65.963c-0.271-0.065-0.519,0.086-0.84,0.119c-1.544,0.156-3.396,0.02-5.04,0.061
	c-0.856,0.021-1.939,0.148-2.22-0.359c-0.655-1.189,0.229-2.496,1.02-3.421c1.852-2.438,3.483-5.159,5.28-7.739
	c0.353-0.506,1.196-1.184,0.9-1.92c-0.156-0.388-0.702-0.736-0.96-1.141c-0.268-0.42-0.47-0.838-0.78-1.26
	c-0.441-0.6-0.92-1.13-1.32-1.74c-0.046-0.07,0.042-0.226,0-0.3c-0.067-0.12-0.288-0.112-0.42-0.3
	c-0.637-1.335-2.051-2.45-2.58-4.26c-0.11-0.375-0.149-0.925-0.3-1.44c-0.067-0.227-0.216-0.312-0.24-0.6
	c-0.024-0.281,0.095-0.495,0-0.72c-0.041-0.097-0.161,0.019-0.24-0.06c-0.155-0.155-0.277-0.625-0.36-0.9
	c-0.172-0.57-0.374-1.043-0.18-1.56c0.45-0.266,0.961-0.119,1.38-0.06c0.365,0.051,0.942-0.044,1.08,0.42
	c1.651,0.104,2.998,0.224,5.1,0.18c0.217,0.088,0.154-0.236,0.18-0.36c0.234-1.107,0.235-2.702,0.3-4.2
	c0.028-0.651,0.157-1.311,0.18-1.92c0.033-0.893-0.29-1.958,0.3-2.4c0.678-0.507,2.623-0.118,3.66-0.12
	c0.629-0.001,1.245-0.081,1.86-0.06c0.614,0.021,1.216,0.076,1.74,0c0.263-0.038,0.257,0.118,0.48-0.18
	c0.067-0.089,0.35-0.7,0.42-0.84c0.973-1.953,1.893-3.934,2.82-5.94c1.036-2.241,2.254-4.611,3.24-6.72
	c1.151-2.463,2.031-4.428,3.24-6.78c0.78-1.517,1.594-3.323,2.46-5.04c0.587-1.165,1.146-1.178,2.46-1.14
	c8.145,0.233,16.355,0.06,24.6,0.06c253.688,0.002,507.406-0.002,761.22,0c2.08,0,3.989-0.201,5.819,0
	c0.74,0.081,1.315,1.724,1.681,2.46c0.987,1.992,1.697,3.71,2.58,5.7c2.146,4.837,4.315,9.342,6.42,14.16
	c0.392,0.39,0.625,0.922,0.899,1.44c0.293,0.552,0.523,1.591,1.141,1.74c0.555,0.134,1.265-0.071,1.921-0.12
	c1.737-0.13,3.09-0.073,4.738-0.06c0.579,0.005,0.924-0.165,1.32,0.24c0.124,1.731,0.134,3.704,0.18,5.64
	c0.014,0.539-0.116,1.097-0.06,1.56c0.121,0.982,1.296,0.724,2.22,0.72c0.597-0.002,1.23,0.068,1.8,0.06
	c0.981-0.014,1.824-0.843,2.761-0.6c0.615,0.195,0.711,0.758,0.779,1.26c0.102,1.258-0.406,2.51-0.96,3.54
	c-0.934,1.738-2.121,3.364-3.239,4.98c-0.153,0.222-0.396,0.386-0.54,0.6c-0.335,0.501-0.512,1.066-0.84,1.5
	c-0.459,0.606-1.569,1.221-1.439,2.04c0.928,1.153,1.961,2.549,2.939,3.84c0.196,0.261,0.285,0.569,0.479,0.84
	c0.332,0.462,0.82,0.917,1.2,1.44c0.773,1.068,1.479,2.164,2.279,3.119c0.632,0.757,1.066,1.486,1.619,2.4
	c0.361,0.596,1.253,1.252,0.66,2.221c-2.188,0.213-4.79,0.162-6.72,0.238c-0.599,0.024-1.163,0.356-1.62,0.061
	c-0.148,0.173-0.461,0.18-0.66,0.301c-0.124,1.264-0.063,2.648-0.18,4.021c-0.042,0.498-0.021,1.029-0.061,1.619
	c-0.07,1.051,0.271,2.262-0.899,2.521c-0.973,0.214-2.418,0.028-3.601,0c-1.005-0.024-2.34-0.282-3.12-0.06
	c-0.52,0.146-0.589,0.403-0.721,1.02c-1.294,1.857-2.15,4.048-3.239,6.18c-1.04,2.038-2.189,4.098-3.181,6.24
	c-0.95,2.059-2.128,4.064-3.12,6.3c-0.434,0.979-0.995,2.009-1.56,3.12c-0.467,0.918-0.956,2.674-1.74,2.939
	c-0.285,0.098-0.688-0.022-0.96,0.061c-0.433,0.132-0.317-0.072-0.42,0.3c-0.037,0.136,0.024,0.354,0,0.722c-0.062,0-0.12,0-0.181,0
	c-263.267-0.041-526.477,0.08-789.66-0.062c-0.007-0.213,0.082-0.522-0.24-0.42c-1.992,0.354-2.722-1.241-3.48-2.761
	c-0.264-0.527-0.396-1.102-0.66-1.561c-1.406-2.441-2.778-5.201-4.08-7.68c-2.316-4.404-4.499-8.857-6.6-12.779
	c-1.512-0.109-3.611,0.04-5.82,0.18c-1.116,0.07-2,0.365-2.22-0.601c-0.232-1.019-0.054-2.573-0.06-3.778
	c-0.003-0.666-0.021-1.482,0-2.222C12.434,67.237,12.545,66.417,12.414,65.963z M823.133,3.623c0.146,0.187,0.267,0.045,0.36-0.12
	C823.334,3.504,823.14,3.47,823.133,3.623z M34.674,4.043c0.12,0,0.24,0,0.36,0c0.017-0.137-0.015-0.226-0.12-0.24
	c0.002,0.298-0.225,0.108-0.3,0C34.6,3.917,34.681,3.936,34.674,4.043z M37.914,6.023c-0.009,0.07,0.01,0.17-0.06,0.18
	c-0.871,0.14-2.021-0.256-2.94,0.12c-3.077,6.013-6.029,13.039-9.24,19.2c-0.911,1.747-1.931,3.763-2.82,5.46
	c-0.152,0.291-0.207,0.628-0.36,0.84c-0.25,0.346-0.613,0.237-1.14,0.24c-2.462,0.014-4.258,0.143-6.24,0.06
	c-0.48,1.016-0.326,2.897-0.36,4.5c-0.033,1.527-0.108,2.839-0.12,4.2c-1.41,0.169-2.548,0.187-3.78,0.3
	c-0.133,0.012-0.274,0.079-0.36,0.06c-0.146-0.032-0.207-0.178-0.36-0.18c-0.269-0.004-0.622,0.16-0.9,0.18
	c-0.596,0.043-1.275-0.004-1.92,0c1.004,1.794,2.533,3.36,3.66,5.28c0.144,0.245,0.16,0.553,0.3,0.78
	c0.123,0.198,0.388,0.396,0.54,0.6c0.674,0.906,1.147,1.759,1.74,2.7c0.426,0.676,1.164,1.429,0.9,2.22
	c-0.206,0.616-0.826,1.308-1.2,1.8c-0.991,1.307-1.861,2.622-2.76,3.96c-0.89,1.326-1.856,2.636-2.82,3.839
	c-0.337,0.422-0.785,0.955-0.6,1.561c2.295,0.143,5.104-0.262,7.32-0.061c0.19,1.385,0.145,2.959,0.18,4.32
	c0.015,0.576,0.153,1.162,0.18,1.74c0.04,0.845-0.179,1.793,0.3,2.279c2.492,0.305,5.269-0.047,7.38,0.119
	c0.57,1.076,1.044,2.295,1.62,3.422c1.519,2.971,3.074,5.834,4.56,8.879c0.47,0.965,0.981,1.943,1.44,3
	c0.44,1.014,1.032,1.979,1.5,3c0.573,1.252,1.393,2.758,1.98,4.08c0.063,0.143,0.222,0.155,0.3,0.301
	c0.459,0.853,0.339,1.881,1.38,1.979c0.146,0.188,0.47,0.273,0.36-0.18c262.87-0.28,526.273-0.041,789.24-0.12
	c0.18,0.062,0.105-0.134,0.119-0.24c-0.179-0.601,0.273-0.532,0.54-0.54c2.186-3.845,4.033-8.227,6.301-12.54
	c0.531-1.013,0.966-2.11,1.5-3.18c0.514-1.028,1.134-2.028,1.68-3.06c0.824-1.56,1.471-3.185,2.28-4.802
	c0.487-0.976,0.734-1.754,1.739-1.739c0.964,0.014,1.928,0.205,3.119,0.18c1.223-0.023,2.495,0.148,3.48-0.119
	c0.083-1.303,0.11-2.818,0.12-4.2c0.007-1.219-0.035-2.56,0.18-3.479c0.033-0.139-0.084-0.299,0.18-0.359
	c2.567-0.1,4.713-0.245,7.021-0.24c-1.784-2.861-3.681-5.574-5.58-8.339c-0.234-0.34-0.626-0.737-0.96-1.2
	c-0.557-0.771-1.211-1.363-0.66-2.28c1.289-2.145,3.074-4.437,4.38-6.6c0.156-0.584,0.825-0.656,0.9-1.32
	c0.536-0.865,1.511-1.607,1.62-2.7c-0.798-0.193-1.843-0.032-2.341-0.06c-0.642-0.036-1.473,0.06-2.46,0.12
	c-0.712,0.043-1.604,0.369-1.921-0.12c-0.204-2.579-0.451-5.535-0.479-8.04c-2.594-0.325-5.036,0.22-7.562,0.18
	c-0.637-1.031-1.035-2.284-1.619-3.42c-0.793-1.542-1.637-3.207-2.279-4.74c-0.119-0.284-0.166-0.582-0.301-0.84
	c-0.133-0.256-0.35-0.453-0.479-0.72c-1.053-2.154-1.936-4.244-3.061-6.3c-0.562-1.027-0.975-2.148-1.5-3.18
	c-0.918-1.801-1.847-3.653-2.641-5.52c-0.117-0.276-0.178-0.702-0.3-0.9c-0.31-0.5-1.516-0.36-2.399-0.36
	c-1.47,0-2.904,0.019-4.261,0.06c-0.67,0.02-1.367,0.166-1.92,0.06c-0.161-0.031-0.21-0.153-0.359-0.18
	c-0.548-0.098-1.124,0-1.681,0c-20.308,0-39.52,0-59.76,0c-47.521,0-95.386,0-142.5,0c-12.22,0-23.622-0.049-33.721,0.12
	c-4.855,0.082-10.522-0.175-15.479-0.06c-5.471,0.127-11.016,0.067-15.96,0.06c-0.464-0.115-0.905,0.124-1.38,0.12
	c-0.248-0.001-0.533-0.042-0.78-0.06c-0.227-0.017-0.364-0.006-0.6,0c-0.983,0.027-1.998,0.004-3.061,0
	c-1.36-0.005-2.854,0.071-4.62,0c-0.523-0.021-1.083-0.214-1.439,0c-0.227-0.091-0.44-0.1-0.66-0.06
	c-3.654-0.096-7.676-0.12-12.12-0.12c-13.586,0-27.465,0-40.859,0c-2.232,0-4.484-0.079-6.659,0c-6.078,0.22-12.931,0-19.86,0
	c-8.171,0-17.601-0.331-25.02,0.12c-0.53,0.032-1.132-0.187-1.5-0.12c-0.384,0.069-0.29,0.079-0.48,0.36
	c-0.417-0.153-1.387,0.086-1.74-0.36c-0.156,0.512-0.949,0.167-1.319,0.36c-0.72-0.149-1.544-0.129-2.341-0.06
	c-1.242,0.107-2.354,0.003-3.659,0c-0.835-0.002-1.664,0.029-2.7,0c-0.418-0.012-1.029,0.145-1.32-0.3
	c-0.292-0.128-0.089,0.545-0.3,0.3c-0.744-0.23-1.558-0.048-2.34-0.06c-2.644-0.039-5.062-0.201-7.38-0.18
	c-3.724,0.034-7.521-0.06-11.28-0.06c-1.904,0-3.595,0.185-5.34,0.18c-1.736-0.005-3.446-0.147-5.22-0.12
	c-8.689,0.131-18.487-0.165-26.88,0c-1.681,0.033-3.554-0.06-5.64-0.06c-104.196,0-209.112-0.199-313.32-0.12
	C37.904,5.854,37.909,5.938,37.914,6.023z M851.513,38.963c0.009-0.073,0.02-0.142,0.12-0.12c-0.055-0.105-0.021-0.299-0.12-0.36
	C851.381,38.574,851.336,38.88,851.513,38.963z"/>
<path fill="#FFFFFF" d="M610.734,46.523c0.05-5.101,0.069-10.408,0.3-15.84c0.045-1.066-0.154-2.109,0.359-2.52
	c0.324-0.259,1.111-0.147,1.859-0.18c1.047-0.045,2.165-0.094,3.54-0.12c1.294-0.024,2.669,0.052,3.66,0
	c0.149-0.008,0.337-0.071,0.479-0.12c1.16,0.314,2.284,0.757,3.181,1.32c1.358,0.855,2.438,2.102,3.06,3.9
	c0.228,0.656,0.562,1.421,0.66,2.04c0.059,0.369-0.027,0.803,0,1.26c0.057,0.95,0.233,2.152,0.061,3.18
	c-0.062,0.372-0.236,0.749-0.359,1.14c-0.434,1.375-0.888,2.195-1.74,3.24c-0.497,0.292-0.828,0.757-1.319,1.08
	C621.176,47.069,615.354,46.356,610.734,46.523z"/>
</svg>
