<?xml version="1.0" encoding="utf-8"?>
<!-- Generator: Adobe Illustrator 16.0.0, SVG Export Plug-In . SVG Version: 6.00 Build 0)  -->
<!DOCTYPE svg PUBLIC "-//W3C//DTD SVG 1.1//EN" "http://www.w3.org/Graphics/SVG/1.1/DTD/svg11.dtd">
<svg version="1.1" id="Layer_1" xmlns="http://www.w3.org/2000/svg" xmlns:xlink="http://www.w3.org/1999/xlink" x="0px" y="0px"
	 width="424.5px" height="122.387px" viewBox="0 0 424.5 122.387" enable-background="new 0 0 424.5 122.387" xml:space="preserve">
<g>
	<g>
		<g>
			<path fill="#FFFFFF" d="M10.177,118.258c-2.153,0-4.228-0.112-6.161-0.325c-0.676-0.077-1.182-0.655-1.161-1.334
				c0.153-6.008-0.059-12.171-0.274-18.129c-0.111-3.285-0.229-6.578-0.286-9.866C2.216,75.483,2.247,62.155,2.279,49.269
				c0.037-15.712,0.077-31.96-0.09-47.93L2.57,0.402l0.927-0.387h0.001l4.725-0.009c3.859-0.009,7.821-0.018,11.659,0.034
				c0.695,0.013,1.261,0.566,1.287,1.258c0.543,15.663,0.283,31.617,0.037,47.052c-0.276,16.902-0.558,34.38,0.213,51.521
				c0.249,5.59,0.439,11.059,0.001,16.524c-0.05,0.62-0.528,1.119-1.144,1.192C16.593,118.04,13.288,118.258,10.177,118.258
				 M5.496,115.449c3.979,0.342,8.358,0.236,13.392-0.331c0.321-4.97,0.147-9.99-0.082-15.131
				c-0.777-17.22-0.493-34.739-0.218-51.681c0.241-14.988,0.492-30.471,0.006-45.668C15.167,2.605,11.659,2.616,8.23,2.622
				L4.817,2.629c0.155,15.568,0.114,31.357,0.077,46.646C4.862,62.157,4.829,75.483,4.909,88.569c0.059,3.261,0.174,6.54,0.288,9.81
				C5.392,103.978,5.595,109.753,5.496,115.449"/>
		</g>
		<g>
			<path fill="#FFFFFF" d="M154.613,116.706c-1.082,0-2.166-0.021-3.245-0.042c-1.047-0.023-2.085-0.041-3.113-0.041l-0.872,0.009
				l-0.934-0.381l-0.393-0.924c-0.062-12.106-0.45-24.478-0.825-36.436l-0.208-6.733c-0.118-3.776-0.034-7.854,0.053-12.177
				c0.052-2.817,0.112-5.727,0.106-8.531c-0.01-8.21-0.174-16.26-0.339-24.048c-0.168-8.237-0.345-16.756-0.332-25.4
				c0-0.602,0.419-1.13,1.008-1.268l0.801-0.081c1.622,0.09,3.589,0.133,6.094,0.133c1.883,0,3.813-0.022,5.599-0.043
				c1.555-0.019,3.009-0.04,4.23-0.04c0.707,0,1.287,0.565,1.309,1.268c0.401,12.994,0.295,26.214,0.195,38.996
				c-0.105,12.866-0.21,26.174,0.207,39.177c0.218,6.936,0.435,14.329,0.409,21.727c-0.004,1.251,0.05,2.538,0.102,3.775
				c0.131,3.004,0.261,6.106-0.39,9.223c-0.102,0.496-0.478,0.882-0.966,1.003C160.129,116.612,157.005,116.706,154.613,116.706
				 M148.667,114.006c0.911,0.009,1.828,0.026,2.755,0.044c1.058,0.024,2.132,0.044,3.192,0.044c2.02,0,4.585-0.068,7.052-0.576
				c0.414-2.523,0.304-5.07,0.185-7.756c-0.05-1.272-0.109-2.588-0.104-3.896c0.025-7.36-0.186-14.729-0.407-21.638
				c-0.414-13.062-0.306-26.389-0.208-39.281c0.102-12.342,0.198-25.085-0.152-37.621c-0.904,0.006-1.893,0.019-2.931,0.034
				c-1.799,0.017-3.739,0.043-5.632,0.043c-2.116,0-3.856-0.028-5.286-0.091c0.001,8.167,0.166,16.227,0.333,24.038
				c0.158,7.799,0.326,15.861,0.335,24.095c0.003,2.836-0.053,5.759-0.108,8.587c-0.087,4.29-0.164,8.337-0.048,12.05l0.208,6.727
				C148.206,90.357,148.585,102.28,148.667,114.006"/>
		</g>
		<g>
			<path fill="#FFFFFF" d="M259.787,120.083L259.787,120.083c-1.997,0-3.984-0.095-5.915-0.177l-1.141-0.05
				c-4.589-0.195-8.455-0.333-12.379-0.333c-2.135,0-4.262,0.042-6.695,0.124l-0.938-0.354l-0.413-0.909
				c-0.639-19.077-0.781-39.083-0.918-58.436c-0.13-17.902-0.26-36.411-0.79-54.059c-0.019-0.705,0.52-1.298,1.225-1.343
				l0.219-0.016c4.138-0.271,9.814-0.655,15.967-0.655c10.535,0,18.637,1.096,24.779,3.355c3.156,1.16,6.37,4.405,7.8,7.886
				c2.4,5.82,2.443,11.683,2.268,17.194c-0.04,1.324-0.063,2.659-0.083,3.986c-0.077,4.711-0.145,9.162-1.046,13.114
				c-0.859,3.741-3.133,6.469-7.172,8.452c2.528,0.406,5.256,1.127,8.177,3.39c5.657,4.387,5.498,12.085,5.377,18.271
				c-0.039,1.476-0.065,2.863-0.012,4.093c0.068,1.697,0.142,3.498,0.153,5.256c0.003,0.643,0.015,1.328,0.033,2.042
				c0.112,7.325,0.283,17.359-6.306,22.781c-2.973,2.447-6.272,3.415-9.766,4.441c-0.699,0.21-1.421,0.425-2.162,0.652
				C267.2,119.666,263.934,120.083,259.787,120.083 M240.353,116.91c3.974,0,7.868,0.13,12.49,0.333l1.149,0.047
				c1.896,0.088,3.862,0.177,5.795,0.177c3.881,0,6.894-0.372,9.489-1.177c0.753-0.233,1.486-0.446,2.203-0.664
				c3.366-0.992,6.273-1.848,8.836-3.952c5.61-4.619,5.457-13.93,5.346-20.727c-0.013-0.714-0.018-1.405-0.023-2.054
				c-0.012-1.724-0.087-3.5-0.153-5.167c-0.053-1.308-0.031-2.742,0.007-4.259c0.118-5.894,0.257-12.569-4.363-16.149
				c-2.376-1.848-4.573-2.501-7.139-2.901c-5.283-0.001-6.001-0.226-6.582-0.816c-0.327-0.335-0.45-0.82-0.326-1.271
				c0.124-0.448,0.482-0.798,0.932-0.912c6.853-1.761,10.188-4.335,11.162-8.597c0.846-3.682,0.912-8.004,0.986-12.574
				c0.018-1.338,0.036-2.681,0.078-4.022c0.164-5.224,0.14-10.773-2.069-16.111c-1.155-2.811-3.802-5.519-6.289-6.432
				c-5.761-2.122-13.79-3.195-23.873-3.195c-5.563,0-10.766,0.316-14.756,0.586c0.497,17.288,0.624,35.362,0.751,52.855
				c0.134,18.89,0.271,38.415,0.871,57.061C236.808,116.933,238.579,116.91,240.353,116.91"/>
		</g>
		<g>
			<path fill="#FFFFFF" d="M155.39,110.054c-0.531,0-0.97-0.425-0.981-0.957c-0.3-14.989-0.363-30.256-0.423-45.017
				c-0.066-17.523-0.142-35.639-0.619-53.414c-0.013-0.543,0.411-0.995,0.955-1.005c0.51-0.03,0.99,0.407,1.005,0.95
				c0.479,17.8,0.552,35.928,0.624,53.461c0.055,14.756,0.115,30.008,0.419,44.983c0.013,0.543-0.419,0.985-0.958,0.998H155.39z"/>
		</g>
		<g>
			<path fill="#FFFFFF" d="M121.123,116.446l-0.978-0.012l-1.157-0.018c-3.509-0.024-7.142-0.05-10.503-0.404
				c-0.642-0.068-1.136-0.587-1.168-1.231c-0.331-6.422-0.105-12.897,0.199-18.935c0.509-10.353,0.375-20.889,0.248-31.069
				c-0.032-2.336-0.063-4.66-0.083-6.973l0.039-0.887c0.031-0.524,0.046-0.907-0.025-1.217c-1.229-0.065-2.443,0.032-3.743,0.142
				c-1.544,0.121-3.166,0.242-4.77,0.087l-1.03-0.211c-0.482-0.209-0.806-0.688-0.803-1.206c0.003-2.184,0.065-4.388,0.13-6.604
				c0.099-3.562,0.202-7.241,0.055-10.812c-0.027-0.66,0.45-1.244,1.106-1.343c1.896-0.298,3.938-0.3,5.91-0.304
				c1.243-0.003,2.518-0.009,3.745-0.09c0.077-1.246,0.149-2.496,0.226-3.748c0.353-5.59,0.719-11.368,0.416-17.016l0.36-0.974
				l0.948-0.404h0.015l0.817,0.007c3.085,0,6.127-0.179,9.074-0.35c1.447-0.09,2.889-0.171,4.329-0.236l0.941,0.344l0.427,0.917
				c0.1,2.83,0.159,5.688,0.22,8.548c0.095,4.254,0.185,8.647,0.431,12.942c1.525,0.166,3.55,0.12,5.494,0.037
				c1.856-0.075,3.758-0.13,5.244,0.001c0.685,0.058,1.203,0.628,1.197,1.309c-0.022,3.651,0.204,7.433,0.426,11.091
				c0.12,1.97,0.238,3.93,0.316,5.854c0.027,0.658-0.439,1.232-1.096,1.344c-2.445,0.409-4.938,0.491-7.926,0.491l-2.877-0.01
				l-0.657,0.004c-0.074,6.569-0.099,13.158-0.131,19.757c-0.054,12.814-0.116,26.074-0.513,39.069
				c-0.016,0.407-0.211,0.785-0.542,1.021C124.104,116.319,122.513,116.446,121.123,116.446 M109.874,113.519
				c2.928,0.242,6.077,0.26,9.128,0.284h0.426l0.778,0.018c1.042,0.023,2.229,0.083,3.175-0.301
				c0.379-12.72,0.436-25.699,0.488-38.263c0.033-7.03,0.063-14.057,0.151-21.052c0.007-0.706,0.572-1.275,1.279-1.294
				c0.653-0.009,1.312-0.013,1.974-0.013l2.877,0.006c2.38,0,4.425-0.046,6.351-0.285c-0.071-1.53-0.162-3.072-0.257-4.627
				c-0.198-3.291-0.401-6.68-0.428-10.022c-1.126-0.024-2.453,0.025-3.725,0.074c-1.027,0.04-2.064,0.087-3.096,0.087
				c-1.546,0-2.805-0.099-3.971-0.304c-0.592-0.106-1.042-0.602-1.074-1.204c-0.3-4.688-0.401-9.482-0.5-14.121
				c-0.049-2.4-0.103-4.795-0.177-7.18c-0.99,0.049-1.979,0.108-2.972,0.167c-2.815,0.164-5.721,0.333-8.694,0.354
				c0.189,5.346-0.152,10.722-0.478,15.939c-0.101,1.617-0.202,3.247-0.289,4.865c-0.034,0.642-0.527,1.163-1.167,1.23
				c-1.691,0.18-3.434,0.188-5.117,0.189c-1.53,0.001-2.993,0.006-4.37,0.131c0.087,3.267-0.006,6.577-0.096,9.79
				c-0.052,1.808-0.101,3.602-0.123,5.384c1.238,0.063,2.46-0.034,3.769-0.134c1.632-0.134,3.431-0.244,4.921-0.085l0.897,0.507
				c0.915,1.188,0.831,2.485,0.769,3.427l-0.033,0.695c0.022,2.311,0.049,4.632,0.083,6.96c0.131,10.225,0.266,20.802-0.252,31.243
				C109.845,101.593,109.629,107.581,109.874,113.519"/>
		</g>
		<g>
			<path fill="#FFFFFF" d="M344.085,117.467c-2.571,0-5.224-0.071-7.662-0.194c-0.696-0.036-1.239-0.608-1.239-1.311
				c0.006-6.944,0.15-14.06,0.289-20.93c0.218-11.129,0.449-22.623,0.115-33.88c-1.417-0.019-2.845-0.013-4.282-0.003
				c-0.794,0.006-1.594,0.007-2.385,0.007c-1.959,0-3.45-0.029-4.831-0.102c-0.652-0.037-1.181-0.549-1.24-1.201
				c-0.245-3.032-0.198-6.453-0.156-9.766c0.029-2.519,0.065-4.896-0.023-7.112l0.448-1.033c0.561-0.497,1.219-0.497,1.435-0.497
				l0.269,0.012l0.77,0.007c2.866,0,7.266-0.295,9.317-0.449c0.192-3.674,0.041-7.493-0.104-11.207
				c-0.165-4.154-0.336-8.45-0.023-12.556c0.053-0.685,0.623-1.206,1.307-1.206c1.75,0,3.81-0.123,5.991-0.255
				c2.405-0.142,4.896-0.292,7.254-0.292c1.541,0,2.857,0.065,4.017,0.196c0.632,0.074,1.116,0.58,1.157,1.208
				c0.404,5.905,0.52,11.927,0.631,17.753c0.036,2.172,0.08,4.34,0.13,6.501c1.665,0.027,3.312,0.198,4.911,0.363
				c2.101,0.217,4.079,0.423,6.091,0.333l0.915,0.329c1.234,1.076,1.116,2.197,1.03,3.012l-0.05,0.586
				c-0.062,1.561-0.183,3.556-0.313,5.628c-0.207,3.267-0.419,6.652-0.422,8.98l-0.398,0.933l-0.944,0.37l-10.967-0.317
				c0.047,14.142,0,35.332-0.03,46.883c-0.006,3.707-0.012,6.401-0.012,7.514c0,0.679-0.516,1.243-1.192,1.305
				C351.092,117.329,347.701,117.467,344.085,117.467 M337.802,114.717c4.997,0.215,10.486,0.166,14.665-0.142
				c0-1.414,0.006-3.588,0.012-6.321c0.024-11.917,0.083-34.11,0.024-48.222l0.396-0.946l0.953-0.369l10.987,0.325
				c0.062-2.252,0.236-5.062,0.401-7.792c0.13-2.054,0.254-4.025,0.319-5.572l0.053-0.761l0.041-0.43
				c-1.948,0.021-3.878-0.168-5.74-0.364c-2.031-0.211-3.94-0.412-5.87-0.342l-0.938-0.353l-0.41-0.915
				c-0.074-2.597-0.121-5.199-0.171-7.805c-0.104-5.43-0.207-11.026-0.552-16.515c-0.791-0.056-1.659-0.077-2.636-0.077
				c-2.287,0-4.736,0.145-7.104,0.288c-1.732,0.104-3.4,0.201-4.917,0.238c-0.192,3.606-0.036,7.391,0.1,11.065
				c0.171,4.157,0.336,8.463,0.03,12.62c-0.047,0.641-0.555,1.157-1.198,1.206c-0.277,0.022-7.048,0.549-10.923,0.549
				c0.042,1.948,0.012,4.022-0.012,6.038c-0.041,2.829-0.08,5.746,0.068,8.37c1.027,0.037,2.167,0.056,3.542,0.056
				c0.791,0,1.579-0.007,2.367-0.012c1.877-0.01,3.766-0.023,5.61,0.036c0.688,0.018,1.237,0.569,1.266,1.257
				c0.39,11.719,0.154,23.689-0.077,35.252C337.958,101.537,337.823,108.195,337.802,114.717"/>
		</g>
		<g>
			<path fill="#FFFFFF" d="M71.356,46.357l-0.901-0.393l-0.104-0.115c-0.494-0.531-0.456-1.356,0.071-1.846
				c0.53-0.49,1.361-0.459,1.851,0.071l0.037,0.04c0.486,0.531,0.481,1.385-0.041,1.877L71.356,46.357"/>
		</g>
		<g>
			<path fill="#FFFFFF" d="M74.284,46.113c-0.98,0-1.955-0.018-2.929-0.066c-0.54-0.031-0.956-0.495-0.928-1.03
				c0.025-0.54,0.502-0.95,1.027-0.928c2.427,0.12,4.922,0.047,7.338-0.029c2.267-0.069,4.608-0.139,6.905-0.047
				c0.543,0.027,0.963,0.478,0.94,1.02c-0.022,0.549-0.477,0.964-1.019,0.946c-2.229-0.092-4.536-0.02-6.767,0.047
				C77.35,46.062,75.818,46.113,74.284,46.113"/>
		</g>
		<g>
			<path fill="#FFFFFF" d="M72.278,110.163c-0.472,0-0.887-0.333-0.968-0.817c-0.526-3.158-0.482-6.806-0.442-10.344
				c0.016-1.047,0.028-2.081,0.021-3.063c-0.025-6.304-0.155-12.817-0.288-19.121c-0.214-10.517-0.441-21.392-0.179-31.781
				c0.016-0.537,0.482-0.943,1.008-0.95c0.54,0.012,0.97,0.458,0.958,1.005c-0.263,10.34-0.043,21.191,0.174,31.682
				c0.13,6.315,0.264,12.838,0.291,19.156c0.001,0.992-0.009,2.031-0.025,3.099c-0.037,3.444-0.081,7.009,0.422,9.99
				c0.083,0.54-0.276,1.042-0.81,1.133L72.278,110.163"/>
		</g>
		<g>
			<path fill="#FFFFFF" d="M70.034,45.947h-0.053c-2.27-0.118-4.533-0.195-6.804-0.276l-3.357-0.128
				c-0.537-0.022-0.961-0.474-0.94-1.017c0.022-0.539,0.477-0.952,1.022-0.94l3.344,0.124c2.28,0.08,4.555,0.159,6.838,0.277
				c0.539,0.021,0.955,0.484,0.93,1.024C70.99,45.537,70.553,45.947,70.034,45.947"/>
		</g>
		<g>
			<path fill="#FFFFFF" d="M71.312,45.947h-0.065c-0.543-0.043-0.951-0.509-0.915-1.048c0.273-4.027,0.285-8.16,0.293-12.154
				c0.01-3.784,0.021-7.697,0.251-11.522c0.032-0.537,0.5-0.947,1.037-0.922c0.541,0.032,0.957,0.499,0.919,1.042
				c-0.223,3.769-0.236,7.647-0.246,11.405c-0.014,4.028-0.021,8.194-0.294,12.283C72.255,45.549,71.822,45.947,71.312,45.947"/>
		</g>
		<g>
			<path fill="#FFFFFF" d="M249.391,47.104L249.391,47.104c-0.953,0-1.812-0.102-2.635-0.317l-0.681-0.614
				c-0.494-1.382-0.472-2.771-0.46-4.106l0.006-0.533c0.013-5.262-0.154-10.61-0.316-15.782l-0.137-4.453
				c-0.01-0.477,0.319-0.893,0.776-0.987l0.423-0.098c0.692-0.152,1.412-0.311,2.129-0.311h0.006c0.712,0,1.406-0.015,2.123-0.028
				c0.798-0.015,1.635-0.031,2.478-0.031c3.677,0,12.293,0,13.425,7.539c0.5,3.338,0.22,11.774-2.081,15.332
				c-1.962,3.04-5.325,3.36-8.294,3.643c-0.657,0.061-1.303,0.125-1.923,0.211l-0.791,0.118
				C252.044,46.902,250.729,47.104,249.391,47.104 M247.773,45.004c1.549,0.282,3.413,0.049,5.37-0.255l0.806-0.121
				c0.648-0.094,1.327-0.156,2.021-0.226c2.769-0.263,5.382-0.511,6.83-2.749c1.928-2.979,2.26-10.856,1.79-13.977
				c-0.774-5.16-5.979-5.872-11.486-5.872c-0.831,0-1.657,0.016-2.441,0.033c-0.733,0.01-1.437,0.025-2.097,0.025
				c-0.46,0-0.922,0.087-1.409,0.188l0.107,3.639c0.163,5.191,0.332,10.56,0.314,15.853v0.547
				C247.568,43.117,247.554,44.094,247.773,45.004"/>
		</g>
		<g>
			<path fill="#FFFFFF" d="M345.892,52.287h-0.413c-0.543-0.006-0.974-0.45-0.971-0.992c0.003-0.536,0.44-0.973,0.977-0.973h0.407
				c1.724,0,3.506-0.071,5.229-0.147c2.869-0.118,5.826-0.239,8.653-0.034c0.537,0.04,0.945,0.51,0.906,1.049
				c-0.044,0.542-0.511,0.949-1.054,0.906c-2.709-0.195-5.616-0.074-8.429,0.043C349.462,52.21,347.662,52.287,345.892,52.287"/>
		</g>
		<g>
			<path fill="#FFFFFF" d="M344.941,109.119l-0.077-0.009c-0.543-0.038-0.945-0.513-0.903-1.05
				c1.009-13.481,0.82-27.299,0.644-40.658c-0.074-5.264-0.148-10.7-0.148-16.047c0-0.539,0.437-0.984,0.98-0.984
				s0.986,0.446,0.986,0.984c0,5.333,0.071,10.763,0.142,16.021c0.18,13.409,0.372,27.268-0.644,40.829
				C345.877,108.726,345.449,109.119,344.941,109.119"/>
		</g>
		<g>
			<path fill="#FFFFFF" d="M336.878,52.506c-1.892,0-3.798-0.093-5.693-0.41c-0.531-0.091-0.894-0.598-0.806-1.13
				c0.088-0.536,0.596-0.893,1.133-0.804c3.013,0.508,6.021,0.404,9.205,0.295c1.555-0.056,3.149-0.109,4.73-0.081
				c0.546,0.004,0.974,0.449,0.971,0.995c-0.009,0.533-0.452,0.965-0.983,0.965h-0.012c-1.535-0.025-3.117,0.029-4.636,0.081
				C339.499,52.46,338.192,52.506,336.878,52.506"/>
		</g>
		<g>
			<path fill="#FFFFFF" d="M345.449,52.625l-0.9-0.365c-0.517-0.5-0.552-1.298-0.056-1.815l0.071-0.065
				c0.508-0.51,1.334-0.51,1.848,0c0.513,0.511,0.513,1.334,0,1.851L345.449,52.625"/>
		</g>
		<g>
			<path fill="#FFFFFF" d="M345.484,52.287h-0.012c-0.543-0.006-0.971-0.456-0.965-0.996c0.056-4.306,0.015-8.694-0.032-12.94
				c-0.036-4.349-0.083-8.849-0.018-13.263c0.006-0.542,0.469-0.925,0.995-0.969c0.543,0.01,0.971,0.451,0.971,0.998
				c-0.068,4.393-0.024,8.883,0.018,13.217c0.042,4.254,0.085,8.653,0.03,12.982C346.461,51.851,346.019,52.287,345.484,52.287"/>
		</g>
		<g>
			<path fill="#FFFFFF" d="M41.548,117.045h-0.004c-3.639,0-7.633-0.257-11.873-0.77c-0.677-0.089-1.178-0.679-1.149-1.358
				c0.431-9.898,0.525-20.062,0.615-29.89c0.068-7.036,0.136-14.315,0.325-21.433l0.417-0.924l0.95-0.351
				c0.417,0.021,0.843,0.053,1.275,0.081c0.719,0.055,1.461,0.108,2.194,0.108c0.944,0,1.695-0.093,2.359-0.279l0.548-0.037
				c0.76,0.111,1.554,0.121,2.399,0.136c1.335,0.026,2.721,0.05,4.107,0.463c0.527,0.158,0.896,0.631,0.931,1.173
				c0.677,11.46,0.518,23.206,0.373,34.571c-0.077,5.634-0.149,11.469-0.124,17.167c0,0.711-0.561,1.298-1.267,1.313
				C42.936,117.037,42.247,117.045,41.548,117.045 M31.184,113.814c3.693,0.41,7.174,0.62,10.36,0.62h0.004l0.723-0.003
				c-0.009-5.312,0.062-10.704,0.131-15.928c0.142-10.99,0.288-22.347-0.32-33.404c-0.792-0.126-1.641-0.136-2.524-0.152
				c-0.8-0.013-1.625-0.034-2.456-0.136c-0.829,0.212-1.727,0.31-2.804,0.31c-0.754,0-1.519-0.046-2.258-0.104
				c-0.162,6.661-0.227,13.458-0.289,20.033C31.662,94.501,31.575,104.258,31.184,113.814"/>
		</g>
		<g>
			<path fill="#FFFFFF" d="M304.698,67.442c-0.696,0-1.275-0.544-1.304-1.244c-0.136-2.898,2.254-4.508,4.179-5.805
				c2.544-1.724,3.364-2.48,2.491-4.26c-0.322-0.647-0.053-1.43,0.596-1.749c0.649-0.326,1.429-0.056,1.747,0.592
				c1.96,3.989-1.118,6.066-3.37,7.582c-1.93,1.299-3.093,2.187-3.028,3.512c0.032,0.723-0.525,1.335-1.246,1.372H304.698"/>
		</g>
		<g>
			<path fill="#FFFFFF" d="M305.731,58.661L305.731,58.661c-3.382,0-6.829-1.694-8.989-4.424c-1.9-2.407-2.585-5.284-1.918-8.098
				c1.148-4.859,5.988-8.517,11.268-8.517c0.885,0,1.771,0.099,2.626,0.305c3.001,0.885,5.377,2.793,6.752,5.395
				c1.352,2.551,1.611,5.478,0.732,8.235c-0.744,2.32-2.544,4.154-5.832,5.96C308.93,58.279,307.372,58.661,305.731,58.661
				 M306.091,40.235c-4.096,0-7.851,2.802-8.733,6.506c-0.475,2.016,0.039,4.105,1.435,5.876c1.679,2.113,4.338,3.429,6.938,3.429
				c1.21,0,2.355-0.279,3.394-0.836c2.68-1.462,4.055-2.799,4.586-4.448c0.667-2.081,0.469-4.29-0.549-6.214
				c-1.045-1.973-2.869-3.431-5.118-4.099C307.458,40.313,306.77,40.235,306.091,40.235"/>
		</g>
		<g>
			<path fill="#FFFFFF" d="M306.312,116.942c-3.107,0-6.295-0.03-8.803-0.065c-0.694-0.012-1.257-0.561-1.287-1.251
				c-0.425-9.592-0.401-19.404-0.383-28.893c0.012-6.705,0.029-13.636-0.112-20.418c-0.018-0.611,0.404-1.157,1.003-1.297
				c1.204-0.28,2.756-0.246,4.314-0.136c1.21,0.09,2.491,0.146,3.406-0.032l0.608,0.029c1.311,0.369,2.727,0.376,4.235,0.378
				c1.104,0.006,2.24,0.01,3.385,0.165c0.635,0.089,1.113,0.627,1.125,1.268c0.091,4.442,0.233,8.956,0.381,13.509
				c0.384,11.755,0.773,23.908,0.201,35.433c-0.036,0.685-0.587,1.222-1.275,1.246C311.141,116.918,308.753,116.942,306.312,116.942
				 M298.778,114.274c3.952,0.053,9.108,0.083,13.057,0.015c0.481-11.061,0.1-22.722-0.263-34.007
				c-0.133-4.164-0.269-8.299-0.36-12.361c-0.623-0.043-1.263-0.043-1.933-0.043c-1.514-0.01-3.082-0.016-4.64-0.403
				c-1.092,0.165-2.464,0.117-3.79,0.015c-0.853-0.061-1.75-0.12-2.491-0.072c0.124,6.442,0.112,12.982,0.095,19.322
				C298.433,95.788,298.412,105.134,298.778,114.274"/>
		</g>
		<g>
			<path fill="#FFFFFF" d="M37.591,111.063c-0.519,0-0.952-0.404-0.981-0.927c-0.372-6.882-0.255-13.541-0.133-20.585
				c0.068-3.928,0.133-7.989,0.116-12.08c-0.013-1.918-0.034-4.811-0.565-6.025c-0.217-0.494,0.003-1.07,0.504-1.294
				c0.495-0.209,1.07,0.01,1.292,0.508c0.698,1.579,0.719,4.48,0.728,6.805c0.022,4.108-0.044,8.181-0.114,12.121
				c-0.123,7.009-0.239,13.637,0.134,20.437c0.029,0.546-0.388,1.009-0.925,1.039H37.591z"/>
		</g>
		<g>
			<path fill="#FFFFFF" d="M254.777,106.973L254.777,106.973c-1.538,0-3.069-0.042-4.591-0.077l-1.568-0.035
				c-0.449-0.009-0.833-0.325-0.928-0.765c-1.039-4.583-0.912-9.5-0.79-14.257c0.056-2.107,0.109-4.096,0.059-5.994
				c0.028-1.7-0.104-3.412-0.228-5.067c-0.199-2.544-0.4-5.17-0.037-7.775c0.059-0.444,0.415-0.788,0.866-0.84l1.114-0.124
				c2.525-0.277,5.132-0.571,7.768-0.571c5.442,0,9.308,1.287,12.175,4.047c4.427,4.262,3.915,10.601,3.46,16.193
				c-0.078,1.021-0.167,2.031-0.212,3.004l-0.007,0.174c-0.215,4.265-0.46,9.09-5.674,10.798
				C262.128,106.828,257.957,106.973,254.777,106.973 M249.442,104.916l0.792,0.021c1.503,0.039,3.021,0.077,4.542,0.077
				c3.056,0,7.05-0.142,10.838-1.21c3.893-1.269,4.071-4.858,4.285-9.016l0.009-0.174c0.046-0.989,0.127-2.019,0.218-3.069
				c0.437-5.407,0.885-10.997-2.872-14.618c-2.478-2.387-5.914-3.497-10.813-3.497c-2.525,0-5.084,0.288-7.551,0.561l-0.341,0.042
				c-0.207,2.143-0.04,4.314,0.134,6.596c0.13,1.703,0.268,3.464,0.235,5.206c0.049,1.91,0,3.928-0.058,6.056
				C248.747,96.26,248.625,100.775,249.442,104.916"/>
		</g>
		<g>
			<path fill="#FFFFFF" d="M197.725,112.48c-0.679,0-1.343-0.047-1.973-0.142c-4.955-0.776-9.258-3.436-12.103-7.481
				c-2.056-2.931-3.022-7.207-2.78-12.377c0.019-0.546,0.487-0.941,1.022-0.936c0.543,0.023,0.958,0.484,0.934,1.024
				c-0.215,4.737,0.62,8.597,2.429,11.165c2.541,3.604,6.376,5.976,10.802,6.664c5.284,0.832,12.756-2.63,13.628-5.519
				c0.161-0.517,0.713-0.814,1.227-0.649c0.521,0.154,0.81,0.703,0.657,1.216C210.454,109.104,203.481,112.48,197.725,112.48"/>
		</g>
		<g>
			<path fill="#FFFFFF" d="M205.193,94.144L205.193,94.144c-4.878,0-9.847-0.186-14.647-0.357c-2.913-0.106-5.823-0.212-8.722-0.283
				c-0.517-0.009-0.936-0.425-0.958-0.936c-0.236-5.345,1.262-9.412,4.583-12.434c3.093-2.818,6.958-4.309,11.182-4.309
				c4.824,0,9.466,1.962,12.732,5.383c3.066,3.211,4.571,7.308,4.365,11.829c-0.028,0.502-0.43,0.909-0.937,0.938
				C210.417,94.088,207.935,94.144,205.193,94.144 M182.805,91.567c2.597,0.068,5.204,0.16,7.814,0.257
				c4.781,0.18,9.733,0.357,14.573,0.357c2.356,0,4.523-0.044,6.587-0.127c-0.039-3.621-1.353-6.885-3.835-9.488
				c-2.856-2.999-7.083-4.778-11.313-4.778c-3.726,0-7.141,1.311-9.863,3.792C184.099,84.018,182.796,87.288,182.805,91.567"/>
		</g>
		<g>
			<path fill="#FFFFFF" d="M398.636,119.846L398.636,119.846c-7.78,0-15.055-3.914-19.473-10.477
				c-2.24-3.332-3.825-7.257-4.71-11.681c-0.026-0.106-1.777-11.669-0.768-13l0.983-0.54c1.142-0.088,2.653-0.13,4.495-0.13
				c1.635,0,3.329,0.036,4.79,0.08c-0.582-0.41-1.157-0.858-1.718-1.401c-7.587-7.411-9.993-17.523-6.118-25.768
				c3.896-8.302,11.185-13.068,19.995-13.068c11.026,0,20.779,7.53,23.713,18.307c1.281,4.706,1.34,9.376,1.387,13.888
				c0.012,0.7-0.549,1.284-1.246,1.316c-1.83,0.088-3.789-0.071-5.666-0.233c-0.897-0.074-1.8-0.145-2.691-0.191
				c-0.36-0.021-0.791-0.027-1.257-0.021c2.491,1.514,5.023,3.125,6.941,5.755c4.722,6.478,5.737,14.872,2.715,22.459
				c-3.004,7.538-9.409,12.885-17.123,14.311C401.484,119.716,400.053,119.846,398.636,119.846 M375.947,86.698
				c0.077,2.568,0.879,9.55,1.065,10.477c0.823,4.082,2.275,7.697,4.324,10.734c3.925,5.834,10.394,9.329,17.3,9.329
				c1.257,0,2.526-0.124,3.766-0.36c6.835-1.257,12.507-6.009,15.175-12.702c2.686-6.752,1.794-14.21-2.396-19.951
				c-1.7-2.337-4.058-3.769-6.552-5.283c-1.057-0.646-2.154-1.31-3.193-2.054c-0.449-0.316-0.649-0.879-0.501-1.411
				c0.142-0.534,0.608-0.915,1.157-0.962c0.136-0.006,3.795-0.283,5.661-0.183c0.92,0.047,1.841,0.13,2.768,0.207
				c1.411,0.112,2.759,0.224,4.061,0.239c-0.053-3.941-0.201-7.976-1.275-11.918c-2.633-9.646-11.342-16.381-21.193-16.381
				c-7.753,0-14.175,4.211-17.634,11.564c-3.385,7.22-1.195,16.16,5.584,22.779c0.625,0.611,1.328,1.101,2.078,1.612
				c0.947,0.655,1.927,1.319,2.739,2.27c0.342,0.395,0.416,0.956,0.183,1.428c-0.23,0.469-0.702,0.761-1.239,0.732
				c-0.044-0.003-4.551-0.23-8.659-0.23C377.927,86.633,376.85,86.657,375.947,86.698"/>
		</g>
		<g>
			<path fill="#FFFFFF" d="M396.644,109.044c-1.381,0-2.789-0.13-4.197-0.413c-5.197-1.036-9.819-7.685-9.338-13.428
				c0.044-0.537,0.508-0.924,1.054-0.897c0.537,0.047,0.941,0.52,0.897,1.062c-0.425,5.094,3.987,10.583,7.768,11.339
				c5.548,1.098,11.055-0.23,14.367-3.489c2.467-2.42,3.467-5.693,2.827-9.219c-1.122-6.157-6.641-9.433-11.982-12.596
				c-5.064-2.999-10.306-6.103-11.584-11.684c-0.959-4.204,0.331-8.567,3.456-11.67c3.123-3.088,7.449-4.35,11.581-3.363
				c5.407,1.284,9.852,6.423,10.486,12.041l-0.044,1.216c-0.345,0.407-0.971,0.459-1.381,0.115l0.634-0.75l-0.676,0.71l-0.118-0.097
				l-0.336-0.658c-0.396-4.881-4.356-9.561-9.019-10.673c-3.458-0.822-7.112,0.242-9.745,2.855
				c-2.639,2.619-3.736,6.295-2.922,9.835c1.089,4.757,5.746,7.517,10.672,10.441c5.716,3.385,11.627,6.888,12.902,13.93
				c0.762,4.179-0.431,8.078-3.376,10.967C405.66,107.48,401.319,109.044,396.644,109.044"/>
		</g>
		<g>
			<path fill="#FFFFFF" d="M118.375,47.733l-0.792-0.301l-0.199-0.186c-0.499-0.528-0.474-1.356,0.05-1.854
				c0.522-0.495,1.349-0.474,1.845,0.05c0.491,0.499,0.546,1.339,0.065,1.851L118.375,47.733"/>
		</g>
		<g>
			<path fill="#FFFFFF" d="M118.436,47.42c-0.528,0-0.963-0.413-0.979-0.949c-0.018-0.543,0.411-0.998,0.949-1.011
				c2.97-0.081,6.005-0.099,8.94-0.115c1.802-0.009,3.595-0.015,5.361-0.046h0.014c0.534,0,0.974,0.433,0.978,0.971
				c0.007,0.542-0.423,0.989-0.966,0.999c-1.768,0.022-3.566,0.029-5.38,0.037c-2.923,0.018-5.94,0.033-8.886,0.114H118.436"/>
		</g>
		<g>
			<path fill="#FFFFFF" d="M117.292,110.157h-0.08c-0.544-0.05-0.944-0.522-0.897-1.065c0.285-3.441,0.223-6.699,0.166-9.86
				c-0.03-1.511-0.059-3.019-0.05-4.548c0.031-7.036,0.309-13.992,0.571-20.718c0.375-9.487,0.729-18.45,0.454-27.494
				c-0.016-0.539,0.408-0.996,0.948-1.012c0.553-0.033,0.998,0.412,1.014,0.95c0.276,9.113-0.08,18.112-0.452,27.632
				c-0.267,6.708-0.542,13.646-0.574,20.647c-0.006,1.517,0.018,3.004,0.049,4.509c0.056,3.202,0.124,6.517-0.168,10.058
				C118.226,109.771,117.798,110.157,117.292,110.157"/>
		</g>
		<g>
			<path fill="#FFFFFF" d="M118.331,47.324h-0.044c-3.995-0.166-8.521-0.278-13.452-0.322c-0.539-0.003-0.977-0.444-0.971-0.989
				c0.004-0.537,0.44-0.972,0.979-0.972h0.01c4.951,0.045,9.499,0.153,13.521,0.321c0.54,0.022,0.958,0.479,0.936,1.026
				C119.292,46.912,118.854,47.324,118.331,47.324"/>
		</g>
		<g>
			<path fill="#FFFFFF" d="M118.331,47.324c-0.526,0-0.962-0.418-0.981-0.952c-0.104-3.208-0.006-6.484,0.085-9.647
				c0.14-4.912,0.288-9.985-0.316-14.846c-0.069-0.54,0.312-1.031,0.847-1.099c0.54-0.063,1.031,0.314,1.096,0.853
				c0.627,5.009,0.474,10.164,0.332,15.147c-0.093,3.136-0.183,6.38-0.085,9.534c0.021,0.539-0.403,0.993-0.944,1.011H118.331"/>
		</g>
		<g>
			<path fill="#FFFFFF" d="M64.376,116.331l-0.902-0.363l-0.407-0.933c-0.055-6.451-0.055-12.926-0.055-19.41
				c0-13.366,0-27.177-0.479-40.704c-0.893-0.044-1.796-0.048-2.748-0.055c-1.568-0.001-3.192-0.01-4.808-0.218l-0.184-0.032
				l-0.918-0.238c-0.431-0.229-0.698-0.663-0.704-1.144c-0.037-2.882,0.065-5.817,0.161-8.644c0.104-3.208,0.22-6.518,0.134-9.738
				c-0.015-0.624,0.409-1.168,1.012-1.309c1.434-0.332,3.296-0.233,5.013-0.071c1.318,0.126,2.613,0.224,3.66,0.094
				c0.341-3.546,0.121-7.279-0.095-10.896c-0.173-2.97-0.357-6.044-0.234-9.041c0.026-0.657,0.544-1.195,1.201-1.249
				c2.384-0.186,5.594-0.123,8.689-0.025c2.339,0.078,4.665,0.155,6.816,0.062c0.73-0.007,1.315,0.522,1.361,1.233
				c0.174,2.906,0.165,5.896,0.159,9.068c-0.01,4.062-0.022,8.244,0.381,12.262c1.29,0.021,2.572-0.006,3.858-0.026
				c2.048-0.031,4.103-0.068,6.152,0.04c0.684,0.033,1.222,0.592,1.237,1.273c0.136,5.776,0.042,11.45-0.282,16.875
				c-0.034,0.624-0.511,1.136-1.13,1.214c-0.899,0.123-1.859,0.177-3.025,0.177c-0.744,0-1.491-0.023-2.234-0.045
				c-0.722-0.022-1.438-0.043-2.159-0.043c-1.157,0-2.106,0.059-2.963,0.195c-0.075,11.267-0.024,22.723,0.032,33.82
				c0.039,8.535,0.083,17.371,0.063,26.047c0,0.69-0.533,1.257-1.217,1.302c-3.028,0.201-6.159,0.271-9.186,0.342
				c-2.067,0.044-4.12,0.091-6.149,0.177H64.376 M55.779,52.108c1.265,0.136,2.606,0.142,4.014,0.145
				c1.354,0.006,2.753,0.007,4.138,0.154c0.651,0.066,1.151,0.599,1.178,1.251c0.522,13.943,0.522,28.192,0.522,41.968
				c0.001,6.029,0.001,12.038,0.044,18.035c1.6-0.047,3.22-0.089,4.839-0.124c2.594-0.059,5.263-0.118,7.854-0.257
				c0.01-8.281-0.028-16.678-0.068-24.811c-0.055-11.445-0.112-23.285-0.022-34.912c0.006-0.598,0.415-1.125,1.002-1.26
				c1.323-0.32,2.737-0.46,4.567-0.46c0.744,0,1.495,0.018,2.24,0.043c1.312,0.038,2.683,0.066,3.763-0.007
				c0.246-4.623,0.328-9.425,0.24-14.309c-1.589-0.046-3.172-0.015-4.756,0.012c-1.71,0.025-3.417,0.055-5.117,0
				c-0.639-0.018-1.176-0.506-1.254-1.145c-0.552-4.523-0.537-9.195-0.533-13.713c0.01-2.667,0.013-5.202-0.087-7.646
				c-1.837,0.031-3.769-0.034-5.715-0.096c-2.501-0.083-5.153-0.149-7.226-0.058c-0.037,2.509,0.12,5.083,0.267,7.598
				c0.239,4.056,0.487,8.25-0.028,12.315c-0.063,0.528-0.44,0.963-0.959,1.099c-1.555,0.412-3.585,0.32-5.442,0.145
				c-1.119-0.102-2.21-0.199-3.136-0.134c0.034,2.925-0.065,5.869-0.161,8.736C55.862,47.122,55.779,49.636,55.779,52.108"/>
		</g>
		<g>
			<path fill="#FFFFFF" d="M200.152,120.36c-13.781,0-23.917-6.274-27.11-16.787c-0.865-2.848-1.511-5.454-1.837-8.942
				c-1.119-6.336,0.708-12.802,5.156-18.103c5.199-6.188,13.344-10.034,21.261-10.034c4.938,0,9.531,1.495,13.279,4.325
				c4.754,3.809,11.22,8.985,12.767,16.475c0.739,3.595,1.162,6.871,1.232,9.722c0.146,5.604-2.103,11.111-6.329,15.505
				c-4.711,4.894-11.225,7.756-17.871,7.836L200.152,120.36z M197.622,69.107c-7.166,0-14.543,3.484-19.257,9.1
				c-3.943,4.702-5.567,10.409-4.57,16.079c0.322,3.364,0.931,5.829,1.75,8.523c2.84,9.358,12.041,14.939,24.607,14.939l0.517-0.003
				c5.947-0.071,11.786-2.642,16.012-7.042c3.744-3.884,5.733-8.721,5.602-13.617c-0.066-2.704-0.462-5.823-1.176-9.261
				c-1.251-6.08-6.088-10.359-11.809-14.938C206.037,70.416,201.985,69.107,197.622,69.107"/>
		</g>
		<g>
			<path fill="#FFFFFF" d="M304.984,110.157h-0.056c-0.537-0.032-0.95-0.499-0.923-1.039c0.18-3.323-0.098-8.58-0.281-12.059
				c-0.068-1.225-0.121-2.26-0.147-2.978c-0.115-3.524-0.012-5.755,0.089-7.916c0.094-2.166,0.201-4.397,0.077-7.959
				c-0.042-1.207-0.148-2.42-0.242-3.585l-0.1-1.25c-0.047-0.539,0.354-1.012,0.897-1.052c0.531-0.059,1.015,0.36,1.057,0.899
				l0.094,1.238c0.106,1.189,0.209,2.426,0.254,3.683c0.127,3.639,0.023,5.915-0.08,8.116c-0.101,2.119-0.198,4.314-0.085,7.762
				c0.023,0.708,0.083,1.732,0.147,2.945c0.183,3.518,0.466,8.833,0.28,12.265C305.932,109.753,305.501,110.157,304.984,110.157"/>
		</g>
		<g>
			<path fill="#FFFFFF" d="M12.302,112.049c-0.518,0-0.95-0.401-0.981-0.92c-0.515-8.482-0.388-17.312-0.263-25.853
				c0.041-2.727,0.078-5.389,0.094-7.948c0.043-7.738-0.075-15.733-0.183-23.47c-0.142-9.693-0.288-19.72-0.115-29.376
				c0.016-0.914,0.048-1.867,0.074-2.834c0.134-4.389,0.285-9.363-0.81-12.913l-0.049-0.16c-0.15-0.521,0.15-1.062,0.674-1.213
				c0.514-0.146,1.061,0.153,1.214,0.676c1.228,3.98,1.068,9.125,0.933,13.673c-0.031,0.956-0.063,1.902-0.075,2.804
				c-0.171,9.625-0.027,19.636,0.117,29.316c0.107,7.744,0.227,15.755,0.178,23.509c-0.016,2.565-0.05,5.23-0.094,7.966
				c-0.124,8.502-0.252,17.294,0.266,25.699c0.029,0.543-0.379,1.012-0.918,1.044H12.302"/>
		</g>
		<g>
			<path fill="#FFFFFF" d="M305.524,54.736L305.524,54.736c-2.381,0-4.53-1.08-5.885-2.957c-1.434-1.997-1.676-4.163-0.682-6.1
				c1.278-2.497,4.572-4.307,7.827-4.307c3.297,0,5.681,1.893,6.212,4.942c0.366,2.113-0.153,4.143-1.47,5.708
				C310.099,53.716,307.85,54.736,305.524,54.736 M306.785,43.985c-2.255,0-4.672,1.269-5.495,2.886
				c-0.546,1.051-0.387,2.19,0.469,3.377c1.175,1.631,2.866,1.871,3.766,1.871c1.546,0,3.075-0.685,4.002-1.787
				c0.82-0.973,1.133-2.21,0.891-3.573C310.022,44.463,308.222,43.985,306.785,43.985"/>
		</g>
		<g>
			<path fill="#FFFFFF" d="M307.962,51.25l-0.726-0.326l-0.478-0.534c-1.092-1.225-2.585-2.892-3.471-3.447
				c-0.455-0.286-0.596-0.891-0.31-1.353c0.287-0.455,0.895-0.596,1.355-0.309c1.115,0.698,2.585,2.345,3.884,3.797l0.478,0.536
				c0.366,0.398,0.331,1.018-0.074,1.387L307.962,51.25"/>
		</g>
		<g>
			<path fill="#FFFFFF" d="M303.385,51.46l-0.676-0.264l-0.038-1.387c0.729-0.768,1.768-1.617,2.777-2.442
				c0.871-0.709,1.688-1.382,2.249-1.949h1.387v1.389c-0.632,0.634-1.488,1.335-2.396,2.076c-0.957,0.791-1.954,1.598-2.591,2.274
				L303.385,51.46"/>
		</g>
		<g>
			<g>
				<path fill-rule="evenodd" clip-rule="evenodd" fill="#FFFFFF" d="M14.701,111.063c0,1.322-1.077,2.396-2.399,2.396
					c-1.324,0-2.396-1.074-2.396-2.396c0-1.322,1.073-2.391,2.396-2.391C13.624,108.673,14.701,109.741,14.701,111.063"/>
			</g>
			<g>
				<path fill-rule="evenodd" clip-rule="evenodd" fill="#FFFFFF" d="M13.404,8.307c0,1.321-1.071,2.395-2.396,2.395
					c-1.321,0-2.395-1.074-2.395-2.395c0-1.323,1.074-2.399,2.395-2.399C12.333,5.908,13.404,6.984,13.404,8.307"/>
			</g>
			<g>
				<path fill-rule="evenodd" clip-rule="evenodd" fill="#FFFFFF" d="M39.322,71.056c0,1.319-1.071,2.394-2.398,2.394
					c-1.32,0-2.395-1.074-2.395-2.394c0-1.326,1.074-2.396,2.395-2.396C38.25,68.66,39.322,69.73,39.322,71.056"/>
			</g>
			<g>
				<path fill-rule="evenodd" clip-rule="evenodd" fill="#FFFFFF" d="M39.824,109.573c0,1.322-1.071,2.394-2.396,2.394
					c-1.322,0-2.398-1.071-2.398-2.394c0-1.325,1.076-2.396,2.398-2.396C38.752,107.177,39.824,108.248,39.824,109.573"/>
			</g>
			<g>
				<path fill-rule="evenodd" clip-rule="evenodd" fill="#FFFFFF" d="M74.254,21.282c0,1.319-1.073,2.396-2.399,2.396
					c-1.321,0-2.395-1.077-2.395-2.396c0-1.325,1.074-2.399,2.395-2.399C73.181,18.883,74.254,19.957,74.254,21.282"/>
			</g>
			<g>
				<path fill-rule="evenodd" clip-rule="evenodd" fill="#FFFFFF" d="M74.676,109.187c0,1.322-1.071,2.393-2.398,2.393
					c-1.325,0-2.394-1.071-2.394-2.393c0-1.328,1.068-2.402,2.394-2.402C73.605,106.784,74.676,107.858,74.676,109.187"/>
			</g>
			<g>
				<path fill-rule="evenodd" clip-rule="evenodd" fill="#FFFFFF" d="M88.054,44.993c0,1.321-1.071,2.398-2.398,2.398
					c-1.321,0-2.396-1.077-2.396-2.398c0-1.322,1.076-2.396,2.396-2.396C86.983,42.596,88.054,43.67,88.054,44.993"/>
			</g>
			<g>
				<path fill-rule="evenodd" clip-rule="evenodd" fill="#FFFFFF" d="M62.257,44.564c0,1.321-1.074,2.399-2.395,2.399
					c-1.323,0-2.396-1.079-2.396-2.399c0-1.32,1.073-2.396,2.396-2.396C61.183,42.168,62.257,43.244,62.257,44.564"/>
			</g>
			<g>
				<path fill-rule="evenodd" clip-rule="evenodd" fill="#FFFFFF" d="M120.54,21.613c0,1.322-1.07,2.398-2.398,2.398
					c-1.322,0-2.395-1.076-2.395-2.398c0-1.325,1.073-2.395,2.395-2.395C119.47,19.218,120.54,20.288,120.54,21.613"/>
			</g>
			<g>
				<path fill-rule="evenodd" clip-rule="evenodd" fill="#FFFFFF" d="M135.116,46.282c0,1.322-1.073,2.399-2.399,2.399
					c-1.321,0-2.394-1.077-2.394-2.399s1.073-2.396,2.394-2.396C134.043,43.886,135.116,44.96,135.116,46.282"/>
			</g>
			<g>
				<path fill-rule="evenodd" clip-rule="evenodd" fill="#FFFFFF" d="M107.242,46.024c0,1.322-1.074,2.395-2.399,2.395
					c-1.321,0-2.392-1.073-2.392-2.395c0-1.325,1.071-2.398,2.392-2.398C106.167,43.626,107.242,44.699,107.242,46.024"/>
			</g>
			<g>
				<path fill-rule="evenodd" clip-rule="evenodd" fill="#FFFFFF" d="M119.686,109.18c0,1.322-1.07,2.394-2.396,2.394
					c-1.321,0-2.394-1.071-2.394-2.394c0-1.331,1.073-2.399,2.394-2.399C118.616,106.781,119.686,107.85,119.686,109.18"/>
			</g>
			<g>
				<path fill-rule="evenodd" clip-rule="evenodd" fill="#FFFFFF" d="M156.741,10.639c0,1.324-1.073,2.399-2.396,2.399
					s-2.396-1.076-2.396-2.399s1.073-2.395,2.396-2.395S156.741,9.315,156.741,10.639"/>
			</g>
			<g>
				<path fill-rule="evenodd" clip-rule="evenodd" fill="#FFFFFF" d="M157.787,109.074c0,1.322-1.071,2.399-2.396,2.399
					c-1.325,0-2.395-1.077-2.395-2.399c0-1.328,1.07-2.396,2.395-2.396C156.716,106.678,157.787,107.746,157.787,109.074"/>
			</g>
			<g>
				<path fill-rule="evenodd" clip-rule="evenodd" fill="#FFFFFF" d="M215.142,92.996c0,1.322-1.071,2.391-2.398,2.391
					c-1.322,0-2.394-1.068-2.394-2.391c0-1.322,1.071-2.399,2.394-2.399C214.07,90.597,215.142,91.674,215.142,92.996"/>
			</g>
			<g>
				<path fill-rule="evenodd" clip-rule="evenodd" fill="#FFFFFF" d="M184.241,92.523c0,1.322-1.07,2.391-2.395,2.391
					c-1.322,0-2.398-1.068-2.398-2.391c0-1.328,1.076-2.399,2.398-2.399C183.171,90.125,184.241,91.196,184.241,92.523"/>
			</g>
			<g>
				<path fill-rule="evenodd" clip-rule="evenodd" fill="#FFFFFF" d="M213.022,105.161c0,1.325-1.071,2.399-2.398,2.399
					c-1.322,0-2.396-1.074-2.396-2.399c0-1.319,1.074-2.396,2.396-2.396C211.951,102.765,213.022,103.842,213.022,105.161"/>
			</g>
			<g>
				<path fill-rule="evenodd" clip-rule="evenodd" fill="#FFFFFF" d="M248.546,21.268c0,1.322-1.073,2.399-2.4,2.399
					c-1.321,0-2.392-1.077-2.392-2.399c0-1.325,1.071-2.396,2.392-2.396C247.474,18.871,248.546,19.942,248.546,21.268"/>
			</g>
			<g>
				<path fill-rule="evenodd" clip-rule="evenodd" fill="#FFFFFF" d="M249.395,45.841c0,1.319-1.071,2.394-2.398,2.394
					c-1.322,0-2.393-1.074-2.393-2.394c0-1.32,1.071-2.399,2.393-2.399C248.324,43.442,249.395,44.521,249.395,45.841"/>
			</g>
			<g>
				<path fill-rule="evenodd" clip-rule="evenodd" fill="#FFFFFF" d="M250.779,73.597c0,1.319-1.071,2.396-2.396,2.396
					c-1.324,0-2.391-1.077-2.391-2.396c0-1.32,1.067-2.399,2.391-2.399C249.708,71.198,250.779,72.277,250.779,73.597"/>
			</g>
			<g>
				<path fill-rule="evenodd" clip-rule="evenodd" fill="#FFFFFF" d="M250.779,104.842c0,1.322-1.071,2.396-2.396,2.396
					c-1.324,0-2.391-1.074-2.391-2.396c0-1.325,1.067-2.394,2.391-2.394C249.708,102.449,250.779,103.517,250.779,104.842"/>
			</g>
			<g>
				<path fill-rule="evenodd" clip-rule="evenodd" fill="#FFFFFF" d="M306.77,73.293c0,1.322-1.068,2.396-2.396,2.396
					c-1.322,0-2.399-1.074-2.399-2.396c0-1.324,1.077-2.395,2.399-2.395C305.702,70.898,306.77,71.97,306.77,73.293"/>
			</g>
			<g>
				<path fill-rule="evenodd" clip-rule="evenodd" fill="#FFFFFF" d="M307.384,109.18c0,1.322-1.074,2.394-2.399,2.394
					c-1.328,0-2.399-1.071-2.399-2.394c0-1.331,1.071-2.399,2.399-2.399C306.31,106.781,307.384,107.85,307.384,109.18"/>
			</g>
			<g>
				<path fill-rule="evenodd" clip-rule="evenodd" fill="#FFFFFF" d="M347.833,25.1c0,1.322-1.068,2.399-2.396,2.399
					c-1.322,0-2.396-1.077-2.396-2.399c0-1.323,1.074-2.395,2.396-2.395C346.765,22.705,347.833,23.776,347.833,25.1"/>
			</g>
			<g>
				<path fill-rule="evenodd" clip-rule="evenodd" fill="#FFFFFF" d="M347.332,108.136c0,1.322-1.068,2.396-2.396,2.396
					c-1.322,0-2.391-1.074-2.391-2.396c0-1.325,1.068-2.396,2.391-2.396C346.263,105.739,347.332,106.811,347.332,108.136"/>
			</g>
			<g>
				<path fill-rule="evenodd" clip-rule="evenodd" fill="#FFFFFF" d="M333.744,51.13c0,1.325-1.071,2.399-2.399,2.399
					c-1.322,0-2.393-1.074-2.393-2.399c0-1.325,1.071-2.398,2.393-2.398C332.673,48.732,333.744,49.805,333.744,51.13"/>
			</g>
			<g>
				<path fill-rule="evenodd" clip-rule="evenodd" fill="#FFFFFF" d="M362.094,51.119c0,1.321-1.071,2.395-2.396,2.395
					c-1.322,0-2.393-1.074-2.393-2.395c0-1.325,1.071-2.395,2.393-2.395C361.022,48.725,362.094,49.794,362.094,51.119"/>
			</g>
			<g>
				<path fill-rule="evenodd" clip-rule="evenodd" fill="#FFFFFF" d="M383.827,93.734c1.198,0,2.181,0.979,2.181,2.184
					c0,1.207-0.983,2.184-2.181,2.184c-1.21,0-2.187-0.977-2.187-2.184C381.64,94.713,382.617,93.734,383.827,93.734"/>
			</g>
			<g>
				<path fill-rule="evenodd" clip-rule="evenodd" fill="#FFFFFF" d="M411.037,64.995c1.21,0,2.184,0.978,2.184,2.184
					c0,1.206-0.974,2.182-2.184,2.182c-1.204,0-2.184-0.977-2.184-2.182C408.853,65.973,409.833,64.995,411.037,64.995"/>
			</g>
		</g>
		<g>
			<path fill="#FFFFFF" d="M37.824,64.604c-0.695,0-1.269-0.544-1.308-1.247c-0.136-2.895,2.259-4.503,4.182-5.802
				c2.548-1.721,3.364-2.479,2.488-4.259c-0.319-0.654-0.05-1.433,0.601-1.751c0.648-0.322,1.43-0.052,1.75,0.598
				c1.955,3.985-1.125,6.06-3.373,7.576c-1.932,1.3-3.098,2.187-3.034,3.513c0.036,0.723-0.518,1.335-1.239,1.373H37.824"/>
		</g>
		<g>
			<path fill="#FFFFFF" d="M38.656,55.599L38.656,55.599c-3.377,0-6.81-1.688-8.966-4.409c-1.897-2.4-2.579-5.266-1.917-8.07
				c1.144-4.849,5.973-8.498,11.237-8.498c0.885,0,1.763,0.1,2.622,0.304c2.993,0.884,5.359,2.789,6.738,5.386
				c1.344,2.541,1.602,5.457,0.72,8.212c-0.739,2.306-2.529,4.136-5.811,5.935C41.845,55.223,40.294,55.599,38.656,55.599
				 M39.011,37.234c-4.082,0-7.821,2.786-8.691,6.487c-0.477,2.005,0.028,4.086,1.424,5.849c2.448,3.09,7.021,4.325,10.297,2.587
				c2.667-1.467,4.033-2.791,4.558-4.431c0.666-2.076,0.475-4.275-0.54-6.192c-1.043-1.967-2.857-3.42-5.098-4.083
				C40.373,37.313,39.694,37.234,39.011,37.234"/>
		</g>
		<g>
			<path fill="#FFFFFF" d="M38.652,51.901L38.652,51.901c-2.384,0-4.532-1.084-5.888-2.96c-1.434-1.998-1.673-4.164-0.679-6.103
				c1.282-2.499,4.571-4.308,7.825-4.308c3.299,0,5.68,1.892,6.212,4.94c0.369,2.118-0.153,4.145-1.47,5.705
				C43.225,50.885,40.982,51.901,38.652,51.901 M39.911,41.144c-2.255,0-4.672,1.269-5.497,2.888
				c-0.544,1.051-0.384,2.19,0.472,3.379c1.174,1.627,2.864,1.87,3.766,1.87c1.545,0,3.077-0.683,4.002-1.787
				c0.823-0.975,1.129-2.209,0.891-3.571C43.146,41.625,41.35,41.144,39.911,41.144"/>
		</g>
		<g>
			<path fill="#FFFFFF" d="M41.093,48.406l-0.73-0.322l-0.472-0.536c-1.094-1.217-2.59-2.891-3.472-3.444
				c-0.462-0.289-0.601-0.894-0.309-1.352c0.283-0.46,0.89-0.601,1.347-0.307c1.122,0.692,2.591,2.342,3.893,3.798l0.472,0.527
				c0.36,0.4,0.327,1.021-0.077,1.386L41.093,48.406"/>
		</g>
		<g>
			<path fill="#FFFFFF" d="M36.512,48.621l-0.674-0.263L35.8,46.97c0.72-0.761,1.766-1.616,2.778-2.446
				c0.866-0.71,1.685-1.381,2.249-1.945h1.385v1.388c-0.63,0.632-1.489,1.331-2.395,2.077c-0.961,0.786-1.957,1.601-2.594,2.273
				L36.512,48.621"/>
		</g>
	</g>
</g>
</svg>
