<?xml version="1.0" encoding="utf-8"?>
<!-- Generator: Adobe Illustrator 16.0.0, SVG Export Plug-In . SVG Version: 6.00 Build 0)  -->
<!DOCTYPE svg PUBLIC "-//W3C//DTD SVG 1.1//EN" "http://www.w3.org/Graphics/SVG/1.1/DTD/svg11.dtd">
<svg version="1.1" id="Layer_1" xmlns="http://www.w3.org/2000/svg" xmlns:xlink="http://www.w3.org/1999/xlink" x="0px" y="0px"
	 width="513.158px" height="150.618px" viewBox="0 0 513.158 150.618" enable-background="new 0 0 513.158 150.618"
	 xml:space="preserve">
<path fill="#FFFFFF" d="M206.951,11.056h-5.803v20.539h5.342c7.829,0,12.434-3.224,12.434-10.499
	C218.924,14.464,214.779,11.056,206.951,11.056 M206.582,41.45h-5.434v23.394h-12.157V1.293h18.604
	c14.552,0,23.302,6.723,23.302,19.526C230.897,34.542,221.134,41.45,206.582,41.45"/>
<path fill="#FFFFFF" d="M260.092,42.647c-12.803,1.565-15.841,5.342-15.841,9.578c0,3.223,2.026,5.158,5.434,5.158
	c3.775,0,7.368-1.75,10.407-4.79V42.647z M261.657,64.844l-0.922-5.803c-3.592,3.776-8.196,6.724-14.828,6.724
	c-7.552,0-12.618-4.605-12.618-12.342c0-10.775,8.842-15.473,26.802-17.223v-1.29c0-4.789-2.764-6.63-7.645-6.63
	c-5.158,0-10.04,1.473-14.829,3.591l-1.381-8.841c5.157-2.027,10.591-3.592,17.684-3.592c11.513,0,17.224,4.236,17.224,14.921
	v30.485H261.657z"/>
<path fill="#FFFFFF" d="M291.772,39.331v25.513H280.72V20.358h9.396l1.382,8.934c2.947-5.157,7.368-9.486,14.275-9.855l1.75,10.96
	C300.615,30.858,294.905,34.542,291.772,39.331"/>
<path fill="#FFFFFF" d="M333.771,65.58c-8.75,0-14.646-3.224-14.646-13.354V29.385h-6.263v-9.027h6.263V6.267l10.869-1.658v15.749
	h9.118l1.381,9.027h-10.499v20.999c0,3.592,1.657,5.526,5.896,5.526c1.287,0,2.484-0.093,3.5-0.369l1.381,9.303
	C339.021,65.212,336.994,65.58,333.771,65.58"/>
<path fill="#FFFFFF" d="M376.411,64.844V35.74c0-3.869-1.657-6.54-5.71-6.54c-3.5,0-6.908,2.211-10.132,5.619v30.025h-11.053V20.358
	h9.396l1.013,6.262c4.145-3.96,8.842-7.183,14.829-7.183c8.289,0,12.71,5.065,12.71,13.354v32.052L376.411,64.844L376.411,64.844z"
	/>
<path fill="#FFFFFF" d="M407.725,37.857h17.776c-0.737-6.907-3.5-10.776-8.842-10.776C412.238,27.082,408.555,30.673,407.725,37.857
	 M418.409,65.765c-12.436,0-21.736-7.092-21.736-23.117c0-14.46,8.658-23.21,20.262-23.21c13.355,0,19.344,10.039,19.344,22.657
	c0,0.921-0.095,2.026-0.095,2.671h-28.643c0.553,8.75,5.25,12.434,12.064,12.434c5.709,0,10.407-2.119,15.288-5.527l1.289,8.658
	C431.395,63.646,425.593,65.765,418.409,65.765"/>
<path fill="#FFFFFF" d="M454.881,39.331v25.513h-11.054V20.358h9.396l1.383,8.934c2.946-5.157,7.367-9.486,14.274-9.855l1.75,10.96
	C463.723,30.858,458.012,34.542,454.881,39.331"/>
<path fill="#FFFFFF" d="M491.259,65.673c-6.446,0-13.078-2.026-17.314-4.329l1.474-9.21c4.789,3.132,10.686,5.25,16.21,5.25
	c4.788,0,7.367-1.75,7.367-4.606c0-3.131-1.933-4.42-9.024-6.17c-10.775-2.763-15.289-5.895-15.289-13.999
	c0-7.645,6.078-13.08,16.394-13.08c5.804,0,11.146,1.106,15.565,3.132l-1.475,9.21c-4.421-2.486-9.671-4.052-14.092-4.052
	c-4.145,0-6.17,1.566-6.17,4.052c0,2.395,1.658,3.685,8.29,5.435c11.512,2.947,16.024,6.078,16.024,14.46
	C509.219,60.515,502.955,65.673,491.259,65.673"/>
<rect x="191.177" y="87.62" fill="#FFFFFF" width="6.21" height="62.098"/>
<path fill="#FFFFFF" d="M239.145,149.717v-29.338c0-5.489-2.52-8.819-7.92-8.819c-4.499,0-9.089,2.79-13.769,7.38v30.777h-5.94
	V107.15h4.59l0.99,6.3c4.68-4.14,9.54-7.199,15.299-7.199c8.46,0,12.69,4.859,12.69,13.049v30.42h-5.94V149.717z"/>
<polygon fill="#FFFFFF" points="319.153,149.717 319.153,120.019 284.685,120.019 284.685,149.717 278.476,149.717 278.476,87.62 
	284.685,87.62 284.685,114.439 319.153,114.439 319.153,87.62 325.364,87.62 325.364,149.717 "/>
<path fill="#FFFFFF" d="M340.574,124.159h23.22c-0.54-7.65-4.23-13.141-11.07-13.141
	C346.063,111.019,341.653,115.969,340.574,124.159 M353.534,150.618c-11.16,0-19.169-7.562-19.169-22.229
	c0-13.68,7.919-22.139,18.356-22.139c11.611,0,17.19,9.539,17.19,21.328v1.26h-29.608c0.18,10.529,5.04,16.649,13.588,16.649
	c5.67,0,10.621-2.521,15.031-6.301l0.898,5.399C365.594,148.187,360.103,150.618,353.534,150.618"/>
<path fill="#FFFFFF" d="M405.822,127.129c-16.739,1.709-21.419,5.76-21.419,11.52c0,4.59,3.149,6.93,7.649,6.93
	c4.59,0,9.63-2.521,13.77-6.39V127.129z M407.173,149.717l-0.99-5.67c-3.959,3.69-8.908,6.57-15.029,6.57
	c-7.379,0-12.688-4.05-12.688-11.609c0-9.989,8.101-14.67,27.358-16.561v-2.789c0-5.76-3.419-8.188-8.818-8.188
	c-5.04,0-9.99,1.528-14.671,3.778l-0.81-5.31c4.949-2.16,9.81-3.688,15.839-3.688c9.451,0,14.311,4.408,14.311,13.139v30.328
	H407.173z"/>
<polygon fill="#FFFFFF" points="425.804,149.717 425.804,86.181 431.653,85.101 431.653,149.717 "/>
<path fill="#FFFFFF" d="M459.373,150.438c-6.66,0-11.069-2.609-11.069-10.439V112.19h-6.57v-5.04h6.57V92.39l5.85-0.989v15.749
	h9.811l0.811,5.04h-10.62v26.816c0,4.322,1.71,6.211,6.301,6.211c1.35,0,2.97-0.27,3.96-0.449l0.899,4.949
	C464.053,150.079,461.893,150.438,459.373,150.438"/>
<path fill="#FFFFFF" d="M503.562,149.717v-29.338c0-5.489-2.521-8.819-7.921-8.819c-4.5,0-9.091,2.79-13.77,7.38v30.777h-5.939
	V86.181l5.939-1.08v28.079c4.41-3.87,9.179-6.93,14.938-6.93c8.461,0,12.688,4.858,12.688,12.959v30.508H503.562z"/>
<path fill="#FFFFFF" d="M151.326,73.74c-2.016,1.831-5.571,4.583-6.887,5.53c-1.324,0.943-4.075,2.747-5.171,3.736
	c-1.109,1-3.65,3.385-4.88,4.785c-1.239,1.416-3.214,3.229-4.965,4.894c-1.742,1.67-4.762,3.808-4.762,3.808
	c-0.048,0.047-0.1,0.074-0.163,0.116c-1.128,0.681-2.602,0.321-3.28-0.815c-0.599-0.986-0.399-2.244,0.418-2.994
	c0,0,0.902-1.166,2.748-2.898c1.846-1.729,2.789-2.82,3.699-3.986c0.916-1.162,4.918-6.377,4.918-6.377
	c0.16-0.205,0.186-0.5,0.051-0.729c-0.196-0.312-0.596-0.415-0.902-0.23c-2.712,1.705-15.455,10.484-17.813,12.088
	c-1.592,1.09-5.975,3.791-6.376,3.893c-1.308,0.482-2.827-0.396-3.318-1.703c-0.384-1.049-0.033-2.189,0.802-2.857
	c2.406-2.158,3.856-3.184,5.457-4.41c1.632-1.254,5.68-4.457,7.655-5.994c1.965-1.537,3.667-2.699,5.365-3.96
	c0.44-0.406,0.469-1.088,0.06-1.527c-0.356-0.374-0.926-0.446-1.35-0.191c-1.149,0.729-7.057,4.145-8.667,4.933
	c-1.621,0.796-3.387,1.407-5.863,2.51c-2.484,1.079-4.479,2.104-4.479,2.104s-3.563,2.027-6.116,3.267
	c-1.505,0.899-3.445,0.42-4.352-1.073c-0.905-1.503-0.423-3.451,1.074-4.354c0.654-0.498,2.94-1.775,3.525-2.072
	c2.258-1.139,7.255-4.229,9.345-5.344c2.084-1.111,5.951-3.079,7.371-3.67c1.406-0.591,3.895-1.842,3.895-1.842
	c0.511-0.308,0.673-0.974,0.369-1.482c-0.266-0.447-0.812-0.627-1.285-0.465c-2.109,0.672-4.221,1.221-6.775,1.835
	c-2.561,0.609-7.853,1.849-9.958,2.38c-2.053,0.51-4.434,1.247-7.782,1.819c-1.1,0.265-2.274-0.199-2.884-1.205
	c-0.759-1.26-0.492-3.09,0.761-3.842c0.346-0.271,5.928-2.627,7.866-3.224c2.869-0.902,5.487-2.236,8.403-2.947
	c3.273-0.807,6.614-1.751,9.681-3.141c8.045-3.638,9.231-7.628,9.436-8.341c0.399-1.393-0.424-1.448-1.371-1.469
	c-4.972-0.093-9.916,0.249-14.385-2.311c-1.469-0.845-3.032-2.059-3.479-3.78c-0.32-1.252-0.025-2.689,1.426-2.97
	c1.217-0.235,2.631,0.148,3.854,0.272c1.073,0.105,2.161,0.203,3.247,0.28c1.999,0.165,4.041,0.374,6.047,0.266
	c2.196-0.121,4.292-0.455,6.497-0.62c7.652-0.583,12.769-0.462,19.339,3.044c0,0,2.029,1.479,4.948-0.202V5.776
	c0-3.188-2.589-5.776-5.779-5.776H75.894c0.435,0.385,0.82,0.748,1.108,1.065c1.839,2.017,4.588,5.574,5.528,6.888
	c0.948,1.328,2.751,4.079,3.743,5.173c0.999,1.108,3.384,3.644,4.79,4.882c1.413,1.236,3.224,3.216,4.887,4.958
	c1.669,1.741,3.806,4.762,3.806,4.762c0.047,0.052,0.08,0.104,0.117,0.161c0.68,1.135,0.319,2.61-0.815,3.29
	c-0.987,0.591-2.244,0.396-2.99-0.426c0,0-1.169-0.896-2.899-2.745c-1.728-1.843-2.821-2.789-3.984-3.702
	c-1.17-0.913-6.384-4.913-6.384-4.913c-0.204-0.163-0.501-0.186-0.729-0.048c-0.313,0.192-0.412,0.589-0.224,0.899
	c1.695,2.713,10.482,15.449,12.084,17.81c1.087,1.594,3.792,5.978,3.893,6.379c0.487,1.307-0.395,2.829-1.708,3.311
	c-1.045,0.396-2.187,0.04-2.856-0.794c-2.156-2.41-3.18-3.856-4.406-5.458c-1.257-1.633-4.459-5.684-5.995-7.653
	c-1.542-1.968-2.704-3.672-3.96-5.363c-0.404-0.448-1.091-0.47-1.526-0.066c-0.379,0.361-0.45,0.925-0.193,1.353
	c0.726,1.144,4.139,7.051,4.93,8.666c0.798,1.621,1.411,3.39,2.508,5.859c1.086,2.484,2.106,4.485,2.106,4.485
	s2.031,3.558,3.269,6.112c0.9,1.506,0.421,3.447-1.074,4.354c-1.501,0.906-3.457,0.423-4.352-1.075
	c-0.5-0.656-1.78-2.938-2.072-3.526c-1.144-2.257-4.231-7.251-5.347-9.344c-1.107-2.087-3.076-5.949-3.667-7.369
	c-0.592-1.411-1.843-3.895-1.843-3.895c-0.306-0.509-0.972-0.683-1.482-0.369c-0.449,0.267-0.634,0.813-0.466,1.287
	c0.669,2.104,1.219,4.217,1.832,6.771c0.613,2.561,1.853,7.854,2.382,9.954c0.508,2.056,1.247,4.437,1.819,7.794
	c0.263,1.089-0.196,2.267-1.207,2.876c-1.259,0.76-3.085,0.492-3.837-0.766c-0.271-0.341-2.627-5.921-3.227-7.859
	c-0.9-2.872-2.232-5.483-2.947-8.402c-0.8-3.271-1.747-6.616-3.136-9.684c-3.644-8.049-7.636-9.234-8.346-9.438
	c-1.388-0.392-1.451,0.426-1.468,1.372c-0.092,4.973,0.25,9.919-2.308,14.389c-0.845,1.467-2.062,3.024-3.783,3.473
	c-1.251,0.321-2.689,0.031-2.974-1.425c-0.233-1.214,0.151-2.628,0.276-3.853c0.108-1.077,0.202-2.164,0.284-3.242
	c0.161-1.995,0.375-4.045,0.261-6.048c-0.119-2.202-0.455-4.295-0.623-6.497c-0.583-7.655-0.458-12.772,3.047-19.339
	c0,0,1.507-2.066-0.242-5.024H8.933C5.741,0,3.153,2.589,3.153,5.776v70.84c0.427-0.488,0.826-0.912,1.174-1.227
	c2.017-1.84,5.573-4.589,6.889-5.528c1.325-0.948,4.08-2.752,5.172-3.743c1.108-1.002,3.646-3.385,4.882-4.79
	c1.239-1.412,3.215-3.225,4.958-4.887c1.74-1.67,4.764-3.807,4.764-3.807c0.051-0.044,0.102-0.08,0.162-0.119
	c1.133-0.678,2.606-0.317,3.288,0.817c0.591,0.988,0.396,2.244-0.427,2.989c0,0-0.896,1.17-2.743,2.899
	c-1.844,1.729-2.79,2.823-3.706,3.986c-0.911,1.17-4.912,6.383-4.912,6.383c-0.161,0.206-0.187,0.502-0.048,0.729
	c0.195,0.313,0.592,0.413,0.9,0.225C26.22,68.848,38.957,60.06,41.318,58.46c1.594-1.089,5.977-3.795,6.376-3.895
	c1.309-0.487,2.831,0.398,3.312,1.708c0.397,1.046,0.041,2.189-0.794,2.856c-2.41,2.155-3.856,3.179-5.458,4.409
	c-1.635,1.251-5.684,4.457-7.653,5.992c-1.967,1.54-3.67,2.703-5.362,3.961c-0.449,0.403-0.472,1.09-0.067,1.524
	c0.361,0.378,0.926,0.453,1.355,0.193c1.14-0.726,7.05-4.139,8.666-4.93c1.618-0.797,3.389-1.409,5.859-2.508
	c2.483-1.086,4.482-2.106,4.482-2.106s3.56-2.03,6.113-3.269c1.505-0.9,3.447-0.42,4.352,1.074c0.908,1.501,0.426,3.457-1.072,4.353
	c-0.659,0.497-2.94,1.778-3.527,2.072c-2.256,1.145-7.252,4.229-9.344,5.344c-2.089,1.11-5.949,3.077-7.368,3.671
	c-1.411,0.592-3.897,1.844-3.897,1.844c-0.51,0.306-0.682,0.969-0.368,1.479c0.268,0.448,0.812,0.632,1.287,0.466
	c2.104-0.67,4.217-1.219,6.769-1.832c2.563-0.613,7.855-1.853,9.955-2.384c2.058-0.504,4.439-1.245,7.793-1.815
	c1.092-0.266,2.269,0.191,2.877,1.207c0.762,1.258,0.494,3.084-0.763,3.838c-0.343,0.27-5.923,2.625-7.862,3.225
	c-2.87,0.9-5.481,2.234-8.402,2.945c-3.271,0.802-6.614,1.75-9.684,3.137c-8.047,3.646-9.233,7.636-9.437,8.348
	c-0.392,1.389,0.429,1.449,1.373,1.469c4.972,0.092,9.919-0.252,14.386,2.31c1.47,0.841,3.027,2.062,3.477,3.782
	c0.319,1.252,0.028,2.688-1.428,2.975c-1.211,0.23-2.627-0.152-3.85-0.277c-1.079-0.105-2.164-0.201-3.244-0.283
	c-1.993-0.159-4.044-0.377-6.05-0.258c-2.199,0.113-4.292,0.451-6.495,0.619c-7.654,0.584-12.773,0.457-19.338-3.049
	c0,0-2.117-1.55-5.134,0.305v36.4c0,3.189,2.587,5.771,5.779,5.771h70.829c-0.436-0.385-0.821-0.748-1.109-1.065
	c-1.832-2.017-4.584-5.571-5.533-6.89c-0.942-1.32-2.745-4.071-3.736-5.168c-1-1.109-3.384-3.648-4.788-4.883
	c-1.413-1.236-3.225-3.211-4.891-4.963c-1.67-1.74-3.804-4.762-3.804-4.762c-0.048-0.05-0.079-0.104-0.119-0.164
	c-0.68-1.128-0.321-2.604,0.815-3.277c0.988-0.601,2.244-0.399,2.994,0.416c0,0,1.167,0.901,2.9,2.75
	c1.726,1.842,2.82,2.787,3.986,3.697c1.163,0.915,6.378,4.918,6.378,4.918c0.204,0.161,0.498,0.186,0.729,0.051
	c0.31-0.195,0.412-0.597,0.229-0.902c-1.7-2.713-10.485-15.454-12.088-17.812c-1.088-1.593-3.79-5.975-3.891-6.378
	c-0.484-1.307,0.395-2.823,1.703-3.313c1.048-0.387,2.191-0.032,2.856,0.803c2.16,2.402,3.185,3.854,4.411,5.458
	c1.255,1.629,4.458,5.678,5.995,7.649c1.539,1.967,2.698,3.668,3.959,5.365c0.407,0.442,1.089,0.471,1.529,0.062
	c0.373-0.355,0.447-0.928,0.192-1.352c-0.729-1.148-4.145-7.056-4.932-8.668c-0.796-1.621-1.411-3.386-2.511-5.863
	c-1.081-2.481-2.108-4.479-2.108-4.479s-2.025-3.564-3.264-6.115c-0.899-1.504-0.42-3.445,1.074-4.353
	c1.504-0.905,3.45-0.425,4.354,1.071c0.496,0.656,1.776,2.94,2.071,3.525c1.141,2.258,4.23,7.258,5.344,9.348
	c1.113,2.082,3.08,5.951,3.668,7.369c0.593,1.406,1.845,3.896,1.845,3.896c0.306,0.51,0.971,0.672,1.481,0.368
	c0.447-0.268,0.627-0.811,0.468-1.283c-0.675-2.111-1.223-4.223-1.838-6.775c-0.607-2.562-1.85-7.854-2.38-9.957
	c-0.51-2.056-1.247-4.435-1.82-7.785c-0.263-1.1,0.197-2.271,1.207-2.885c1.26-0.757,3.09-0.49,3.843,0.766
	c0.269,0.348,2.625,5.926,3.222,7.863c0.902,2.869,2.236,5.487,2.947,8.403c0.806,3.272,1.752,6.615,3.139,9.681
	c3.64,8.047,7.632,9.232,8.343,9.438c1.393,0.396,1.446-0.428,1.467-1.371c0.094-4.975-0.247-9.918,2.315-14.387
	c0.842-1.469,2.059-3.032,3.778-3.479c1.252-0.32,2.686-0.025,2.971,1.426c0.235,1.217-0.15,2.629-0.274,3.854
	c-0.105,1.072-0.204,2.16-0.279,3.247c-0.166,1.999-0.375,4.041-0.265,6.047c0.118,2.196,0.454,4.292,0.618,6.497
	c0.584,7.65,0.462,12.77-3.043,19.339c0,0-1.505,2.062,0.243,5.021h36.379c3.19,0,5.779-2.582,5.779-5.771V72.71
	C151.963,73.11,151.623,73.47,151.326,73.74z"/>
</svg>
