<?xml version="1.0" encoding="utf-8"?>
<!-- Generator: Adobe Illustrator 16.0.0, SVG Export Plug-In . SVG Version: 6.00 Build 0)  -->
<!DOCTYPE svg PUBLIC "-//W3C//DTD SVG 1.1//EN" "http://www.w3.org/Graphics/SVG/1.1/DTD/svg11.dtd">
<svg version="1.1" id="Layer_1" xmlns="http://www.w3.org/2000/svg" xmlns:xlink="http://www.w3.org/1999/xlink" x="0px" y="0px"
	 width="282.197px" height="48.737px" viewBox="0 0 282.197 48.737" enable-background="new 0 0 282.197 48.737"
	 xml:space="preserve">
<path fill="#FFFFFF" d="M8.604,17.347V6.414h8.328c4.233,0,6.747,1.861,6.747,5.444c0,3.349-2.605,5.489-6.7,5.489H8.604z
	 M21.724,21.443c4.56-1.257,7.77-4.516,7.77-9.911c0-6.373-4.607-10.33-12.097-10.33H4.542c-1.858,0-1.66,1.607-1.66,1.607V33.77
	h5.722V22.419l6.622,0.025c0,0-0.055,0.045,1.085,1.428c4.221,5.125,6.022,7.905,9.271,11.069c4.393,4.281,7.801-0.531,7.801-0.531
	C25.859,28.718,21.724,21.443,21.724,21.443"/>
<path fill="#FFFFFF" d="M70.376,8.824c-7.299,0-12.657,5.819-12.657,12.795c0,6.977,5.358,12.658,12.611,12.658
	c4.653,0,7.45-1.812,9.817-4.396c0.134-0.176-0.011-0.346-0.011-0.346l-3.199-3.156c-1.757,1.801-3.697,3.049-6.33,3.049
	c-4.296,0-7.3-3.514-7.3-7.9c0-4.297,2.957-7.807,7.022-7.807c1.908,0,3.348,0.571,4.612,1.498c0.389,0.286,1.062,0.755,1.773,0.755
	c0.389,0,0.789-0.139,1.162-0.523c0.919-0.993,2.034-2.196,2.106-2.275c0.127-0.134,0-0.299-0.069-0.372
	C77.685,10.432,74.857,8.824,70.376,8.824"/>
<path fill="#FFFFFF" d="M118.759,8.824c-7.3,0-12.657,5.819-12.657,12.795c0,6.977,5.357,12.658,12.609,12.658
	c4.654,0,7.45-1.812,9.817-4.396c0.135-0.176-0.009-0.346-0.009-0.346l-3.201-3.156c-1.756,1.801-3.696,3.049-6.329,3.049
	c-4.296,0-7.299-3.514-7.299-7.9c0-4.297,2.957-7.807,7.021-7.807c1.908,0,3.35,0.571,4.612,1.498
	c0.391,0.286,1.062,0.755,1.774,0.755c0.389,0,0.789-0.139,1.163-0.523c0.92-0.993,2.033-2.196,2.105-2.275
	c0.127-0.134,0-0.299-0.067-0.372C126.067,10.432,123.24,8.824,118.759,8.824"/>
<path fill="#FFFFFF" d="M137.635,0h-3.185c-2.624,0-2.407,2.504-2.407,2.504v31.219h5.592V0z"/>
<path fill="#FFFFFF" d="M173.531,0.15h-3.126c-2.6,0-2.462,2.503-2.462,2.503v31.22h5.588v-3.789c1.709,2.265,4.25,4.298,8.27,4.298
	c5.82,0,11.363-4.574,11.363-12.705c0-8.129-5.587-12.703-11.363-12.703c-3.926,0-6.467,2.033-8.27,4.574V0.15z M180.507,29.53
	c-3.788,0-7.114-3.094-7.114-7.853c0-4.758,3.326-7.853,7.114-7.853s6.976,3.049,6.976,7.853
	C187.483,26.528,184.342,29.53,180.507,29.53"/>
<path fill="#FFFFFF" d="M237.073,8.974c-3.788,0-6.053,1.986-7.622,4.294V9.482h-3.154c-2.671,0-2.436,2.509-2.436,2.509v21.882
	h5.59V20.108c0-3.79,2.262-6.053,5.498-6.053c3.322,0,5.219,2.172,5.219,5.96v11.371c0,0-0.128,2.487,3.225,2.487h2.365V18.351
	C245.757,12.669,242.57,8.974,237.073,8.974"/>
<path fill="#FFFFFF" d="M255.275,0.151h-3.147c-2.594,0-2.452,2.502-2.452,2.502l0.008,31.221h5.592v-6.975l3.418-3.558l6.93,8.349
	c0,0,3.042,3.608,5.362,3.608c2.322,0,3.99-2.3,3.993-2.304c0.173-0.269-3.997-2.328-11.247-11.773
	c-0.099-0.131-1.415-1.641-1.25-1.807l9.701-9.933h-6.791l-10.116,10.811V0.151z"/>
<path fill="#FFFFFF" d="M206.59,8.979c-5.808,0-10.782,4.565-10.782,12.677s5.021,12.674,10.782,12.674
	c3.528,0,5.934-1.647,7.689-3.826v3.345h5.417V9.456h-0.013V9.443H216.5c-2.241,0-2.408,1.824-2.409,2.355
	C212.875,10.576,209.958,8.979,206.59,8.979 M207.881,29.491c-3.781,0-6.404-3.043-6.404-7.834c0-4.839,2.578-7.837,6.404-7.837
	c2.736,0,5.23,1.628,6.398,4.325c0,0,1.135,2.784,0,7.021C213.293,27.694,210.618,29.491,207.881,29.491"/>
<path fill="#FFFFFF" d="M106.228,9.257h-3.329c0,0-2.403,0-3.3,2.527c-0.896,2.526-5.446,15.583-5.446,15.583
	s-4.979-12.952-5.957-15.572c-0.921-2.465-3.131-2.537-3.387-2.537h-0.024h-3.438c-0.091,0-0.052,0.072-0.052,0.072l10.062,24.145
	l-4.075,10.5c-1.269,3.114,2.021,4.188,2.021,4.188l1.561,0.575l0.108-0.047c0.028-0.063,5.41-13.822,5.41-13.822
	c0.074-0.166,0.146-0.34,0.221-0.526l9.671-25.003C106.273,9.339,106.319,9.257,106.228,9.257"/>
<path fill="#FFFFFF" d="M277.915,0.682c-2.406,0-4.304,1.955-4.304,4.305c0,2.347,1.873,4.281,4.281,4.281
	c2.406,0,4.305-1.957,4.305-4.305C282.197,2.614,280.322,0.682,277.915,0.682 M277.892,8.794c-2.158,0-3.784-1.697-3.784-3.807
	c0-2.113,1.637-3.832,3.807-3.832c2.159,0,3.783,1.696,3.783,3.808C281.698,7.074,280.061,8.794,277.892,8.794 M278.165,2.566h-2.03
	v4.567h1.012v-1.47h0.794l0.972,1.47h1.174l-1.113-1.638c0.579-0.213,0.984-0.675,0.984-1.422
	C279.957,3.124,279.256,2.566,278.165,2.566 M277.146,4.797V3.457h0.983c0.497,0,0.807,0.226,0.807,0.677
	c0,0.39-0.273,0.664-0.783,0.664H277.146z"/>
<path fill="#FFFFFF" d="M43.878,13.383c5.236,0.071,6.328,3.429,6.757,5.994c0.02,0.119-6.436-0.009-12.835-0.009
	c-0.226,0-0.35-0.034-0.348-0.052C37.637,17.098,38.735,13.313,43.878,13.383 M54.234,29.579l-3.279-2.911
	c-1.941,1.894-3.881,2.911-6.607,2.911c-3.601,0-6.376-2.219-7.021-6.191h15.567c1.58-0.002,2.382-1.287,2.382-2.605
	c0.004-6.547-4.244-12.086-11.62-12.086c-6.975,0-11.918,5.729-11.918,12.751c0,7.577,5.452,12.704,12.52,12.704
	C48.736,34.151,51.923,32.35,54.234,29.579"/>
<path fill="#FFFFFF" d="M153.027,8.697c-6.976,0-11.92,5.729-11.92,12.751c0,7.576,5.453,12.703,12.519,12.703
	c4.482,0,7.669-1.801,9.979-4.572l-3.28-2.911c-1.938,1.894-3.88,2.911-6.605,2.911c-3.604,0-6.376-2.219-7.022-6.191h15.569
	c1.579-0.002,2.378-1.288,2.381-2.606C164.651,14.236,160.402,8.697,153.027,8.697 M158.28,19.427c-2.343,0-6.739-0.06-11.108-0.06
	c-0.225,0-0.352-0.033-0.349-0.051c0.185-2.198,1.264-5.935,6.287-5.935l0.14,0.002c5.235,0.071,6.327,3.429,6.758,5.994
	C160.014,19.414,159.368,19.427,158.28,19.427"/>
</svg>
