<?xml version="1.0" encoding="utf-8"?>
<!-- Generator: Adobe Illustrator 16.0.0, SVG Export Plug-In . SVG Version: 6.00 Build 0)  -->
<!DOCTYPE svg PUBLIC "-//W3C//DTD SVG 1.1//EN" "http://www.w3.org/Graphics/SVG/1.1/DTD/svg11.dtd">
<svg version="1.1" id="Layer_1" xmlns="http://www.w3.org/2000/svg" xmlns:xlink="http://www.w3.org/1999/xlink" x="0px" y="0px"
	 width="521.526px" height="230.461px" viewBox="0 0 521.526 230.461" enable-background="new 0 0 521.526 230.461"
	 xml:space="preserve">
<g>
	<path fill="#FFFFFF" d="M521.526,231H0V0h521.526V231z M18,213h485.526V18H18V213z"/>
</g>
<g>
	<path fill="#FFFFFF" d="M112.009,140.756c1.362,0,2.27,0.756,2.421,2.117c0.756,4.389,3.48,6.205,8.474,6.205
		c6.053,0,10.29-1.816,10.29-5.6c0-10.44-39.192-6.355-39.192-33.593c0-16.343,16.04-24.06,30.567-24.06
		c14.073,0,32.231,5.901,29.961,22.698c-0.151,1.059-1.21,2.118-2.27,2.118h-18.31c-1.21,0-1.967-0.908-1.665-2.118
		c0.605-4.086-1.665-7.717-7.717-7.717c-5.145,0-7.264,3.026-7.264,6.355c0,12.408,38.89,8.02,38.89,33.441
		c0,18.461-16.343,23.909-33.745,23.909c-17.705,0-29.811-6.961-29.811-21.64c0-1.059,0.908-2.117,1.967-2.117H112.009z"/>
	<path fill="#FFFFFF" d="M168.301,87.339V70.391c0-1.21,0.908-2.118,2.118-2.118h17.251c1.21,0,2.118,0.908,2.118,2.118v16.948
		h11.803c1.211,0,2.119,0.908,2.119,2.119v11.046c0,1.21-0.908,2.118-2.119,2.118h-11.803v37.679c0,6.811,2.119,9.686,8.172,9.686
		c1.059,0,2.27,0,3.631-0.152c1.211,0,2.119,0.908,2.119,1.968v8.776c0,1.211-0.908,2.27-2.119,2.422
		c-4.993,0.756-9.533,1.21-13.467,1.21c-12.862,0-19.823-4.843-19.823-21.487v-40.101h-8.474c-1.21,0-2.119-0.908-2.119-2.118
		V89.458c0-1.211,0.908-2.119,2.119-2.119H168.301z"/>
	<path fill="#FFFFFF" d="M249.862,155.736c-6.053,5.296-11.954,8.776-19.672,8.776c-12.862,0-24.06-7.415-24.06-22.547
		c0-18.764,15.586-21.337,30.415-23.001l8.475-0.908c1.967-0.15,2.724-1.664,2.724-2.572v-6.658c0-3.329-0.303-9.382-7.718-9.382
		c-8.322,0-9.382,6.053-8.625,11.349c0.151,1.211-0.605,2.119-1.816,2.119h-16.796c-1.06,0-2.271-0.908-2.422-2.119
		c-3.632-21.487,18.311-24.968,29.659-24.968c13.316,0,29.356,5.145,29.356,23.001v40.1c0,3.026,2.572,3.782,5.296,3.782
		c0.454,0,1.06,0,1.665,0c0.757,0,1.361,0.455,1.361,1.211v6.961c0,1.211-0.907,2.27-2.118,2.572
		c-3.632,0.757-7.264,1.06-10.29,1.06C257.277,164.513,251.073,161.789,249.862,155.736z M236.546,130.617
		c-4.842,0.756-7.112,4.993-7.112,9.23c0,3.48,3.48,9.23,10.29,9.23c3.178,0,5.75-0.757,8.021-2.422v-17.704L236.546,130.617z"/>
	<path fill="#FFFFFF" d="M298.738,140.756c1.361,0,2.27,0.756,2.421,2.117c0.757,4.389,3.48,6.205,8.474,6.205
		c6.053,0,10.29-1.816,10.29-5.6c0-10.44-39.192-6.355-39.192-33.593c0-16.343,16.04-24.06,30.567-24.06
		c14.072,0,32.231,5.901,29.962,22.698c-0.151,1.059-1.211,2.118-2.271,2.118h-18.31c-1.211,0-1.967-0.908-1.665-2.118
		c0.605-4.086-1.664-7.717-7.717-7.717c-5.146,0-7.264,3.026-7.264,6.355c0,12.408,38.89,8.02,38.89,33.441
		c0,18.461-16.343,23.909-33.745,23.909c-17.704,0-29.81-6.961-29.81-21.64c0-1.059,0.907-2.117,1.967-2.117H298.738z"/>
	<path fill="#FFFFFF" d="M369.405,114.274v46.607c0,1.211-0.908,2.119-2.118,2.119h-17.251c-1.211,0-2.118-0.908-2.118-2.119V59.496
		c0-1.21,0.907-2.119,2.118-2.119h17.553c1.211,0,2.119,0.908,2.119,2.119V97.78c4.69-8.322,11.5-11.954,19.218-11.954
		c11.803,0,22.244,7.415,22.244,21.336v53.719c0,1.211-0.908,2.119-2.118,2.119h-17.402c-1.211,0-2.118-0.908-2.118-2.119v-46.456
		c0-8.625-5.146-10.441-10.441-10.441C373.34,103.984,369.405,106.557,369.405,114.274z"/>
</g>
</svg>
