<?xml version="1.0" encoding="utf-8"?>
<!-- Generator: Adobe Illustrator 16.0.0, SVG Export Plug-In . SVG Version: 6.00 Build 0)  -->
<!DOCTYPE svg PUBLIC "-//W3C//DTD SVG 1.1//EN" "http://www.w3.org/Graphics/SVG/1.1/DTD/svg11.dtd">
<svg version="1.1" id="Layer_1" xmlns="http://www.w3.org/2000/svg" xmlns:xlink="http://www.w3.org/1999/xlink" x="0px" y="0px"
	 width="284.107px" height="212.5px" viewBox="0 0 284.107 212.5" enable-background="new 0 0 284.107 212.5" xml:space="preserve">
<g>
	<path fill="#FFFFFF" d="M243.876,69.973c-0.327-5.055-1.988-9.975-4.968-14.085c-2.731-3.775-6.448-6.762-10.717-8.626
		c-4.777-2.086-10.067-2.762-15.242-2.242c-5.053,0.506-9.975,2.1-14.488,4.399c-4.533,2.306-8.628,5.328-12.322,8.807
		c-1.917,1.806-3.75,3.712-5.397,5.769c-1.585,1.98-3.005,4.088-4.29,6.275c-1.249,2.118-2.397,4.31-3.402,6.553
		c-0.833,1.865-1.721,3.809-1.785,5.881c-0.034,1.144,0.171,2.335,0.812,3.303c0.611,0.922,1.599,1.529,2.699,1.646
		c2.285,0.244,4.452-1.41,5.789-3.111c0.973-1.235,1.705-2.664,2.471-4.034c1.256-2.242,2.677-4.399,4.324-6.374
		c1.679-2.016,3.573-3.878,5.58-5.56c1.912-1.602,3.978-3.024,6.173-4.215c4.476-2.43,9.577-3.94,14.707-3.682
		c4.845,0.245,9.569,2.167,12.904,5.74c1.64,1.76,2.915,3.845,3.724,6.111c0.865,2.425,1.196,5.03,1.065,7.599
		c-0.252,4.867-2.166,9.52-4.874,13.527c-2.794,4.138-6.461,7.627-10.583,10.428c-2.162,1.472-4.51,2.646-6.939,3.61
		c-1.952,0.777-3.936,1.488-5.949,2.102c-3.807,1.159-7.725,1.934-11.655,2.534c-3.904,0.594-7.833,1.006-11.768,1.297
		c-3.147,0.232-6.299,0.389-9.454,0.473c-1.785,0.046-3.565,0.053-5.353,0.066c-0.907,0.011-1.816,0.006-2.727,0.006h-6.004h-7.934
		h-8.085h-6.459h-3.042c-0.42,0-0.845,0.033-1.263,0.123c-1.038,0.23-2.326,0.885-2.41,2.093c-0.084,1.24,1.165,1.978,2.21,2.235
		c0.767,0.188,1.59,0.175,2.375,0.175h2.799h6.498h8.142h7.728h5.245c0.615,0,1.221,0.002,1.832,0
		c2.826-0.017,5.65-0.097,8.472-0.216c4.858-0.202,9.713-0.527,14.554-1.016c4.191-0.425,8.365-0.961,12.502-1.783
		c4.158-0.824,8.268-1.912,12.242-3.395c2.2-0.817,4.353-1.762,6.437-2.853c2.238-1.174,4.354-2.544,6.384-4.045
		c4.022-2.958,7.665-6.396,10.735-10.34c2.802-3.604,5.138-7.613,6.695-11.91C243.402,79.007,244.167,74.479,243.876,69.973"/>
	<path fill="#FFFFFF" d="M221.812,84.133c-0.107-2.497-0.984-4.919-2.627-6.818c-1.529-1.771-3.616-2.947-5.888-3.474
		c-4.991-1.158-10.243,0.73-14.337,3.547c-2.094,1.443-4.009,3.199-5.668,5.127c-0.763,0.883-1.48,1.813-2.105,2.8
		c-0.46,0.725-0.896,1.467-1.157,2.296c-0.346,1.104-0.401,2.403,0.279,3.4c0.672,0.987,1.863,1.354,3.016,1.233
		c1.906-0.202,3.417-1.421,4.75-2.703c0.856-0.821,1.675-1.667,2.612-2.404c0.967-0.755,2.012-1.411,3.131-1.924
		c2.185-1.005,4.915-1.585,7.176-0.479c0.985,0.484,1.794,1.286,2.269,2.277c0.499,1.046,0.601,2.244,0.439,3.381
		c-0.323,2.338-1.643,4.486-3.201,6.211c-1.651,1.819-3.707,3.285-5.878,4.411c-2.138,1.106-4.407,1.812-6.729,2.401
		c-4.253,1.081-8.592,1.804-12.944,2.336c-4.01,0.491-8.041,0.81-12.073,1.008c-2.858,0.141-5.726,0.22-8.586,0.226
		c-1.133,0.003-2.258-0.014-3.391-0.014h-7.183h-6.644c-0.902,0-1.869-0.016-2.598,0.615c-0.44,0.381-0.621,0.988-0.298,1.505
		c0.31,0.5,0.92,0.745,1.476,0.839c0.289,0.052,0.581,0.052,0.875,0.052c1.945,0,3.888,0,5.835,0c2.54,0,5.085,0,7.629,0
		c0.875,0,1.748-0.002,2.624,0.014c1.908,0.037,3.818,0.027,5.725-0.008c3.329-0.062,6.657-0.213,9.976-0.456
		c4.048-0.297,8.087-0.735,12.094-1.379c4.083-0.657,8.148-1.521,12.087-2.779c2.3-0.735,4.584-1.537,6.723-2.663
		c2.271-1.201,4.35-2.793,6.173-4.595c3.363-3.339,6.124-7.796,6.408-12.633C221.827,85.036,221.832,84.584,221.812,84.133"/>
	<path fill="#FFFFFF" d="M282.968,45.845c-0.361-5.075-1.454-10.103-3.312-14.84c-1.775-4.531-4.247-8.773-7.295-12.569
		c-2.825-3.521-6.131-6.653-9.822-9.257c-3.674-2.589-7.714-4.643-11.95-6.145c-4.775-1.691-9.785-2.667-14.844-2.948
		c-5.046-0.279-10.112,0.125-15.068,1.098c-5.065,0.995-10.012,2.566-14.75,4.608c-4.535,1.956-8.885,4.338-12.995,7.072
		c-4.269,2.833-8.286,6.041-12.007,9.558c-1.879,1.776-3.725,3.584-5.484,5.481c-1.763,1.898-3.501,3.845-5.055,5.92
		c-2.951,3.935-5.564,8.112-7.897,12.437c-2.203,4.077-4.159,8.287-5.902,12.582c-1.598,3.922-3.056,7.919-4.246,11.987
		c-0.611,2.094-1.348,4.216-1.211,6.431c0.067,1.159,0.355,2.348,1.028,3.311c0.643,0.917,1.63,1.548,2.759,1.64
		c2.531,0.213,4.576-2.012,5.696-4.028c0.408-0.735,0.703-1.535,1.025-2.311c0.461-1.109,0.882-2.233,1.322-3.35
		c1.83-4.645,3.938-9.199,6.423-13.53c2.55-4.447,5.546-8.592,9.05-12.333c3.555-3.794,7.425-7.319,11.657-10.348
		c4.038-2.89,8.395-5.351,12.995-7.238c4.714-1.935,9.698-3.272,14.773-3.799c5.184-0.539,10.468-0.201,15.497,1.161
		c4.688,1.265,9.136,3.396,12.993,6.351c3.758,2.88,6.94,6.511,9.312,10.603c2.543,4.375,4.111,9.27,4.697,14.292
		c0.613,5.194,0.185,10.474-1.107,15.535c-1.174,4.612-3.042,9.029-5.407,13.154c-2.35,4.099-5.183,7.916-8.364,11.404
		c-3.437,3.761-7.295,7.088-11.412,10.079c-2.139,1.557-4.343,3.001-6.656,4.286c-2.262,1.255-4.594,2.372-6.976,3.37
		c-4.517,1.895-9.187,3.364-13.97,4.412c-3.888,0.849-7.817,1.5-11.761,2.029c-2.544,0.342-5.079,0.607-7.637,0.826
		c-5.094,0.432-10.202,0.738-15.309,0.957c-4.077,0.179-8.162,0.3-12.244,0.37c-2.259,0.038-4.517,0.054-6.776,0.054h-2.021h-5.165
		h-7.218h-8.193h-8.07h-6.862h-4.564c-1.088,0-2.202-0.052-3.282,0.075c-1.036,0.12-2.188,0.551-2.861,1.386
		c-0.359,0.45-0.548,1.024-0.454,1.6c0.092,0.573,0.449,1.062,0.898,1.418c1.301,1.028,3.009,0.97,4.575,0.97h2.545h4.627h6.898
		h8.085h8.177h7.177h5.09c0.647,0,1.293,0,1.935,0c3.573-0.003,7.143-0.048,10.713-0.114c2.023-0.041,4.043-0.104,6.067-0.19
		c3.27-0.138,6.538-0.297,9.807-0.486c3.804-0.222,7.61-0.477,11.404-0.84c3.741-0.359,7.474-0.891,11.179-1.514
		c4.341-0.732,8.644-1.661,12.893-2.805c4.624-1.245,9.183-2.732,13.627-4.512c2.317-0.932,4.601-1.938,6.844-3.035
		c2.273-1.115,4.537-2.295,6.678-3.651c4.44-2.816,8.688-5.957,12.669-9.392c3.661-3.167,7.07-6.628,10.165-10.348
		c3.005-3.615,5.72-7.477,8.067-11.549c2.275-3.948,4.201-8.096,5.669-12.409c1.715-5.019,2.819-10.249,3.16-15.542
		C283.151,50.764,283.146,48.299,282.968,45.845"/>
	<g>
		<path fill="#FFFFFF" d="M269.809,162.625h-8.352v-9.759h8.352c3.395,0,5.241,1.457,5.241,4.807
			C275.05,161.166,273.204,162.625,269.809,162.625 M283.037,180.224L283.037,180.224c-0.694-2.108-0.687-5.076-0.805-6.83
			c-0.241-3.492-1.311-7.128-5.047-8.1v-0.097c3.836-1.555,5.486-4.614,5.486-8.691c0-5.241-3.932-9.562-10.146-9.562H254.89
			c-0.583,0-1.051,0.47-1.051,1.052v0.002v32.558c0.001,0.576,0.468,1.043,1.049,1.043h5.52c0.579,0,1.047-0.467,1.05-1.043v-12.499
			h7.623c3.831,0,5.24,1.602,5.774,5.243c0.345,2.458,0.308,5.371,0.942,7.524c0.12,0.445,0.527,0.775,1.01,0.775
			c0.003,0,0.005,0,0.008,0h5.238c0.571-0.008,1.033-0.476,1.033-1.052C283.086,180.434,283.071,180.326,283.037,180.224"/>
		<path fill="#FFFFFF" d="M151.513,162.609h-8.348v-9.757h8.348c3.395,0,5.242,1.456,5.242,4.805
			C156.755,161.151,154.908,162.609,151.513,162.609 M164.74,180.209L164.74,180.209c-0.689-2.11-0.684-5.079-0.799-6.831
			c-0.243-3.491-1.311-7.131-5.049-8.103v-0.096c3.837-1.553,5.485-4.611,5.485-8.69c0-5.24-3.929-9.561-10.145-9.561h-17.638
			c-0.581,0-1.048,0.468-1.048,1.049v0.006v32.549v0.004c0.002,0.58,0.469,1.047,1.046,1.047h5.521h0.002
			c0.581,0,1.047-0.467,1.051-1.047v-12.496h7.618c3.836,0,5.243,1.602,5.777,5.24c0.346,2.46,0.31,5.377,0.942,7.529
			c0.121,0.445,0.528,0.774,1.013,0.774c0.002,0,0.004,0,0.008,0h5.234c0.572-0.006,1.035-0.477,1.035-1.051
			C164.792,180.419,164.776,180.31,164.74,180.209"/>
		<path fill="#FFFFFF" d="M63.632,146.927c-0.002,0-0.005,0-0.008,0H58.11h-0.002c-0.579,0-1.046,0.472-1.046,1.051
			c0,0.006,0,0.011,0,0.015v20.486c0,5.146-1.749,7.523-7.184,7.523c-6.165,0-7.136-3.736-7.136-7.523v-20.474
			c0-0.012,0-0.016,0-0.027c0-0.579-0.468-1.051-1.045-1.051c-0.002,0-0.002,0-0.006,0h-5.517h-0.002
			c-0.582,0-1.048,0.472-1.048,1.051h-0.003v20.501c0,9.418,5.436,13.931,14.757,13.931c9.271,0,14.806-4.563,14.806-13.931v-20.486
			c0-0.004,0-0.009,0-0.015C64.684,147.399,64.213,146.927,63.632,146.927"/>
		<path fill="#FFFFFF" d="M131.282,148.005c0-0.012,0-0.018,0-0.027c0-0.579-0.466-1.051-1.048-1.051h-0.002h-22.266l0,0
			c-0.582,0-1.051,0.472-1.051,1.051c0,0.002,0,0.002,0,0.006v32.547c0,0,0,0.002,0,0.004c0,0.581,0.469,1.048,1.051,1.048v0.002
			h5.522v-0.002c0.578,0,1.047-0.467,1.047-1.048c0-0.001,0-0.004,0-0.008v-13.262h13.453c0.005,0,0.01,0.002,0.013,0.002
			c0.577,0,1.048-0.469,1.048-1.047c0-0.002,0-0.008,0-0.01v-3.809c0-0.003,0-0.006,0-0.009c0-0.58-0.471-1.046-1.048-1.046h-0.003
			h-13.463v-8.008h15.679c0.005,0,0.012,0,0.02,0c0.583,0,1.048-0.472,1.048-1.05c0-0.009,0-0.016,0-0.023V148.005z"/>
		<path fill="#FFFFFF" d="M199.872,175.18h-6.793v-21.842h5.432c7.572,0,10.001,4.464,10.001,11.455
			C208.511,172.458,204.289,175.18,199.872,175.18 M200.405,146.927h-13.902c-0.577,0-1.048,0.472-1.048,1.051v32.557
			c0,0.581,0.471,1.05,1.048,1.05h13.902c10.581,0,15.728-7.474,15.728-17.519C216.132,152.561,209.386,146.927,200.405,146.927"/>
		<path fill="#FFFFFF" d="M178.442,147.98v-0.002c0-0.579-0.471-1.051-1.052-1.051h-5.518h-0.003c-0.58,0-1.048,0.472-1.048,1.051
			v0.002v32.555c0,0.581,0.468,1.048,1.048,1.048v0.002h5.521v-0.002c0.581,0,1.052-0.467,1.052-1.048v-0.001V147.98z"/>
		<path fill="#FFFFFF" d="M248.035,176.229c0-0.581-0.47-1.051-1.049-1.051h-17.637v-8.492h15.745v-0.002
			c0.581,0,1.049-0.472,1.049-1.05c0,0-0.004,0-0.004-0.002h0.004v-3.82c0-0.579-0.468-1.049-1.049-1.049h-15.745v-7.427h17.252
			c0.581,0,1.048-0.47,1.048-1.048c0-0.011,0-0.023,0-0.034v-4.246c0-0.01,0-0.02,0-0.031c0-0.579-0.467-1.051-1.05-1.051h-23.82
			h-0.003c-0.576,0-1.047,0.472-1.047,1.051c0,0.002,0,0.002,0,0.006v32.551c0,0.581,0.471,1.05,1.047,1.05h24.212
			c0.581-0.002,1.047-0.469,1.047-1.05V176.229z"/>
		<path fill="#FFFFFF" d="M20.074,161.2c-8.687-2.233-10.338-2.574-10.338-5.244c0-2.909,2.816-3.931,5.242-3.931
			c3.368,0,6.158,0.918,6.745,4.361h0.003c0.079,0.5,0.511,0.882,1.034,0.882h5.349c0.58,0,1.049-0.472,1.049-1.05
			c0-0.046-0.005-0.089-0.01-0.13c-0.625-7.141-6.965-9.983-13.826-9.983c-6.264,0-12.963,3.395-12.963,10.483
			c0,6.502,5.194,8.495,10.338,9.853c5.097,1.359,10.291,1.991,10.291,5.726c0,3.545-4.076,4.322-6.748,4.322
			c-3.797,0-7.169-1.557-7.615-5.497H8.622c-0.07-0.514-0.509-0.911-1.041-0.911H2.272c-0.58,0-1.051,0.47-1.051,1.052
			c0,0.027,0.002,0.053,0.002,0.079c0,0.004,0,0.008,0.003,0.013c0,0.005,0,0.013,0,0.023c0.541,7.72,7.412,11.162,14.721,11.162
			c9.417,0,14.418-4.756,14.418-11.115C30.366,163.43,22.6,161.831,20.074,161.2"/>
		<path fill="#FFFFFF" d="M87.584,162.609h-8.349v-9.757h8.349c3.396,0,5.241,1.456,5.241,4.805
			C92.826,161.151,90.98,162.609,87.584,162.609 M100.812,180.209L100.812,180.209c-0.692-2.11-0.688-5.079-0.802-6.831
			c-0.243-3.491-1.312-7.131-5.046-8.103v-0.096c3.834-1.553,5.486-4.611,5.486-8.69c0-5.24-3.935-9.561-10.146-9.561H72.664
			c-0.584,0-1.051,0.468-1.051,1.049v0.006v32.549v0.004c0.003,0.58,0.472,1.047,1.048,1.047h5.523c0.58,0,1.049-0.467,1.051-1.047
			v-12.496h7.622c3.83,0,5.24,1.602,5.773,5.24c0.347,2.46,0.31,5.377,0.944,7.529c0.119,0.445,0.527,0.774,1.01,0.774
			c0.003,0,0.005,0,0.007,0h5.238c0.572-0.006,1.034-0.477,1.034-1.051C100.863,180.419,100.845,180.31,100.812,180.209"/>
		<path fill="#FFFFFF" d="M173.078,193.151h-0.002h-2.758h-0.002c-0.289,0-0.52,0.236-0.52,0.526c0,0.001,0,0.001,0,0.004v10.244
			c0,2.572-0.875,3.757-3.593,3.757c-3.08,0-3.565-1.868-3.565-3.757V193.69c0-0.007,0-0.009,0-0.013
			c0-0.292-0.236-0.526-0.524-0.526l0,0h-2.762c-0.287,0-0.525,0.234-0.525,0.526v10.248c0,4.704,2.718,6.96,7.376,6.96
			c4.633,0,7.402-2.281,7.402-6.96v-10.244c0,0,0-0.002,0-0.004C173.605,193.385,173.37,193.151,173.078,193.151"/>
		<path fill="#FFFFFF" d="M202.449,207.276h-3.396v-10.922h2.719c3.783,0,4.997,2.233,4.997,5.727
			C206.769,205.914,204.658,207.276,202.449,207.276 M202.715,193.151h-6.944h-0.003c-0.287,0-0.527,0.234-0.527,0.526v16.27h0.003
			c0,0.292,0.237,0.525,0.524,0.525h6.947c5.289,0,7.864-3.735,7.864-8.756C210.579,195.965,207.206,193.151,202.715,193.151"/>
		<path fill="#FFFFFF" d="M138.102,193.69c0-0.007,0-0.011,0-0.016c0-0.287-0.234-0.521-0.526-0.521h-11.127
			c-0.29,0-0.525,0.235-0.525,0.521v0.003v16.27v0.003c0,0.286,0.235,0.522,0.525,0.526h2.759c0.291,0,0.526-0.24,0.526-0.526
			v-0.004v-6.632h6.725c0,0,0.002,0.003,0.005,0.003c0.29,0,0.524-0.236,0.524-0.525c0-0.001,0-0.001,0-0.001v-1.907
			c0,0,0,0,0-0.002c0-0.291-0.234-0.528-0.524-0.528h-0.003h-6.727v-4.001h7.833c0.005,0,0.009,0,0.009,0
			c0.292,0,0.526-0.233,0.526-0.524c0-0.005,0-0.009,0-0.011V193.69z"/>
		<path fill="#FFFFFF" d="M245.441,193.151L245.441,193.151h-2.763c-0.288,0-0.525,0.234-0.525,0.526v16.27
			c0,0.292,0.237,0.525,0.525,0.525h2.763c0.287,0,0.521-0.233,0.521-0.525v-16.27C245.962,193.385,245.731,193.151,245.441,193.151
			"/>
		<path fill="#FFFFFF" d="M147.713,207.685c3.421,0,4.706-2.911,4.706-5.798c0-3.033-1.285-5.947-4.706-5.947
			c-3.419,0-4.706,2.914-4.706,5.947C143.008,204.774,144.294,207.685,147.713,207.685 M147.713,192.741
			c5.361,0,8.518,4.001,8.518,9.146c0,4.997-3.157,8.997-8.518,8.997s-8.516-4-8.516-8.997
			C139.198,196.742,142.353,192.741,147.713,192.741"/>
		<path fill="#FFFFFF" d="M257.203,207.685c3.421,0,4.704-2.911,4.704-5.798c0-3.033-1.283-5.947-4.704-5.947
			c-3.418,0-4.706,2.914-4.706,5.947C252.497,204.774,253.785,207.685,257.203,207.685 M257.203,192.741
			c5.359,0,8.515,4.001,8.515,9.146c0,4.997-3.155,8.997-8.515,8.997c-5.362,0-8.516-4-8.516-8.997
			C248.687,196.742,251.84,192.741,257.203,192.741"/>
		<path fill="#FFFFFF" d="M240.197,193.682c0-0.002,0-0.002,0-0.004c0-0.29-0.234-0.526-0.524-0.526h-13.142h-0.003
			c-0.291,0-0.525,0.236-0.525,0.526v0.001l0,0v2.152l0,0c0,0.289,0.234,0.522,0.525,0.522c0.007,0,0.008,0,0.013,0h4.651v13.586
			c0,0.006,0,0.007,0,0.007c0,0.293,0.236,0.526,0.528,0.526h2.757c0.29,0,0.525-0.233,0.525-0.522v-13.598h4.658
			c0.004,0,0.01,0,0.012,0c0.29,0,0.524-0.233,0.524-0.522c0-0.002,0-0.002,0-0.007V193.682z"/>
		<path fill="#FFFFFF" d="M216.965,203.777l2.255-6.355h0.047l2.183,6.355H216.965z M227.444,209.764L227.444,209.764l-6.086-16.274
			c-0.076-0.198-0.265-0.338-0.488-0.338h-3.182c-0.224,0-0.414,0.14-0.491,0.34v-0.001l-6.176,16.274
			c-0.021,0.059-0.033,0.121-0.033,0.184c0,0.29,0.231,0.521,0.516,0.525h2.729c0.004,0,0.004,0,0.004,0
			c0.229,0,0.419-0.141,0.491-0.344h0.004l1.236-3.512h6.477l1.191,3.5v-0.003c0.066,0.207,0.266,0.359,0.496,0.359
			c0.002,0,0.002,0,0.003,0h2.828c0.286-0.004,0.518-0.236,0.518-0.525C227.48,209.885,227.466,209.823,227.444,209.764"/>
		<path fill="#FFFFFF" d="M283.086,193.683c0-0.001,0-0.004,0-0.005c0-0.29-0.233-0.526-0.524-0.526h-2.516
			c-0.292,0-0.526,0.236-0.526,0.526c0,0,0,0,0,0.001v11.093h-0.047l-7.231-11.621h-3.259c-0.291,0-0.525,0.236-0.525,0.526v0.001
			v16.269v0.003c0.002,0.289,0.234,0.522,0.525,0.522h2.516c0.289,0,0.524-0.233,0.524-0.525v0v-11.066h0.045l7.056,11.346h0.004
			c0.09,0.148,0.254,0.247,0.443,0.247c0,0,0,0,0.004,0h2.987c0.291,0,0.524-0.233,0.524-0.525c0,0,0,0,0-0.002V193.683z"/>
		<path fill="#FFFFFF" d="M191.699,193.683v-0.005c0-0.29-0.237-0.526-0.524-0.526h-2.518c-0.29,0-0.524,0.236-0.524,0.526v0.001
			v11.093h-0.049l-7.23-11.621h-3.262c-0.286,0-0.524,0.236-0.524,0.526v0.001v16.269c0,0.003,0,0.003,0,0.003
			c0.002,0.289,0.238,0.522,0.524,0.522h2.518c0.289,0,0.526-0.233,0.526-0.525v0v-11.066h0.048l7.052,11.346h0.002
			c0.092,0.148,0.254,0.247,0.443,0.247c0.002,0,0.002,0,0.005,0h2.989c0.288,0,0.524-0.233,0.524-0.525v-0.002V193.683z"/>
	</g>
</g>
</svg>
