<svg width="187" height="55" viewBox="0 0 187 55" fill="none" xmlns="http://www.w3.org/2000/svg">
<rect width="187" height="55" fill="white"/>
<path d="M3.95215 44.9994H11.0669V32.4792H26.4977V26.0112H11.0669V19.1274H28.5767V12.6594H3.95215V44.9994Z" fill="black"/>
<path d="M31.3603 17.5104H38.7523V11.2734H31.3603V17.5104ZM31.5451 44.9994H38.5675V20.2362H31.5451V44.9994Z" fill="black"/>
<path d="M42.8529 44.9994H49.8753V35.8518C49.8753 29.9382 52.7397 27.12 57.4059 27.12H57.7755V19.7742C53.6175 19.5894 51.3075 21.807 49.8753 25.2258V20.2362H42.8529V44.9994Z" fill="black"/>
<path d="M71.5879 45.5538C76.0693 45.5538 79.3957 43.7982 81.7057 40.9338L77.6863 37.3764C75.7459 39.1782 74.0365 39.9174 71.6803 39.9174C68.5387 39.9174 66.3211 38.2542 65.6281 35.0664H82.8607C82.9069 34.4196 82.9531 33.7728 82.9531 33.2184C82.9531 26.196 79.1647 19.7742 70.8949 19.7742C63.6877 19.7742 58.6519 25.5954 58.6519 32.664V32.7564C58.6519 40.3332 64.1497 45.5538 71.5879 45.5538ZM65.5357 30.6774C66.0901 27.4896 67.9843 25.4106 70.8949 25.4106C73.8517 25.4106 75.6997 27.5358 76.1155 30.6774H65.5357Z" fill="black"/>
<path d="M96.0407 45.4614C99.6905 45.4614 102.047 43.752 103.756 41.442V44.9994H110.778V11.2734H103.756V23.4702C102.093 21.4836 99.7829 19.7742 96.0407 19.7742C90.1733 19.7742 84.7679 24.3018 84.7679 32.5716V32.664C84.7679 40.9338 90.2657 45.4614 96.0407 45.4614ZM97.8425 39.5016C94.5623 39.5016 91.7903 36.7758 91.7903 32.664V32.5716C91.7903 28.4136 94.5623 25.734 97.8425 25.734C101.123 25.734 103.848 28.4598 103.848 32.5716V32.664C103.848 36.7758 101.123 39.5016 97.8425 39.5016Z" fill="black"/>
<path d="M140.513 45.5076C149.199 45.5076 154.697 40.7028 154.697 30.9084V12.6594H147.582V31.1856C147.582 36.3138 144.948 38.9472 140.606 38.9472C136.263 38.9472 133.629 36.2214 133.629 30.9546V12.6594H126.515V31.1394C126.515 40.6566 131.828 45.5076 140.513 45.5076Z" fill="black"/>
<path d="M158.894 52.3914H165.917V41.7654C167.58 43.752 169.89 45.4614 173.632 45.4614C179.499 45.4614 184.905 40.9338 184.905 32.664V32.5716C184.905 24.3018 179.407 19.7742 173.632 19.7742C169.982 19.7742 167.626 21.4836 165.917 23.7936V20.2362H158.894V52.3914ZM171.83 39.5016C168.55 39.5016 165.824 36.7758 165.824 32.664V32.5716C165.824 28.4598 168.55 25.734 171.83 25.734C175.111 25.734 177.883 28.4598 177.883 32.5716V32.664C177.883 36.822 175.111 39.5016 171.83 39.5016Z" fill="black"/>
</svg>
