<svg width="542" height="62" viewBox="0 0 542 62" fill="none" xmlns="http://www.w3.org/2000/svg">
<path d="M191.227 34.6924V29.3196H184.181V22.2732H178.808V29.3196H171.718V34.6924H178.808V41.7388H184.181V34.6924H191.227ZM230.088 28.3947C230.088 23.6824 230.44 19.3665 226.917 15.8433C224.847 13.7734 221.896 12.8486 218.637 12.8486H207.319V44.2051H218.637C221.896 44.2051 224.847 43.2802 226.917 41.2104C230.44 37.6872 230.088 33.107 230.088 28.3947ZM223.966 28.3947C223.966 33.151 223.79 35.3971 222.645 36.8064C221.588 38.0835 220.179 38.7441 218.065 38.7441H213.441V18.3096H218.065C220.179 18.3096 221.588 18.9702 222.645 20.2473C223.79 21.6566 223.966 23.6384 223.966 28.3947ZM253.261 44.2051V29.0994C253.261 23.7265 249.914 20.996 243.484 20.996C239.652 20.996 237.45 21.7006 235.204 24.1669L238.86 27.7341C240.049 26.3689 241.062 25.8404 243.264 25.8404C246.302 25.8404 247.536 26.9414 247.536 29.4517V30.5967H242.119C236.79 30.5967 234.28 33.5914 234.28 37.2468C234.28 39.2726 234.94 41.1223 236.173 42.3994C237.539 43.7647 239.432 44.4253 242.031 44.4253C244.673 44.4253 246.126 43.7647 247.668 42.2233V44.2051H253.261ZM247.536 35.7494C247.536 37.1587 247.315 38.0835 246.699 38.656C245.686 39.6249 244.673 39.757 243.088 39.757C240.842 39.757 239.785 38.7001 239.785 37.1146C239.785 35.4852 240.93 34.5163 242.999 34.5163H247.536V35.7494ZM277.755 21.2602H271.721L267.097 35.4411L262.429 21.2602H256.396L264.851 44.2051H269.343L277.755 21.2602ZM299.572 34.5163V31.962C299.572 25.6642 295.961 20.996 289.575 20.996C283.63 20.996 279.578 25.2238 279.578 32.7106C279.578 42.0031 284.775 44.4693 290.192 44.4693C294.332 44.4693 296.578 43.1922 298.912 40.858L295.433 37.467C293.979 38.9203 292.746 39.6249 290.236 39.6249C287.021 39.6249 285.215 37.467 285.215 34.5163H299.572ZM293.935 30.5967H285.215C285.259 29.5838 285.391 28.9672 285.744 28.1305C286.36 26.7652 287.637 25.7523 289.575 25.7523C291.513 25.7523 292.79 26.7652 293.407 28.1305C293.759 28.9672 293.891 29.5838 293.935 30.5967ZM338.295 28.3947C338.295 23.6824 338.648 19.3665 335.125 15.8433C333.055 13.7734 330.104 12.8486 326.845 12.8486H315.527V44.2051H326.845C330.104 44.2051 333.055 43.2802 335.125 41.2104C338.648 37.6872 338.295 33.107 338.295 28.3947ZM332.174 28.3947C332.174 33.151 331.998 35.3971 330.853 36.8064C329.796 38.0835 328.386 38.7441 326.273 38.7441H321.648V18.3096H326.273C328.386 18.3096 329.796 18.9702 330.853 20.2473C331.998 21.6566 332.174 23.6384 332.174 28.3947ZM361.468 44.2051V29.0994C361.468 23.7265 358.121 20.996 351.692 20.996C347.86 20.996 345.658 21.7006 343.412 24.1669L347.067 27.7341C348.256 26.3689 349.269 25.8404 351.471 25.8404C354.51 25.8404 355.743 26.9414 355.743 29.4517V30.5967H350.326C344.997 30.5967 342.487 33.5914 342.487 37.2468C342.487 39.2726 343.148 41.1223 344.381 42.3994C345.746 43.7647 347.64 44.4253 350.238 44.4253C352.881 44.4253 354.334 43.7647 355.875 42.2233V44.2051H361.468ZM355.743 35.7494C355.743 37.1587 355.523 38.0835 354.906 38.656C353.894 39.6249 352.881 39.757 351.295 39.757C349.049 39.757 347.992 38.7001 347.992 37.1146C347.992 35.4852 349.137 34.5163 351.207 34.5163H355.743V35.7494ZM397.677 21.2602H391.644L387.944 35.4411L383.232 21.2602H379.048L374.38 35.4411L370.681 21.2602H364.603L371.65 44.2051H376.362L381.162 29.804L385.963 44.2051H390.675L397.677 21.2602ZM418.323 36.9825C418.323 33.107 416.033 30.6848 411.497 30.2444L407.885 29.8921C405.859 29.7159 405.507 28.747 405.507 27.9103C405.507 26.7652 406.476 25.7083 408.766 25.7083C410.748 25.7083 412.774 26.0606 414.095 27.2497L417.618 23.6824C415.416 21.6126 412.421 20.996 408.854 20.996C404.186 20.996 400.002 23.5503 400.002 28.3066C400.002 32.5345 402.556 34.3401 406.696 34.7365L410.307 35.0888C412.113 35.265 412.73 36.0577 412.73 37.2027C412.73 38.9203 410.66 39.5809 408.678 39.5809C406.916 39.5809 404.45 39.3166 402.556 37.4229L398.813 41.1663C401.72 44.073 404.979 44.4693 408.59 44.4693C414.007 44.4693 418.323 42.0471 418.323 36.9825ZM441.575 32.7106C441.575 28.5709 441.046 25.9725 438.976 23.8146C437.567 22.3172 435.233 20.996 431.842 20.996C428.451 20.996 426.161 22.3172 424.752 23.8146C422.682 25.9725 422.153 28.5709 422.153 32.7106C422.153 36.8944 422.682 39.4928 424.752 41.6508C426.161 43.1481 428.451 44.4693 431.842 44.4693C435.233 44.4693 437.567 43.1481 438.976 41.6508C441.046 39.4928 441.575 36.8944 441.575 32.7106ZM435.85 32.7106C435.85 35.0888 435.717 37.1146 434.528 38.3037C433.868 38.9643 432.987 39.3166 431.842 39.3166C430.697 39.3166 429.86 38.9643 429.2 38.3037C428.01 37.1146 427.878 35.0888 427.878 32.7106C427.878 30.3325 428.01 28.3507 429.2 27.1616C429.86 26.501 430.697 26.1487 431.842 26.1487C432.987 26.1487 433.868 26.501 434.528 27.1616C435.717 28.3507 435.85 30.3325 435.85 32.7106ZM466.104 44.2051V29.5398C466.104 27.0295 465.619 24.8715 463.77 23.0218C462.492 21.7447 460.643 20.996 458.353 20.996C456.239 20.996 454.125 21.7887 452.627 23.3742V21.2602H447.034V44.2051H452.76V30.3325C452.76 27.2056 454.785 26.1487 456.591 26.1487C458.397 26.1487 460.378 27.2056 460.378 30.3325V44.2051H466.104Z" fill="#333333"/>
<path fill-rule="evenodd" clip-rule="evenodd" d="M148.697 31.8914C148.697 21.344 143.588 13.0215 133.824 13.0215C124.018 13.0215 118.085 21.344 118.085 31.809C118.085 44.2104 125.089 50.473 135.142 50.473C140.045 50.473 143.753 49.3605 146.555 47.7949V39.5548C143.753 40.9556 140.539 41.8208 136.46 41.8208C132.464 41.8208 128.921 40.42 128.468 35.5583H148.615C148.615 35.0227 148.697 32.8802 148.697 31.8914ZM128.344 27.9774C128.344 23.3217 131.187 21.3852 133.782 21.3852C136.296 21.3852 138.974 23.3217 138.974 27.9774H128.344Z" fill="#32325D"/>
<path fill-rule="evenodd" clip-rule="evenodd" d="M102.182 13.0215C98.1443 13.0215 95.5486 14.9167 94.1066 16.2351L93.571 13.6807H84.5068V61.7208L94.807 59.5371L94.8482 47.8773C96.3314 48.9485 98.5151 50.473 102.141 50.473C109.516 50.473 116.231 44.5401 116.231 31.4794C116.19 19.5312 109.392 13.0215 102.182 13.0215ZM99.7099 41.4088C97.2791 41.4088 95.837 40.5436 94.8482 39.4724L94.807 24.1869C95.8782 22.9921 97.3615 22.1681 99.7099 22.1681C103.459 22.1681 106.055 26.3705 106.055 31.7678C106.055 37.2887 103.5 41.4088 99.7099 41.4088Z" fill="#32325D"/>
<path fill-rule="evenodd" clip-rule="evenodd" d="M70.334 10.5886L80.6754 8.36375V0L70.334 2.18364V10.5886Z" fill="#32325D"/>
<path d="M80.6754 13.7168H70.334V49.7674H80.6754V13.7168Z" fill="#32325D"/>
<path fill-rule="evenodd" clip-rule="evenodd" d="M59.2539 16.7696L58.5947 13.7208H49.6953V49.7714H59.9955V25.3394C62.4263 22.1669 66.5464 22.7438 67.8236 23.197V13.7208C66.5052 13.2264 61.6847 12.32 59.2539 16.7696Z" fill="#32325D"/>
<path fill-rule="evenodd" clip-rule="evenodd" d="M38.6518 4.77734L28.5988 6.91978L28.5576 39.9216C28.5576 46.0193 33.1309 50.5102 39.2286 50.5102C42.6071 50.5102 45.0791 49.8922 46.4387 49.1506V40.7868C45.1203 41.3224 38.6106 43.2176 38.6106 37.1199V22.4937H46.4387V13.7179H38.6106L38.6518 4.77734Z" fill="#32325D"/>
<path fill-rule="evenodd" clip-rule="evenodd" d="M10.7998 24.1869C10.7998 22.5801 12.1182 21.962 14.3018 21.962C17.4331 21.962 21.3884 22.9097 24.5196 24.5989V14.9167C21.0999 13.5571 17.7215 13.0215 14.3018 13.0215C5.93808 13.0215 0.375977 17.3888 0.375977 24.6813C0.375977 36.0527 16.0323 34.2399 16.0323 39.1428C16.0323 41.038 14.3842 41.656 12.077 41.656C8.65733 41.656 4.29005 40.2552 0.829184 38.3599V48.1657C4.66085 49.8137 8.53372 50.5142 12.077 50.5142C20.6467 50.5142 26.5384 46.2705 26.5384 38.8955C26.4972 26.6177 10.7998 28.8014 10.7998 24.1869Z" fill="#32325D"/>
</svg>
