<svg width="542" height="62" viewBox="0 0 542 62" fill="none" xmlns="http://www.w3.org/2000/svg">
<path d="M195.173 36.9638V30.6145H186.846V22.2876H180.497V30.6145H172.118V36.9638H180.497V45.2907H186.846V36.9638H195.173ZM241.095 29.5216C241.095 23.953 241.512 18.8528 237.348 14.6893C234.902 12.2433 231.415 11.1504 227.564 11.1504H214.189V48.2051H227.564C231.415 48.2051 234.902 47.1122 237.348 44.6661C241.512 40.5027 241.095 35.0902 241.095 29.5216ZM233.861 29.5216C233.861 35.1423 233.653 37.7965 232.3 39.4618C231.051 40.9711 229.385 41.7517 226.887 41.7517H221.423V17.6038H226.887C229.385 17.6038 231.051 18.3844 232.3 19.8936C233.653 21.559 233.861 23.901 233.861 29.5216ZM268.479 48.2051V30.3543C268.479 24.005 264.524 20.7784 256.926 20.7784C252.398 20.7784 249.796 21.6111 247.142 24.5255L251.461 28.741C252.866 27.1276 254.063 26.5031 256.665 26.5031C260.256 26.5031 261.714 27.8042 261.714 30.7706V32.1238H255.312C249.015 32.1238 246.049 35.6627 246.049 39.9823C246.049 42.3763 246.829 44.5621 248.286 46.0713C249.9 47.6846 252.138 48.4653 255.208 48.4653C258.331 48.4653 260.048 47.6846 261.87 45.8631V48.2051H268.479ZM261.714 38.2128C261.714 39.8782 261.453 40.9711 260.725 41.6477C259.528 42.7926 258.331 42.9487 256.457 42.9487C253.803 42.9487 252.554 41.6997 252.554 39.8261C252.554 37.9005 253.907 36.7556 256.353 36.7556H261.714V38.2128ZM297.424 21.0906H290.295L284.83 37.8485L279.313 21.0906H272.184L282.176 48.2051H287.484L297.424 21.0906ZM323.207 36.7556V33.7371C323.207 26.2949 318.939 20.7784 311.393 20.7784C304.367 20.7784 299.579 25.7745 299.579 34.6218C299.579 45.6029 305.72 48.5173 312.121 48.5173C317.013 48.5173 319.668 47.0081 322.426 44.2498L318.314 40.2425C316.597 41.9599 315.14 42.7926 312.173 42.7926C308.374 42.7926 306.241 40.2425 306.241 36.7556H323.207ZM316.545 32.1238H306.241C306.293 30.9268 306.449 30.1982 306.865 29.2094C307.594 27.596 309.103 26.399 311.393 26.399C313.683 26.399 315.192 27.596 315.921 29.2094C316.337 30.1982 316.493 30.9268 316.545 32.1238ZM368.967 29.5216C368.967 23.953 369.383 18.8528 365.22 14.6893C362.774 12.2433 359.287 11.1504 355.435 11.1504H342.06V48.2051H355.435C359.287 48.2051 362.774 47.1122 365.22 44.6661C369.383 40.5027 368.967 35.0902 368.967 29.5216ZM361.733 29.5216C361.733 35.1423 361.524 37.7965 360.171 39.4618C358.922 40.9711 357.257 41.7517 354.759 41.7517H349.294V17.6038H354.759C357.257 17.6038 358.922 18.3844 360.171 19.8936C361.524 21.559 361.733 23.901 361.733 29.5216ZM396.351 48.2051V30.3543C396.351 24.005 392.395 20.7784 384.797 20.7784C380.269 20.7784 377.667 21.6111 375.013 24.5255L379.333 28.741C380.738 27.1276 381.935 26.5031 384.537 26.5031C388.128 26.5031 389.585 27.8042 389.585 30.7706V32.1238H383.184C376.887 32.1238 373.92 35.6627 373.92 39.9823C373.92 42.3763 374.701 44.5621 376.158 46.0713C377.771 47.6846 380.009 48.4653 383.08 48.4653C386.202 48.4653 387.92 47.6846 389.741 45.8631V48.2051H396.351ZM389.585 38.2128C389.585 39.8782 389.325 40.9711 388.596 41.6477C387.399 42.7926 386.202 42.9487 384.329 42.9487C381.674 42.9487 380.425 41.6997 380.425 39.8261C380.425 37.9005 381.779 36.7556 384.225 36.7556H389.585V38.2128ZM439.139 21.0906H432.009L427.638 37.8485L422.069 21.0906H417.125L411.609 37.8485L407.237 21.0906H400.055L408.382 48.2051H413.951L419.623 31.187L425.296 48.2051H430.865L439.139 21.0906ZM463.537 39.67C463.537 35.0902 460.83 32.2279 455.47 31.7074L451.202 31.2911C448.808 31.0829 448.392 29.938 448.392 28.9491C448.392 27.596 449.537 26.347 452.243 26.347C454.585 26.347 456.979 26.7633 458.54 28.1685L462.704 23.953C460.102 21.507 456.563 20.7784 452.347 20.7784C446.831 20.7784 441.887 23.7969 441.887 29.4175C441.887 34.4137 444.905 36.5474 449.797 37.0158L454.065 37.4322C456.199 37.6403 456.927 38.5771 456.927 39.9302C456.927 41.9599 454.481 42.7406 452.139 42.7406C450.057 42.7406 447.143 42.4283 444.905 40.1904L440.482 44.6141C443.916 48.0489 447.768 48.5173 452.035 48.5173C458.436 48.5173 463.537 45.655 463.537 39.67ZM491.014 34.6218C491.014 29.7298 490.39 26.6592 487.944 24.1091C486.278 22.3397 483.52 20.7784 479.513 20.7784C475.505 20.7784 472.799 22.3397 471.134 24.1091C468.688 26.6592 468.063 29.7298 468.063 34.6218C468.063 39.5659 468.688 42.6365 471.134 45.1866C472.799 46.956 475.505 48.5173 479.513 48.5173C483.52 48.5173 486.278 46.956 487.944 45.1866C490.39 42.6365 491.014 39.5659 491.014 34.6218ZM484.249 34.6218C484.249 37.4322 484.092 39.8261 482.687 41.2313C481.907 42.012 480.866 42.4283 479.513 42.4283C478.159 42.4283 477.171 42.012 476.39 41.2313C474.985 39.8261 474.829 37.4322 474.829 34.6218C474.829 31.8115 474.985 29.4696 476.39 28.0644C477.171 27.2838 478.159 26.8674 479.513 26.8674C480.866 26.8674 481.907 27.2838 482.687 28.0644C484.092 29.4696 484.249 31.8115 484.249 34.6218ZM520.001 48.2051V30.8747C520.001 27.9083 519.428 25.3582 517.242 23.1724C515.733 21.6631 513.547 20.7784 510.841 20.7784C508.343 20.7784 505.845 21.7152 504.075 23.5887V21.0906H497.466V48.2051H504.231V31.8115C504.231 28.1165 506.625 26.8674 508.759 26.8674C510.893 26.8674 513.235 28.1165 513.235 31.8115V48.2051H520.001ZM536.042 34.1014V26.399H528.34V34.1014H536.042ZM536.042 48.2051V40.5027H528.34V48.2051H536.042Z" fill="#333333"/>
<path fill-rule="evenodd" clip-rule="evenodd" d="M148.697 31.8914C148.697 21.344 143.588 13.0215 133.824 13.0215C124.018 13.0215 118.085 21.344 118.085 31.809C118.085 44.2104 125.089 50.473 135.142 50.473C140.045 50.473 143.753 49.3605 146.555 47.7949V39.5548C143.753 40.9556 140.539 41.8208 136.46 41.8208C132.464 41.8208 128.921 40.42 128.468 35.5583H148.615C148.615 35.0227 148.697 32.8802 148.697 31.8914ZM128.344 27.9774C128.344 23.3217 131.187 21.3852 133.782 21.3852C136.296 21.3852 138.974 23.3217 138.974 27.9774H128.344Z" fill="#32325D"/>
<path fill-rule="evenodd" clip-rule="evenodd" d="M102.182 13.0215C98.1443 13.0215 95.5486 14.9167 94.1066 16.2351L93.571 13.6807H84.5068V61.7208L94.807 59.5371L94.8482 47.8773C96.3314 48.9485 98.5151 50.473 102.141 50.473C109.516 50.473 116.231 44.5401 116.231 31.4794C116.19 19.5312 109.392 13.0215 102.182 13.0215ZM99.7099 41.4088C97.2791 41.4088 95.837 40.5436 94.8482 39.4724L94.807 24.1869C95.8782 22.9921 97.3615 22.1681 99.7099 22.1681C103.459 22.1681 106.055 26.3705 106.055 31.7678C106.055 37.2887 103.5 41.4088 99.7099 41.4088Z" fill="#32325D"/>
<path fill-rule="evenodd" clip-rule="evenodd" d="M70.334 10.5886L80.6754 8.36375V0L70.334 2.18364V10.5886Z" fill="#32325D"/>
<path d="M80.6754 13.7168H70.334V49.7674H80.6754V13.7168Z" fill="#32325D"/>
<path fill-rule="evenodd" clip-rule="evenodd" d="M59.2539 16.7696L58.5947 13.7208H49.6953V49.7714H59.9955V25.3394C62.4263 22.1669 66.5464 22.7438 67.8236 23.197V13.7208C66.5052 13.2264 61.6847 12.32 59.2539 16.7696Z" fill="#32325D"/>
<path fill-rule="evenodd" clip-rule="evenodd" d="M38.6518 4.77734L28.5988 6.91978L28.5576 39.9216C28.5576 46.0193 33.1309 50.5102 39.2286 50.5102C42.6071 50.5102 45.0791 49.8922 46.4387 49.1506V40.7868C45.1203 41.3224 38.6106 43.2176 38.6106 37.1199V22.4937H46.4387V13.7179H38.6106L38.6518 4.77734Z" fill="#32325D"/>
<path fill-rule="evenodd" clip-rule="evenodd" d="M10.7998 24.1869C10.7998 22.5801 12.1182 21.962 14.3018 21.962C17.4331 21.962 21.3884 22.9097 24.5196 24.5989V14.9167C21.0999 13.5571 17.7215 13.0215 14.3018 13.0215C5.93808 13.0215 0.375977 17.3888 0.375977 24.6813C0.375977 36.0527 16.0323 34.2399 16.0323 39.1428C16.0323 41.038 14.3842 41.656 12.077 41.656C8.65733 41.656 4.29005 40.2552 0.829184 38.3599V48.1657C4.66085 49.8137 8.53372 50.5142 12.077 50.5142C20.6467 50.5142 26.5384 46.2705 26.5384 38.8955C26.4972 26.6177 10.7998 28.8014 10.7998 24.1869Z" fill="#32325D"/>
</svg>
