<?xml version="1.0" encoding="utf-8"?>
<!-- Generator: Adobe Illustrator 16.0.0, SVG Export Plug-In . SVG Version: 6.00 Build 0)  -->
<!DOCTYPE svg PUBLIC "-//W3C//DTD SVG 1.1//EN" "http://www.w3.org/Graphics/SVG/1.1/DTD/svg11.dtd">
<svg version="1.1" id="Layer_1" xmlns="http://www.w3.org/2000/svg" xmlns:xlink="http://www.w3.org/1999/xlink" x="0px" y="0px"
	 width="317.05px" height="205.121px" viewBox="0 0 317.05 205.121" enable-background="new 0 0 317.05 205.121"
	 xml:space="preserve">
<g>
	<path fill="#FFFFFF" d="M4.043,171.785c0,0.64,0.071,0.64,0.782,0.64h1.611c0.972,0,1.73-0.048,2.014-0.143
		c0.261-0.095,0.45-0.213,0.593-0.829l0.213-0.948c0.119-0.142,0.521-0.142,0.616,0c0,0.569-0.095,1.517-0.095,2.394
		c0,0.854,0.095,1.754,0.095,2.299c-0.095,0.142-0.45,0.142-0.616,0l-0.237-0.925c-0.119-0.426-0.308-0.758-0.758-0.9
		c-0.332-0.095-0.924-0.118-1.825-0.118H4.825c-0.711,0-0.782,0.023-0.782,0.64v3.294c0,2.488,0.047,2.844,1.445,2.962l0.806,0.071
		c0.142,0.095,0.095,0.521-0.047,0.593c-1.398-0.048-2.204-0.071-3.152-0.071c-1.042,0-1.848,0.023-2.962,0.071
		c-0.142-0.071-0.189-0.45-0.047-0.593l0.592-0.071c1.375-0.166,1.422-0.474,1.422-2.962v-8.53c0-2.488-0.047-2.82-1.422-2.986
		l-0.379-0.047c-0.143-0.096-0.095-0.521,0.047-0.593c0.995,0.047,1.801,0.071,2.749,0.071h4.36c1.517,0,2.891,0,3.199-0.071
		c0,1.09,0.023,2.228,0.071,3.128c-0.071,0.143-0.403,0.213-0.568,0.071c-0.19-1.066-0.474-1.943-1.659-2.251
		c-0.521-0.143-1.303-0.143-2.298-0.143H4.754c-0.711,0-0.711,0.047-0.711,0.948V171.785z"/>
	<path fill="#FFFFFF" d="M16.627,168.681c0-2.251-0.071-2.654-1.042-2.772l-0.758-0.095c-0.166-0.119-0.166-0.498,0.023-0.593
		c1.327-0.118,2.962-0.189,5.285-0.189c1.469,0,2.867,0.118,3.957,0.711c1.138,0.593,1.967,1.658,1.967,3.317
		c0,2.251-1.777,3.483-2.962,3.957c-0.119,0.143,0,0.38,0.119,0.569c1.896,3.057,3.151,4.952,4.763,6.303
		c0.403,0.355,0.996,0.616,1.635,0.664c0.119,0.047,0.142,0.237,0.024,0.332c-0.213,0.07-0.593,0.118-1.043,0.118
		c-2.014,0-3.223-0.593-4.905-2.986c-0.616-0.876-1.587-2.512-2.322-3.578c-0.355-0.521-0.734-0.758-1.682-0.758
		c-1.066,0-1.114,0.023-1.114,0.521v2.985c0,2.488,0.047,2.772,1.421,2.962l0.498,0.071c0.142,0.118,0.095,0.521-0.047,0.593
		c-1.066-0.048-1.872-0.071-2.82-0.071c-0.995,0-1.848,0.023-2.962,0.071c-0.142-0.071-0.189-0.427-0.047-0.593l0.592-0.071
		c1.375-0.166,1.422-0.474,1.422-2.962V168.681z M18.571,172.069c0,0.427,0,0.687,0.071,0.782c0.071,0.07,0.427,0.118,1.635,0.118
		c0.853,0,1.753-0.095,2.441-0.616c0.64-0.498,1.185-1.327,1.185-2.938c0-1.872-1.161-3.649-3.792-3.649
		c-1.469,0-1.54,0.095-1.54,0.759V172.069z"/>
	<path fill="#FFFFFF" d="M40.302,175.244c-0.166-0.521-0.261-0.592-0.972-0.592h-3.578c-0.592,0-0.734,0.071-0.9,0.568l-0.83,2.488
		c-0.355,1.066-0.521,1.706-0.521,1.967c0,0.284,0.118,0.427,0.687,0.474l0.782,0.071c0.166,0.118,0.166,0.498-0.047,0.593
		c-0.616-0.048-1.351-0.048-2.465-0.071c-0.782,0-1.635,0.048-2.275,0.071c-0.142-0.095-0.189-0.475-0.047-0.593l0.782-0.071
		c0.569-0.047,1.09-0.308,1.422-1.161c0.426-1.09,1.09-2.63,2.085-5.284l2.417-6.398c0.332-0.853,0.474-1.303,0.403-1.682
		c0.568-0.166,0.971-0.593,1.232-0.901c0.143,0,0.308,0.048,0.355,0.214c0.308,1.043,0.688,2.133,1.043,3.175l3.246,9.526
		c0.688,2.038,0.996,2.394,2.015,2.512l0.64,0.071c0.166,0.118,0.119,0.498,0,0.593c-0.972-0.048-1.801-0.071-2.867-0.071
		c-1.138,0-2.038,0.048-2.725,0.071c-0.19-0.095-0.213-0.475-0.047-0.593l0.687-0.071c0.498-0.047,0.83-0.189,0.83-0.426
		c0-0.261-0.119-0.688-0.308-1.256L40.302,175.244z M35.61,173.136c-0.189,0.545-0.166,0.568,0.498,0.568h2.915
		c0.687,0,0.734-0.095,0.521-0.734l-1.279-3.862c-0.19-0.569-0.403-1.209-0.545-1.493h-0.047c-0.071,0.118-0.308,0.688-0.568,1.398
		L35.61,173.136z"/>
	<path fill="#FFFFFF" d="M62.981,176.714c0,0.711,0,3.53,0.071,4.146c-0.047,0.143-0.189,0.261-0.45,0.261
		c-0.284-0.402-0.971-1.232-3.033-3.578l-5.498-6.256c-0.64-0.734-2.251-2.678-2.749-3.199h-0.047
		c-0.095,0.284-0.118,0.829-0.118,1.54v5.166c0,1.114,0.023,4.194,0.426,4.905c0.142,0.261,0.616,0.403,1.208,0.45l0.735,0.071
		c0.142,0.189,0.118,0.474-0.047,0.593c-1.066-0.048-1.896-0.071-2.772-0.071c-0.996,0-1.635,0.023-2.465,0.071
		c-0.166-0.119-0.189-0.45-0.047-0.593l0.64-0.071c0.545-0.07,0.924-0.213,1.042-0.474c0.332-0.854,0.308-3.744,0.308-4.882v-6.848
		c0-0.664-0.024-1.161-0.521-1.707c-0.332-0.331-0.9-0.497-1.469-0.568l-0.403-0.047c-0.142-0.143-0.142-0.498,0.047-0.593
		c0.996,0.071,2.251,0.071,2.678,0.071c0.379,0,0.782-0.024,1.09-0.071c0.474,1.208,3.27,4.337,4.052,5.213l2.298,2.583
		c1.635,1.825,2.796,3.152,3.91,4.289h0.047c0.095-0.118,0.095-0.497,0.095-0.995v-5.071c0-1.113-0.023-4.194-0.474-4.905
		c-0.142-0.213-0.521-0.355-1.469-0.474l-0.403-0.047c-0.166-0.143-0.142-0.521,0.047-0.593c1.09,0.047,1.896,0.071,2.796,0.071
		c1.019,0,1.635-0.024,2.441-0.071c0.189,0.118,0.189,0.45,0.047,0.593l-0.332,0.047c-0.758,0.118-1.232,0.309-1.327,0.498
		c-0.403,0.853-0.355,3.791-0.355,4.881V176.714z"/>
	<path fill="#FFFFFF" d="M70.566,168.657c0-2.488-0.047-2.868-1.422-2.986l-0.592-0.047c-0.142-0.096-0.095-0.521,0.047-0.593
		c1.161,0.047,1.919,0.071,2.986,0.071c0.924,0,1.73-0.024,2.749-0.071c0.143,0.071,0.19,0.497,0.048,0.593l-0.451,0.047
		c-1.374,0.143-1.421,0.498-1.421,2.986v2.725c0,0.45,0.047,0.9,0.308,0.9c0.213,0,0.498-0.142,0.664-0.261
		c0.332-0.284,0.948-0.9,1.208-1.138l2.56-2.535c0.45-0.427,1.611-1.635,1.848-1.967c0.119-0.166,0.166-0.284,0.166-0.379
		s-0.095-0.166-0.403-0.237l-0.64-0.142c-0.166-0.166-0.143-0.475,0.047-0.593c0.829,0.047,1.777,0.071,2.606,0.071
		s1.635-0.024,2.346-0.071c0.166,0.118,0.189,0.45,0.047,0.593c-0.616,0.047-1.541,0.284-2.204,0.663s-1.99,1.493-3.317,2.749
		l-2.133,2.014c-0.332,0.332-0.545,0.545-0.545,0.735c0,0.165,0.142,0.355,0.45,0.734c2.251,2.583,4.076,4.716,5.924,6.658
		c0.569,0.569,1.09,0.877,1.896,0.972l0.64,0.071c0.166,0.118,0.118,0.521-0.047,0.593c-0.616-0.048-1.541-0.071-2.654-0.071
		c-0.972,0-1.801,0.023-2.891,0.071c-0.166-0.048-0.237-0.45-0.095-0.593l0.545-0.095c0.332-0.047,0.569-0.118,0.569-0.237
		c0-0.142-0.166-0.331-0.332-0.545c-0.45-0.568-1.066-1.208-1.967-2.228l-1.896-2.133c-1.351-1.517-1.73-1.99-2.298-1.99
		c-0.355,0-0.403,0.309-0.403,1.138v3.057c0,2.488,0.047,2.82,1.374,2.962l0.64,0.071c0.142,0.095,0.095,0.521-0.047,0.593
		c-1.161-0.048-1.967-0.071-2.891-0.071c-0.972,0-1.777,0.023-2.749,0.071c-0.142-0.071-0.189-0.427-0.047-0.593l0.474-0.071
		c1.256-0.189,1.303-0.474,1.303-2.962V168.657z"/>
	<path fill="#FFFFFF" d="M88.34,168.657c0-2.488-0.047-2.868-1.541-2.986l-0.592-0.047c-0.142-0.096-0.095-0.521,0.047-0.593
		c1.327,0.047,2.133,0.071,3.081,0.071c0.924,0,1.73-0.024,2.915-0.071c0.142,0.071,0.189,0.497,0.047,0.593l-0.569,0.047
		c-1.398,0.118-1.445,0.498-1.445,2.986v8.246c0,1.493,0.071,2.109,0.498,2.56c0.261,0.261,0.711,0.545,2.583,0.545
		c2.014,0,2.512-0.095,2.891-0.309c0.474-0.284,1.09-1.137,1.564-2.346c0.142-0.118,0.592-0.023,0.592,0.143
		c0,0.261-0.664,2.678-0.996,3.317c-1.208-0.048-3.459-0.071-5.9-0.071h-2.18c-0.995,0-1.753,0.023-3.081,0.071
		c-0.142-0.071-0.189-0.45-0.047-0.593l0.711-0.071c1.375-0.142,1.422-0.474,1.422-2.962V168.657z"/>
	<path fill="#FFFFFF" d="M103.223,168.704c0-2.512-0.047-2.915-1.445-3.033l-0.593-0.047c-0.142-0.096-0.095-0.521,0.047-0.593
		c1.185,0.047,1.991,0.071,2.986,0.071c0.948,0,1.754-0.024,2.938-0.071c0.142,0.071,0.189,0.497,0.047,0.593l-0.592,0.047
		c-1.398,0.118-1.445,0.521-1.445,3.033v8.437c0,2.512,0.047,2.843,1.445,3.009l0.592,0.071c0.142,0.095,0.095,0.521-0.047,0.593
		c-1.185-0.048-1.99-0.071-2.938-0.071c-0.995,0-1.801,0.023-2.986,0.071c-0.142-0.071-0.189-0.45-0.047-0.593l0.593-0.071
		c1.398-0.166,1.445-0.497,1.445-3.009V168.704z"/>
	<path fill="#FFFFFF" d="M125.736,176.714c0,0.711,0,3.53,0.071,4.146c-0.047,0.143-0.189,0.261-0.45,0.261
		c-0.284-0.402-0.971-1.232-3.033-3.578l-5.498-6.256c-0.64-0.734-2.251-2.678-2.749-3.199h-0.047
		c-0.095,0.284-0.118,0.829-0.118,1.54v5.166c0,1.114,0.023,4.194,0.426,4.905c0.142,0.261,0.616,0.403,1.208,0.45l0.735,0.071
		c0.142,0.189,0.118,0.474-0.047,0.593c-1.066-0.048-1.896-0.071-2.772-0.071c-0.996,0-1.635,0.023-2.465,0.071
		c-0.166-0.119-0.189-0.45-0.047-0.593l0.64-0.071c0.545-0.07,0.924-0.213,1.042-0.474c0.332-0.854,0.308-3.744,0.308-4.882v-6.848
		c0-0.664-0.024-1.161-0.521-1.707c-0.332-0.331-0.9-0.497-1.469-0.568l-0.403-0.047c-0.142-0.143-0.142-0.498,0.047-0.593
		c0.996,0.071,2.251,0.071,2.678,0.071c0.379,0,0.782-0.024,1.09-0.071c0.474,1.208,3.27,4.337,4.052,5.213l2.298,2.583
		c1.635,1.825,2.796,3.152,3.91,4.289h0.047c0.095-0.118,0.095-0.497,0.095-0.995v-5.071c0-1.113-0.023-4.194-0.474-4.905
		c-0.142-0.213-0.521-0.355-1.469-0.474l-0.403-0.047c-0.166-0.143-0.142-0.521,0.047-0.593c1.09,0.047,1.896,0.071,2.796,0.071
		c1.019,0,1.635-0.024,2.441-0.071c0.189,0.118,0.189,0.45,0.047,0.593l-0.332,0.047c-0.758,0.118-1.232,0.309-1.327,0.498
		c-0.403,0.853-0.355,3.791-0.355,4.881V176.714z"/>
	<path fill="#FFFFFF" d="M140.999,168.183c0-1.658-0.119-2.156-1.114-2.299l-0.521-0.07c-0.189-0.119-0.213-0.498,0.024-0.593
		c2.014-0.118,3.934-0.189,5.948-0.189c1.991,0,3.673,0.142,5.213,0.711c3.199,1.161,4.811,3.862,4.811,6.99
		c0,3.01-1.445,5.593-4.147,7.062c-1.541,0.83-3.483,1.138-5.308,1.138c-1.517,0-3.033-0.189-3.863-0.189
		c-0.995,0-1.848,0.023-2.962,0.071c-0.142-0.071-0.189-0.45-0.047-0.593l0.545-0.071c1.375-0.189,1.422-0.474,1.422-2.962V168.183z
		 M142.942,176.643c0,1.256,0.071,2.015,0.474,2.583c0.521,0.734,1.422,0.972,2.915,0.972c4.597,0,6.659-3.01,6.659-7.417
		c0-2.606-1.256-7.015-7.465-7.015c-1.398,0-2.156,0.189-2.346,0.332c-0.189,0.142-0.237,0.734-0.237,1.801V176.643z"/>
	<path fill="#FFFFFF" d="M159.863,179.771c0-0.806,0.568-1.398,1.327-1.398c0.806,0,1.327,0.641,1.327,1.398
		c0,0.759-0.521,1.304-1.327,1.304C160.503,181.074,159.863,180.576,159.863,179.771z"/>
	<path fill="#FFFFFF" d="M172.519,168.681c0-2.251-0.071-2.654-1.043-2.772l-0.758-0.095c-0.166-0.119-0.166-0.498,0.023-0.593
		c1.327-0.118,2.962-0.189,5.284-0.189c1.47,0,2.867,0.118,3.958,0.711c1.137,0.593,1.967,1.658,1.967,3.317
		c0,2.251-1.777,3.483-2.962,3.957c-0.119,0.143,0,0.38,0.118,0.569c1.896,3.057,3.151,4.952,4.763,6.303
		c0.403,0.355,0.995,0.616,1.636,0.664c0.118,0.047,0.142,0.237,0.023,0.332c-0.214,0.07-0.593,0.118-1.043,0.118
		c-2.014,0-3.223-0.593-4.905-2.986c-0.616-0.876-1.588-2.512-2.322-3.578c-0.355-0.521-0.734-0.758-1.683-0.758
		c-1.066,0-1.113,0.023-1.113,0.521v2.985c0,2.488,0.047,2.772,1.422,2.962l0.497,0.071c0.143,0.118,0.095,0.521-0.047,0.593
		c-1.066-0.048-1.872-0.071-2.82-0.071c-0.995,0-1.849,0.023-2.962,0.071c-0.143-0.071-0.189-0.427-0.048-0.593l0.593-0.071
		c1.374-0.166,1.422-0.474,1.422-2.962V168.681z M174.462,172.069c0,0.427,0,0.687,0.071,0.782c0.07,0.07,0.426,0.118,1.635,0.118
		c0.853,0,1.754-0.095,2.44-0.616c0.64-0.498,1.186-1.327,1.186-2.938c0-1.872-1.161-3.649-3.792-3.649
		c-1.469,0-1.54,0.095-1.54,0.759V172.069z"/>
	<path fill="#FFFFFF" d="M186.785,173.088c0-4.739,3.555-8.365,8.437-8.365c5.474,0,8.223,3.958,8.223,8.129
		c0,4.786-3.649,8.27-8.223,8.27C189.96,181.121,186.785,177.354,186.785,173.088z M201.074,173.586c0-3.91-1.729-8.128-6.256-8.128
		c-2.464,0-5.663,1.683-5.663,6.872c0,3.507,1.706,8.057,6.374,8.057C198.373,180.387,201.074,178.254,201.074,173.586z"/>
	<path fill="#FFFFFF" d="M207.379,173.088c0-4.739,3.555-8.365,8.437-8.365c5.474,0,8.223,3.958,8.223,8.129
		c0,4.786-3.649,8.27-8.223,8.27C210.555,181.121,207.379,177.354,207.379,173.088z M221.668,173.586
		c0-3.91-1.729-8.128-6.256-8.128c-2.464,0-5.663,1.683-5.663,6.872c0,3.507,1.706,8.057,6.374,8.057
		C218.967,180.387,221.668,178.254,221.668,173.586z"/>
	<path fill="#FFFFFF" d="M232.192,181.121c-1.99,0-3.246-0.616-3.696-0.877c-0.284-0.521-0.593-2.203-0.64-3.317
		c0.118-0.166,0.474-0.213,0.568-0.071c0.355,1.209,1.327,3.531,4.076,3.531c1.99,0,2.962-1.304,2.962-2.726
		c0-1.042-0.213-2.203-1.943-3.317l-2.251-1.469c-1.185-0.782-2.56-2.133-2.56-4.076c0-2.251,1.754-4.076,4.835-4.076
		c0.734,0,1.587,0.143,2.203,0.309c0.309,0.095,0.641,0.142,0.83,0.142c0.213,0.569,0.426,1.896,0.426,2.892
		c-0.095,0.142-0.474,0.213-0.592,0.071c-0.309-1.138-0.948-2.678-3.223-2.678c-2.322,0-2.82,1.54-2.82,2.63
		c0,1.375,1.138,2.37,2.015,2.915l1.896,1.185c1.493,0.924,2.962,2.299,2.962,4.55C237.24,179.344,235.273,181.121,232.192,181.121z
		"/>
	<path fill="#FFFFFF" d="M243.284,168.657c0-2.465-0.048-2.82-1.445-2.986l-0.379-0.047c-0.143-0.096-0.096-0.521,0.047-0.593
		c1.02,0.047,1.825,0.071,2.796,0.071h4.455c1.517,0,2.915,0,3.199-0.071c0.143,0.402,0.284,2.109,0.379,3.151
		c-0.095,0.143-0.474,0.189-0.592,0.048c-0.355-1.114-0.569-1.943-1.801-2.251c-0.498-0.119-1.256-0.143-2.299-0.143h-1.706
		c-0.711,0-0.711,0.047-0.711,0.948v4.739c0,0.663,0.071,0.663,0.782,0.663h1.374c0.995,0,1.729-0.047,2.015-0.142
		c0.284-0.096,0.45-0.237,0.568-0.83l0.189-0.972c0.118-0.142,0.521-0.142,0.616,0.024c0,0.568-0.095,1.492-0.095,2.393
		c0,0.854,0.095,1.754,0.095,2.275c-0.095,0.166-0.498,0.166-0.616,0.023l-0.213-0.924c-0.095-0.427-0.261-0.782-0.735-0.9
		c-0.331-0.095-0.9-0.119-1.824-0.119h-1.374c-0.711,0-0.782,0.024-0.782,0.641v3.341c0,1.256,0.071,2.062,0.45,2.465
		c0.284,0.284,0.782,0.545,2.867,0.545c1.824,0,2.512-0.095,3.033-0.355c0.427-0.237,1.066-1.066,1.683-2.299
		c0.166-0.118,0.497-0.048,0.592,0.166c-0.165,0.829-0.758,2.654-1.065,3.294c-2.133-0.048-4.242-0.071-6.352-0.071h-2.133
		c-1.019,0-1.824,0.023-3.223,0.071c-0.142-0.071-0.189-0.45-0.047-0.593l0.782-0.071c1.351-0.118,1.469-0.474,1.469-2.962V168.657z
		"/>
	<path fill="#FFFFFF" d="M257.954,167.614c-0.546-1.327-0.901-1.825-1.92-1.943l-0.427-0.047c-0.166-0.143-0.142-0.475,0.048-0.593
		c0.688,0.047,1.445,0.071,2.464,0.071c1.043,0,1.872-0.024,2.868-0.071c0.165,0.095,0.213,0.45,0.047,0.593l-0.355,0.047
		c-0.9,0.118-1.09,0.261-1.113,0.45c0.047,0.237,0.45,1.517,1.185,3.317c1.09,2.749,2.18,5.475,3.365,8.176
		c0.734-1.564,1.729-4.005,2.274-5.261c0.688-1.611,1.801-4.289,2.204-5.309c0.189-0.497,0.213-0.758,0.213-0.924
		s-0.236-0.355-1.066-0.45l-0.427-0.047c-0.165-0.143-0.118-0.498,0.048-0.593c0.663,0.047,1.564,0.071,2.465,0.071
		c0.781,0,1.517-0.024,2.298-0.071c0.166,0.095,0.166,0.474,0.048,0.593l-0.711,0.047c-0.568,0.048-0.924,0.332-1.232,0.829
		c-0.663,1.114-1.588,3.033-2.654,5.45l-1.279,2.915c-0.948,2.181-2.062,4.929-2.465,6.185c-0.07,0.048-0.165,0.071-0.26,0.071
		c-0.119,0-0.237-0.023-0.355-0.071c-0.261-0.995-0.688-2.156-1.091-3.151L257.954,167.614z"/>
	<path fill="#FFFFFF" d="M276.39,168.657c0-2.465-0.048-2.82-1.445-2.986l-0.379-0.047c-0.143-0.096-0.096-0.521,0.047-0.593
		c1.019,0.047,1.825,0.071,2.796,0.071h4.455c1.517,0,2.915,0,3.199-0.071c0.143,0.402,0.284,2.109,0.379,3.151
		c-0.095,0.143-0.474,0.189-0.592,0.048c-0.355-1.114-0.569-1.943-1.801-2.251c-0.498-0.119-1.256-0.143-2.299-0.143h-1.706
		c-0.711,0-0.711,0.047-0.711,0.948v4.739c0,0.663,0.071,0.663,0.782,0.663h1.374c0.995,0,1.729-0.047,2.015-0.142
		c0.284-0.096,0.45-0.237,0.568-0.83l0.189-0.972c0.118-0.142,0.521-0.142,0.616,0.024c0,0.568-0.095,1.492-0.095,2.393
		c0,0.854,0.095,1.754,0.095,2.275c-0.095,0.166-0.498,0.166-0.616,0.023l-0.213-0.924c-0.095-0.427-0.261-0.782-0.735-0.9
		c-0.331-0.095-0.9-0.119-1.824-0.119h-1.374c-0.711,0-0.782,0.024-0.782,0.641v3.341c0,1.256,0.071,2.062,0.45,2.465
		c0.284,0.284,0.782,0.545,2.867,0.545c1.824,0,2.512-0.095,3.033-0.355c0.427-0.237,1.066-1.066,1.683-2.299
		c0.166-0.118,0.497-0.048,0.592,0.166c-0.165,0.829-0.758,2.654-1.065,3.294c-2.133-0.048-4.242-0.071-6.352-0.071h-2.133
		c-1.019,0-1.824,0.023-3.223,0.071c-0.142-0.071-0.189-0.45-0.047-0.593l0.782-0.071c1.351-0.118,1.469-0.474,1.469-2.962V168.657z
		"/>
	<path fill="#FFFFFF" d="M291.984,168.657c0-2.488-0.048-2.868-1.54-2.986l-0.593-0.047c-0.142-0.096-0.095-0.521,0.048-0.593
		c1.326,0.047,2.133,0.071,3.08,0.071c0.925,0,1.73-0.024,2.915-0.071c0.142,0.071,0.189,0.497,0.047,0.593l-0.568,0.047
		c-1.398,0.118-1.445,0.498-1.445,2.986v8.246c0,1.493,0.071,2.109,0.497,2.56c0.261,0.261,0.711,0.545,2.583,0.545
		c2.015,0,2.512-0.095,2.892-0.309c0.474-0.284,1.09-1.137,1.563-2.346c0.143-0.118,0.593-0.023,0.593,0.143
		c0,0.261-0.664,2.678-0.995,3.317c-1.209-0.048-3.46-0.071-5.9-0.071h-2.181c-0.995,0-1.754,0.023-3.08,0.071
		c-0.143-0.071-0.189-0.45-0.048-0.593l0.711-0.071c1.374-0.142,1.422-0.474,1.422-2.962V168.657z"/>
	<path fill="#FFFFFF" d="M310.208,177.188c0,2.488,0.047,2.844,1.422,2.962l0.758,0.071c0.143,0.095,0.095,0.521-0.047,0.593
		c-1.351-0.048-2.157-0.071-3.104-0.071c-0.948,0-1.777,0.023-3.294,0.071c-0.143-0.071-0.189-0.475,0-0.593l0.853-0.071
		c1.352-0.118,1.47-0.474,1.47-2.962v-10.593c0-0.734,0-0.758-0.711-0.758h-1.304c-1.019,0-2.322,0.047-2.914,0.593
		c-0.569,0.521-0.806,1.042-1.066,1.635c-0.189,0.142-0.521,0.023-0.616-0.166c0.379-1.066,0.734-2.583,0.9-3.531
		c0.071-0.047,0.379-0.07,0.45,0c0.143,0.759,0.924,0.735,2.015,0.735h9.597c1.279,0,1.493-0.048,1.849-0.664
		c0.118-0.047,0.379-0.023,0.427,0.071c-0.261,0.972-0.427,2.891-0.355,3.602c-0.095,0.19-0.498,0.19-0.616,0.048
		c-0.071-0.593-0.237-1.47-0.593-1.729c-0.545-0.403-1.445-0.593-2.749-0.593h-1.683c-0.711,0-0.687,0.023-0.687,0.806V177.188z"/>
</g>
<g>
	<path fill="#FFFFFF" d="M4.043,195.785c0,0.64,0.071,0.64,0.782,0.64h1.611c0.972,0,1.73-0.048,2.014-0.143
		c0.261-0.095,0.45-0.213,0.593-0.829l0.213-0.948c0.119-0.142,0.521-0.142,0.616,0c0,0.569-0.095,1.517-0.095,2.394
		c0,0.854,0.095,1.754,0.095,2.299c-0.095,0.142-0.45,0.142-0.616,0l-0.237-0.925c-0.119-0.426-0.308-0.758-0.758-0.9
		c-0.332-0.095-0.924-0.118-1.825-0.118H4.825c-0.711,0-0.782,0.023-0.782,0.64v3.294c0,2.488,0.047,2.844,1.445,2.962l0.806,0.071
		c0.142,0.095,0.095,0.521-0.047,0.593c-1.398-0.048-2.204-0.071-3.152-0.071c-1.042,0-1.848,0.023-2.962,0.071
		c-0.142-0.071-0.189-0.45-0.047-0.593l0.592-0.071c1.375-0.166,1.422-0.474,1.422-2.962v-8.53c0-2.488-0.047-2.82-1.422-2.986
		l-0.379-0.047c-0.143-0.096-0.095-0.521,0.047-0.593c0.995,0.047,1.801,0.071,2.749,0.071h4.36c1.517,0,2.891,0,3.199-0.071
		c0,1.09,0.023,2.228,0.071,3.128c-0.071,0.143-0.403,0.213-0.568,0.071c-0.19-1.066-0.474-1.943-1.659-2.251
		c-0.521-0.143-1.303-0.143-2.298-0.143H4.754c-0.711,0-0.711,0.047-0.711,0.948V195.785z"/>
	<path fill="#FFFFFF" d="M16.201,197.088c0-4.739,3.555-8.365,8.437-8.365c5.474,0,8.223,3.958,8.223,8.129
		c0,4.786-3.649,8.27-8.223,8.27C19.376,205.121,16.201,201.354,16.201,197.088z M30.49,197.586c0-3.91-1.73-8.128-6.256-8.128
		c-2.465,0-5.664,1.683-5.664,6.872c0,3.507,1.706,8.057,6.374,8.057C27.789,204.387,30.49,202.254,30.49,197.586z"/>
	<path fill="#FFFFFF" d="M51.606,195.05c0-1.469-0.047-4.194-0.45-4.905c-0.166-0.284-0.592-0.45-1.185-0.497l-0.593-0.048
		c-0.142-0.166-0.095-0.474,0.048-0.568c0.9,0.047,1.777,0.071,2.701,0.071c0.995,0,1.635-0.024,2.488-0.071
		c0.189,0.118,0.166,0.427,0.047,0.568l-0.569,0.048c-0.592,0.047-1.042,0.261-1.185,0.568c-0.332,0.782-0.332,3.507-0.332,4.834
		v2.678c0,2.062-0.332,4.242-1.659,5.664c-1.019,1.113-2.772,1.729-4.526,1.729c-1.635,0-3.271-0.308-4.432-1.303
		c-1.256-1.043-1.848-2.772-1.848-5.593v-5.593c0-2.464-0.047-2.867-1.422-2.985l-0.592-0.048c-0.143-0.095-0.095-0.497,0.047-0.568
		c1.185,0.047,1.99,0.071,2.938,0.071c0.971,0,1.753-0.024,2.915-0.071c0.142,0.071,0.189,0.474,0.047,0.568l-0.569,0.048
		c-1.375,0.118-1.422,0.521-1.422,2.985v5.119c0,3.814,1.185,6.327,4.811,6.327c3.436,0,4.739-2.702,4.739-6.304V195.05z"/>
	<path fill="#FFFFFF" d="M61.3,192.681c0-2.251-0.071-2.654-1.042-2.772l-0.758-0.095c-0.166-0.119-0.166-0.498,0.023-0.593
		c1.327-0.118,2.962-0.189,5.285-0.189c1.469,0,2.867,0.118,3.957,0.711c1.138,0.593,1.967,1.658,1.967,3.317
		c0,2.251-1.777,3.483-2.962,3.957c-0.119,0.143,0,0.38,0.119,0.569c1.896,3.057,3.151,4.952,4.763,6.303
		c0.403,0.355,0.996,0.616,1.635,0.664c0.119,0.047,0.142,0.237,0.024,0.332c-0.213,0.07-0.593,0.118-1.043,0.118
		c-2.014,0-3.223-0.593-4.905-2.986c-0.616-0.876-1.587-2.512-2.322-3.578c-0.355-0.521-0.734-0.758-1.682-0.758
		c-1.066,0-1.114,0.023-1.114,0.521v2.985c0,2.488,0.047,2.772,1.421,2.962l0.498,0.071c0.142,0.118,0.095,0.521-0.047,0.593
		c-1.066-0.048-1.872-0.071-2.82-0.071c-0.995,0-1.848,0.023-2.962,0.071c-0.142-0.071-0.189-0.427-0.047-0.593l0.592-0.071
		c1.375-0.166,1.422-0.474,1.422-2.962V192.681z M63.243,196.069c0,0.427,0,0.687,0.071,0.782c0.071,0.07,0.427,0.118,1.635,0.118
		c0.853,0,1.753-0.095,2.441-0.616c0.64-0.498,1.185-1.327,1.185-2.938c0-1.872-1.161-3.649-3.792-3.649
		c-1.469,0-1.54,0.095-1.54,0.759V196.069z"/>
	<path fill="#FFFFFF" d="M91.089,195.785c0,0.64,0.071,0.64,0.782,0.64h1.611c0.972,0,1.73-0.048,2.014-0.143
		c0.261-0.095,0.45-0.213,0.593-0.829l0.213-0.948c0.119-0.142,0.521-0.142,0.616,0c0,0.569-0.095,1.517-0.095,2.394
		c0,0.854,0.095,1.754,0.095,2.299c-0.095,0.142-0.45,0.142-0.616,0l-0.237-0.925c-0.119-0.426-0.308-0.758-0.758-0.9
		c-0.332-0.095-0.924-0.118-1.825-0.118h-1.611c-0.711,0-0.782,0.023-0.782,0.64v3.294c0,2.488,0.047,2.844,1.445,2.962l0.806,0.071
		c0.142,0.095,0.095,0.521-0.047,0.593c-1.398-0.048-2.204-0.071-3.152-0.071c-1.042,0-1.848,0.023-2.962,0.071
		c-0.142-0.071-0.189-0.45-0.047-0.593l0.592-0.071c1.375-0.166,1.422-0.474,1.422-2.962v-8.53c0-2.488-0.047-2.82-1.422-2.986
		l-0.379-0.047c-0.143-0.096-0.095-0.521,0.047-0.593c0.995,0.047,1.801,0.071,2.749,0.071h4.36c1.517,0,2.891,0,3.199-0.071
		c0,1.09,0.023,2.228,0.071,3.128c-0.071,0.143-0.403,0.213-0.568,0.071c-0.19-1.066-0.474-1.943-1.659-2.251
		c-0.521-0.143-1.303-0.143-2.298-0.143H91.8c-0.711,0-0.711,0.047-0.711,0.948V195.785z"/>
	<path fill="#FFFFFF" d="M105.19,192.681c0-2.251-0.071-2.654-1.042-2.772l-0.758-0.095c-0.166-0.119-0.166-0.498,0.023-0.593
		c1.327-0.118,2.962-0.189,5.285-0.189c1.469,0,2.867,0.118,3.957,0.711c1.138,0.593,1.967,1.658,1.967,3.317
		c0,2.251-1.777,3.483-2.962,3.957c-0.119,0.143,0,0.38,0.119,0.569c1.896,3.057,3.151,4.952,4.763,6.303
		c0.403,0.355,0.996,0.616,1.635,0.664c0.119,0.047,0.142,0.237,0.024,0.332c-0.213,0.07-0.593,0.118-1.043,0.118
		c-2.014,0-3.223-0.593-4.905-2.986c-0.616-0.876-1.587-2.512-2.322-3.578c-0.355-0.521-0.734-0.758-1.682-0.758
		c-1.066,0-1.114,0.023-1.114,0.521v2.985c0,2.488,0.047,2.772,1.421,2.962l0.498,0.071c0.142,0.118,0.095,0.521-0.047,0.593
		c-1.066-0.048-1.872-0.071-2.82-0.071c-0.995,0-1.848,0.023-2.962,0.071c-0.142-0.071-0.189-0.427-0.047-0.593l0.592-0.071
		c1.375-0.166,1.422-0.474,1.422-2.962V192.681z M107.134,196.069c0,0.427,0,0.687,0.071,0.782c0.071,0.07,0.427,0.118,1.635,0.118
		c0.853,0,1.753-0.095,2.441-0.616c0.64-0.498,1.185-1.327,1.185-2.938c0-1.872-1.161-3.649-3.792-3.649
		c-1.469,0-1.54,0.095-1.54,0.759V196.069z"/>
	<path fill="#FFFFFF" d="M123.794,192.657c0-2.465-0.047-2.82-1.445-2.986l-0.379-0.047c-0.142-0.096-0.095-0.521,0.047-0.593
		c1.019,0.047,1.825,0.071,2.796,0.071h4.455c1.517,0,2.915,0,3.199-0.071c0.143,0.402,0.285,2.109,0.379,3.151
		c-0.095,0.143-0.474,0.189-0.592,0.048c-0.355-1.114-0.569-1.943-1.801-2.251c-0.498-0.119-1.256-0.143-2.298-0.143h-1.707
		c-0.71,0-0.71,0.047-0.71,0.948v4.739c0,0.663,0.071,0.663,0.782,0.663h1.375c0.995,0,1.73-0.047,2.014-0.142
		c0.284-0.096,0.45-0.237,0.569-0.83l0.189-0.972c0.119-0.142,0.521-0.142,0.616,0.024c0,0.568-0.095,1.492-0.095,2.393
		c0,0.854,0.095,1.754,0.095,2.275c-0.095,0.166-0.498,0.166-0.616,0.023l-0.213-0.924c-0.095-0.427-0.261-0.782-0.734-0.9
		c-0.332-0.095-0.9-0.119-1.825-0.119h-1.375c-0.711,0-0.782,0.024-0.782,0.641v3.341c0,1.256,0.071,2.062,0.45,2.465
		c0.284,0.284,0.782,0.545,2.867,0.545c1.825,0,2.512-0.095,3.033-0.355c0.426-0.237,1.066-1.066,1.683-2.299
		c0.166-0.118,0.498-0.048,0.592,0.166c-0.166,0.829-0.758,2.654-1.066,3.294c-2.133-0.048-4.242-0.071-6.351-0.071h-2.133
		c-1.019,0-1.825,0.023-3.223,0.071c-0.143-0.071-0.19-0.45-0.047-0.593l0.782-0.071c1.351-0.118,1.469-0.474,1.469-2.962V192.657z"
		/>
	<path fill="#FFFFFF" d="M140.928,192.657c0-2.465-0.047-2.82-1.445-2.986l-0.379-0.047c-0.142-0.096-0.095-0.521,0.047-0.593
		c1.019,0.047,1.825,0.071,2.796,0.071h4.455c1.517,0,2.915,0,3.199-0.071c0.143,0.402,0.285,2.109,0.379,3.151
		c-0.095,0.143-0.474,0.189-0.592,0.048c-0.355-1.114-0.569-1.943-1.801-2.251c-0.498-0.119-1.256-0.143-2.298-0.143h-1.706
		c-0.711,0-0.711,0.047-0.711,0.948v4.739c0,0.663,0.071,0.663,0.782,0.663h1.375c0.995,0,1.73-0.047,2.014-0.142
		c0.284-0.096,0.45-0.237,0.569-0.83l0.189-0.972c0.119-0.142,0.521-0.142,0.616,0.024c0,0.568-0.095,1.492-0.095,2.393
		c0,0.854,0.095,1.754,0.095,2.275c-0.095,0.166-0.498,0.166-0.616,0.023l-0.213-0.924c-0.095-0.427-0.261-0.782-0.734-0.9
		c-0.332-0.095-0.9-0.119-1.825-0.119h-1.375c-0.711,0-0.782,0.024-0.782,0.641v3.341c0,1.256,0.071,2.062,0.45,2.465
		c0.284,0.284,0.782,0.545,2.867,0.545c1.825,0,2.512-0.095,3.033-0.355c0.427-0.237,1.066-1.066,1.683-2.299
		c0.166-0.118,0.498-0.048,0.592,0.166c-0.166,0.829-0.758,2.654-1.066,3.294c-2.133-0.048-4.242-0.071-6.351-0.071h-2.133
		c-1.019,0-1.825,0.023-3.223,0.071c-0.143-0.071-0.19-0.45-0.047-0.593l0.782-0.071c1.351-0.118,1.469-0.474,1.469-2.962V192.657z"
		/>
	<path fill="#FFFFFF" d="M158.086,192.183c0-1.658-0.119-2.156-1.114-2.299l-0.521-0.07c-0.189-0.119-0.213-0.498,0.024-0.593
		c2.014-0.118,3.934-0.189,5.948-0.189c1.991,0,3.673,0.142,5.213,0.711c3.199,1.161,4.811,3.862,4.811,6.99
		c0,3.01-1.445,5.593-4.147,7.062c-1.54,0.83-3.483,1.138-5.308,1.138c-1.517,0-3.033-0.189-3.863-0.189
		c-0.995,0-1.848,0.023-2.962,0.071c-0.142-0.071-0.189-0.45-0.047-0.593l0.545-0.071c1.375-0.189,1.422-0.474,1.422-2.962V192.183z
		 M160.03,200.643c0,1.256,0.071,2.015,0.474,2.583c0.521,0.734,1.422,0.972,2.915,0.972c4.597,0,6.658-3.01,6.658-7.417
		c0-2.606-1.256-7.015-7.464-7.015c-1.398,0-2.156,0.189-2.346,0.332c-0.189,0.142-0.237,0.734-0.237,1.801V200.643z"/>
	<path fill="#FFFFFF" d="M177.922,197.088c0-4.739,3.555-8.365,8.437-8.365c5.474,0,8.223,3.958,8.223,8.129
		c0,4.786-3.649,8.27-8.223,8.27C181.098,205.121,177.922,201.354,177.922,197.088z M192.211,197.586
		c0-3.91-1.729-8.128-6.256-8.128c-2.464,0-5.663,1.683-5.663,6.872c0,3.507,1.706,8.057,6.374,8.057
		C189.51,204.387,192.211,202.254,192.211,197.586z"/>
	<path fill="#FFFFFF" d="M208.185,198.415c0.545,1.114,1.066,2.204,1.636,3.246h0.047c0.64-1.113,1.232-2.346,1.825-3.554
		l2.228-4.526c1.066-2.156,1.753-3.46,1.801-4.55c0.806,0.071,1.303,0.071,1.777,0.071c0.592,0,1.374-0.024,2.108-0.071
		c0.143,0.095,0.143,0.497,0.024,0.593l-0.498,0.047c-1.493,0.143-1.683,0.593-1.659,2.251c0.048,2.512,0.071,6.896,0.261,10.309
		c0.071,1.185,0.048,1.824,1.161,1.919l0.759,0.071c0.142,0.143,0.118,0.498-0.048,0.593c-0.972-0.048-1.942-0.071-2.796-0.071
		c-0.829,0-1.896,0.023-2.867,0.071c-0.166-0.119-0.189-0.45-0.048-0.593l0.688-0.071c1.161-0.118,1.161-0.497,1.161-2.014
		l-0.071-9.882h-0.047c-0.166,0.261-1.066,2.156-1.541,3.081l-2.108,4.146c-1.066,2.085-2.133,4.312-2.56,5.403
		c-0.047,0.07-0.142,0.095-0.237,0.095c-0.047,0-0.165-0.024-0.213-0.095c-0.402-1.256-1.54-3.579-2.085-4.74l-2.133-4.573
		c-0.498-1.09-0.995-2.322-1.517-3.412h-0.048c-0.095,1.469-0.166,2.844-0.236,4.218c-0.071,1.445-0.166,3.555-0.166,5.569
		c0,1.753,0.142,2.133,1.066,2.203l0.9,0.071c0.166,0.143,0.142,0.521-0.023,0.593c-0.806-0.048-1.73-0.071-2.631-0.071
		c-0.758,0-1.611,0.023-2.417,0.071c-0.143-0.119-0.189-0.475-0.048-0.593l0.521-0.071c0.995-0.142,1.327-0.284,1.47-1.942
		c0.142-1.564,0.261-2.868,0.402-5.214c0.119-1.967,0.214-3.98,0.261-5.284c0.048-1.493-0.142-1.849-1.588-2.038l-0.379-0.047
		c-0.118-0.143-0.095-0.498,0.095-0.593c0.711,0.047,1.28,0.071,1.872,0.071c0.545,0,1.185,0,1.967-0.071
		c-0.095,0.924,0.498,2.394,1.232,3.91L208.185,198.415z"/>
	<path fill="#FFFFFF" d="M229.206,205.121c-1.99,0-3.246-0.616-3.696-0.877c-0.284-0.521-0.593-2.203-0.64-3.317
		c0.118-0.166,0.474-0.213,0.568-0.071c0.355,1.209,1.327,3.531,4.076,3.531c1.99,0,2.962-1.304,2.962-2.726
		c0-1.042-0.213-2.203-1.943-3.317l-2.251-1.469c-1.185-0.782-2.56-2.133-2.56-4.076c0-2.251,1.754-4.076,4.835-4.076
		c0.734,0,1.587,0.143,2.203,0.309c0.309,0.095,0.641,0.142,0.83,0.142c0.213,0.569,0.426,1.896,0.426,2.892
		c-0.095,0.142-0.474,0.213-0.592,0.071c-0.309-1.138-0.948-2.678-3.223-2.678c-2.322,0-2.82,1.54-2.82,2.63
		c0,1.375,1.138,2.37,2.015,2.915l1.896,1.185c1.493,0.924,2.962,2.299,2.962,4.55C234.253,203.344,232.287,205.121,229.206,205.121
		z"/>
	<path fill="#FFFFFF" d="M253,201.188c0,2.488,0.047,2.796,1.563,2.962l0.64,0.071c0.143,0.118,0.096,0.521-0.047,0.593
		c-1.351-0.048-2.133-0.071-3.081-0.071c-0.995,0-1.848,0.023-2.891,0.071c-0.143-0.071-0.189-0.45-0.048-0.593l0.498-0.071
		c1.374-0.189,1.422-0.474,1.422-2.962v-8.744c0-2.014-0.048-2.417-1.113-2.535l-0.854-0.095c-0.166-0.143-0.143-0.498,0.047-0.593
		c1.257-0.166,2.726-0.189,4.692-0.189s3.437,0.261,4.55,0.948c1.09,0.687,1.896,1.919,1.896,3.554c0,2.181-1.351,3.271-2.369,3.769
		c-1.043,0.497-2.299,0.711-3.271,0.711c-0.166-0.071-0.166-0.427-0.023-0.475c2.56-0.474,3.483-1.919,3.483-3.98
		c0-2.299-1.351-3.792-3.815-3.792c-1.256,0-1.279,0.095-1.279,0.854V201.188z"/>
	<path fill="#FFFFFF" d="M273.049,199.244c-0.166-0.521-0.261-0.592-0.972-0.592H268.5c-0.593,0-0.734,0.071-0.9,0.568l-0.829,2.488
		c-0.355,1.066-0.521,1.706-0.521,1.967c0,0.284,0.118,0.427,0.688,0.474l0.781,0.071c0.166,0.118,0.166,0.498-0.047,0.593
		c-0.616-0.048-1.351-0.048-2.465-0.071c-0.782,0-1.635,0.048-2.274,0.071c-0.143-0.095-0.189-0.475-0.048-0.593l0.782-0.071
		c0.568-0.047,1.09-0.308,1.422-1.161c0.427-1.09,1.09-2.63,2.085-5.284l2.417-6.398c0.332-0.853,0.475-1.303,0.403-1.682
		c0.568-0.166,0.972-0.593,1.232-0.901c0.142,0,0.308,0.048,0.355,0.214c0.308,1.043,0.687,2.133,1.042,3.175l3.247,9.526
		c0.687,2.038,0.995,2.394,2.014,2.512l0.64,0.071c0.166,0.118,0.119,0.498,0,0.593c-0.971-0.048-1.801-0.071-2.867-0.071
		c-1.137,0-2.038,0.048-2.725,0.071c-0.189-0.095-0.214-0.475-0.048-0.593l0.688-0.071c0.498-0.047,0.829-0.189,0.829-0.426
		c0-0.261-0.118-0.688-0.308-1.256L273.049,199.244z M268.358,197.136c-0.19,0.545-0.166,0.568,0.497,0.568h2.915
		c0.687,0,0.734-0.095,0.521-0.734l-1.28-3.862c-0.189-0.569-0.402-1.209-0.545-1.493h-0.047c-0.071,0.118-0.309,0.688-0.569,1.398
		L268.358,197.136z"/>
	<path fill="#FFFFFF" d="M284.519,192.681c0-2.251-0.071-2.654-1.043-2.772l-0.758-0.095c-0.166-0.119-0.166-0.498,0.023-0.593
		c1.327-0.118,2.962-0.189,5.284-0.189c1.47,0,2.867,0.118,3.958,0.711c1.137,0.593,1.967,1.658,1.967,3.317
		c0,2.251-1.777,3.483-2.962,3.957c-0.119,0.143,0,0.38,0.118,0.569c1.896,3.057,3.151,4.952,4.763,6.303
		c0.403,0.355,0.995,0.616,1.636,0.664c0.118,0.047,0.142,0.237,0.023,0.332c-0.214,0.07-0.593,0.118-1.043,0.118
		c-2.014,0-3.223-0.593-4.905-2.986c-0.616-0.876-1.588-2.512-2.322-3.578c-0.355-0.521-0.734-0.758-1.683-0.758
		c-1.066,0-1.113,0.023-1.113,0.521v2.985c0,2.488,0.047,2.772,1.422,2.962l0.497,0.071c0.143,0.118,0.095,0.521-0.047,0.593
		c-1.066-0.048-1.872-0.071-2.82-0.071c-0.995,0-1.849,0.023-2.962,0.071c-0.143-0.071-0.189-0.427-0.048-0.593l0.593-0.071
		c1.374-0.166,1.422-0.474,1.422-2.962V192.681z M286.462,196.069c0,0.427,0,0.687,0.071,0.782c0.07,0.07,0.426,0.118,1.635,0.118
		c0.853,0,1.754-0.095,2.44-0.616c0.64-0.498,1.186-1.327,1.186-2.938c0-1.872-1.161-3.649-3.792-3.649
		c-1.469,0-1.54,0.095-1.54,0.759V196.069z"/>
	<path fill="#FFFFFF" d="M303.123,192.657c0-2.488-0.048-2.868-1.422-2.986l-0.593-0.047c-0.142-0.096-0.095-0.521,0.048-0.593
		c1.161,0.047,1.919,0.071,2.985,0.071c0.925,0,1.73-0.024,2.749-0.071c0.143,0.071,0.189,0.497,0.048,0.593l-0.45,0.047
		c-1.375,0.143-1.422,0.498-1.422,2.986v2.725c0,0.45,0.047,0.9,0.308,0.9c0.214,0,0.498-0.142,0.664-0.261
		c0.331-0.284,0.947-0.9,1.208-1.138l2.56-2.535c0.45-0.427,1.611-1.635,1.849-1.967c0.118-0.166,0.165-0.284,0.165-0.379
		s-0.095-0.166-0.402-0.237l-0.64-0.142c-0.166-0.166-0.143-0.475,0.047-0.593c0.83,0.047,1.777,0.071,2.607,0.071
		c0.829,0,1.635-0.024,2.346-0.071c0.166,0.118,0.189,0.45,0.047,0.593c-0.616,0.047-1.54,0.284-2.203,0.663
		c-0.664,0.379-1.991,1.493-3.318,2.749l-2.132,2.014c-0.332,0.332-0.546,0.545-0.546,0.735c0,0.165,0.143,0.355,0.451,0.734
		c2.251,2.583,4.075,4.716,5.924,6.658c0.568,0.569,1.09,0.877,1.896,0.972l0.64,0.071c0.166,0.118,0.119,0.521-0.047,0.593
		c-0.616-0.048-1.54-0.071-2.654-0.071c-0.972,0-1.801,0.023-2.891,0.071c-0.166-0.048-0.237-0.45-0.095-0.593l0.545-0.095
		c0.331-0.047,0.568-0.118,0.568-0.237c0-0.142-0.166-0.331-0.332-0.545c-0.45-0.568-1.066-1.208-1.967-2.228l-1.896-2.133
		c-1.351-1.517-1.729-1.99-2.299-1.99c-0.355,0-0.402,0.309-0.402,1.138v3.057c0,2.488,0.047,2.82,1.374,2.962l0.64,0.071
		c0.143,0.095,0.095,0.521-0.047,0.593c-1.161-0.048-1.967-0.071-2.892-0.071c-0.971,0-1.777,0.023-2.748,0.071
		c-0.143-0.071-0.19-0.427-0.048-0.593l0.474-0.071c1.256-0.189,1.304-0.474,1.304-2.962V192.657z"/>
</g>
<rect x="1.357" fill="#FFFFFF" width="67.234" height="148.521"/>
<rect x="84.326" fill="#FFFFFF" width="67.234" height="148.521"/>
<rect x="166.846" fill="#FFFFFF" width="67.234" height="148.521"/>
<rect x="249.816" fill="#FFFFFF" width="67.234" height="148.521"/>
</svg>
