<?xml version="1.0" encoding="utf-8"?>
<!-- Generator: Adobe Illustrator 16.0.0, SVG Export Plug-In . SVG Version: 6.00 Build 0)  -->
<!DOCTYPE svg PUBLIC "-//W3C//DTD SVG 1.1//EN" "http://www.w3.org/Graphics/SVG/1.1/DTD/svg11.dtd">
<svg version="1.1" id="Layer_1" xmlns="http://www.w3.org/2000/svg" xmlns:xlink="http://www.w3.org/1999/xlink" x="0px" y="0px"
	 width="629.257px" height="211.085px" viewBox="0 0 629.257 211.085" enable-background="new 0 0 629.257 211.085"
	 xml:space="preserve">
<path fill="#FFFFFF" d="M0,0v209.347h211.204V0H0z M169.14,155.646H42.064v-39.006H169.14V155.646z M169.14,92.123H42.064V53.116
	H169.14V92.123z"/>
<path fill="#FFFFFF" d="M280.312,27.36c3.505,0,3.941,0,3.941-2.854v-6.689c0-7.557-0.437-7.999-5.151-8.765l-2.086-0.325
	c-0.769-0.554-0.657-2.413,0.222-2.745c4.271,0.221,7.671,0.332,11.183,0.332c3.503,0,6.905-0.111,11.178-0.332
	c0.883,0.332,0.987,2.191,0.221,2.745l-2.087,0.325c-4.708,0.766-5.15,1.208-5.15,8.765v24.56c0,7.561,0.441,8.114,5.15,8.77
	l2.53,0.332c0.766,0.547,0.65,2.407-0.223,2.739c-4.609-0.216-8.219-0.332-11.619-0.332c-3.512,0-6.913,0.116-11.183,0.332
	c-0.879-0.332-0.99-2.192-0.222-2.739l2.086-0.332c4.715-0.766,5.151-1.208,5.151-8.77v-8.662c0-2.737-0.222-2.849-3.941-2.849
	h-19.299c-3.725,0-3.946,0.111-3.946,2.849v8.662c0,7.561,0.436,8.226,5.15,8.77l2.965,0.332c0.767,0.547,0.649,2.407-0.223,2.739
	c-5.038-0.216-8.66-0.332-12.062-0.332c-3.504,0-6.905,0.116-10.3,0.332c-0.884-0.332-0.988-2.192-0.221-2.739l1.203-0.332
	c4.605-1.208,5.158-1.208,5.158-8.77v-24.56c0-7.557-0.443-8.108-5.158-8.765l-2.517-0.325c-0.768-0.554-0.664-2.413,0.222-2.745
	c4.707,0.221,8.108,0.332,11.612,0.332c3.507,0,6.906-0.111,10.749-0.332c0.872,0.332,0.981,2.191,0.222,2.745l-1.652,0.325
	c-4.604,0.871-5.15,1.208-5.15,8.765v6.689c0,2.854,0.436,2.854,3.946,2.854H280.312"/>
<path fill="#FFFFFF" d="M332.124,17.816c0-7.557-0.547-7.777-5.151-8.765l-1.534-0.325c-0.768-0.554-0.663-2.413,0.221-2.745
	c3.726,0.221,7.122,0.332,10.63,0.332c3.512,0,6.907-0.111,11.185-0.332c0.873,0.332,0.99,2.191,0.215,2.745l-2.081,0.325
	c-4.713,0.766-5.155,1.208-5.155,8.765v15.455c0,10.964,3.62,18.423,14.259,18.423c9.857,0,14.135-7.459,14.135-18.306V23.192
	c0-10.963-0.656-13.484-5.37-14.141l-2.302-0.325c-0.768-0.664-0.658-2.199,0.221-2.745c3.511,0.221,6.027,0.332,9.205,0.332
	c3.176,0,5.594-0.111,9.098-0.332c0.879,0.546,0.879,2.191,0.117,2.745l-3.297,0.325c-2.846,0.324-3.725,3.289-3.725,14.141V34.04
	c0,14.037-6.47,21.379-20.392,21.379c-7.016,0-12.277-1.418-15.565-4.604c-3.285-3.284-4.715-8.329-4.715-15.456V17.816"/>
<path fill="#FFFFFF" d="M431.52,34.598c0.768,1.418,3.505,6.353,3.947,6.685c0.436-0.22,2.405-3.727,4.493-7.674l5.482-10.525
	c5.259-10.085,5.806-11.952,7.561-17.102c2.412,0.221,4.61,0.332,6.358,0.332c2.634,0,5.814-0.111,8.994-0.332
	c0.981,0.332,1.092,2.191,0.332,2.745l-2.413,0.325c-5.045,0.656-5.273,2.735-5.273,9.206c0,11.626,0,20.938,0.559,27.518
	c0.216,2.407,0.216,5.039,3.616,5.37l3.18,0.332c0.76,0.437,0.76,2.303-0.117,2.739c-3.941-0.216-8.221-0.332-10.957-0.332
	c-3.18,0-6.58,0.116-9.649,0.332c-0.771-0.552-0.878-2.302-0.11-2.739l2.412-0.332c3.512-0.44,3.512-1.312,3.512-5.702V20.117
	c0-1.312,0-2.952-0.332-3.172c-0.331,0-3.18,5.48-4.713,8.33l-6.687,12.607c-0.883,1.646-6.579,13.044-7.781,16.549
	c-0.553,0.442-1.424,0.442-2.086,0c-1.204-3.94-4.599-10.964-6.471-14.573l-7.126-13.816c-1.197-2.406-3.506-8.225-4.377-8.55
	c-0.442,0.547-0.553,7.894-0.663,10.962c-0.104,4.389-0.221,8.988-0.221,14.364c0,5.585,0.116,7.997,3.179,8.328l3.621,0.332
	c0.768,0.437,0.659,2.303-0.108,2.739c-2.849-0.216-6.028-0.332-8.992-0.332c-2.414,0-5.697,0.116-9.097,0.332
	c-0.768-0.436-0.878-2.192,0-2.739l2.301-0.332c3.615-0.544,3.954-1.645,4.499-5.48c0.871-5.923,1.527-23.571,1.527-31.03
	c0-3.505-1.201-5.143-4.928-5.584l-2.627-0.325c-0.663-0.554-0.773-2.309,0.208-2.745c2.964,0.221,5.481,0.332,8.447,0.332
	c2.19,0,4.498,0,8.005-0.332c0,4.825,1.969,8.33,5.695,15.566L431.52,34.598"/>
<path fill="#FFFFFF" d="M516.877,33.389c2.854,0,3.181-0.221,1.971-3.4l-3.4-9.318c-0.871-2.517-1.314-3.4-1.638-3.945h-0.222
	c-0.332,0.44-0.769,1.429-1.75,3.73l-3.953,9.754c-1.203,2.959-0.982,3.18,1.43,3.18H516.877 M508.216,36.893
	c-2.523,0-2.849,0.111-3.732,2.634l-2.518,7.015c-1.21,3.511-0.878,3.948,1.203,4.384l2.966,0.552
	c0.871,0.547,0.767,2.523-0.332,2.739c-2.742-0.216-5.591-0.332-8.661-0.332c-3.069,0-5.696,0.219-7.678,0.332
	c-0.982-0.436-0.982-2.192-0.215-2.739l2.521-0.552c3.4-0.769,4.61-1.977,6.796-7.237l10.52-25.21
	c1.867-4.492,2.633-7.126,2.855-9.207c1.97-0.768,4.057-2.854,4.608-4.167c0.874-0.325,1.53-0.11,1.749,0.546
	c0.438,1.099,2.193,6.801,4.716,13.479l9.864,26.21c1.319,3.609,2.302,5.04,6.248,5.806l1.755,0.332
	c0.981,0.547,0.767,2.523-0.332,2.739c-2.846-0.216-5.369-0.332-9.095-0.332c-3.947,0-7.126,0.116-9.865,0.332
	c-1.098-0.332-1.208-2.302-0.22-2.739l2.191-0.332c2.847-0.44,2.744-1.092,1.423-4.491l-2.627-7.127
	c-0.883-2.523-1.209-2.634-3.731-2.634H508.216z"/>
<path fill="#FFFFFF" d="M606.624,23.192c0-10.963-0.663-13.699-4.714-14.141l-3.512-0.325c-0.767-0.664-0.656-2.199,0.215-2.745
	c4.057,0.221,6.58,0.332,9.758,0.332c3.18,0,5.599-0.111,9.104-0.332c0.871,0.546,0.871,2.191,0.103,2.745l-3.283,0.325
	c-2.854,0.324-3.725,3.289-3.725,14.141v18.415c0,2.199,0,11.073,0.323,12.719c-0.323,0.657-1.313,1.203-2.301,0.988
	c-1.209-1.534-3.4-3.837-10.195-11.184l-16.66-17.758c-4.167-4.389-7.016-7.243-8.444-8.439c-0.437,0-0.437,1.196-0.437,4.596
	v14.475c0,10.968,0.657,13.81,4.714,14.141l3.506,0.332c0.876,0.651,0.661,2.187-0.215,2.739c-4.058-0.216-6.58-0.332-9.76-0.332
	c-3.179,0-5.26,0.116-9.096,0.332c-0.879-0.436-0.879-2.192-0.109-2.739l3.283-0.332c2.853-0.331,3.731-3.289,3.731-14.141V17.38
	c0-3.613-0.111-5.15-2.304-6.795c-0.883-0.662-2.964-1.313-4.057-1.533l-1.645-0.325c-0.768-0.664-0.768-2.309,0.221-2.745
	c4.169,0.332,7.127,0.332,9.429,0.332c1.534,0,3.068-0.111,4.382-0.332c2.193,4.163,6.25,8.876,10.749,13.485l10.298,10.632
	c2.414,2.412,8.767,9.319,9.977,10.19c0.663-0.215,0.663-1.75,0.663-4.377V23.192"/>
<path fill="#FFFFFF" d="M257.066,111.617c0,2.738,0.11,2.738,5.482,2.738c7.124,0,10.851-2.848,10.851-10.417
	c0-5.481-3.835-10.3-11.508-10.3c-4.058,0-4.825,0.222-4.825,3.067V111.617 M248.738,103.614c0-7.128-0.112-8.987-2.634-9.319
	l-3.068-0.435c-0.878-0.117-1.1-2.414,0-2.744c6.028-0.436,12.17-0.659,18.199-0.659c10.195,0,21.263,1.645,21.263,13.156
	c0,7.015-5.481,10.193-9.754,11.73c-0.442,0.434-0.332,1.096,0,1.645c5.48,9.207,10.307,14.577,13.922,17.535
	c1.969,1.645,4.05,2.191,5.806,2.309c0.442,0.43,0.442,1.418,0,1.756c-0.988,0.324-2.523,0.546-4.603,0.546
	c-6.581,0-10.521-2.081-15.346-8.225c-2.745-3.505-5.702-8.335-8.004-11.84c-0.872-1.313-2.627-1.755-4.383-1.755
	c-2.848,0-3.069,0.219-3.069,1.755v7.789c0,7.562,0.436,8.108,5.15,8.766l2.523,0.325c0.768,0.554,0.663,2.418-0.221,2.745
	c-4.598-0.222-8.22-0.327-11.621-0.327c-3.504,0-6.905,0.105-10.74,0.327c-1.094-0.327-1.211-2.303-0.222-2.745l1.645-0.325
	c4.714-0.987,5.158-1.204,5.158-8.766V103.614z"/>
<path fill="#FFFFFF" d="M318.971,102.3c0-7.569-0.436-8.005-5.151-8.772l-2.081-0.332c-0.767-0.545-0.662-2.412,0.217-2.738
	c4.277,0.223,7.678,0.326,11.182,0.326c3.511,0,6.905-0.104,11.183-0.326c0.873,0.326,0.988,2.193,0.223,2.738l-2.087,0.332
	c-4.708,0.767-5.15,1.203-5.15,8.772v24.558c0,7.562,0.442,7.999,5.15,8.766l2.087,0.325c0.766,0.554,0.65,2.418-0.223,2.745
	c-4.167-0.222-7.783-0.327-11.183-0.327c-3.504,0-6.905,0.105-11.182,0.327c-0.878-0.327-0.984-2.191-0.217-2.745l2.081-0.325
	c4.716-0.767,5.151-1.204,5.151-8.766V102.3"/>
<path fill="#FFFFFF" d="M395.686,128.498c0-5.04-0.104-5.703-5.04-6.575l-3.511-0.661c-0.763-0.548-0.763-2.083,0.111-2.739
	c4.387,0.221,9.206,0.325,12.387,0.325c3.067,0,6.688-0.104,9.322-0.325c0.873,0.547,0.99,2.082,0.326,2.739l-1.977,0.44
	c-2.848,0.657-3.283,1.313-3.283,6.027v3.069c0,2.633,0.223,4.278,1.756,5.039c0.429,0.332,0.429,1.321-0.117,1.542
	c-1.203,0-3.505,0.649-6.574,1.209c-2.959,0.546-6.795,1.312-10.962,1.312c-9.754,0-17.765-2.301-23.57-8.113
	c-4.605-4.604-6.796-10.964-6.796-16.666c0-6.139,2.19-12.387,6.905-17.211c5.045-5.151,12.497-8.662,24.228-8.662
	c6.028,0,11.406,1.535,14.689,2.197c0.11,2.192,0.324,6.581,0.987,12.388c-0.546,0.988-2.191,1.093-2.85,0.104
	c-2.853-8.66-7.566-11.511-15.565-11.511c-11.508,0-18.634,8.884-18.634,21.707c0,13.492,8.33,22.582,21.594,22.582
	c5.806,0,6.574-1.092,6.574-5.48V128.498"/>
<path fill="#FFFFFF" d="M471.073,111.832c3.506,0,3.947,0,3.947-2.849V102.3c0-7.569-0.441-8.005-5.155-8.772l-2.087-0.332
	c-0.762-0.545-0.65-2.412,0.227-2.738c4.278,0.223,7.666,0.326,11.176,0.326c3.512,0,6.905-0.104,11.184-0.326
	c0.879,0.326,0.983,2.193,0.215,2.738l-2.081,0.332c-4.714,0.767-5.149,1.203-5.149,8.772v24.558c0,7.562,0.436,8.108,5.149,8.766
	l2.523,0.325c0.768,0.554,0.655,2.418-0.221,2.745c-4.597-0.222-8.22-0.327-11.621-0.327c-3.51,0-6.898,0.105-11.176,0.327
	c-0.877-0.327-0.989-2.191-0.227-2.745l2.087-0.325c4.714-0.767,5.155-1.204,5.155-8.766v-8.66c0-2.744-0.221-2.854-3.947-2.854
	h-19.299c-3.724,0-3.946,0.11-3.946,2.854v8.66c0,7.562,0.442,8.219,5.156,8.766l2.957,0.325c0.769,0.554,0.659,2.418-0.219,2.745
	c-5.039-0.222-8.662-0.327-12.056-0.327c-3.502,0-6.905,0.105-10.306,0.327c-0.87-0.327-0.987-2.191-0.22-2.745l1.211-0.325
	c4.602-1.204,5.149-1.204,5.149-8.766V102.3c0-7.569-0.436-8.116-5.149-8.772l-2.524-0.332c-0.768-0.545-0.656-2.412,0.223-2.738
	c4.712,0.223,8.115,0.326,11.617,0.326c3.514,0,6.914-0.104,10.742-0.326c0.885,0.326,0.989,2.193,0.222,2.738l-1.646,0.332
	c-4.603,0.877-5.156,1.203-5.156,8.772v6.683c0,2.849,0.442,2.849,3.946,2.849H471.073"/>
<path fill="#FFFFFF" d="M532.1,96.818c0-2.855-0.104-2.855-2.302-2.855h-3.399c-6.68,0-9.533,0.664-12.161,8.226
	c-1.098,0.657-2.308,0.332-2.744-0.552c1.209-4.716,2.406-10.19,2.96-12.933c0.435-0.443,1.533-0.443,1.976,0
	c0.11,2.191,1.64,2.08,6.022,2.08h30.476c4.063,0,4.832-0.104,5.702-2.08c0.774-0.443,1.651-0.224,1.978,0.325
	c-0.878,2.854-1.314,8.66-1.095,12.829c-0.439,0.877-2.302,0.987-2.742,0.11c-0.768-7.127-3.622-8.006-10.195-8.006h-3.728
	c-2.081,0-2.412,0-2.412,2.855v30.04c0,7.562,0.437,8.219,5.149,8.766l2.96,0.325c0.772,0.554,0.664,2.418-0.215,2.745
	c-4.493-0.222-8.662-0.327-12.062-0.327c-3.512,0-7.452,0.105-12.062,0.327c-0.876-0.327-0.982-2.191-0.214-2.745l2.958-0.325
	c4.715-0.547,5.15-1.204,5.15-8.766V96.818"/>
<path fill="#FFFFFF" d="M593.016,116.001c-5.261-2.739-9.76-7.018-9.76-13.155c0-8.004,6.145-13.597,17.216-13.597
	c3.839,0,6.472,0.989,10.198,1.646c0.87,1.864,1.639,6.025,1.532,10.741c-0.331,0.884-2.301,0.988-2.854,0.222
	c-0.872-3.832-3.727-9.431-10.195-9.431c-6.47,0-8.875,3.734-8.875,7.459c0,3.947,2.952,6.36,7.339,8.662l6.796,3.505
	c3.947,1.976,8.881,6.574,8.881,13.921c0,8.55-7.015,13.927-17.867,13.927c-6.69,0-11.073-2.301-12.608-3.399
	c-0.987-1.536-2.301-5.483-2.301-11.294c0.435-1.101,2.086-1.204,2.853-0.215c0.871,3.946,5.697,11.723,13.037,11.723
	c5.601,0,9.213-2.841,9.213-7.894c0-3.505-1.423-7.12-7.677-10.3L593.016,116.001"/>
<path fill="#FFFFFF" d="M273.166,174.82c0,1.485,0.215,4.953,0.638,7.784c-0.282,0.564-1.337,0.705-1.835,0.142
	c-1.061-3.894-3.473-7.214-9.833-7.214c-6.083,0-12.098,4.095-12.098,13.719c0,9.478,6.083,14.854,12.736,14.854
	c6.647,0,9.403-5.309,10.178-7.144c0.356-0.639,1.491-0.639,1.841,0.073c-0.35,3.105-1.484,6.359-2.326,7.636
	c-2.057,0.35-4.672,1.479-9.557,1.479c-4.456,0-8.839-0.773-12.443-3.247c-3.823-2.622-6.721-6.93-6.721-12.589
	c0-5.733,2.406-9.974,5.941-12.737c3.47-2.682,8.348-4.093,13.788-4.093C268.077,173.482,272.602,174.82,273.166,174.82"/>
<path fill="#FFFFFF" d="M308.099,191.938c1.836,0,2.05-0.14,1.263-2.189l-2.189-6.017c-0.566-1.625-0.849-2.191-1.057-2.545h-0.142
	c-0.214,0.281-0.496,0.92-1.134,2.405l-2.547,6.292c-0.774,1.915-0.633,2.055,0.92,2.055H308.099 M302.507,194.205
	c-1.626,0-1.841,0.066-2.405,1.693l-1.628,4.53c-0.772,2.258-0.563,2.541,0.78,2.822l1.909,0.356
	c0.564,0.356,0.497,1.628-0.216,1.768c-1.761-0.14-3.602-0.209-5.584-0.209c-1.984,0-3.676,0.136-4.949,0.209
	c-0.638-0.289-0.638-1.411-0.141-1.768l1.625-0.356c2.192-0.498,2.973-1.264,4.391-4.664l6.784-16.271
	c1.202-2.899,1.701-4.593,1.833-5.936c1.277-0.493,2.629-1.836,2.977-2.697c0.564-0.201,0.99-0.066,1.131,0.363
	c0.283,0.706,1.419,4.382,3.044,8.699l6.365,16.903c0.848,2.339,1.485,3.254,4.026,3.745l1.137,0.215
	c0.631,0.356,0.498,1.628-0.215,1.768c-1.835-0.14-3.463-0.209-5.868-0.209c-2.547,0-4.599,0.069-6.373,0.209
	c-0.697-0.209-0.772-1.485-0.132-1.768l1.409-0.215c1.843-0.276,1.771-0.706,0.922-2.897l-1.7-4.597
	c-0.564-1.627-0.779-1.693-2.4-1.693H302.507z"/>
<path fill="#FFFFFF" d="M359.771,192.719c0.496,0.92,2.265,4.1,2.546,4.314c0.283-0.146,1.559-2.413,2.902-4.953l3.529-6.789
	c3.395-6.505,3.757-7.716,4.887-11.03c1.553,0.137,2.965,0.203,4.1,0.203c1.695,0,3.751-0.066,5.801-0.203
	c0.632,0.203,0.706,1.406,0.209,1.761l-1.554,0.217c-3.252,0.423-3.394,1.767-3.394,5.941c0,7.5,0,13.503,0.35,17.75
	c0.143,1.56,0.143,3.253,2.339,3.463l2.049,0.215c0.496,0.282,0.496,1.479-0.073,1.768c-2.541-0.14-5.303-0.209-7.078-0.209
	c-2.044,0-4.242,0.069-6.219,0.209c-0.497-0.356-0.565-1.485-0.074-1.768l1.555-0.215c2.271-0.276,2.271-0.84,2.271-3.671v-16.347
	c0-0.847,0-1.908-0.216-2.043c-0.215,0-2.055,3.529-3.038,5.37l-4.316,8.135c-0.564,1.062-4.241,8.414-5.019,10.679
	c-0.351,0.284-0.926,0.284-1.346,0c-0.779-2.546-2.978-7.07-4.173-9.403l-4.598-8.913c-0.779-1.559-2.26-5.303-2.824-5.518
	c-0.295,0.351-0.361,5.089-0.43,7.071c-0.067,2.83-0.146,5.802-0.146,9.263c0,3.608,0.08,5.167,2.057,5.377l2.332,0.215
	c0.497,0.282,0.429,1.479-0.067,1.768c-1.842-0.14-3.894-0.209-5.802-0.209c-1.552,0-3.676,0.069-5.873,0.209
	c-0.492-0.289-0.564-1.411,0-1.768l1.491-0.215c2.333-0.352,2.547-1.055,2.898-3.535c0.564-3.818,0.987-15.211,0.987-20.017
	c0-2.265-0.771-3.32-3.179-3.602l-1.7-0.217c-0.425-0.355-0.497-1.478,0.141-1.761c1.909,0.137,3.536,0.203,5.443,0.203
	c1.419,0,2.905,0,5.163-0.203c0,3.112,1.276,5.365,3.684,10.037L359.771,192.719"/>
<path fill="#FFFFFF" d="M408.544,182.745c0-4.605-0.067-5.667-1.694-5.949l-2.123-0.351c-0.638-0.207-0.571-1.552,0.067-1.768
	c3.964-0.28,7.575-0.417,11.32-0.417c3.958,0,6.506,0.491,8.486,1.196c2.333,0.848,5.728,3.261,5.728,8.274
	c0,4.881-3.253,7.145-5.867,8.066c-2.405,0.847-5.088,1.198-6.439,1.062c-0.35-0.356-0.35-0.993-0.067-1.277
	c4.384-0.922,6.574-3.536,6.574-8.066c0-4.665-2.898-7.212-7.709-7.212c-2.898,0-2.898,0.424-2.898,2.413v19.015
	c0,4.886,0.284,5.237,3.322,5.66l1.633,0.215c0.497,0.356,0.416,1.559-0.149,1.768c-2.964-0.14-5.302-0.209-7.494-0.209
	c-2.259,0-4.456,0.069-6.931,0.209c-0.564-0.209-0.63-1.411-0.146-1.768l1.061-0.215c3.045-0.639,3.328-0.774,3.328-5.66V182.745"/>
<path fill="#FFFFFF" d="M462.136,191.938c1.835,0,2.051-0.14,1.272-2.189l-2.198-6.017c-0.566-1.625-0.849-2.191-1.057-2.545h-0.141
	c-0.216,0.281-0.497,0.92-1.137,2.405l-2.54,6.292c-0.78,1.915-0.639,2.055,0.915,2.055H462.136 M456.545,194.205
	c-1.627,0-1.843,0.066-2.406,1.693l-1.625,4.53c-0.775,2.258-0.566,2.541,0.778,2.822l1.908,0.356
	c0.572,0.356,0.499,1.628-0.213,1.768c-1.761-0.14-3.604-0.209-5.586-0.209c-1.976,0-3.676,0.136-4.948,0.209
	c-0.639-0.289-0.639-1.411-0.141-1.768l1.628-0.356c2.189-0.498,2.964-1.264,4.388-4.664l6.788-16.271
	c1.198-2.899,1.694-4.593,1.837-5.936c1.276-0.493,2.62-1.836,2.97-2.697c0.564-0.201,0.993-0.066,1.129,0.363
	c0.281,0.706,1.417,4.382,3.044,8.699l6.359,16.903c0.859,2.339,1.491,3.254,4.039,3.745l1.13,0.215
	c0.632,0.356,0.497,1.628-0.215,1.768c-1.835-0.14-3.463-0.209-5.869-0.209c-2.547,0-4.598,0.069-6.364,0.209
	c-0.707-0.209-0.78-1.485-0.143-1.768l1.412-0.215c1.842-0.276,1.769-0.706,0.92-2.897l-1.699-4.597
	c-0.557-1.627-0.773-1.693-2.401-1.693H456.545z"/>
<path fill="#FFFFFF" d="M499.243,181.896c0-4.887-0.29-5.168-3.328-5.658l-1.338-0.217c-0.504-0.355-0.431-1.558,0.135-1.761
	c2.761,0.137,4.954,0.203,7.213,0.203c2.265,0,4.462-0.066,7.219-0.203c0.558,0.203,0.637,1.406,0.142,1.761l-1.346,0.217
	c-3.044,0.49-3.327,0.771-3.327,5.658v15.836c0,4.886,0.283,5.169,3.327,5.66l1.346,0.215c0.495,0.356,0.416,1.559-0.142,1.768
	c-2.688-0.14-5.021-0.209-7.219-0.209c-2.259,0-4.452,0.069-7.213,0.209c-0.565-0.209-0.639-1.411-0.135-1.768l1.338-0.215
	c3.038-0.491,3.328-0.774,3.328-5.66V181.896"/>
<path fill="#FFFFFF" d="M552.271,198.796c0-3.248-0.068-3.678-3.248-4.241l-2.271-0.418c-0.492-0.361-0.492-1.35,0.073-1.774
	c2.83,0.142,5.941,0.215,7.993,0.215c1.974,0,4.309-0.073,6.009-0.215c0.564,0.356,0.638,1.345,0.208,1.774l-1.265,0.275
	c-1.841,0.425-2.129,0.848-2.129,3.886v1.982c0,1.707,0.146,2.761,1.135,3.253c0.283,0.215,0.283,0.855-0.068,0.996
	c-0.778,0-2.264,0.423-4.246,0.772c-1.911,0.355-4.383,0.847-7.071,0.847c-6.298,0-11.455-1.479-15.205-5.23
	c-2.972-2.971-4.383-7.076-4.383-10.752c0-3.959,1.411-7.986,4.456-11.099c3.248-3.326,8.055-5.584,15.628-5.584
	c3.885,0,7.354,0.982,9.472,1.412c0.073,1.411,0.214,4.24,0.64,7.991c-0.356,0.632-1.418,0.706-1.836,0.073
	c-1.842-5.585-4.881-7.427-10.048-7.427c-7.422,0-12.019,5.728-12.019,14.002c0,8.7,5.369,14.572,13.932,14.572
	c3.744,0,4.243-0.712,4.243-3.536V198.796"/>
<path fill="#FFFFFF" d="M607.342,185.358c0-7.07-0.425-8.837-3.039-9.12l-2.265-0.217c-0.497-0.423-0.429-1.411,0.141-1.761
	c2.622,0.137,4.242,0.203,6.298,0.203c2.046,0,3.604-0.066,5.869-0.203c0.564,0.35,0.564,1.406,0.067,1.761l-2.123,0.217
	c-1.836,0.207-2.4,2.116-2.4,9.12v11.879c0,1.422,0,7.152,0.216,8.213c-0.216,0.415-0.847,0.779-1.492,0.632
	c-0.773-0.996-2.192-2.475-6.575-7.213l-10.753-11.462c-2.683-2.828-4.524-4.662-5.445-5.443c-0.283,0-0.283,0.781-0.283,2.971
	v9.336c0,7.07,0.424,8.911,3.045,9.121l2.259,0.215c0.564,0.425,0.424,1.411-0.135,1.768c-2.62-0.14-4.24-0.209-6.298-0.209
	c-2.056,0-3.395,0.069-5.875,0.209c-0.564-0.289-0.564-1.411-0.066-1.768l2.118-0.215c1.841-0.21,2.405-2.118,2.405-9.121v-12.657
	c0-2.34-0.067-3.327-1.479-4.389c-0.578-0.43-1.916-0.846-2.622-0.988l-1.056-0.217c-0.496-0.423-0.496-1.478,0.136-1.761
	c2.687,0.203,4.598,0.203,6.082,0.203c0.996,0,1.984-0.066,2.83-0.203c1.418,2.683,4.033,5.727,6.938,8.697l6.646,6.856
	c1.553,1.56,5.659,6.009,6.433,6.58c0.425-0.142,0.425-1.135,0.425-2.829V185.358"/>
<path fill="#FFFFFF" d="M623.098,205.687v-1.802h1.199c0.613,0,1.266,0.14,1.266,0.856c0,0.894-0.666,0.945-1.411,0.945H623.098
	 M623.098,206.433h1.011l1.534,2.522h0.986l-1.652-2.562c0.849-0.104,1.509-0.557,1.509-1.597c0-1.148-0.682-1.653-2.058-1.653
	h-2.213v5.812h0.882V206.433z M624.164,211.085c2.746,0,5.093-2.13,5.093-5.048c0-2.895-2.347-5.026-5.093-5.026
	c-2.771,0-5.117,2.132-5.117,5.026C619.047,208.955,621.393,211.085,624.164,211.085z M620.057,206.037
	c0-2.389,1.8-4.187,4.107-4.187c2.278,0,4.077,1.797,4.077,4.187c0,2.423-1.798,4.21-4.077,4.21
	C621.856,210.247,620.057,208.46,620.057,206.037z"/>
</svg>
