<?xml version="1.0" encoding="utf-8"?>
<!-- Generator: Adobe Illustrator 16.0.0, SVG Export Plug-In . SVG Version: 6.00 Build 0)  -->
<!DOCTYPE svg PUBLIC "-//W3C//DTD SVG 1.1//EN" "http://www.w3.org/Graphics/SVG/1.1/DTD/svg11.dtd">
<svg version="1.1" id="Layer_1" xmlns="http://www.w3.org/2000/svg" xmlns:xlink="http://www.w3.org/1999/xlink" x="0px" y="0px"
	 width="552.667px" height="212.21px" viewBox="0 0 552.667 212.21" enable-background="new 0 0 552.667 212.21"
	 xml:space="preserve">
<g>
	<polygon fill="#FFFFFF" points="494.841,5.249 5.334,5.249 5.334,0 494.841,0 494.841,5.249 	"/>
	<polygon fill="#FFFFFF" points="548.187,212.21 223.863,212.21 223.863,207.744 548.187,207.744 548.187,212.21 	"/>
	<line fill="#FFFFFF" stroke="#FFFFFF" stroke-width="1.89" x1="5.908" y1="107.541" x2="548.187" y2="107.541"/>
	<path fill="#FFFFFF" d="M223.693,201.471h13.336v-44.235l8.187,44.235h15.581v-87.942h-13.204v41.198l-8.319-41.198h-15.581
		V201.471L223.693,201.471z M269.379,201.471h24.428v-11.885H284.3v-30.238h9.507v-11.752H284.3v-22.184h9.507v-11.884h-24.428
		V201.471L269.379,201.471z M307.803,201.471h16.902l5.281-47.801l5.413,47.801h15.979l7.79-87.942h-13.072l-3.433,48.065
		l-3.169-48.065h-19.147l-3.301,48.065l-3.169-48.065h-14.789L307.803,201.471L307.803,201.471z"/>
	<path fill="#FFFFFF" d="M372.154,201.734h14.921v-42.122h9.242V147.86h-9.242v-22.183h9.242v-11.885h-24.163V201.734
		L372.154,201.734z M403.711,201.734h15.053v-87.941h-15.053V201.734L403.711,201.734z M451.115,189.982h-9.243v-76.189h-14.789
		v87.941h24.032V189.982L451.115,189.982z M456.132,201.734h13.337v-49.913l6.602,49.913h10.035l6.604-49.913v49.913h13.468v-87.941
		H485.05l-4.093,42.122l-4.094-42.122h-20.731V201.734L456.132,201.734z M513.438,165.818v23.107c0,10.828,3.302,12.94,19.411,12.94
		c11.356,0,15.449-3.302,15.449-12.808v-23.24c0-5.942-1.188-8.319-5.678-11.092l-12.148-7.658c-1.98-1.189-2.245-1.586-2.245-4.49
		V129.77c0-3.037,0.792-4.357,2.642-4.357c1.849,0,2.641,1.32,2.641,4.49v14.525h14.789v-16.639c0-11.62-3.433-14.261-19.014-14.261
		c-13.073,0-15.847,2.641-15.847,14.921v14.789c0,7.131,1.453,9.64,7.527,13.337l9.507,5.546c1.981,1.32,2.377,1.584,2.905,2.509
		c0.132,0.396,0.132,0.396,0.132,1.056c0,0.396,0,1.586,0,3.434v16.506c0,3.301-0.66,4.357-2.641,4.357
		c-1.85,0-2.642-1.188-2.642-4.489v-19.675H513.438L513.438,165.818z"/>
	<path fill="#FFFFFF" d="M5.334,101.144H18.67V56.909l8.187,44.235h15.581V13.202H29.234V54.4l-8.319-41.198H5.334V101.144
		L5.334,101.144z M51.02,101.144h24.428V89.26h-9.507V59.022h9.507V47.27h-9.507V25.086h9.507V13.202H51.02V101.144L51.02,101.144z
		 M89.048,101.144h16.902l5.282-47.8l5.414,47.8h15.977l7.791-87.942h-13.073l-3.433,48.064l-3.169-48.064h-19.147l-3.301,48.064
		l-3.169-48.064H80.333L89.048,101.144L89.048,101.144z"/>
	<path fill="#FFFFFF" d="M171.137,89.842l0.132-64.748c0.132,0,0.397,0,0.661,0c3.7,0,4.492,0.925,4.492,5.418v54.573
		c0,3.964-0.528,4.757-3.964,4.757C172.062,89.842,171.666,89.842,171.137,89.842L171.137,89.842z M156.205,101.47h19.028
		c13.082,0,16.121-2.907,16.121-15.328V29.455c0-13.346-2.775-15.989-16.385-15.989h-18.764V101.47L156.205,101.47z M199.678,101.47
		h15.064V13.466h-15.064V101.47L199.678,101.47z M238.659,52.05V25.359h1.982c2.51,0,3.171,1.057,3.171,5.153v15.857
		c0,5.021-0.529,5.814-3.832,5.814C239.451,52.183,239.055,52.183,238.659,52.05L238.659,52.05z M223.727,101.47h14.932V64.207
		c0.528-0.132,0.925-0.132,1.321-0.132c3.039,0,3.832,0.925,3.832,4.493v32.902h15.064V69.096c0-6.21-1.718-9.249-6.343-10.835
		c5.286-2.907,6.343-4.757,6.343-12.025V30.644c0-14.006-2.775-17.178-15.064-17.178h-20.085V101.47L223.727,101.47z
		 M267.464,101.47h24.446V89.577h-9.515V59.318h9.515v-11.76h-9.515V25.359h9.515V13.466h-24.446V101.47L267.464,101.47z
		 M334.589,64.736h-14.931v20.745c0,2.907-0.926,4.229-2.775,4.229s-2.511-1.19-2.511-4.361V29.455c0-3.436,0.661-4.493,2.774-4.493
		c1.851,0,2.512,1.19,2.512,4.625V43.99h14.931V27.473c0-11.76-3.303-14.271-18.367-14.271c-13.742,0-16.913,2.907-16.913,15.989
		v56.687c0,13.345,3.039,15.724,18.499,15.724c12.686,0,16.781-3.171,16.781-13.346V64.736L334.589,64.736z M346.878,101.47h15.062
		V25.623h8.193V13.466h-31.449v12.157h8.193V101.47L346.878,101.47z M394.049,85.349c0,2.907-0.925,4.361-2.643,4.361
		c-1.851,0-2.643-1.322-2.643-4.361V29.587c0-3.303,0.792-4.625,2.51-4.625c1.982,0,2.775,1.454,2.775,4.757V85.349L394.049,85.349z
		 M373.7,85.349c0,9.91,1.718,13.61,6.871,15.46c1.85,0.661,5.813,0.793,12.156,0.793c13.213,0,16.12-2.775,16.12-16.253V27.605
		c0-11.628-3.303-14.403-17.177-14.403c-14.8,0-17.971,2.775-17.971,15.46V85.349L373.7,85.349z M430.385,52.05V25.359h1.982
		c2.511,0,3.172,1.057,3.172,5.153v15.857c0,5.021-0.529,5.814-3.832,5.814C431.178,52.183,430.782,52.183,430.385,52.05
		L430.385,52.05z M415.454,101.47h14.931V64.207c0.529-0.132,0.925-0.132,1.322-0.132c3.039,0,3.832,0.925,3.832,4.493v32.902
		h15.062V69.096c0-6.21-1.718-9.249-6.342-10.835c5.285-2.907,6.342-4.757,6.342-12.025V30.644c0-14.006-2.774-17.178-15.062-17.178
		h-20.085V101.47L415.454,101.47z M457.209,65.528v23.124c0,10.836,3.303,12.95,19.424,12.95c11.364,0,15.46-3.304,15.46-12.817
		V65.528c0-5.946-1.188-8.324-5.682-11.099l-12.156-7.664c-1.982-1.189-2.247-1.586-2.247-4.493V29.455
		c0-3.039,0.793-4.361,2.643-4.361c1.851,0,2.644,1.322,2.644,4.493v14.535h14.799V27.473c0-11.628-3.435-14.271-19.028-14.271
		c-13.081,0-15.855,2.643-15.855,14.932v14.799c0,7.135,1.453,9.646,7.532,13.346l9.514,5.55c1.981,1.321,2.378,1.585,2.907,2.51
		c0.132,0.396,0.132,0.396,0.132,1.057c0,0.397,0,1.586,0,3.436v16.517c0,3.303-0.661,4.361-2.644,4.361
		c-1.85,0-2.643-1.19-2.643-4.493V65.528H457.209L457.209,65.528z"/>
</g>
</svg>
