<?xml version="1.0" encoding="utf-8"?>
<!-- Generator: Adobe Illustrator 16.0.0, SVG Export Plug-In . SVG Version: 6.00 Build 0)  -->
<!DOCTYPE svg PUBLIC "-//W3C//DTD SVG 1.1//EN" "http://www.w3.org/Graphics/SVG/1.1/DTD/svg11.dtd">
<svg version="1.1" id="Layer_1" xmlns="http://www.w3.org/2000/svg" xmlns:xlink="http://www.w3.org/1999/xlink" x="0px" y="0px"
	 width="319.667px" height="128.039px" viewBox="0 0 319.667 128.039" enable-background="new 0 0 319.667 128.039"
	 xml:space="preserve">
<g enable-background="new    ">
	<path fill="#FFFFFF" d="M0.028,6.327h10.443v2.668H6.606l5.797,23.785c0.23,1.012,0.322,2.116,0.322,2.116h0.184
		c0,0,0.138-1.104,0.414-2.116L20.73,6.327h2.99l7.453,26.453c0.276,1.012,0.414,2.116,0.414,2.116h0.184
		c0,0,0.092-1.104,0.322-2.116L37.89,8.995h-3.865V6.327h10.443v2.668h-3.312l-7.499,29.674h-3.819l-7.13-25.44
		c-0.276-0.967-0.368-2.117-0.368-2.117h-0.184c0,0-0.092,1.15-0.368,2.117l-7.177,25.44h-3.772L3.294,8.995H0.028V6.327z"/>
	<path fill="#FFFFFF" d="M143.226,36h4.232V8.995h-4.232V6.327h13.848c2.208,0,3.956,0.138,5.75,0.736
		c3.175,1.15,5.245,3.818,5.245,8.097c0,4.831-2.761,8.373-7.177,9.155v0.092c0,0,0.598,0.414,1.104,1.334l5.383,9.201
		c0.506,0.92,1.104,1.059,2.301,1.059h0.92v2.668h-1.748c-2.807,0-3.312-0.414-4.463-2.438l-5.428-9.293
		c-0.875-1.564-1.519-1.979-3.635-1.979h-4.646V36h4.187v2.668h-11.639V36z M158.27,22.199c3.911,0,6.533-2.669,6.533-6.809
		c0-2.944-1.288-4.831-3.542-5.705c-1.104-0.414-2.623-0.598-4.279-0.598h-6.303v13.111H158.27z"/>
	<path fill="#FFFFFF" d="M216.55,36h4.232V9.087h-4.232V6.327h11.685v2.761h-4.232v26.82h12.928v-5.382h2.944v8.143H216.55V36z"/>
	<path fill="#FFFFFF" d="M285.78,36h4.232V8.995h-4.232V6.327h13.663c2.761,0,4.738,0.185,6.901,0.828
		c6.118,1.979,9.983,7.545,9.983,15.366c0,7.959-3.957,13.434-10.397,15.365c-2.024,0.645-4.095,0.782-6.487,0.782H285.78V36z
		 M299.167,35.908c2.162,0,3.956-0.184,5.75-0.781c4.923-1.61,8.051-6.073,8.051-12.605c0-6.441-2.99-10.996-7.82-12.698
		c-1.887-0.644-3.727-0.735-5.98-0.735h-5.936v26.82H299.167z"/>
</g>
<g enable-background="new    ">
	<path fill="#FFFFFF" d="M5.8,57.558h5.664l6.335,10.687c0.896,1.504,1.92,3.904,1.92,3.904h0.064c0,0-0.256-2.464-0.256-3.904
		V57.558h5.6v22.878h-5.632l-6.368-10.655c-0.896-1.504-1.92-3.903-1.92-3.903h-0.064c0,0,0.256,2.464,0.256,3.903v10.655H5.8
		V57.558z"/>
	<path fill="#FFFFFF" d="M41.895,57.173c6.912,0,11.967,5.12,11.967,11.68c0,6.72-5.056,11.967-11.967,11.967
		c-6.911,0-11.967-5.247-11.967-11.967C29.928,62.293,34.983,57.173,41.895,57.173z M41.895,75.701c3.424,0,6.176-2.944,6.176-6.848
		c0-3.744-2.752-6.56-6.176-6.56s-6.175,2.815-6.175,6.56C35.719,72.756,38.471,75.701,41.895,75.701z"/>
	<path fill="#FFFFFF" d="M71.366,62.357h-6.943v-4.799H83.91v4.799h-6.944v18.079h-5.6V62.357z"/>
	<path fill="#FFFFFF" d="M98.117,57.173c6.912,0,11.967,5.12,11.967,11.68c0,6.72-5.056,11.967-11.967,11.967
		c-6.911,0-11.967-5.247-11.967-11.967C86.15,62.293,91.206,57.173,98.117,57.173z M98.117,75.701c3.424,0,6.176-2.944,6.176-6.848
		c0-3.744-2.752-6.56-6.176-6.56s-6.175,2.815-6.175,6.56C91.942,72.756,94.693,75.701,98.117,75.701z"/>
	<path fill="#FFFFFF" d="M114.886,57.558h8.415c4.576,0,7.775,2.048,7.775,5.983c0,1.92-0.928,3.871-2.656,4.863v0.064
		c2.624,0.8,3.584,3.136,3.584,5.151c0,4.991-4.16,6.815-8.704,6.815h-8.415V57.558z M123.365,66.421
		c1.408,0,2.016-1.024,2.016-2.112c0-1.056-0.608-1.952-2.112-1.952h-2.784v4.064H123.365z M123.845,75.636
		c1.632,0,2.432-1.12,2.432-2.399c0-1.28-0.768-2.336-2.4-2.336h-3.392v4.735H123.845z"/>
	<path fill="#FFFFFF" d="M148.421,75.636h-7.136l-1.376,4.8h-5.759l7.775-22.878h5.888l7.775,22.878h-5.76L148.421,75.636z
		 M144.837,62.773c0,0-0.512,2.496-0.928,3.937l-1.312,4.447h4.512l-1.28-4.447c-0.416-1.44-0.928-3.937-0.928-3.937H144.837z"/>
	<path fill="#FFFFFF" d="M169.445,57.173c5.664,0,8.575,3.232,8.575,3.232l-2.592,4.224c0,0-2.56-2.336-5.728-2.336
		c-4.384,0-6.463,3.231-6.463,6.527c0,3.392,2.239,6.88,6.463,6.88c3.455,0,6.08-2.816,6.08-2.816l2.879,4.096
		c0,0-3.231,3.84-9.215,3.84c-7.168,0-11.999-5.088-11.999-11.871C157.446,62.293,162.566,57.173,169.445,57.173z"/>
	<path fill="#FFFFFF" d="M193.349,57.173c5.663,0,8.574,3.232,8.574,3.232l-2.592,4.224c0,0-2.559-2.336-5.727-2.336
		c-4.385,0-6.464,3.231-6.464,6.527c0,3.392,2.239,6.88,6.464,6.88c3.455,0,6.079-2.816,6.079-2.816l2.88,4.096
		c0,0-3.232,3.84-9.215,3.84c-7.168,0-12-5.088-12-11.871C181.349,62.293,186.469,57.173,193.349,57.173z"/>
	<path fill="#FFFFFF" d="M217.22,57.173c6.912,0,11.967,5.12,11.967,11.68c0,6.72-5.055,11.967-11.967,11.967
		c-6.911,0-11.967-5.247-11.967-11.967C205.253,62.293,210.309,57.173,217.22,57.173z M217.22,75.701
		c3.424,0,6.176-2.944,6.176-6.848c0-3.744-2.752-6.56-6.176-6.56s-6.176,2.815-6.176,6.56
		C211.044,72.756,213.796,75.701,217.22,75.701z"/>
	<path fill="#FFFFFF" d="M242.308,57.558h8.128c7.199,0,11.808,4.191,11.808,11.391s-4.608,11.487-11.808,11.487h-8.128V57.558z
		 M250.212,75.636c3.871,0,6.238-2.304,6.238-6.688c0-4.352-2.463-6.592-6.238-6.592h-2.305v13.279H250.212z"/>
	<path fill="#FFFFFF" d="M278.5,75.636h-7.137l-1.375,4.8h-5.76l7.775-22.878h5.888l7.775,22.878h-5.76L278.5,75.636z
		 M274.916,62.773c0,0-0.512,2.496-0.928,3.937l-1.312,4.447h4.512l-1.279-4.447c-0.416-1.44-0.929-3.937-0.929-3.937H274.916z"/>
	<path fill="#FFFFFF" d="M292.515,71.061l-7.551-13.503h6.367l2.592,5.503c0.736,1.568,1.375,3.296,1.375,3.296h0.064
		c0,0,0.641-1.728,1.376-3.296l2.56-5.503h6.368l-7.552,13.503v9.375h-5.6V71.061z"/>
</g>
<g enable-background="new    ">
	<path fill="#FFFFFF" d="M0.971,125.307h3.312l10.903-29.674h3.542l10.903,29.674h3.312v2.668H22.593v-2.668h3.727l-3.083-8.327
		H10.632l-3.036,8.327h3.727v2.668H0.971V125.307z M22.363,114.265l-4.831-13.249c-0.368-1.059-0.506-2.07-0.506-2.07h-0.138
		c0,0-0.092,1.012-0.46,2.07l-4.923,13.249H22.363z"/>
</g>
<g enable-background="new    ">
	<path fill="#FFFFFF" d="M66.291,125.307h4.232V98.301h-4.232v-2.668h21.76v6.901h-2.898v-4.049h-11.41v12.191h11.823v2.76H73.744
		v11.87h4.509v2.668H66.291V125.307z"/>
	<path fill="#FFFFFF" d="M120.34,125.307h4.232V98.301h-4.232v-2.668h13.848c2.208,0,3.956,0.138,5.75,0.736
		c3.174,1.15,5.245,3.818,5.245,8.097c0,4.831-2.76,8.373-7.177,9.155v0.092c0,0,0.598,0.414,1.104,1.334l5.383,9.201
		c0.506,0.92,1.104,1.059,2.3,1.059h0.92v2.668h-1.748c-2.807,0-3.312-0.414-4.463-2.438l-5.428-9.293
		c-0.875-1.564-1.519-1.979-3.635-1.979h-4.646v11.042h4.187v2.668H120.34V125.307z M135.384,111.505
		c3.911,0,6.533-2.669,6.533-6.809c0-2.944-1.288-4.831-3.542-5.705c-1.104-0.414-2.623-0.598-4.279-0.598h-6.303v13.111H135.384z"
		/>
	<path fill="#FFFFFF" d="M179.634,125.307h4.232V98.301h-4.232v-2.668h11.686v2.668h-4.232v27.006h4.232v2.668h-11.686V125.307z"/>
	<path fill="#FFFFFF" d="M240.311,95.082c3.91,0,12.054,1.472,12.054,6.44v3.45h-3.083v-2.576c0-3.174-5.521-4.416-8.833-4.416
		c-7.498,0-13.157,5.704-13.157,13.525c0,8.051,5.659,14.123,13.341,14.123c2.623,0,9.156-1.012,9.156-4.416v-2.53h3.082v3.45
		c0,4.692-7.867,6.395-12.33,6.395c-9.66,0-16.607-7.545-16.607-16.93C223.933,102.167,231.064,95.082,240.311,95.082z"/>
	<path fill="#FFFFFF" d="M284.054,125.307h3.312l10.902-29.674h3.543l10.903,29.674h3.312v2.668h-10.351v-2.668h3.727l-3.083-8.327
		h-12.605l-3.035,8.327h3.727v2.668h-10.352V125.307z M305.447,114.265l-4.831-13.249c-0.368-1.059-0.506-2.07-0.506-2.07h-0.138
		c0,0-0.092,1.012-0.461,2.07l-4.922,13.249H305.447z"/>
</g>
<g>
	<path fill="#FFFFFF" d="M98.385,15.318c0.007,0.005,0.023-0.015,0.023-0.04c-0.001-0.016-0.006-0.019-0.011-0.02
		C98.378,15.263,98.376,15.312,98.385,15.318z M103.169,29.113c0-0.012,0-0.012,0.027-0.096c-0.011-0.013-0.031-0.026-0.048-0.03
		c-0.011,0.091-0.188,0.208-0.195,0.214c0.067,0.187,0.067,0.187-0.231,0.545c-0.049-0.083-0.074-0.125-0.135-0.077
		c-0.003,0.079,0.053,0.154,0.018,0.237c-0.026,0.005-0.026,0.005-0.086-0.002c0,0,0,0-0.003,0c-0.102,0.1-0.033,0.284-0.177,0.363
		c0.02-0.055,0.048-0.106,0.068-0.162c-0.176,0.054-0.1,0.242-0.179,0.347c-0.012,0.001-0.029,0.003-0.043,0.005
		c-0.011-0.052,0.006-0.107-0.024-0.154c-0.236,0.18-0.236,0.18-0.152,0.332c-0.063,0.002-0.063,0.002-0.105-0.022
		c-0.008-0.038-0.008-0.077-0.02-0.114c-0.102,0.078-0.23,0.094-0.34,0.153c-0.016-0.009-0.038-0.021-0.054-0.03
		c-0.018,0.079-0.051,0.092-0.161,0.099c-0.113,0.006-0.087,0.134-0.136,0.198c-0.021,0.027-0.05,0.046-0.069,0.074
		c-0.165,0.232-0.17,0.25-0.174,0.264l0.04,0.459c0.001,0.011,0.015,0.019,0.021,0.026c-0.015,0.125-0.015,0.125,0.052,0.242
		c-0.069,0.111-0.069,0.111-0.037,0.173c-0.109,0.15-0.109,0.15-0.147,0.174c-0.007,0.025-0.065,0.252-0.29,0.347
		c-0.154,0.444-0.154,0.444-0.152,0.462c0.004,0.129,0.113,0.244,0.056,0.384l0.045,0.394c0.014,0.058,0.079,0.066,0.106,0.111
		c0.371,0.091,0.371,0.091,0.378,0.084l0.116-0.071c0.196-0.088,0.196-0.088,0.274-0.098c0.14-0.018,0.211-0.026,1.116-1.832
		l0.402-0.854c0.044-0.12,0-0.264,0.095-0.371c0.209-0.239,0.094-0.349,0.093-0.349c0.023-0.078-0.009-0.169,0.064-0.233
		c0.009,0.002,0.021,0.003,0.031,0.004c0.033,0.059,0.018,0.129,0.044,0.188c0.049-0.002,0.049-0.002,0.096-0.041
		c0.048-0.11,0.056-0.128,0.064-0.161c0.11-0.451-0.057-0.864-0.18-1.167C103.214,29.122,103.188,29.116,103.169,29.113z
		 M96.58,27.654l0.001,0.001L96.58,27.654L96.58,27.654z M99.786,17.631c0-0.015-0.008-0.024-0.017-0.024
		c-0.018,0.004-0.021,0.043-0.006,0.057C99.773,17.674,99.787,17.653,99.786,17.631z M99.768,17.527
		c0.001-0.005-0.014-0.004-0.036-0.003c-0.03,0.003-0.027,0.059-0.015,0.078c0.007,0.014,0.02,0.005,0.026-0.002
		c0.002-0.004,0.007-0.013,0.001-0.019c-0.001-0.002-0.005-0.007-0.005-0.013c0-0.01,0.006-0.021,0.021-0.032
		C99.764,17.532,99.767,17.53,99.768,17.527z M100.674,24.608c0.001-0.002,0.002-0.005,0.004-0.007l0,0
		C100.677,24.604,100.676,24.606,100.674,24.608z M103.913,18.989c-0.011-0.003-0.025-0.005-0.034-0.009
		c-0.049-0.108,0.091-0.203,0.021-0.313c-0.028,0.008-0.068-0.007-0.092-0.02c-0.039-0.001-0.077-0.008-0.115-0.006
		c-0.078,0.069-0.062,0.26-0.207,0.232c-0.007-0.002-0.029-0.006-0.211,0.086l-0.142,0.058l-0.341,0.076c-0.033,0-0.033,0-0.033,0
		c-0.001,0-0.003,0-0.003,0h-0.001c-0.001,0-0.001,0-0.001,0c-0.001,0.001-0.003,0.001-0.003,0.001h-0.001c-0.001,0-0.001,0-0.003,0
		c0,0-0.001,0-0.001,0.001c-0.034,0.004-0.065,0.023-0.097,0.034c-0.005-0.01-0.012-0.021-0.017-0.032
		c-0.101-0.026-0.16,0.042-0.279,0.176c-0.011,0.002-0.011,0.002-0.011,0.002l0,0l0,0l0,0l0,0h-0.001l0,0l0,0
		c-0.119,0.06-0.177,0.089-0.371-0.012c-0.033,0.037-0.078,0.065-0.104,0.108c-0.011,0.001-0.011,0.001-0.192,0.141
		c-0.056-0.017-0.056-0.017-0.136,0.002c-0.01,0-0.01,0-0.01,0c-0.289-0.007-0.313-0.313-0.5-0.437l-0.016-0.018
		c-0.03-0.052-0.03-0.052-0.052-0.063c-0.031-0.015-0.065-0.004-0.098-0.009l-0.004,0.008l-0.056-0.008l0.037-0.033
		c0.025-0.007,0.062-0.016,0.089-0.035c0.023-0.014,0.038-0.037,0.061-0.051c0.011-0.007,0.026-0.002,0.037-0.009
		c0.001-0.001,0.005-0.004,0.006-0.005c0.004-0.002,0.014-0.022,0.015-0.039c0.017-0.121-0.094-0.179-0.131-0.274
		c-0.012-0.028-0.044-0.096-0.093-0.106c-0.001,0.01-0.002,0.022-0.003,0.03c0.009,0.002,0.023,0.007,0.032,0.013
		c-0.001,0.005-0.003,0.013-0.003,0.019c-0.072,0.031-0.08-0.079-0.135-0.098c-0.009-0.029-0.028-0.066-0.057-0.072
		c0,0,0,0,0.001,0.008c-0.005,0.007-0.016,0.016-0.023,0.021c-0.085-0.041-0.041-0.153-0.109-0.203
		c-0.001,0.036-0.001,0.036-0.007,0.043c-0.133-0.148-0.133-0.148-0.165-0.148l0,0l0,0c0,0,0,0-0.001,0l0,0c0,0,0,0-0.001,0l0,0l0,0
		l0,0c-0.005,0-0.012,0.001-0.016,0c-0.067-0.084-0.067-0.084-0.077-0.089l-0.021-0.028l-0.035-0.023
		c-0.003-0.011-0.007-0.025-0.009-0.036c-0.009-0.003-0.018-0.01-0.026-0.014c0-0.004-0.001-0.011-0.003-0.015
		c-0.041-0.045-0.109-0.053-0.148-0.101c-0.077,0.006-0.077,0.006-0.077-0.009c0.003-0.012,0.01-0.026,0.014-0.037
		c-0.037,0-0.037,0-0.097-0.055c-0.005,0.009-0.012,0.019-0.019,0.026c-0.003-0.008-0.007-0.018-0.012-0.025
		c-0.064,0.054-0.064,0.054-0.112,0.041c-0.011-0.052-0.052-0.089-0.064-0.139c0.008-0.009,0.022-0.021,0.033-0.028
		c-0.001,0-0.069-0.046-0.104-0.066c0.001,0.017-0.004,0.026-0.028,0.039c0.009,0.045,0.009,0.045,0.023,0.056
		c0.003-0.002,0.006-0.007,0.011-0.01c0.004,0.019,0.004,0.019,0.007,0.049l0,0h-0.001l0,0l0,0l0,0l0,0l0,0c0,0,0,0-0.007,0.008
		c0.001,0.011,0.001,0.025,0,0.035c-0.038,0.026-0.038,0.026-0.11-0.183c-0.004-0.001-0.011-0.005-0.015-0.006l0,0l0,0h-0.001l0,0
		l0,0l0,0l0,0c0,0,0,0-0.013-0.001c-0.009-0.008-0.018-0.023-0.023-0.035c0.002-0.004,0.007-0.01,0.011-0.016
		c-0.006-0.023-0.029-0.042-0.03-0.068c-0.075-0.042-0.084-0.046-0.192-0.479c-0.029-0.121-0.029-0.121-0.218-0.412
		c0-0.001,0-0.001,0-0.002c0,0-0.03,0.053-0.003-0.005c-0.008-0.011-0.019-0.026-0.027-0.037c-0.025,0-0.059-0.008-0.082-0.018
		c-0.004-0.013-0.01-0.028-0.013-0.04c-0.01,0.006-0.022,0.015-0.031,0.02c-0.011-0.009-0.028-0.021-0.04-0.028
		c0.003-0.015,0.008-0.033,0.011-0.047c-0.061-0.038-0.11-0.095-0.177-0.127l0,0H98.63l0,0l0,0c-0.001,0-0.001,0-0.001,0l0,0
		c0,0,0,0-0.001,0c0,0,0,0-0.024,0.01c-0.254-0.086-0.104-0.367-0.209-0.529c0.032-0.127-0.017-0.272-0.076-0.441
		c0.008-0.009,0.018-0.022,0.026-0.03c0.004,0.011,0.011,0.026,0.015,0.037c0.014,0.003,0.031,0.007,0.044,0.009
		c-0.055-0.139-0.186-0.235-0.208-0.391l0.004-0.013l0.002-0.017l-0.015-0.012c-0.053-0.036-0.109-0.069-0.159-0.106
		c-0.004-0.007-0.01-0.018-0.013-0.025c-0.003-0.001-0.33-0.13-0.332-0.312l0.031-0.009c-0.019-0.003-0.044-0.008-0.062-0.013
		c-0.01-0.093-0.049-0.178-0.06-0.271c0.043-0.002,0.087,0.02,0.13,0.001c-0.041-0.016-0.073-0.047-0.113-0.065h-0.001h-0.001
		c0,0,0,0-0.001,0c0,0.001,0,0.001-0.001,0.001l0,0c-0.001,0-0.001,0-0.001,0c-0.004,0-0.004,0-0.004,0h-0.001
		c-0.153-0.178-0.243-0.402-0.402-0.576c-0.005-0.06-0.069-0.085-0.084-0.139l-0.048-0.049l-0.035-0.061
		c-0.021-0.037-0.076-0.139-0.102-0.168c-0.006-0.008-0.011-0.017-0.017-0.022c0.007-0.002,0.018-0.003,0.026-0.004
		c-0.008-0.008-0.018-0.019-0.026-0.026c-0.002-0.007-0.008-0.016-0.012-0.022c0.008-0.003,0.018-0.005,0.026-0.008
		c-0.02-0.052-0.078-0.087-0.069-0.152c-0.007-0.005-0.007-0.005-0.13-0.146c0.004-0.006,0.01-0.014,0.015-0.02
		c-0.009-0.016-0.023-0.035-0.034-0.049c0.007-0.004,0.016-0.009,0.021-0.012c0.001-0.008,0.003-0.02,0.004-0.029
		c-0.029-0.036-0.072-0.055-0.106-0.084l-0.253-0.307l-0.007-0.028c-0.005-0.007-0.012-0.017-0.017-0.023
		c-0.004-0.052-0.007-0.081-0.011-0.111l-0.018-0.015l-0.057-0.048c-0.058-0.06-0.008-0.133-0.025-0.198
		c0.006-0.005,0.014-0.011,0.02-0.016c0.045,0.037,0.084,0.149,0.084,0.15l0,0c0.049,0.123,0.183,0.191,0.216,0.325
		c0.001,0.03,0.013,0.067,0.021,0.095c0.018,0.013,0.037,0.036,0.05,0.053l0.031,0.021c0.282,0.218,0.282,0.218,0.29,0.219
		c0.062,0.015,0.088-0.118,0.087-0.132c-0.017-0.165-0.017-0.165,0.014-0.239c0.005-0.003,0.005-0.003,0.005-0.003
		c0-0.02-0.003-0.04-0.005-0.061c0.012-0.041-0.008-0.09,0.03-0.125c-0.001-0.017-0.003-0.04-0.003-0.057
		c0.015-0.017,0.026-0.049,0.03-0.073l0.012-0.007l-0.02-0.112l-0.002-0.015l-0.116-0.225l-0.185-0.358c-0.002,0-0.005,0-0.006,0
		c-0.001,0.008-0.003,0.021-0.004,0.029c-0.109,0.048-0.273,0.123-0.388,0.057c-0.059,0.048-0.059,0.048-0.265-0.02l0.022,0.103
		c-0.029-0.02-0.029-0.02-0.056-0.069c-0.045-0.007-0.086-0.029-0.131-0.037c-0.004-0.007-0.009-0.017-0.014-0.024l0.023-0.016
		c0.037,0.006,0.037,0.006,0.082,0.02c0.021,0.004,0.021,0.004,0.021,0.004c-0.059-0.077-0.084-0.111-0.236-0.054
		c0,0-0.057-0.047-0.18-0.044c0.004,0.007,0.011,0.017,0.015,0.026c-0.009,0.009-0.023,0.022-0.034,0.032
		c-0.083,0.017-0.083,0.017-0.112,0c0.009-0.006,0.009-0.006,0.081-0.034c-0.074-0.033-0.18,0.02-0.182,0.02
		c-0.006,0.069-0.009,0.093-0.073,0.075c-0.004-0.008-0.01-0.02-0.012-0.028c-0.052,0.025-0.052,0.025-0.071,0.06
		c0.015,0.002,0.036,0.005,0.051,0.008l-0.021,0.035c-0.017,0.011-0.04,0.024-0.057,0.032c-0.003-0.013-0.007-0.031-0.011-0.044l0,0
		l0,0l0,0l0,0h-0.001l0,0l0,0l0,0c-0.044,0.021-0.068,0.075-0.123,0.078c-0.042,0.074-0.148,0.036-0.206,0.015
		c0-0.008-0.001-0.017-0.001-0.025l-0.347-0.09c-0.048,0.021-0.048,0.021-0.165,0.011c-0.005-0.017-0.012-0.039-0.018-0.056
		c-0.012,0.001-0.027,0.004-0.04,0.007c-0.007,0-0.008,0-0.008,0c-0.076-0.007-0.145-0.051-0.222-0.057c-0.004,0-0.007,0-0.009,0
		h-0.01c-0.004,0-0.007,0-0.009,0c-0.003,0-0.007,0-0.01,0c-0.004,0-0.007,0-0.011,0c-0.001,0-0.005,0-0.008,0
		c-0.004,0-0.007,0-0.009,0c-0.004,0-0.007,0-0.011,0c-0.001-0.001-0.236-0.068-0.277-0.016c-0.007,0.001-0.007,0.001-0.007,0.001
		l-0.032-0.002l-0.023,0.017l-0.041,0.004c-0.048-0.007-0.048-0.007-0.078-0.027c-0.005-0.014-0.012-0.032-0.02-0.045
		c-0.011-0.017-0.021-0.04-0.028-0.057c-0.014-0.022-0.036-0.048-0.057-0.059c-0.003,0-0.173-0.026-0.24,0
		c-0.01-0.004-0.021-0.011-0.029-0.015c0,0,0,0-0.001,0l0,0h-0.001h-0.001c0,0,0,0-0.001,0l0,0c-0.001,0-0.001,0-0.001,0
		c-0.001,0-0.001,0-0.003,0.001c-0.009-0.003-0.022-0.005-0.031-0.008c0,0-0.265-0.078-0.336-0.098c0,0-0.001,0-0.011-0.018
		c-0.001-0.002-0.001-0.004,0.007-0.024c0.006-0.007,0.015-0.017,0.023-0.023c-0.063-0.081-0.063-0.081-0.093-0.091
		c0,0-0.001,0-0.002,0h-0.001c-0.001,0-0.001,0-0.003,0c-0.001,0-0.001,0-0.003,0c-0.001,0-0.001,0-0.002,0c0,0-0.001,0-0.003,0
		h-0.001c-0.001,0-0.002,0-0.019,0.001c-0.009-0.003-0.02-0.008-0.03-0.011c-0.281-0.158-0.59-0.022-0.624-0.006
		c-0.095,0.039-0.176,0.106-0.275,0.133c-0.035,0.083-0.174,0.113-0.132,0.233c0.092,0.267,0.092,0.267,0.076,0.308
		c-0.026,0.056-0.071,0.096-0.1,0.148c-0.031,0.025-0.057,0.056-0.093,0.077c0,0,0,0-0.004,0c-0.233,0.036-0.233,0.036-0.394-0.045
		c-0.167-0.113-0.167-0.113-0.228-0.12c-0.009-0.016-0.028-0.035-0.044-0.044l-0.059-0.015c-0.037-0.025-0.082-0.036-0.12-0.061
		l-0.114-0.016c-0.037-0.022-0.083-0.011-0.122-0.032l-0.008,0.015c-0.018,0-0.036-0.001-0.074-0.001
		c-0.011,0.001-0.024,0.001-0.034,0.002c-0.023-0.017-0.023-0.017-0.091-0.027L90.2,11.198c-0.027-0.023-0.063-0.029-0.091-0.051
		c-0.079-0.05-0.105-0.161-0.102-0.181c0.031-0.176,0.012-0.183-0.488-0.355c-0.291-0.058-0.332-0.074-0.349-0.081
		c-0.104,0.123-0.484-0.011-0.554-0.109h-0.003c-0.001,0-0.002,0.001-0.004,0.001c-0.136-0.019-0.136-0.019-0.136-0.079
		c0.001-0.103,0.001-0.103-0.079-0.098c0.004,0.007,0.009,0.017,0.012,0.024c-0.023,0.019-0.029,0.021-0.074,0.027
		c0-0.002,0-0.002-0.009-0.078c-0.044-0.007-0.088-0.003-0.132-0.015c-0.037-0.035-0.055-0.089-0.112-0.1
		c-0.012-0.165,0.192-0.135,0.274-0.218c0.176-0.17,0.181-0.19,0.189-0.232c0.001-0.012,0.004-0.025,0.005-0.038l-0.015-0.008
		c-0.018-0.046-0.046-0.143-0.046-0.143c-0.009,0.005-0.018,0.012-0.025,0.017l-0.004-0.03L88.425,9.44
		c-0.008-0.023-0.038-0.029-0.043-0.056l-0.019-0.085c0.017-0.018,0.019-0.021,0.015-0.056c0.024-0.012,0.055-0.027,0.078-0.039
		l0.047-0.019c0.023-0.022,0.023-0.022,0.045-0.071c0.027-0.006,0.126-0.086,0.046-0.133c-0.01-0.006-0.023-0.01-0.034-0.012
		c-0.011,0.009-0.026,0.021-0.037,0.03l-0.046,0.03c-0.072-0.001-0.122,0.137-0.189,0.069c0.049-0.072,0.049-0.072,0.026-0.184
		c-0.005-0.028-0.015-0.037-0.074-0.04h-0.012h-0.001h-0.002c0,0.047,0,0.047-0.011,0.063c-0.01,0.002-0.022,0.004-0.032,0.007
		h-0.003c-0.004-0.003-0.011-0.005-0.015-0.007c-0.006-0.019-0.006-0.019,0.029-0.069c-0.015-0.009-0.015-0.009-0.09-0.012
		c-0.081,0.005-0.145,0.053-0.218,0.076c-0.021,0.018-0.021,0.018-0.081,0.046l-0.018,0.013l-0.028,0.003
		c-0.002,0.009-0.003,0.018-0.004,0.027c0.001-0.009,0.002-0.018-0.003-0.026L87.75,8.997c0,0,0,0-0.037-0.005
		c-0.076-0.02-0.076-0.02-0.121-0.008c0,0,0,0-0.003,0c-0.026,0.01-0.06,0.019-0.087,0.021L87.463,9
		c-0.078-0.077-0.094-0.08-0.186-0.094c-0.007,0.008-0.015,0.017-0.022,0.024c0.002,0.013,0.003,0.029,0.004,0.042
		c-0.025,0.007-0.059,0.015-0.084,0.019c-0.097-0.083-0.097-0.083-0.477,0.014c-0.004,0.012-0.011,0.027-0.017,0.038
		c-0.124,0.034-0.201-0.084-0.312-0.097c-0.147-0.017-0.147-0.017-0.342,0.005c-0.007,0.011-0.016,0.026-0.023,0.035
		c-0.021-0.009-0.021-0.009-0.077-0.077c-0.024-0.001-0.058,0.004-0.081,0.012l-0.051,0.026c-0.072,0.062-0.072,0.062-0.129,0.062
		c-0.068-0.026-0.068-0.026-0.133,0c0,0,0,0-0.003,0l-0.034-0.004c-0.028,0.003-0.068,0.008-0.097,0.007
		c-0.028-0.002-0.059-0.004-0.088-0.006C85.3,9.01,85.286,9.015,85.274,9.019l-0.046-0.002c-0.016,0.007-0.041,0.009-0.059,0.008
		C85.15,9.04,85.15,9.04,85.012,9.089c-0.208,0.126-0.208,0.126-0.227,0.178c-0.042-0.012-0.042-0.012-0.125-0.064
		c-0.021,0.007-0.052,0.011-0.073,0.011c-0.031,0.026-0.031,0.026-0.118,0.054c-0.002,0-0.002,0-0.003,0l0,0
		c-0.001,0-0.003,0-0.003,0s-0.001,0-0.003-0.001c0,0,0,0-0.001,0h-0.001c0,0-0.001,0-0.003,0c0,0,0,0-0.001,0
		c-0.234,0.149-0.234,0.149-0.275,0.179c-0.072,0.024-0.072,0.024-0.146,0.021c0,0-0.001,0-0.012,0
		c-0.011-0.004-0.024-0.009-0.034-0.012c-0.11-0.016-0.11-0.016-0.147-0.013c-0.01-0.01-0.023-0.024-0.034-0.035
		c0.004-0.008,0.008-0.021,0.011-0.03c-0.01-0.016-0.017-0.042-0.014-0.062c-0.097,0.072-0.097,0.072-0.25,0.033
		c-0.014,0.012-0.04,0.023-0.059,0.026c-0.001-0.009-0.004-0.022-0.005-0.031c-0.056,0.002-0.104,0.039-0.161,0.042
		c0,0-0.065-0.051-0.133-0.073c-0.003-0.014-0.011-0.032-0.017-0.043c-0.066-0.069-0.066-0.069-0.05-0.18
		c-0.054,0.007-0.106,0.035-0.162,0.033c-0.01-0.001-0.021-0.003-0.03-0.005c-0.043,0.045-0.066,0.104-0.11,0.149
		c-0.052,0.071-0.101,0.146-0.157,0.217c-0.001,0.001-0.113,0.151-0.184,0.174c-0.011,0.021-0.024,0.05-0.034,0.072L82.397,9.73
		c-0.115,0.092-0.176,0.101-0.243,0.109c-0.127,0.062-0.26,0.115-0.387,0.183c-0.052,0.065-0.128,0.1-0.184,0.16
		c-0.011,0.006-0.026,0.014-0.037,0.021c-0.067,0.279-0.441,0.39-0.4,0.728c0.007,0.006,0.018,0.014,0.024,0.02
		c0.003,0.023,0.004,0.055,0.005,0.079c-0.041,0.107-0.041,0.107-0.118,0.194c-0.081,0.058-0.1,0.09-0.112,0.112l-0.04,0.03
		c-0.032,0.066-0.032,0.066-0.474,0.334l-0.037,0.053l-0.042,0.015c-0.018,0.009-0.045,0.02-0.065,0.021l-0.014,0.016
		c-0.014-0.001-0.027-0.003-0.063,0.009c-0.018,0.006-0.041,0.017-0.059,0.021h-0.016c-0.072,0.046-0.163-0.037-0.233,0.031
		c-0.133,0.129-0.133,0.129-0.171,0.205l-0.042,0.023c0,0.008,0,0.019,0,0.026c-0.008,0.007-0.019,0.017-0.027,0.023l-0.033,0.068
		c-0.109,0.126-0.109,0.126-0.117,0.129l-0.027,0.022c-0.019,0.006-0.043,0.018-0.06,0.03c-0.195,0.076-0.195,0.076-0.218,0.157
		l-0.015,0.036c-0.005,0-0.011,0.002-0.016,0.001c-0.012,0.045-0.049,0.075-0.068,0.114l-0.021,0.017l-0.018,0.041l-0.025,0.019
		c-0.004,0.016-0.008,0.032-0.037,0.064c-0.053,0.226-0.101,0.265-0.127,0.286h-0.03l-0.055,0.037l-0.03,0.018l-0.008,0.022
		c-0.08,0.066-0.177,0.106-0.255,0.178c0.004,0.009,0.008,0.021,0.011,0.03c0.066-0.062,0.066-0.062,0.109-0.075
		c-0.011,0.017-0.026,0.04-0.036,0.056l-0.202,0.24c0,0.003-0.137,0.291-0.219,0.322l-0.024-0.018
		c-0.105,0.135-0.105,0.135-0.205,0.39c-0.049,0.129-0.057,0.151-0.069,0.205c0.005,0.006,0.014,0.011,0.021,0.017
		c0.023-0.058,0.042-0.117,0.068-0.172c0.008-0.002,0.019-0.005,0.027-0.007c0.008,0.037,0.008,0.037,0.021,0.125
		c-0.014-0.009-0.031-0.022-0.044-0.031l0.015,0.098l0.01,0.019c0.004,0.051,0.004,0.051,0.041,0.079
		c0.002-0.016,0.012-0.038,0.023-0.05c0.015,0.062,0.015,0.062,0,0.119c0.027,0.059,0.027,0.059-0.023,0.226
		c0.006,0.006,0.015,0.015,0.021,0.021c-0.025,0.053-0.087,0.081-0.094,0.145c0.015-0.009,0.037-0.021,0.053-0.024
		c-0.015,0.03-0.015,0.03-0.089,0.071c0.001,0.038,0.001,0.038,0.025,0.077c0.006,0.016,0.006,0.016,0.03,0.15
		c-0.007,0.027-0.012,0.053-0.018,0.079c0.076,0.17-0.052,0.313-0.063,0.472l-0.021,0.012l-0.016,0.049l-0.018,0.051
		c-0.023,0.011-0.023,0.011-0.04,0.065c-0.005,0.002-0.014,0.004-0.018,0.007c-0.007,0.024-0.007,0.024-0.039,0.075l-0.008,0.011
		c-0.008,0.02-0.021,0.044-0.03,0.063c-0.049,0.104-0.057,0.169-0.062,0.215c-0.001,0.004-0.001,0.009-0.002,0.013
		c-0.006,0.036-0.014,0.072-0.026,0.107c-0.029,0.029-0.031,0.074-0.062,0.098c-0.018,0.008-0.01,0.03-0.022,0.04
		c-0.043,0.055-0.073,0.119-0.128,0.162c-0.019,0.017-0.027,0.043-0.049,0.057c-0.031,0.019-0.071,0.016-0.101,0.036
		c-0.008,0.006-0.019,0.016-0.023,0.025c0.005,0.014,0.021,0.025,0.031,0.034c0.001-0.012,0.004-0.023,0.006-0.034
		c0.104,0.044,0.119,0.224,0.119,0.225l0.021,0.027l0.005,0.034c-0.002,0.096-0.002,0.096,0,0.104
		c0.008,0.005,0.018,0.012,0.026,0.017c0.002,0.019,0.002,0.02-0.008,0.06c-0.001,0.004-0.002,0.01-0.002,0.015
		c0.094,0.134,0.094,0.134,0.095,0.15c-0.08-0.004-0.08-0.004-0.083-0.007c-0.007-0.008-0.007-0.017-0.007-0.025
		c0-0.042-0.005-0.049-0.041-0.071c-0.005,0.024-0.006,0.027-0.024,0.048c-0.026,0.028-0.023,0.04-0.015,0.098
		c0.001,0.018,0.001,0.018-0.002,0.032c-0.004,0.001-0.01,0.003-0.014,0.004c0.009,0.055-0.019,0.23-0.021,0.231l-0.014,0.01v0.05
		l0.001,0.022c0.008,0.029,0.041,0.027,0.057,0.045c0.011,0.012,0.013,0.03,0.023,0.042c0.001,0,0.005,0.002,0.007,0.004
		c0.035,0.012,0.054-0.029,0.085-0.027c-0.018,0.035-0.059,0.053-0.069,0.093c0.007,0.008,0.021,0.014,0.031,0.018
		c-0.011,0.024-0.016,0.042-0.024,0.072c0.018,0.001,0.029,0,0.06-0.012l0.005,0.045c0.007,0.001,0.015,0.004,0.022,0.007
		c0.046-0.084,0.056-0.103,0.099-0.104c-0.012,0.048-0.057,0.074-0.078,0.116c0.068,0.004,0.079,0.004,0.095-0.004
		c0.002,0,0.078-0.037,0.089-0.076c0.091,0.028,0.091,0.028,0.106,0.048c0,0.004-0.001,0.009-0.003,0.013
		c-0.083-0.015-0.128-0.021-0.142,0.034c-0.001,0.021-0.004,0.04-0.007,0.061c-0.047,0.012-0.047,0.012-0.055,0.021
		c0.01,0.011,0.021,0.024,0.029,0.034c0.015-0.011,0.021-0.028,0.04-0.034c0.011,0.002,0.024,0.004,0.035,0.005
		c0.008-0.035,0.011-0.035,0.066-0.049c-0.015,0.068-0.03,0.069-0.112,0.081c-0.003,0.025-0.006,0.049-0.009,0.075l0.032-0.017
		c-0.003,0.027-0.007,0.051-0.007,0.075c0.018-0.001,0.014,0.022,0.022,0.031l0.041,0.003c-0.01,0.015-0.022,0.033-0.032,0.047
		c0.048,0,0.06-0.099,0.108-0.064c0,0.01,0,0.011-0.007,0.026L77.767,18.7l0,0h0.001l0,0l0,0c-0.019,0.009-0.019,0.01-0.02,0.019
		c0.015,0.012,0.015,0.012,0.009,0.048c0,0.001,0,0.003,0,0.004l0.001,0.008c0.009,0.011,0.024,0.025,0.034,0.036
		c0.106-0.107,0.106-0.107,0.118-0.106c0,0.054-0.093,0.117-0.03,0.155c0.022,0.124,0.022,0.124,0.026,0.129
		c0.052,0.146,0.21,0.231,0.213,0.232l0.001,0.031c0.025,0.031,0.025,0.031,0.057,0.107c-0.046,0.114,0.097,0.148,0.11,0.237
		c-0.004,0.005-0.011,0.013-0.016,0.019l-0.008,0.015c-0.004,0.035,0.021,0.063,0.024,0.098c-0.001,0.004-0.001,0.01-0.001,0.015
		c-0.001,0.042-0.005,0.085-0.007,0.127c-0.009,0-0.02-0.002-0.029-0.002c0.008,0.145,0.008,0.145,0.028,0.166
		c0.093-0.108,0.081,0.047,0.078,0.051c-0.06,0.104,0.136,0.143,0.137,0.145c-0.003,0.024-0.013,0.028-0.046,0.025
		c-0.001,0-0.001,0-0.003,0c-0.001,0-0.001,0-0.003,0c-0.001,0-0.001,0-0.002,0s-0.001,0-0.002,0s-0.001-0.001-0.003-0.001
		c0,0-0.001,0-0.003,0H78.43c-0.001,0-0.001,0-0.003,0c-0.029,0.009-0.029,0.009-0.127-0.004c0.01,0.111,0.149,0.063,0.191,0.139
		l0.028,0.011c0.015,0.032,0.015,0.032,0.187,0.125c0.015,0.019,0.024,0.042,0.042,0.058c0.021,0.018,0.049,0.023,0.071,0.041
		l0.004,0.008c0.053,0.142,0.537,0.627,0.541,0.628c0.014,0.028,0.014,0.028,0.052,0.041c0.049,0.075,0.124,0.131,0.155,0.218
		c0.001,0.002,0.203,0.174,0.246,0.193c0,0,0,0,0.002,0c0.007,0.001,0.014,0.002,0.021,0.003c0.006,0.01,0.019,0.025,0.027,0.036
		c0.002,0,0.182,0.103,0.228,0.124c0.009,0.038,0.009,0.038,0.068,0.04c0.071-0.002,0.124-0.068,0.198-0.053
		c0.027-0.136,0.192-0.05,0.263-0.129c0.018,0.001,0.03-0.018,0.048-0.021c0.033-0.002,0.062-0.022,0.094-0.024l0.015-0.018
		c0.033,0.002,0.064,0.005,0.097,0.008c0.002-0.006,0.006-0.014,0.008-0.02c0.081-0.02,0.081-0.02,0.274,0.004
		c0.007-0.008,0.017-0.014,0.026-0.019c0.018,0.002,0.042,0.002,0.06,0.003c0,0,0.05-0.018,0.083-0.024
		c0.001,0.005,0.003,0.012,0.004,0.017c0.008-0.005,0.019-0.012,0.026-0.018c0.027,0.03,0.027,0.03,0.093,0.012c0,0,0,0,0.011,0.003
		c0.023,0.015,0.023,0.015,0.059,0.005c0.064,0.035,0.15,0.006,0.204,0.07c0.028-0.007,0.051-0.03,0.079-0.037l0.03,0.03
		c0,0,0.03,0.035,0.246,0.108c0.076,0.024,0.076,0.024,0.088,0.036c0,0.011,0.004,0.024,0.01,0.033
		c0.101,0.029,0.105,0.029,0.135,0.021c0.06-0.016,0.091-0.076,0.146-0.101c0.048-0.02,0.109,0.016,0.145-0.041
		c0.077-0.007,0.077-0.007,0.211-0.048c0.026-0.008,0.026-0.043,0.05-0.052c0.062-0.024,0.129-0.014,0.191-0.038
		c0.037-0.014,0.049-0.058,0.087-0.069c0.014-0.006,0.014-0.006,0.167-0.012c0.116-0.005,0.116-0.005,0.243-0.133l0.008-0.003
		c0.074-0.022,0.15-0.023,0.223-0.041h0.011c0.065-0.015,0.135-0.028,0.192-0.02c0.156,0.019,0.173-0.001,0.183-0.013l0.02-0.002
		c0.283,0.002,0.283,0.002,0.317-0.023c-0.013-0.012-0.023-0.033-0.028-0.049c0.054-0.037,0.175-0.056,0.208,0.012
		c-0.04,0.012-0.083,0.012-0.12,0.035c0,0.009,0.001,0.021,0.001,0.029c0.123,0.002,0.234,0.064,0.358,0.06
		c0.008,0.034,0.008,0.034,0.095,0.098l0.02,0.063c0.047,0.034,0.047,0.034,0.099,0.13c0.014,0.017,0.033,0.039,0.046,0.056
		c-0.003,0.01-0.005,0.021-0.007,0.031c0.004,0.005,0.011,0.014,0.017,0.021c0.027,0.018,0.028,0.022,0.043,0.059l0.001,0.055
		c0.006,0.006,0.014,0.016,0.021,0.024c0,0.009-0.001,0.022-0.001,0.032c0.027,0.022,0.037,0.03,0.033,0.083
		c-0.005,0.055-0.005,0.055,0.136,0.195c0.04,0.04,0.098,0.048,0.14,0.081c0.033-0.017,0.033-0.017,0.236-0.001
		c0.004-0.005,0.011-0.014,0.015-0.022c0.135-0.014,0.135-0.014,0.168-0.011c0.169-0.011,0.169-0.011,0.187-0.028l0.075,0.002l0,0
		h0.004c0,0,0,0,0.015-0.019c0.018,0.007,0.04,0.017,0.056,0.023c0.004-0.007,0.011-0.015,0.015-0.021
		c0.008,0.001,0.021,0.004,0.028,0.005l0.014-0.021c0.082,0.021,0.082,0.021,0.123-0.001c0.003-0.01,0.005-0.023,0.008-0.032
		c-0.012-0.037-0.038-0.065-0.045-0.104c0.075,0.031,0.084,0.043,0.112,0.078c0.015,0.04,0.004,0.081,0.008,0.12
		c0.007,0.004,0.015,0.009,0.021,0.013c0.092-0.027,0.092-0.027,0.108-0.024c0.046,0.068,0.046,0.161,0.115,0.218l0.008-0.024
		l0.012,0.04c0.072,0.037,0.072,0.037,0.112,0.032c0.005-0.007,0.008-0.021,0.015-0.03c0.001,0,0.059-0.052,0.085,0.034
		c-0.043,0.08-0.053,0.095,0.031,0.221l0.033,0.02c0.043,0.068,0.05,0.142,0.049,0.192c-0.01,0.008-0.021,0.018-0.03,0.025
		c-0.001,0.052-0.001,0.104-0.024,0.159c-0.002,0.016-0.004,0.038-0.004,0.054c0,0.001,0,0.001,0,0.002
		c-0.015,0.123-0.015,0.123-0.011,0.139c0.004,0.021,0.027,0.04,0.015,0.065c-0.043,0.066-0.043,0.066-0.065,0.076
		c-0.021,0.011-0.024,0.015-0.03,0.03l-0.004,0.049c-0.075,0.043-0.094,0.185-0.094,0.186c0.024-0.005,0.05-0.01,0.075-0.014
		l0.004,0.012l0.004,0.009c0.003,0.011,0.008,0.026,0.011,0.036c-0.005,0.002-0.012,0.004-0.018,0.006
		c-0.023,0.064,0.032,0.122,0.017,0.186c-0.018-0.021-0.021-0.025-0.037-0.06l-0.049,0.019c-0.012,0.005-0.029,0.014-0.041,0.02
		c-0.012,0.096,0.135,0.101,0.113,0.199C87,24.19,87,24.19,86.887,24.158c0.02,0.069,0.054,0.25-0.087,0.397
		c-0.031-0.011-0.034-0.01-0.052-0.008l-0.038,0.024l0,0c-0.028-0.015-0.04-0.043-0.062-0.062c-0.01,0.068-0.01,0.068-0.007,0.081
		c0.024,0.026,0.024,0.064,0.049,0.089c0.034,0.038,0.03,0.101,0.082,0.126c0.001,0.045,0.184,0.426,0.303,0.545
		c0.023,0.053,0.09,0.072,0.101,0.135c0.052,0.003,0.148,0.072,0.158,0.114c0.011,0.005,0.023,0.011,0.032,0.015
		c0.12,0.109,0.119,0.118,0.12,0.154c0.007,0.007,0.019,0.015,0.027,0.021c0.063,0.056,0.097,0.139,0.169,0.187l0.06,0.032
		c0-0.029,0-0.029,0,0l0.013,0.023c0.012,0.032,0.038,0.054,0.057,0.082c0.091,0.09,0.148,0.208,0.24,0.3l0.026,0.034l0.016,0.02
		c0.01,0.014,0.008,0.032,0.018,0.047c0.007,0.013,0.021,0.019,0.029,0.031c0.004,0.006,0.007,0.015,0.007,0.022
		c0,0.004-0.001,0.011,0.001,0.015c0.005,0.008,0.02,0.007,0.025,0.016l0.012,0.045l-0.001,0.038l-0.033,0.037l0.018,0.044
		c0.038,0.094,0.042,0.094,0.113,0.104c0.005,0.011,0.012,0.025,0.018,0.037l-0.027,0.017c-0.001,0-0.003,0-0.004,0
		c-0.018,0-0.041,0.005-0.056,0.015c0.01,0.031,0.01,0.031,0.045,0.089l0.248,0.449c0.03,0.099,0.03,0.099,0.048,0.131l0.021,0.037
		l0,0l0,0l0,0l0,0l0,0h0.001c0,0,0,0,0.008,0.019c0.133,0.391,0.133,0.391,0.088,0.454c-0.033,0.001-0.065-0.012-0.1-0.01
		c0,0,0,0.002-0.003,0.021c-0.053,0.089,0.191,0.596,0.22,0.614c0.012,0.061,0.072,0.096,0.087,0.155
		c0.021,0.04,0.021,0.04,0.046,0.151c-0.026,0.207-0.026,0.207,0.005,0.282c-0.007,0.006-0.015,0.012-0.021,0.018
		c-0.089,0.231-0.089,0.231-0.347,0.368c0.002,0.019,0,0.043-0.002,0.063c-0.015,0.007-0.034,0.021-0.047,0.03
		c-0.051,0.084-0.061,0.19-0.135,0.261c-0.062,0.118-0.059,0.133-0.052,0.175c0,0.032,0,0.032,0.004,0.122
		c-0.007,0.007-0.015,0.017-0.022,0.023c0,0.018,0,0.035,0.001,0.05l-0.028,0.017c-0.058,0.135-0.058,0.135-0.058,0.177
		c0.003,0.025,0.003,0.05,0.004,0.076c-0.052,0.03-0.075,0.087-0.12,0.122c0.013,0.131,0.058,0.254,0.055,0.385
		c-0.021,0.055-0.021,0.055-0.041,0.164l0.091-0.05c-0.027,0.015-0.064,0.035-0.091,0.05l0.146,0.414
		c-0.005,0.009-0.012,0.021-0.018,0.031c0.026,0.007,0.104,0.034,0.323,0.319c0.044,0.095,0.145,0.16,0.147,0.275
		c0.007,0.002,0.014,0.006,0.019,0.009c0.011,0.029,0.04,0.043,0.056,0.067l0.021,0.02c0,0.013,0.001,0.026,0.007,0.055
		c0.046,0.068,0.046,0.068,0.053,0.073c0.018,0.052,0.041,0.09,0.136,0.227c0,0.001,0.14,0.196,0.177,0.248l0.041,0.02l0.031,0.039
		l0.038,0.025c0.01,0.017,0.025,0.039,0.04,0.053l0.018,0.038c0,0.002,0,0.003,0,0.009c0.004,0.007,0.008,0.018,0.011,0.026h0.001
		c0,0,0,0,0.011,0.019c0.023,0.128,0.023,0.128,0.017,0.155c-0.014-0.011-0.037-0.021-0.053-0.023
		c0.023,0.063,0.022,0.131,0.037,0.196l0.018,0.014c0.003,0.037,0.004,0.073,0.007,0.11c-0.005,0.004-0.013,0.013-0.019,0.019
		c0,0.021,0.002,0.05,0.006,0.072l0.012,0.006c0.022,0.101,0.123,0.166,0.124,0.275c0.011,0.018,0.026,0.042,0.037,0.061
		c-0.006,0.007-0.011,0.018-0.015,0.026l0.004,0.047c0.027,0.063,0.027,0.063,0.007,0.117c0.019,0.027,0.03,0.059,0.049,0.087
		c0.021,0.14,0.021,0.14,0.046,0.164l0,0l0,0c0,0,0,0,0,0.001l0,0c0.001,0,0.001,0,0.001,0l0,0l0,0
		c0.005-0.003,0.014-0.007,0.021-0.01c0.016,0.013,0.032,0.033,0.043,0.051c-0.004,0.011-0.009,0.023-0.012,0.033
		c-0.011-0.001-0.025-0.001-0.034-0.002c0.009,0.014,0.02,0.034,0.027,0.051l0.038,0.061c0,0.002,0,0.003,0.001,0.021
		c0.006,0.002,0.012,0.006,0.017,0.008c-0.004,0.006-0.011,0.017-0.017,0.023c0.049,0.111,0.247,0.339,0.31,0.358l0.003,0.021
		c0.157,0.112,0.157,0.112,0.204,0.137l0.023,0.029l0.021,0.045c0,0.001,0,0.002,0,0.002c0.026,0.017,0.046,0.054,0.059,0.082
		l0.035,0.013l0.021,0.052c0.045,0.092,0.045,0.092,0.045,0.095l0.016,0.015l-0.019,0.012c0.022,0.027,0.022,0.031,0.022,0.035
		c0.04,0.022,0.04,0.022,0.049,0.083c0.014,0.006,0.031,0.016,0.043,0.023c0.017,0.084,0.097,0.132,0.119,0.213
		c0.005,0.002,0.011,0.006,0.016,0.008c0.062,0.093,0.147,0.164,0.217,0.25c0.056,0.072,0.068,0.095,0.064,0.211
		c0.001,0.134,0.002,0.154-0.11,0.116c-0.042,0.032-0.046,0.051-0.051,0.088c0.04,0.014,0.084,0.01,0.12,0.04
		c-0.021,0.001-0.047-0.003-0.067-0.011c0.036,0.074,0.105,0.107,0.113,0.11C91,36.957,91,36.957,91.079,37.056l-0.016,0.028
		l-0.04,0.015c-0.005,0.01-0.009,0.024-0.015,0.034c0.009,0.021,0.022,0.046,0.036,0.063c0.012-0.016,0.025-0.041,0.03-0.061
		c0.023-0.002,0.054-0.005,0.078-0.008c0.018,0.014,0.039,0.035,0.054,0.053c-0.012,0.014-0.023,0.037-0.027,0.055
		c0.038,0.004,0.14,0.014,0.203,0.032c-0.006,0.009-0.013,0.021-0.018,0.029c0.098,0.022,0.098,0.022,0.114,0.055
		c0.031-0.001,0.072-0.003,0.105-0.005c0.015,0.011,0.042,0.017,0.06,0.015c0.002-0.007,0.004-0.015,0.007-0.022l0.038-0.005
		c0.016-0.014,0.041-0.028,0.062-0.036c0.032-0.023,0.076-0.021,0.109-0.044c0.093,0,0.447-0.03,0.45-0.03
		c0.087-0.089,0.121-0.088,0.173-0.084c0.03-0.005,0.03-0.012,0.03-0.021c0.06,0.003,0.06,0.003,0.094,0.019
		c0.063,0.004,0.101,0.004,0.141,0.004l0.05,0.002l0.013,0.009l0,0h0.001l0,0l0,0l0,0l0,0l0,0h0.001
		c0.063-0.038,0.063-0.038,0.213-0.031l0.034,0.013c0.001,0,0.213,0.065,0.297,0.029c0.003-0.009,0.008-0.022,0.012-0.03
		c0.082-0.035,0.1-0.027,0.141-0.01l0.041,0.011c0.021,0.004,0.049,0.008,0.071,0.011c0.012-0.019,0.03-0.044,0.043-0.063
		c-0.008-0.006-0.018-0.014-0.024-0.021c0.016-0.015,0.104-0.083,0.184-0.019c0.094,0,0.094,0,0.131-0.014
		c0.021-0.004,0.05-0.016,0.069-0.028l0.034,0.005c0.03-0.037,0.078-0.044,0.115-0.069l0.031-0.005
		c0.018-0.012,0.018-0.012,0.294-0.153c0.224-0.197,0.402-0.308,0.755-0.531c0.023-0.021,0.038-0.051,0.069-0.063
		c0.004,0,0.004,0,0.004,0c0.023-0.032,0.056-0.057,0.083-0.086l0.035-0.051c0.075-0.066,0.119-0.156,0.185-0.226
		c0.331-0.297,0.331-0.297,0.354-0.31c0.088-0.089,0.221-0.13,0.271-0.257c0.04-0.019,0.04-0.019,0.18-0.398
		c0.004-0.009,0.007-0.021,0.011-0.03l0.021-0.01l-0.007-0.021l-0.004-0.005c0.037-0.063,0.061-0.264,0.061-0.266
		c-0.017,0.011-0.037,0.027-0.053,0.039c-0.015-0.011-0.037-0.026-0.052-0.037c-0.002-0.01-0.004-0.023-0.007-0.034
		c0.077-0.055,0.1-0.155,0.179-0.208c0.073-0.048,0.331-0.131,0.333-0.132l0.039-0.018c0.078-0.014,0.078-0.014,0.134-0.037
		c0.345-0.154,0.345-0.154,0.469-0.344c0.002-0.009,0.005-0.022,0.008-0.031c-0.01-0.017-0.023-0.04-0.034-0.057
		c-0.001-0.052,0.004-0.066,0.041-0.089c0.004-0.042,0.009-0.083,0.015-0.125l0.018-0.007l0.021-0.048
		c-0.055-0.091,0.021-0.189-0.015-0.281c-0.01,0.004-0.021,0.009-0.03,0.013c-0.004-0.011-0.011-0.027-0.012-0.038
		c-0.006-0.029-0.009-0.069-0.01-0.099l0.019-0.009l-0.018-0.006l-0.009-0.05l-0.008-0.036c-0.014-0.009-0.014-0.009-0.014-0.009
		l0,0l0,0l0,0h-0.001l0,0l0,0h-0.001c-0.004-0.073-0.116-0.338-0.117-0.34l-0.021-0.006c-0.005-0.078,0.062-0.142,0.044-0.222
		c0.137-0.054,0.151-0.059,0.667-0.426c-0.001-0.011-0.004-0.025-0.007-0.036c0.004-0.003,0.335-0.307,0.384-0.395
		c0.015-0.005,0.016-0.005,0.018-0.005c0.086-0.026,0.275-0.15,0.275-0.151l0.045-0.002c0.138-0.066,0.178-0.086,0.221-0.087l0,0
		l0,0h0.001l0,0l0,0h0.001l0,0l0,0c0.008-0.007,0.019-0.016,0.027-0.022c0.119-0.093,0.263-0.134,0.391-0.208
		c0.135-0.078,0.15-0.263,0.295-0.331c0-0.009,0.003-0.023,0.003-0.033c0.014-0.012,0.03-0.025,0.044-0.036
		c0.14-0.161,0.147-0.36,0.147-0.362c0.005-0.006,0.014-0.014,0.019-0.021c-0.007-0.004-0.007-0.004-0.007-0.004l0,0
		c0,0,0,0-0.001,0l0,0l0,0h-0.001l0,0l0,0c-0.005-0.023-0.004-0.032-0.003-0.04c-0.009-0.007-0.021-0.016-0.029-0.024
		c0-0.043-0.028-0.084-0.007-0.128c-0.018-0.039-0.018-0.039-0.027-0.225c0.016-0.03,0.016-0.03,0.024-0.105
		c-0.015-0.03-0.013-0.051-0.011-0.071c0.031-0.14,0.031-0.14-0.004-0.199c0.002-0.026,0.007-0.062,0.011-0.088
		c0.006-0.062,0.009-0.094,0.011-0.127l-0.02-0.014c0.018-0.083-0.02-0.174,0.041-0.25c0.046-0.07,0.049-0.239,0.046-0.255
		c-0.009-0.004-0.024-0.009-0.034-0.013l-0.023-0.008l-0.004-0.022c0-0.009,0-0.021-0.001-0.028
		c-0.078-0.042-0.078-0.042-0.11-0.038c-0.023-0.05-0.053-0.095-0.075-0.143c-0.013-0.006-0.029-0.018-0.036-0.029
		c0.007-0.006,0.014-0.014,0.019-0.02c-0.011-0.021-0.021-0.049-0.029-0.071c-0.005-0.004-0.013-0.011-0.019-0.016
		c0.004-0.03-0.011-0.06-0.005-0.091c-0.005-0.004-0.011-0.012-0.015-0.016c-0.003-0.041,0-0.083,0.001-0.125l-0.031-0.025
		c-0.006-0.083-0.006-0.083-0.011-0.101c-0.054-0.034-0.093-0.124,0.018-0.357c-0.007,0-0.016-0.001-0.023-0.001
		c-0.048-0.122-0.048-0.122-0.031-0.14c-0.007-0.016-0.015-0.038-0.022-0.054c0.005-0.003,0.288-0.274-0.037-0.362
		c-0.024-0.045-0.024-0.045-0.106-0.073c-0.001-0.002-0.034-0.19,0.015-0.26c0.03-0.157,0.156-0.279,0.161-0.445
		c0-0.01,0-0.01,0-0.01c0-0.002,0-0.007,0.011-0.024c0.007,0,0.015,0,0.022-0.002c0,0,0,0,0.001,0l0,0h0.001
		c0,0,0.001,0,0.001-0.001c0,0,0,0,0,0.001h0.001h0.001c0,0,0,0,0.011-0.002c0.005-0.003,0.012-0.009,0.017-0.013
		c0.14-0.258,0.14-0.258,0.158-0.275l0.004-0.04c0.053-0.069,0.174-0.251,0.149-0.458c0.007-0.002,0.014-0.007,0.02-0.009
		c0.004-0.022,0.011-0.051,0.021-0.069c0.015-0.032,0.018-0.038,0.051-0.055c0.109,0.048,0.143-0.087,0.225-0.112
		c0.001-0.05,0.001-0.05,0.019-0.076c-0.019-0.039-0.026-0.054,0.015-0.08c0.021,0.006,0.039,0.021,0.061,0.028
		c0.044-0.027,0.073-0.07,0.11-0.104l0.017-0.051l0.029-0.041c0.03-0.019,0.052-0.062,0.067-0.094l0.009-0.017
		c0.021-0.035,0.04-0.072,0.061-0.108c0.008-0.015,0.008-0.015,0.008-0.015c0.094-0.186,0.273-0.31,0.357-0.501
		c0.01,0,0.022,0,0.032,0c0.184-0.299,0.538-0.649,0.541-0.652l0,0c0.116-0.083,0.209-0.196,0.342-0.257
		c0.001-0.012,0.004-0.027,0.005-0.04c0.062-0.04,0.248-0.217,0.248-0.218c0.026-0.014,0.026-0.014,0.026-0.014h0.002l0,0l0,0
		c0,0,0,0,0-0.001l0,0l0,0c0.001,0,0.001,0,0.001,0c0.003,0,0.004,0,0.004,0c0.21-0.092,0.188-0.379,0.396-0.474
		c0.002-0.009,0.004-0.022,0.006-0.031c0.09-0.062,0.123-0.167,0.196-0.242l0.018-0.051c0.125-0.062,0.474-0.835,0.473-1.112
		c0.017-0.016,0.045-0.044,0.115-0.241c0.014-0.021,0.023-0.053,0.029-0.076l0.028-0.03c0.08-0.123,0.062-0.284,0.15-0.406
		l-0.001-0.036c0.007-0.021,0.023-0.048,0.038-0.066c0.1-0.281,0.112-0.318,0.158-0.351c0.067-0.504,0.067-0.504,0.083-0.539
		c0.012,0.006,0.027,0.013,0.04,0.02c-0.007,0.011-0.017,0.024-0.023,0.035c0.019,0.007,0.045,0.015,0.065,0.021
		c0.008-0.007,0.019-0.016,0.027-0.021c0-0.003,0.002-0.005,0.003-0.008c0-0.011-0.006-0.026-0.009-0.037
		C103.96,19.261,103.87,19.24,103.913,18.989z M96.166,11.481c-0.004-0.016-0.011-0.03-0.014-0.046
		c-0.003-0.013,0-0.016,0.001-0.025c0.008,0.012,0.018,0.028,0.027,0.039c0.002,0.002,0.003,0.004,0.004,0.005
		c0.01,0.009,0.011,0.032,0.027,0.026c0.003,0.032,0.026,0.059,0.024,0.091v0.005l-0.021,0.044
		c-0.035-0.022-0.058-0.056-0.089-0.079C96.134,11.498,96.143,11.486,96.166,11.481z M96.279,35.161
		c-0.001,0.009-0.004,0.011-0.009,0.013c-0.006,0.002-0.009,0.004-0.011,0.014l-0.013-0.027
		C96.257,35.161,96.268,35.161,96.279,35.161L96.279,35.161z M78.114,19.411c-0.008,0-0.021,0.026-0.007,0.045
		c0.005,0.007,0.017,0.008,0.019-0.01c0-0.004,0-0.007,0-0.009c-0.001,0-0.002-0.003-0.004-0.011
		C78.12,19.416,78.119,19.412,78.114,19.411z M77.604,18.556c-0.024,0-0.035,0.053-0.028,0.065c0.005,0.012,0.028-0.039,0.033-0.052
		C77.612,18.557,77.606,18.557,77.604,18.556z M77.542,18.519c-0.008,0-0.023,0.028-0.009,0.045c0.005,0.008,0.016,0.01,0.019-0.01
		c0-0.002,0.001-0.006,0.001-0.009c-0.002-0.001-0.002-0.003-0.005-0.01C77.546,18.524,77.545,18.521,77.542,18.519z M77.524,18.409
		c-0.036,0.039-0.041,0.046-0.045,0.062c-0.008,0.029,0.021,0.032,0.049,0.016c0.001,0,0.002-0.001,0.002-0.001
		C77.534,18.448,77.535,18.423,77.524,18.409z M77.49,18.604L77.49,18.604c-0.001,0-0.001,0-0.003,0l0,0
		c-0.014-0.004-0.015-0.021-0.027-0.024c-0.004,0.001-0.004,0.005-0.002,0.018c-0.005,0-0.005,0-0.011-0.012
		c-0.004-0.014-0.031-0.001-0.041,0.006c-0.009,0.009-0.012,0.015-0.027,0.052l0.012,0.022c0.014,0.001,0.027,0.003,0.042,0.005
		c0.003-0.005,0.005-0.015,0.012-0.018c0.009-0.003,0.023,0.001,0.031,0.003c0.014,0.003,0.029,0.007,0.034-0.008
		C77.515,18.636,77.51,18.608,77.49,18.604z M77.445,18.457c0.001,0,0.002-0.001,0.002-0.001c-0.005-0.009-0.015-0.019-0.019-0.032
		c-0.003-0.009-0.002-0.02-0.002-0.027c-0.019,0.005-0.035,0.01-0.059,0.01C77.363,18.47,77.42,18.462,77.445,18.457z
		 M88.117,31.127c-0.008-0.031-0.011-0.041-0.012-0.059l-0.027-0.017c-0.006,0.005-0.014,0.01-0.017,0.016
		c-0.001,0.001-0.001,0.003-0.001,0.005c0,0.02,0.011,0.041,0.015,0.049c0.027,0.055,0.027,0.055,0.037,0.064
		c0.01,0.011,0.016,0.012,0.016,0C88.129,31.175,88.121,31.144,88.117,31.127z M77.975,14.93c-0.001,0.004,0,0.01-0.004,0.014
		c-0.003,0.003-0.007,0.001-0.009,0.001l-0.02,0.068l0.003,0.032c0.032-0.047,0.037-0.054,0.042-0.077
		C77.995,14.943,77.982,14.935,77.975,14.93z M96.342,11.807L96.342,11.807L96.342,11.807L96.342,11.807z M96.342,11.809
		L96.342,11.809C96.342,11.808,96.342,11.808,96.342,11.809L96.342,11.809L96.342,11.809L96.342,11.809z M96.342,11.805
		L96.342,11.805C96.342,11.805,96.342,11.806,96.342,11.805C96.342,11.806,96.342,11.806,96.342,11.805z"/>
</g>
<g>
	<path fill="#FFFFFF" d="M90.632,46.218c-12.743,0-23.11-10.367-23.11-23.109C67.522,10.367,77.89,0,90.632,0
		c12.742,0,23.108,10.367,23.108,23.109C113.74,35.851,103.374,46.218,90.632,46.218z M90.632,2.5
		c-11.364,0-20.61,9.245-20.61,20.609c0,11.364,9.246,20.609,20.61,20.609c11.363,0,20.608-9.245,20.608-20.609
		C111.24,11.745,101.996,2.5,90.632,2.5z"/>
</g>
</svg>
