<svg viewBox="0 0 268 84.63" xmlns="http://www.w3.org/2000/svg"><path d="m0 0v56.42h36.67v28.21l29.63-28.21h201.7v-56.42z"/><g fill="#fff"><path d="m25.81 15.52c-4.09 0-5.64 1.69-5.64 5.07v14.41c0 3.39 1.55 5.08 5.64 5.08s5.64-1.69 5.64-5.08v-3.69a.88.88 0 0 0 -1-1h-1.7a.88.88 0 0 0 -1 1v3.69c0 1.41-.43 2.26-2.12 2.26s-2.11-.85-2.11-2.26v-14.41c0-1.41.56-2.25 2.11-2.25s2.12.84 2.12 2.25v3.67a.89.89 0 0 0 1 1h1.7a.89.89 0 0 0 1-1v-3.67c-.14-3.38-1.55-5.07-5.64-5.07z"/><path d="m44.71 29.2c2.12-.71 2.82-2.4 2.82-4.94v-3.26c0-3.53-1.55-5.36-5.92-5.36h-4.23a.89.89 0 0 0 -1 1v22.29a.89.89 0 0 0 1 1h1.69a.89.89 0 0 0 1-1v-9.31h1.27l3.52 9.59c.15.43.43.57 1 .57h1.84a.93.93 0 0 0 .84-1.27zm-.56-4.94c0 1.55-.56 2.54-2.4 2.54h-1.69v-8.32h1.69c1.84 0 2.4 1 2.4 2.54z"/><path d="m61.5 15.66h-7.9a.89.89 0 0 0 -1 1v22.27a.89.89 0 0 0 1 1h7.9a.89.89 0 0 0 1-1v-1a.89.89 0 0 0 -1-1h-5.22v-7.9h3.95a.9.9 0 0 0 1-1v-1a.9.9 0 0 0 -1-1h-3.95v-7.83h5.22a.9.9 0 0 0 1-1v-1a1.09 1.09 0 0 0 -1-.54z"/><path d="m73.77 15.66h-3.67a.93.93 0 0 0 -1 .84l-3.37 22.15a.86.86 0 0 0 .85 1.13h1.55c.56 0 .84-.29 1-.85l.56-4.09h4.37l.57 4.09c0 .56.42.85 1 .85h1.56a.86.86 0 0 0 .81-1.13l-3.38-22.15a.75.75 0 0 0 -.85-.84zm-3.77 16.34 1-6.49.85-7.33h.28l.84 7.33.8 6.49z"/><path d="m91 15.66h-10.74a.89.89 0 0 0 -1 1v1a.89.89 0 0 0 1 1h3.67v20.41a.89.89 0 0 0 1 1h1.7a.89.89 0 0 0 1-1v-20.45h3.67a.89.89 0 0 0 1-1v-1c-.47-.54-.76-.96-1.3-.96z"/><path d="m98.31 15.66h-1.69a.89.89 0 0 0 -1 1v22.27a.9.9 0 0 0 1 1h1.69a.89.89 0 0 0 1-1v-22.29c-.15-.56-.43-.98-1-.98z"/><path d="m115 15.66h-1.55a1 1 0 0 0 -1 .84l-2 13.4-.7 7.34h-.28l-.71-7.34-2-13.4c0-.56-.43-.84-1-.84h-1.55a.85.85 0 0 0 -.85 1.13l3.39 22.14a.89.89 0 0 0 1 1h3.67c.57 0 .85-.28 1-1l3.38-22.14a.85.85 0 0 0 -.8-1.13z"/><path d="m128.78 15.66h-7.9a.89.89 0 0 0 -1 1v22.27a.9.9 0 0 0 1 1h7.9a.89.89 0 0 0 1-1v-1a.89.89 0 0 0 -1-1h-5.22v-7.9h4a.89.89 0 0 0 1-1v-1a.89.89 0 0 0 -1-1h-4v-7.83h5.22a.89.89 0 0 0 1-1v-1a1.31 1.31 0 0 0 -1-.54z"/><path d="m148 15.66h-2a.51.51 0 0 0 -.56.56l-1.84 10.86-.84 5.64h-.15l-.84-5.64-1.84-10.86a.51.51 0 0 0 -.56-.56h-2a.52.52 0 0 0 -.57.56v23.13a.52.52 0 0 0 .57.57h1.12a.52.52 0 0 0 .57-.57v-14.81l-.14-4.79h.14l2.25 14.38a.52.52 0 0 0 .57.57h2c.43 0 .57-.14.57-.57l2.25-14.38h.15l-.15 4.79v14.81a.52.52 0 0 0 .57.57h1.13a.52.52 0 0 0 .56-.57v-23.13c-.43-.42-.57-.56-.96-.56z"/><path d="m159.11 15.52c-4 0-4.66 1.83-4.66 4.79v15c0 3 .71 4.8 4.66 4.8s4.65-1.69 4.65-4.8v-15c0-2.96-.7-4.79-4.65-4.79zm2.68 19.74c0 1.84-.43 3-2.54 3s-2.54-1.13-2.54-3v-14.95c0-1.83.42-3 2.54-3s2.54 1.13 2.54 3z"/><path d="m175.47 28.49c2.68-.56 3.24-2.4 3.24-5.22v-2.27c0-3.39-.84-5.36-5.22-5.36h-3.24a.51.51 0 0 0 -.56.56v23.15a.52.52 0 0 0 .56.57h1.13a.52.52 0 0 0 .56-.57v-10.58h1.41l4.09 10.72c.15.29.29.43.57.43h1.27c.28 0 .42-.28.28-.57zm-3.67-1.69v-9.31h1.69c2.68 0 3.11 1.27 3.11 3.53v2.25c0 2.26-.43 3.53-3.11 3.53z"/><path d="m193.52 15.66h-1.12a.52.52 0 0 0 -.57.56v14.11l.14 4.79h-.14l-1-4.65-3.66-14.25c-.14-.42-.29-.56-.57-.56h-1.55a.51.51 0 0 0 -.56.56v23.13a.52.52 0 0 0 .56.57h1.13a.52.52 0 0 0 .56-.57v-14.1l-.14-4.8h.14l1 4.66 3.67 14.24c.14.43.28.57.56.57h1.55a.52.52 0 0 0 .57-.57v-23.13c-.09-.42-.28-.56-.57-.56z"/><path d="m201.56 15.66h-1.12a.52.52 0 0 0 -.57.56v23.13a.52.52 0 0 0 .57.57h1.12a.52.52 0 0 0 .57-.57v-23.13a.52.52 0 0 0 -.57-.56z"/><path d="m216.8 15.66h-1a.51.51 0 0 0 -.56.56v14.11l.14 4.79h-.14l-1-4.65-3.67-14.25c-.14-.42-.28-.56-.56-.56h-1.55a.52.52 0 0 0 -.57.56v23.13a.52.52 0 0 0 .57.57h1.12a.52.52 0 0 0 .57-.57v-14.1l-.14-4.8h.14l1 4.66 3.66 14.24c.14.43.29.57.57.57h1.55a.52.52 0 0 0 .56-.57v-23.13c-.13-.42-.27-.56-.69-.56z"/><path d="m227.94 15.52c-3.95 0-4.65 1.83-4.65 4.79v15c0 3 .7 4.8 4.65 4.8s4.66-1.69 4.66-4.8v-7a.52.52 0 0 0 -.57-.56h-3.81a.51.51 0 0 0 -.56.56v.85a.51.51 0 0 0 .56.56h2.26v5.64c0 1.84-.42 3-2.54 3s-2.54-1.13-2.54-3v-15.05c0-1.83.43-3 2.54-3s2.54 1.13 2.54 3v2.82a.52.52 0 0 0 .56.57h1.13a.52.52 0 0 0 .57-.57v-2.82c-.14-2.96-.85-4.79-4.8-4.79z"/><path d="m246.28 24.26h1.13a.51.51 0 0 0 .56-.56v-3.39c0-3-.7-4.79-4.65-4.79s-4.66 1.83-4.66 4.79c0 3.67.85 4.94 2 6.21l3.34 3.67a6.06 6.06 0 0 1 1.83 4.93c0 1.84-.42 3-2.53 3s-2.54-1.12-2.54-3v-3.38a.52.52 0 0 0 -.57-.57h-1.13a.52.52 0 0 0 -.56.57v3.38c0 3 .71 4.8 4.65 4.8s4.66-1.69 4.66-4.8c0-3.67-.85-4.93-2-6.2l-3.38-3.67a6.08 6.08 0 0 1 -1.83-4.94c0-1.83.42-3 2.53-3s2.54 1.13 2.54 3v3.39c.18.42.33.56.61.56z"/></g></svg>