<svg viewBox="0 0 239.02 84.79" xmlns="http://www.w3.org/2000/svg"><path d="m94.73 63.55c-5.22 0-7.08-2.53-7.08-7.42v-27.31c0-5.05 1.86-7.41 7.08-7.41h2.53c5.22 0 7.08 2.53 7.08 7.41v5.73h20.9v15.68h-20.9v5.77c0 5.06-1.86 7.42-7.08 7.42h-2.53zm-66.41-12.64 5.56-30.51h1.18l5.73 30.51zm-28.32 32.53h22.08l2.7-14.33h19.38l2.7 14.33h22.92l-2.52-12.44c4 9.11 12.81 13.83 26.29 13.83h2.53c17.87 0 27.47-8.26 29-22.59v21.2h53.44v-13.44c4.55 10.12 13.65 14.84 27.47 14.84h3.2c19.71-.05 29.81-10.17 29.81-29.38v-53.94h-23.24v55c0 4.72-1.69 7.08-6.75 7.08h-2.86c-5.23 0-6.74-2.53-6.74-7.08v-55.17h-23.26v59.65h-27.65v-59.65h-23.43v20.39c-1.52-13.65-10.28-21.74-27.81-21.74h-3.71c-20.06 0-29.16 10.11-29.16 28.82v28.66l-11.63-56.13h-35.76z"/></svg>