<svg id="Layer_1" data-name="Layer 1" xmlns="http://www.w3.org/2000/svg" viewBox="0 0 126.28 59.64"><path d="M8.19,36.25H3.41V34.71H8.19ZM0,34.71v9.4H5.8V40.69H3.41V39.32H8.19v1.37c0,2.06,1.32,3.42,3.86,3.42h.75V40.69c-.85,0-1.19-.36-1.19-1.37V34.71H12.8V31.3H3.41A3.47,3.47,0,0,0,0,34.71"/><path d="M125,34.37c.08.15.19.39-.1.4-.11.12-.21,0-.23-.13l0-.1Zm-6-2.27a.89.89,0,0,0-.46-.42l0-.1c.23,0,1.1.31.41.52m-4.71,6.53c-.07,0-.2,0-.27-.1s.06-.33-.1-.54c.1-.06.24,0,.31.09s.18.37.06.55m-.67-.69c-.11,0-.24.18-.3,0s0-.29,0-.38c.22-.1.53.25.25.38m1.69,3.65s0,.06,0,.1-.08,0-.12,0l0,0Zm.52.49.09.18-.12.06-.08-.19Zm.27.41a.35.35,0,0,1,.14.31c-.11,0-.21.12-.32.09s0-.18,0-.28.12-.08.17-.12M110.18,33l-.18-.11c0-.12.18-.18.28-.16s.07.27-.1.27m-1.31,7.76c-.06,0,0-.12,0-.18s-.17,0-.1-.13a.26.26,0,0,1,.3-.23c0,.21.33.15.35.3ZM88,41.89c-.07,0-.2,0-.2-.14s0-.2.14-.2.14.23.06.34m-.58-.6s-.11.09-.16,0,0-.1,0-.15.29.06.14.12M86.26,36.8c-.1,0-.19-.09-.28,0-.07-.27-.34-.53-.21-.8l.37-.17c-.13.32.28.33.28.64ZM122.38,32c.16.09.4.31.63.22s.17.2.32.23c-.15.13.2.32,0,.48,0,.1-.29.14-.26.31l-.06,0c-.1.21-.22.29-.17.53s-.31.29-.48.43-.37-.19-.45-.39,0-.4-.21-.48c-.32-.59-1.24-.77-1.11-1.63-.12-.13-.06-.26,0-.39H85.43a.28.28,0,0,1,0,.13c.17.28-.28.32-.12.64-.2,0-.39.27-.6.07a.67.67,0,0,1,0-.6c-.16-.24-.51-.13-.74-.24H30.12v9.38h-2.9c-.85,0-1.19-.37-1.19-1.37v-4.6h1.2V31.23h-5.8v3.41h1.2v2.29l-4.38-4.57a3.74,3.74,0,0,0-3.05-1.13h-.75v3.41c.83,0,1.19.37,1.19,1.36v4.61H14.45V44h5.79v-3.4H19.05V38.3l4.19,4.4A4.24,4.24,0,0,0,26.47,44H91.23l-.06,0c0-.21-.18-.09-.27-.11-.27-.13-.6-.17-.64-.53a3.75,3.75,0,0,1-.06-.87c.11-.23-.27-.48-.08-.68-.11-.14.06-.29.09-.44.24-.12.14-.41.48-.44a.18.18,0,0,1,.14.22c-.08,0-.2.09-.11.17s.13.26.35.29c.25.65.6,1,.83,1.7.36.12.24.47.12.73h15.33a1.21,1.21,0,0,0,0-.19l.12,0c.09.08.24,0,.37.06.13-.16.22.05.37.1a.25.25,0,0,0,0,.08h4.46a.64.64,0,0,1-.13-.47c-.09.11-.36.07-.32-.12.43,0,.07-.35.3-.54-.1-.18-.12-.45-.32-.53-.24.32-.24-.29-.49-.1-.18,0-.2-.2-.35-.29.1-.11,0-.21,0-.3s.05,0,.05-.07-.16-.08-.16-.19c.29-.13.08-.36.19-.58s-.26-.2-.33-.35c-.22.09-.3-.19-.45-.21l-.15-.33a2,2,0,0,0,.37-.39c.17.08.34.09.41.32.22,0,.13.41.4.4.48,0,.39-.54.73-.67,0-.14-.23-.14-.36-.21l-.11,0c-.12-.09-.15-.28-.23-.42.5-.37-.22-.64-.3-1.09-.33-.41-.92-1-.76-1.63.2-.07.09-.26.33-.27l.55,0c0,.5.83.51.46,1.06-.21,0,0,.32-.19.35a.41.41,0,0,0,0,.45c.17.14.3,0,.44,0,.12.18.11.51.38.55.28.41-.41.73,0,1l.11,0c.07.16-.23.47.17.46a.47.47,0,0,1,.4,0l.06.24c-.17,0-.13.16-.06.25l.18.23c-.07,0-.06.1,0,.15.11.32.74,0,.5.53a.39.39,0,0,0-.28.3l0,.12c-.16,0-.13.17-.19.26.24.08.17.52.45.52.06.09.1.25-.07.25l0,0c.15,0,.13.19.2.28s-.18,0-.14.19a.14.14,0,0,0,.21,0c.15.05.51.05.45.3-.09.09,0,.24,0,.36.14-.06.22,0,.33.07V44h2a.16.16,0,0,0-.09,0c-.06-.26.12-.33.35-.41l.1,0c.19-.22-.16-.42,0-.64-.06-.36-.62-.19-.6-.64a.35.35,0,0,0,0-.46c.09-.09,0-.31.15-.37-.1-.34-.55-.28-.62-.62-.27,0-.32-.36-.58-.2-.12-.21-.43-.21-.45-.52,0-.14.18-.28,0-.42s-.23-.15-.33,0c-.08-.14-.22,0-.34,0l-.1.27c-.17-.06-.36-.11-.33-.35.11,0,.21-.17.33,0-.12-.34.19-.51.12-.87.1-.44.55-.06.79-.42,0-.06.22-.19.09-.31a1,1,0,0,0,0-.42c-.12-.19-.11-.51-.37-.55.17-.36-.62-.65-.17-1,0,0,.14,0,.13-.11s0,0-.09,0c-.15-.29.29-.28.16-.57.11-.23.5-.2.61-.44.44-.1.43-.49.77-.69.16,0,.47-.15.62.08s.21.19.34.26c-.09-.25.26-.27.08-.52.15-.25,0-.48.18-.71s-.1-.48.2-.58c.07.3.33,0,.5,0,.14-.3.58-.38.86-.47l0,.08-.5.3c.13.28.58,0,.37.42.16.29-.21.46-.06.79,0,.25.28.21.28.46.11,0,.23.15.33,0,0,.18.25.16.38.24.22-.15.15.18.37.15.06.06,0,.16,0,.18.06.31.24.61.13.92.16.28-.16.31-.1.59a1.17,1.17,0,0,1-1,.13.27.27,0,0,1-.31,0c-.22.13-.22.55-.46.69a1.91,1.91,0,0,1,1.11,1.31c.18.31.48.22.8.41.09-.36.5-.46.21-.85,0-.36.44-.27.43-.55.09.11.25,0,.38.06,0-.16.18-.15.18-.31l.11,0a.5.5,0,0,1,.37-.48c-.06,0-.13,0-.13-.12.22-.25.6,0,.83-.14.09.17.27-.17.27.11,0,0,0,0-.06.07a.54.54,0,0,1,.39.05c0-.18.27-.17.41-.27.16.16.28.24.44.39a.56.56,0,0,0,.13-.41c-.24-.22-.48.11-.62-.18,0,0,0-.09,0-.15s-.13-.1-.17-.19c.22,0,.08-.22.16-.34s-.08-.11,0-.17.3.1.26-.11c.11-.06.23,0,.33-.05a.37.37,0,0,1,.12-.45l.64-.29c.06.06,0,.12,0,.19.31-.29.62-.05,1-.28V33.38h0c0-.15-.27-.12-.28-.32s.15-.16.29-.16V31.23h-4a.7.7,0,0,0,.07.72"/><path d="M3.41,19.13H8.18v1.53H3.41Zm2.38,6H3.41V23.72H8.18v1.37c0,2.06,1.31,3.4,3.85,3.4h.75v-3.4c-.85,0-1.19-.36-1.19-1.37V19.13h1.19V15.72H3.41A3.46,3.46,0,0,0,0,19.13v9.36H5.79Z"/><path d="M116.89,26.34c-.15.17-.4,0-.59.18-.08-.15-.21.06-.32,0s-.73-.13-.8-.5a.77.77,0,0,0,.07-.57c.31-.28.72-.23,1.09-.38.08.33.34-.14.53.08.17,0,.44-.33.52,0,.22-.08.29.15.5.18a1.09,1.09,0,0,1-.27.84c-.24,0-.48.32-.73.17m-2.1-3.5c-.16-.14,0-.19.1-.27l.36-.21c0,.21.26.1.25.29s-.17.26,0,.39c-.09.12-.29.15-.44.24,0-.21-.47-.17-.22-.44m-1.87-.58c-.13.09-.19.38-.44.33-.12-.25-.47.06-.66-.07s-.26-.35-.37-.56a1.49,1.49,0,0,1,1-.77c.17.16.33-.15.53-.1,0,.19.3.14.3.36Zm-3.44-5.34c-.1-.1-.4.47-.56.07-.1,0-.2.13-.29,0-.08-.26-.37-.59-.13-.79s.37-.23.56-.16c0-.06-.06-.2.08-.21s.12.07.19.09c.24-.35.58.14.59.46,0,0-.13,0-.13.1s.13,0,.14.12c-.17.09-.22.34-.45.29M107.87,27.2c-.12.1-.42.31-.54,0l0,0c0,.06,0,.14-.12.15s-.2-.17-.26-.29.1-.22.09-.31c.24-.13.36.34.63,0a.28.28,0,0,1,.24.44M106.71,26c.25-.18.31.2.33.35l-.27.11a.34.34,0,0,1-.06-.46m-.62-.9c-.21-.26-.37,0-.45-.42.2-.07.07-.24.15-.38s-.12,0-.13-.08.17-.11.25-.16c.28,0,.27.3.38.46-.24.24.17.21.2.36.28-.23.44.15.51.36-.34.45-.51-.28-.91-.14m-.85-1.55c-.34-.41-.08-.84-.41-1.25.1-.16-.12-.3-.07-.46a.33.33,0,0,1,.45,0l.17.38c-.07,0-.07.1,0,.15,0,.34.33-.14.45.11l.36.83c0,.11,0,.39-.21.44,0,.15-.18.14-.27.21l0-.11s0,0,.06-.07c-.28.2-.2-.29-.46-.25m-.64-2.27c.08,0,.08-.16.13-.23l-.1-.23c.18,0,.39-.28.53-.1-.37.26.41.7-.2.76-.09,0-.14-.25-.27-.11s-.07,0-.09-.09M104.28,19c0,.1-.21.12-.31.18-.14-.11-.17-.32-.26-.47.18,0,.39-.29.53-.1s-.12.22,0,.39m-9.54-.86c-.11-.16-.09-.45-.34-.47,0-.11.19-.11.28-.17a1.44,1.44,0,0,1,.3.68c-.08.08-.16,0-.24,0m-.09.31c-.05,0-.09,0-.14,0v0l.15-.06s0,.08,0,.12m-2.3,1.18-.13-.3c.18-.12.2.18.21.27ZM105,16.68a.25.25,0,0,1,.14.42c-.11.12-.22,0-.33,0s.06-.32.19-.38m13.19,5.73c0,.24.37.53.13.71-.18-.16-.46.23-.65,0,0-.16.07-.3-.06-.46.14-.11.33-.45.58-.21m-37.38-.6c0-.09-.1-.17,0-.26s.25.3.45.3l0,.07c-.15.11-.34,0-.45-.11M80.7,22c-.17,0-.14-.17-.21-.26s.11,0,.17,0,.14.19,0,.29m-.42-5.26,0-.12.41-.18c.14.2-.19.14-.18.3s-.15.09-.18,0m-1,1.42c-.15.05-.14-.17-.21-.26s.11,0,.17,0,.13.2,0,.29m-16.2-.81c-.08.08-.17,0-.26,0s0-.16,0-.24.37.14.23.25m61.17.57s0,.08,0,.13l-.08,0L124.1,18Zm1.86,9.38c-.19,0-.19-.27-.28-.42-.32-.09-.65-.38-1-.06l-.1-.05-1.09.48c0,.22,0,.57-.29.67a.82.82,0,0,0-.35-.17.45.45,0,0,1-.46.38c-.14-.26-.52-.19-.74-.17s-.4-.07-.56-.16c0,.06-.06.07-.1.09s-.23-.24-.3-.41.17-.25.06-.38c.18,0,.13-.27.31-.31.11-.26.4-.46.36-.78l.2.13c0-.14.18-.14.27-.2s.06.07.11,0,.13,0,.13-.11c-.19-.39-.6.26-.75-.07.11-.2-.29-.56.14-.6.06.29.3,0,.46.12,0-.08,0-.14,0-.2-.44.17-.26-.86-.74-.49.31.41-.49.45,0,.86,0,.07,0,.2-.14.2l-.14-.12a.78.78,0,0,0-.34.55c-.18.09-.22.3-.44.33a1.41,1.41,0,0,1-.61-.18c-.26.2-.81.12-.78.6.14.11,0,.21-.08.21-.09.18-.11.42-.27.52l-.11-.08c0,.06-.06.07-.1.09-.27-.07-.32-.38-.58-.51,0-.25.56-.23.32-.59-.07-.25.46-.16.25-.46.19-.16.14.29.34.08.06.07.05.23.19.22l.22-.09c0-.28-.41-.66-.14-.84s0-.46.25-.56c-.35-.06-.06-.5-.32-.75.11-.2.1-.44.18-.61-.12-.14,0-.29.08-.44.22,0,.62-.46.68-.07a1.29,1.29,0,0,0,.59-.48c.2,0,.23-.21.3-.35.3-.06.59-.46.91-.18.21-.13.29.29.54.13.07.15.19-.1.29,0,0-.07,0-.13-.05-.2s-.27,0-.28-.15c.4,0,0-.49.45-.5l0-.12c.22,0,.25-.28.34-.46-.08-.09,0-.19,0-.29.22-.1.3.23.52.27a.31.31,0,0,0,.29.27l.12,0,0,.11c-.26.14-.08.47-.37.61,0,.08.21.06.12.17.07,0,.13,0,.2.05-.17.17.06.33.09.5a1,1,0,0,1,.48.59l-.53.32c.28.31,0,.4-.2.58,0,.15-.08.38.07.56.11,0,.24-.08.35-.12.18.17.49-.33.64,0,.17-.1.2.14.34.17s.13.08.2.14l.37-.17c-.19-.24.16-.54-.19-.63-.16.11-.14.42-.45.37,0-.08,0-.16.06-.25s.14,0,.13-.1-.07-.05-.11-.08-.23.33-.47.28c0-.1.17-.27.05-.41.18-.06.09-.27.32-.28,0,0,0,.05.07.06s0-.31.22-.32.19.09.28,0-.31-.51,0-.67c0-.21.55-.17.24-.47a.22.22,0,0,1,.16-.15.3.3,0,0,0,.34,0l0,.11v-.54a.41.41,0,0,1-.15,0c.07-.22-.14-.44-.2-.66-.35.05-.19-.42-.49-.41-.08-.11-.06-.3-.23-.31.2-.25-.22-.59.17-.75,0-.28.11-.62-.13-.92s-.38.13-.44-.17l-.16-.06c-.14.13-.23.4-.45.51-.08-.05-.13-.26-.27-.11,0,0-.07,0-.07-.06s.23-.07.36-.11a8.08,8.08,0,0,0,.32-.9c.14,0,.27.07.42-.05-.12-.28.2-.28.38-.38s.35.1.47.05a2.11,2.11,0,0,1,.47.42V15.72h-1.34c-.29.16-.2.73-.62.77,0,.09,0,.24-.11.27s-.19-.07-.27-.11c0,.12-.11.13-.2.17a.53.53,0,0,1-.45-.42c.22-.23,0-.45-.08-.68h-1a.59.59,0,0,0,0,.35c-.09,0,0,.12,0,.18l0,.11s0,0-.06.07c.18.15.43.37.37.65.15.19.06.37,0,.57s-.5.37-.59.7c-.09.07-.31-.08-.27.12s-.12,0-.18,0a.36.36,0,0,0,0,.36c.06.05.12,0,.13.08l0,.11c-.18.17.17.16.18.32,0,0,.07,0,.09,0s-.09.18.06.2h0c.09.08,0,.09-.07.16s0,0-.06.07a.4.4,0,0,1,.21.26c-.21.23-.42,0-.65.06,0-.15-.15,0-.23,0,.14-.19-.22-.35-.14-.53-.14-.24,0-.53.08-.74l.17.1c-.22-.23.22-.46-.07-.68-.06,0-.18.1-.23,0s.1-.41-.17-.47c0-.42-.4,0-.43-.39-.05.08,0,.16,0,.24l-.29.13s0-.14-.11-.13c0,.16-.17.13-.26.21a.55.55,0,0,1-.46-.43.91.91,0,0,1,.46-.61c-.15-.35.66-.37.1-.67,0-.06,0-.11,0-.18-.31-.1-.64.14-.9-.14h-6.51a.23.23,0,0,1-.15.17c0,.06-.07.13,0,.2-.13.13-.19,0-.29-.05,0-.3-.26-.09-.39-.2a.33.33,0,0,1-.22-.12H78.84c-.11.41-.76.43-.6,1A.4.4,0,0,0,78,17c-.08.08-.16,0-.24,0-.27-.26.16-.72-.33-.76a.56.56,0,0,1-.17-.53H62.12a.53.53,0,0,1,0,.5l-.11.05-.24-.55H30v9.36H27c-.84,0-1.18-.37-1.18-1.37V19.13H27V15.72H23.73l0,.07L20.58,20.2,18.1,17a3.77,3.77,0,0,0-3.16-1.24h-.75v3.41c.83,0,1.19.37,1.19,1.36v4.6H14.19v3.4H20v-3.4H18.79V22.46l1.79,2.34,1.79-2.52v2.81c0,2.06,1.31,3.4,3.84,3.4h57c0-.12-.14-.29,0-.4-.23-.18.13-.37-.1-.54.18-.18-.13-.09-.15-.25-.24.26-.53-.05-.73.19-.11-.06-.12-.22-.18-.33s.29-.46.14-.69c-.26,0-.25-.39-.39-.58a.29.29,0,0,0,0-.32,1.52,1.52,0,0,1-.56-.77c0-.24.09-.47-.08-.69s0-.33-.21-.49c.24-.26,0-.6.3-.76,0-.14-.06-.39.07-.43s0,.14.1.13-.17-.44.16-.47l.14.12c.06-.06,0-.11,0-.17.39-.34.46.19.78.24.07.3.43.66.21.9-.08,0-.19.06-.19.17.22.31-.32.52,0,.83,0,.3.2.59.31.89s.41.26.49.51l.11,0c.3.31,0,.63.09.94s-.07.44,0,.6.17.08.27.11.31.33.51.27c.29-.27.18.26.45.2.06.1.06.24.16.29.12-.1.19,0,.22.09s.17.1.25.15.09-.05.13,0c0,.21.08.22.17.32h26.77l0,0,.15,0h5.91c0-.08-.09-.16,0-.2s-.06-.21,0-.31.38-.28.58-.12c.22,0,0-.28.28-.26.16.4.53-.23.75.08s.3-.4.46,0a.3.3,0,0,0,0,.35,1.28,1.28,0,0,0-.51.44h6.12v-.95c-.13-.05-.3-.07-.2-.24"/><path d="M73.58,4l-.11,0c-.11-.07-.13-.24-.2-.36s.11-.08.17-.12c.06.18.35.2.14.43M68.36,1.4c-.17-.21,0-.33-.06-.55.27-.1.61.28.84,0l.15.34c-.26.12-.68.51-.93.22M67.09,3.83c-.18-.15-.35,0-.54-.11-.08.23-.31.2-.51,0a1.12,1.12,0,0,1-.16-.65c.31,0,.29-.28.55-.38s-.11-.34.15-.37c.16.41.73-.38.76.29l-.11.27c.12,0,.14.11.17.2-.43.14.42.73-.31.71M65.62,1.88l-.47-.24c0,.24-.21.17-.23.41-.2-.12-.38.07-.42-.27,0-.17.21-.24.11-.44s-.38.12-.42-.17c-.1.08-.19,0-.28,0s-.19-.28-.06-.43.49.27.59-.11L64.27.24l.19-.09c.12,0,.37.2.47,0,.21,0,.12.33.35.3s.38-.28.41,0-.11.27,0,.4l-.16.33c.28,0,.54.47.82.14.46.4-.27.62-.09,1a.49.49,0,0,1-.4-.1c0-.26-.24-.11-.27-.33M60.71,12.57l0-.08.11,0,0,.1s-.08,0-.12,0m-.33-.13-.5-1.16a.32.32,0,0,1,.39,0l.07.15c-.07,0-.06.09,0,.15s.2.14.31.22,0,.53-.25.64m-.73-2.18-.19.07L59,9.17c.21,0,.4-.09.57.11,0,.15-.2.4.07.46.18-.1.28.06.32.22s-.28.1-.27.3M58.57,8l-.11,0-.34-.79.27-.07c.06.27.39.54.18.81m-.69-3.45c-.26,0-.24-.31-.35-.47.15-.08-.06-.22,0-.32s.14-.48.47-.47l0-.1c-.16-.1-.39.13-.48-.07s.09-.59-.28-.45c-.09-.07-.52,0-.5-.32s-.27-.54,0-.81c.08-.07.3.09.26-.11-.24-.1-.38.11-.64.19a.2.2,0,0,1-.22,0c0,.25-.23.34-.33.46l-.3-.67c.18-.11.36.07.55.11a2.35,2.35,0,0,0,0-.53c.06-.1.21-.12.32-.18l.27.41c0-.11.11-.13.19-.17s.1.13.14.21l.56-.15.11.26c-.12.08,0,.22,0,.32.14.08.28,0,.42-.08-.31-.39.31-.41.5-.49.08.48-.18,1,.09,1.44-.13.11.08.23,0,.35-.28,0-.27.36-.31.53s.33.23.43.26c.2-.16.48.18.72-.08.08.11.21,0,.23.21s-.08.47-.3.44a.36.36,0,0,1-.32.41l-.29,0c0,.2,0,.43.22.4s.47.08.7.05c.11.2-.15.37,0,.59.11,0,.13.11.17.2-.11.42-.5-.1-.78.26-.29-.33-.69,0-.85-.4s.58-.16.55-.51a.63.63,0,0,1-.35-.07c-.17-.22-.16-.78-.57-.6M57.69,6l-.11,0-.26-.61c.1-.12.21,0,.32,0s.19.34,0,.52m-.49-.82.15-.06c.08.09,0,.12,0,.2s-.08-.09-.11-.14m-.4-1.21L56.7,4l-.22-.5c.11-.11.22,0,.33,0s0,.3,0,.4m2.08-1.72a.36.36,0,0,1,.4,0c.09.17.18.38,0,.51s-.22,0-.33,0-.21-.31-.12-.49m15.8-.36c.17-.1.28.25.19.32a.12.12,0,0,1-.21-.08.16.16,0,0,1,0-.24m1.58.66a.28.28,0,0,0,.33.12c.07.22.27.45.21.68-.13,0-.28.19-.38.07.17-.4-.58-.61-.16-.87M83,3.64c0,.09-.08.23-.2.18l0-.08ZM84.93.84l.42-.27,0,0,.11,0c.07.14.29-.11.29.14.45,0,.46.46.64.76l-.07.16c-.22,0,0,.27-.29.25s-.27-.16-.46,0c-.09-.17-.2,0-.3,0-.15-.26-.42-.62-.32-.93m4,10.68c0,.06.09.13,0,.2s-.2,0-.27-.11Zm.63-4.31c.14,0,.29.2.43.09.21.19.58.34.44.7.19.24.18.83.55.74l.11.26s0,0-.05.07.2.13.15.25-.24.33-.45.42c-.64-.2-.65-1.05-1.11-1.44-.17,0-.16-.23-.24-.34.08-.26-.17-.67.17-.75M93,9a.94.94,0,0,1,.45-.28c.18.13.44.24.5.53a2.9,2.9,0,0,1-.16.66A2,2,0,0,1,93,9.65c-.44-.05,0-.41,0-.62m1.16,2.26s0,.09,0,.13a.2.2,0,0,1-.22,0,.17.17,0,0,1,.21-.14m1.46-1.17.11.27-.11,0-.12-.26Zm.08-.31a.5.5,0,0,0,.43,0c0-.09-.1-.24.08-.26l.16.2c0-.1.1-.19,0-.28.07-.11,0-.31.13-.42l.06,0c0-.19.17-.18.28-.26s0,.05.07.06-.07.13,0,.2c.23-.19.46.12.69.06.18.25-.44.24-.12.54-.23,0-.17.27-.36.29l-.31-.17c0,.05,0,.11,0,.16l-.12.05c0-.07,0-.19-.14-.21s.07.17,0,.2l-.2-.23c-.15.15.1.29-.07.44s-.28.18-.42,0a1,1,0,0,1-.14-.39m.83-8.58A.29.29,0,0,1,97,1.18c.18.19,0,.4.17.6.16-.14.51.13.37.32S97,2,96.93,2.32c0,.08.17.2,0,.25a.12.12,0,0,1-.21-.09c-.08-.08,0-.17,0-.27-.2,0-.29-.12-.35-.29a1.83,1.83,0,0,1,.15-.69m1.36,2.09-.09.21c.11.15.3.05.39.19-.17.12-.42.25-.23.51-.06.14,0,.23-.23.27-.2-.13-.55.15-.69-.14l-.15-.25c0-.14,0-.38.08-.53s.2-.08.26,0c.27,0,.07-.32.16-.47L97.7,3c.12.07.14.24.21.36M98.35.63a1.36,1.36,0,0,1,.47.28c0,.22.1.44-.07.65a.53.53,0,0,1-.37,0c.34-.45-.75-.59,0-.91m.57,6.05c.06.24,0,.53.19.72s.2.36.43.39c.29.31,0,.62.27.91,0,.2.11.48-.16.56-.09.17-.11.53-.35.55,0,0,0,0-.06-.05,0,.24-.21.38,0,.62l-.11,0c-.06-.08,0-.23-.19-.23s.12.25-.11.27c-.16-.26-.29-.59-.63-.62,0-.06.11-.23-.1-.22A2.72,2.72,0,0,1,97.88,9h.22c-.08-.3.11-.61,0-.93.11-.2.11-.46.2-.58l.12,0a3.81,3.81,0,0,0,.07-.75.26.26,0,0,1,.44,0m.66-3.51a.51.51,0,0,1,.06.43c-.09.08-.14,0-.2-.06s-.11-.16-.16-.24a.17.17,0,0,1,.3-.13m1.47,8.17c.12-.13.16.06.28.05,0,.15,0,.34-.2.36a.5.5,0,0,1-.13-.21c0-.07.08-.13,0-.2m3.32-4.18c.25,0,0-.22.07-.34l.38-.17c.06.15.28-.1.29.15.13-.09.28.1.42-.06a.64.64,0,0,1,.41-.49c.19.16.22-.18.4-.21a.18.18,0,0,1,.15-.16c.1,0,.19.1.27,0s.3-.21.45-.32c.19.19.37-.15.56,0,.11,0,.22-.13.33-.09l0,.07s0,.05-.06.07.18,0,.28-.07V5.46c-.13,0-.13-.14-.18-.22s.4-.24.6-.36l.44.39s0,.05,0,.07c.14,0,.13.15.18.23.27.31.74.13.81.63.29,0,.12.25.17.37s.18.67.47.79a1,1,0,0,0,.47.55c.21.17-.09.35,0,.52-.13.07-.08-.13-.19-.14,0,.14.1.38-.08.43s0-.13-.1-.13,0,.11,0,.17l-.11,0c0-.31-.3.11-.31-.21-.19-.09-.37-.18-.4-.41s-.16-.4-.29-.54c-.13.15-.19-.07-.27-.11-.27-.25-.56,0-.8-.09l-.22.09c-.15-.22-.18-.66-.43-.67,0,0-.14,0-.13.11l-.37.2v0c-.5,0-.69.54-1.18.47-.18.15-.36,0-.54.1,0-.09-.13,0-.18,0a.62.62,0,0,1-.54-.21l-.12,0a.2.2,0,0,0-.15-.16c-.18,0-.47.35-.56.07-.08-.09,0-.18,0-.28m2.1-5.52c.12.12.27,0,.35.07-.07.32.2.71,0,1-.51,0-.84.89-1.17.19.26-.57.25-.94.85-1.22m5,11c-.06,0-.15.09-.18,0,.14-.19-.37-.66,0-.55,0,.18.23.37.15.55M99.64,11.11c-.11.1-.16-.1-.25-.07l-.07-.15c.09,0,.21-.16.26,0s.11.16.06.25m-2.19-5c0-.18-.27-.36-.1-.55s.21-.36.45-.19c0-.11.15-.22,0-.33s0,0,0-.07c.24,0,.56.28.31.5l-.08,0,.16.56c-.08,0-.09.08-.12.14l.08.19-.49.21c.06-.48-.57,0-.3-.49m15.19,4.78c.09.11.33-.18.36.11.12,0,.28,0,.28.14s-.23.14-.36.2c-.08-.17-.33-.22-.28-.45m2.82-.39a.7.7,0,0,0,.24.13c0-.41.56-.36.76-.61-.07-.14-.2.08-.31,0s.24-.25,0-.46l.11,0c.06.11.08.26.19.32a.67.67,0,0,1,.52-.55c.27,0,.22.52.55.35.33.3-.15.36-.16.65-.26.07-.5.33-.77.2l-.3.13c-.25-.18-.3.34-.55.15-.06.12,0,.3-.07.35-.13-.16-.31-.45-.24-.62m2.81-1-.11.05-.21-.5c.22-.06.21.3.32.45m-.12-1.2,0,0a.31.31,0,0,1,.19-.31c0,.06,0,.13,0,.19.19-.07.54-.31.72-.09.37.41,0,.65,0,1.07-.14.17-.2.29-.48.24,0-.19-.17-.07-.27-.1-.07-.34-.49-.71-.22-1m.26,3.78c0-.22-.71-.2-.21-.4.16.16.18-.08.35,0s.26,0,.3.18-.29.16-.44.24M74.54,3.89c.15-.09.29.1.17.2s-.11.08-.16,0a.18.18,0,0,1,0-.22m2,8.37c-.36,0-.43-.73-.81-.32-.16,0-.13-.18-.21-.27-.08-.25.34-.43,0-.65-.11.1-.07.21-.25.24,0-.22-.35-.47-.12-.67l.06,0c.06-.21,0-.41,0-.62-.22-.09-.52.07-.55-.31.11-.1,0-.19,0-.29-.18,0-.16-.24-.24-.34l0-.11c-.08-.11-.23,0-.34-.07-.2-.25-.06-.49-.18-.73s.34-.2.16-.43c-.08-.44.61-.23.42-.68.06-.07.2-.16.11-.27l0-.11c0-.13.15-.34,0-.5a.4.4,0,0,1-.4-.1c0-.15.07-.4.33-.36,0,0,0,0,.07.06.22-.09-.07-.29,0-.44s-.27-.45-.08-.63l.05,0c.15-.15,0-.41.27-.48l.12,0s0-.11,0-.16c.19-.18.28-.44.59-.48l0-.06c-.18-.12-.29-.39-.53-.49l-.4-.1c0,.06,0,.14-.11.15s-.11-.06-.11-.14a.43.43,0,0,1-.48-.37.34.34,0,0,1,.37-.29c.06.14.29-.11.29.14.18.14.35,0,.54.12.42-.44.38.42.8,0,0,.51.4.68.55,1.14.15,0,.18.2.17.29-.31.11.2.44-.14.51L76.6,5c-.24.09-.43-.14-.68,0l.2.67s-.05,0-.06.07l0,.08a1.21,1.21,0,0,0,.59-.26s-.11,0-.12-.08.24-.14.36-.2c.06.25.39.2.27.51.27.13.19.63.59.64l0,.1c.2,0,.39.14.59.15-.14.19.08.38.12.57s-.1.35-.06.47-.26.28-.25.56L78,8.32c0-.07-.12-.07-.18-.1.49.63-.75.33-.53.94-.1.06-.35.1-.19.27l0,.11,0,0a8.12,8.12,0,0,1,.21.89l0,0c.4.35-.29.94.37.95a.69.69,0,0,0,.74-.05c0-.25.35-.27.21-.54.16,0,.15.22.24.34-.52,0,.15.55-.36.52,0,0-.14,0-.14.1.18,0,.15.2.24.3l0,0,.11.48c-.08,0-.09.18-.09.18h13c-.05,0-.06-.11,0-.31-.1,0-.19,0-.29.08l0-.12c.28,0,.22-.89.52-.45-.12-.35.61-.33.19-.7-.29-.21-.67-.15-.74-.66.23-.23,0-.42.2-.68.27-.06.57-.35.81-.21.08-.08.18,0,.27,0,.3.29-.13.49,0,.77-.24.33.35.2.28.55.13.22.59.1.44.48l.28-.08c.13.15,0,.24,0,.37-.45,0,0,.4-.44.41,0,.18-.13.34-.33.37s-.19-.09-.27,0-.05.15-.1.18H97.5c0-.08.06-.18.07-.27.2-.22.31.09.52-.05a.32.32,0,0,1,0,.32h13.6c0-.11,0-.25,0-.37l-.1-.23s0,0,.06-.07c.28.08.43.5.73.35s.74-.14.45-.51c.08,0,.2-.09.1-.17s-.2-.09-.22-.31c.15-.25.4.16.6-.08.35.14,0,.94.51.58.15.18.05.37.07.56,0,0-.06,0-.09,0l0,.05c.06,0,.12,0,.13.12a.31.31,0,0,1-.11.09h4.81c0-.08-.11-.18-.08-.27s.31-.21.41-.09l0,.11a1.06,1.06,0,0,0,.81-.08c0-.16-.1-.31,0-.46l.14-.07c0,.06.08.05.13.08.15-.57,1-.52,1.42-.85,0-.28.49-.14.33-.45.09-.23.37,0,.4-.22.26,0,.33-.28.57-.34.08-.12.06-.34.26-.34.4.31.51-.4.91-.17l.11,0v0a1.24,1.24,0,0,0,.61-.26c0-.26.19-.29.23-.5s.34,0,.42-.28c.18-.07.35.2.56,0,.24,0,.28.2.38.35V0h-2.62A1.06,1.06,0,0,0,124,0c.36.05.36.6.77.43,0,.18-.21.24-.21.45-.2,0-.44.31-.57.12a.08.08,0,0,0,0-.08c-.39.22-.39-.3-.69-.36-.08-.16-.19-.39,0-.48l.22-.1h-1.69c.25.4-.1.93.42,1.18.15.19,0,.33,0,.5-.09,0-.19-.1-.27,0-.33.23.19.67-.28.69.12.11.29.16.33.35l-.24.16c.07.09.13,0,.17.18-.6.55-1.12,0-1.78.25-.14-.11-.27.06-.41.08.06.2-.07.27-.25.34s-.35-.36-.54-.22l-.18-.1s.07-.13,0-.19l-.33,0c0-.1,0-.2.09-.31-.32-.05-.62.1-.93,0l-.19.08s0-.05-.07-.06,0,.11,0,.17-.28.16-.43.23c-.21-.15-.48.13-.73.19l-.55,0,0,0c0,.13,0,.22-.11.27l-.11,0c.12.33-.44.21-.45.51-.09-.09-.25,0-.38,0l-.06.15c-.17-.17-.39.09-.58.13s-.35.06-.53-.09l.11.36-.11,0s0,0-.07-.07,0,.17-.07.26c-.28.13-.63.32-.84,0L112.46,5c-.13,0-.25.08-.39.12a.87.87,0,0,1-.07.35c-.24.11-.49.25-.73,0-.07-.08-.06-.23-.2-.22-.06-.22-.25-.43-.18-.64a4,4,0,0,1-.07-1l.12-.14-.35.11c-.12-.08.12-.21-.06-.24s0,.23-.16.25c-.12-.26-.57,0-.56-.48-.17,0-.15-.19-.22-.3.1-.06.26-.08.31-.19s-.11,0-.12-.08c.15-.12.36.1.55,0s.09.4.35.38c0-.3.26,0,.39,0,.37,0,.33-.47.72-.41,0,.05,0,.14.09.13s.11-.49.42-.49c0-.14.13-.2.25-.24l.06,0a.68.68,0,0,1,.15-.56c-.21-.28-.28-.6-.45-.83l0-.11c.18.09.36-.14.54-.11s.25.33.08.51a1.53,1.53,0,0,1,.93.67c.09-.08.12,0,.19,0s.25,0,.37-.06c0-.25.28-.15.3-.36.11,0,.21-.17.32-.06,0-.11.12-.13.2-.17s0,.05.07.06,0-.13.12-.14,0,0,.07.06c.19-.2.46-.33.67-.52l.06,0c0-.25.26-.25.29-.49h-40a0,0,0,0,0,0,0,1.76,1.76,0,0,0,0,1c-.06.27-.4.26-.59.39,0,.24-.34.24-.52.35-.28-.24-.66-.21-.84-.61s.54-.44.18-.79c.12-.13,0-.24,0-.36H72.85s-.06.06-.13,0l0,0h-.4a.37.37,0,0,1-.36.29c-.17-.18-.34,0-.52-.09,0,.12-.11.13-.2.18S71,.14,70.92,0H65.07L65,.05a.09.09,0,0,0,0,0H57.24a.45.45,0,0,1,.07.37c-.08,0-.19,0-.21.13l.19.14c-.13.1,0,.28-.28.3-.25-.15-.23-.58-.49-.73.09-.1,0-.15,0-.21H55.33V0L55,.15,55,0H15V9.37H8.07v-6h4.7V0H0V3.4H3.46c.85,0,1.21.36,1.21,1.37v4.6H0v3.4H76.6s0-.09,0-.15c.15-.08-.12-.23,0-.36"/><path d="M126.28,11.53v-.09a.21.21,0,0,1,0-.19c-.28-.42-.3-1.24-.92-1.17,0-.11-.17-.1-.24-.16L125,10c0-.06-.09-.05-.13-.08l-.23.1c-.11-.11-.39.15-.39-.19a.63.63,0,0,0-.35.11c.16,0,.15.21.22.31a3.7,3.7,0,0,0,0,.59c-.14,0-.06.16,0,.24s0,.14.1.13.07.09.1.13l-.15.16c.22.06.1.31.14.42-.17.07-.32.14-.35.34s0,.13,0,.2,0,0-.06.07l0,.11a.11.11,0,0,0,0,.16h2.43v-1a.71.71,0,0,1,0-.21l0-.05"/><path d="M91.76,12.77h.48c-.09-.17-.31,0-.48,0"/><path d="M112.54,12.76h.4c-.07-.17-.27-.06-.4,0"/><path d="M0,59.64V56.23H4.67v-4.6c0-1-.36-1.37-1.21-1.37H0v-3.4H12.78v3.4H8.07v6h4.71v3.41Z"/><path d="M14.19,59.64V56.23h1.19v-4.6c0-1-.36-1.35-1.19-1.37v-3.4h.75A3.77,3.77,0,0,1,18.1,48.1l2.48,3.24,3.11-4.41,0-.07H27v3.4H25.77v4.6c0,1,.34,1.37,1.19,1.37v3.41h-.75c-2.54,0-3.84-1.35-3.84-3.41V53.42l-1.79,2.52-1.79-2.33v2.62H20v3.41Z"/><path d="M28.38,59.64V56.23h1.19v-4.6c0-1-.36-1.35-1.19-1.37v-3.4h.74A3.81,3.81,0,0,1,32.3,48.1l2.46,3.24,3.12-4.41,0-.07h3.24v3.4H40v4.6c0,1,.34,1.37,1.19,1.37v3.41H40.4c-2.54,0-3.85-1.35-3.85-3.41V53.42l-1.79,2.52L33,53.61v2.62h1.2v3.41Z"/><path d="M42.56,59.64V56.23h4.67v-4.6c0-1-.36-1.37-1.21-1.37H42.56v-3.4H55.34v3.4h-4.7v6h4.7v3.41Z"/><path d="M66.12,55H61.35V52.21h8.17v7.43a3.38,3.38,0,0,1-2.4-1,4,4,0,0,1-3,1H56.75V50.26a3.46,3.46,0,0,1,3.41-3.4h9.36v4.49h-3.4V50.26h-6v6h6Z"/><path d="M75.54,50.26V51.8h3.1c.73,0,1.14-.9,1.16-1.54Zm-4.6,9.38V56.23h1.19v-4.6c0-1-.36-1.35-1.19-1.37v-3.4H83.71v3.4A4.28,4.28,0,0,1,82,53.54l1.71,6.1H79.8l-1.37-4.82c-.35,0-.73,0-1.12,0H75.54v1.37H76.9v3.41Z"/><path d="M93.3,50.26H88.53V51.8H93.3Zm-8.17,9.38V50.26a3.46,3.46,0,0,1,3.4-3.4H97.9v3.4H96.71v4.6c0,1,.34,1.37,1.19,1.37v3.41h-.75c-2.54,0-3.85-1.35-3.85-3.41V54.86H88.53v1.37h2.39v3.41Z"/><path d="M99.31,59.64V56.23h1.19v-4.6c0-1-.35-1.35-1.19-1.37v-3.4h.75a3.75,3.75,0,0,1,3,1.12l4.38,4.57V50.26h-1.2v-3.4h5.8v3.4H110.9v4.6c0,1,.34,1.37,1.19,1.37v3.41h-.75a4.23,4.23,0,0,1-3.24-1.32l-4.19-4.39v2.3h1.19v3.41Z"/><polygon points="116.7 59.63 116.7 56.23 118.19 56.23 118.19 50.26 116.91 50.26 116.91 52.58 113.5 52.58 113.5 46.86 126.28 46.86 126.28 52.58 122.87 52.58 122.87 50.26 121.59 50.26 121.59 56.23 123.02 56.23 123.02 59.63 116.7 59.63"/></svg>