<svg id="Layer_1" data-name="Layer 1" xmlns="http://www.w3.org/2000/svg" viewBox="0 0 203.46 69.62"><path d="M0,.12V69.58H70.09V.12ZM56.13,51.75H14v-13H56.13Zm0-21.1H14V17.74H56.13Z"/><path d="M98,6.94c1.09,0,1.22,0,1.22-.89V4c0-2.35-.13-2.48-1.6-2.73L97,1.13C96.7,1,96.74.38,97,.29c1.34.09,2.39.09,3.49.09s2.14,0,3.49-.09c.29.09.29.68.08.84l-.67.09c-1.47.25-1.6.38-1.6,2.73V11.6c0,2.36.13,2.53,1.6,2.74l.8.08c.25.17.21.76-.09.84-1.43-.08-2.56-.08-3.61-.08s-2.15,0-3.49.08c-.3-.08-.3-.67-.09-.84l.63-.08c1.47-.26,1.6-.38,1.6-2.74V8.91C99.18,8.07,99.1,8,98,8H92c-1.18,0-1.22,0-1.22.88V11.6c0,2.36.13,2.57,1.6,2.74l.92.08c.25.17.21.76-.08.84-1.56-.08-2.69-.08-3.79-.08s-2.14,0-3.19.08c-.3-.08-.3-.67-.09-.84l.38-.08c1.43-.38,1.6-.38,1.6-2.74V4c0-2.35-.13-2.52-1.6-2.73l-.8-.08c-.25-.17-.21-.76.09-.85,1.47.09,2.52.09,3.61.09s2.15,0,3.37-.09c.29.09.29.68.08.85l-.5,0c-1.43.29-1.6.38-1.6,2.73v2.1c0,.89.13.89,1.22.89Z"/><path d="M114.15,4c0-2.35-.17-2.44-1.6-2.73l-.46-.08c-.25-.17-.21-.76.08-.85,1.18.09,2.23.09,3.32.09s2.15,0,3.49-.09c.3.09.3.68.09.85l-.72,0c-1.47.25-1.6.38-1.6,2.73V8.79c0,3.4,1.14,5.76,4.46,5.76,3.07,0,4.42-2.32,4.42-5.72V5.63c0-3.4-.21-4.2-1.69-4.41l-.71-.09a.54.54,0,0,1,.08-.84c1.1.09,1.9.09,2.86.09s1.73,0,2.86-.09a.53.53,0,0,1,0,.84l-1,.09c-.88.08-1.17,1-1.17,4.41V9c0,4.37-2,6.68-6.35,6.68-2.19,0-3.83-.46-4.88-1.43s-1.47-2.6-1.47-4.83Z"/><path d="M145.18,9.21c.25.46,1.09,2,1.22,2.1a18.76,18.76,0,0,0,1.38-2.4l1.73-3.28A28.74,28.74,0,0,0,151.86.29c.76,0,1.47.09,2,.09.84,0,1.81,0,2.82-.09.29.09.33.68.08.84l-.76.09c-1.55.21-1.64.84-1.64,2.86,0,3.61,0,6.51.17,8.57.09.76.09,1.56,1.14,1.69l1,.08a.53.53,0,0,1,0,.84c-1.22-.08-2.56-.08-3.4-.08-1,0-2.06,0-3,.08-.25-.17-.29-.71,0-.84l.76-.08c1.09-.13,1.09-.43,1.09-1.77V4.71a2.71,2.71,0,0,0-.09-1,29.06,29.06,0,0,0-1.47,2.61l-2.1,4c-.29.5-2.06,4.08-2.44,5.17a.6.6,0,0,1-.63,0,36.07,36.07,0,0,0-2-4.54l-2.22-4.33c-.38-.76-1.1-2.57-1.39-2.65a27.69,27.69,0,0,0-.21,3.4c0,1.39-.09,2.82-.09,4.5s0,2.48,1,2.61l1.14.08c.25.13.21.72,0,.84-.89-.08-1.9-.08-2.82-.08-.76,0-1.77,0-2.86.08a.54.54,0,0,1,0-.84l.72-.08c1.13-.17,1.21-.51,1.38-1.72.3-1.85.46-7.36.46-9.67,0-1.1-.37-1.6-1.55-1.73L136,1.22c-.21-.17-.25-.72.08-.84.93.08,1.73.08,2.65.08.67,0,1.39,0,2.48-.08,0,1.51.63,2.6,1.77,4.87Z"/><path d="M171.83,8.83c.88,0,1-.09.63-1l-1.05-2.9a10.24,10.24,0,0,0-.5-1.22h-.09a8.51,8.51,0,0,0-.54,1.17l-1.22,3c-.38.93-.3,1,.46,1h2.31ZM169.1,9.92c-.8,0-.88,0-1.18.84l-.8,2.19c-.38,1.09-.29,1.22.38,1.39l.93.16c.29.17.25.8-.09.84-.84-.08-1.72-.08-2.69-.08s-1.76.08-2.4.08c-.29-.12-.29-.67-.08-.84l.8-.16c1.05-.26,1.43-.64,2.1-2.27l3.28-7.87a9.37,9.37,0,0,0,.88-2.86A2.88,2.88,0,0,0,171.66,0c.3-.08.47,0,.55.17s.67,2.1,1.47,4.2l3.07,8.16c.42,1.13.72,1.56,1.93,1.81l.55.08c.3.17.25.8-.08.84-.89-.08-1.68-.08-2.86-.08s-2.23,0-3.07.08a.49.49,0,0,1-.09-.84l.68-.08c.88-.13.84-.34.46-1.39l-.84-2.23c-.3-.8-.38-.84-1.18-.84Z"/><path d="M199.83,5.63c0-3.4-.21-4.29-1.47-4.41l-1.09-.09a.54.54,0,0,1,.08-.84c1.26.09,2.06.09,3,.09s1.72,0,2.86-.09a.54.54,0,0,1,0,.84l-1.05.09c-.88.08-1.18,1-1.18,4.41v5.76c0,.68,0,3.45.09,3.95a.64.64,0,0,1-.72.3c-.38-.46-1-1.18-3.19-3.49L192,6.6A34.32,34.32,0,0,0,189.36,4c-.12,0-.12.38-.12,1.43v4.5c0,3.4.21,4.33,1.47,4.41l1.09.09a.51.51,0,0,1-.08.84c-1.26-.09-2.06-.09-3-.09s-1.64,0-2.86.09a.54.54,0,0,1,0-.84l1-.09c.88-.08,1.18-1,1.18-4.41V3.82c0-1.13,0-1.59-.72-2.1A3.42,3.42,0,0,0,186,1.26l-.5-.08a.52.52,0,0,1,.08-.85c1.3.09,2.23.09,2.94.09a12.18,12.18,0,0,0,1.39-.09,18.61,18.61,0,0,0,3.36,4.21l3.24,3.32c.76.76,2.73,2.9,3.11,3.2.21-.09.21-.55.21-1.39Z"/><path d="M90.73,36.66c0,.84,0,.84,1.72.84,2.23,0,3.41-.88,3.41-3.24,0-1.72-1.18-3.19-3.57-3.19-1.27,0-1.52.08-1.52,1v4.62Zm-2.61-2.48c0-2.23,0-2.82-.84-2.9l-1-.13c-.3,0-.34-.75,0-.84,1.89-.12,3.78-.21,5.67-.21,3.2,0,6.64.51,6.64,4.12a3.94,3.94,0,0,1-3,3.66.42.42,0,0,0,0,.5,21.1,21.1,0,0,0,4.33,5.47,3.21,3.21,0,0,0,1.81.71c.12.13.12.47,0,.55a5.27,5.27,0,0,1-1.43.17c-2.06,0-3.28-.63-4.8-2.57-.84-1.09-1.76-2.6-2.48-3.7a1.61,1.61,0,0,0-1.39-.54c-.88,0-1,.08-1,.54v2.44c0,2.36.12,2.53,1.6,2.74l.79.08c.26.17.21.76-.08.84C91.57,45,90.44,45,89.38,45s-2.14,0-3.36.08a.49.49,0,0,1-.08-.84l.5-.08c1.47-.3,1.6-.38,1.6-2.74V34.18Z"/><path d="M110,33.76c0-2.36-.13-2.48-1.6-2.73l-.63-.09c-.25-.17-.21-.75.08-.84,1.35.09,2.4.09,3.49.09s2.15-.05,3.49-.09c.3.09.3.67.09.84l-.63.09c-1.48.25-1.6.37-1.6,2.73v7.65c0,2.36.12,2.48,1.6,2.73l.63.09c.25.17.21.76-.09.84-1.3-.08-2.44-.08-3.49-.08s-2.14,0-3.49.08c-.29-.08-.29-.67-.08-.84l.63-.09c1.47-.25,1.6-.37,1.6-2.73Z"/><path d="M134,42c0-1.56,0-1.77-1.55-2.06l-1.1-.21a.53.53,0,0,1,0-.84c1.38.08,2.85.08,3.86.08s2.11,0,2.9-.08a.56.56,0,0,1,.09.84l-.63.12c-.88.21-1,.42-1,1.9v1c0,.84.08,1.35.55,1.56.12.08.12.42-.05.46-.37,0-1.09.21-2.06.38a18.1,18.1,0,0,1-3.4.42c-3,0-5.55-.72-7.36-2.52a7.46,7.46,0,0,1-2.1-5.22,7.65,7.65,0,0,1,2.14-5.38c1.56-1.6,3.91-2.69,7.57-2.69a21,21,0,0,1,4.58.67c.05.68.09,2.06.3,3.87a.55.55,0,0,1-.89,0c-.88-2.69-2.35-3.57-4.87-3.57-3.58,0-5.8,2.78-5.8,6.77,0,4.2,2.6,7.06,6.72,7.06,1.81,0,2.06-.33,2.06-1.72Z"/><path d="M157.54,36.74c1.09,0,1.22,0,1.22-.88v-2.1c0-2.36-.13-2.48-1.6-2.73l-.63-.09c-.25-.17-.21-.75.08-.84,1.35.09,2.4.09,3.49.09s2.15-.05,3.49-.09c.3.09.3.67.09.84L163,31c-1.47.25-1.59.37-1.59,2.73v7.65c0,2.36.12,2.52,1.59,2.73l.8.09c.26.17.21.76-.08.84-1.43-.08-2.57-.08-3.62-.08s-2.14,0-3.49.08c-.29-.08-.29-.67-.08-.84l.63-.09c1.47-.25,1.6-.37,1.6-2.73V38.72c0-.84-.09-.88-1.22-.88h-6c-1.18,0-1.22,0-1.22.88v2.69c0,2.36.12,2.57,1.59,2.73l.93.09c.25.17.21.76-.08.84C151.23,45,150.1,45,149,45s-2.14,0-3.19.08c-.3-.08-.3-.67-.09-.84l.38-.09c1.43-.37,1.6-.37,1.6-2.73V33.76c0-2.36-.13-2.52-1.6-2.73l-.8-.09c-.25-.17-.21-.75.09-.84,1.47.09,2.52.09,3.61.09s2.15-.05,3.37-.09c.29.09.29.67.08.84l-.51.09c-1.42.29-1.59.37-1.59,2.73v2.1c0,.88.12.88,1.22.88Z"/><path d="M176.58,32c0-.89,0-.89-.71-.89h-1.05c-2.11,0-3,.21-3.79,2.57a.59.59,0,0,1-.84-.17c.38-1.47.76-3.2.93-4a.59.59,0,0,1,.63,0c0,.68.5.63,1.89.63h9.5c1.26,0,1.51,0,1.77-.63a.5.5,0,0,1,.63.09,12.91,12.91,0,0,0-.34,4,.53.53,0,0,1-.84,0c-.25-2.23-1.13-2.48-3.19-2.48H180c-.63,0-.76,0-.76.89v9.37c0,2.36.13,2.57,1.6,2.73l.92.09c.26.17.21.76-.08.84C180.28,45,179,45,177.89,45s-2.32,0-3.79.08c-.29-.08-.29-.67-.08-.84l.92-.09c1.47-.16,1.6-.37,1.6-2.73V32Z"/><path d="M195.59,38.05c-1.64-.84-3-2.19-3-4.12,0-2.48,1.93-4.25,5.38-4.25a16.92,16.92,0,0,1,3.2.51,8.36,8.36,0,0,1,.46,3.36c-.09.29-.72.29-.88.08-.3-1.17-1.18-2.94-3.2-2.94s-2.77,1.18-2.77,2.31.92,2,2.31,2.69l2.1,1.1a4.92,4.92,0,0,1,2.77,4.33c0,2.65-2.18,4.33-5.59,4.33a7.27,7.27,0,0,1-4-1.05,7.51,7.51,0,0,1-.71-3.54.53.53,0,0,1,.88-.08c.29,1.22,1.76,3.66,4.08,3.66,1.72,0,2.86-.88,2.86-2.48,0-1.1-.47-2.23-2.4-3.2Z"/><path d="M95.73,59.83a23.38,23.38,0,0,0,.21,2.43.4.4,0,0,1-.59.05A2.81,2.81,0,0,0,92.29,60c-1.9,0-3.79,1.26-3.79,4.29S90.39,69,92.5,69a3.47,3.47,0,0,0,3.19-2.23.34.34,0,0,1,.59,0,7.3,7.3,0,0,1-.72,2.4,11.07,11.07,0,0,1-3,.46,6.72,6.72,0,0,1-3.87-1,4.65,4.65,0,0,1-2.1-3.91,4.93,4.93,0,0,1,1.85-4,7,7,0,0,1,4.29-1.26,13.7,13.7,0,0,1,3,.38"/><path d="M106.66,65.17c.59,0,.63,0,.38-.68l-.67-1.89a3.19,3.19,0,0,0-.34-.8h0a2.76,2.76,0,0,0-.33.76l-.8,2c-.26.58-.21.63.29.63Zm-1.76.71c-.51,0-.59,0-.76.55l-.5,1.43c-.26.71-.17.8.25.88l.59.13c.17.12.17.5-.09.54-.54,0-1.13-.08-1.72-.08s-1.14,0-1.56.08a.33.33,0,0,1,0-.54l.51-.13c.67-.17.92-.38,1.38-1.47l2.11-5.09a7.85,7.85,0,0,0,.59-1.85,2.37,2.37,0,0,0,.92-.84c.17-.08.29,0,.34.13s.42,1.38,1,2.73l2,5.25c.25.72.46,1,1.26,1.18l.34.09a.3.3,0,0,1-.09.54c-.59,0-1.09-.08-1.85-.08a14.2,14.2,0,0,0-2,.08c-.21-.08-.26-.46,0-.54l.42-.09c.58-.08.54-.21.29-.92l-.55-1.43c-.16-.51-.25-.55-.75-.55Z"/><path d="M122.77,65.42c.16.29.71,1.26.8,1.34a10,10,0,0,0,.92-1.55l1.09-2.1a17.37,17.37,0,0,0,1.52-3.45c.5,0,.92.08,1.26.08.55,0,1.18,0,1.81-.08a.35.35,0,0,1,.08.54l-.5.09c-1,.12-1.06.55-1.06,1.85,0,2.35,0,4.2.13,5.55,0,.5,0,1,.72,1.09l.63.09a.36.36,0,0,1,0,.54c-.8,0-1.64-.08-2.23-.08a15.74,15.74,0,0,0-1.94.08c-.16-.12-.16-.46,0-.54l.51-.09c.71-.08.71-.25.71-1.13V62.56c0-.25,0-.59-.08-.63a16.87,16.87,0,0,0-1,1.68l-1.34,2.52c-.17.34-1.31,2.61-1.56,3.32a.36.36,0,0,1-.42,0,26.31,26.31,0,0,0-1.3-2.94l-1.43-2.77a11.12,11.12,0,0,0-.88-1.73,13.62,13.62,0,0,0-.13,2.23c0,.88,0,1.81,0,2.9s0,1.6.63,1.68l.71.09c.17.08.13.46,0,.54-.59,0-1.22-.08-1.81-.08a16.11,16.11,0,0,0-1.85.08c-.17-.08-.17-.42,0-.54l.47-.09c.71-.12.79-.33.92-1.09.17-1.18.29-4.75.29-6.26,0-.72-.25-1.06-1-1.14l-.55-.08c-.13-.13-.17-.47,0-.55.59,0,1.09.08,1.68.08a12.84,12.84,0,0,0,1.6-.08,6.79,6.79,0,0,0,1.14,3.15Z"/><path d="M138,62.31c0-1.43-.05-1.77-.55-1.85l-.67-.13c-.21-.08-.17-.5,0-.55,1.22-.08,2.35-.12,3.53-.12A8.05,8.05,0,0,1,143,60a2.66,2.66,0,0,1,1.81,2.56A2.57,2.57,0,0,1,143,65.12a5.77,5.77,0,0,1-2,.34.23.23,0,0,1,0-.38A2.3,2.3,0,0,0,143,62.56a2.14,2.14,0,0,0-2.4-2.27c-.88,0-.88.12-.88.76V67c0,1.52.08,1.64,1,1.77l.51.08c.16.13.12.51-.05.55-.92,0-1.64-.08-2.35-.08a19.41,19.41,0,0,0-2.14.08.36.36,0,0,1,0-.55l.34-.08c1-.21,1-.25,1-1.77V62.31Z"/><path d="M154.72,65.17c.59,0,.63,0,.38-.68l-.67-1.89a3.66,3.66,0,0,0-.34-.8h0a2.65,2.65,0,0,0-.34.76l-.8,2c-.25.58-.21.63.3.63Zm-1.72.71c-.51,0-.59,0-.76.55l-.51,1.43c-.25.71-.16.8.26.88l.59.13c.16.12.16.5-.09.54-.55,0-1.13-.08-1.72-.08s-1.14,0-1.56.08a.33.33,0,0,1,0-.54l.5-.13c.68-.17.93-.38,1.39-1.47l2.1-5.09a7,7,0,0,0,.59-1.85,2.34,2.34,0,0,0,.93-.84c.17-.08.29,0,.33.13s.42,1.38,1,2.73l2,5.25c.25.72.46,1,1.26,1.18l.33.09a.3.3,0,0,1-.08.54c-.59,0-1.09-.08-1.85-.08a14.43,14.43,0,0,0-2,.08c-.21-.08-.25-.46,0-.54l.42-.09c.59-.08.55-.21.3-.92l-.55-1.43c-.17-.51-.25-.55-.76-.55Z"/><path d="M166.32,62.05c0-1.51-.08-1.59-1-1.76l-.42-.09c-.17-.12-.12-.5,0-.54.85,0,1.56.08,2.27.08s1.39,0,2.27-.08a.35.35,0,0,1,0,.54l-.42.09c-1,.17-1.05.25-1.05,1.76v5c0,1.51.08,1.59,1.05,1.76l.42.09c.17.12.12.5,0,.54-.84,0-1.55-.08-2.27-.08s-1.38,0-2.27.08a.36.36,0,0,1,0-.54l.42-.09c1-.17,1-.25,1-1.76Z"/><path d="M182.85,67.31c0-1,0-1.14-1-1.3l-.72-.13a.33.33,0,0,1,0-.55c.88,0,1.85.09,2.48.09s1.34,0,1.89-.09a.4.4,0,0,1,.08.55l-.38.08c-.59.13-.67.26-.67,1.22v.63c0,.55,0,.85.34,1,.08.09.08.26,0,.3a8.84,8.84,0,0,0-1.3.25,10.55,10.55,0,0,1-2.18.25A6.38,6.38,0,0,1,176.62,68a4.81,4.81,0,0,1-1.38-3.36,4.86,4.86,0,0,1,1.38-3.45,6.38,6.38,0,0,1,4.88-1.72,13.62,13.62,0,0,1,2.94.42c0,.42.09,1.34.21,2.48a.37.37,0,0,1-.58,0,2.92,2.92,0,0,0-3.16-2.31c-2.31,0-3.74,1.81-3.74,4.37,0,2.73,1.68,4.54,4.33,4.54,1.18,0,1.3-.21,1.3-1.09v-.59Z"/><path d="M200,63.11c0-2.19-.12-2.78-1-2.86l-.72-.09a.35.35,0,0,1,0-.54c.8,0,1.31.08,2,.08s1.13,0,1.85-.08a.35.35,0,0,1,0,.54l-.67.09c-.59.08-.76.67-.76,2.86v3.7c0,.42,0,2.22.08,2.56a.45.45,0,0,1-.46.21c-.25-.29-.67-.76-2.06-2.27L195,63.74c-.84-.89-1.43-1.48-1.68-1.69-.09,0-.09.26-.09.93v2.9c0,2.19.13,2.78,1,2.86l.71.08a.36.36,0,0,1,0,.55c-.8,0-1.3-.08-2-.08a15.52,15.52,0,0,0-1.85.08c-.17-.08-.17-.42-.05-.55l.68-.08c.58-.08.75-.67.75-2.86V61.93c0-.72,0-1-.46-1.39a2.48,2.48,0,0,0-.8-.29l-.33-.09a.33.33,0,0,1,0-.54,18.26,18.26,0,0,0,1.89.08,6,6,0,0,0,.88-.08,13.89,13.89,0,0,0,2.15,2.73l2.06,2.14c.5.51,1.76,1.9,2,2.06.13,0,.13-.33.13-.88V63.11Z"/></svg>