<svg id="Layer_1" data-name="Layer 1" xmlns="http://www.w3.org/2000/svg" viewBox="0 0 210.08 55.26"><defs><style>.cls-1{stroke:#000;stroke-miterlimit:10;stroke-width:1.24px;}</style></defs><path class="cls-1" d="M202.45,18.7h0a6.52,6.52,0,0,1-3-.7A6.35,6.35,0,0,1,197,15.81a6.23,6.23,0,0,1-1.15-3.14,5.23,5.23,0,0,1,.62-2.8,7.46,7.46,0,0,1,3.06-2.95,9,9,0,0,1,4.19-1.1,5.85,5.85,0,0,1,3.57,1.1,5.34,5.34,0,0,1,2,3.58,7.6,7.6,0,0,1-.14,3.2,6.57,6.57,0,0,1-1.34,2.51A7.18,7.18,0,0,1,202.45,18.7Zm1.31-11.92a7.53,7.53,0,0,0-6.41,3.54,4.61,4.61,0,0,0,.48,5,5.44,5.44,0,0,0,4.62,2.47,6.22,6.22,0,0,0,4.69-2.15,5.88,5.88,0,0,0,1.27-4.94A4.39,4.39,0,0,0,203.76,6.78Z"/><path class="cls-1" d="M205.12,15.2a.5.5,0,0,1-.35-.16l-.55-.62a25.91,25.91,0,0,0-4-3.9.48.48,0,0,1,.51-.81,25.61,25.61,0,0,1,4.16,4.08l.55.61a.47.47,0,0,1,0,.67A.48.48,0,0,1,205.12,15.2Z"/><path class="cls-1" d="M200.05,15.43a.46.46,0,0,1-.33-.13.47.47,0,0,1,0-.67,34.07,34.07,0,0,1,3-2.66c1-.8,1.9-1.55,2.54-2.2a.48.48,0,0,1,.68.68c-.68.68-1.62,1.44-2.61,2.26a31.33,31.33,0,0,0-2.94,2.58A.49.49,0,0,1,200.05,15.43Z"/><path d="M2.76,0H4.47A2.75,2.75,0,0,1,7.22,2.75V51.54a2.75,2.75,0,0,1-2.75,2.75H2.75A2.75,2.75,0,0,1,0,51.54V2.76A2.76,2.76,0,0,1,2.76,0Z"/><path d="M22.12,9.91a4.73,4.73,0,0,0-9.46,0,4.8,4.8,0,0,0,3.62,4.62v8.41c-2.29,0-2.51.31-2.51,2.75V51.54c0,2.53.23,2.75,2.76,2.75h1.71c2.54,0,2.76-.22,2.76-2.75V25.69c0-2.44-.22-2.73-2.51-2.75V14.53A4.81,4.81,0,0,0,22.12,9.91Z"/><path d="M40.66,22.94H37.75V14.23c0-2.54-.22-2.76-2.75-2.76H33.29c-2.54,0-2.76.22-2.76,2.76v8.71h-.37c-2.46,0-2.68.22-2.68,2.75V27c0,2.53.22,2.75,2.68,2.75h.37V51.54c0,2.53.22,2.75,2.76,2.75H35c2.53,0,2.75-.22,2.75-2.75V29.71h2.91c2.53,0,2.75-.22,2.75-2.75V25.69C43.41,23.16,43.19,22.94,40.66,22.94Z"/><path d="M60.91,22.94H58V14.23c0-2.54-.22-2.76-2.76-2.76H53.54c-2.53,0-2.76.22-2.76,2.76v8.71h-.37c-2.46,0-2.68.22-2.68,2.75V27c0,2.53.22,2.75,2.68,2.75h.37V51.54c0,2.53.23,2.75,2.76,2.75h1.71c2.54,0,2.76-.22,2.76-2.75V29.71h2.9c2.54,0,2.76-.22,2.76-2.75V25.69C63.67,23.16,63.45,22.94,60.91,22.94Z"/><path d="M70.89,0H72.6a2.75,2.75,0,0,1,2.75,2.75V51.54a2.75,2.75,0,0,1-2.75,2.75H70.89a2.76,2.76,0,0,1-2.76-2.76V2.76A2.76,2.76,0,0,1,70.89,0Z"/><path d="M109.69,38.43c0-9.91-5.74-16.31-14.75-16.31-9.3,0-15.26,6.48-15.26,16.76,0,9.75,6.25,16.38,15.41,16.38a16,16,0,0,0,11.84-4.84c1.49-1.64,2.39-3,2.39-3.73s-.3-1.11-1.79-1.93L106.19,44a3.67,3.67,0,0,0-1.79-.74,1.71,1.71,0,0,0-1.56,1c-1.87,3-4.4,4.47-7.45,4.47-4.62,0-7.75-3.28-8.12-8.42h19.66C109.17,40.36,109.69,40,109.69,38.43Zm-22-4a7.31,7.31,0,0,1,7.22-5.81c3.73,0,6.33,2.09,7.3,5.81Z"/><path d="M136.42,27.55a11.27,11.27,0,0,0,4-8.86,14.3,14.3,0,0,0-5.67-11.54c-2.6-1.79-5.95-2.53-11.91-2.53h-4.69c-2.54,0-2.76.22-2.76,2.75V51.54c0,2.53.22,2.75,2.76,2.75h8.63c6.71,0,9.84-.89,13.11-3.57a13.78,13.78,0,0,0,5-10.73A12.8,12.8,0,0,0,136.42,27.55Zm-13.48-16h2.61c5.06,0,7.82,2.53,7.82,7.15s-2.76,7.3-8.12,7.3h-2.31Zm4.62,35.68h-4.62v-15h3.8c7.22,0,10.8,2.53,10.8,7.67C137.54,44.53,134,47.22,127.56,47.22Z"/><path d="M157.57,9.91a4.73,4.73,0,0,0-9.46,0,4.81,4.81,0,0,0,3.63,4.62v8.41c-2.29,0-2.51.31-2.51,2.75V51.54c0,2.53.23,2.75,2.76,2.75h1.71c2.53,0,2.75-.22,2.75-2.75V25.69c0-2.44-.21-2.73-2.5-2.75V14.53A4.81,4.81,0,0,0,157.57,9.91Z"/><path d="M175,22.94h-2.91V14.23c0-2.54-.22-2.76-2.75-2.76h-1.72c-2.53,0-2.75.22-2.75,2.76v8.71h-.37c-2.46,0-2.68.22-2.68,2.75V27c0,2.53.22,2.75,2.68,2.75h.37V51.54c0,2.53.22,2.75,2.75,2.75h1.72c2.53,0,2.75-.22,2.75-2.75V29.71H175c2.53,0,2.75-.22,2.75-2.75V25.69C177.75,23.16,177.53,22.94,175,22.94Z"/><path d="M191.45,34.41c-3.42-1.57-4.17-2.24-4.17-3.58a2.28,2.28,0,0,1,2.39-2.23c1.11,0,1.64.29,2.68,1.64a1.57,1.57,0,0,0,1.34.74c.37,0,.52-.07,1.71-.74l1.34-.68c1.56-.81,1.79-1.11,1.79-1.93,0-2.46-4.62-5.51-8.42-5.51a9.34,9.34,0,0,0-9.68,9.46c0,3.87,1.49,5.81,6.11,8.11,6.78,3.35,7.22,3.73,7.22,5.74s-1.49,3.35-3.72,3.35a4,4,0,0,1-3.43-1.64c-1.41-1.94-1.56-2.08-2.3-2a5.25,5.25,0,0,0-1.64.6l-1.42.67c-1.64.74-1.93,1-1.93,1.86a4,4,0,0,0,1,2.16A11.69,11.69,0,0,0,190,55.26a10.79,10.79,0,0,0,11.1-10.58C201.14,40.07,199.12,38,191.45,34.41Z"/></svg>