<svg id="Layer_1" data-name="Layer 1" xmlns="http://www.w3.org/2000/svg" viewBox="0 0 176.56 76.44"><g id="project-logo-filmlinc"><g id="falc-reel-logo-violet-f"><g id="Group"><path id="Path" d="M33.37,37.33a4.15,4.15,0,0,1,.11-.48L25.66,34.6a10.88,10.88,0,0,1-.56,1.2Z"/><path id="Path-2" data-name="Path" d="M44,50.53,40.3,42.64l-.44.18L43.12,52A9.34,9.34,0,0,1,44,50.53Z"/><path id="Path-3" data-name="Path" d="M41.58,41.78l-.37.31,5,6.45a9.3,9.3,0,0,1,1.15-.64Z"/><path id="Path-4" data-name="Path" d="M28.24,47.63l6.43-6.06a3.73,3.73,0,0,1-.32-.36l-7.79,6a8.9,8.9,0,0,1,1.68.39Z"/><path id="Path-5" data-name="Path" d="M68.05,31.45a10.69,10.69,0,0,1-.1,1.26l7.69-1.43a.2.2,0,0,0,.12-.08.17.17,0,0,0,0-.14l-.37-1.58c-.14-.57-.28-1.13-.44-1.69a.19.19,0,0,0-.09-.11.17.17,0,0,0-.14,0l-6.89,2a9,9,0,0,1,.19,1.79Z"/><path id="Path-6" data-name="Path" d="M35.24,42.09l-.37-.31L29.06,48a8.74,8.74,0,0,1,1.16.64Z"/><path id="Path-7" data-name="Path" d="M42.1,41.21c-.1.13-.2.25-.31.37l6.37,6a9.56,9.56,0,0,1,1.66-.4Z"/><path id="Path-8" data-name="Path" d="M41,34.11,59.71,6.81a.17.17,0,0,0,0-.14.19.19,0,0,0-.09-.12L58.27,5.7c-.49-.31-1-.6-1.5-.88a.18.18,0,0,0-.14,0,.17.17,0,0,0-.11.09l-15.9,29C40.76,33.94,40.9,34,41,34.11Z"/><path id="Path-9" data-name="Path" d="M47.16,16.33a8.89,8.89,0,0,1-3.71,7.24l-3.55,10a4.32,4.32,0,0,1,.45.19L54.45,3.8a.2.2,0,0,0,0-.15.14.14,0,0,0-.1-.1l-1.49-.62c-.54-.23-1.09-.44-1.63-.64a.22.22,0,0,0-.14,0,.18.18,0,0,0-.1.11L46.85,14a8.7,8.7,0,0,1,.31,2.32Z"/><path id="Path-10" data-name="Path" d="M45.86,11.7l2.9-10a.17.17,0,0,0,0-.14.16.16,0,0,0-.12-.09l-1.57-.37C46.48.91,45.91.79,45.34.68a.19.19,0,0,0-.14,0,.19.19,0,0,0-.07.12L43.58,9.19A8.94,8.94,0,0,1,45.86,11.7Z"/><path id="Path-11" data-name="Path" d="M67.29,27.85l6.77-2.42a.18.18,0,0,0,.11-.1.17.17,0,0,0,0-.14l-.61-1.5c-.22-.54-.46-1.08-.7-1.6a.22.22,0,0,0-.11-.1.23.23,0,0,0-.14,0l-7,3.31a8.91,8.91,0,0,1,1.7,2.54Z"/><path id="Path-12" data-name="Path" d="M64.05,24l7.52-4.13a.18.18,0,0,0,.09-.12.17.17,0,0,0,0-.14l-.85-1.38c-.3-.5-.62-1-.94-1.47a.2.2,0,0,0-.12-.08.17.17,0,0,0-.14,0l-8.72,6A8.72,8.72,0,0,1,64.05,24Z"/><path id="Path-13" data-name="Path" d="M41.63,34.6,64.3,10.51a.16.16,0,0,0,0-.14.16.16,0,0,0-.06-.13L63.06,9.19q-.66-.57-1.35-1.11a.17.17,0,0,0-.14,0,.15.15,0,0,0-.12.07L41.26,34.28C41.39,34.38,41.51,34.49,41.63,34.6Z"/><path id="Path-14" data-name="Path" d="M42.15,35.19l8.55-6.61a8.92,8.92,0,0,1,7.79-6L68.34,15a.19.19,0,0,0,.07-.13.15.15,0,0,0,0-.13l-1-1.24c-.37-.44-.76-.88-1.16-1.3a.16.16,0,0,0-.13-.06.21.21,0,0,0-.13.05l-24,22.67C42,34.93,42.05,35.06,42.15,35.19Z"/><path id="Path-15" data-name="Path" d="M36.58,42.81a4.07,4.07,0,0,1-.44-.18l-3.75,8A9.34,9.34,0,0,1,33.3,52Z"/><path id="Path-16" data-name="Path" d="M42.7,36.11a4.68,4.68,0,0,1,.19.45l7.66-2.74a8,8,0,0,1-.26-1.29Z"/><path id="Path-17" data-name="Path" d="M50.8,34.59,43,36.85c0,.15.07.31.1.47l8.27-1.53A9.25,9.25,0,0,1,50.8,34.59Z"/><path id="Path-18" data-name="Path" d="M35.47,42.25,30.83,49a9.05,9.05,0,0,1,1,.89l4.07-7.42Z"/><path id="Path-19" data-name="Path" d="M24.65,36.51a8.58,8.58,0,0,1-1.1,1.31l9.75.27a3.64,3.64,0,0,1,0-.48Z"/><path id="Path-20" data-name="Path" d="M33.57,36.56a4.22,4.22,0,0,1,.18-.45l-7.59-3.57a8.16,8.16,0,0,1-.25,1.29Z"/><path id="Path-21" data-name="Path" d="M65.72,37.45l10.54-.3a.2.2,0,0,0,.14-.06.18.18,0,0,0,0-.14l-.12-1.62c0-.58-.1-1.16-.17-1.73a.19.19,0,0,0-.07-.12.18.18,0,0,0-.14,0l-8.43,1.07A9.08,9.08,0,0,1,65.72,37.45Z"/><path id="Path-22" data-name="Path" d="M51.8,36.5l-8.68,1.1a3.87,3.87,0,0,1,0,.48l9.75-.27A8.58,8.58,0,0,1,51.8,36.5Z"/><path id="Path-23" data-name="Path" d="M41,42.25a4.06,4.06,0,0,1-.41.25l4,7.35a9.06,9.06,0,0,1,1-.88Z"/><path id="Path-24" data-name="Path" d="M36.84,33.44a3.59,3.59,0,0,1,.47-.12l-1.56-8.43a8.78,8.78,0,0,1-1.56-.63Z"/><path id="Path-25" data-name="Path" d="M42,8.25,43,.46a.18.18,0,0,0,0-.14.16.16,0,0,0-.13-.06L41.2.13C40.61.08,40,.05,39.46,0a.24.24,0,0,0-.14.05.31.31,0,0,0-.06.13l-.19,7.25A8.86,8.86,0,0,1,42,8.25Z"/><path id="Path-26" data-name="Path" d="M26.23,31.45v.19l7.65,4.2c.08-.14.16-.28.25-.42l-8-5.49A8.59,8.59,0,0,1,26.23,31.45Z"/><path id="Path-27" data-name="Path" d="M37.6,33.28l.48,0-.22-8a9.24,9.24,0,0,1-1.3-.16Z"/><path id="Path-28" data-name="Path" d="M40.68,24.91l-1.55,8.41.47.11,2.63-9.12A9.38,9.38,0,0,1,40.68,24.91Z"/><path id="Path-29" data-name="Path" d="M50.36,29.91l-8,5.51c.09.13.17.27.25.41l7.66-4.21c0-.06,0-.11,0-.17a9.8,9.8,0,0,1,.14-1.54Z"/><path id="Path-30" data-name="Path" d="M38.36,33.24l.48,0,1-8.19a9.59,9.59,0,0,1-1.3.15Z"/><path id="Path-31" data-name="Path" d="M36.87,42.91l-3,10.47a8.92,8.92,0,0,1-2.72,9.47L27.68,74.79a.22.22,0,0,0,0,.14.18.18,0,0,0,.12.09l1.58.38c.56.13,1.13.25,1.7.36a.17.17,0,0,0,.14,0,.2.2,0,0,0,.08-.12l6-32.6Z"/><path id="Path-32" data-name="Path" d="M50.8,64.9a9,9,0,0,1-3.33-.75L51,74.06a.22.22,0,0,0,.1.11.19.19,0,0,0,.15,0l1.5-.61c.54-.22,1.07-.46,1.59-.7a.18.18,0,0,0,.1-.11.17.17,0,0,0,0-.14Z"/><path id="Path-33" data-name="Path" d="M45.33,62.81a8.9,8.9,0,0,1-2.75-9.52l-3-10.38a3.94,3.94,0,0,1-.47.1l6,32.63a.19.19,0,0,0,.23.15L47,75.42c.57-.14,1.13-.28,1.69-.44a.17.17,0,0,0,.11-.09.17.17,0,0,0,0-.14Z"/><path id="Path-34" data-name="Path" d="M37.61,43.06,33.46,76a.23.23,0,0,0,0,.14.24.24,0,0,0,.13.07l1.62.12c.58,0,1.16.08,1.74.1a.19.19,0,0,0,.13,0,.16.16,0,0,0,.06-.13l.91-33.14Z"/><path id="Path-35" data-name="Path" d="M38.36,43.09l.93,33.17a.25.25,0,0,0,.06.14.18.18,0,0,0,.14,0l1.62-.12c.58,0,1.16-.1,1.73-.17a.21.21,0,0,0,.13-.07.17.17,0,0,0,0-.14L38.83,43.06A3.59,3.59,0,0,1,38.36,43.09Z"/><path id="Path-36" data-name="Path" d="M17.49,60.25l-5.35,5.68a.19.19,0,0,0-.05.14.2.2,0,0,0,.06.13l1.23,1.06c.45.38.9.74,1.35,1.1a.23.23,0,0,0,.14,0,.27.27,0,0,0,.13-.07l4.37-5.67A8.81,8.81,0,0,1,17.49,60.25Z"/><path id="Path-37" data-name="Path" d="M25.61,65,22,72.65a.14.14,0,0,0,0,.14.18.18,0,0,0,.1.11l1.5.62q.81.33,1.62.63a.26.26,0,0,0,.15,0,.22.22,0,0,0,.09-.1L29,64.21A8.9,8.9,0,0,1,25.61,65Z"/><path id="Path-38" data-name="Path" d="M20.79,63.71l-4.05,5.92a.19.19,0,0,0,.05.27l1.38.85c.5.3,1,.6,1.5.88a.2.2,0,0,0,.15,0,.19.19,0,0,0,.11-.09l3.7-6.74A8.78,8.78,0,0,1,20.79,63.71Z"/><path id="Path-39" data-name="Path" d="M58.93,60.19a8.77,8.77,0,0,1-1.88,2.4l4.44,5.75a.21.21,0,0,0,.13.07.19.19,0,0,0,.14,0l1.23-1c.45-.37.88-.76,1.3-1.16a.16.16,0,0,0,.06-.13.17.17,0,0,0,0-.13Z"/><path id="Path-40" data-name="Path" d="M75.61,45.13l-32.55-6c0,.15-.07.31-.11.46l31.84,9.18a.2.2,0,0,0,.15,0,.17.17,0,0,0,.08-.12l.38-1.57q.19-.86.36-1.71a.19.19,0,0,0,0-.14.19.19,0,0,0-.12-.07Z"/><polygon id="Path-41" data-name="Path" points="37.08 0.03 37.08 0.03 37.06 0.03 37.06 0.03 37.08 0.03"/><path id="Path-42" data-name="Path" d="M76.23,39.26,64,38.93a8.91,8.91,0,0,1-10.08-.28l-10.74-.29c0,.16,0,.32,0,.48L76,43a.18.18,0,0,0,.14,0,.21.21,0,0,0,.07-.13l.13-1.61q.06-.89.09-1.74a.24.24,0,0,0,0-.14A.26.26,0,0,0,76.23,39.26Z"/><path id="Path-43" data-name="Path" d="M59.92,55a9,9,0,0,1-.27,3.43l6.28,5.91a.16.16,0,0,0,.14,0,.16.16,0,0,0,.13-.06l1.06-1.23c.38-.44.74-.89,1.1-1.35a.23.23,0,0,0,0-.14.19.19,0,0,0-.07-.12Z"/><path id="Path-44" data-name="Path" d="M16.44,56.06A7.55,7.55,0,0,1,16.51,55l-8.4,6.49a.17.17,0,0,0-.07.13.18.18,0,0,0,0,.14L9.13,63c.38.45.76.88,1.16,1.3a.16.16,0,0,0,.13.06.15.15,0,0,0,.13,0l6.22-5.86a8.66,8.66,0,0,1-.33-2.38Z"/><path id="Path-45" data-name="Path" d="M55.64,63.64a8.87,8.87,0,0,1-2.84,1.1l3.76,6.83a.17.17,0,0,0,.11.09.2.2,0,0,0,.15,0l1.38-.85c.5-.3,1-.62,1.46-.94a.2.2,0,0,0,.08-.12.17.17,0,0,0,0-.14Z"/><path id="Path-46" data-name="Path" d="M71.55,56.52l-29-15.94c-.08.14-.16.28-.25.41l8.91,6.1a8.91,8.91,0,0,1,8.15,5.57l10.3,7.05a.21.21,0,0,0,.15,0,.27.27,0,0,0,.12-.09l.85-1.38c.3-.49.6-1,.88-1.5a.17.17,0,0,0,0-.14.14.14,0,0,0-.09-.11Z"/><path id="Path-47" data-name="Path" d="M74,51,42.85,39.87a4.32,4.32,0,0,1-.19.45l30,14.13a.17.17,0,0,0,.14,0,.16.16,0,0,0,.11-.1l.62-1.49c.22-.54.43-1.09.63-1.63a.17.17,0,0,0,0-.14A.19.19,0,0,0,74,51Z"/><path id="Path-48" data-name="Path" d="M35.41,34.12c.14-.09.27-.18.42-.26l-15.94-29a.27.27,0,0,0-.12-.09.22.22,0,0,0-.14,0l-1.38.85c-.5.31-1,.62-1.47.94a.23.23,0,0,0-.08.12.17.17,0,0,0,0,.14Z"/><path id="Path-49" data-name="Path" d="M34.82,34.61c.11-.11.24-.22.36-.32L15,8.11A.16.16,0,0,0,14.82,8a.15.15,0,0,0-.13,0L13.45,9.13c-.44.38-.88.76-1.3,1.16a.16.16,0,0,0-.06.13.19.19,0,0,0,.05.13Z"/><path id="Path-50" data-name="Path" d="M17.92,22.56a8.9,8.9,0,0,1,7.85,6.06l8.53,6.57c.1-.13.2-.25.31-.37L10.51,12.14a.19.19,0,0,0-.14-.05.16.16,0,0,0-.13.06L9.19,13.38q-.57.67-1.11,1.35a.17.17,0,0,0,0,.14.17.17,0,0,0,.07.13Z"/><path id="Path-51" data-name="Path" d="M4.89,19.93,12.38,24a8.78,8.78,0,0,1,3.17-1.33l-8.74-6a.18.18,0,0,0-.26.05L5.7,18.17c-.31.5-.6,1-.88,1.5a.2.2,0,0,0,0,.15A.23.23,0,0,0,4.89,19.93Z"/><path id="Path-52" data-name="Path" d="M36.1,33.72l.45-.19L33,23.51a8.91,8.91,0,0,1-3.35-9.39L25.43,2.38a.18.18,0,0,0-.1-.11.17.17,0,0,0-.14,0l-1.5.61c-.54.23-1.08.46-1.6.7a.22.22,0,0,0-.1.11.22.22,0,0,0,0,.14Z"/><path id="Path-53" data-name="Path" d="M37.36,7.47,37.15.18A.19.19,0,0,0,37.06,0h0A.2.2,0,0,0,37,0L35.33.12c-.58.05-1.16.1-1.73.17a.19.19,0,0,0-.12.07.18.18,0,0,0,0,.14l1,7.79a8.77,8.77,0,0,1,2.93-.82Z"/><path id="Path-54" data-name="Path" d="M30.58,11.8a9.08,9.08,0,0,1,2.27-2.55L31.28.8A.2.2,0,0,0,31.2.68a.14.14,0,0,0-.14,0L29.48,1c-.57.13-1.13.27-1.69.43a.31.31,0,0,0-.11.09.17.17,0,0,0,0,.14Z"/><path id="Path-55" data-name="Path" d="M.21,37.18l10.55.29A8.74,8.74,0,0,1,9,34.53L.46,33.46a.23.23,0,0,0-.14,0,.16.16,0,0,0-.06.13L.13,35.25c0,.58-.08,1.16-.1,1.74a.21.21,0,0,0,.05.13A.18.18,0,0,0,.21,37.18Z"/><path id="Path-56" data-name="Path" d="M33.3,38.36l-10.75.3a8.9,8.9,0,0,1-10,.29L.18,39.29a.2.2,0,0,0-.13.06.19.19,0,0,0,0,.14l.12,1.62c.05.58.1,1.16.17,1.73A.21.21,0,0,0,.36,43,.17.17,0,0,0,.5,43l32.85-4.16A3.91,3.91,0,0,1,33.3,38.36Z"/><path id="Path-57" data-name="Path" d="M2.41,25.45l6.76,2.41a8.67,8.67,0,0,1,1.69-2.54L3.8,22a.2.2,0,0,0-.15,0,.17.17,0,0,0-.1.1l-.62,1.5q-.35.81-.63,1.62a.17.17,0,0,0,0,.14.18.18,0,0,0,.11.1Z"/><path id="Path-58" data-name="Path" d="M33.6,39.87,2.38,51a.22.22,0,0,0-.11.1.2.2,0,0,0,0,.15l.62,1.5q.33.81.69,1.59a.21.21,0,0,0,.11.1.17.17,0,0,0,.14,0l30-14.13C33.72,40.17,33.66,40,33.6,39.87Z"/><path id="Path-59" data-name="Path" d="M33.39,39.12.8,45.16a.2.2,0,0,0-.12.08.16.16,0,0,0,0,.15L1,47c.13.57.28,1.13.43,1.69a.2.2,0,0,0,.09.11.18.18,0,0,0,.14,0l31.82-9.2A3.45,3.45,0,0,1,33.39,39.12Z"/><path id="Path-60" data-name="Path" d="M25.18,47.16l9-6.17a3.54,3.54,0,0,1-.26-.41L5,56.46a.38.38,0,0,0-.18.23.37.37,0,0,0,0,.29l.74,1.22c.31.5.62,1,.94,1.46a.23.23,0,0,0,.12.08.17.17,0,0,0,.14,0l10.26-7A8.9,8.9,0,0,1,25.18,47.16Z"/><path id="Path-61" data-name="Path" d="M.83,31.32l7.68,1.41a8.93,8.93,0,0,1,.08-3l-6.94-2a.22.22,0,0,0-.14,0,.18.18,0,0,0-.09.12L1.05,29.4C.91,30,.79,30.53.68,31.1a.17.17,0,0,0,0,.14.2.2,0,0,0,.12.08Z"/></g><g id="Group-2" data-name="Group"><polygon id="Path-62" data-name="Path" points="94.36 6.66 105.61 6.66 105.61 8.99 97.19 8.99 97.19 14.99 104.3 14.99 104.3 17.32 97.19 17.32 97.19 25.6 94.36 25.6 94.36 6.66"/><path id="Shape" d="M109,6.53h2.7V9.6H109Zm0,5.6h2.7V25.6H109Z"/><path id="Path-63" data-name="Path" d="M118.84,6.66V20.83c0,2,.53,2.57,2.31,2.57h.59v2.2h-.69c-3.93,0-4.91-1-4.91-5V6.66Z"/><path id="Path-64" data-name="Path" d="M124,12.13H126l.22,1.32a3.68,3.68,0,0,1,3.39-1.59,4,4,0,0,1,3.8,2,3.94,3.94,0,0,1,3.84-2c2.28,0,3.72.85,4.33,2.6a11,11,0,0,1,.37,3.42V25.6h-2.71V18.15c0-2.84-.69-4-2.41-4s-2.52,1.27-2.52,4.43v7h-2.71V18.17c0-2.89-.66-4-2.41-4s-2.55,1.25-2.55,4.51V25.6H124Z"/><path id="Shape-2" data-name="Shape" d="M158.38,16.82c0-2-.77-2.78-2.63-2.78a3.74,3.74,0,0,0-3,1.35L150.92,14a6.09,6.09,0,0,1,5.1-2.15c2.25,0,3.79.72,4.53,2.12a6.7,6.7,0,0,1,.53,3.29V25.6h-2.15l-.18-.87c-.85.85-1.83,1.14-3.8,1.14-3.39,0-4.64-1.09-4.64-4.11s1.27-4.17,5.1-4.17h3ZM155.7,19.5c-2,0-2.82.61-2.82,2.2s.69,2.05,2.74,2.05c1.27,0,2-.24,2.44-.8a2.72,2.72,0,0,0,.32-1.7V19.5Z"/><path id="Path-65" data-name="Path" d="M163.44,14.3V12.13H165L165.14,8h2.58v4.12h2.65V14.3h-2.65v6.53c0,2,.53,2.6,2.28,2.54h.42V25.6h-.48c-4,0-4.93-.93-4.93-5V14.3Z"/><polygon id="Path-66" data-name="Path" points="94.33 28.68 97.17 28.68 97.17 45.29 105.76 45.29 105.76 47.63 94.33 47.63 94.33 28.68"/><path id="Shape-3" data-name="Shape" d="M109,28.55h2.71v3.08H109Zm0,5.6h2.71V47.63H109Z"/><path id="Path-67" data-name="Path" d="M116.14,34.15h2.07l.21,1.35a4.07,4.07,0,0,1,3.69-1.62c2.36,0,3.87.88,4.51,2.6a11,11,0,0,1,.4,3.43v7.72h-2.71V40.2c0-2.87-.74-4-2.65-4s-2.82,1.25-2.82,4.54v6.9h-2.7Z"/><path id="Path-68" data-name="Path" d="M140.79,45.56a5.38,5.38,0,0,1-4.89,2.33c-3.71,0-5.51-2.09-5.51-6.39v-1c0-4.51,1.72-6.64,5.43-6.64,2.26,0,3.77.77,4.7,2.39l-2,1.14A2.67,2.67,0,0,0,136,36.06c-2,0-2.92,1.33-2.92,4.24v1.46c0,2.6,1,4,3,4a3.05,3.05,0,0,0,2.71-1.33Z"/><path id="Shape-4" data-name="Shape" d="M142.72,39.85c0-4.14,1.75-6,5.71-6s5.67,1.83,5.67,6v2.07c0,4.14-1.75,6-5.67,6s-5.71-1.83-5.71-6Zm8.68.19c0-2.76-.9-4-3-4s-3,1.22-3,4v1.7c0,2.76.9,4,3,4s3-1.22,3-4Z"/><path id="Path-69" data-name="Path" d="M160.37,28.68V42.85c0,2,.53,2.57,2.3,2.57h.59v2.21h-.69c-3.93,0-4.91-1-4.91-5V28.68Z"/><path id="Path-70" data-name="Path" d="M165.67,34.15h2.07L168,35.5a4.07,4.07,0,0,1,3.69-1.62c2.36,0,3.88.88,4.51,2.6a10.75,10.75,0,0,1,.4,3.43v7.72h-2.71V40.2c0-2.87-.74-4-2.65-4s-2.81,1.25-2.81,4.54v6.9h-2.71Z"/><path id="Path-71" data-name="Path" d="M106.8,65c-.19,3.27-2.42,5-6.4,5-2.52,0-4.21-.77-5.35-2.37-.85-1.22-1.17-2.7-1.17-5.38v-4c0-2.9.4-4.46,1.46-5.71s2.73-2,5.06-2c3.88,0,6,1.75,6.19,5l-2.63.21a3.11,3.11,0,0,0-3.48-3c-2.73,0-3.76,1.54-3.76,5.6V62c0,4.09,1,5.6,3.76,5.6,2.15,0,3.4-1,3.67-3Z"/><path id="Shape-5" data-name="Shape" d="M112,64c0,2.44,1.16,3.74,3.34,3.74a3.27,3.27,0,0,0,2.92-1.36l2,1.2c-1.11,1.64-2.62,2.31-5.2,2.31-4,0-5.78-2-5.78-6.4v-1c0-4.62,1.67-6.58,5.62-6.58s5.63,2,5.63,6.58v1.06H112Zm6-2.42v-.26c0-2.18-1-3.35-3-3.35a2.53,2.53,0,0,0-2.46,1.2,4.44,4.44,0,0,0-.53,2.17v.24Z"/><path id="Path-72" data-name="Path" d="M123.89,56.17H126l.22,1.36a4,4,0,0,1,3.68-1.62c2.37,0,3.88.87,4.51,2.6a10.38,10.38,0,0,1,.4,3.42v7.72h-2.7V62.22c0-2.86-.75-4-2.66-4s-2.81,1.24-2.81,4.53v6.9h-2.7Z"/><path id="Path-73" data-name="Path" d="M137.92,58.35V56.17h1.57l.13-4.11h2.57v4.11h2.66v2.18h-2.66v6.52c0,2,.53,2.6,2.28,2.55h.43v2.23h-.48c-4,0-4.93-.93-4.93-5V58.35Z"/><path id="Shape-6" data-name="Shape" d="M150.31,64c0,2.44,1.17,3.74,3.34,3.74a3.25,3.25,0,0,0,2.92-1.36l2,1.2c-1.12,1.64-2.63,2.31-5.2,2.31-4,0-5.78-2-5.78-6.4v-1c0-4.62,1.67-6.58,5.62-6.58s5.62,2,5.62,6.58v1.06h-8.54Zm6-2.42v-.26c0-2.18-1-3.35-3-3.35a2.55,2.55,0,0,0-2.47,1.2,4.55,4.55,0,0,0-.53,2.17v.24Z"/><path id="Path-74" data-name="Path" d="M162.2,56.17h2.09l.3,1.14a3.4,3.4,0,0,1,3-1.4,5.08,5.08,0,0,1,2.73.77l-1.16,2.25a3,3,0,0,0-1.84-.69c-1.72,0-2.44,1.43-2.44,4.86v6.55h-2.7Z"/></g></g></g></svg>