<svg id="Layer_1" data-name="Layer 1" xmlns="http://www.w3.org/2000/svg" xmlns:xlink="http://www.w3.org/1999/xlink" viewBox="0 0 224.26 58.89"><defs><style>.cls-1{fill:#fff;}.cls-1,.cls-2{fill-rule:evenodd;}.cls-3{mask:url(#mask);}.cls-4{mask:url(#mask-2-2);}</style><mask id="mask" x="198.65" y="1.59" width="25.61" height="25.4" maskUnits="userSpaceOnUse"><g id="mask-2"><polygon id="path-1" class="cls-1" points="198.65 1.59 224.26 1.59 224.26 26.99 198.65 26.99 198.65 1.59"/></g></mask><mask id="mask-2-2" x="198.65" y="31.81" width="25.61" height="25.4" maskUnits="userSpaceOnUse"><g id="mask-4"><polygon id="path-3" class="cls-1" points="198.65 31.81 224.26 31.81 224.26 57.21 198.65 57.21 198.65 31.81"/></g></mask></defs><g id="project-logo-ts"><g id="TS"><polygon id="Fill-1" class="cls-2" points="0 1.13 0 20.23 18.01 20.23 18.01 57.76 38.09 57.76 38.09 20.23 56.11 20.23 56.11 1.13 0 1.13"/><g id="Group-16"><path id="Fill-2" class="cls-2" d="M84.47,29.44a9.52,9.52,0,1,1-19,0,9.52,9.52,0,1,1,19,0M75,0C58.34,0,44.82,13.21,44.82,29.44S58.34,58.89,75,58.89s30.13-13.21,30.13-29.45S91.56,0,75,0"/><polygon id="Fill-4" class="cls-2" points="148.09 1.14 136.91 23.88 125.66 1.14 102.48 1.14 102.48 57.76 122.18 57.76 122.18 38.96 130.02 57.76 142.98 57.76 150.9 38.75 150.9 57.76 170.6 57.76 170.6 1.14 148.09 1.14"/><path id="Fill-6" class="cls-2" d="M195.38,9.85c0,3-1.47,5.31-5.14,8.32-2.38,2-4.73,3.75-4.73,3.75h10.08v4.61H178.27V22.41l9.17-7.87c1.92-1.68,2.73-2.94,2.73-4.34a3.2,3.2,0,0,0-3.29-3.29c-2.1,0-3.43,1.68-3.47,4.09h-5.07c0-5.42,3.36-8.92,8.54-8.92,4.89,0,8.5,3.22,8.5,7.77"/><g id="Group-10"><g class="cls-3"><path id="Fill-8" class="cls-2" d="M211.45,6.7A7.43,7.43,0,0,0,204,14.29a7.42,7.42,0,1,0,14.83,0,7.44,7.44,0,0,0-7.42-7.59m0,20.29a12.7,12.7,0,1,1,12.81-12.7A12.7,12.7,0,0,1,211.45,27"/></g></g><path id="Fill-11" class="cls-2" d="M195.38,40.07c0,3-1.47,5.31-5.14,8.32-2.38,2-4.73,3.75-4.73,3.75h10.08v4.61H178.27V52.63l9.17-7.87c1.92-1.68,2.73-2.94,2.73-4.34a3.2,3.2,0,0,0-3.29-3.29c-2.1,0-3.43,1.68-3.47,4.09h-5.07c0-5.42,3.36-8.92,8.54-8.92,4.89,0,8.5,3.22,8.5,7.77"/><g id="Group-15"><g class="cls-4"><path id="Fill-13" class="cls-2" d="M211.45,36.92a7.59,7.59,0,1,0,7.42,7.59,7.43,7.43,0,0,0-7.42-7.59m0,20.29a12.7,12.7,0,1,1,12.81-12.7,12.7,12.7,0,0,1-12.81,12.7"/></g></g></g></g></g></svg>