<svg id="Layer_1" data-name="Layer 1" xmlns="http://www.w3.org/2000/svg" xmlns:xlink="http://www.w3.org/1999/xlink" viewBox="0 0 378.07 30.49"><defs><style>.cls-1{fill:#fff;}.cls-1,.cls-2{fill-rule:evenodd;}.cls-3{mask:url(#mask);}.cls-4{mask:url(#mask-2-2);}</style><mask id="mask" x="291.31" y="0.17" width="54.38" height="30.29" maskUnits="userSpaceOnUse"><g id="mask-2"><polygon id="path-1" class="cls-1" points="291.31 30.46 345.69 30.46 345.69 0.17 291.31 0.17 291.31 30.46"/></g></mask><mask id="mask-2-2" x="291.31" y="0.17" width="54.38" height="30.32" maskUnits="userSpaceOnUse"><g id="mask-2-3" data-name="mask-2"><polygon id="path-1-2" data-name="path-1" class="cls-1" points="291.31 30.46 345.69 30.46 345.69 0.17 291.31 0.17 291.31 30.46"/></g></mask></defs><g id="Page-1"><g id="fc-logo"><polyline id="Fill-1" class="cls-2" points="0 0.61 18.36 0.61 18.36 4.72 4.63 4.72 4.63 13.99 17.15 13.99 17.15 18.1 4.63 18.1 4.63 30.06 0 30.06 0 0.61"/><polygon id="Fill-2" class="cls-2" points="29.45 30.06 34.09 30.06 34.09 0.61 29.45 0.61 29.45 30.06"/><polyline id="Fill-3" class="cls-2" points="46.28 0.61 50.91 0.61 50.91 25.94 63.9 25.94 63.9 30.06 46.28 30.06 46.28 0.61"/><polyline id="Fill-4" class="cls-2" points="74.63 0 74.84 0 89.22 16.59 103.43 0 103.64 0 103.64 30.06 99.27 30.06 99.27 10.96 89.22 22.95 89.01 22.95 79 10.96 79 30.06 74.63 30.06 74.63 0"/><path id="Fill-5" class="cls-2" d="M128.82,15.33a14.78,14.78,0,0,1,15-15.11c5.45,0,9.22,2.12,11.78,5.71l-3.55,2.52a9.48,9.48,0,0,0-8.36-4c-5.85,0-10.1,4.68-10.1,10.91S138,26.25,143.89,26.25A10.45,10.45,0,0,0,152.73,22l3.59,2.47c-3,4-6.89,6-12.6,6a14.68,14.68,0,0,1-14.9-15.12"/><path id="Fill-6" class="cls-2" d="M190.85,15.33c0-6.23-4.29-10.91-10.4-10.91S170.06,9.1,170.06,15.33s4.28,10.92,10.39,10.92,10.4-4.68,10.4-10.92Zm-25.6,0a15.2,15.2,0,0,1,30.4,0,15.2,15.2,0,0,1-30.4,0Z"/><polyline id="Fill-7" class="cls-2" points="207.69 0 207.9 0 222.28 16.59 236.49 0 236.71 0 236.71 30.06 232.33 30.06 232.33 10.96 222.28 22.95 222.07 22.95 212.06 10.96 212.06 30.06 207.69 30.06 207.69 0"/><polyline id="Fill-8" class="cls-2" points="249.34 0 249.55 0 263.93 16.59 278.14 0 278.35 0 278.35 30.06 273.98 30.06 273.98 10.96 263.93 22.95 263.71 22.95 253.71 10.96 253.71 30.06 249.34 30.06 249.34 0"/><g id="Group-12"><g class="cls-3"><polyline id="Fill-9" class="cls-2" points="291.31 0.61 310.07 0.61 310.07 4.72 295.95 4.72 295.95 13.17 308.46 13.17 308.46 17.2 295.95 17.2 295.95 25.94 310.67 25.94 310.67 30.06 291.31 30.06 291.31 0.61"/></g><g class="cls-4"><polyline id="Fill-11" class="cls-2" points="326.46 10.7 326.46 30.06 322.13 30.06 322.13 0.17 322.48 0.17 341.36 19.97 341.36 0.61 345.69 0.61 345.69 30.49 345.35 30.49 326.46 10.7"/></g></g><polyline id="Fill-13" class="cls-2" points="364.69 4.72 355.94 4.72 355.94 0.61 378.07 0.61 378.07 4.72 369.32 4.72 369.32 30.06 364.69 30.06 364.69 4.72"/></g></g></svg>