<svg id="Layer_1" data-name="Layer 1" xmlns="http://www.w3.org/2000/svg" viewBox="0 0 327.89 62.23"><path d="M18.11,14.6c-7,0-10.56-1.24-10.56-3.66A3.67,3.67,0,0,1,8.66,8.25C9.73,7.2,12.09,6,17.31,6,25.08,6.09,27.89,9.53,28,9.68l4.83-3.57c-.44-.62-4.65-6-15.45-6.11C11.52-.06,7.17,1.28,4.44,4a9.68,9.68,0,0,0-2.9,7C1.54,20.6,14,20.6,18.11,20.6c4.36,0,9.54.85,9.54,4.93a3.63,3.63,0,0,1-1.15,2.76c-1.57,1.53-4.7,2.3-8.81,2.18C8.86,30.2,4.63,25.75,4.46,25.56L0,29.58c.24.27,6,6.54,17.51,6.89,5.91.18,10.35-1.13,13.17-3.87a9.62,9.62,0,0,0,3-7.07C33.66,22.24,32.14,14.6,18.11,14.6Z"/><path d="M74.84,2.33h-6l0,8.19c0,7.5.75,14.59-2.34,17.85-1.5,1.58-3.95,2.35-7.47,2.35-2.84,0-4.86-.66-6.18-2-3.17-3.29-2.78-8-2.7-15.63l0-10.76h-6v8.46c0,8.49-.61,17,4.33,22.09,2.48,2.57,6,3.88,10.51,3.88,5.26,0,9.13-1.39,11.83-4.23,4.86-5.12,4-13.46,4-22.29Z"/><path d="M111.63,25.65C105,17.34,91.89,2.33,91.89,2.33H86.54V35.46h6V11.33c6.62,8.31,19.74,24.13,19.74,24.13h5.35v-33h-6Z"/><path d="M239.13,25.65c-6.63-8.31-19.74-23.32-19.74-23.32H214V35.46h6V11.33c6.62,8.31,19.74,24.13,19.74,24.13h5.35v-33h-6Z"/><path d="M151.51,2.15c-3.55-.27-23-.1-23-.1V35.19s22.05.31,23.35-.23c.79-.33,12.35-5.26,12.35-17.11C164.23,8.13,155.05,2.43,151.51,2.15Zm-1.44,27c-.76.23-11.44,0-15.54,0V8.05c4.15,0,14.49-.22,15.74.25s7.95,2.74,7.95,9.55S150.83,29,150.07,29.19Z"/><path d="M272.85,29.7c-5.47,0-14.15-3.36-14.15-12.36,0-6.78,7.06-10.82,13.9-10.82a16,16,0,0,1,11.52,5.07l4.6-3.85A22.06,22.06,0,0,0,272.6.51c-9.79,0-19.9,6.3-19.9,16.83,0,11.93,10.38,18.36,20.15,18.36,8.9,0,16.3-5.92,16.61-6.17l-3.77-4.67C285.63,24.91,279.58,29.7,272.85,29.7Z"/><path d="M304.78,28.93V20.34h12.36v-6H304.78V7.54H327.7v-6H298.78V34.9h3.51v0h25.6v-6Z"/><path d="M188.76,2.33h-4.37L165.75,35.46h6.79s2.14-3.77,4.78-8.46H196l4.87,8.48,6.87,0Zm-8,18.67c2.41-4.28,4.72-8.36,5.87-10.4l6,10.4Z"/><path d="M179.05,51.53c-3.42,0-5.16-.6-5.16-1.79a1.79,1.79,0,0,1,.54-1.31c.52-.51,1.68-1.13,4.23-1.1,3.8,0,5.17,1.72,5.23,1.8l2.36-1.75c-.22-.3-2.27-2.93-7.56-3-2.86,0-5,.62-6.32,2A4.75,4.75,0,0,0,171,49.74c0,4.73,6.1,4.73,8.1,4.73s4.67.41,4.67,2.41a1.79,1.79,0,0,1-.56,1.34c-.78.75-2.31,1.13-4.31,1.07a9.36,9.36,0,0,1-6.47-2.4l-2.18,2c.11.13,2.92,3.19,8.56,3.36,2.89.09,5.05-.55,6.44-1.89a4.69,4.69,0,0,0,1.45-3.45C186.65,55.27,185.91,51.53,179.05,51.53Z"/><path d="M138.27,61.47V54.35h6V51.41h-6V48.09h11.2V45.16H135.34V61.47Z"/><path d="M66.19,61.5V54.38h6V51.45h-6V48.13h11.2V45.2H63.26V61.5Z"/><path d="M255.2,58.54V45.15h-2.93V61.46l2.93,0h9.48V58.54Z"/><path d="M93.05,58.33V44.94H90.12V61.25l2.93,0H102V58.33Z"/><polygon points="209.24 45.15 206.31 45.15 206.31 61.46 209.24 61.48 209.24 45.15"/><polygon points="83.94 45.15 81.01 45.15 81.01 61.46 83.94 61.48 83.94 45.15"/><polygon points="202.92 45.15 197.4 45.15 194.46 45.15 188.94 45.15 188.94 48.09 194.46 48.09 194.46 61.46 197.4 61.48 197.4 48.09 202.9 48.09 202.92 45.15"/><path d="M155,58.54v-4.2h6V51.41h-6V48.09h11.2V45.15H152.06V61.46h1.71v0h12.52V58.54Z"/><path d="M226.78,49.35m-11.51-4.14h-3.36l9.27,16.19h2.14l9.11-16.19h-3.32l-6.86,12.15"/><path d="M241.11,45.21H239L229.87,61.4h3.32l2.33-4.13h9.13L247,61.41h3.36Zm-3.92,9.13c1.17-2.09,2.3-4.09,2.86-5.08L243,54.34Z"/><path d="M119.53,45h-.13v.24c-1.9,3.37-4.6,8.14-5,8.77l-5.1-8.89V45h-3V61.27h3V51l4,7.07h2.14l3.88-6.91V61.27h3V45Z"/></svg>