<svg viewBox="0 0 216.68 112.98" xmlns="http://www.w3.org/2000/svg"><path d="m6.13 0 12.73 27.81h.14v-27.81h7.33v48.82h-5.65l-13.2-28.88h-.14v28.88h-7.34v-48.82z"/><path d="m56.76 0v7.74h-13.54v12.39h10.44v6.87h-10.44v14.21h14.21v7.61h-22.55v-48.82z"/><path d="m87.13 0v7.74h-13.53v12.39h10.4v6.87h-10.4v14.21h14.13v7.61h-22.49v-48.82z"/><path d="m108.94 0c8.69 0 13.68 5.73 13.68 15.36v18.1c0 9.57-5.06 15.36-13.68 15.36h-13.4v-48.82zm0 7.6h-5v33.81h5c3.64 0 5.32-2 5.32-8.21v-17.45c0-6.18-1.68-8.15-5.32-8.15z"/><path d="m153.79 18.79h-6.79v22.15c0 3.16 1.37 4.51 3.64 4.51a5.78 5.78 0 0 0 2.73-.68l.62 3.1a8.34 8.34 0 0 1 -4.99 1.48c-4.65 0-6.83-3-6.83-8.48v-21.87l-3.71-.82v-3.3l3.91-.26 1.2-9.44h3.43v9.57h6.83z"/><path d="m177.29 38.52c0 6.39-3.64 10.83-10.44 10.83s-10.31-4.35-10.31-10.83v-13.33c0-6.4 3.57-10.94 10.31-10.94s10.44 4.51 10.44 10.94zm-15.93-.14c0 4.52 1.82 7 5.47 7s5.64-2.48 5.64-7v-13.07c0-4.5-1.81-7.07-5.64-7.07s-5.47 2.57-5.47 7.07z"/><path d="m9 63.49v48.82h-8.4v-48.82z"/><path d="m54 63.49v48.82h-7.51v-28.72h-.13l-8.45 21h-3.72l-8.35-21h-.13v28.71h-7.59v-48.81h7.74l10.14 28.72h.14l10.12-28.72z"/><path d="m88.08 79.11c0 9.9-4.26 15.49-11.79 15.49h-5.39v17.71h-8.35v-48.82h13.33c7.82 0 12.2 5.51 12.2 15.62zm-17.18 8.61h4.72c2.88 0 4.1-2.28 4.1-8.55s-1.22-8.17-4.1-8.17h-4.72z"/><path d="m116.75 63.49v7.74h-13.52v12.39h10.43v6.84h-10.43v14.23h14.14v7.62h-22.5v-48.82z"/><path d="m131.9 112.31h-8.34l10.94-48.82h9.76l10.94 48.82h-8.61l-2-10.94h-10.66zm3.24-17.57h8.21l-4.1-22.74h-.14z"/><path d="m184 74.13-6.25 2c-.76-4-2.3-5.79-4.93-5.79-3.36 0-4.91 2.48-4.91 7.48v21.02c0 4.31 1.48 6.93 4.84 6.93 2.74 0 4.11-1.61 4.93-6.26l6.45 1.95c-1.13 8.08-5.23 11.54-12.03 11.54-7.8 0-12.59-5.47-12.59-14.07v-21.16c0-9.37 4.92-14.95 12.73-14.95 6.26 0 10.76 4.57 11.76 11.31z"/><path d="m198.77 63.49v19.79h9.57v-19.79h8.34v48.82h-8.34v-21.31h-9.57v21.28h-8.36v-48.79z"/></svg>