<svg id="Layer_1" data-name="Layer 1" xmlns="http://www.w3.org/2000/svg" viewBox="0 0 239.02 84.79"><path id="path2" d="M94.73,63.55c-5.22,0-7.08-2.53-7.08-7.42V28.82c0-5.05,1.86-7.41,7.08-7.41h2.53c5.22,0,7.08,2.53,7.08,7.41v5.73h20.9V50.23h-20.9V56c0,5.06-1.86,7.42-7.08,7.42H94.73ZM28.32,50.91,33.88,20.4h1.18l5.73,30.51ZM0,83.44H22.08l2.7-14.33H44.16l2.7,14.33H69.78L67.26,71c4,9.11,12.81,13.83,26.29,13.83h2.53c17.87,0,27.47-8.26,29-22.59V83.44h53.44V70c4.55,10.12,13.65,14.84,27.47,14.84h3.2C228.9,84.79,239,74.67,239,55.46V1.52H215.76v55c0,4.72-1.69,7.08-6.75,7.08h-2.86c-5.23,0-6.74-2.53-6.74-7.08V1.35H176.15V61H148.5V1.35H125.07V21.74C123.55,8.09,114.79,0,97.26,0H93.55C73.49,0,64.39,10.11,64.39,28.82V57.48L52.76,1.35H17Z"/></svg>