<svg id="Layer_1" data-name="Layer 1" xmlns="http://www.w3.org/2000/svg" viewBox="0 0 208.74 40.96"><path d="M11.32,16.37H2.89V2.65h8.53C17,2.65,19.88,5,19.88,9.51s-3,6.86-8.56,6.86ZM11.37,0H1.63A1.62,1.62,0,0,0,0,1.68V29.84a1.19,1.19,0,0,0,1.26,1.35h.33a1.27,1.27,0,0,0,1.3-1.35V19h8.24c7.57,0,11.73-3.39,11.73-9.55,0-6-4.19-9.42-11.49-9.42Z"/><path d="M36.79,29c-4.82,0-8.32-4-8.32-9.45s3.44-9.31,8.37-9.31a8.42,8.42,0,0,1,8.27,5.82v5.19c0,4.27-3.73,7.75-8.32,7.75ZM46.84,8.07c-1.14,0-1.73.85-1.73,2.53v1.22A9.9,9.9,0,0,0,36.7,7.74c-6.39,0-11,5-11,11.86s4.57,11.92,10.88,11.92a9.94,9.94,0,0,0,8.55-4.29v2.61c0,1.12.69,1.35,1.26,1.35h.24a1.2,1.2,0,0,0,1.3-1.35V8.57c0-.38-.83-.5-1.07-.5Z"/><path d="M66.05,27.11h-.19l-.08.12a4,4,0,0,1-3.41,1.82c-2.46,0-3.46-1.44-3.46-5V10.77H65.1c.93,0,1.4-.39,1.4-1.16V9.37c0-.77-.47-1.16-1.4-1.16H58.91V4.13c0-1.15-.66-1.39-1.21-1.39h-.29c-.46,0-1.25.18-1.25,1.39V8.21H53.69c-.91,0-1.35.38-1.35,1.16v.24c0,.79.43,1.16,1.35,1.16h2.47V24.32c0,4.85,2,7.2,6.11,7.2a5.3,5.3,0,0,0,3.91-1.39A2.21,2.21,0,0,0,67,28.52a1.3,1.3,0,0,0-1-1.41Z"/><path d="M80.32,7.74a6.06,6.06,0,0,0-5.92,4V10.6c0-1.71-.56-2.53-1.72-2.53-.37,0-1,.16-1,.5V29.84A1.2,1.2,0,0,0,73,31.19h.23a1.19,1.19,0,0,0,1.26-1.35V20.17c0-3.63.73-9.73,5.63-9.73a3.76,3.76,0,0,1,2.51.82l.14.08h.06a.91.91,0,0,0,.59-.4,1.81,1.81,0,0,0,.32-1c0-1.25-1.42-2.15-3.38-2.15Z"/><path d="M97.22,29c-5.06,0-8.88-4-8.88-9.41s3.82-9.35,8.88-9.35,8.84,4.06,8.84,9.45S102.26,29,97.22,29Zm0-21.27c-6.77,0-11.68,5-11.68,11.86s4.91,11.92,11.68,11.92,11.64-5,11.64-11.82-4.9-12-11.64-12Z"/><path d="M123.88,7.74a9.19,9.19,0,0,0-7.76,4V10.6c0-1.71-.56-2.53-1.73-2.53-.36,0-1,.16-1,.5V29.84c0,.88.44,1.35,1.26,1.35h.28c.82,0,1.26-.47,1.26-1.35V15.37a8,8,0,0,1,7.61-5c4.15,0,6.53,2.81,6.53,7.71V29.84c0,.88.43,1.35,1.25,1.35h.29c.82,0,1.25-.47,1.25-1.35V18c0-6.39-3.45-10.21-9.22-10.21Z"/><path d="M148.5,29c-4.82,0-8.32-4-8.32-9.45s3.44-9.31,8.37-9.31a8.42,8.42,0,0,1,8.27,5.82v5.19c0,4.27-3.73,7.75-8.32,7.75ZM158.55,8.07c-1.15,0-1.73.85-1.73,2.53v1.22a9.92,9.92,0,0,0-8.42-4.08c-6.38,0-11,5-11,11.86S142,31.52,148.26,31.52a10,10,0,0,0,8.56-4.29v2.61c0,1.12.68,1.35,1.25,1.35h.24a1.2,1.2,0,0,0,1.3-1.35V8.57c0-.38-.83-.5-1.06-.5Z"/><path d="M173.63,38.59c-5.12,0-7.94-1.4-7.94-3.94,0-3,4.17-4.66,8.06-5,.53.14,1.08.26,1.62.38s1,.22,1.55.36c3.62.85,5.31,2.07,5.31,3.85,0,2.74-3.13,4.31-8.6,4.31Zm.05-28.44c3.7,0,6.29,2.44,6.29,5.92s-2.59,5.86-6.29,5.86-6.25-2.41-6.25-5.86,2.57-5.92,6.25-5.92Zm4,17.83c-.6-.15-1.17-.27-1.7-.39-3-.68-4.42-1.06-4.42-2.23a1.3,1.3,0,0,1,.61-1.19h0a13.57,13.57,0,0,0,1.44.09c5.26,0,9.23-3.56,9.23-8.29a7.66,7.66,0,0,0-1.94-5L184.51,7v-.1a1.61,1.61,0,0,0-1.62-1.29,2,2,0,0,0-1.74,1.13l-1.92,2.62a9.63,9.63,0,0,0-5.51-1.64c-5.12,0-9.13,3.7-9.13,8.42a7.94,7.94,0,0,0,5.29,7.4,3,3,0,0,0-1,2.18A2.57,2.57,0,0,0,170.1,28c-4.37,1-7.16,3.56-7.16,6.67,0,4.19,3.58,6.31,10.64,6.31,7.28,0,11.45-2.47,11.45-6.78,0-3-2.4-5.05-7.33-6.2Z"/><path d="M205.84,17.74H189.73c.81-4.5,4.19-7.49,8.51-7.49s7.31,3,7.6,7.49Zm-7.6-10c-6.5,0-11.4,5.14-11.4,12s4.81,11.82,11.68,11.82c4.83,0,7.4-2.19,8.07-2.86a4.47,4.47,0,0,0,1.49-2.59,1.65,1.65,0,0,0-1.51-1.6.38.38,0,0,0-.22.06l-.06,0,0,.06c-1.49,2.91-4,4.33-7.74,4.33-5.16,0-8.72-3.51-8.92-8.76h17.89c.61,0,1.25-.08,1.25-1.07V18.9c0-6.68-4.22-11.16-10.5-11.16Z"/></svg>