<svg id="Layer_1" data-name="Layer 1" xmlns="http://www.w3.org/2000/svg" viewBox="0 0 201.61 20.47"><defs><style>.cls-1{fill:#fff;}</style></defs><path d="M30.33,1.7h3.22a6.21,6.21,0,0,1,3.88.83,4.55,4.55,0,0,1,1.64,3.74c0,3.27-1.84,4.57-5.52,4.57H31.82v7.42H30.33V1.7Zm2.5,7.82c2.93,0,4.63-.32,4.63-3.14a3.29,3.29,0,0,0-1.12-2.7C35.56,3.05,34.47,3,32.83,3h-1V9.49h1Z"/><path d="M58,18.26l-5.81-7.91h-.89v7.91h-1.5V1.7h3c3.59,0,5.38,1.49,5.38,4.51,0,2.59-1.64,4.14-4.32,4.14l6,7.91ZM51.26,9.14h1.49c2.56,0,3.77-.6,3.77-3S55.4,3,52.75,3H51.26Z"/><path d="M69.86,1.7h8.19V3.1h-6.7V8.28h6.7V9.69h-6.7v7.13h6.7v1.41H69.86Z"/><path d="M97.66,2.64A6.93,6.93,0,0,0,90.44,10c0,4.42,3,7.3,7,7.3a8.57,8.57,0,0,0,5.34-1.93l0,1.76a10.31,10.31,0,0,1-5.27,1.55A8.38,8.38,0,0,1,88.8,10a8.44,8.44,0,0,1,8.71-8.66A8.65,8.65,0,0,1,102.92,3l-.06,1.67A7.86,7.86,0,0,0,97.66,2.64Z"/><path d="M114,1.7h1.49V18.26H114Z"/><path d="M127.53,14.78a3.36,3.36,0,0,0,3.39,2.56c2.07,0,3.33-1.27,3.33-3.51,0-2-1.2-2.79-3.16-3.83C128.48,8.62,127,7.56,127,5.26a4,4,0,0,1,4.29-4,3.89,3.89,0,0,1,3.65,2.1l-1.15.69a2.68,2.68,0,0,0-2.59-1.46,2.48,2.48,0,0,0-2.67,2.67c0,2,1.49,2.47,3.65,3.65,2.44,1.32,3.53,2.39,3.53,4.89a4.49,4.49,0,0,1-4.83,4.83,4.68,4.68,0,0,1-4.6-3.22Z"/><path d="M146.9,1.7h1.5V18.26h-1.5Z"/><path d="M174.73,16.16a8.9,8.9,0,0,1-6.26,2.56,8.65,8.65,0,0,1-6.24-2.56A8.56,8.56,0,0,1,159.64,10a8.47,8.47,0,0,1,2.59-6.18,9.06,9.06,0,0,1,12.5,0,8.61,8.61,0,0,1,0,12.31Zm1-6.16a7.26,7.26,0,1,0-14.52,0,7.26,7.26,0,1,0,14.52,0Z"/><path d="M188.5,1l11.7,13.85V1.72h1.41v17L189.91,4.89V18.26H188.5Z"/><circle cx="10.23" cy="10.23" r="10.23"/><path class="cls-1" d="M12.07,5.12a.73.73,0,1,0-1,1l3.33,3.37H4.08a.75.75,0,1,0,0,1.49H14.35L11,14.35a.72.72,0,0,0,0,1,.74.74,0,0,0,.52.2.68.68,0,0,0,.51-.23l5.09-5.09Z"/></svg>