<svg id="Layer_1" data-name="Layer 1" xmlns="http://www.w3.org/2000/svg" viewBox="0 0 204.98 65.76"><defs><style>.cls-1{fill:#fff;}</style></defs><g id="g4881"><path id="path4008" d="M119.66,63.44V49.58h10.78V16.81l-10.12,2.64L116.8,6.25l17.6-5.06h11.87V49.36h8.8V63.44Z"/><path id="path4010" d="M10.56,23,0,13.51C11.51-3.46,30-.9,37.5,3.17s10.09,10.51,9.72,16S45.6,29,40.36,33.52,27.93,43.87,21.12,49.8H35V43H48.83V63.66H1V49.36L28.16,25.6c2-2.6,2.92-6.42.77-8.46s-3.87-2.55-7.37-1.76S13.75,19.22,10.56,23Z"/><path id="use4047" d="M166.71,23l-10.56-9.46c11.51-17,30-14.41,37.5-10.34s10.09,10.51,9.71,16-1.61,9.76-6.85,14.33S184.08,43.87,177.26,49.8h13.86V43H205V63.66H157.14V49.36L184.3,25.6c2-2.6,2.93-6.42.77-8.46s-3.86-2.55-7.37-1.76-7.8,3.84-11,7.59Z"/><path id="path4049" d="M116.68,32.88A32.88,32.88,0,1,1,83.8,0,32.88,32.88,0,0,1,116.68,32.88Z"/></g><path id="path4068" class="cls-1" d="M102.78,38l.27-1.11c-9.83-5.37-30.34-3.69-38.5-.06A16.72,16.72,0,0,0,65,38.72a18.58,18.58,0,0,0,.66,1.81C78,35.85,91.68,36.8,102.78,38ZM67.51,43.87a19.64,19.64,0,0,0,2.4,2.91c.44.44.91.86,1.39,1.27,7.14-4.73,17.26-6.47,29.79-5.8a20.4,20.4,0,0,0,1.17-2.61C85.21,38.37,78,38.82,67.51,43.87ZM76.16,51a19.75,19.75,0,0,0,15.29,0,19.84,19.84,0,0,0,6.25-4.21,20,20,0,0,0,2.4-2.91c-8.73.78-16.87,2.81-23.94,7.12Z"/><path id="path4051" class="cls-1" d="M103.36,34.89c.06-.66.1-1.33.1-2A19.65,19.65,0,0,0,97.7,19a19.84,19.84,0,0,0-6.25-4.21,19.75,19.75,0,0,0-15.29,0A19.84,19.84,0,0,0,69.91,19a19.65,19.65,0,0,0-5.76,13.9c0,.68,0,1.35.1,2a30.58,30.58,0,0,1,8.22-2.32,9.68,9.68,0,0,1,.89-4.1,11.26,11.26,0,0,1,2.43-3.61,11.55,11.55,0,0,1,3.6-2.43,11.4,11.4,0,0,1,8.83,0,11.55,11.55,0,0,1,3.6,2.43,11.26,11.26,0,0,1,2.43,3.61,9.68,9.68,0,0,1,.89,4.1c4.36.37,6,1.55,8.22,2.32Z"/></svg>