<svg id="Layer_1" data-name="Layer 1" xmlns="http://www.w3.org/2000/svg" width="216.06" height="49.02" viewBox="0 0 216.06 49.02"><defs><style>.cls-1{fill:#fff;}</style></defs><title>here-to-help</title><path class="cls-1" d="M14.58,59.52V39.08h-6V59.52H2.29V11.93H8.57V33h6V11.93h6.29V59.52H14.58Z" transform="translate(-2.29 -11.22)"/><path class="cls-1" d="M25.37,59.52V11.93H40.59v5.86h-9V32.15h6.29V37.8H31.58V53.59h9v5.93H25.37Z" transform="translate(-2.29 -11.22)"/><path class="cls-1" d="M58.88,59.74c-2.29,0-3.22-2.86-3.22-6.29V42.08c0-1.64-.86-2.93-2.5-2.93H50.37V59.52H44.09V11.93h9.65c4.07,0,7.86,2.22,7.86,8.43v10a6.19,6.19,0,0,1-3.64,6.07,6.38,6.38,0,0,1,3.79,6.07V53.09a9.25,9.25,0,0,0,1.07,4.86v1.79H58.88Zm-3.5-39.3c0-1.86-.64-2.72-2-2.72h-3v16h2.72c1.5,0,2.29-.93,2.29-2.93V20.43Z" transform="translate(-2.29 -11.22)"/><path class="cls-1" d="M65.88,59.52V11.93H81.1v5.86h-9V32.15h6.29V37.8H72.1V53.59h9v5.93H65.88Z" transform="translate(-2.29 -11.22)"/><path class="cls-1" d="M103,18V59.52H96.75V18H90.82V11.93h17.86V18H103Z" transform="translate(-2.29 -11.22)"/><path class="cls-1" d="M119.89,60.24c-5.36,0-9.22-4-9.22-9.72V20.93c0-5.65,3.86-9.72,9.22-9.72s9.22,4.07,9.22,9.72V50.52C129.11,56.23,125.25,60.24,119.89,60.24Zm2.93-39.87a2.81,2.81,0,0,0-2.93-3.07A2.76,2.76,0,0,0,117,20.36V51.09c0,1.86,1,3.07,2.86,3.07a2.78,2.78,0,0,0,2.93-3.07V20.36Z" transform="translate(-2.29 -11.22)"/><path class="cls-1" d="M153.62,59.52V39.08h-6V59.52h-6.29V11.93h6.29V33h6V11.93h6.29V59.52h-6.29Z" transform="translate(-2.29 -11.22)"/><path class="cls-1" d="M164.4,59.52V11.93h15.22v5.86h-9V32.15h6.29V37.8h-6.29V53.59h9v5.93H164.4Z" transform="translate(-2.29 -11.22)"/><path class="cls-1" d="M183.12,59.52V11.93h6.22V53.59H198v5.93H183.12Z" transform="translate(-2.29 -11.22)"/><path class="cls-1" d="M210.56,40.23h-3.43V59.52h-6.22V11.93h9.65c4.07,0,7.79,2.22,7.79,8.57V31.65C218.35,37.94,214.64,40.23,210.56,40.23Zm1.64-19.79c0-1.86-.64-2.72-2-2.72h-3.07V34.8h3.07c1.36,0,2-.93,2-2.72V20.43Z" transform="translate(-2.29 -11.22)"/></svg>