<svg id="Layer_1" data-name="Layer 1" xmlns="http://www.w3.org/2000/svg" width="264" height="61.46" viewBox="0 0 264 61.46"><defs><style>.cls-1{fill:#fff;}.cls-2{fill:#ffdc5b;}</style></defs><title>home-city-near-you-logo</title><path class="cls-1" d="M53.54,32.22l-1.18-4.15H46.59l-1.21,4.15H40.77L47,11.57h5.43l6.23,20.65H53.54Zm-4-15-2,7.47h4Z"/><path class="cls-1" d="M78.06,19V17.81c0-1.86-1.12-2.82-3-2.82a3.05,3.05,0,0,0-3.38,3.32v7.32a3.07,3.07,0,0,0,3.41,3.19c1.89,0,2.91-1,2.91-2.73V24.75h4.59v1.64c0,3.75-3,6.42-7.63,6.42-5.27,0-8.31-3.29-8.31-7.57V18.58C66.65,14.3,69.81,11,75,11c4.87,0,7.69,2.73,7.69,6.48V19H78.06Z"/><path class="cls-1" d="M85.53,32.22V11.57h5V32.22h-5Z"/><path class="cls-1" d="M103.42,15.63V32.22h-5V15.63H93V11.57h16v4.06h-5.52Z"/><path class="cls-1" d="M121.34,23.94v8.28h-5V23.94l-6.6-12.37h5.33l4,8.25,3.81-8.25H128Z"/><path class="cls-1" d="M12.43,60.22L6.26,51l-1.67-2.6V60.22H0V39.57H4.22l6,9.33,1.58,2.57V39.57H16.4V60.22h-4Z"/><path class="cls-1" d="M20,60.22V39.57H33.92v4H25v4.37h6.26v3.22H25v4.9h9v4.16H20Z"/><path class="cls-1" d="M47.9,60.22l-1.18-4.16H41l-1.21,4.16H35.12l6.2-20.65h5.43L53,60.22H47.9Zm-4-15-2,7.47h4Z"/><path class="cls-1" d="M67.8,60.32c-1.64,0-2.29-1.27-2.33-3.19V54.05a1.94,1.94,0,0,0-2.26-2.14H59.92v8.31H55V39.57h9c4.34,0,6.29,2.11,6.29,5.21v1.46c0,2.08-1,3.41-3.26,4a3.53,3.53,0,0,1,3.32,3.72v2.95a3.11,3.11,0,0,0,1,2.45v1H67.8ZM65.35,45.19c0-1.12-.56-1.86-2.14-1.86H59.92v5.52h3.19c1.52,0,2.23-.68,2.23-2V45.19Z"/><path class="cls-1" d="M89.84,51.94v8.28h-5V51.94l-6.6-12.37h5.33l4,8.25,3.81-8.25h5.08Z"/><path class="cls-1" d="M105.25,60.81c-5.15,0-8.34-3.19-8.34-7.53V46.52c0-4.37,3.19-7.5,8.34-7.5s8.31,3.13,8.31,7.5v6.76C113.56,57.62,110.4,60.81,105.25,60.81Zm3.29-14.51a3.29,3.29,0,1,0-6.57,0v7.22a3.29,3.29,0,0,0,6.57,0V46.3Z"/><path class="cls-1" d="M124.65,60.81c-5,0-8.09-2.85-8.09-6.76V39.57h5V53.87c0,1.83,1.08,2.95,3.19,2.95s3.16-1.12,3.16-2.95V39.57h4.74V54.05C132.68,57.93,129.77,60.81,124.65,60.81Z"/><circle class="cls-2" cx="170.69" cy="16.48" r="1.63"/><circle class="cls-2" cx="177.73" cy="16.48" r="1.63"/><circle class="cls-2" cx="184.77" cy="16.48" r="1.63"/><circle class="cls-2" cx="191.81" cy="16.48" r="1.63"/><circle class="cls-2" cx="198.85" cy="16.48" r="1.63"/><circle class="cls-2" cx="163.65" cy="23.5" r="1.63"/><circle class="cls-2" cx="170.69" cy="23.5" r="1.63"/><circle class="cls-2" cx="177.73" cy="23.5" r="1.63"/><circle class="cls-2" cx="184.77" cy="23.5" r="1.63"/><circle class="cls-2" cx="191.81" cy="23.5" r="1.63"/><circle class="cls-2" cx="198.85" cy="23.5" r="1.63"/><circle class="cls-2" cx="205.89" cy="16.48" r="1.63"/><circle class="cls-2" cx="205.89" cy="23.5" r="1.63"/><circle class="cls-2" cx="212.93" cy="16.48" r="1.63"/><circle class="cls-2" cx="219.97" cy="16.48" r="1.63"/><circle class="cls-2" cx="212.93" cy="23.5" r="1.63"/><circle class="cls-2" cx="219.97" cy="23.5" r="1.63"/><circle class="cls-2" cx="156.61" cy="30.93" r="1.63"/><circle class="cls-2" cx="163.65" cy="30.93" r="1.63"/><circle class="cls-2" cx="170.69" cy="30.93" r="1.63"/><circle class="cls-2" cx="177.73" cy="30.93" r="1.63"/><circle class="cls-2" cx="184.77" cy="30.93" r="1.63"/><circle class="cls-2" cx="191.81" cy="30.93" r="1.63"/><circle class="cls-2" cx="198.85" cy="30.93" r="1.63"/><circle class="cls-2" cx="156.61" cy="37.95" r="1.63"/><circle class="cls-2" cx="163.65" cy="37.95" r="1.63"/><circle class="cls-2" cx="170.69" cy="37.95" r="1.63"/><circle class="cls-2" cx="177.73" cy="37.95" r="1.63"/><circle class="cls-2" cx="184.77" cy="37.95" r="1.63"/><circle class="cls-2" cx="191.81" cy="37.95" r="1.63"/><circle class="cls-2" cx="198.85" cy="37.95" r="1.63"/><circle class="cls-2" cx="205.89" cy="30.93" r="1.63"/><circle class="cls-2" cx="205.89" cy="37.95" r="1.63"/><circle class="cls-2" cx="212.93" cy="30.93" r="1.63"/><circle class="cls-2" cx="219.97" cy="30.93" r="1.63"/><circle class="cls-2" cx="212.93" cy="37.95" r="1.63"/><circle class="cls-2" cx="219.97" cy="37.95" r="1.63"/><circle class="cls-2" cx="234.13" cy="1.63" r="1.63"/><circle class="cls-2" cx="227.09" cy="16.48" r="1.63"/><circle class="cls-2" cx="234.13" cy="16.48" r="1.63"/><circle class="cls-2" cx="227.09" cy="23.5" r="1.63"/><circle class="cls-2" cx="234.13" cy="23.5" r="1.63"/><circle class="cls-2" cx="234.13" cy="9.05" r="1.63"/><circle class="cls-2" cx="227.09" cy="30.93" r="1.63"/><circle class="cls-2" cx="234.13" cy="30.93" r="1.63"/><circle class="cls-2" cx="227.09" cy="37.95" r="1.63"/><circle class="cls-2" cx="234.13" cy="37.95" r="1.63"/><circle class="cls-2" cx="156.56" cy="44.98" r="1.63"/><circle class="cls-2" cx="156.56" cy="52.4" r="1.63"/><circle class="cls-2" cx="156.56" cy="59.83" r="1.63"/><circle class="cls-2" cx="163.61" cy="44.98" r="1.63"/><circle class="cls-2" cx="163.61" cy="52.4" r="1.63"/><circle class="cls-2" cx="170.65" cy="44.98" r="1.63"/><circle class="cls-2" cx="177.69" cy="44.98" r="1.63"/><circle class="cls-2" cx="184.73" cy="44.98" r="1.63"/><circle class="cls-2" cx="191.77" cy="44.98" r="1.63"/><circle class="cls-2" cx="198.81" cy="44.98" r="1.63"/><circle class="cls-2" cx="205.85" cy="44.98" r="1.63"/><circle class="cls-2" cx="219.93" cy="44.98" r="1.63"/><circle class="cls-2" cx="212.89" cy="44.98" r="1.63"/><circle class="cls-2" cx="234.09" cy="44.98" r="1.63"/><circle class="cls-2" cx="227.05" cy="44.98" r="1.63"/><circle class="cls-2" cx="234.09" cy="59.83" r="1.63"/><circle class="cls-2" cx="234.09" cy="52.4" r="1.63"/><circle class="cls-2" cx="241.17" cy="9.05" r="1.63"/><circle class="cls-2" cx="241.17" cy="16.48" r="1.63"/><circle class="cls-2" cx="248.21" cy="16.48" r="1.63"/><circle class="cls-2" cx="241.17" cy="23.5" r="1.63"/><circle class="cls-2" cx="248.21" cy="23.5" r="1.63"/><circle class="cls-2" cx="241.17" cy="30.93" r="1.63"/><circle class="cls-2" cx="248.21" cy="30.93" r="1.63"/><circle class="cls-2" cx="241.17" cy="37.95" r="1.63"/><circle class="cls-2" cx="248.21" cy="37.95" r="1.63"/><circle class="cls-2" cx="255.34" cy="23.5" r="1.63"/><circle class="cls-2" cx="255.34" cy="30.93" r="1.63"/><circle class="cls-2" cx="262.38" cy="30.93" r="1.63"/><circle class="cls-2" cx="255.34" cy="37.95" r="1.63"/><circle class="cls-2" cx="248.17" cy="44.98" r="1.63"/><circle class="cls-2" cx="241.13" cy="44.98" r="1.63"/><circle class="cls-2" cx="241.13" cy="52.4" r="1.63"/></svg>