<svg id="Layer_1" data-name="Layer 1" xmlns="http://www.w3.org/2000/svg" width="90.26" height="12.15" viewBox="0 0 90.26 12.15"><defs><style>.cls-1{fill:#fff;}</style></defs><title>home-cp-logo</title><path class="cls-1" d="M5.11,0.62a6.76,6.76,0,0,1,2.58.48l0,0.5a7.3,7.3,0,0,0-2.56-.53C2,1.07.51,3.38,0.51,6.39S2,11.7,5.11,11.7a7.3,7.3,0,0,0,2.56-.53l0,0.5a6.75,6.75,0,0,1-2.58.48C1.63,12.15,0,9.59,0,6.39S1.63,0.62,5.11.62Z"/><path class="cls-1" d="M12.66,12.15c-2.11,0-3.51-1.57-3.51-4.13s1.39-4.16,3.51-4.16S16.13,5.44,16.13,8,14.75,12.15,12.66,12.15Zm0-7.84c-2.23,0-3,2-3,3.71s0.8,3.68,3,3.68,3-1.92,3-3.68S14.85,4.31,12.66,4.31Z"/><path class="cls-1" d="M18.67,4.45H17.36l0-.37L18.66,4l0.1-1.78,0.4-.14V4h4.64l0.11-1.78,0.4-.14V4h2.26l0,0.43H24.31V10c0,1.58.61,1.73,1.17,1.73a3.77,3.77,0,0,0,1.15-.22l0,0.46a3.53,3.53,0,0,1-1.17.22c-1.22,0-1.66-.77-1.66-2.1V4.45H19.15V10c0,1.58.61,1.73,1.17,1.73a3.77,3.77,0,0,0,1.15-.22l0,0.46a3.53,3.53,0,0,1-1.17.22c-1.22,0-1.65-.77-1.65-2.1V4.45Z"/><path class="cls-1" d="M29.17,10.4c0,0.86.08,1.28,0.54,1.28a2.91,2.91,0,0,0,.85-0.22l0,0.46a3.15,3.15,0,0,1-1,.22c-0.61,0-.9-0.48-0.9-1.28V0.06L29.17,0V10.4Z"/><path class="cls-1" d="M31.49,8.08c0-2.71,1.42-4.23,3.41-4.23,2.27,0,3.09,2,2.8,4H32c0,2.46,1,3.87,3.2,3.87a5.45,5.45,0,0,0,2.22-.5l0,0.48a5.6,5.6,0,0,1-2.32.46C32.61,12.15,31.49,10.47,31.49,8.08Zm5.76-.7c0.18-1.55-.61-3.07-2.35-3.07S32.16,5.84,32,7.38h5.25Z"/><path class="cls-1" d="M43.58,10c0-2.31-3.94-1.74-3.94-4.15a2,2,0,0,1,2.29-2,4.3,4.3,0,0,1,1.92.45l0,0.53a4.25,4.25,0,0,0-1.9-.53,1.56,1.56,0,0,0-1.79,1.5c0,2,3.94,1.49,3.94,4.13a2.25,2.25,0,0,1-2.55,2.21,4.48,4.48,0,0,1-2-.48l0.16-.46a4.37,4.37,0,0,0,1.87.5A1.82,1.82,0,0,0,43.58,10Z"/><path class="cls-1" d="M46.72,4.45H45.41l0-.37L46.7,4l0.1-1.78,0.4-.14V4h2.26l0,0.43H47.2V10c0,1.58.59,1.73,1.15,1.73a3.77,3.77,0,0,0,1.15-.22l0,0.46a3.53,3.53,0,0,1-1.17.22c-1.22,0-1.63-.77-1.63-2.1V4.45Z"/><path class="cls-1" d="M54.45,12.15c-2.11,0-3.51-1.57-3.51-4.13s1.39-4.16,3.51-4.16S57.92,5.44,57.92,8,56.54,12.15,54.45,12.15Zm0-7.84c-2.23,0-3,2-3,3.71s0.8,3.68,3,3.68,3-1.92,3-3.68S56.64,4.31,54.45,4.31Z"/><path class="cls-1" d="M66,7.06V12H65.57V7.07c0-1.6-.54-2.79-2.11-2.79A3.32,3.32,0,0,0,60.64,6v6H60.17V5.76c0-.62,0-1.15,0-1.74l0.45,0,0.06,1.41h0a3.51,3.51,0,0,1,2.8-1.52C64.56,3.86,66,4.37,66,7.06Z"/><path class="cls-1" d="M73.41,6.91V12H72.93V0.88A19.9,19.9,0,0,1,75.07.74c3,0,3.79,1.31,3.79,3,0,2.13-1.44,3.25-4,3.25A10.55,10.55,0,0,1,73.41,6.91Zm0-.45a7.56,7.56,0,0,0,1.46.13c2.22,0,3.49-.8,3.49-2.82S77.18,1.2,74.85,1.2a11.59,11.59,0,0,0-1.44.1V6.47Z"/><path class="cls-1" d="M81.5,1.17a0.4,0.4,0,0,1,.42.42A0.39,0.39,0,0,1,81.5,2a0.39,0.39,0,0,1-.42-0.42A0.39,0.39,0,0,1,81.5,1.17ZM81.26,4l0.46,0v8H81.26V4Z"/><path class="cls-1" d="M84,8.08c0-2.71,1.42-4.23,3.41-4.23,2.27,0,3.09,2,2.8,4H84.48c0,2.46,1,3.87,3.2,3.87a5.45,5.45,0,0,0,2.22-.5l0,0.48a5.6,5.6,0,0,1-2.32.46C85.12,12.15,84,10.47,84,8.08Zm5.76-.7c0.18-1.55-.61-3.07-2.35-3.07s-2.74,1.54-2.9,3.07h5.25Z"/></svg>