<svg id="Layer_1" data-name="Layer 1" xmlns="http://www.w3.org/2000/svg" width="349" height="188.01" viewBox="0 0 349 188.01"><defs><style>.cls-1{fill:#fff;}</style></defs><title>home-get-biked-logo</title><path class="cls-1" d="M50.12,88.33c6.69,0,15.3-1.75,20.84-3.26l11.32,3V64.92c0.06-11.7.9-17,9.28-17v-0.3H46.87V48C58.67,48,58.67,54.42,58.67,69V86.76A26.77,26.77,0,0,1,51,87.91c-20.06,0-22.65-25.16-22.65-42.66,0-18.95,2-42.66,23.55-42.66,19.58,0,26.81,19.55,28.07,33.49h0.3L78.31,2.41,71.08,5.49A76.87,76.87,0,0,0,49.82,2.17c-25.48,0-48,17.74-48,43.08S24.22,88.33,50.12,88.33Zm74.81,0c17.23,0,28.07-11.22,33.73-25.58l-0.18-.12C154.26,69.93,147.22,74,137.7,74c-15.72,0-22.23-12.49-22.29-25.1H156c3.86-15.33-7.11-25.58-27-25.58-19.64,0-36.26,12.91-36.26,32.22S105.29,88.33,124.93,88.33Zm2.17-64.62c9.64,0,9.52,17.26,7.59,24.74H115.41C115.41,40.06,118.36,23.71,127.1,23.71Zm40.72,47.6c0,9.41,3.79,17,14.64,17,9.88,0,18.19-6.27,23.67-11.1L205.94,77a13.8,13.8,0,0,1-8.61,3.5c-6.81,0-7.23-6.82-7.23-13.27V24.56h13.25V24.13H190.1V0h-0.42c0,7.12-1.93,14.06-5.54,18.64-5.06,4.22-13.07,5.49-23,5.49h-2.53v0.42h9.16V71.32ZM87.22,163c0-19.19-28-22.32-40.72-22.44v-0.12c12-.36,35.18-2.29,35.18-18.22,0-19.43-26.38-19.55-47.35-19.55H0V103c13,0,13,6.82,13,21.42v41c0,14.12,0,21.42-13,21.42v0.3H48.55C72.53,187.16,87.22,178.11,87.22,163Zm-49.4-60H41c14.1,0,16.51,7.06,16.51,18.52,0,12.79-3.73,18.95-16.26,18.95H37.83V103Zm8.07,83.87c-7.71,0-8.07-3.2-8.07-14.66V140.77h4c16,0,18.91,8.63,18.91,22.26C60.72,178.84,57.35,186.86,45.9,186.86Zm43.73-82.12a13,13,0,1,0,26,0,12.87,12.87,0,0,0-13-12.91A13,13,0,0,0,89.63,104.75ZM197.45,170c-4.76-11.77-12.83-32.4-40.48-18.82l13.13-12.37c9.52-8.93,16.69-14.6,30-14.72v-0.3H169.62v0.3c11.2,0,7.53,7.42,0,14.48l-13.25,12.55V91.84l-34.46,9.29,0.06,0.3c10.24-2.72,12.11.6,12.11,9.47V171c0,12.74-1.06,15.79-10.12,15.86-9.06-.08-10.12-3.12-10.12-15.86V123l-34.46,9.29,0.06,0.3c10.24-2.78,12.11.66,12.11,9.47v29c0,12.91-1.08,15.87-10.48,15.87v0.3H163v-0.3c-6.51,0-6.63-5.85-6.63-13.45v-21.6c11.08-5.43,13.43,11.95,15.78,19.55C176.49,185.6,178.42,188,193.6,188c6.14,0,11.08-.48,17.23-0.84v-0.3C204.68,187.1,203.11,184,197.45,170Zm52.88,3.62c-15.72,0-22.23-12.49-22.29-25.1h40.6c3.86-15.33-7.11-25.58-27-25.58-19.64,0-36.26,12.91-36.26,32.22S217.93,188,237.56,188c17.23,0,28.07-11.22,33.73-25.58l-0.18-.12C266.9,169.61,259.85,173.65,250.34,173.65Zm-10.6-50.26c9.64,0,9.52,17.26,7.59,24.74H228C228,139.74,231,123.39,239.73,123.39Zm109.21,59.73c-9.76,2.65-10.54-3.2-10.54-11.28v-80l-34.46,9.29,0.12,0.3c10.36-2.72,11.93,1.39,12,9.47l0.18,13.52A27.85,27.85,0,0,0,307.8,123c-21,0-34.7,17.14-34.7,36.32C273.1,176.42,284.18,188,297,188c8,0,13.79-4.34,19.28-12.91-0.36,8.45,2,12.91,10.9,12.91,4.94,0,12-1.51,21.87-4.59Zm-32.83-8.39c-3.07,4.59-6.2,8.33-9.76,8.33-9.64,0-9.64-19.31-9.64-27.39,0-22.32,3.13-32.22,11.93-32.22,7,0,7.47,4.34,7.47,14.12v37.17Z" transform="translate(0 0)"/></svg>