<svg id="Layer_1" data-name="Layer 1" xmlns="http://www.w3.org/2000/svg" width="177.39" height="27.44" viewBox="0 0 177.39 27.44"><defs><style>.cls-1{fill:#fff;}</style></defs><title>home-ooh-logo</title><path class="cls-1" d="M5.16,27.44A5.1,5.1,0,0,1,0,22V5.44A5.12,5.12,0,0,1,5.16,0a5.12,5.12,0,0,1,5.16,5.44V22A5.1,5.1,0,0,1,5.16,27.44ZM6.8,5.12A1.58,1.58,0,0,0,5.16,3.4a1.55,1.55,0,0,0-1.6,1.72v17.2A1.53,1.53,0,0,0,5.16,24,1.56,1.56,0,0,0,6.8,22.32V5.12Z"/><path class="cls-1" d="M18.08,16.24H16.16V27H12.68V0.4h5.4c2.28,0,4.36,1.24,4.36,4.8v6.24C22.44,15,20.36,16.24,18.08,16.24ZM19,5.16c0-1-.36-1.52-1.12-1.52H16.16V13.2h1.72c0.76,0,1.12-.52,1.12-1.52V5.16Z"/><path class="cls-1" d="M24.4,27V0.4h8.52V3.68h-5v8H31.4v3.16H27.88v8.84h5V27H24.4Z"/><path class="cls-1" d="M42.8,27L39,14.28l-1.08-4V27H34.8V0.4h3.28l3.36,12.8,1,4V0.4h3.12V27H42.8Z"/><path class="cls-1" d="M57.44,27.44A5.1,5.1,0,0,1,52.28,22V5.44a5.17,5.17,0,1,1,10.32,0V22A5.1,5.1,0,0,1,57.44,27.44ZM59.08,5.12A1.58,1.58,0,0,0,57.44,3.4a1.55,1.55,0,0,0-1.6,1.72v17.2A1.53,1.53,0,0,0,57.44,24a1.56,1.56,0,0,0,1.64-1.72V5.12Z"/><path class="cls-1" d="M68.44,3.64v8.28h3.68v3.2H68.44V27H65V0.4h8.28V3.64h-4.8Z"/><path class="cls-1" d="M78.44,3.64v8.28h3.68v3.2H78.44V27H75V0.4h8.28V3.64h-4.8Z"/><path class="cls-1" d="M85,27V0.4h3.52V27H85Z"/><path class="cls-1" d="M96,27.44A5.16,5.16,0,0,1,90.76,22V5.48A5.19,5.19,0,0,1,96,0C99,0,100.8,2.24,100.8,5.36V9.8h-3V5.16a1.72,1.72,0,1,0-3.44,0V22.28a1.72,1.72,0,1,0,3.44,0V17.6h3v4.48C100.8,25.24,99,27.44,96,27.44Z"/><path class="cls-1" d="M102.88,27V0.4h8.52V3.68h-5v8h3.52v3.16h-3.52v8.84h5V27h-8.52Z"/><path class="cls-1" d="M124.72,27V15.6h-3.36V27h-3.52V0.4h3.52V12.2h3.36V0.4h3.52V27h-3.52Z"/><path class="cls-1" d="M135.68,27.44A5.1,5.1,0,0,1,130.52,22V5.44a5.17,5.17,0,1,1,10.32,0V22A5.1,5.1,0,0,1,135.68,27.44Zm1.64-22.32a1.58,1.58,0,0,0-1.64-1.72,1.55,1.55,0,0,0-1.6,1.72v17.2a1.53,1.53,0,0,0,1.6,1.72,1.56,1.56,0,0,0,1.64-1.72V5.12Z"/><path class="cls-1" d="M148.16,27.44a5,5,0,0,1-5.08-5.28V0.4h3.52V22.32a1.51,1.51,0,0,0,1.56,1.76,1.53,1.53,0,0,0,1.64-1.76V0.4h3.36V22.16A4.93,4.93,0,0,1,148.16,27.44Z"/><path class="cls-1" d="M163.88,27.16c-1.28,0-1.8-1.6-1.8-3.52V17.28a1.44,1.44,0,0,0-1.4-1.64h-1.56V27H155.6V0.4H161c2.28,0,4.4,1.24,4.4,4.72v5.6a3.46,3.46,0,0,1-2,3.4,3.57,3.57,0,0,1,2.12,3.4v5.92a5.18,5.18,0,0,0,.6,2.72v1h-2.2Zm-2-22c0-1-.36-1.52-1.12-1.52h-1.68v9h1.52c0.84,0,1.28-.52,1.28-1.64V5.16Z"/><path class="cls-1" d="M172.28,27.44c-3.16,0-5.08-2.08-5.08-5.44V19.12h3.2v3c0,1.4.6,2.24,1.76,2.24s1.84-.8,1.84-2.12c0-2.48-1-4.48-2.8-7.2-1.72-2.44-3.84-6-3.84-9.12C167.36,2.56,169,0,172.48,0c2.88,0,4.76,2.08,4.76,5.44v3h-3.16V5.32c0-1.32-.56-2.12-1.6-2.12a1.7,1.7,0,0,0-1.72,1.92c0,3,1,4.36,3,7.4s3.64,6,3.64,9.08C177.39,25.8,174.83,27.44,172.28,27.44Z"/></svg>