<svg id="Layer_1" data-name="Layer 1" xmlns="http://www.w3.org/2000/svg" width="293.29" height="293.29" viewBox="0 0 293.29 293.29"><defs><style>.cls-1{fill:#fff;}.cls-2{fill:none;}</style></defs><title>home-the-agency-logo</title><path class="cls-1" d="M146.64,293.29C65.78,293.29,0,227.5,0,146.64S65.78,0,146.64,0,293.29,65.78,293.29,146.64,227.5,293.29,146.64,293.29ZM146.64,5C68.54,5,5,68.54,5,146.64S68.54,288.29,146.64,288.29s141.64-63.54,141.64-141.64S224.75,5,146.64,5Z" transform="translate(0 0)"/><circle class="cls-2" cx="146.64" cy="146.64" r="102.26"/><path class="cls-1" d="M21,121.78l2.21-.39,0.91-4.16-1.83-1.29,0.58-2.64,8.82,6.42L31,122.62l-10.71,2.19Zm7.78-1.3-3.09-2.17-0.62,2.8Z" transform="translate(0 0)"/><path class="cls-1" d="M25.28,144a3.88,3.88,0,0,0,1.56-3,2.61,2.61,0,0,0-2.43-3L23.32,138c-1.44-.07-2.6.95-2.7,2.82a3.88,3.88,0,0,0,1.27,3.08l-1.45,1.55a5.8,5.8,0,0,1-2-5c0.18-3.49,2.43-5.58,5.05-5.45l1.06,0.05c2.64,0.13,4.69,2.52,4.52,6a5.91,5.91,0,0,1-2.53,4.78Z" transform="translate(0 0)"/><path class="cls-1" d="M18.54,154.86c-0.21-3.34,1.79-5.64,4.43-5.81L24,149c2.65-.17,4.91,1.87,5.12,5.21s-1.78,5.64-4.43,5.81l-1.08.07C21,160.23,18.76,158.2,18.54,154.86ZM24.68,157a2.55,2.55,0,0,0-.32-5.09l-1.3.08a2.55,2.55,0,0,0,.32,5.09Z" transform="translate(0 0)"/><path class="cls-1" d="M21.87,175.7l6.58-1.32-1.36-.29-5.84-1.49-0.34-1.72,4.83-3.6,1.14-.79-6.59,1.32-0.52-2.62,9.8-2,0.78,3.9-4.79,3.48-0.85.58,1,0.21,5.76,1.36,0.77,3.82-9.8,2Z" transform="translate(0 0)"/><path class="cls-1" d="M27.56,193.91l6.3-2.29-1.39-.09-6-.6-0.6-1.65L30.13,185l1-1-6.32,2.29-0.91-2.51,9.39-3.4,1.35,3.74-4.22,4.16-0.75.7,1,0.06,5.9,0.48,1.33,3.67-9.39,3.4Z" transform="translate(0 0)"/><path class="cls-1" d="M32.87,206.13c-1.66-3.16-.79-5.48,1.3-6.57l5.42-2.84L41,199.31l-5.32,2.78c-1.17.61-1.49,1.71-.74,3.15s1.8,1.73,3,1.12l5.32-2.78,1.24,2.37L39,208.78C37,209.85,34.54,209.32,32.87,206.13Z" transform="translate(0 0)"/><path class="cls-1" d="M42.72,221.48l1.67-6.66,0.3-1.07-5,3.41-1.56-2.26,8.22-5.67,1.44,2.09-1.73,6.6L45.81,219l5-3.42,1.56,2.26-8.22,5.67Z" transform="translate(0 0)"/><path class="cls-1" d="M47.23,227.33l7.68-6.39,1.86,2.24-7.68,6.39Z" transform="translate(0 0)"/><path class="cls-1" d="M62,232.12l-5.52,5.44-2.05-2.08L60,230l-2.59-2.63L59,225.85l7.22,7.33-1.59,1.57Z" transform="translate(0 0)"/><path class="cls-1" d="M69.72,244l-2.49,3.08L65,245.25l2.49-3.08,0.36-7.47,2.52,2-0.4,4.91,4.62-1.49,2.41,2Z" transform="translate(0 0)"/><path class="cls-1" d="M83.55,258.45c-2.91-1.65-3.75-4.59-2.45-6.88l0.53-.94c1.31-2.31,4.25-3.1,7.16-1.45s3.76,4.57,2.45,6.88l-0.53.94C89.42,259.3,86.47,260.1,83.55,258.45Zm5.17-4A2.55,2.55,0,0,0,84.28,252l-0.64,1.14a2.55,2.55,0,0,0,4.44,2.51Z" transform="translate(0 0)"/><path class="cls-1" d="M98.48,256.8l-0.84,2,3.57,1.52-0.71,1.66-3.57-1.52L95.4,264l-2.68-1.14,3.91-9.19,8.18,3.48-0.84,2Z" transform="translate(0 0)"/><path class="cls-1" d="M116.31,271.06l-5.06-1.23,2.37-9.71,5.06,1.23c3.31,0.81,4.77,3.19,4.19,5.56l-0.28,1.17C122,270.44,119.62,271.86,116.31,271.06Zm3.69-4.87a2.29,2.29,0,0,0-2-2.87L116,262.8l-1.39,5.71,2.08,0.51a2.3,2.3,0,0,0,3.06-1.66Z" transform="translate(0 0)"/><path class="cls-1" d="M125.93,273l1.49-9.88,2.88,0.44-1.49,9.88Z" transform="translate(0 0)"/><path class="cls-1" d="M142.83,274.68l-0.32-1.48a4.65,4.65,0,0,1-4,1.55c-3.41-.21-5.24-2.47-5.08-5l0.07-1.12c0.16-2.6,2.63-4.65,6.07-4.44a5.9,5.9,0,0,1,4.8,2.58L142.59,268a3.91,3.91,0,0,0-2.93-1.64c-1.87-.11-3.06.94-3.15,2.36l-0.07,1.17a2.49,2.49,0,0,0,2.56,2.67c1.42,0.09,2.32-.64,2.38-1.54v-0.15l-2.2-.13,0.09-1.51,5.1,0.31-0.32,5.21Z" transform="translate(0 0)"/><path class="cls-1" d="M148.57,274.67l-0.25-10,2.91-.07,0.25,10Z" transform="translate(0 0)"/><path class="cls-1" d="M161.49,266l0.85,7.71-2.91.32-0.85-7.71-3.67.41-0.25-2.22,10.23-1.13,0.25,2.22Z" transform="translate(0 0)"/><path class="cls-1" d="M176.86,271.12l-1.28-1.84-4.16.91L171,272.4l-2.64.58,2.14-10.69,2.9-.63,6.47,8.81Zm-4.43-6.52-0.68,3.71,2.8-.61Z" transform="translate(0 0)"/><path class="cls-1" d="M183.8,269.27l-3.21-9.46,2.76-.94,2.48,7.32,6.07-2.06,0.73,2.15Z" transform="translate(0 0)"/><path class="cls-1" d="M206,256.08l-2.62,1.39,1.66,3.13L202.51,262l-4.68-8.82,5.19-2.76c2.26-1.2,4-.7,4.9.91l0.11,0.21C208.89,253.12,208.31,254.87,206,256.08Zm-0.63-3.27c-0.33-.62-0.95-0.82-1.9-0.32l-2.13,1.13,1.25,2.34,2.16-1.15c0.94-.5,1.09-1.14.77-1.75Z" transform="translate(0 0)"/><path class="cls-1" d="M221.52,250.57c-0.52.36-1.15,0-1.68-.76l-0.69-1c-0.43-.6-0.87-0.71-1.84-0.05l-2,1.39,2.16,3.16L215,255l-5.65-8.24,4.88-3.34c2.12-1.45,3.86-1.21,4.74.06l0.12,0.17a2.3,2.3,0,0,1-.52,3.07,2.07,2.07,0,0,1,3,.57l0.56,0.8a2,2,0,0,0,1.3.94l0.1,0.15Zm-4.66-5c-0.38-.56-1-0.68-2,0L213,246.83l1.4,2,2-1.34c0.9-.62,1.08-1.21.68-1.79Z" transform="translate(0 0)"/><path class="cls-1" d="M231.08,243.32c-2.52,2.2-5.57,2-7.3,0l-0.71-.81c-1.75-2-1.51-5,1-7.23s5.56-2,7.3,0l0.71,0.81C233.82,238.07,233.6,241.12,231.08,243.32Zm-2-6.18a2.55,2.55,0,0,0-3.84,3.36l0.86,1a2.55,2.55,0,0,0,3.84-3.36Z" transform="translate(0 0)"/><path class="cls-1" d="M234.47,228.69l1.58,1.45,2.62-2.87,1.33,1.22-2.62,2.87,2.88,2.63-2,2.15-7.37-6.75,6-6.56,1.58,1.45Z" transform="translate(0 0)"/><path class="cls-1" d="M247.05,226.2l-8-5.94,5.38-7.27,1.74,1.29-3.65,4.93,1.51,1.12,2.61-3.52,1.35,1-2.61,3.52,1.6,1.19,3.65-4.93,1.83,1.36Z" transform="translate(0 0)"/><path class="cls-1" d="M257.68,211.08a10.11,10.11,0,0,1-4.11,3.92l-0.93-1.89A8.76,8.76,0,0,0,256,210c0.75-1.29.62-2.07,0.11-2.37-1.44-.84-4.17,5.81-7.32,4-1.55-.91-1.8-3.37-0.3-5.94a7.89,7.89,0,0,1,3.91-3.46l0.67,1.94a6.86,6.86,0,0,0-2.92,2.59c-0.67,1.15-.68,2.05-0.16,2.36,1.4,0.82,4.28-5.82,7.34-4C259,206.06,259.12,208.62,257.68,211.08Z" transform="translate(0 0)"/><path class="cls-1" d="M264.16,198.35a10.09,10.09,0,0,1-3.65,4.36l-1.13-1.78a8.74,8.74,0,0,0,3-3.43c0.61-1.37.38-2.13-.15-2.36-1.52-.67-3.49,6.24-6.83,4.77-1.65-.73-2.16-3.15-1-5.87a7.89,7.89,0,0,1,3.5-3.88l0.89,1.85a6.85,6.85,0,0,0-2.61,2.9c-0.54,1.22-.44,2.12.11,2.36,1.48,0.65,3.6-6.26,6.84-4.83C264.94,193.22,265.31,195.74,264.16,198.35Z" transform="translate(0 0)"/><path class="cls-1" d="M267.33,189.5l-9.45-3.23,0.94-2.75,9.45,3.23Z" transform="translate(0 0)"/><path class="cls-1" d="M271.33,177.23c-0.79,3.25-3.39,4.85-6,4.23l-1-.26c-2.58-.63-4.13-3.25-3.34-6.5s3.38-4.86,6-4.23l1,0.26C270.56,171.36,272.13,174,271.33,177.23Zm-5.21-3.9a2.55,2.55,0,0,0-1.21,5l1.27,0.31a2.55,2.55,0,0,0,1.21-5Z" transform="translate(0 0)"/><path class="cls-1" d="M274.09,159.2l-5.66,3.89-0.93.6,6,0.71-0.32,2.73-9.92-1.18,0.3-2.52,5.66-3.81,0.93-.58-6-.71,0.32-2.72,9.92,1.18Z" transform="translate(0 0)"/><path class="cls-1" d="M274.72,144l-2.08.82L272.56,149l2.06,0.9,0,2.7-9.92-4.54,0-3,10.06-4.28Zm-7.37,2.82,3.46,1.51,0-2.86Z" transform="translate(0 0)"/><path class="cls-1" d="M274.38,136.85l-9.93,1.09L264.13,135l7.68-.84-0.7-6.37,2.25-.25Z" transform="translate(0 0)"/><path class="cls-1" d="M271.93,118.57a10.1,10.1,0,0,1-.36,5.67l-2-.76a8.76,8.76,0,0,0,.38-4.54c-0.32-1.46-1-1.94-1.52-1.81-1.63.36,0.88,7.1-2.67,7.89-1.76.39-3.61-1.26-4.26-4.16a7.9,7.9,0,0,1,.52-5.2l1.81,1a6.86,6.86,0,0,0-.38,3.88c0.29,1.3.9,2,1.48,1.84,1.58-.35-0.81-7.18,2.65-7.95C269.51,114,271.31,115.79,271.93,118.57Z" transform="translate(0 0)"/><path class="cls-1" d="M66.28,49.93l8.58,10-3.35,2.89-8.58-10-4,3.46-2.28-2.65L68,43.82l2.28,2.65Z" transform="translate(0 0)"/><path class="cls-1" d="M91.87,48.21l-3.36-5.62L82.84,46l3.36,5.63-3.8,2.27-8.54-14.3,3.8-2.27,3.47,5.82,5.67-3.38-3.47-5.82,3.8-2.27,8.54,14.3Z" transform="translate(0 0)"/><path class="cls-1" d="M100.48,43.74l-6-15.55,12.28-4.7L108,26.66l-8.15,3.12L101.1,33l5.77-2.21,0.9,2.36L102,35.34l1.33,3.48,8.15-3.12L112.76,39Z" transform="translate(0 0)"/><path class="cls-1" d="M136.51,34.45l-1.58-3.23-5.83.72-0.77,3.52-4.09.51,4.16-17.29,4.42-.55,8.32,15.75ZM131,23l-1.3,6,3.94-.49Z" transform="translate(0 0)"/><path class="cls-1" d="M157.48,34.43L157,32.21a6.47,6.47,0,0,1-5.59,2.41c-4.9-.22-7.5-3.48-7.34-7.31l0.16-3.52c0.17-3.82,3.58-6.9,8.58-6.68,3.72,0.16,6.12,2,7.21,4.6l-3.25,1.51a4.47,4.47,0,0,0-3.89-2.65c-2.52-.11-4,1.35-4.13,3.35l-0.16,3.65a3.38,3.38,0,0,0,3.52,3.63c2,0.09,3.22-1.06,3.29-2.66l0-.42L152.48,28l0.1-2.35L159.88,26l-0.38,8.57Z" transform="translate(0 0)"/><path class="cls-1" d="M164.25,35.25L167.74,19l12.86,2.76-0.71,3.32-8.53-1.83-0.72,3.35,6,1.3-0.53,2.47-6-1.3-0.78,3.64,8.53,1.83L177.11,38Z" transform="translate(0 0)"/><path class="cls-1" d="M192.49,43.72l-2.72-9.94-0.54-2.05-3.71,9.18-3.82-1.55,6.24-15.44,3.55,1.43,2.58,10,0.51,2,3.73-9.23,3.82,1.55-6.24,15.44Z" transform="translate(0 0)"/><path class="cls-1" d="M216.58,44.38a4.68,4.68,0,0,0-2.15-4.24c-2.12-1.33-4.1-.8-5.22,1l-1.86,3c-1.1,1.76-.68,3.77,1.46,5.11a4.5,4.5,0,0,0,4.75.06l1.73,2.89a7.66,7.66,0,0,1-8.54-.17c-4.28-2.68-5.29-7-3.16-10.4l1.73-2.75c2.14-3.41,6.55-4.36,10.8-1.69,3.07,1.93,4.36,5.19,3.9,7.61Z" transform="translate(0 0)"/><path class="cls-1" d="M227.56,59l-4.45,5L219.8,61l4.45-5,1.87-11.65,3.62,3.22-1.52,7.61,7.25-2.51,3.46,3.07Z" transform="translate(0 0)"/><path class="cls-1" d="M146.64,251.07A104.43,104.43,0,1,1,251.07,146.64,104.54,104.54,0,0,1,146.64,251.07Zm0-203.85a99.43,99.43,0,1,0,99.43,99.43A99.54,99.54,0,0,0,146.64,47.22Z" transform="translate(0 0)"/><path class="cls-1" d="M48.35,97.06l-7.71-4-7.71,4,1.49-8.55L28.2,82.45l8.61-1.26,3.84-7.79,3.84,7.79,8.61,1.26-6.24,6.06ZM32.5,83.84l4.08,4-1,5.59,5-2.64,5,2.64-1-5.59,4.08-4L43.15,83l-2.51-5.09L38.14,83Z" transform="translate(0 0)"/><path class="cls-1" d="M263.35,97.06l-7.71-4-7.71,4,1.49-8.55-6.23-6.06,8.61-1.26,3.84-7.79,3.84,7.79,8.61,1.26-6.24,6.06ZM247.5,83.84l4.08,4-1,5.59,5-2.64,5,2.64-1-5.59,4.08-4L258.15,83l-2.51-5.09L253.14,83Z" transform="translate(0 0)"/><path class="cls-1" d="M201.61,127V111.41h-2.44c-9.53,0-18,6.15-23,15.57h-0.53a24.3,24.3,0,0,0-31.88-16.07,24.21,24.21,0,0,0-8.45-1.54A24.48,24.48,0,0,0,111.92,127H100a2.62,2.62,0,0,0-.27.25l-13.51,8.33c-0.44.32-1.35,0.9-3,1.82l-17.7,10.91,34.56,21.31h11.32V243a2.44,2.44,0,0,0,4.88,0V169.61h55.28c0,0.06,0,.12,0,0.18a19.23,19.23,0,0,1-16.42,18.86,18.93,18.93,0,0,1-2.65.21,2.44,2.44,0,0,0,0,4.88A24,24,0,0,0,176.34,172c0.07-.73.31-2.29,0.31-3V145.6a35.21,35.21,0,0,1,.2-3.77c1.35-13.49,9.69-23.9,19.88-25.35V234h4.88V169.61h17.51V127H201.61ZM83.05,153.36l-8.21-5.07,8.21-5.06v10.13Zm16,9.88-11.13-6.86V140.22l11.13-6.87v29.88Zm36.27-49a19.5,19.5,0,0,1,.59,39V126.83H117.11A19.6,19.6,0,0,1,135.34,114.26Zm36.43,50.46H104V131.87H131v15.61H105.88a0.81,0.81,0,0,0,0,1.63H131v8.72l2.19,0.23a20.49,20.49,0,0,0,2.1.1A24.21,24.21,0,0,0,148,154.59v3.24l2.19,0.23a19.94,19.94,0,0,0,2.1.1,24.34,24.34,0,0,0,18.93-9h0.57v15.61Zm-18.91-11.46V150.7a24.29,24.29,0,0,0-2.75-36.3A19.5,19.5,0,1,1,152.85,153.26Zm21.37,14.11,0,0h0l0.07,0h-0.05Zm40-2.64H201.61V149.11h11.93a0.8,0.8,0,0,0,.7-0.42v16Zm0-16.83a0.8,0.8,0,0,0-.7-0.42H201.61V131.87h12.63v16Z" transform="translate(0 0)"/></svg>