<svg id="Layer_1" data-name="Layer 1" xmlns="http://www.w3.org/2000/svg" width="372.24" height="33.37" viewBox="0 0 372.24 33.37"><defs><style>.cls-1{fill:#fff;}</style></defs><title>ooh-title</title><path class="cls-1" d="M16.15,33.37C6.13,33.37,0,26.25,0,18.63V14.74C0,7,6.13,0,16.15,0S32.34,7,32.34,14.74v3.88C32.34,26.25,26.21,33.37,16.15,33.37ZM26.68,14.74c0-5.33-3.7-9.92-10.53-9.92S5.66,9.41,5.66,14.74v3.79c0,5.33,3.65,10,10.48,10s10.53-4.68,10.53-10Z"/><path class="cls-1" d="M44.6,5.85v8.94H59.11v4.59H44.6V32.24H39V1.08H64V5.85Z"/><path class="cls-1" d="M75.58,5.85v8.94H90.09v4.59H75.58V32.24H70V1.08H95V5.85Z"/><path class="cls-1" d="M100.95,32.24V1.08h5.62V32.24Z"/><path class="cls-1" d="M140.63,10.16A13.29,13.29,0,0,0,130,4.82c-7.16,0-11.09,4.77-11.09,10.34v3.28c0,5.48,4,10.11,11.37,10.11a12.85,12.85,0,0,0,10.48-5.38l4,2.85a17.77,17.77,0,0,1-14.79,7.35c-10.58,0-16.71-7-16.71-14.93V15.16c0-8,6.6-15.16,16.94-15.16,6.69,0,12.12,3.46,14.55,7.3Z"/><path class="cls-1" d="M150.55,32.24V1.08H176V5.85H156.17v8h15.12v4.59H156.17v9H176v4.77Z"/><path class="cls-1" d="M220.75,32.24V18.81H202V32.24h-5.62V1.08H202v13.2h18.77V1.08h5.62V32.24Z"/><path class="cls-1" d="M249.16,33.37c-10,0-16.15-7.11-16.15-14.74V14.74C233,7,239.15,0,249.16,0s16.19,7,16.19,14.74v3.88C265.35,26.25,259.22,33.37,249.16,33.37Zm10.53-18.63c0-5.33-3.7-9.92-10.53-9.92s-10.48,4.59-10.48,9.92v3.79c0,5.33,3.65,10,10.48,10s10.53-4.68,10.53-10Z"/><path class="cls-1" d="M286.46,33.37c-10,0-14.83-5.43-14.83-13V1.08h5.62V20.45c0,5.15,3.23,8.1,9.5,8.1,6.46,0,9.13-2.95,9.13-8.1V1.08h5.62V20.4C301.48,27.66,296.76,33.37,286.46,33.37Z"/><path class="cls-1" d="M334.29,32.34c-2.2,0-3.09-2-3.23-5l-.14-3.6c-.14-2.95-1.36-4.31-6.41-4.31h-9.64V32.24h-5.62V1.08H324.6c8.56,0,12.31,3.6,12.31,8.38v.47c0,3.42-1.64,6.36-7.07,7.39,5.43.42,6.79,3.18,6.79,6.6l0,3.09a5.07,5.07,0,0,0,1.83,4.31v1ZM331.2,10c0-2.15-1.54-4.17-5.94-4.17H314.87v9.5h10.62c3.88,0,5.71-1.92,5.71-4.45Z"/><path class="cls-1" d="M357.83,33.37a28.58,28.58,0,0,1-15.49-4.77l2.81-4.26c4.54,2.9,8.71,4.31,13.38,4.31,5.48,0,8-2.11,8-4.59,0-7.11-23.17-2.85-23.17-14.18,0-5.52,5.52-9.87,14.41-9.87,6,0,11.18,2.25,14.23,5.29l-3.46,3.56a17.08,17.08,0,0,0-10.86-4.12c-5.19,0-8.7,1.87-8.7,4.54,0,6.6,23.21,3.09,23.21,14.23C372.24,29.39,366.3,33.37,357.83,33.37Z"/></svg>