<svg width="32" height="32" viewBox="0 0 32 32" fill="none" xmlns="http://www.w3.org/2000/svg">
<path d="M19.9094 10.3555C19.9094 10.6125 20.0115 10.8589 20.1932 11.0406C20.3749 11.2223 20.6213 11.3244 20.8783 11.3244H30.6027V1.60883C30.6027 1.35069 30.5002 1.10312 30.3177 0.920581C30.1351 0.738045 29.8875 0.635498 29.6294 0.635498C29.3713 0.635498 29.1237 0.738045 28.9412 0.920581C28.7586 1.10312 28.6561 1.35069 28.6561 1.60883V7.9555C26.8334 5.28637 24.1758 3.29819 21.1007 2.30318C18.0255 1.30817 14.707 1.36268 11.6662 2.45814C8.62542 3.55361 6.03458 5.62799 4.30052 8.35554C2.56647 11.0831 1.78742 14.3093 2.08571 17.5276C2.384 20.746 3.74274 23.774 5.94856 26.1364C8.15438 28.4988 11.0823 30.0617 14.2727 30.5796C17.463 31.0975 20.735 30.5412 23.5749 28.9979C26.4148 27.4547 28.6617 25.0119 29.9627 22.0533C30.0591 21.8133 30.0583 21.5454 29.9606 21.306C29.8628 21.0666 29.6758 20.8747 29.4391 20.7708C29.2023 20.6668 28.9345 20.6591 28.6921 20.7491C28.4498 20.8392 28.2519 21.02 28.1405 21.2533C27.0114 23.8249 25.0557 25.9457 22.5838 27.2792C20.1119 28.6126 17.2655 29.0822 14.4963 28.6136C11.7271 28.1449 9.19372 26.7648 7.29828 24.6922C5.40285 22.6196 4.25393 19.9734 4.03388 17.1734C3.81382 14.3735 4.53523 11.5802 6.08362 9.237C7.632 6.89377 9.91864 5.13482 12.5806 4.2393C15.2426 3.34378 18.1275 3.363 20.7773 4.2939C23.4271 5.22481 25.6902 7.01407 27.2072 9.37772H20.8872C20.7584 9.37653 20.6308 9.40101 20.5116 9.44973C20.3924 9.49845 20.2842 9.57043 20.1931 9.66146C20.1021 9.75249 20.0301 9.86075 19.9814 9.97992C19.9327 10.0991 19.9082 10.2268 19.9094 10.3555V10.3555Z" fill="white"/>
</svg>
