<?xml version="1.0" encoding="utf-8"?>
<!-- Generator: Adobe Illustrator 24.2.1, SVG Export Plug-In . SVG Version: 6.00 Build 0)  -->
<svg version="1.1" id="Layer_1" xmlns="http://www.w3.org/2000/svg" xmlns:xlink="http://www.w3.org/1999/xlink" x="0px" y="0px"
	 viewBox="0 0 1440 143.8" style="enable-background:new 0 0 1440 143.8;" xml:space="preserve">
<style type="text/css">
	.st0{fill:url(#SVGID_1_);}
</style>
<linearGradient id="SVGID_1_" gradientUnits="userSpaceOnUse" x1="721" y1="364.054" x2="721" y2="220.2703" gradientTransform="matrix(-1 0 0 -1 1441 364.054)">
	<stop  offset="0" style="stop-color:#E52248"/>
	<stop  offset="1" style="stop-color:#EC5A31"/>
</linearGradient>
<path class="st0" d="M1440,124.4c0,0-40-5.2-65.5-15.4c-11.6-4.6-126.5-49.6-222.5-52.7c-96-2.9-192-2.9-288,3
	C768,65,672,77.2,576,94.8c-96,17.9-192,41.2-288,47.4S96,136,48,130.3l-48-5.4V0h48c48,0,144,0,240,0s192,0,288,0s192,0,288,0
	s192,0,288,0s192,0,240,0h48V124.4z"/>
</svg>
